<?xml version="1.0" encoding="UTF-8"?>
<!DOCTYPE svg PUBLIC "-//W3C//DTD SVG 1.1//EN" "http://www.w3.org/Graphics/SVG/1.1/DTD/svg11.dtd">
<svg xmlns="http://www.w3.org/2000/svg" version="1.1" width="206px" height="198px" style="shape-rendering:geometricPrecision; text-rendering:geometricPrecision; image-rendering:optimizeQuality; fill-rule:evenodd; clip-rule:evenodd" xmlns:xlink="http://www.w3.org/1999/xlink">
<g><path style="opacity:0.963" fill="#fdfdfd" d="M 25.5,-0.5 C 76.8333,-0.5 128.167,-0.5 179.5,-0.5C 179.5,65.5 179.5,131.5 179.5,197.5C 128.167,197.5 76.8333,197.5 25.5,197.5C 25.5,131.5 25.5,65.5 25.5,-0.5 Z"/></g>
<g><path style="opacity:1" fill="#b4b4b4" d="M 30.5,3.5 C 77.6637,2.50119 124.997,2.16786 172.5,2.5C 172.795,4.73535 172.461,6.73535 171.5,8.5C 171.5,6.83333 171.5,5.16667 171.5,3.5C 124.5,3.5 77.5,3.5 30.5,3.5 Z"/></g>
<g><path style="opacity:1" fill="#131313" d="M 30.5,3.5 C 77.5,3.5 124.5,3.5 171.5,3.5C 171.5,5.16667 171.5,6.83333 171.5,8.5C 167.532,9.07094 165.365,11.4043 165,15.5C 164.5,74.8324 164.333,134.166 164.5,193.5C 158.167,193.5 151.833,193.5 145.5,193.5C 145.945,190.635 145.278,188.135 143.5,186C 115.833,185.333 88.1667,185.333 60.5,186C 59.565,188.381 59.2317,190.881 59.5,193.5C 52.5,193.5 45.5,193.5 38.5,193.5C 38.6667,134.166 38.5,74.8324 38,15.5C 37.7679,14.2625 37.2679,13.2625 36.5,12.5C 35.4522,10.4662 33.7855,9.1329 31.5,8.5C 30.5481,6.95467 30.2148,5.28801 30.5,3.5 Z"/></g>
<g><path style="opacity:1" fill="#c9c9c9" d="M 164.5,7.5 C 122.33,7.16801 80.33,7.50135 38.5,8.5C 37.7109,8.21719 37.0442,7.71719 36.5,7C 79.9044,6.16997 122.571,6.33663 164.5,7.5 Z"/></g>
<g><path style="opacity:1" fill="#f7f7f7" d="M 164.5,7.5 C 164.297,9.04432 163.63,10.3777 162.5,11.5C 121.837,12.6666 81.1708,12.8333 40.5,12C 39.695,10.8873 39.0283,9.72065 38.5,8.5C 80.33,7.50135 122.33,7.16801 164.5,7.5 Z"/></g>
<g><path style="opacity:1" fill="#bebebe" d="M 36.5,12.5 C 37.2679,13.2625 37.7679,14.2625 38,15.5C 38.5,74.8324 38.6667,134.166 38.5,193.5C 37.8183,133.313 37.1516,72.9796 36.5,12.5 Z"/></g>
<g><path style="opacity:1" fill="#f3f3f3" d="M 82.5,16.5 C 82.168,58.3367 82.5014,100.003 83.5,141.5C 95.5,141.5 107.5,141.5 119.5,141.5C 120.499,100.003 120.832,58.3367 120.5,16.5C 121.5,16.5 122.5,16.5 123.5,16.5C 123.5,16.8333 123.5,17.1667 123.5,17.5C 123.5,58.8333 123.5,100.167 123.5,141.5C 135.5,141.5 147.5,141.5 159.5,141.5C 159.833,141.5 160.167,141.5 160.5,141.5C 160.5,141.833 160.5,142.167 160.5,142.5C 120.996,142.832 81.6631,142.499 42.5,141.5C 54.5,141.5 66.5,141.5 78.5,141.5C 79.4986,100.003 79.832,58.3367 79.5,16.5C 80.5,16.5 81.5,16.5 82.5,16.5 Z"/></g>
<g><path style="opacity:1" fill="#7a7a7a" d="M 160.5,16.5 C 148.167,16.5 135.833,16.5 123.5,16.5C 122.5,16.5 121.5,16.5 120.5,16.5C 107.833,16.5 95.1667,16.5 82.5,16.5C 81.5,16.5 80.5,16.5 79.5,16.5C 79.832,58.3367 79.4986,100.003 78.5,141.5C 78.5,100.167 78.5,58.8333 78.5,17.5C 66.5,17.5 54.5,17.5 42.5,17.5C 42.5,58.8333 42.5,100.167 42.5,141.5C 81.6631,142.499 120.996,142.832 160.5,142.5C 121.004,143.499 81.3368,143.832 41.5,143.5C 41.5,100.833 41.5,58.1667 41.5,15.5C 81.3368,15.1681 121.004,15.5014 160.5,16.5 Z"/></g>
<g><path style="opacity:1" fill="#bfbfbf" d="M 82.5,16.5 C 95.1667,16.5 107.833,16.5 120.5,16.5C 120.832,58.3367 120.499,100.003 119.5,141.5C 119.5,100.167 119.5,58.8333 119.5,17.5C 107.5,17.5 95.5,17.5 83.5,17.5C 83.5,58.8333 83.5,100.167 83.5,141.5C 82.5014,100.003 82.168,58.3367 82.5,16.5 Z"/></g>
<g><path style="opacity:1" fill="#a4a4a4" d="M 123.5,17.5 C 123.5,17.1667 123.5,16.8333 123.5,16.5C 135.833,16.5 148.167,16.5 160.5,16.5C 160.5,58.1667 160.5,99.8333 160.5,141.5C 160.167,141.5 159.833,141.5 159.5,141.5C 159.5,100.167 159.5,58.8333 159.5,17.5C 147.5,17.5 135.5,17.5 123.5,17.5 Z"/></g>
<g><path style="opacity:1" fill="#1d1d1d" d="M 78.5,141.5 C 66.5,141.5 54.5,141.5 42.5,141.5C 42.5,100.167 42.5,58.8333 42.5,17.5C 54.5,17.5 66.5,17.5 78.5,17.5C 78.5,58.8333 78.5,100.167 78.5,141.5 Z"/></g>
<g><path style="opacity:1" fill="#121212" d="M 119.5,141.5 C 107.5,141.5 95.5,141.5 83.5,141.5C 83.5,100.167 83.5,58.8333 83.5,17.5C 95.5,17.5 107.5,17.5 119.5,17.5C 119.5,58.8333 119.5,100.167 119.5,141.5 Z"/></g>
<g><path style="opacity:1" fill="#090909" d="M 123.5,17.5 C 135.5,17.5 147.5,17.5 159.5,17.5C 159.5,58.8333 159.5,100.167 159.5,141.5C 147.5,141.5 135.5,141.5 123.5,141.5C 123.5,100.167 123.5,58.8333 123.5,17.5 Z"/></g>
<g><path style="opacity:1" fill="#fdfdfd" d="M 46.5,20.5 C 56.1667,20.5 65.8333,20.5 75.5,20.5C 75.5,59.8333 75.5,99.1667 75.5,138.5C 65.8333,138.5 56.1667,138.5 46.5,138.5C 46.5,99.1667 46.5,59.8333 46.5,20.5 Z"/></g>
<g><path style="opacity:1" fill="#e2e2e2" d="M 115.5,20.5 C 115.5,20.8333 115.5,21.1667 115.5,21.5C 106.167,21.5 96.8333,21.5 87.5,21.5C 87.1709,35.6766 87.5042,49.6766 88.5,63.5C 88.5,66.8333 88.5,70.1667 88.5,73.5C 87.5027,94.6601 87.1694,115.993 87.5,137.5C 87.1667,137.5 86.8333,137.5 86.5,137.5C 86.5,98.5 86.5,59.5 86.5,20.5C 96.1667,20.5 105.833,20.5 115.5,20.5 Z"/></g>
<g><path style="opacity:1" fill="#fefefe" d="M 115.5,21.5 C 115.5,60.1667 115.5,98.8333 115.5,137.5C 106.167,137.5 96.8333,137.5 87.5,137.5C 87.1694,115.993 87.5027,94.6601 88.5,73.5C 92.763,74.9209 94.763,73.2543 94.5,68.5C 94.763,63.7457 92.763,62.0791 88.5,63.5C 87.5042,49.6766 87.1709,35.6766 87.5,21.5C 96.8333,21.5 106.167,21.5 115.5,21.5 Z"/></g>
<g><path style="opacity:1" fill="#c6c6c6" d="M 126.5,20.5 C 136.5,20.5 146.5,20.5 156.5,20.5C 156.5,59.8333 156.5,99.1667 156.5,138.5C 146.5,138.5 136.5,138.5 126.5,138.5C 126.5,99.1667 126.5,59.8333 126.5,20.5 Z"/></g>
<g><path style="opacity:1" fill="#fefefe" d="M 128.5,72.5 C 129.314,74.2726 130.648,74.7726 132.5,74C 135.167,70.3333 135.167,66.6667 132.5,63C 130.648,62.2274 129.314,62.7274 128.5,64.5C 127.504,50.3431 127.171,36.0097 127.5,21.5C 136.833,21.5 146.167,21.5 155.5,21.5C 155.5,60.1667 155.5,98.8333 155.5,137.5C 146.167,137.5 136.833,137.5 127.5,137.5C 127.169,115.66 127.503,93.9936 128.5,72.5 Z"/></g>
<g><path style="opacity:1" fill="#191919" d="M 69.5,62.5 C 71.3904,62.2965 72.8904,62.9632 74,64.5C 74.6667,67.1667 74.6667,69.8333 74,72.5C 72.6043,74.5268 70.9376,74.8602 69,73.5C 68.2446,69.7446 68.4113,66.0779 69.5,62.5 Z"/></g>
<g><path style="opacity:1" fill="#1b1b1b" d="M 88.5,73.5 C 88.5,70.1667 88.5,66.8333 88.5,63.5C 92.763,62.0791 94.763,63.7457 94.5,68.5C 94.763,73.2543 92.763,74.9209 88.5,73.5 Z"/></g>
<g><path style="opacity:1" fill="#161616" d="M 128.5,72.5 C 128.5,69.8333 128.5,67.1667 128.5,64.5C 129.314,62.7274 130.648,62.2274 132.5,63C 135.167,66.6667 135.167,70.3333 132.5,74C 130.648,74.7726 129.314,74.2726 128.5,72.5 Z"/></g>
<g><path style="opacity:1" fill="#8b8b8b" d="M 115.5,20.5 C 116.499,59.6631 116.832,98.9965 116.5,138.5C 106.319,138.827 96.3194,138.494 86.5,137.5C 86.8333,137.5 87.1667,137.5 87.5,137.5C 96.8333,137.5 106.167,137.5 115.5,137.5C 115.5,98.8333 115.5,60.1667 115.5,21.5C 115.5,21.1667 115.5,20.8333 115.5,20.5 Z"/></g>
<g><path style="opacity:1" fill="#b1b1b1" d="M 42.5,146.5 C 81.8333,146.5 121.167,146.5 160.5,146.5C 160.5,154.833 160.5,163.167 160.5,171.5C 121.167,171.5 81.8333,171.5 42.5,171.5C 42.5,171.167 42.5,170.833 42.5,170.5C 55.1667,170.5 67.8333,170.5 80.5,170.5C 80.5,163.167 80.5,155.833 80.5,148.5C 67.8333,147.833 55.1667,147.167 42.5,146.5 Z"/></g>
<g><path style="opacity:1" fill="#7e7e7e" d="M 42.5,146.5 C 55.1667,147.167 67.8333,147.833 80.5,148.5C 80.1667,148.5 79.8333,148.5 79.5,148.5C 67.5,148.5 55.5,148.5 43.5,148.5C 42.5084,155.648 42.175,162.981 42.5,170.5C 42.5,170.833 42.5,171.167 42.5,171.5C 41.1667,163.167 41.1667,154.833 42.5,146.5 Z"/></g>
<g><path style="opacity:1" fill="#0f0f0f" d="M 120.5,148.5 C 120.5,155.5 120.5,162.5 120.5,169.5C 107.5,169.5 94.5,169.5 81.5,169.5C 81.5,162.5 81.5,155.5 81.5,148.5C 94.5,148.5 107.5,148.5 120.5,148.5 Z"/></g>
<g><path style="opacity:1" fill="#161616" d="M 122.5,148.5 C 134.833,148.5 147.167,148.5 159.5,148.5C 159.5,155.833 159.5,163.167 159.5,170.5C 147.167,170.5 134.833,170.5 122.5,170.5C 122.5,163.167 122.5,155.833 122.5,148.5 Z"/></g>
<g><path style="opacity:1" fill="#2f2f2f" d="M 125.5,151.5 C 135.833,150.167 146.167,150.167 156.5,151.5C 151.968,151.182 147.634,151.515 143.5,152.5C 142.167,152.5 140.833,152.5 139.5,152.5C 135.03,151.514 130.363,151.181 125.5,151.5 Z"/></g>
<g><path style="opacity:1" fill="#fafafa" d="M 85.5,151.5 C 90.1785,151.334 94.8452,151.501 99.5,152C 95.1744,155.855 95.8411,158.355 101.5,159.5C 105.226,159.202 106.393,157.202 105,153.5C 104.25,152.874 103.416,152.374 102.5,152C 107.489,151.501 112.489,151.334 117.5,151.5C 117.5,156.5 117.5,161.5 117.5,166.5C 106.833,166.5 96.1667,166.5 85.5,166.5C 85.5,161.5 85.5,156.5 85.5,151.5 Z"/></g>
<g><path style="opacity:1" fill="#f5f5f5" d="M 125.5,151.5 C 130.363,151.181 135.03,151.514 139.5,152.5C 137.559,154.011 137.059,156.011 138,158.5C 143.612,160.996 145.946,159.329 145,153.5C 144.617,152.944 144.117,152.611 143.5,152.5C 147.634,151.515 151.968,151.182 156.5,151.5C 156.5,156.5 156.5,161.5 156.5,166.5C 146.167,166.5 135.833,166.5 125.5,166.5C 125.5,161.5 125.5,156.5 125.5,151.5 Z"/></g>
<g><path style="opacity:1" fill="#0e0e0e" d="M 139.5,152.5 C 140.833,152.5 142.167,152.5 143.5,152.5C 144.117,152.611 144.617,152.944 145,153.5C 145.946,159.329 143.612,160.996 138,158.5C 137.059,156.011 137.559,154.011 139.5,152.5 Z"/></g>
<g><path style="opacity:1" fill="#6d6d6d" d="M 85.5,151.5 C 85.5,156.5 85.5,161.5 85.5,166.5C 96.1667,166.5 106.833,166.5 117.5,166.5C 106.679,167.495 95.6794,167.828 84.5,167.5C 84.1786,161.974 84.5119,156.64 85.5,151.5 Z"/></g>
<g><path style="opacity:1" fill="#363636" d="M 43.5,148.5 C 43.5,155.5 43.5,162.5 43.5,169.5C 55.5,169.5 67.5,169.5 79.5,169.5C 79.5,162.5 79.5,155.5 79.5,148.5C 79.8333,148.5 80.1667,148.5 80.5,148.5C 80.5,155.833 80.5,163.167 80.5,170.5C 67.8333,170.5 55.1667,170.5 42.5,170.5C 42.175,162.981 42.5084,155.648 43.5,148.5 Z"/></g>
<g><path style="opacity:1" fill="#0e0e0e" d="M 43.5,148.5 C 55.5,148.5 67.5,148.5 79.5,148.5C 79.5,155.5 79.5,162.5 79.5,169.5C 67.5,169.5 55.5,169.5 43.5,169.5C 43.5,162.5 43.5,155.5 43.5,148.5 Z"/></g>
<g><path style="opacity:1" fill="#6c6c6c" d="M 76.5,151.5 C 77.4881,156.64 77.8214,161.974 77.5,167.5C 66.9865,167.828 56.6532,167.494 46.5,166.5C 56.5,166.5 66.5,166.5 76.5,166.5C 76.5,161.5 76.5,156.5 76.5,151.5 Z"/></g>
<g><path style="opacity:1" fill="#f9f9f9" d="M 76.5,151.5 C 76.5,156.5 76.5,161.5 76.5,166.5C 66.5,166.5 56.5,166.5 46.5,166.5C 46.5,161.5 46.5,156.5 46.5,151.5C 50.8461,151.334 55.1794,151.501 59.5,152C 55.0576,157.258 56.3909,159.591 63.5,159C 66.1924,156.368 65.859,154.034 62.5,152C 67.1548,151.501 71.8215,151.334 76.5,151.5 Z"/></g>
<g><path style="opacity:1" fill="#373737" d="M 120.5,148.5 C 121.492,155.648 121.825,162.981 121.5,170.5C 107.99,170.829 94.6562,170.496 81.5,169.5C 94.5,169.5 107.5,169.5 120.5,169.5C 120.5,162.5 120.5,155.5 120.5,148.5 Z"/></g>
<g><path style="opacity:1" fill="#f7f7f7" d="M 42.5,175.5 C 81.8333,175.5 121.167,175.5 160.5,175.5C 160.5,180.5 160.5,185.5 160.5,190.5C 156.5,190.5 152.5,190.5 148.5,190.5C 149.041,187.348 148.041,184.848 145.5,183C 116.833,182.333 88.1667,182.333 59.5,183C 57.0771,184.571 55.7438,186.737 55.5,189.5C 51.1667,189.5 46.8333,189.5 42.5,189.5C 42.5,184.833 42.5,180.167 42.5,175.5 Z"/></g>
<g><path style="opacity:1" fill="#a7a7a7" d="M 42.5,175.5 C 42.5,180.167 42.5,184.833 42.5,189.5C 46.8333,189.5 51.1667,189.5 55.5,189.5C 51.03,190.486 46.3633,190.819 41.5,190.5C 41.1795,185.305 41.5128,180.305 42.5,175.5 Z"/></g>
</svg>
