<?xml version="1.0" encoding="UTF-8"?>
<!DOCTYPE svg PUBLIC "-//W3C//DTD SVG 1.1//EN" "http://www.w3.org/Graphics/SVG/1.1/DTD/svg11.dtd">
<svg xmlns="http://www.w3.org/2000/svg" version="1.1" width="246px" height="212px" style="shape-rendering:geometricPrecision; text-rendering:geometricPrecision; image-rendering:optimizeQuality; fill-rule:evenodd; clip-rule:evenodd" xmlns:xlink="http://www.w3.org/1999/xlink">
<g><path style="opacity:0.963" fill="#fcfcfc" d="M -0.5,9.5 C 81.5,9.5 163.5,9.5 245.5,9.5C 245.5,73.5 245.5,137.5 245.5,201.5C 163.5,201.5 81.5,201.5 -0.5,201.5C -0.5,137.5 -0.5,73.5 -0.5,9.5 Z"/></g>
<g><path style="opacity:1" fill="#e6e6e6" d="M 228.5,16.5 C 230.027,16.427 231.027,17.0937 231.5,18.5C 158.499,18.6667 85.4992,18.5 12.5,18C 84.3581,16.5035 156.358,16.0035 228.5,16.5 Z"/></g>
<g><path style="opacity:1" fill="#3c3c3c" d="M 13.5,14.5 C 85.1667,15.1667 156.833,15.8333 228.5,16.5C 156.358,16.0035 84.3581,16.5035 12.5,18C 85.4992,18.5 158.499,18.6667 231.5,18.5C 215.008,19.4965 198.342,19.8298 181.5,19.5C 124.019,20.1492 66.6857,19.4826 9.5,17.5C 10.2623,15.7376 11.5956,14.7376 13.5,14.5 Z"/></g>
<g><path style="opacity:1" fill="#151515" d="M 9.5,17.5 C 66.6857,19.4826 124.019,20.1492 181.5,19.5C 181.5,19.8333 181.5,20.1667 181.5,20.5C 180.501,73.9974 180.168,127.664 180.5,181.5C 179.167,182.833 177.833,182.833 176.5,181.5C 176.5,174.5 176.5,167.5 176.5,160.5C 140.167,160.5 103.833,160.5 67.5,160.5C 66.5084,167.648 66.175,174.981 66.5,182.5C 65.5,182.5 64.5,182.5 63.5,182.5C 63.8323,128.331 63.499,74.3308 62.5,20.5C 44.992,20.17 27.6586,20.5033 10.5,21.5C 10.5,74.8333 10.5,128.167 10.5,181.5C 10.8333,182.167 11.1667,182.833 11.5,183.5C 11.6716,184.492 11.3382,185.158 10.5,185.5C 9.03374,184.653 8.20041,183.32 8,181.5C 7.33333,127.5 7.33333,73.5 8,19.5C 8.27842,18.5842 8.77842,17.9175 9.5,17.5 Z"/></g>
<g><path style="opacity:1" fill="#f2f2f2" d="M 10.5,21.5 C 27.5,21.5 44.5,21.5 61.5,21.5C 61.5,74.8333 61.5,128.167 61.5,181.5C 44.5,181.5 27.5,181.5 10.5,181.5C 10.5,128.167 10.5,74.8333 10.5,21.5 Z"/></g>
<g><path style="opacity:1" fill="#b7b7b7" d="M 10.5,21.5 C 27.6586,20.5033 44.992,20.17 62.5,20.5C 62.8323,74.3359 62.499,128.003 61.5,181.5C 61.5,128.167 61.5,74.8333 61.5,21.5C 44.5,21.5 27.5,21.5 10.5,21.5 Z"/></g>
<g><path style="opacity:1" fill="#1a1a1a" d="M 214.5,191.5 C 214.5,190.5 214.5,189.5 214.5,188.5C 196.833,188.5 179.167,188.5 161.5,188.5C 183.5,187.833 205.5,187.167 227.5,186.5C 228.609,186.443 229.609,186.11 230.5,185.5C 231.043,185.44 231.376,185.107 231.5,184.5C 158.503,183.5 85.503,183.167 12.5,183.5C 12.1667,183.5 11.8333,183.5 11.5,183.5C 11.1667,182.833 10.8333,182.167 10.5,181.5C 27.5,181.5 44.5,181.5 61.5,181.5C 62.499,128.003 62.8323,74.3359 62.5,20.5C 63.499,74.3308 63.8323,128.331 63.5,182.5C 64.5,182.5 65.5,182.5 66.5,182.5C 66.175,174.981 66.5084,167.648 67.5,160.5C 67.5,167.5 67.5,174.5 67.5,181.5C 103.833,181.5 140.167,181.5 176.5,181.5C 177.833,182.833 179.167,182.833 180.5,181.5C 180.833,181.5 181.167,181.5 181.5,181.5C 198.833,181.5 216.167,181.5 233.5,181.5C 233.832,127.997 233.499,74.6641 232.5,21.5C 215.675,20.5034 198.675,20.1701 181.5,20.5C 181.5,20.1667 181.5,19.8333 181.5,19.5C 198.342,19.8298 215.008,19.4965 231.5,18.5C 231.027,17.0937 230.027,16.427 228.5,16.5C 156.833,15.8333 85.1667,15.1667 13.5,14.5C 49.3318,13.8333 85.3318,13.5 121.5,13.5C 158.25,13.3392 194.917,13.8392 231.5,15C 232.667,16.1667 233.833,17.3333 235,18.5C 235.667,73.1667 235.667,127.833 235,182.5C 234.137,186.518 231.637,188.518 227.5,188.5C 227.67,189.822 227.337,190.989 226.5,192C 222.311,192.812 218.311,192.645 214.5,191.5 Z"/></g>
<g><path style="opacity:1" fill="#e7e7e7" d="M 232.5,21.5 C 233.499,74.6641 233.832,127.997 233.5,181.5C 216.167,181.5 198.833,181.5 181.5,181.5C 181.5,128.167 181.5,74.8333 181.5,21.5C 198.5,21.5 215.5,21.5 232.5,21.5 Z"/></g>
<g><path style="opacity:1" fill="#747474" d="M 181.5,20.5 C 198.675,20.1701 215.675,20.5034 232.5,21.5C 215.5,21.5 198.5,21.5 181.5,21.5C 181.5,74.8333 181.5,128.167 181.5,181.5C 181.167,181.5 180.833,181.5 180.5,181.5C 180.168,127.664 180.501,73.9974 181.5,20.5 Z"/></g>
<g><path style="opacity:1" fill="#a7a7a7" d="M 124.5,21.5 C 141.659,20.5033 158.992,20.17 176.5,20.5C 176.5,56.8333 176.5,93.1667 176.5,129.5C 158.992,129.83 141.659,129.497 124.5,128.5C 141.5,128.5 158.5,128.5 175.5,128.5C 175.5,92.8333 175.5,57.1667 175.5,21.5C 158.5,21.5 141.5,21.5 124.5,21.5 Z"/></g>
<g><path style="opacity:1" fill="#f2f2f2" d="M 124.5,21.5 C 141.5,21.5 158.5,21.5 175.5,21.5C 175.5,57.1667 175.5,92.8333 175.5,128.5C 158.5,128.5 141.5,128.5 124.5,128.5C 124.5,92.8333 124.5,57.1667 124.5,21.5 Z"/></g>
<g><path style="opacity:1" fill="#aeaeae" d="M 67.5,21.5 C 84.6586,20.5033 101.992,20.17 119.5,20.5C 119.5,56.8333 119.5,93.1667 119.5,129.5C 101.992,129.83 84.6586,129.497 67.5,128.5C 84.5,128.5 101.5,128.5 118.5,128.5C 118.5,92.8333 118.5,57.1667 118.5,21.5C 101.5,21.5 84.5,21.5 67.5,21.5 Z"/></g>
<g><path style="opacity:1" fill="#f2f2f2" d="M 67.5,21.5 C 84.5,21.5 101.5,21.5 118.5,21.5C 118.5,57.1667 118.5,92.8333 118.5,128.5C 101.5,128.5 84.5,128.5 67.5,128.5C 67.5,92.8333 67.5,57.1667 67.5,21.5 Z"/></g>
<g><path style="opacity:1" fill="#262626" d="M 73.5,24.5 C 86.8375,24.3334 100.171,24.5001 113.5,25C 114,25.5 114.5,26 115,26.5C 115.667,58.8333 115.667,91.1667 115,123.5C 114.5,124 114,124.5 113.5,125C 99.5917,125.823 85.7583,125.656 72,124.5C 71.3333,91.8333 71.3333,59.1667 72,26.5C 72.7172,25.9558 73.2172,25.2891 73.5,24.5 Z"/></g>
<g><path style="opacity:1" fill="#2b2b2b" d="M 129.5,24.5 C 143.171,24.3334 156.837,24.5001 170.5,25C 171,25.5 171.5,26 172,26.5C 172.667,58.8333 172.667,91.1667 172,123.5C 171.5,124 171,124.5 170.5,125C 156.592,125.823 142.758,125.656 129,124.5C 128.181,91.1249 128.348,57.7916 129.5,24.5 Z"/></g>
<g><path style="opacity:1" fill="#fdfdfd" d="M 73.5,27.5 C 86.5,27.5 99.5,27.5 112.5,27.5C 112.5,59.1667 112.5,90.8333 112.5,122.5C 99.5,122.5 86.5,122.5 73.5,122.5C 73.5,90.8333 73.5,59.1667 73.5,27.5 Z"/></g>
<g><path style="opacity:1" fill="#efefef" d="M 168.5,122.5 C 168.5,91.1667 168.5,59.8333 168.5,28.5C 156.167,28.5 143.833,28.5 131.5,28.5C 131.5,59.8333 131.5,91.1667 131.5,122.5C 130.502,91.0044 130.168,59.3377 130.5,27.5C 143.5,27.5 156.5,27.5 169.5,27.5C 169.832,59.3377 169.498,91.0044 168.5,122.5 Z"/></g>
<g><path style="opacity:1" fill="#fefefe" d="M 168.5,122.5 C 156.167,122.5 143.833,122.5 131.5,122.5C 131.5,91.1667 131.5,59.8333 131.5,28.5C 143.833,28.5 156.167,28.5 168.5,28.5C 168.5,59.8333 168.5,91.1667 168.5,122.5 Z"/></g>
<g><path style="opacity:1" fill="#fdfdfd" d="M 193.5,27.5 C 203.172,27.3335 212.839,27.5002 222.5,28C 224.333,28.5 225.5,29.6667 226,31.5C 226.5,77.4988 226.667,123.499 226.5,169.5C 225.723,172.112 224.056,173.945 221.5,175C 211.833,175.667 202.167,175.667 192.5,175C 190.249,174.252 188.916,172.752 188.5,170.5C 188.169,149.66 188.503,128.993 189.5,108.5C 191.011,110.441 193.011,110.941 195.5,110C 196.081,109.107 196.415,108.107 196.5,107C 195.483,102.496 195.316,97.9962 196,93.5C 193.389,90.7566 191.222,91.09 189.5,94.5C 188.503,73.6733 188.169,52.6733 188.5,31.5C 189.585,29.4131 191.251,28.0798 193.5,27.5 Z"/></g>
<g><path style="opacity:1" fill="#232323" d="M 21.5,24.5 C 31.1724,24.3335 40.8391,24.5002 50.5,25C 53.913,26.0774 56.413,28.2441 58,31.5C 58.6667,77.8333 58.6667,124.167 58,170.5C 57.14,174.027 54.9733,176.193 51.5,177C 41.1667,177.667 30.8333,177.667 20.5,177C 18,175.833 16.1667,174 15,171.5C 14.3333,124.5 14.3333,77.5 15,30.5C 16.4936,27.6865 18.6603,25.6865 21.5,24.5 Z"/></g>
<g><path style="opacity:1" fill="#fcfcfc" d="M 20.5,27.5 C 30.8387,27.3335 41.172,27.5002 51.5,28C 53.3333,28.5 54.5,29.6667 55,31.5C 55.6667,78.1667 55.6667,124.833 55,171.5C 53.786,173.049 52.286,174.215 50.5,175C 40.8333,175.667 31.1667,175.667 21.5,175C 18.8981,174.065 17.3981,172.232 17,169.5C 16.3333,123.833 16.3333,78.1667 17,32.5C 17.9973,30.6769 19.1639,29.0103 20.5,27.5 Z"/></g>
<g><path style="opacity:1" fill="#1e1e1e" d="M 191.5,25.5 C 201.172,25.3335 210.839,25.5002 220.5,26C 211.324,26.1703 202.324,26.6703 193.5,27.5C 191.251,28.0798 189.585,29.4131 188.5,31.5C 187.167,77.8333 187.167,124.167 188.5,170.5C 188.916,172.752 190.249,174.252 192.5,175C 202.167,175.667 211.833,175.667 221.5,175C 224.056,173.945 225.723,172.112 226.5,169.5C 227.167,123.5 227.833,77.5 228.5,31.5C 229.665,77.3315 229.832,123.332 229,169.5C 228.111,173.112 225.945,175.612 222.5,177C 211.833,177.667 201.167,177.667 190.5,177C 188.622,175.457 187.122,173.624 186,171.5C 185.333,124.5 185.333,77.5 186,30.5C 187.055,27.9441 188.888,26.2775 191.5,25.5 Z"/></g>
<g><path style="opacity:1" fill="#e4e4e4" d="M 188.5,31.5 C 188.169,52.6733 188.503,73.6733 189.5,94.5C 190.833,99.1667 190.833,103.833 189.5,108.5C 188.503,128.993 188.169,149.66 188.5,170.5C 187.167,124.167 187.167,77.8333 188.5,31.5 Z"/></g>
<g><path style="opacity:1" fill="#353535" d="M 191.5,25.5 C 201.325,24.3417 211.325,24.1751 221.5,25C 225.008,26.0117 227.342,28.1783 228.5,31.5C 227.833,77.5 227.167,123.5 226.5,169.5C 226.667,123.499 226.5,77.4988 226,31.5C 225.5,29.6667 224.333,28.5 222.5,28C 212.839,27.5002 203.172,27.3335 193.5,27.5C 202.324,26.6703 211.324,26.1703 220.5,26C 210.839,25.5002 201.172,25.3335 191.5,25.5 Z"/></g>
<g><path style="opacity:1" fill="#171717" d="M 48.5,91.5 C 51.3523,91.3524 53.019,92.6857 53.5,95.5C 52.6202,100.156 52.4536,104.823 53,109.5C 51.2739,110.576 49.4406,110.743 47.5,110C 46.9415,109.275 46.6082,108.442 46.5,107.5C 47.8333,103.5 47.8333,99.5 46.5,95.5C 46.7517,93.9271 47.4183,92.5938 48.5,91.5 Z"/></g>
<g><path style="opacity:1" fill="#161616" d="M 189.5,108.5 C 190.833,103.833 190.833,99.1667 189.5,94.5C 191.222,91.09 193.389,90.7566 196,93.5C 195.316,97.9962 195.483,102.496 196.5,107C 196.415,108.107 196.081,109.107 195.5,110C 193.011,110.941 191.011,110.441 189.5,108.5 Z"/></g>
<g><path style="opacity:1" fill="#fcfcfc" d="M 175.5,134.5 C 175.5,141.167 175.5,147.833 175.5,154.5C 139.5,154.5 103.5,154.5 67.5,154.5C 67.5,147.833 67.5,141.167 67.5,134.5C 103.5,134.5 139.5,134.5 175.5,134.5 Z"/></g>
<g><path style="opacity:1" fill="#161616" d="M 74.5,141.5 C 79.3418,142.598 84.1751,142.598 89,141.5C 93.0015,142.674 93.5015,144.84 90.5,148C 85.834,147.338 81.1673,147.505 76.5,148.5C 73.3371,147.075 72.6704,144.742 74.5,141.5 Z"/></g>
<g><path style="opacity:1" fill="#151515" d="M 152.5,141.5 C 157.172,142.668 161.839,142.668 166.5,141.5C 171.833,143.833 171.833,146.167 166.5,148.5C 162.5,147.167 158.5,147.167 154.5,148.5C 151.337,147.075 150.67,144.742 152.5,141.5 Z"/></g>
<g><path style="opacity:1" fill="#cccccc" d="M 175.5,134.5 C 176.491,141.313 176.825,148.313 176.5,155.5C 139.996,155.832 103.663,155.498 67.5,154.5C 103.5,154.5 139.5,154.5 175.5,154.5C 175.5,147.833 175.5,141.167 175.5,134.5 Z"/></g>
<g><path style="opacity:1" fill="#fafafa" d="M 67.5,160.5 C 103.833,160.5 140.167,160.5 176.5,160.5C 176.5,167.5 176.5,174.5 176.5,181.5C 140.167,181.5 103.833,181.5 67.5,181.5C 67.5,174.5 67.5,167.5 67.5,160.5 Z"/></g>
<g><path style="opacity:1" fill="#151515" d="M 74.5,167.5 C 79.1719,168.668 83.8386,168.668 88.5,167.5C 93.8333,169.833 93.8333,172.167 88.5,174.5C 84.5,173.167 80.5,173.167 76.5,174.5C 73.3371,173.075 72.6704,170.742 74.5,167.5 Z"/></g>
<g><path style="opacity:1" fill="#151515" d="M 152.5,167.5 C 157.172,168.668 161.839,168.668 166.5,167.5C 171.833,169.833 171.833,172.167 166.5,174.5C 162.5,173.167 158.5,173.167 154.5,174.5C 151.337,173.075 150.67,170.742 152.5,167.5 Z"/></g>
<g><path style="opacity:1" fill="#6f6f6f" d="M 12.5,184.5 C 12.5,184.167 12.5,183.833 12.5,183.5C 85.503,183.167 158.503,183.5 231.5,184.5C 231.376,185.107 231.043,185.44 230.5,185.5C 158.002,184.501 85.3352,184.167 12.5,184.5 Z"/></g>
<g><path style="opacity:1" fill="#e5e5e5" d="M 12.5,184.5 C 85.3352,184.167 158.002,184.501 230.5,185.5C 229.609,186.11 228.609,186.443 227.5,186.5C 156.166,186.667 84.8326,186.5 13.5,186C 12.944,185.617 12.6107,185.117 12.5,184.5 Z"/></g>
<g><path style="opacity:1" fill="#1f1f1f" d="M 11.5,183.5 C 11.8333,183.5 12.1667,183.5 12.5,183.5C 12.5,183.833 12.5,184.167 12.5,184.5C 12.6107,185.117 12.944,185.617 13.5,186C 84.8326,186.5 156.166,186.667 227.5,186.5C 205.5,187.167 183.5,187.833 161.5,188.5C 161.5,188.833 161.5,189.167 161.5,189.5C 161.672,190.492 161.338,191.158 160.5,191.5C 160.591,189.302 159.925,188.969 158.5,190.5C 158.5,189.833 158.5,189.167 158.5,188.5C 110.833,187.167 63.1667,187.167 15.5,188.5C 12.9664,188.741 11.2998,187.741 10.5,185.5C 11.3382,185.158 11.6716,184.492 11.5,183.5 Z"/></g>
<g><path style="opacity:1" fill="#0e0e0e" d="M 15.5,188.5 C 63.1667,187.167 110.833,187.167 158.5,188.5C 147.833,189.167 147.833,189.833 158.5,190.5C 159.925,188.969 160.591,189.302 160.5,191.5C 156.5,192.833 152.5,192.833 148.5,191.5C 148.5,190.5 148.5,189.5 148.5,188.5C 130.659,188.17 112.992,188.503 95.5,189.5C 95.5858,190.496 95.2524,191.329 94.5,192C 90.3112,192.812 86.3112,192.645 82.5,191.5C 82.5,190.5 82.5,189.5 82.5,188.5C 64.5,188.5 46.5,188.5 28.5,188.5C 28.5,189.5 28.5,190.5 28.5,191.5C 24.7016,192.483 20.7016,192.817 16.5,192.5C 16.7678,190.901 16.4345,189.568 15.5,188.5 Z"/></g>
<g><path style="opacity:1" fill="#959595" d="M 18.5,188.5 C 21.2469,188.187 23.9135,188.52 26.5,189.5C 25.1667,189.833 23.8333,190.167 22.5,190.5C 20.6672,190.415 19.3339,189.748 18.5,188.5 Z"/></g>
<g><path style="opacity:1" fill="#828282" d="M 82.5,191.5 C 73.73,190.195 64.73,189.528 55.5,189.5C 46.27,189.528 37.27,190.195 28.5,191.5C 28.5,190.5 28.5,189.5 28.5,188.5C 46.5,188.5 64.5,188.5 82.5,188.5C 82.5,189.5 82.5,190.5 82.5,191.5 Z"/></g>
<g><path style="opacity:1" fill="#949494" d="M 84.5,188.5 C 87.2469,188.187 89.9135,188.52 92.5,189.5C 91.1667,189.833 89.8333,190.167 88.5,190.5C 86.6672,190.415 85.3339,189.748 84.5,188.5 Z"/></g>
<g><path style="opacity:1" fill="#868686" d="M 95.5,189.5 C 112.992,188.503 130.659,188.17 148.5,188.5C 148.5,189.5 148.5,190.5 148.5,191.5C 131.07,189.535 113.404,188.868 95.5,189.5 Z"/></g>
<g><path style="opacity:1" fill="#949494" d="M 158.5,188.5 C 158.5,189.167 158.5,189.833 158.5,190.5C 147.833,189.833 147.833,189.167 158.5,188.5 Z"/></g>
<g><path style="opacity:1" fill="#878787" d="M 161.5,189.5 C 161.5,189.167 161.5,188.833 161.5,188.5C 179.167,188.5 196.833,188.5 214.5,188.5C 214.5,189.5 214.5,190.5 214.5,191.5C 197.07,189.535 179.404,188.868 161.5,189.5 Z"/></g>
<g><path style="opacity:1" fill="#949494" d="M 216.5,188.5 C 219.247,188.187 221.914,188.52 224.5,189.5C 223.167,189.833 221.833,190.167 220.5,190.5C 218.667,190.415 217.334,189.748 216.5,188.5 Z"/></g>
</svg>
