<?xml version="1.0" encoding="UTF-8"?>
<!DOCTYPE svg PUBLIC "-//W3C//DTD SVG 1.1//EN" "http://www.w3.org/Graphics/SVG/1.1/DTD/svg11.dtd">
<svg xmlns="http://www.w3.org/2000/svg" version="1.1" width="132px" height="220px" style="shape-rendering:geometricPrecision; text-rendering:geometricPrecision; image-rendering:optimizeQuality; fill-rule:evenodd; clip-rule:evenodd" xmlns:xlink="http://www.w3.org/1999/xlink">
<g><path style="opacity:1" fill="#fdfdfd" d="M -0.5,-0.5 C 43.5,-0.5 87.5,-0.5 131.5,-0.5C 131.5,72.8333 131.5,146.167 131.5,219.5C 87.5,219.5 43.5,219.5 -0.5,219.5C -0.5,146.167 -0.5,72.8333 -0.5,-0.5 Z"/></g>
<g><path style="opacity:1" fill="#9f9f9f" d="M 109.5,16.5 C 78.1667,16.5 46.8333,16.5 15.5,16.5C 13.6565,14.7211 12.9898,12.3878 13.5,9.5C 46.1667,9.5 78.8333,9.5 111.5,9.5C 112.01,12.3878 111.344,14.7211 109.5,16.5 Z"/></g>
<g><path style="opacity:1" fill="#121212" d="M 14.5,10.5 C 46.5,10.5 78.5,10.5 110.5,10.5C 110.5,12.1667 110.5,13.8333 110.5,15.5C 78.5,15.5 46.5,15.5 14.5,15.5C 14.5,13.8333 14.5,12.1667 14.5,10.5 Z"/></g>
<g><path style="opacity:1" fill="#cbcbcb" d="M 15.5,16.5 C 46.8333,16.5 78.1667,16.5 109.5,16.5C 109.5,17.1667 109.5,17.8333 109.5,18.5C 109.167,18.5 108.833,18.5 108.5,18.5C 77.8333,17.1667 47.1667,17.1667 16.5,18.5C 16.1667,18.5 15.8333,18.5 15.5,18.5C 15.5,17.8333 15.5,17.1667 15.5,16.5 Z"/></g>
<g><path style="opacity:1" fill="#0d0d0d" d="M 108.5,18.5 C 108.5,65.8333 108.5,113.167 108.5,160.5C 77.8333,160.5 47.1667,160.5 16.5,160.5C 16.5,113.167 16.5,65.8333 16.5,18.5C 47.1667,17.1667 77.8333,17.1667 108.5,18.5 Z"/></g>
<g><path style="opacity:1" fill="#6f6f6f" d="M 15.5,18.5 C 15.8333,18.5 16.1667,18.5 16.5,18.5C 16.5,65.8333 16.5,113.167 16.5,160.5C 47.1667,160.5 77.8333,160.5 108.5,160.5C 108.5,113.167 108.5,65.8333 108.5,18.5C 108.833,18.5 109.167,18.5 109.5,18.5C 109.5,66.1667 109.5,113.833 109.5,161.5C 78.1667,161.5 46.8333,161.5 15.5,161.5C 15.5,113.833 15.5,66.1667 15.5,18.5 Z"/></g>
<g><path style="opacity:1" fill="#838383" d="M 54.5,154.5 C 54.5,154.167 54.5,153.833 54.5,153.5C 54.5,110.833 54.5,68.1667 54.5,25.5C 44.0131,24.5056 33.3464,24.1722 22.5,24.5C 22.5,67.8333 22.5,111.167 22.5,154.5C 21.5013,111.003 21.168,67.3365 21.5,23.5C 32.8333,23.5 44.1667,23.5 55.5,23.5C 55.832,67.3365 55.4987,111.003 54.5,154.5 Z"/></g>
<g><path style="opacity:1" fill="#eaeaea" d="M 54.5,25.5 C 44.1667,25.5 33.8333,25.5 23.5,25.5C 24.7691,68.5322 24.7691,111.199 23.5,153.5C 33.8333,153.5 44.1667,153.5 54.5,153.5C 54.5,153.833 54.5,154.167 54.5,154.5C 43.8333,154.5 33.1667,154.5 22.5,154.5C 22.5,111.167 22.5,67.8333 22.5,24.5C 33.3464,24.1722 44.0131,24.5056 54.5,25.5 Z"/></g>
<g><path style="opacity:1" fill="#fefefe" d="M 54.5,25.5 C 54.5,68.1667 54.5,110.833 54.5,153.5C 44.1667,153.5 33.8333,153.5 23.5,153.5C 24.7691,111.199 24.7691,68.5322 23.5,25.5C 33.8333,25.5 44.1667,25.5 54.5,25.5 Z"/></g>
<g><path style="opacity:1" fill="#fefefe" d="M 101.5,24.5 C 101.5,67.5 101.5,110.5 101.5,153.5C 91.1667,153.5 80.8333,153.5 70.5,153.5C 70.5,110.5 70.5,67.5 70.5,24.5C 80.8333,24.5 91.1667,24.5 101.5,24.5 Z"/></g>
<g><path style="opacity:1" fill="#1d1d1d" d="M 77.5,85.5 C 83.0159,85.4734 84.3492,87.64 81.5,92C 80.1011,92.5946 78.7678,92.4279 77.5,91.5C 76.3058,89.4844 76.3058,87.4844 77.5,85.5 Z"/></g>
<g><path style="opacity:1" fill="#363636" d="M 42.5,86.5 C 47.8946,85.5548 49.5613,87.5548 47.5,92.5C 42.1929,93.7947 40.5262,91.7947 42.5,86.5 Z"/></g>
<g><path style="opacity:1" fill="#7b7b7b" d="M 61.5,24.5 C 62.833,45.8229 63.4997,67.4896 63.5,89.5C 63.1667,111.167 62.8333,132.833 62.5,154.5C 61.5001,111.172 61.1667,67.8385 61.5,24.5 Z"/></g>
<g><path style="opacity:1" fill="#a2a2a2" d="M 102.5,24.5 C 102.167,24.5 101.833,24.5 101.5,24.5C 91.1667,24.5 80.8333,24.5 70.5,24.5C 70.5,67.5 70.5,110.5 70.5,153.5C 70.5,153.833 70.5,154.167 70.5,154.5C 70.1667,154.5 69.8333,154.5 69.5,154.5C 69.5,110.833 69.5,67.1667 69.5,23.5C 80.6794,23.1721 91.6794,23.5054 102.5,24.5 Z"/></g>
<g><path style="opacity:1" fill="#e6e6e6" d="M 101.5,24.5 C 101.833,24.5 102.167,24.5 102.5,24.5C 102.5,67.8333 102.5,111.167 102.5,154.5C 91.8333,154.5 81.1667,154.5 70.5,154.5C 70.5,154.167 70.5,153.833 70.5,153.5C 80.8333,153.5 91.1667,153.5 101.5,153.5C 101.5,110.5 101.5,67.5 101.5,24.5 Z"/></g>
<g><path style="opacity:1" fill="#535353" d="M 102.5,24.5 C 103.499,67.9968 103.832,111.663 103.5,155.5C 91.9877,155.828 80.6544,155.495 69.5,154.5C 69.8333,154.5 70.1667,154.5 70.5,154.5C 81.1667,154.5 91.8333,154.5 102.5,154.5C 102.5,111.167 102.5,67.8333 102.5,24.5 Z"/></g>
<g><path style="opacity:1" fill="#929292" d="M 16.5,162.5 C 16.5,173.833 16.5,185.167 16.5,196.5C 47.1667,196.5 77.8333,196.5 108.5,196.5C 108.5,185.167 108.5,173.833 108.5,162.5C 109.495,174.322 109.828,186.322 109.5,198.5C 78.1667,198.5 46.8333,198.5 15.5,198.5C 15.1716,186.322 15.5049,174.322 16.5,162.5 Z"/></g>
<g><path style="opacity:1" fill="#121212" d="M 16.5,162.5 C 47.1667,162.5 77.8333,162.5 108.5,162.5C 108.5,173.833 108.5,185.167 108.5,196.5C 77.8333,196.5 47.1667,196.5 16.5,196.5C 16.5,185.167 16.5,173.833 16.5,162.5 Z"/></g>
<g><path style="opacity:1" fill="#f7f7f7" d="M 22.5,169.5 C 34.8333,169.5 47.1667,169.5 59.5,169.5C 59.5,176.5 59.5,183.5 59.5,190.5C 47.1667,190.5 34.8333,190.5 22.5,190.5C 22.5,183.5 22.5,176.5 22.5,169.5 Z"/></g>
<g><path style="opacity:1" fill="#313131" d="M 36.5,177.5 C 39.1873,177.336 41.854,177.503 44.5,178C 44.9574,178.414 45.2907,178.914 45.5,179.5C 42.5719,180.484 39.5719,180.817 36.5,180.5C 36.5,179.5 36.5,178.5 36.5,177.5 Z"/></g>
<g><path style="opacity:1" fill="#c7c7c7" d="M 65.5,169.5 C 78.1667,169.5 90.8333,169.5 103.5,169.5C 103.5,176.5 103.5,183.5 103.5,190.5C 90.8333,190.5 78.1667,190.5 65.5,190.5C 65.5,183.5 65.5,176.5 65.5,169.5 Z"/></g>
<g><path style="opacity:1" fill="#fbfbfb" d="M 66.5,170.5 C 78.5,170.5 90.5,170.5 102.5,170.5C 102.5,176.833 102.5,183.167 102.5,189.5C 90.5,189.5 78.5,189.5 66.5,189.5C 66.5,183.167 66.5,176.833 66.5,170.5 Z"/></g>
<g><path style="opacity:1" fill="#2c2c2c" d="M 80.5,177.5 C 83.1873,177.336 85.854,177.503 88.5,178C 88.9574,178.414 89.2907,178.914 89.5,179.5C 86.1667,180.833 82.8333,180.833 79.5,179.5C 79.8627,178.817 80.1961,178.15 80.5,177.5 Z"/></g>
<g><path style="opacity:1" fill="#575757" d="M 22.5,169.5 C 34.989,168.505 47.6557,168.171 60.5,168.5C 60.825,176.019 60.4916,183.352 59.5,190.5C 59.5,183.5 59.5,176.5 59.5,169.5C 47.1667,169.5 34.8333,169.5 22.5,169.5 Z"/></g>
<g><path style="opacity:1" fill="#5b5b5b" d="M 15.5,198.5 C 46.8333,198.5 78.1667,198.5 109.5,198.5C 109.5,202.5 109.5,206.5 109.5,210.5C 105.833,210.5 102.167,210.5 98.5,210.5C 98.5,208.833 98.5,207.167 98.5,205.5C 99.4345,206.568 99.7678,207.901 99.5,209.5C 102.5,209.5 105.5,209.5 108.5,209.5C 108.5,206.167 108.5,202.833 108.5,199.5C 77.8333,199.5 47.1667,199.5 16.5,199.5C 16.5,202.833 16.5,206.167 16.5,209.5C 19.5,209.5 22.5,209.5 25.5,209.5C 25.1201,207.302 25.7868,205.635 27.5,204.5C 26.8505,206.435 26.5172,208.435 26.5,210.5C 22.8333,210.5 19.1667,210.5 15.5,210.5C 15.5,206.5 15.5,202.5 15.5,198.5 Z"/></g>
<g><path style="opacity:1" fill="#1b1b1b" d="M 98.5,205.5 C 98.0472,204.542 97.3805,203.708 96.5,203C 73.8333,202.333 51.1667,202.333 28.5,203C 27.944,203.383 27.6107,203.883 27.5,204.5C 25.7868,205.635 25.1201,207.302 25.5,209.5C 22.5,209.5 19.5,209.5 16.5,209.5C 16.5,206.167 16.5,202.833 16.5,199.5C 47.1667,199.5 77.8333,199.5 108.5,199.5C 108.5,202.833 108.5,206.167 108.5,209.5C 105.5,209.5 102.5,209.5 99.5,209.5C 99.7678,207.901 99.4345,206.568 98.5,205.5 Z"/></g>
</svg>
