<?xml version="1.0" encoding="UTF-8"?>
<!DOCTYPE svg PUBLIC "-//W3C//DTD SVG 1.1//EN" "http://www.w3.org/Graphics/SVG/1.1/DTD/svg11.dtd">
<svg xmlns="http://www.w3.org/2000/svg" version="1.1" width="256px" height="222px" style="shape-rendering:geometricPrecision; text-rendering:geometricPrecision; image-rendering:optimizeQuality; fill-rule:evenodd; clip-rule:evenodd" xmlns:xlink="http://www.w3.org/1999/xlink">
<g><path style="opacity:1" fill="#fefefe" d="M -0.5,28.5 C 84.8333,28.5 170.167,28.5 255.5,28.5C 255.5,83.1667 255.5,137.833 255.5,192.5C 170.167,192.5 84.8333,192.5 -0.5,192.5C -0.5,137.833 -0.5,83.1667 -0.5,28.5 Z"/></g>
<g><path style="opacity:1" fill="#2c2c2c" d="M 199.5,103.5 C 199.737,104.791 199.404,105.791 198.5,106.5C 197.636,105.312 196.636,104.145 195.5,103C 145.501,102.5 95.5011,102.333 45.5,102.5C 45.573,100.973 44.9063,99.9731 43.5,99.5C 43.5,78.8333 43.5,58.1667 43.5,37.5C 94.8344,37.3333 146.168,37.5 197.5,38C 198.182,59.8033 198.849,81.6367 199.5,103.5 Z"/></g>
<g><path style="opacity:1" fill="#fefefe" d="M 193.5,41.5 C 193.5,60.1667 193.5,78.8333 193.5,97.5C 144.833,97.5 96.1667,97.5 47.5,97.5C 47.5,78.8333 47.5,60.1667 47.5,41.5C 96.1667,41.5 144.833,41.5 193.5,41.5 Z"/></g>
<g><path style="opacity:1" fill="#8b8b8b" d="M 194.5,41.5 C 194.167,41.5 193.833,41.5 193.5,41.5C 144.833,41.5 96.1667,41.5 47.5,41.5C 47.5,60.1667 47.5,78.8333 47.5,97.5C 47.5,97.8333 47.5,98.1667 47.5,98.5C 46.503,79.3405 46.1697,60.0072 46.5,40.5C 96.0028,40.1678 145.336,40.5011 194.5,41.5 Z"/></g>
<g><path style="opacity:1" fill="#f0f0f0" d="M 193.5,41.5 C 193.833,41.5 194.167,41.5 194.5,41.5C 194.5,60.5 194.5,79.5 194.5,98.5C 145.5,98.5 96.5,98.5 47.5,98.5C 47.5,98.1667 47.5,97.8333 47.5,97.5C 96.1667,97.5 144.833,97.5 193.5,97.5C 193.5,78.8333 193.5,60.1667 193.5,41.5 Z"/></g>
<g><path style="opacity:1" fill="#fefefe" d="M 45.5,102.5 C 95.5011,102.333 145.501,102.5 195.5,103C 196.636,104.145 197.636,105.312 198.5,106.5C 204.311,118.789 210.644,130.789 217.5,142.5C 153.002,143.499 88.3355,143.832 23.5,143.5C 30.8333,129.833 38.1667,116.167 45.5,102.5 Z"/></g>
<g><path style="opacity:1" fill="#262626" d="M 43.5,99.5 C 44.9063,99.9731 45.573,100.973 45.5,102.5C 38.1667,116.167 30.8333,129.833 23.5,143.5C 23.5,143.833 23.5,144.167 23.5,144.5C 21.8998,143.488 20.5665,143.988 19.5,146C 85.0093,146.651 150.676,146.651 216.5,146C 217.056,145.617 217.389,145.117 217.5,144.5C 218.833,143.833 218.833,143.167 217.5,142.5C 210.644,130.789 204.311,118.789 198.5,106.5C 199.404,105.791 199.737,104.791 199.5,103.5C 207.47,116.999 215.303,130.665 223,144.5C 223.825,154.342 223.658,164.009 222.5,173.5C 218.5,173.5 214.5,173.5 210.5,173.5C 210.5,176.833 210.5,180.167 210.5,183.5C 204.013,184.654 197.346,184.821 190.5,184C 189.549,180.943 189.216,177.777 189.5,174.5C 143.67,173.501 97.6697,173.168 51.5,173.5C 51.5,176.833 51.5,180.167 51.5,183.5C 44.5,184.833 37.5,184.833 30.5,183.5C 30.5,180.167 30.5,176.833 30.5,173.5C 26.8333,173.5 23.1667,173.5 19.5,173.5C 18.3417,163.675 18.1751,153.675 19,143.5C 27.4324,128.967 35.599,114.301 43.5,99.5 Z"/></g>
<g><path style="opacity:1" fill="#959595" d="M 217.5,142.5 C 218.833,143.167 218.833,143.833 217.5,144.5C 152.833,144.5 88.1667,144.5 23.5,144.5C 23.5,144.167 23.5,143.833 23.5,143.5C 88.3355,143.832 153.002,143.499 217.5,142.5 Z"/></g>
<g><path style="opacity:1" fill="#1f1f1f" d="M 23.5,144.5 C 88.1667,144.5 152.833,144.5 217.5,144.5C 217.389,145.117 217.056,145.617 216.5,146C 150.676,146.651 85.0093,146.651 19.5,146C 20.5665,143.988 21.8998,143.488 23.5,144.5 Z"/></g>
<g><path style="opacity:1" fill="#cacaca" d="M 219.5,148.5 C 153.833,148.5 88.1667,148.5 22.5,148.5C 22.5,155.5 22.5,162.5 22.5,169.5C 88.1667,169.5 153.833,169.5 219.5,169.5C 153.669,170.499 87.6688,170.832 21.5,170.5C 21.5,162.833 21.5,155.167 21.5,147.5C 87.6688,147.168 153.669,147.501 219.5,148.5 Z"/></g>
<g><path style="opacity:1" fill="#fefefe" d="M 219.5,148.5 C 219.5,155.5 219.5,162.5 219.5,169.5C 153.833,169.5 88.1667,169.5 22.5,169.5C 22.5,162.5 22.5,155.5 22.5,148.5C 88.1667,148.5 153.833,148.5 219.5,148.5 Z"/></g>
<g><path style="opacity:1" fill="#9a9a9a" d="M 33.5,173.5 C 38.5,173.5 43.5,173.5 48.5,173.5C 48.5,176.167 48.5,178.833 48.5,181.5C 43.5,181.5 38.5,181.5 33.5,181.5C 33.5,178.833 33.5,176.167 33.5,173.5 Z"/></g>
<g><path style="opacity:1" fill="#a4a4a4" d="M 189.5,174.5 C 143.833,174.5 98.1667,174.5 52.5,174.5C 52.81,177.713 52.4767,180.713 51.5,183.5C 51.5,180.167 51.5,176.833 51.5,173.5C 97.6697,173.168 143.67,173.501 189.5,174.5 Z"/></g>
<g><path style="opacity:1" fill="#fdfdfd" d="M 34.5,174.5 C 38.8333,174.5 43.1667,174.5 47.5,174.5C 47.5,176.5 47.5,178.5 47.5,180.5C 43.1667,180.5 38.8333,180.5 34.5,180.5C 34.5,178.5 34.5,176.5 34.5,174.5 Z"/></g>
<g><path style="opacity:1" fill="#e6e6e6" d="M 193.5,173.5 C 198.167,173.5 202.833,173.5 207.5,173.5C 207.5,176.167 207.5,178.833 207.5,181.5C 202.833,181.5 198.167,181.5 193.5,181.5C 193.5,178.833 193.5,176.167 193.5,173.5 Z"/></g>
<g><path style="opacity:1" fill="#7a7a7a" d="M 222.5,173.5 C 219.038,174.482 215.371,174.815 211.5,174.5C 211.81,177.713 211.477,180.713 210.5,183.5C 210.5,180.167 210.5,176.833 210.5,173.5C 214.5,173.5 218.5,173.5 222.5,173.5 Z"/></g>
<g><path style="opacity:1" fill="#c1c1c1" d="M 19.5,173.5 C 23.1667,173.5 26.8333,173.5 30.5,173.5C 30.5,176.833 30.5,180.167 30.5,183.5C 29.5233,180.713 29.19,177.713 29.5,174.5C 25.9581,174.813 22.6248,174.479 19.5,173.5 Z"/></g>
</svg>
