<?xml version="1.0" encoding="UTF-8"?>
<!DOCTYPE svg PUBLIC "-//W3C//DTD SVG 1.1//EN" "http://www.w3.org/Graphics/SVG/1.1/DTD/svg11.dtd">
<svg xmlns="http://www.w3.org/2000/svg" version="1.1" width="280px" height="158px" style="shape-rendering:geometricPrecision; text-rendering:geometricPrecision; image-rendering:optimizeQuality; fill-rule:evenodd; clip-rule:evenodd" xmlns:xlink="http://www.w3.org/1999/xlink">
<g><path style="opacity:1" fill="#fcfcfc" d="M -0.5,-0.5 C 92.8333,-0.5 186.167,-0.5 279.5,-0.5C 279.5,52.1667 279.5,104.833 279.5,157.5C 186.167,157.5 92.8333,157.5 -0.5,157.5C -0.5,104.833 -0.5,52.1667 -0.5,-0.5 Z"/></g>
<g><path style="opacity:1" fill="#101010" d="M 257.5,39.5 C 258.493,75.4271 258.826,111.427 258.5,147.5C 179.237,148.663 99.9034,148.83 20.5,148C 19.8365,130.072 19.5032,112.072 19.5,94C 19.5032,75.9279 19.8365,57.9279 20.5,40C 42.4653,41.5305 63.4653,37.8638 83.5,29C 96.8239,21.3358 110.824,15.3358 125.5,11C 137.717,9.67476 149.717,10.6748 161.5,14C 176.136,20.6499 190.803,27.3166 205.5,34C 222.429,39.1082 239.762,40.9415 257.5,39.5 Z"/></g>
<g><path style="opacity:1" fill="#fdfdfd" d="M 42.5,78.5 C 42.5,67.5 42.5,56.5 42.5,45.5C 44.4147,45.7845 46.0813,45.4511 47.5,44.5C 54.1663,43.4004 60.833,42.2337 67.5,41C 85.099,33.8657 102.432,26.199 119.5,18C 134.352,14.3254 149.018,14.9921 163.5,20C 179.707,28.4383 196.374,35.7717 213.5,42C 221.039,43.9775 228.706,44.8108 236.5,44.5C 236.5,55.8333 236.5,67.1667 236.5,78.5C 171.833,78.5 107.167,78.5 42.5,78.5 Z"/></g>
<g><path style="opacity:1" fill="#fefefe" d="M 243.5,45.5 C 246.5,45.5 249.5,45.5 252.5,45.5C 252.5,78.1667 252.5,110.833 252.5,143.5C 249.167,143.5 245.833,143.5 242.5,143.5C 242.168,110.662 242.502,77.9957 243.5,45.5 Z"/></g>
<g><path style="opacity:1" fill="#cccccc" d="M 257.5,39.5 C 258.833,57.1541 259.5,75.1541 259.5,93.5C 259.5,111.67 259.167,129.67 258.5,147.5C 258.826,111.427 258.493,75.4271 257.5,39.5 Z"/></g>
<g><path style="opacity:1" fill="#b3b3b3" d="M 243.5,45.5 C 243.5,45.1667 243.5,44.8333 243.5,44.5C 246.833,44.5 250.167,44.5 253.5,44.5C 253.832,77.6709 253.498,110.671 252.5,143.5C 252.5,110.833 252.5,78.1667 252.5,45.5C 249.5,45.5 246.5,45.5 243.5,45.5 Z"/></g>
<g><path style="opacity:1" fill="#acacac" d="M 35.5,143.5 C 35.5,110.833 35.5,78.1667 35.5,45.5C 32.1667,45.5 28.8333,45.5 25.5,45.5C 25.5,78.1667 25.5,110.833 25.5,143.5C 24.5017,110.671 24.1684,77.6709 24.5,44.5C 28.5,44.5 32.5,44.5 36.5,44.5C 36.8316,77.6709 36.4983,110.671 35.5,143.5 Z"/></g>
<g><path style="opacity:1" fill="#fdfdfd" d="M 35.5,143.5 C 32.1667,143.5 28.8333,143.5 25.5,143.5C 25.5,110.833 25.5,78.1667 25.5,45.5C 28.8333,45.5 32.1667,45.5 35.5,45.5C 35.5,78.1667 35.5,110.833 35.5,143.5 Z"/></g>
<g><path style="opacity:1" fill="#cdcdcd" d="M 47.5,44.5 C 46.0813,45.4511 44.4147,45.7845 42.5,45.5C 42.5,56.5 42.5,67.5 42.5,78.5C 41.5052,67.3456 41.1719,56.0123 41.5,44.5C 43.5,44.5 45.5,44.5 47.5,44.5 Z"/></g>
<g><path style="opacity:1" fill="#fefefe" d="M 236.5,84.5 C 236.5,85.8333 236.5,87.1667 236.5,88.5C 235.511,93.9753 235.178,99.642 235.5,105.5C 171.167,105.5 106.833,105.5 42.5,105.5C 42.5,98.5 42.5,91.5 42.5,84.5C 107.167,84.5 171.833,84.5 236.5,84.5 Z"/></g>
<g><path style="opacity:1" fill="#838383" d="M 243.5,44.5 C 243.5,44.8333 243.5,45.1667 243.5,45.5C 242.502,77.9957 242.168,110.662 242.5,143.5C 241.833,127.17 241.5,110.67 241.5,94C 241.5,77.1529 242.167,60.6529 243.5,44.5 Z"/></g>
<g><path style="opacity:1" fill="#c1c1c1" d="M 236.5,84.5 C 171.833,84.5 107.167,84.5 42.5,84.5C 42.5,91.5 42.5,98.5 42.5,105.5C 106.833,105.5 171.167,105.5 235.5,105.5C 235.178,99.642 235.511,93.9753 236.5,88.5C 236.5,94.5 236.5,100.5 236.5,106.5C 171.5,106.5 106.5,106.5 41.5,106.5C 41.5,98.8333 41.5,91.1667 41.5,83.5C 106.669,83.1675 171.669,83.5009 236.5,84.5 Z"/></g>
<g><path style="opacity:1" fill="#fdfdfd" d="M 236.5,112.5 C 236.5,120.5 236.5,128.5 236.5,136.5C 235.539,138.265 235.205,140.265 235.5,142.5C 171.167,142.5 106.833,142.5 42.5,142.5C 42.5,132.5 42.5,122.5 42.5,112.5C 107.167,112.5 171.833,112.5 236.5,112.5 Z"/></g>
<g><path style="opacity:1" fill="#0c0c0c" d="M 125.5,121.5 C 126.369,123.717 126.702,126.05 126.5,128.5C 136.5,128.5 146.5,128.5 156.5,128.5C 156.5,126.5 156.5,124.5 156.5,122.5C 158.01,121.272 159.51,121.272 161,122.5C 161.789,126.091 161.622,129.591 160.5,133C 147.833,133.667 135.167,133.667 122.5,133C 121.378,129.591 121.211,126.091 122,122.5C 123.011,121.663 124.178,121.33 125.5,121.5 Z"/></g>
<g><path style="opacity:1" fill="#c8c8c8" d="M 125.5,121.5 C 127.308,122.918 127.975,124.918 127.5,127.5C 136.833,127.5 146.167,127.5 155.5,127.5C 155.216,125.585 155.549,123.919 156.5,122.5C 156.5,124.5 156.5,126.5 156.5,128.5C 146.5,128.5 136.5,128.5 126.5,128.5C 126.702,126.05 126.369,123.717 125.5,121.5 Z"/></g>
<g><path style="opacity:1" fill="#c0c0c0" d="M 236.5,112.5 C 171.833,112.5 107.167,112.5 42.5,112.5C 42.5,122.5 42.5,132.5 42.5,142.5C 106.833,142.5 171.167,142.5 235.5,142.5C 235.205,140.265 235.539,138.265 236.5,136.5C 236.5,138.833 236.5,141.167 236.5,143.5C 171.5,143.5 106.5,143.5 41.5,143.5C 41.5,132.833 41.5,122.167 41.5,111.5C 106.669,111.168 171.669,111.501 236.5,112.5 Z"/></g>
</svg>
