<?xml version="1.0" encoding="UTF-8"?>
<!DOCTYPE svg PUBLIC "-//W3C//DTD SVG 1.1//EN" "http://www.w3.org/Graphics/SVG/1.1/DTD/svg11.dtd">
<svg xmlns="http://www.w3.org/2000/svg" version="1.1" width="246px" height="186px" style="shape-rendering:geometricPrecision; text-rendering:geometricPrecision; image-rendering:optimizeQuality; fill-rule:evenodd; clip-rule:evenodd" xmlns:xlink="http://www.w3.org/1999/xlink">
<g><path style="opacity:1" fill="#fdfdfd" d="M -0.5,-0.5 C 81.5,-0.5 163.5,-0.5 245.5,-0.5C 245.5,61.5 245.5,123.5 245.5,185.5C 163.5,185.5 81.5,185.5 -0.5,185.5C -0.5,172.5 -0.5,159.5 -0.5,146.5C 0.166667,146.833 0.833333,147.167 1.5,147.5C 2.5,148.833 3.5,150.167 4.5,151.5C 5.30646,152.728 6.30646,153.728 7.5,154.5C 7.61071,155.117 7.94404,155.617 8.5,156C 80.3345,156.832 152.001,156.666 223.5,155.5C 224.5,155.5 225.5,155.5 226.5,155.5C 228.749,154.92 230.415,153.587 231.5,151.5C 232.167,150.167 233.167,149.167 234.5,148.5C 236.045,147.77 236.878,146.437 237,144.5C 237.827,131.66 237.66,118.993 236.5,106.5C 236.608,104.486 235.942,102.82 234.5,101.5C 233.862,99.54 233.862,97.7067 234.5,96C 232.627,94.2962 230.96,92.4628 229.5,90.5C 229.245,88.0326 228.245,86.0326 226.5,84.5C 226.443,83.391 226.11,82.391 225.5,81.5C 225.305,77.2614 223.638,73.9281 220.5,71.5C 220.34,69.847 219.674,68.5137 218.5,67.5C 218.741,65.1016 218.074,63.1016 216.5,61.5C 216.917,58.9208 216.25,56.7542 214.5,55C 215.172,53.4207 214.505,52.254 212.5,51.5C 210.982,48.3929 209.315,45.3929 207.5,42.5C 206.917,39.0534 205.584,36.0534 203.5,33.5C 203.5,33.1667 203.5,32.8333 203.5,32.5C 203.071,29.8527 201.738,27.8527 199.5,26.5C 198.833,26.5 198.5,26.1667 198.5,25.5C 197.547,23.39 195.881,22.2233 193.5,22C 142.833,21.3333 92.1667,21.3333 41.5,22C 40.5842,22.2784 39.9175,22.7784 39.5,23.5C 34.9168,25.6527 32.5835,29.3194 32.5,34.5C 30.9069,35.3479 29.7403,36.6813 29,38.5C 28.0536,41.6474 26.8869,44.6474 25.5,47.5C 23.5413,49.7847 22.208,52.4513 21.5,55.5C 20.8902,56.391 20.5569,57.391 20.5,58.5C 18.7868,59.6354 18.1201,61.302 18.5,63.5C 17.8333,64.8333 17.1667,66.1667 16.5,67.5C 14.1824,69.1852 13.1824,71.5185 13.5,74.5C 12.3263,75.5137 11.6596,76.847 11.5,78.5C 9.26666,81.8486 7.59999,85.5153 6.5,89.5C 5.3485,91.7791 4.3485,94.1124 3.5,96.5C 1.92606,98.1016 1.25939,100.102 1.5,102.5C 0.833333,102.5 0.166667,102.5 -0.5,102.5C -0.5,68.1667 -0.5,33.8333 -0.5,-0.5 Z"/></g>
<g><path style="opacity:1" fill="#383e3b" d="M 198.5,25.5 C 196.188,24.6805 193.854,23.8471 191.5,23C 140.811,22.1849 90.1446,22.3516 39.5,23.5C 39.9175,22.7784 40.5842,22.2784 41.5,22C 92.1667,21.3333 142.833,21.3333 193.5,22C 195.881,22.2233 197.547,23.39 198.5,25.5 Z"/></g>
<g><path style="opacity:1" fill="#0a0b0a" d="M 198.5,25.5 C 198.5,26.1667 198.833,26.5 199.5,26.5C 200.298,28.9663 201.631,30.9663 203.5,32.5C 203.5,32.8333 203.5,33.1667 203.5,33.5C 203.792,37.0664 205.126,40.0664 207.5,42.5C 209.315,45.3929 210.982,48.3929 212.5,51.5C 212.882,55.3316 214.215,58.665 216.5,61.5C 216.259,63.8984 216.926,65.8984 218.5,67.5C 219.674,68.5137 220.34,69.847 220.5,71.5C 221.675,75.1826 223.341,78.5159 225.5,81.5C 226.11,82.391 226.443,83.391 226.5,84.5C 226.386,87.216 227.386,89.216 229.5,90.5C 231.086,94.0181 232.419,97.6848 233.5,101.5C 233.461,102.756 233.961,103.756 235,104.5C 235.5,117.496 235.667,130.496 235.5,143.5C 235.371,145.216 235.038,146.883 234.5,148.5C 233.167,149.167 232.167,150.167 231.5,151.5C 229.938,151.733 228.605,152.4 227.5,153.5C 155.207,154.66 82.8738,154.827 10.5,154C 8.59321,152.878 6.59321,152.045 4.5,151.5C 3.5,150.167 2.5,148.833 1.5,147.5C 0.166667,132.5 0.166667,117.5 1.5,102.5C 3.07394,100.898 3.74061,98.8984 3.5,96.5C 4.3485,94.1124 5.3485,91.7791 6.5,89.5C 9.20626,86.4098 10.8729,82.7431 11.5,78.5C 11.6596,76.847 12.3263,75.5137 13.5,74.5C 14.9117,72.3964 15.9117,70.0631 16.5,67.5C 17.1667,66.1667 17.8333,64.8333 18.5,63.5C 19.5375,62.0697 20.2041,60.403 20.5,58.5C 20.5569,57.391 20.8902,56.391 21.5,55.5C 24.1367,53.5182 25.47,50.8515 25.5,47.5C 28.3893,43.5284 30.7226,39.1951 32.5,34.5C 32.5835,29.3194 34.9168,25.6527 39.5,23.5C 90.1446,22.3516 140.811,22.1849 191.5,23C 193.854,23.8471 196.188,24.6805 198.5,25.5 Z"/></g>
<g><path style="opacity:1" fill="#838388" d="M 195.5,32.5 C 194.118,31.1995 192.452,30.3661 190.5,30C 141.5,29.3333 92.5,29.3333 43.5,30C 42.6266,31.045 41.6266,31.8783 40.5,32.5C 40.5106,30.9826 41.1772,29.8159 42.5,29C 92.8333,28.3333 143.167,28.3333 193.5,29C 194.823,29.8159 195.489,30.9826 195.5,32.5 Z"/></g>
<g><path style="opacity:1" fill="#535455" d="M 199.5,26.5 C 201.738,27.8527 203.071,29.8527 203.5,32.5C 201.631,30.9663 200.298,28.9663 199.5,26.5 Z"/></g>
<g><path style="opacity:1" fill="#fbfbfb" d="M 195.5,32.5 C 196.323,34.9872 197.323,37.3206 198.5,39.5C 201.168,46.0376 203.668,52.7042 206,59.5C 208.674,62.0724 210.507,65.0724 211.5,68.5C 212.338,68.8417 212.672,69.5084 212.5,70.5C 212.898,73.4243 214.231,75.7576 216.5,77.5C 218.42,81.2589 219.753,85.2589 220.5,89.5C 220.755,91.9674 221.755,93.9674 223.5,95.5C 223.674,97.861 224.007,100.194 224.5,102.5C 152.826,103.163 81.4922,102.497 10.5,100.5C 10.4326,99.0413 10.7659,97.7079 11.5,96.5C 11.5,96.1667 11.5,95.8333 11.5,95.5C 13.2503,94.3406 14.2503,92.674 14.5,90.5C 15.1667,88.5 15.8333,86.5 16.5,84.5C 18.8176,82.8148 19.8176,80.4815 19.5,77.5C 21.873,75.4208 23.2064,72.7541 23.5,69.5C 23.5,69.1667 23.5,68.8333 23.5,68.5C 25.8524,66.822 27.1857,64.4887 27.5,61.5C 27.2627,60.209 27.596,59.209 28.5,58.5C 29.6737,57.4863 30.3404,56.153 30.5,54.5C 30.3284,53.5084 30.6618,52.8417 31.5,52.5C 32.7384,50.7857 33.405,48.7857 33.5,46.5C 33.5,45.8333 33.8333,45.5 34.5,45.5C 36.8176,43.8148 37.8176,41.4815 37.5,38.5C 38.9063,38.0269 39.573,37.0269 39.5,35.5C 39.2627,34.209 39.596,33.209 40.5,32.5C 41.6266,31.8783 42.6266,31.045 43.5,30C 92.5,29.3333 141.5,29.3333 190.5,30C 192.452,30.3661 194.118,31.1995 195.5,32.5 Z"/></g>
<g><path style="opacity:1" fill="#4f514f" d="M 32.5,34.5 C 30.7226,39.1951 28.3893,43.5284 25.5,47.5C 26.8869,44.6474 28.0536,41.6474 29,38.5C 29.7403,36.6813 30.9069,35.3479 32.5,34.5 Z"/></g>
<g><path style="opacity:1" fill="#85858a" d="M 39.5,35.5 C 39.573,37.0269 38.9063,38.0269 37.5,38.5C 37.427,36.9731 38.0937,35.9731 39.5,35.5 Z"/></g>
<g><path style="opacity:1" fill="#c1c0c1" d="M 91.5,47.5 C 91.5,45.1667 91.5,42.8333 91.5,40.5C 89.1667,40.5 86.8333,40.5 84.5,40.5C 84.5,42.8333 84.5,45.1667 84.5,47.5C 83.5233,44.7131 83.19,41.7131 83.5,38.5C 87.0479,38.0949 90.3812,38.5949 93.5,40C 92.8767,42.6073 92.21,45.1073 91.5,47.5 Z"/></g>
<g><path style="opacity:1" fill="#c7c6c7" d="M 143.5,47.5 C 146.059,47.8016 148.393,47.4682 150.5,46.5C 150.5,44.5 150.5,42.5 150.5,40.5C 148.5,40.5 146.5,40.5 144.5,40.5C 144.167,40.5 143.833,40.5 143.5,40.5C 151.756,36.2452 154.423,38.7452 151.5,48C 148.633,48.8007 145.966,48.6341 143.5,47.5 Z"/></g>
<g><path style="opacity:1" fill="#5d5f61" d="M 203.5,33.5 C 205.584,36.0534 206.917,39.0534 207.5,42.5C 205.126,40.0664 203.792,37.0664 203.5,33.5 Z"/></g>
<g><path style="opacity:1" fill="#111111" d="M 144.5,40.5 C 146.5,40.5 148.5,40.5 150.5,40.5C 150.5,42.5 150.5,44.5 150.5,46.5C 148.5,46.5 146.5,46.5 144.5,46.5C 144.5,44.5 144.5,42.5 144.5,40.5 Z"/></g>
<g><path style="opacity:1" fill="#181918" d="M 177.5,40.5 C 179.833,40.5 182.167,40.5 184.5,40.5C 184.5,42.8333 184.5,45.1667 184.5,47.5C 182.167,47.5 179.833,47.5 177.5,47.5C 177.5,45.1667 177.5,42.8333 177.5,40.5 Z"/></g>
<g><path style="opacity:1" fill="#828485" d="M 37.5,38.5 C 37.8176,41.4815 36.8176,43.8148 34.5,45.5C 34.5516,42.6538 35.5516,40.3204 37.5,38.5 Z"/></g>
<g><path style="opacity:1" fill="#565855" d="M 91.5,47.5 C 89.1667,47.5 86.8333,47.5 84.5,47.5C 84.5,45.1667 84.5,42.8333 84.5,40.5C 86.8333,40.5 89.1667,40.5 91.5,40.5C 91.5,42.8333 91.5,45.1667 91.5,47.5 Z"/></g>
<g><path style="opacity:1" fill="#080908" d="M 85.5,41.5 C 87.1667,41.5 88.8333,41.5 90.5,41.5C 90.5,43.1667 90.5,44.8333 90.5,46.5C 88.8333,46.5 87.1667,46.5 85.5,46.5C 85.5,44.8333 85.5,43.1667 85.5,41.5 Z"/></g>
<g><path style="opacity:1" fill="#848384" d="M 198.5,39.5 C 202.25,44.7771 204.917,50.6104 206.5,57C 209.814,60.107 211.481,63.9403 211.5,68.5C 210.507,65.0724 208.674,62.0724 206,59.5C 203.668,52.7042 201.168,46.0376 198.5,39.5 Z"/></g>
<g><path style="opacity:1" fill="#62625f" d="M 143.5,40.5 C 143.833,40.5 144.167,40.5 144.5,40.5C 144.5,42.5 144.5,44.5 144.5,46.5C 146.5,46.5 148.5,46.5 150.5,46.5C 148.393,47.4682 146.059,47.8016 143.5,47.5C 143.5,45.1667 143.5,42.8333 143.5,40.5 Z"/></g>
<g><path style="opacity:1" fill="#5d5d5e" d="M 50.5,40.5 C 53.1667,40.5 55.8333,40.5 58.5,40.5C 58.5,42.8333 58.5,45.1667 58.5,47.5C 55.8333,47.5 53.1667,47.5 50.5,47.5C 50.5,45.1667 50.5,42.8333 50.5,40.5 Z"/></g>
<g><path style="opacity:1" fill="#070807" d="M 51.5,41.5 C 53.5,41.5 55.5,41.5 57.5,41.5C 57.5,43.1667 57.5,44.8333 57.5,46.5C 55.5,46.5 53.5,46.5 51.5,46.5C 51.5,44.8333 51.5,43.1667 51.5,41.5 Z"/></g>
<g><path style="opacity:1" fill="#c4c2c3" d="M 119.5,47.5 C 117.107,48.21 114.607,48.8767 112,49.5C 111.793,45.9106 111.293,42.4106 110.5,39C 113.817,38.5017 117.15,38.335 120.5,38.5C 120.81,41.7131 120.477,44.7131 119.5,47.5 Z"/></g>
<g><path style="opacity:1" fill="#474846" d="M 119.5,47.5 C 117.167,47.5 114.833,47.5 112.5,47.5C 112.5,45.1667 112.5,42.8333 112.5,40.5C 114.833,40.5 117.167,40.5 119.5,40.5C 119.5,42.8333 119.5,45.1667 119.5,47.5 Z"/></g>
<g><path style="opacity:1" fill="#080908" d="M 113.5,41.5 C 115.167,41.5 116.833,41.5 118.5,41.5C 118.5,43.1667 118.5,44.8333 118.5,46.5C 116.833,46.5 115.167,46.5 113.5,46.5C 113.5,44.8333 113.5,43.1667 113.5,41.5 Z"/></g>
<g><path style="opacity:1" fill="#5e5f5d" d="M 33.5,46.5 C 33.405,48.7857 32.7384,50.7857 31.5,52.5C 31.2594,50.1016 31.9261,48.1016 33.5,46.5 Z"/></g>
<g><path style="opacity:1" fill="#81807e" d="M 25.5,47.5 C 25.47,50.8515 24.1367,53.5182 21.5,55.5C 22.208,52.4513 23.5413,49.7847 25.5,47.5 Z"/></g>
<g><path style="opacity:1" fill="#b4b3b4" d="M 212.5,51.5 C 214.505,52.254 215.172,53.4207 214.5,55C 216.25,56.7542 216.917,58.9208 216.5,61.5C 214.215,58.665 212.882,55.3316 212.5,51.5 Z"/></g>
<g><path style="opacity:1" fill="#6d6b6e" d="M 30.5,54.5 C 30.3404,56.153 29.6737,57.4863 28.5,58.5C 28.2291,56.6203 28.8958,55.287 30.5,54.5 Z"/></g>
<g><path style="opacity:1" fill="#929091" d="M 20.5,58.5 C 20.2041,60.403 19.5375,62.0697 18.5,63.5C 18.1201,61.302 18.7868,59.6354 20.5,58.5 Z"/></g>
<g><path style="opacity:1" fill="#030303" d="M 87.5,63.5 C 87.5,65.1667 87.5,66.8333 87.5,68.5C 84.5,68.5 81.5,68.5 78.5,68.5C 78.5,66.8333 78.5,65.1667 78.5,63.5C 81.5,63.5 84.5,63.5 87.5,63.5 Z"/></g>
<g><path style="opacity:1" fill="#020101" d="M 191.5,63.5 C 191.5,65.1667 191.5,66.8333 191.5,68.5C 188.5,68.5 185.5,68.5 182.5,68.5C 182.5,66.8333 182.5,65.1667 182.5,63.5C 185.5,63.5 188.5,63.5 191.5,63.5 Z"/></g>
<g><path style="opacity:1" fill="#bebfbf" d="M 87.5,62.5 C 84.1667,62.5 80.8333,62.5 77.5,62.5C 77.5,64.8333 77.5,67.1667 77.5,69.5C 75.631,67.3647 74.9644,64.6981 75.5,61.5C 79.7016,61.1832 83.7016,61.5166 87.5,62.5 Z"/></g>
<g><path style="opacity:1" fill="#4d4f51" d="M 216.5,61.5 C 218.074,63.1016 218.741,65.1016 218.5,67.5C 216.926,65.8984 216.259,63.8984 216.5,61.5 Z"/></g>
<g><path style="opacity:1" fill="#323736" d="M 87.5,62.5 C 87.5,62.8333 87.5,63.1667 87.5,63.5C 84.5,63.5 81.5,63.5 78.5,63.5C 78.5,65.1667 78.5,66.8333 78.5,68.5C 81.5,68.5 84.5,68.5 87.5,68.5C 84.3752,69.4794 81.0419,69.8128 77.5,69.5C 77.5,67.1667 77.5,64.8333 77.5,62.5C 80.8333,62.5 84.1667,62.5 87.5,62.5 Z"/></g>
<g><path style="opacity:1" fill="#747273" d="M 27.5,61.5 C 27.1857,64.4887 25.8524,66.822 23.5,68.5C 23.7361,65.3793 25.0695,63.046 27.5,61.5 Z"/></g>
<g><path style="opacity:1" fill="#404342" d="M 43.5,62.5 C 47.1667,62.5 50.8333,62.5 54.5,62.5C 54.5,64.8333 54.5,67.1667 54.5,69.5C 50.8333,69.5 47.1667,69.5 43.5,69.5C 43.5,67.1667 43.5,64.8333 43.5,62.5 Z"/></g>
<g><path style="opacity:1" fill="#030201" d="M 44.5,63.5 C 47.5,63.5 50.5,63.5 53.5,63.5C 53.5,65.1667 53.5,66.8333 53.5,68.5C 50.5,68.5 47.5,68.5 44.5,68.5C 44.5,66.8333 44.5,65.1667 44.5,63.5 Z"/></g>
<g><path style="opacity:1" fill="#3f4445" d="M 112.5,62.5 C 116.167,62.5 119.833,62.5 123.5,62.5C 123.802,65.0593 123.468,67.3926 122.5,69.5C 119.167,69.5 115.833,69.5 112.5,69.5C 112.5,67.1667 112.5,64.8333 112.5,62.5 Z"/></g>
<g><path style="opacity:1" fill="#030201" d="M 113.5,63.5 C 116.5,63.5 119.5,63.5 122.5,63.5C 122.5,65.1667 122.5,66.8333 122.5,68.5C 119.5,68.5 116.5,68.5 113.5,68.5C 113.5,66.8333 113.5,65.1667 113.5,63.5 Z"/></g>
<g><path style="opacity:1" fill="#404445" d="M 158.5,62.5 C 158.5,64.8333 158.5,67.1667 158.5,69.5C 155.167,69.5 151.833,69.5 148.5,69.5C 147.532,67.3926 147.198,65.0593 147.5,62.5C 151.167,62.5 154.833,62.5 158.5,62.5 Z"/></g>
<g><path style="opacity:1" fill="#030201" d="M 148.5,63.5 C 151.5,63.5 154.5,63.5 157.5,63.5C 157.5,65.1667 157.5,66.8333 157.5,68.5C 154.5,68.5 151.5,68.5 148.5,68.5C 148.5,66.8333 148.5,65.1667 148.5,63.5 Z"/></g>
<g><path style="opacity:1" fill="#313737" d="M 181.5,62.5 C 185.042,62.1872 188.375,62.5206 191.5,63.5C 188.5,63.5 185.5,63.5 182.5,63.5C 182.5,65.1667 182.5,66.8333 182.5,68.5C 185.5,68.5 188.5,68.5 191.5,68.5C 191.5,68.8333 191.5,69.1667 191.5,69.5C 188.167,69.5 184.833,69.5 181.5,69.5C 181.5,67.1667 181.5,64.8333 181.5,62.5 Z"/></g>
<g><path style="opacity:1" fill="#b6b3b3" d="M 87.5,62.5 C 89.2227,64.78 89.8893,67.4467 89.5,70.5C 85.2984,70.8168 81.2984,70.4834 77.5,69.5C 81.0419,69.8128 84.3752,69.4794 87.5,68.5C 87.5,66.8333 87.5,65.1667 87.5,63.5C 87.5,63.1667 87.5,62.8333 87.5,62.5 Z"/></g>
<g><path style="opacity:1" fill="#a7a5a5" d="M 181.5,62.5 C 181.5,64.8333 181.5,67.1667 181.5,69.5C 184.833,69.5 188.167,69.5 191.5,69.5C 188.038,70.4816 184.371,70.815 180.5,70.5C 180.194,67.6146 180.527,64.9479 181.5,62.5 Z"/></g>
<g><path style="opacity:1" fill="#79797a" d="M 16.5,67.5 C 15.9117,70.0631 14.9117,72.3964 13.5,74.5C 13.1824,71.5185 14.1824,69.1852 16.5,67.5 Z"/></g>
<g><path style="opacity:1" fill="#c7c3c6" d="M 112.5,62.5 C 112.5,64.8333 112.5,67.1667 112.5,69.5C 115.833,69.5 119.167,69.5 122.5,69.5C 119.155,71.217 115.489,71.8836 111.5,71.5C 111.19,68.2869 111.523,65.2869 112.5,62.5 Z"/></g>
<g><path style="opacity:1" fill="#c5c2c5" d="M 158.5,62.5 C 159.477,65.2869 159.81,68.2869 159.5,71.5C 155.663,71.0691 151.997,70.4025 148.5,69.5C 151.833,69.5 155.167,69.5 158.5,69.5C 158.5,67.1667 158.5,64.8333 158.5,62.5 Z"/></g>
<g><path style="opacity:1" fill="#7d7f7f" d="M 220.5,71.5 C 223.638,73.9281 225.305,77.2614 225.5,81.5C 223.341,78.5159 221.675,75.1826 220.5,71.5 Z"/></g>
<g><path style="opacity:1" fill="#474b4a" d="M 212.5,70.5 C 214.45,72.4301 215.783,74.7634 216.5,77.5C 214.231,75.7576 212.898,73.4243 212.5,70.5 Z"/></g>
<g><path style="opacity:1" fill="#56595a" d="M 23.5,69.5 C 23.2064,72.7541 21.873,75.4208 19.5,77.5C 19.7936,74.2459 21.127,71.5792 23.5,69.5 Z"/></g>
<g><path style="opacity:1" fill="#747877" d="M 19.5,77.5 C 19.8176,80.4815 18.8176,82.8148 16.5,84.5C 17.0883,81.9369 18.0883,79.6036 19.5,77.5 Z"/></g>
<g><path style="opacity:1" fill="#cecbcb" d="M 43.5,92.5 C 43.5,89.8333 43.5,87.1667 43.5,84.5C 38.5,84.5 33.5,84.5 28.5,84.5C 28.5,86.8333 28.5,89.1667 28.5,91.5C 27.5269,89.0521 27.1936,86.3854 27.5,83.5C 33.1667,83.5 38.8333,83.5 44.5,83.5C 44.81,86.7131 44.4767,89.7131 43.5,92.5 Z"/></g>
<g><path style="opacity:1" fill="#c1bfc0" d="M 109.5,83.5 C 115.167,83.5 120.833,83.5 126.5,83.5C 128.367,91.4673 125.367,94.8007 117.5,93.5C 114.911,93.4728 112.411,93.1394 110,92.5C 109.502,89.5184 109.335,86.5184 109.5,83.5 Z"/></g>
<g><path style="opacity:1" fill="#5c5e5d" d="M 43.5,92.5 C 38.3054,92.8205 33.3054,92.4872 28.5,91.5C 28.5,89.1667 28.5,86.8333 28.5,84.5C 33.5,84.5 38.5,84.5 43.5,84.5C 43.5,87.1667 43.5,89.8333 43.5,92.5 Z"/></g>
<g><path style="opacity:1" fill="#5e6062" d="M 83.5,91.5 C 79.03,92.4861 74.3633,92.8195 69.5,92.5C 69.5,89.8333 69.5,87.1667 69.5,84.5C 74.5,84.5 79.5,84.5 84.5,84.5C 84.8016,87.0593 84.4682,89.3926 83.5,91.5 Z"/></g>
<g><path style="opacity:1" fill="#4b5050" d="M 123.5,91.5 C 123.5,89.5 123.5,87.5 123.5,85.5C 119.5,85.5 115.5,85.5 111.5,85.5C 111.5,87.5 111.5,89.5 111.5,91.5C 110.532,89.3926 110.198,87.0593 110.5,84.5C 115.5,84.5 120.5,84.5 125.5,84.5C 126.01,87.3878 125.344,89.7211 123.5,91.5 Z"/></g>
<g><path style="opacity:1" fill="#484d4d" d="M 192.5,84.5 C 197.179,84.3342 201.845,84.5008 206.5,85C 207.811,87.2735 207.811,89.4402 206.5,91.5C 206.167,91.5 205.833,91.5 205.5,91.5C 205.5,89.5 205.5,87.5 205.5,85.5C 201.5,85.5 197.5,85.5 193.5,85.5C 193.5,87.5 193.5,89.5 193.5,91.5C 192.532,89.3926 192.198,87.0593 192.5,84.5 Z"/></g>
<g><path style="opacity:1" fill="#040305" d="M 29.5,85.5 C 33.8333,85.5 38.1667,85.5 42.5,85.5C 42.5,87.5 42.5,89.5 42.5,91.5C 38.1667,91.5 33.8333,91.5 29.5,91.5C 29.5,89.5 29.5,87.5 29.5,85.5 Z"/></g>
<g><path style="opacity:1" fill="#0c0b0a" d="M 83.5,91.5 C 79.1667,91.5 74.8333,91.5 70.5,91.5C 70.5,89.5 70.5,87.5 70.5,85.5C 74.8333,85.5 79.1667,85.5 83.5,85.5C 83.5,87.5 83.5,89.5 83.5,91.5 Z"/></g>
<g><path style="opacity:1" fill="#060504" d="M 123.5,91.5 C 119.5,91.5 115.5,91.5 111.5,91.5C 111.5,89.5 111.5,87.5 111.5,85.5C 115.5,85.5 119.5,85.5 123.5,85.5C 123.5,87.5 123.5,89.5 123.5,91.5 Z"/></g>
<g><path style="opacity:1" fill="#010000" d="M 205.5,91.5 C 201.5,91.5 197.5,91.5 193.5,91.5C 193.5,89.5 193.5,87.5 193.5,85.5C 197.5,85.5 201.5,85.5 205.5,85.5C 205.5,87.5 205.5,89.5 205.5,91.5 Z"/></g>
<g><path style="opacity:1" fill="#6c6c6c" d="M 11.5,78.5 C 10.8729,82.7431 9.20626,86.4098 6.5,89.5C 7.59999,85.5153 9.26666,81.8486 11.5,78.5 Z"/></g>
<g><path style="opacity:1" fill="#474948" d="M 16.5,84.5 C 15.8333,86.5 15.1667,88.5 14.5,90.5C 14.1667,90.5 13.8333,90.5 13.5,90.5C 13.461,87.911 14.461,85.911 16.5,84.5 Z"/></g>
<g><path style="opacity:1" fill="#606160" d="M 226.5,84.5 C 228.245,86.0326 229.245,88.0326 229.5,90.5C 227.386,89.216 226.386,87.216 226.5,84.5 Z"/></g>
<g><path style="opacity:1" fill="#929492" d="M 13.5,90.5 C 13.8333,90.5 14.1667,90.5 14.5,90.5C 14.2503,92.674 13.2503,94.3406 11.5,95.5C 11.7959,93.597 12.4625,91.9303 13.5,90.5 Z"/></g>
<g><path style="opacity:1" fill="#6b6c6f" d="M 150.5,84.5 C 155.511,84.3341 160.511,84.5007 165.5,85C 166.591,87.0639 166.758,89.2305 166,91.5C 161.252,92.6349 156.419,92.8015 151.5,92C 150.565,89.6194 150.232,87.1194 150.5,84.5 Z"/></g>
<g><path style="opacity:1" fill="#070706" d="M 152.5,85.5 C 156.5,85.5 160.5,85.5 164.5,85.5C 164.5,87.5 164.5,89.5 164.5,91.5C 160.5,91.5 156.5,91.5 152.5,91.5C 152.5,89.5 152.5,87.5 152.5,85.5 Z"/></g>
<g><path style="opacity:1" fill="#807e84" d="M 192.5,84.5 C 192.198,87.0593 192.532,89.3926 193.5,91.5C 197.5,91.5 201.5,91.5 205.5,91.5C 205.833,91.5 206.167,91.5 206.5,91.5C 201.695,92.4872 196.695,92.8205 191.5,92.5C 191.194,89.6146 191.527,86.9479 192.5,84.5 Z"/></g>
<g><path style="opacity:1" fill="#aeaca8" d="M 220.5,89.5 C 222.245,91.0326 223.245,93.0326 223.5,95.5C 221.755,93.9674 220.755,91.9674 220.5,89.5 Z"/></g>
<g><path style="opacity:1" fill="#99979a" d="M 229.5,90.5 C 230.96,92.4628 232.627,94.2962 234.5,96C 233.862,97.7067 233.862,99.54 234.5,101.5C 234.167,101.5 233.833,101.5 233.5,101.5C 232.419,97.6848 231.086,94.0181 229.5,90.5 Z"/></g>
<g><path style="opacity:1" fill="#424443" d="M 3.5,96.5 C 3.74061,98.8984 3.07394,100.898 1.5,102.5C 1.25939,100.102 1.92606,98.1016 3.5,96.5 Z"/></g>
<g><path style="opacity:1" fill="#c0c4c0" d="M 223.5,95.5 C 225.655,97.6174 226.655,100.284 226.5,103.5C 154.167,103.5 81.8333,103.5 9.5,103.5C 9.26269,102.209 9.59603,101.209 10.5,100.5C 81.4922,102.497 152.826,103.163 224.5,102.5C 224.007,100.194 223.674,97.861 223.5,95.5 Z"/></g>
<g><path style="opacity:1" fill="#3d403a" d="M 11.5,96.5 C 10.7659,97.7079 10.4326,99.0413 10.5,100.5C 9.59603,101.209 9.26269,102.209 9.5,103.5C 81.8333,103.5 154.167,103.5 226.5,103.5C 154.002,104.499 81.3352,104.833 8.5,104.5C 8.33788,102.473 8.50454,100.473 9,98.5C 9.41691,97.244 10.2502,96.5774 11.5,96.5 Z"/></g>
<g><path style="opacity:1" fill="#232723" d="M -0.5,102.5 C 0.166667,102.5 0.833333,102.5 1.5,102.5C 0.166667,117.5 0.166667,132.5 1.5,147.5C 0.833333,147.167 0.166667,146.833 -0.5,146.5C -0.5,131.833 -0.5,117.167 -0.5,102.5 Z"/></g>
<g><path style="opacity:1" fill="#adaead" d="M 229.5,110.5 C 229.5,116.833 229.5,123.167 229.5,129.5C 154.833,129.5 80.1667,129.5 5.5,129.5C 5.5,123.167 5.5,116.833 5.5,110.5C 80.1667,110.5 154.833,110.5 229.5,110.5 Z"/></g>
<g><path style="opacity:1" fill="#fbfbfb" d="M 6.5,111.5 C 80.5,111.5 154.5,111.5 228.5,111.5C 228.5,117.167 228.5,122.833 228.5,128.5C 154.5,128.5 80.5,128.5 6.5,128.5C 6.5,122.833 6.5,117.167 6.5,111.5 Z"/></g>
<g><path style="opacity:1" fill="#595952" d="M 229.5,110.5 C 230.491,116.979 230.824,123.646 230.5,130.5C 155.331,130.833 80.3315,130.499 5.5,129.5C 80.1667,129.5 154.833,129.5 229.5,129.5C 229.5,123.167 229.5,116.833 229.5,110.5 Z"/></g>
<g><path style="opacity:1" fill="#3d413e" d="M 233.5,101.5 C 233.833,101.5 234.167,101.5 234.5,101.5C 235.942,102.82 236.608,104.486 236.5,106.5C 236.829,119.011 236.495,131.345 235.5,143.5C 235.667,130.496 235.5,117.496 235,104.5C 233.961,103.756 233.461,102.756 233.5,101.5 Z"/></g>
<g><path style="opacity:1" fill="#989898" d="M 236.5,106.5 C 237.66,118.993 237.827,131.66 237,144.5C 236.878,146.437 236.045,147.77 234.5,148.5C 235.038,146.883 235.371,145.216 235.5,143.5C 236.495,131.345 236.829,119.011 236.5,106.5 Z"/></g>
<g><path style="opacity:1" fill="#a8a8aa" d="M 229.5,143.5 C 229.167,143.5 228.833,143.5 228.5,143.5C 228.5,141.5 228.5,139.5 228.5,137.5C 154.5,137.5 80.5,137.5 6.5,137.5C 6.5,139.5 6.5,141.5 6.5,143.5C 5.53178,141.393 5.19845,139.059 5.5,136.5C 80.1667,136.5 154.833,136.5 229.5,136.5C 229.5,138.833 229.5,141.167 229.5,143.5 Z"/></g>
<g><path style="opacity:1" fill="#f9f8f9" d="M 228.5,143.5 C 227.34,144.265 226.34,145.265 225.5,146.5C 153.503,147.5 81.5031,147.833 9.5,147.5C 9.26242,145.596 8.26242,144.262 6.5,143.5C 6.5,141.5 6.5,139.5 6.5,137.5C 80.5,137.5 154.5,137.5 228.5,137.5C 228.5,139.5 228.5,141.5 228.5,143.5 Z"/></g>
<g><path style="opacity:1" fill="#6e6969" d="M 228.5,143.5 C 228.833,143.5 229.167,143.5 229.5,143.5C 229.141,145.371 228.141,146.871 226.5,148C 153.999,148.832 81.6655,148.666 9.5,147.5C 81.5031,147.833 153.503,147.5 225.5,146.5C 226.34,145.265 227.34,144.265 228.5,143.5 Z"/></g>
<g><path style="opacity:1" fill="#5b5b54" d="M 4.5,151.5 C 6.59321,152.045 8.59321,152.878 10.5,154C 82.8738,154.827 155.207,154.66 227.5,153.5C 227.167,154.167 226.833,154.833 226.5,155.5C 225.5,155.5 224.5,155.5 223.5,155.5C 151.459,155.827 79.4587,155.494 7.5,154.5C 6.30646,153.728 5.30646,152.728 4.5,151.5 Z"/></g>
<g><path style="opacity:1" fill="#a3a7a7" d="M 231.5,151.5 C 230.415,153.587 228.749,154.92 226.5,155.5C 226.833,154.833 227.167,154.167 227.5,153.5C 228.605,152.4 229.938,151.733 231.5,151.5 Z"/></g>
<g><path style="opacity:1" fill="#cad1d5" d="M 7.5,154.5 C 79.4587,155.494 151.459,155.827 223.5,155.5C 152.001,156.666 80.3345,156.832 8.5,156C 7.94404,155.617 7.61071,155.117 7.5,154.5 Z"/></g>
</svg>
