<?xml version="1.0" encoding="UTF-8"?>
<!DOCTYPE svg PUBLIC "-//W3C//DTD SVG 1.1//EN" "http://www.w3.org/Graphics/SVG/1.1/DTD/svg11.dtd">
<svg xmlns="http://www.w3.org/2000/svg" version="1.1" width="190px" height="226px" style="shape-rendering:geometricPrecision; text-rendering:geometricPrecision; image-rendering:optimizeQuality; fill-rule:evenodd; clip-rule:evenodd" xmlns:xlink="http://www.w3.org/1999/xlink">
<g><path style="opacity:1" fill="#fefefe" d="M -0.5,-0.5 C 62.8333,-0.5 126.167,-0.5 189.5,-0.5C 189.5,74.8333 189.5,150.167 189.5,225.5C 126.167,225.5 62.8333,225.5 -0.5,225.5C -0.5,150.167 -0.5,74.8333 -0.5,-0.5 Z"/></g>
<g><path style="opacity:1" fill="#c4c2c2" d="M 48.5,13.5 C 48.5,40.5 48.5,67.5 48.5,94.5C 46.1667,94.5 43.8333,94.5 41.5,94.5C 41.5,94.1667 41.5,93.8333 41.5,93.5C 43.5,93.5 45.5,93.5 47.5,93.5C 47.1688,66.6614 47.5021,39.9948 48.5,13.5 Z"/></g>
<g><path style="opacity:1" fill="#aaa9a9" d="M 137.5,13.5 C 138.498,39.9948 138.831,66.6614 138.5,93.5C 140.5,93.5 142.5,93.5 144.5,93.5C 144.172,81.6547 144.505,69.988 145.5,58.5C 145.5,70.5 145.5,82.5 145.5,94.5C 142.833,94.5 140.167,94.5 137.5,94.5C 137.5,67.5 137.5,40.5 137.5,13.5 Z"/></g>
<g><path style="opacity:1" fill="#bab9b9" d="M 150.5,58.5 C 150.5,58.1667 150.5,57.8333 150.5,57.5C 151.833,82.3244 152.5,107.491 152.5,133C 152.5,158.336 152.167,183.502 151.5,208.5C 151.832,158.331 151.499,108.331 150.5,58.5 Z"/></g>
<g><path style="opacity:1" fill="#3c3b3c" d="M 150.5,57.5 C 150.5,57.8333 150.5,58.1667 150.5,58.5C 149.167,58.5 147.833,58.5 146.5,58.5C 146.828,70.6783 146.495,82.6783 145.5,94.5C 145.5,82.5 145.5,70.5 145.5,58.5C 146.919,57.5489 148.585,57.2155 150.5,57.5 Z"/></g>
<g><path style="opacity:1" fill="#2e2a2b" d="M 137.5,13.5 C 137.5,40.5 137.5,67.5 137.5,94.5C 140.167,94.5 142.833,94.5 145.5,94.5C 146.495,82.6783 146.828,70.6783 146.5,58.5C 147.833,58.5 149.167,58.5 150.5,58.5C 151.499,108.331 151.832,158.331 151.5,208.5C 151.5,209.167 151.167,209.5 150.5,209.5C 149.178,209.67 148.011,209.337 147,208.5C 146.797,204.579 146.297,200.745 145.5,197C 128.167,196.833 110.833,196.667 93.5,196.5C 75.8202,196.5 58.4869,197.167 41.5,198.5C 41.665,201.85 41.4983,205.183 41,208.5C 40.1841,209.823 39.0174,210.489 37.5,210.5C 37.2172,209.711 36.7172,209.044 36,208.5C 35.5,158.501 35.3333,108.501 35.5,58.5C 37.1439,58.2865 38.6439,58.6198 40,59.5C 40.1693,71.3405 40.6693,83.0072 41.5,94.5C 43.8333,94.5 46.1667,94.5 48.5,94.5C 48.5,67.5 48.5,40.5 48.5,13.5C 48.6107,12.8826 48.944,12.3826 49.5,12C 78.5,11.3333 107.5,11.3333 136.5,12C 137.056,12.3826 137.389,12.8826 137.5,13.5 Z"/></g>
<g><path style="opacity:1" fill="#939292" d="M 130.5,18.5 C 131.499,71.3307 131.832,124.331 131.5,177.5C 105.995,177.831 80.6612,177.498 55.5,176.5C 80.6722,176.831 105.672,176.498 130.5,175.5C 130.5,123.5 130.5,71.5 130.5,19.5C 130.5,19.1667 130.5,18.8333 130.5,18.5 Z"/></g>
<g><path style="opacity:1" fill="#fdfdfd" d="M 130.5,19.5 C 130.5,71.5 130.5,123.5 130.5,175.5C 105.833,175.5 81.1667,175.5 56.5,175.5C 56.5,123.5 56.5,71.5 56.5,19.5C 81.1667,19.5 105.833,19.5 130.5,19.5 Z"/></g>
<g><path style="opacity:1" fill="#e8e8e8" d="M 130.5,18.5 C 130.5,18.8333 130.5,19.1667 130.5,19.5C 105.833,19.5 81.1667,19.5 56.5,19.5C 56.5,71.5 56.5,123.5 56.5,175.5C 81.1667,175.5 105.833,175.5 130.5,175.5C 105.672,176.498 80.6722,176.831 55.5,176.5C 55.5,123.833 55.5,71.1667 55.5,18.5C 80.5,18.5 105.5,18.5 130.5,18.5 Z"/></g>
<g><path style="opacity:1" fill="#2f2c2d" d="M 105.5,84.5 C 105.615,82.0532 106.615,80.0532 108.5,78.5C 110.011,74.3274 112.845,72.9941 117,74.5C 117.667,75.8333 117.667,77.1667 117,78.5C 114.833,80.6667 112.667,82.8333 110.5,85C 108.613,85.7796 106.946,85.6129 105.5,84.5 Z"/></g>
<g><path style="opacity:1" fill="#7c7b7c" d="M 35.5,58.5 C 37.2232,57.193 39.0565,57.193 41,58.5C 41.4999,70.1619 41.6665,81.8286 41.5,93.5C 41.5,93.8333 41.5,94.1667 41.5,94.5C 40.6693,83.0072 40.1693,71.3405 40,59.5C 38.6439,58.6198 37.1439,58.2865 35.5,58.5 Z"/></g>
<g><path style="opacity:1" fill="#7f7e7e" d="M 108.5,78.5 C 106.615,80.0532 105.615,82.0532 105.5,84.5C 103.809,81.3362 104.809,79.3362 108.5,78.5 Z"/></g>
<g><path style="opacity:1" fill="#333031" d="M 86.5,75.5 C 91.0685,75.0826 92.5685,77.0826 91,81.5C 85.9409,85.9715 81.1076,90.6381 76.5,95.5C 71.9811,97.5875 70.1477,96.2542 71,91.5C 76.3697,86.298 81.5364,80.9647 86.5,75.5 Z"/></g>
<g><path style="opacity:1" fill="#bfbdbd" d="M 41.5,101.5 C 43.6074,100.532 45.9407,100.198 48.5,100.5C 48.5,127.5 48.5,154.5 48.5,181.5C 47.5022,155.339 47.1688,129.005 47.5,102.5C 45.7354,101.539 43.7354,101.205 41.5,101.5 Z"/></g>
<g><path style="opacity:1" fill="#9c9c9c" d="M 41.5,101.5 C 41.5,131.167 41.5,160.833 41.5,190.5C 75.8333,190.5 110.167,190.5 144.5,190.5C 144.5,160.833 144.5,131.167 144.5,101.5C 142.5,101.5 140.5,101.5 138.5,101.5C 138.5,128.167 138.5,154.833 138.5,181.5C 138.167,181.5 137.833,181.5 137.5,181.5C 137.5,154.5 137.5,127.5 137.5,100.5C 140.167,100.5 142.833,100.5 145.5,100.5C 145.5,130.833 145.5,161.167 145.5,191.5C 110.5,191.5 75.5,191.5 40.5,191.5C 40.1686,161.329 40.5019,131.329 41.5,101.5 Z"/></g>
<g><path style="opacity:1" fill="#312e2f" d="M 70.5,122.5 C 69.7822,120.863 69.6155,119.197 70,117.5C 71.7073,115.963 73.2073,114.296 74.5,112.5C 80.7801,105.218 87.4468,98.2178 94.5,91.5C 99.0189,89.4125 100.852,90.7458 100,95.5C 91.1667,104.333 82.3333,113.167 73.5,122C 72.552,122.483 71.552,122.649 70.5,122.5 Z"/></g>
<g><path style="opacity:1" fill="#2f2b2c" d="M 115.5,103.5 C 111.5,106.833 107.833,110.5 104.5,114.5C 102.462,116.532 100.129,118.198 97.5,119.5C 94.7536,118.904 93.9202,117.237 95,114.5C 100.015,109.652 104.848,104.652 109.5,99.5C 113.301,97.9536 115.301,99.287 115.5,103.5 Z"/></g>
<g><path style="opacity:1" fill="#4b4a4b" d="M 35.5,58.5 C 35.3333,108.501 35.5,158.501 36,208.5C 36.7172,209.044 37.2172,209.711 37.5,210.5C 36.5041,210.586 35.6708,210.252 35,209.5C 34.1683,158.998 34.335,108.665 35.5,58.5 Z"/></g>
<g><path style="opacity:1" fill="#eeeeee" d="M 41.5,101.5 C 43.7354,101.205 45.7354,101.539 47.5,102.5C 45.8333,102.5 44.1667,102.5 42.5,102.5C 42.5,131.5 42.5,160.5 42.5,189.5C 76.1667,189.5 109.833,189.5 143.5,189.5C 143.5,160.5 143.5,131.5 143.5,102.5C 142.167,102.5 140.833,102.5 139.5,102.5C 139.831,129.005 139.498,155.339 138.5,181.5C 138.5,154.833 138.5,128.167 138.5,101.5C 140.5,101.5 142.5,101.5 144.5,101.5C 144.5,131.167 144.5,160.833 144.5,190.5C 110.167,190.5 75.8333,190.5 41.5,190.5C 41.5,160.833 41.5,131.167 41.5,101.5 Z"/></g>
<g><path style="opacity:1" fill="#f8f8f8" d="M 47.5,102.5 C 47.1688,129.005 47.5022,155.339 48.5,181.5C 63.1126,182.817 77.9459,183.484 93,183.5C 107.5,183.333 122,183.167 136.5,183C 137.056,182.617 137.389,182.117 137.5,181.5C 137.833,181.5 138.167,181.5 138.5,181.5C 139.498,155.339 139.831,129.005 139.5,102.5C 140.833,102.5 142.167,102.5 143.5,102.5C 143.5,131.5 143.5,160.5 143.5,189.5C 109.833,189.5 76.1667,189.5 42.5,189.5C 42.5,160.5 42.5,131.5 42.5,102.5C 44.1667,102.5 45.8333,102.5 47.5,102.5 Z"/></g>
<g><path style="opacity:1" fill="#6e6b6c" d="M 74.5,112.5 C 73.2073,114.296 71.7073,115.963 70,117.5C 69.6155,119.197 69.7822,120.863 70.5,122.5C 68.5589,120.989 68.0589,118.989 69,116.5C 70.451,114.536 72.2843,113.203 74.5,112.5 Z"/></g>
<g><path style="opacity:1" fill="#bdbbbc" d="M 115.5,103.5 C 112.833,108.167 109.167,111.833 104.5,114.5C 107.833,110.5 111.5,106.833 115.5,103.5 Z"/></g>
<g><path style="opacity:1" fill="#5c5959" d="M 150.5,209.5 C 148.511,210.887 146.678,210.553 145,208.5C 144.502,205.183 144.335,201.85 144.5,198.5C 110.167,198.5 75.8333,198.5 41.5,198.5C 58.4869,197.167 75.8202,196.5 93.5,196.5C 110.833,196.667 128.167,196.833 145.5,197C 146.297,200.745 146.797,204.579 147,208.5C 148.011,209.337 149.178,209.67 150.5,209.5 Z"/></g>
</svg>
