<?xml version="1.0" encoding="UTF-8"?>
<!DOCTYPE svg PUBLIC "-//W3C//DTD SVG 1.1//EN" "http://www.w3.org/Graphics/SVG/1.1/DTD/svg11.dtd">
<svg xmlns="http://www.w3.org/2000/svg" version="1.1" width="192px" height="184px" style="shape-rendering:geometricPrecision; text-rendering:geometricPrecision; image-rendering:optimizeQuality; fill-rule:evenodd; clip-rule:evenodd" xmlns:xlink="http://www.w3.org/1999/xlink">
<g><path style="opacity:1" fill="#fdfdfd" d="M -0.5,-0.5 C 63.5,-0.5 127.5,-0.5 191.5,-0.5C 191.5,60.8333 191.5,122.167 191.5,183.5C 127.5,183.5 63.5,183.5 -0.5,183.5C -0.5,122.167 -0.5,60.8333 -0.5,-0.5 Z"/></g>
<g><path style="opacity:1" fill="#202025" d="M 64.5,131.5 C 63.7785,144.358 63.1118,157.358 62.5,170.5C 59.1595,177.105 53.8262,179.271 46.5,177C 41.7327,174.633 39.066,170.8 38.5,165.5C 38.5,153.833 38.5,142.167 38.5,130.5C 36.1667,130.5 33.8333,130.5 31.5,130.5C 24.254,128.031 19.754,123.031 18,115.5C 17.5,85.8352 17.3334,56.1685 17.5,26.5C 15.1667,26.5 12.8333,26.5 10.5,26.5C 10.189,19.9102 10.5223,13.4102 11.5,7C 65.5,6.33333 119.5,6.33333 173.5,7C 174.478,13.4102 174.811,19.9102 174.5,26.5C 172.167,26.5 169.833,26.5 167.5,26.5C 167.667,56.1685 167.5,85.8352 167,115.5C 164.197,125.986 157.364,131.319 146.5,131.5C 146.667,144.171 146.5,156.838 146,169.5C 140.927,177.858 134.094,179.692 125.5,175C 123.877,172.92 122.377,170.754 121,168.5C 120.5,156.171 120.333,143.838 120.5,131.5C 101.833,131.5 83.1667,131.5 64.5,131.5 Z"/></g>
<g><path style="opacity:1" fill="#dcdce0" d="M 168.5,21.5 C 168.5,18.5 168.5,15.5 168.5,12.5C 117.833,12.5 67.1667,12.5 16.5,12.5C 16.5,15.5 16.5,18.5 16.5,21.5C 15.5206,18.3752 15.1872,15.0419 15.5,11.5C 66.8333,11.5 118.167,11.5 169.5,11.5C 169.813,15.0419 169.479,18.3752 168.5,21.5 Z"/></g>
<g><path style="opacity:1" fill="#fdfefe" d="M 168.5,21.5 C 117.833,21.5 67.1667,21.5 16.5,21.5C 16.5,18.5 16.5,15.5 16.5,12.5C 67.1667,12.5 117.833,12.5 168.5,12.5C 168.5,15.5 168.5,18.5 168.5,21.5 Z"/></g>
<g><path style="opacity:1" fill="#bab9bc" d="M 22.5,26.5 C 69.1667,26.5 115.833,26.5 162.5,26.5C 162.5,42.1667 162.5,57.8333 162.5,73.5C 115.833,73.5 69.1667,73.5 22.5,73.5C 22.5,57.8333 22.5,42.1667 22.5,26.5 Z"/></g>
<g><path style="opacity:1" fill="#fefefe" d="M 23.5,27.5 C 69.5,27.5 115.5,27.5 161.5,27.5C 161.5,42.5 161.5,57.5 161.5,72.5C 115.5,72.5 69.5,72.5 23.5,72.5C 23.5,57.5 23.5,42.5 23.5,27.5 Z"/></g>
<g><path style="opacity:1" fill="#222127" d="M 87.5,38.5 C 99.3471,36.8548 104.847,41.8548 104,53.5C 100.628,60.4329 95.1282,62.9329 87.5,61C 80.6574,56.8002 78.824,50.9669 82,43.5C 83.7297,41.5981 85.563,39.9314 87.5,38.5 Z"/></g>
<g><path style="opacity:1" fill="#f5f5f6" d="M 89.5,43.5 C 99.7797,43.8897 101.78,48.0564 95.5,56C 88.4971,57.3271 85.3304,54.4938 86,47.5C 86.6897,45.6498 87.8564,44.3164 89.5,43.5 Z"/></g>
<g><path style="opacity:1" fill="#fcfcfc" d="M 22.5,78.5 C 69.1667,78.5 115.833,78.5 162.5,78.5C 162.667,90.8378 162.5,103.171 162,115.5C 159.635,121.202 155.469,124.702 149.5,126C 110.833,126.667 72.1667,126.667 33.5,126C 27.8428,124.217 24.3428,120.384 23,114.5C 22.5001,102.505 22.3335,90.5046 22.5,78.5 Z"/></g>
<g><path style="opacity:1" fill="#232328" d="M 89.5,90.5 C 100.696,90.8561 105.529,96.5228 104,107.5C 100.345,114.07 94.8449,116.237 87.5,114C 80.6574,109.8 78.824,103.967 82,96.5C 84.1141,93.8792 86.6141,91.8792 89.5,90.5 Z"/></g>
<g><path style="opacity:1" fill="#f2f2f3" d="M 88.5,96.5 C 92.4006,95.8571 95.734,96.8571 98.5,99.5C 100.326,103.526 99.3257,106.693 95.5,109C 88.4971,110.327 85.3304,107.494 86,100.5C 86.6622,99.0161 87.4955,97.6828 88.5,96.5 Z"/></g>
<g><path style="opacity:1" fill="#f6f6f7" d="M 43.5,131.5 C 48.8333,131.5 54.1667,131.5 59.5,131.5C 59.6665,143.171 59.4999,154.838 59,166.5C 56.983,171.924 53.1497,173.758 47.5,172C 45.9512,170.786 44.7845,169.286 44,167.5C 43.5001,155.505 43.3335,143.505 43.5,131.5 Z"/></g>
<g><path style="opacity:1" fill="#6f6e72" d="M 64.5,131.5 C 64.6665,143.838 64.4999,156.171 64,168.5C 63.7216,169.416 63.2216,170.082 62.5,170.5C 63.1118,157.358 63.7785,144.358 64.5,131.5 Z"/></g>
<g><path style="opacity:1" fill="#fafafb" d="M 126.5,131.5 C 131.5,131.5 136.5,131.5 141.5,131.5C 141.667,143.171 141.5,154.838 141,166.5C 139.02,171.906 135.186,173.739 129.5,172C 128.299,171.097 127.465,169.931 127,168.5C 126.5,156.171 126.333,143.838 126.5,131.5 Z"/></g>
<g><path style="opacity:1" fill="#a0a0a0" d="M 31.5,130.5 C 33.8333,130.5 36.1667,130.5 38.5,130.5C 38.5,142.167 38.5,153.833 38.5,165.5C 37.5052,154.346 37.1719,143.012 37.5,131.5C 35.2646,131.795 33.2646,131.461 31.5,130.5 Z"/></g>
</svg>
