<?xml version="1.0" encoding="UTF-8"?>
<!DOCTYPE svg PUBLIC "-//W3C//DTD SVG 1.1//EN" "http://www.w3.org/Graphics/SVG/1.1/DTD/svg11.dtd">
<svg xmlns="http://www.w3.org/2000/svg" version="1.1" width="216px" height="208px" style="shape-rendering:geometricPrecision; text-rendering:geometricPrecision; image-rendering:optimizeQuality; fill-rule:evenodd; clip-rule:evenodd" xmlns:xlink="http://www.w3.org/1999/xlink">
<g><path style="opacity:1" fill="#fcfcfc" d="M -0.5,-0.5 C 71.5,-0.5 143.5,-0.5 215.5,-0.5C 215.5,68.8333 215.5,138.167 215.5,207.5C 143.5,207.5 71.5,207.5 -0.5,207.5C -0.5,138.167 -0.5,68.8333 -0.5,-0.5 Z"/></g>
<g><path style="opacity:1" fill="#131313" d="M 142.5,81.5 C 141.275,86.2895 140.608,91.2895 140.5,96.5C 139.833,96.5 139.5,96.8333 139.5,97.5C 120.091,97.8203 100.757,97.487 81.5,96.5C 79.9879,91.0709 79.3213,85.4042 79.5,79.5C 79.4766,73.2882 78.8099,67.2882 77.5,61.5C 76.2053,56.5285 75.872,51.5285 76.5,46.5C 83.1419,45.6691 89.8085,45.1691 96.5,45C 99.9889,34.6877 106.989,31.3544 117.5,35C 121.654,37.1526 124.32,40.4859 125.5,45C 132.414,45.186 139.247,45.686 146,46.5C 145.363,58.2043 144.196,69.871 142.5,81.5 Z"/></g>
<g><path style="opacity:1" fill="#dadada" d="M 106.5,39.5 C 112.5,38.0257 116.5,40.0257 118.5,45.5C 113.5,45.5 108.5,45.5 103.5,45.5C 104.206,43.3284 105.206,41.3284 106.5,39.5 Z"/></g>
<g><path style="opacity:1" fill="#cacbca" d="M 139.5,58.5 C 138.116,63.9438 137.45,69.6105 137.5,75.5C 136.903,78.9412 136.237,82.2746 135.5,85.5C 135.785,75.0792 136.785,64.7459 138.5,54.5C 120.167,53.1667 101.833,53.1667 83.5,54.5C 84.7592,61.4259 85.4258,68.4259 85.5,75.5C 83.8518,67.7194 82.8518,59.7194 82.5,51.5C 101.5,51.5 120.5,51.5 139.5,51.5C 139.5,53.8333 139.5,56.1667 139.5,58.5 Z"/></g>
<g><path style="opacity:1" fill="#fcfdfc" d="M 135.5,85.5 C 134.549,86.9187 134.216,88.5853 134.5,90.5C 118.833,90.5 103.167,90.5 87.5,90.5C 87.7845,88.5853 87.4511,86.9187 86.5,85.5C 85.5206,82.3752 85.1872,79.0419 85.5,75.5C 85.4258,68.4259 84.7592,61.4259 83.5,54.5C 101.833,53.1667 120.167,53.1667 138.5,54.5C 136.785,64.7459 135.785,75.0792 135.5,85.5 Z"/></g>
<g><path style="opacity:1" fill="#474848" d="M 77.5,61.5 C 78.8099,67.2882 79.4766,73.2882 79.5,79.5C 78.0543,73.7263 77.3877,67.7263 77.5,61.5 Z"/></g>
<g><path style="opacity:1" fill="#3d3d3c" d="M 139.5,58.5 C 139.55,64.3895 138.884,70.0562 137.5,75.5C 137.45,69.6105 138.116,63.9438 139.5,58.5 Z"/></g>
<g><path style="opacity:1" fill="#d2d2d2" d="M 86.5,85.5 C 87.4511,86.9187 87.7845,88.5853 87.5,90.5C 103.167,90.5 118.833,90.5 134.5,90.5C 134.216,88.5853 134.549,86.9187 135.5,85.5C 135.5,87.5 135.5,89.5 135.5,91.5C 119.167,91.5 102.833,91.5 86.5,91.5C 86.5,89.5 86.5,87.5 86.5,85.5 Z"/></g>
<g><path style="opacity:1" fill="#8b8b8a" d="M 142.5,81.5 C 142.904,86.7831 142.238,91.7831 140.5,96.5C 140.608,91.2895 141.275,86.2895 142.5,81.5 Z"/></g>
<g><path style="opacity:1" fill="#999999" d="M 81.5,96.5 C 100.757,97.487 120.091,97.8203 139.5,97.5C 130.006,98.1665 120.339,98.4998 110.5,98.5C 100.476,98.4985 90.8095,97.8318 81.5,96.5 Z"/></g>
<g><path style="opacity:1" fill="#303030" d="M 152.5,106.5 C 125.167,106.5 97.8333,106.5 70.5,106.5C 70.366,108.292 70.6993,109.958 71.5,111.5C 68.8872,110.608 68.2205,108.941 69.5,106.5C 97.3304,105.171 124.997,105.171 152.5,106.5 Z"/></g>
<g><path style="opacity:1" fill="#0e0e0e" d="M 152.5,106.5 C 152.938,110.908 150.938,112.575 146.5,111.5C 145.993,115.86 145.327,120.193 144.5,124.5C 140.628,129.882 136.128,134.882 131,139.5C 130.721,143.7 131.221,147.7 132.5,151.5C 133.645,156.704 134.311,162.037 134.5,167.5C 134.5,171.5 134.5,175.5 134.5,179.5C 119.676,180.496 104.676,180.829 89.5,180.5C 88.7814,178.236 88.448,175.903 88.5,173.5C 90.573,162.585 91.7396,151.585 92,140.5C 82.3499,133.2 76.8499,123.534 75.5,111.5C 74.1667,111.5 72.8333,111.5 71.5,111.5C 70.6993,109.958 70.366,108.292 70.5,106.5C 97.8333,106.5 125.167,106.5 152.5,106.5 Z"/></g>
<g><path style="opacity:1" fill="#c8c8c8" d="M 139.5,114.5 C 130.358,113.168 120.858,112.502 111,112.5C 101.142,112.502 91.6424,113.168 82.5,114.5C 81.596,113.791 81.2627,112.791 81.5,111.5C 101.167,111.5 120.833,111.5 140.5,111.5C 140.737,112.791 140.404,113.791 139.5,114.5 Z"/></g>
<g><path style="opacity:1" fill="#f8f8f8" d="M 139.5,114.5 C 138.962,122.198 135.629,128.365 129.5,133C 126.408,134.546 123.408,136.046 120.5,137.5C 115.195,138.194 109.862,138.528 104.5,138.5C 91.9554,135.288 84.6221,127.288 82.5,114.5C 91.6424,113.168 101.142,112.502 111,112.5C 120.858,112.502 130.358,113.168 139.5,114.5 Z"/></g>
<g><path style="opacity:1" fill="#cacaca" d="M 144.5,124.5 C 143.77,127.618 142.77,130.618 141.5,133.5C 138.521,135.092 135.688,137.092 133,139.5C 132.501,143.486 132.334,147.486 132.5,151.5C 131.221,147.7 130.721,143.7 131,139.5C 136.128,134.882 140.628,129.882 144.5,124.5 Z"/></g>
<g><path style="opacity:1" fill="#919191" d="M 120.5,137.5 C 117.644,139.006 114.477,139.672 111,139.5C 108.639,139.496 106.473,139.163 104.5,138.5C 109.862,138.528 115.195,138.194 120.5,137.5 Z"/></g>
<g><path style="opacity:1" fill="#858585" d="M 118.5,144.5 C 112.355,145.49 106.022,145.823 99.5,145.5C 99.7373,146.791 99.404,147.791 98.5,148.5C 98.0101,146.052 98.8434,144.385 101,143.5C 106.785,144.434 112.618,144.768 118.5,144.5 Z"/></g>
<g><path style="opacity:1" fill="#f9f9f9" d="M 126.5,154.5 C 126.605,160.901 127.272,167.234 128.5,173.5C 117.5,173.5 106.5,173.5 95.5,173.5C 95.5,171.5 95.5,169.5 95.5,167.5C 96.7334,161.333 97.7334,155 98.5,148.5C 99.404,147.791 99.7373,146.791 99.5,145.5C 106.022,145.823 112.355,145.49 118.5,144.5C 120.265,143.539 122.265,143.205 124.5,143.5C 124.931,147.337 125.598,151.003 126.5,154.5 Z"/></g>
<g><path style="opacity:1" fill="#989898" d="M 126.5,154.5 C 127.978,160.962 128.978,167.628 129.5,174.5C 117.833,174.5 106.167,174.5 94.5,174.5C 94.1984,171.941 94.5318,169.607 95.5,167.5C 95.5,169.5 95.5,171.5 95.5,173.5C 106.5,173.5 117.5,173.5 128.5,173.5C 127.272,167.234 126.605,160.901 126.5,154.5 Z"/></g>
<g><path style="opacity:1" fill="#7a7a7a" d="M 88.5,173.5 C 88.448,175.903 88.7814,178.236 89.5,180.5C 88.0069,179.688 87.3402,178.355 87.5,176.5C 87.5195,175.274 87.8529,174.274 88.5,173.5 Z"/></g>
<g><path style="opacity:1" fill="#444444" d="M 134.5,167.5 C 135.343,170.326 136.009,173.326 136.5,176.5C 136.547,178.038 135.88,179.038 134.5,179.5C 134.5,175.5 134.5,171.5 134.5,167.5 Z"/></g>
</svg>
