<?xml version="1.0" encoding="UTF-8"?>
<!DOCTYPE svg PUBLIC "-//W3C//DTD SVG 1.1//EN" "http://www.w3.org/Graphics/SVG/1.1/DTD/svg11.dtd">
<svg xmlns="http://www.w3.org/2000/svg" version="1.1" width="216px" height="208px" style="shape-rendering:geometricPrecision; text-rendering:geometricPrecision; image-rendering:optimizeQuality; fill-rule:evenodd; clip-rule:evenodd" xmlns:xlink="http://www.w3.org/1999/xlink">
<g><path style="opacity:1" fill="#fdfdfd" d="M -0.5,-0.5 C 71.5,-0.5 143.5,-0.5 215.5,-0.5C 215.5,68.8333 215.5,138.167 215.5,207.5C 143.5,207.5 71.5,207.5 -0.5,207.5C -0.5,138.167 -0.5,68.8333 -0.5,-0.5 Z"/></g>
<g><path style="opacity:1" fill="#b8b8b7" d="M 165.5,58.5 C 125.428,58.1729 85.4275,58.5062 45.5,59.5C 46.5893,57.8829 48.256,57.0496 50.5,57C 69.6667,56.8333 88.8333,56.6667 108,56.5C 127.512,56.5004 146.678,57.167 165.5,58.5 Z"/></g>
<g><path style="opacity:1" fill="#202020" d="M 165.5,58.5 C 167.099,58.2322 168.432,58.5655 169.5,59.5C 128.832,59.3333 88.1653,59.5 47.5,60C 44.084,61.5814 41.084,63.7481 38.5,66.5C 39.8333,63.1667 42.1667,60.8333 45.5,59.5C 85.4275,58.5062 125.428,58.1729 165.5,58.5 Z"/></g>
<g><path style="opacity:1" fill="#101010" d="M 169.5,59.5 C 174.068,61.4022 177.735,64.4022 180.5,68.5C 180.333,80.5046 180.5,92.5046 181,104.5C 183.041,105.423 185.208,105.756 187.5,105.5C 189.754,106.415 191.754,107.748 193.5,109.5C 193.987,110.473 194.487,111.473 195,112.5C 195.667,121.167 195.667,129.833 195,138.5C 194.768,139.737 194.268,140.737 193.5,141.5C 191.567,143.596 189.233,145.096 186.5,146C 180.175,146.5 173.842,146.666 167.5,146.5C 167.5,151.167 167.5,155.833 167.5,160.5C 165.167,163.167 162.833,163.167 160.5,160.5C 160.5,155.833 160.5,151.167 160.5,146.5C 125.663,146.168 90.996,146.502 56.5,147.5C 56.6657,151.846 56.499,156.179 56,160.5C 54.3796,162.632 52.5463,162.965 50.5,161.5C 51.1083,156.056 50.4417,151.056 48.5,146.5C 41.1239,146.726 33.7906,146.392 26.5,145.5C 25.5948,143.089 24.0948,141.089 22,139.5C 21.3333,130.5 21.3333,121.5 22,112.5C 22.9793,110.032 24.4793,108.032 26.5,106.5C 29.4282,106.435 32.0948,105.768 34.5,104.5C 36.4791,92.8799 37.1458,80.8799 36.5,68.5C 37.1667,67.8333 37.8333,67.1667 38.5,66.5C 41.084,63.7481 44.084,61.5814 47.5,60C 88.1653,59.5 128.832,59.3333 169.5,59.5 Z"/></g>
<g><path style="opacity:1" fill="#d6d6d6" d="M 169.5,67.5 C 130.179,66.382 90.8456,66.2153 51.5,67C 49.8455,67.6077 48.1789,68.1077 46.5,68.5C 47.0577,67.2101 48.0577,66.3768 49.5,66C 88.5,65.3333 127.5,65.3333 166.5,66C 167.737,66.2321 168.737,66.7321 169.5,67.5 Z"/></g>
<g><path style="opacity:1" fill="#fbfbfb" d="M 169.5,67.5 C 169.5,68.1667 169.833,68.5 170.5,68.5C 172.714,79.7215 173.048,91.0548 171.5,102.5C 170.649,99.5414 169.982,96.5414 169.5,93.5C 169.253,92.2867 168.586,91.62 167.5,91.5C 166.078,90.075 164.411,89.075 162.5,88.5C 155.364,87.1692 147.864,86.5025 140,86.5C 132.326,86.5003 124.826,86.8336 117.5,87.5C 117.158,88.3382 116.492,88.6716 115.5,88.5C 113.871,89.6253 112.371,90.9586 111,92.5C 110.501,96.1516 110.335,99.8183 110.5,103.5C 109.167,103.5 107.833,103.5 106.5,103.5C 106.813,99.9581 106.479,96.6248 105.5,93.5C 104.089,91.086 102.089,89.4194 99.5,88.5C 92.3644,87.1692 84.8644,86.5025 77,86.5C 69.5,86.6667 62,86.8333 54.5,87C 53.944,87.3826 53.6107,87.8826 53.5,88.5C 51.2475,88.9156 49.7475,90.249 49,92.5C 48.5012,96.4862 48.3345,100.486 48.5,104.5C 46.8333,104.5 45.1667,104.5 43.5,104.5C 43.3335,93.495 43.5002,82.495 44,71.5C 44.3768,70.0577 45.2101,69.0577 46.5,68.5C 48.1789,68.1077 49.8455,67.6077 51.5,67C 90.8456,66.2153 130.179,66.382 169.5,67.5 Z"/></g>
<g><path style="opacity:1" fill="#999999" d="M 36.5,68.5 C 37.1458,80.8799 36.4791,92.8799 34.5,104.5C 33.1667,104.5 31.8333,104.5 30.5,104.5C 31.5676,103.566 32.901,103.232 34.5,103.5C 34.3335,93.4944 34.5002,83.4944 35,73.5C 35.1981,71.6183 35.6981,69.9516 36.5,68.5 Z"/></g>
<g><path style="opacity:1" fill="#646464" d="M 180.5,68.5 C 181.404,69.209 181.737,70.209 181.5,71.5C 181.333,82.1719 181.5,92.8385 182,103.5C 183.948,104.109 185.782,104.776 187.5,105.5C 185.208,105.756 183.041,105.423 181,104.5C 180.5,92.5046 180.333,80.5046 180.5,68.5 Z"/></g>
<g><path style="opacity:1" fill="#dedede" d="M 181.5,71.5 C 183.153,81.4674 184.153,91.8007 184.5,102.5C 189.601,102.279 192.601,104.613 193.5,109.5C 191.754,107.748 189.754,106.415 187.5,105.5C 185.782,104.776 183.948,104.109 182,103.5C 181.5,92.8385 181.333,82.1719 181.5,71.5 Z"/></g>
<g><path style="opacity:1" fill="#b0b0b0" d="M 99.5,88.5 C 84.1667,87.1667 68.8333,87.1667 53.5,88.5C 53.6107,87.8826 53.944,87.3826 54.5,87C 62,86.8333 69.5,86.6667 77,86.5C 84.8644,86.5025 92.3644,87.1692 99.5,88.5 Z"/></g>
<g><path style="opacity:1" fill="#b1b1b1" d="M 117.5,87.5 C 124.826,86.8336 132.326,86.5003 140,86.5C 147.864,86.5025 155.364,87.1692 162.5,88.5C 147.548,87.5322 132.548,87.1988 117.5,87.5 Z"/></g>
<g><path style="opacity:1" fill="#dcdcdc" d="M 170.5,68.5 C 171.458,68.9528 172.292,69.6195 173,70.5C 173.5,81.8284 173.667,93.1618 173.5,104.5C 171.833,104.5 170.167,104.5 168.5,104.5C 168.769,100.069 168.436,95.7352 167.5,91.5C 168.586,91.62 169.253,92.2867 169.5,93.5C 169.982,96.5414 170.649,99.5414 171.5,102.5C 173.048,91.0548 172.714,79.7215 170.5,68.5 Z"/></g>
<g><path style="opacity:1" fill="#9d9d9d" d="M 115.5,88.5 C 114.969,90.5441 113.802,92.2107 112,93.5C 111.501,97.1516 111.335,100.818 111.5,104.5C 109.5,104.5 107.5,104.5 105.5,104.5C 105.5,100.833 105.5,97.1667 105.5,93.5C 106.479,96.6248 106.813,99.9581 106.5,103.5C 107.833,103.5 109.167,103.5 110.5,103.5C 110.335,99.8183 110.501,96.1516 111,92.5C 112.371,90.9586 113.871,89.6253 115.5,88.5 Z"/></g>
<g><path style="opacity:1" fill="#b7b7b6" d="M 56.5,95.5 C 56.5,98.1667 56.5,100.833 56.5,103.5C 70.1667,103.5 83.8333,103.5 97.5,103.5C 97.5,100.833 97.5,98.1667 97.5,95.5C 98.4767,98.2869 98.81,101.287 98.5,104.5C 84.1667,104.5 69.8333,104.5 55.5,104.5C 55.19,101.287 55.5233,98.2869 56.5,95.5 Z"/></g>
<g><path style="opacity:1" fill="#f8f8f7" d="M 56.5,95.5 C 70.1667,95.5 83.8333,95.5 97.5,95.5C 97.5,98.1667 97.5,100.833 97.5,103.5C 83.8333,103.5 70.1667,103.5 56.5,103.5C 56.5,100.833 56.5,98.1667 56.5,95.5 Z"/></g>
<g><path style="opacity:1" fill="#b8b8b8" d="M 119.5,95.5 C 119.5,98.1667 119.5,100.833 119.5,103.5C 133.167,103.5 146.833,103.5 160.5,103.5C 160.5,100.833 160.5,98.1667 160.5,95.5C 161.477,98.2869 161.81,101.287 161.5,104.5C 147.167,104.5 132.833,104.5 118.5,104.5C 118.19,101.287 118.523,98.2869 119.5,95.5 Z"/></g>
<g><path style="opacity:1" fill="#f8f8f8" d="M 119.5,95.5 C 133.167,95.5 146.833,95.5 160.5,95.5C 160.5,98.1667 160.5,100.833 160.5,103.5C 146.833,103.5 133.167,103.5 119.5,103.5C 119.5,100.833 119.5,98.1667 119.5,95.5 Z"/></g>
<g><path style="opacity:1" fill="#4a4a4a" d="M 30.5,104.5 C 31.8333,104.5 33.1667,104.5 34.5,104.5C 32.0948,105.768 29.4282,106.435 26.5,106.5C 27.5137,105.326 28.847,104.66 30.5,104.5 Z"/></g>
<g><path style="opacity:1" fill="#1e1e1d" d="M 31.5,111.5 C 57.1645,110.833 82.9978,110.5 109,110.5C 135.175,110.5 161.009,111.167 186.5,112.5C 186.167,112.5 185.833,112.5 185.5,112.5C 134.336,111.501 83.0027,111.168 31.5,111.5 Z"/></g>
<g><path style="opacity:1" fill="#9f9f9f" d="M 31.5,111.5 C 83.0027,111.168 134.336,111.501 185.5,112.5C 134.166,112.333 82.8323,112.5 31.5,113C 30.944,113.383 30.6107,113.883 30.5,114.5C 29.5084,121.648 29.175,128.981 29.5,136.5C 28.3443,129.011 28.1777,121.345 29,113.5C 29.7083,112.619 30.5416,111.953 31.5,111.5 Z"/></g>
<g><path style="opacity:1" fill="#fcfcfb" d="M 185.5,112.5 C 185.833,112.5 186.167,112.5 186.5,112.5C 188.764,120.716 189.097,129.05 187.5,137.5C 186.609,138.11 185.609,138.443 184.5,138.5C 133.499,138.667 82.4989,138.5 31.5,138C 30.5183,130.253 30.185,122.42 30.5,114.5C 30.6107,113.883 30.944,113.383 31.5,113C 82.8323,112.5 134.166,112.333 185.5,112.5 Z"/></g>
<g><path style="opacity:1" fill="#babab9" d="M 30.5,114.5 C 30.185,122.42 30.5183,130.253 31.5,138C 82.4989,138.5 133.499,138.667 184.5,138.5C 159.509,139.833 134.176,140.5 108.5,140.5C 82.7622,140.496 57.0955,140.162 31.5,139.5C 30.0937,139.027 29.427,138.027 29.5,136.5C 29.175,128.981 29.5084,121.648 30.5,114.5 Z"/></g>
<g><path style="opacity:1" fill="#1a1a19" d="M 187.5,137.5 C 187.279,138.735 186.612,139.735 185.5,140.5C 159.833,140.833 134.167,141.167 108.5,141.5C 82.4912,141.5 56.8245,140.833 31.5,139.5C 57.0955,140.162 82.7622,140.496 108.5,140.5C 134.176,140.5 159.509,139.833 184.5,138.5C 185.609,138.443 186.609,138.11 187.5,137.5 Z"/></g>
<g><path style="opacity:1" fill="#727271" d="M 26.5,145.5 C 33.7906,146.392 41.1239,146.726 48.5,146.5C 48.5,146.833 48.5,147.167 48.5,147.5C 41.825,147.666 35.1583,147.5 28.5,147C 27.5842,146.722 26.9175,146.222 26.5,145.5 Z"/></g>
<g><path style="opacity:1" fill="#6d6d6c" d="M 56.5,147.5 C 90.996,146.502 125.663,146.168 160.5,146.5C 160.5,151.167 160.5,155.833 160.5,160.5C 159.515,156.366 159.182,152.032 159.5,147.5C 125.167,147.5 90.8333,147.5 56.5,147.5 Z"/></g>
<g><path style="opacity:1" fill="#7d7d7d" d="M 193.5,141.5 C 192.746,144.091 191.079,145.924 188.5,147C 181.842,147.5 175.175,147.666 168.5,147.5C 168.818,152.032 168.485,156.366 167.5,160.5C 167.5,155.833 167.5,151.167 167.5,146.5C 173.842,146.666 180.175,146.5 186.5,146C 189.233,145.096 191.567,143.596 193.5,141.5 Z"/></g>
<g><path style="opacity:1" fill="#515150" d="M 48.5,146.5 C 50.4417,151.056 51.1083,156.056 50.5,161.5C 49.8826,161.389 49.3826,161.056 49,160.5C 48.501,156.179 48.3343,151.846 48.5,147.5C 48.5,147.167 48.5,146.833 48.5,146.5 Z"/></g>
</svg>
