<?xml version="1.0" encoding="UTF-8"?>
<!DOCTYPE svg PUBLIC "-//W3C//DTD SVG 1.1//EN" "http://www.w3.org/Graphics/SVG/1.1/DTD/svg11.dtd">
<svg xmlns="http://www.w3.org/2000/svg" version="1.1" width="216px" height="208px" style="shape-rendering:geometricPrecision; text-rendering:geometricPrecision; image-rendering:optimizeQuality; fill-rule:evenodd; clip-rule:evenodd" xmlns:xlink="http://www.w3.org/1999/xlink">
<g><path style="opacity:0.992" fill="#fdfdfd" d="M -0.5,17.5 C 71.5,17.5 143.5,17.5 215.5,17.5C 215.5,74.8333 215.5,132.167 215.5,189.5C 143.5,189.5 71.5,189.5 -0.5,189.5C -0.5,132.167 -0.5,74.8333 -0.5,17.5 Z"/></g>
<g><path style="opacity:1" fill="#151515" d="M 41.5,30.5 C 66.1667,30.5 90.8333,30.5 115.5,30.5C 115.5,44.8333 115.5,59.1667 115.5,73.5C 104.833,73.5 94.1667,73.5 83.5,73.5C 83.5,75.5 83.5,77.5 83.5,79.5C 87.3714,79.185 91.0381,79.5184 94.5,80.5C 83.6794,81.4946 72.6794,81.8279 61.5,81.5C 64.6843,79.5864 68.351,78.9197 72.5,79.5C 72.5,77.5 72.5,75.5 72.5,73.5C 62.3468,72.5058 52.0135,72.1724 41.5,72.5C 41.5,58.5 41.5,44.5 41.5,30.5 Z"/></g>
<g><path style="opacity:1" fill="#fefefe" d="M 44.5,33.5 C 66.8333,33.5 89.1667,33.5 111.5,33.5C 111.5,44.8333 111.5,56.1667 111.5,67.5C 89.1667,67.5 66.8333,67.5 44.5,67.5C 44.5,56.1667 44.5,44.8333 44.5,33.5 Z"/></g>
<g><path style="opacity:1" fill="#0f0f0f" d="M 169.5,79.5 C 166.062,80.8232 162.229,81.4898 158,81.5C 153.771,81.4898 149.938,80.8232 146.5,79.5C 146.953,78.5416 147.619,77.7083 148.5,77C 150.698,76.6271 152.865,76.1271 155,75.5C 157.434,76.3223 159.934,76.6556 162.5,76.5C 163.981,69.9072 164.481,63.2405 164,56.5C 161.279,50.0553 156.445,46.3886 149.5,45.5C 150.59,49.8601 150.59,54.1935 149.5,58.5C 149,58.8333 148.5,59.1667 148,59.5C 146.022,58.0944 143.855,57.0944 141.5,56.5C 139.882,54.684 137.882,53.3507 135.5,52.5C 131.314,51.8786 130.148,49.8786 132,46.5C 134.344,44.2256 137.178,43.0589 140.5,43C 143.765,38.6345 147.098,38.4679 150.5,42.5C 167.166,48.1201 171.832,59.1201 164.5,75.5C 166.772,76.1342 168.439,77.4676 169.5,79.5 Z"/></g>
<g><path style="opacity:1" fill="#9b9b9b" d="M 135.5,52.5 C 137.882,53.3507 139.882,54.684 141.5,56.5C 139.83,56.2488 138.33,55.5822 137,54.5C 136.601,54.7284 136.435,55.0618 136.5,55.5C 135.596,54.791 135.263,53.791 135.5,52.5 Z"/></g>
<g><path style="opacity:1" fill="#333333" d="M 141.5,56.5 C 139.545,57.9302 137.879,57.5969 136.5,55.5C 136.435,55.0618 136.601,54.7284 137,54.5C 138.33,55.5822 139.83,56.2488 141.5,56.5 Z"/></g>
<g><path style="opacity:1" fill="#868686" d="M 44.5,33.5 C 44.5,44.8333 44.5,56.1667 44.5,67.5C 66.8333,67.5 89.1667,67.5 111.5,67.5C 89.0061,68.4975 66.3395,68.8308 43.5,68.5C 43.1717,56.6547 43.5051,44.988 44.5,33.5 Z"/></g>
<g><path style="opacity:1" fill="#262626" d="M 41.5,30.5 C 41.5,44.5 41.5,58.5 41.5,72.5C 52.0135,72.1724 62.3468,72.5058 72.5,73.5C 61.8333,73.5 51.1667,73.5 40.5,73.5C 40.1707,58.9903 40.5041,44.6569 41.5,30.5 Z"/></g>
<g><path style="opacity:1" fill="#c3c3c3" d="M 146.5,79.5 C 149.938,80.8232 153.771,81.4898 158,81.5C 162.229,81.4898 166.062,80.8232 169.5,79.5C 170.404,80.209 170.737,81.209 170.5,82.5C 175.695,82.1795 180.695,82.5128 185.5,83.5C 133.167,83.5 80.8333,83.5 28.5,83.5C 39.5,82.8333 50.5,82.1667 61.5,81.5C 72.6794,81.8279 83.6794,81.4946 94.5,80.5C 111.262,82.4637 128.262,83.1304 145.5,82.5C 145.263,81.209 145.596,80.209 146.5,79.5 Z"/></g>
<g><path style="opacity:1" fill="#080808" d="M 28.5,83.5 C 80.8333,83.5 133.167,83.5 185.5,83.5C 190.32,86.2607 190.653,89.4274 186.5,93C 184.19,93.4966 181.857,93.6633 179.5,93.5C 179.5,118.833 179.5,144.167 179.5,169.5C 176.833,169.5 174.167,169.5 171.5,169.5C 171.5,144.167 171.5,118.833 171.5,93.5C 128.663,93.168 85.9967,93.5013 43.5,94.5C 43.5,119.5 43.5,144.5 43.5,169.5C 40.6146,169.806 37.9479,169.473 35.5,168.5C 35.5,143.5 35.5,118.5 35.5,93.5C 33.1667,93.5 30.8333,93.5 28.5,93.5C 25.6676,91.5935 24.8343,88.9268 26,85.5C 26.7083,84.6195 27.5416,83.9528 28.5,83.5 Z"/></g>
<g><path style="opacity:1" fill="#939393" d="M 28.5,93.5 C 30.8333,93.5 33.1667,93.5 35.5,93.5C 35.5,118.5 35.5,143.5 35.5,168.5C 34.5023,144.006 34.169,119.339 34.5,94.5C 32.2646,94.7947 30.2646,94.4614 28.5,93.5 Z"/></g>
<g><path style="opacity:1" fill="#606060" d="M 43.5,94.5 C 85.9967,93.5013 128.663,93.168 171.5,93.5C 171.5,118.833 171.5,144.167 171.5,169.5C 170.502,144.672 170.169,119.672 170.5,94.5C 128.167,94.5 85.8333,94.5 43.5,94.5 Z"/></g>
<g><path style="opacity:1" fill="#090909" d="M 121.5,99.5 C 136.167,99.5 150.833,99.5 165.5,99.5C 165.805,104.762 165.471,109.928 164.5,115C 150.171,115.5 135.837,115.667 121.5,115.5C 121.5,110.167 121.5,104.833 121.5,99.5 Z"/></g>
<g><path style="opacity:1" fill="#e2e2e2" d="M 137.5,105.5 C 141.5,105.5 145.5,105.5 149.5,105.5C 149.5,106.5 149.5,107.5 149.5,108.5C 145.5,108.5 141.5,108.5 137.5,108.5C 137.5,107.5 137.5,106.5 137.5,105.5 Z"/></g>
<g><path style="opacity:1" fill="#0a0a0a" d="M 165.5,121.5 C 165.779,126.595 165.445,131.595 164.5,136.5C 150.167,136.5 135.833,136.5 121.5,136.5C 121.5,131.167 121.5,125.833 121.5,120.5C 136.343,120.171 151.01,120.504 165.5,121.5 Z"/></g>
<g><path style="opacity:1" fill="#b6b6b6" d="M 165.5,121.5 C 166.164,123.81 166.497,126.31 166.5,129C 166.475,131.929 165.809,134.429 164.5,136.5C 165.445,131.595 165.779,126.595 165.5,121.5 Z"/></g>
<g><path style="opacity:1" fill="#faf9f9" d="M 137.5,127.5 C 141.555,127.176 145.555,127.509 149.5,128.5C 147.5,128.833 145.5,129.167 143.5,129.5C 141.048,129.461 139.048,128.794 137.5,127.5 Z"/></g>
<g><path style="opacity:1" fill="#090909" d="M 122.5,141.5 C 136.504,141.333 150.504,141.5 164.5,142C 165.471,147.072 165.805,152.238 165.5,157.5C 150.833,157.5 136.167,157.5 121.5,157.5C 121.218,152.073 121.551,146.74 122.5,141.5 Z"/></g>
<g><path style="opacity:1" fill="#dfdfdf" d="M 137.5,148.5 C 141.5,148.5 145.5,148.5 149.5,148.5C 149.5,149.5 149.5,150.5 149.5,151.5C 145.5,151.5 141.5,151.5 137.5,151.5C 137.5,150.5 137.5,149.5 137.5,148.5 Z"/></g>
</svg>
