<?xml version="1.0" encoding="UTF-8"?>
<!DOCTYPE svg PUBLIC "-//W3C//DTD SVG 1.1//EN" "http://www.w3.org/Graphics/SVG/1.1/DTD/svg11.dtd">
<svg xmlns="http://www.w3.org/2000/svg" version="1.1" width="216px" height="208px" style="shape-rendering:geometricPrecision; text-rendering:geometricPrecision; image-rendering:optimizeQuality; fill-rule:evenodd; clip-rule:evenodd" xmlns:xlink="http://www.w3.org/1999/xlink">
<g><path style="opacity:1" fill="#fcfcfc" d="M -0.5,-0.5 C 71.5,-0.5 143.5,-0.5 215.5,-0.5C 215.5,68.8333 215.5,138.167 215.5,207.5C 143.5,207.5 71.5,207.5 -0.5,207.5C -0.5,138.167 -0.5,68.8333 -0.5,-0.5 Z"/></g>
<g><path style="opacity:1" fill="#0b0b0b" d="M 84.5,81.5 C 104.337,82.8279 124.337,82.8279 144.5,81.5C 144.376,80.8933 144.043,80.56 143.5,80.5C 142.343,75.5384 141.343,70.5384 140.5,65.5C 137.482,65.6646 134.482,65.498 131.5,65C 130.14,63.0624 130.473,61.3957 132.5,60C 141.167,59.3333 149.833,59.3333 158.5,60C 169.198,63.5633 172.031,70.3966 167,80.5C 163.67,84.2482 159.503,85.9149 154.5,85.5C 154.5,83.8333 154.5,82.1667 154.5,80.5C 162.385,79.9518 165.052,75.9518 162.5,68.5C 161.335,67.4164 160.002,66.5831 158.5,66C 154.129,65.1725 149.795,65.3391 145.5,66.5C 149.119,76.6865 152.119,87.0199 154.5,97.5C 180.597,95.4429 195.597,107.276 199.5,133C 195.626,162.614 178.96,174.614 149.5,169C 131.64,160.453 123.807,146.286 126,126.5C 129.689,113.648 137.522,104.314 149.5,98.5C 148.949,95.9439 147.949,93.6106 146.5,91.5C 134.516,102.316 122.683,113.316 111,124.5C 111.953,128.397 112.287,132.397 112,136.5C 109.182,144.162 103.682,147.662 95.5,147C 90.6089,144.943 87.2755,141.443 85.5,136.5C 84.3112,135.571 82.9778,135.238 81.5,135.5C 80.0801,151.845 71.7467,163.012 56.5,169C 27.4657,174.3 11.1324,162.3 7.5,133C 11.4777,107.176 26.4777,95.5098 52.5,98C 56.3678,99.0114 60.0345,100.511 63.5,102.5C 68.4797,96.3526 73.6463,90.3526 79,84.5C 78.0265,78.8404 76.6932,73.1737 75,67.5C 71.2546,66.703 67.4213,66.203 63.5,66C 61.4732,64.6043 61.1398,62.9376 62.5,61C 74.1667,60.3333 85.8333,60.3333 97.5,61C 98.8333,62.6667 98.8333,64.3333 97.5,66C 91.8333,66.3333 86.1667,66.6667 80.5,67C 82.3373,71.6807 83.6706,76.514 84.5,81.5 Z"/></g>
<g><path style="opacity:1" fill="#cacaca" d="M 143.5,80.5 C 144.043,80.56 144.376,80.8933 144.5,81.5C 124.337,82.8279 104.337,82.8279 84.5,81.5C 104.34,81.8304 124.007,81.4971 143.5,80.5 Z"/></g>
<g><path style="opacity:1" fill="#3b3b3b" d="M 87.5,88.5 C 105.005,87.1727 122.671,87.1727 140.5,88.5C 140.376,89.1067 140.043,89.44 139.5,89.5C 122.341,88.5033 105.008,88.17 87.5,88.5 Z"/></g>
<g><path style="opacity:1" fill="#fafafa" d="M 87.5,88.5 C 105.008,88.17 122.341,88.5033 139.5,89.5C 128.698,100.133 117.698,110.633 106.5,121C 102.891,120.762 99.2246,120.595 95.5,120.5C 93.4124,109.738 90.4124,99.2375 86.5,89C 86.7284,88.6012 87.0618,88.4346 87.5,88.5 Z"/></g>
<g><path style="opacity:1" fill="#f3f3f3" d="M 80.5,90.5 C 84.583,100.466 87.9163,110.799 90.5,121.5C 89.0211,126.206 86.0211,129.206 81.5,130.5C 80.0717,120.643 75.7384,112.31 68.5,105.5C 72.5236,100.481 76.5236,95.4811 80.5,90.5 Z"/></g>
<g><path style="opacity:1" fill="#f8f8f8" d="M 38.5,102.5 C 44.678,102.107 50.678,102.94 56.5,105C 57.91,105.368 58.91,106.201 59.5,107.5C 55.6886,112.479 51.6886,117.312 47.5,122C 42.1306,121.77 37.6306,123.603 34,127.5C 31.3099,135.787 34.1432,141.12 42.5,143.5C 47.2749,143.121 50.6082,140.788 52.5,136.5C 60.1378,135.503 67.8045,135.169 75.5,135.5C 72.2574,156.564 59.924,166.397 38.5,165C 20.2587,159.091 12.0921,146.591 14,127.5C 17.6829,114.651 25.8496,106.318 38.5,102.5 Z"/></g>
<g><path style="opacity:1" fill="#fafafa" d="M 156.5,102.5 C 178.555,101.73 190.889,112.23 193.5,134C 190.918,155.912 178.585,166.245 156.5,165C 134.88,157.364 127.38,142.531 134,120.5C 137.891,113.1 143.724,108.1 151.5,105.5C 154.229,115.522 157.062,125.522 160,135.5C 162.48,137.09 164.313,136.59 165.5,134C 162.11,123.605 159.11,113.105 156.5,102.5 Z"/></g>
<g><path style="opacity:1" fill="#f8f8f8" d="M 74.5,125.5 C 74.5,126.833 74.5,128.167 74.5,129.5C 67.1667,129.5 59.8333,129.5 52.5,129.5C 51.2216,127.456 51.3883,125.456 53,123.5C 56.6475,119.018 60.4808,114.685 64.5,110.5C 69.5895,114.35 72.9228,119.35 74.5,125.5 Z"/></g>
<g><path style="opacity:1" fill="#a9a9a9" d="M 74.5,125.5 C 75.4511,126.919 75.7845,128.585 75.5,130.5C 67.6484,130.825 59.9818,130.492 52.5,129.5C 59.8333,129.5 67.1667,129.5 74.5,129.5C 74.5,128.167 74.5,126.833 74.5,125.5 Z"/></g>
</svg>
