<?xml version="1.0" encoding="UTF-8"?>
<!DOCTYPE svg PUBLIC "-//W3C//DTD SVG 1.1//EN" "http://www.w3.org/Graphics/SVG/1.1/DTD/svg11.dtd">
<svg xmlns="http://www.w3.org/2000/svg" version="1.1" width="216px" height="208px" style="shape-rendering:geometricPrecision; text-rendering:geometricPrecision; image-rendering:optimizeQuality; fill-rule:evenodd; clip-rule:evenodd" xmlns:xlink="http://www.w3.org/1999/xlink">
<g><path style="opacity:1" fill="#fdfdfd" d="M -0.5,-0.5 C 71.5,-0.5 143.5,-0.5 215.5,-0.5C 215.5,68.8333 215.5,138.167 215.5,207.5C 143.5,207.5 71.5,207.5 -0.5,207.5C -0.5,138.167 -0.5,68.8333 -0.5,-0.5 Z"/></g>
<g><path style="opacity:1" fill="#adadad" d="M 158.5,54.5 C 121.663,54.1682 84.9962,54.5015 48.5,55.5C 47.8333,55.5 47.1667,55.5 46.5,55.5C 46.6107,54.8826 46.944,54.3826 47.5,54C 84.6689,53.1689 121.669,53.3356 158.5,54.5 Z"/></g>
<g><path style="opacity:1" fill="#1e1e1e" d="M 48.5,55.5 C 84.9962,54.5015 121.663,54.1682 158.5,54.5C 161.721,54.8961 164.388,56.2295 166.5,58.5C 163.986,58.2461 161.652,57.4127 159.5,56C 122.502,55.5 85.5015,55.3333 48.5,55.5 Z"/></g>
<g><path style="opacity:1" fill="#121212" d="M 46.5,55.5 C 47.1667,55.5 47.8333,55.5 48.5,55.5C 85.5015,55.3333 122.502,55.5 159.5,56C 161.652,57.4127 163.986,58.2461 166.5,58.5C 170.485,60.3209 173.319,63.3209 175,67.5C 176.365,77.4434 176.865,87.4434 176.5,97.5C 180.674,97.6586 184.008,99.3253 186.5,102.5C 189.551,107.482 190.217,112.816 188.5,118.5C 187.833,119.833 187.167,121.167 186.5,122.5C 185.504,122.414 184.671,122.748 184,123.5C 183.774,131.88 183.274,140.214 182.5,148.5C 180.611,149.604 178.945,150.937 177.5,152.5C 176.746,155.023 176.08,157.689 175.5,160.5C 169.872,161.495 164.206,161.829 158.5,161.5C 157.701,158.57 157.368,155.57 157.5,152.5C 122.167,152.5 86.8333,152.5 51.5,152.5C 51.6323,155.57 51.299,158.57 50.5,161.5C 44.2079,162.053 38.2079,161.386 32.5,159.5C 33.0356,156.302 32.369,153.635 30.5,151.5C 27.8122,150.976 26.3122,149.309 26,146.5C 25.6667,139.167 25.3333,131.833 25,124.5C 16.984,116.911 16.484,108.911 23.5,100.5C 25.9707,98.9294 28.6374,97.9294 31.5,97.5C 31.3336,89.16 31.5003,80.8267 32,72.5C 32.2365,70.1548 33.0698,68.1548 34.5,66.5C 37.1379,63.5256 39.8046,60.5256 42.5,57.5C 43.5137,56.3263 44.847,55.6596 46.5,55.5 Z"/></g>
<g><path style="opacity:1" fill="#adadad" d="M 49.5,60.5 C 85.9977,59.3356 122.664,59.1689 159.5,60C 161.653,60.0995 163.319,60.9328 164.5,62.5C 162.518,62.0046 160.518,61.5046 158.5,61C 122.168,60.5 85.8349,60.3333 49.5,60.5 Z"/></g>
<g><path style="opacity:1" fill="#525252" d="M 42.5,57.5 C 39.8046,60.5256 37.1379,63.5256 34.5,66.5C 35.7684,62.2329 38.4351,59.2329 42.5,57.5 Z"/></g>
<g><path style="opacity:1" fill="#f9f9f9" d="M 49.5,60.5 C 85.8349,60.3333 122.168,60.5 158.5,61C 160.518,61.5046 162.518,62.0046 164.5,62.5C 164.5,63.1667 164.833,63.5 165.5,63.5C 166.08,65.7488 167.413,67.4154 169.5,68.5C 170.757,78.5495 170.757,88.5495 169.5,98.5C 166.911,99.4194 164.911,101.086 163.5,103.5C 162.21,104.058 161.377,105.058 161,106.5C 160.502,109.817 160.335,113.15 160.5,116.5C 123.167,116.5 85.8333,116.5 48.5,116.5C 48.8128,112.958 48.4794,109.625 47.5,106.5C 45.3064,103.395 42.6397,100.728 39.5,98.5C 38.3643,89.9116 38.1977,81.2449 39,72.5C 42.247,70.3416 44.247,67.3416 45,63.5C 46.4087,62.2189 47.9087,61.2189 49.5,60.5 Z"/></g>
<g><path style="opacity:1" fill="#9c9c9c" d="M 165.5,63.5 C 167.587,64.5846 168.92,66.2512 169.5,68.5C 167.413,67.4154 166.08,65.7488 165.5,63.5 Z"/></g>
<g><path style="opacity:1" fill="#5f5f5f" d="M 63.5,78.5 C 62.1667,74.5 60.8333,74.5 59.5,78.5C 58.0171,76.3161 58.6837,74.9827 61.5,74.5C 64.3163,74.9827 64.9829,76.3161 63.5,78.5 Z"/></g>
<g><path style="opacity:1" fill="#c9c9c9" d="M 49.5,60.5 C 47.9087,61.2189 46.4087,62.2189 45,63.5C 44.247,67.3416 42.247,70.3416 39,72.5C 38.1977,81.2449 38.3643,89.9116 39.5,98.5C 38.1739,94.3861 37.5073,89.8861 37.5,85C 35.4613,75.3126 38.128,67.3126 45.5,61C 46.7932,60.51 48.1266,60.3433 49.5,60.5 Z"/></g>
<g><path style="opacity:1" fill="#616161" d="M 88.5,75.5 C 89.5676,74.5655 90.901,74.2322 92.5,74.5C 92.7845,76.4147 92.4511,78.0813 91.5,79.5C 91.5,78.1667 91.5,76.8333 91.5,75.5C 90.5,75.5 89.5,75.5 88.5,75.5 Z"/></g>
<g><path style="opacity:1" fill="#171717" d="M 63.5,78.5 C 62.2946,79.6857 60.9613,79.6857 59.5,78.5C 60.8333,74.5 62.1667,74.5 63.5,78.5 Z"/></g>
<g><path style="opacity:1" fill="#151515" d="M 88.5,75.5 C 89.5,75.5 90.5,75.5 91.5,75.5C 91.5,76.8333 91.5,78.1667 91.5,79.5C 90.5,79.5 89.5,79.5 88.5,79.5C 88.5,78.1667 88.5,76.8333 88.5,75.5 Z"/></g>
<g><path style="opacity:1" fill="#282828" d="M 117.5,74.5 C 118.5,74.5 119.5,74.5 120.5,74.5C 120.5,76.1667 120.5,77.8333 120.5,79.5C 119.167,79.5 117.833,79.5 116.5,79.5C 116.366,77.7085 116.699,76.0418 117.5,74.5 Z"/></g>
<g><path style="opacity:1" fill="#222222" d="M 145.5,74.5 C 149.161,74.3501 150.161,75.8501 148.5,79C 144.707,79.4866 143.707,77.9866 145.5,74.5 Z"/></g>
<g><path style="opacity:1" fill="#bdbdbd" d="M 169.5,68.5 C 170.268,69.2625 170.768,70.2625 171,71.5C 171.167,76 171.333,80.5 171.5,85C 171.493,89.8861 170.826,94.3861 169.5,98.5C 170.757,88.5495 170.757,78.5495 169.5,68.5 Z"/></g>
<g><path style="opacity:1" fill="#636363" d="M 88.5,97.5 C 88.5,98.5 88.5,99.5 88.5,100.5C 89.5,100.5 90.5,100.5 91.5,100.5C 91.5,99.5 91.5,98.5 91.5,97.5C 93.3414,101.469 92.1747,102.803 88,101.5C 87.235,99.9343 87.4017,98.6009 88.5,97.5 Z"/></g>
<g><path style="opacity:1" fill="#1f1f1f" d="M 116.5,97.5 C 117.833,97.5 119.167,97.5 120.5,97.5C 120.5,98.8333 120.5,100.167 120.5,101.5C 119.167,101.5 117.833,101.5 116.5,101.5C 116.5,100.167 116.5,98.8333 116.5,97.5 Z"/></g>
<g><path style="opacity:1" fill="#616161" d="M 145.5,97.5 C 145.5,98.5 145.5,99.5 145.5,100.5C 146.5,100.5 147.5,100.5 148.5,100.5C 148.5,99.5 148.5,98.5 148.5,97.5C 151.098,99.7043 150.598,101.371 147,102.5C 146.228,102.355 145.561,102.022 145,101.5C 144.235,99.9343 144.402,98.6009 145.5,97.5 Z"/></g>
<g><path style="opacity:1" fill="#121212" d="M 88.5,97.5 C 89.5,97.5 90.5,97.5 91.5,97.5C 91.5,98.5 91.5,99.5 91.5,100.5C 90.5,100.5 89.5,100.5 88.5,100.5C 88.5,99.5 88.5,98.5 88.5,97.5 Z"/></g>
<g><path style="opacity:1" fill="#0d0d0d" d="M 145.5,97.5 C 146.5,97.5 147.5,97.5 148.5,97.5C 148.5,98.5 148.5,99.5 148.5,100.5C 147.5,100.5 146.5,100.5 145.5,100.5C 145.5,99.5 145.5,98.5 145.5,97.5 Z"/></g>
<g><path style="opacity:1" fill="#c9c9c9" d="M 59.5,97.5 C 61.8422,96.9918 64.0088,95.9918 66,94.5C 65.8481,97.447 65.6815,100.447 65.5,103.5C 59.9087,104.407 57.9087,102.407 59.5,97.5 Z"/></g>
<g><path style="opacity:1" fill="#1d1d1d" d="M 59.5,97.5 C 60.8333,97.5 62.1667,97.5 63.5,97.5C 63.5,98.8333 63.5,100.167 63.5,101.5C 60.5,101.833 59.1667,100.5 59.5,97.5 Z"/></g>
<g><path style="opacity:1" fill="#989898" d="M 29.5,103.5 C 28.1667,105.5 26.5,107.167 24.5,108.5C 25.1667,105.833 26.8333,104.167 29.5,103.5 Z"/></g>
<g><path style="opacity:1" fill="#f6f6f6" d="M 29.5,103.5 C 33.4023,103.69 37.0689,104.69 40.5,106.5C 41.1174,106.611 41.6174,106.944 42,107.5C 42.4999,120.496 42.6666,133.496 42.5,146.5C 38.3998,146.763 34.3998,146.43 30.5,145.5C 30.6664,137.493 30.4997,129.493 30,121.5C 29.6174,120.944 29.1174,120.611 28.5,120.5C 26.7104,118.728 25.3771,116.728 24.5,114.5C 23.1667,112.5 23.1667,110.5 24.5,108.5C 26.5,107.167 28.1667,105.5 29.5,103.5 Z"/></g>
<g><path style="opacity:1" fill="#bdbdbd" d="M 29.5,103.5 C 33.8842,101.655 37.5509,102.655 40.5,106.5C 37.0689,104.69 33.4023,103.69 29.5,103.5 Z"/></g>
<g><path style="opacity:1" fill="#f0f0f0" d="M 183.5,106.5 C 185.227,111.244 184.56,115.578 181.5,119.5C 180.25,119.577 179.417,120.244 179,121.5C 178.667,129.5 178.333,137.5 178,145.5C 177.5,146 177,146.5 176.5,147C 173.183,147.498 169.85,147.665 166.5,147.5C 166.333,134.163 166.5,120.829 167,107.5C 170.112,102.612 174.445,101.279 180,103.5C 181.174,104.544 182.341,105.544 183.5,106.5 Z"/></g>
<g><path style="opacity:1" fill="#737373" d="M 163.5,103.5 C 162.254,107.894 161.254,112.227 160.5,116.5C 160.335,113.15 160.502,109.817 161,106.5C 161.377,105.058 162.21,104.058 163.5,103.5 Z"/></g>
<g><path style="opacity:1" fill="#4d4d4d" d="M 186.5,102.5 C 189.355,104.701 190.689,107.701 190.5,111.5C 190.56,114.155 189.893,116.489 188.5,118.5C 190.217,112.816 189.551,107.482 186.5,102.5 Z"/></g>
<g><path style="opacity:1" fill="#727272" d="M 47.5,106.5 C 48.4794,109.625 48.8128,112.958 48.5,116.5C 85.8333,116.5 123.167,116.5 160.5,116.5C 123.004,117.498 85.337,117.832 47.5,117.5C 47.5,113.833 47.5,110.167 47.5,106.5 Z"/></g>
<g><path style="opacity:1" fill="#535353" d="M 24.5,114.5 C 25.3771,116.728 26.7104,118.728 28.5,120.5C 25.2244,119.878 23.8911,117.878 24.5,114.5 Z"/></g>
<g><path style="opacity:1" fill="#525252" d="M 183.5,106.5 C 184.222,106.918 184.722,107.584 185,108.5C 185.667,111.167 185.667,113.833 185,116.5C 184.578,118.426 183.411,119.426 181.5,119.5C 184.56,115.578 185.227,111.244 183.5,106.5 Z"/></g>
<g><path style="opacity:1" fill="#363636" d="M 28.5,120.5 C 29.1174,120.611 29.6174,120.944 30,121.5C 30.4997,129.493 30.6664,137.493 30.5,145.5C 29.7765,137.297 29.1098,128.964 28.5,120.5 Z"/></g>
<g><path style="opacity:1" fill="#a7a7a7" d="M 186.5,122.5 C 186.217,123.289 185.717,123.956 185,124.5C 185.14,132.896 184.307,140.896 182.5,148.5C 183.274,140.214 183.774,131.88 184,123.5C 184.671,122.748 185.504,122.414 186.5,122.5 Z"/></g>
<g><path style="opacity:1" fill="#7d7d7d" d="M 161.5,136.5 C 161.167,136.5 160.833,136.5 160.5,136.5C 123.337,137.498 86.0037,137.832 48.5,137.5C 47.5119,132.36 47.1786,127.026 47.5,121.5C 85.5,121.5 123.5,121.5 161.5,121.5C 161.5,126.5 161.5,131.5 161.5,136.5 Z"/></g>
<g><path style="opacity:1" fill="#d1d1d1" d="M 48.5,123.5 C 85.6629,122.502 122.996,122.168 160.5,122.5C 160.5,127.167 160.5,131.833 160.5,136.5C 122.996,136.832 85.6629,136.498 48.5,135.5C 85.5,135.5 122.5,135.5 159.5,135.5C 159.5,131.5 159.5,127.5 159.5,123.5C 122.5,123.5 85.5,123.5 48.5,123.5 Z"/></g>
<g><path style="opacity:1" fill="#fcfcfc" d="M 48.5,123.5 C 85.5,123.5 122.5,123.5 159.5,123.5C 159.5,127.5 159.5,131.5 159.5,135.5C 122.5,135.5 85.5,135.5 48.5,135.5C 48.5,131.5 48.5,127.5 48.5,123.5 Z"/></g>
<g><path style="opacity:1" fill="#242424" d="M 160.5,136.5 C 160.833,136.5 161.167,136.5 161.5,136.5C 143.012,137.833 124.179,138.5 105,138.5C 85.997,138.5 67.1637,138.167 48.5,137.5C 86.0037,137.832 123.337,137.498 160.5,136.5 Z"/></g>
<g><path style="opacity:1" fill="#bababa" d="M 48.5,143.5 C 85.6629,142.502 122.996,142.168 160.5,142.5C 161.833,143.833 161.833,145.167 160.5,146.5C 160.5,145.5 160.5,144.5 160.5,143.5C 123.167,143.5 85.8333,143.5 48.5,143.5 Z"/></g>
<g><path style="opacity:1" fill="#fafafa" d="M 48.5,143.5 C 85.8333,143.5 123.167,143.5 160.5,143.5C 160.5,144.5 160.5,145.5 160.5,146.5C 123.167,146.5 85.8333,146.5 48.5,146.5C 48.5,145.5 48.5,144.5 48.5,143.5 Z"/></g>
<g><path style="opacity:1" fill="#787878" d="M 160.5,142.5 C 122.996,142.168 85.6629,142.502 48.5,143.5C 48.5,144.5 48.5,145.5 48.5,146.5C 85.8333,146.5 123.167,146.5 160.5,146.5C 123.004,147.498 85.337,147.832 47.5,147.5C 47.5,145.5 47.5,143.5 47.5,141.5C 85.337,141.168 123.004,141.502 160.5,142.5 Z"/></g>
<g><path style="opacity:1" fill="#9a9a9a" d="M 182.5,148.5 C 181.871,150.997 180.204,152.33 177.5,152.5C 178.945,150.937 180.611,149.604 182.5,148.5 Z"/></g>
<g><path style="opacity:1" fill="#b2b2b2" d="M 158.5,161.5 C 157.883,161.389 157.383,161.056 157,160.5C 156.503,158.19 156.337,155.857 156.5,153.5C 121.833,153.5 87.1667,153.5 52.5,153.5C 52.6633,155.857 52.4966,158.19 52,160.5C 51.6174,161.056 51.1174,161.389 50.5,161.5C 51.299,158.57 51.6323,155.57 51.5,152.5C 86.8333,152.5 122.167,152.5 157.5,152.5C 157.368,155.57 157.701,158.57 158.5,161.5 Z"/></g>
<g><path style="opacity:1" fill="#6f6f6f" d="M 30.5,151.5 C 32.369,153.635 33.0356,156.302 32.5,159.5C 31.7451,156.947 31.0784,154.28 30.5,151.5 Z"/></g>
<g><path style="opacity:1" fill="#bfbfbf" d="M 37.5,152.5 C 40.5,152.5 43.5,152.5 46.5,152.5C 46.5,153.833 46.5,155.167 46.5,156.5C 43.5,156.5 40.5,156.5 37.5,156.5C 37.5,155.167 37.5,153.833 37.5,152.5 Z"/></g>
<g><path style="opacity:1" fill="#c0c0c0" d="M 162.5,152.5 C 165.5,152.5 168.5,152.5 171.5,152.5C 171.5,153.833 171.5,155.167 171.5,156.5C 168.5,156.5 165.5,156.5 162.5,156.5C 162.5,155.167 162.5,153.833 162.5,152.5 Z"/></g>
</svg>
