<?xml version="1.0" encoding="UTF-8"?>
<!DOCTYPE svg PUBLIC "-//W3C//DTD SVG 1.1//EN" "http://www.w3.org/Graphics/SVG/1.1/DTD/svg11.dtd">
<svg xmlns="http://www.w3.org/2000/svg" version="1.1" width="216px" height="208px" style="shape-rendering:geometricPrecision; text-rendering:geometricPrecision; image-rendering:optimizeQuality; fill-rule:evenodd; clip-rule:evenodd" xmlns:xlink="http://www.w3.org/1999/xlink">
<g><path style="opacity:1" fill="#fcfcfc" d="M -0.5,-0.5 C 71.5,-0.5 143.5,-0.5 215.5,-0.5C 215.5,68.8333 215.5,138.167 215.5,207.5C 143.5,207.5 71.5,207.5 -0.5,207.5C -0.5,138.167 -0.5,68.8333 -0.5,-0.5 Z"/></g>
<g><path style="opacity:1" fill="#bebebe" d="M 113.5,39.5 C 108.477,38.3097 103.477,38.3097 98.5,39.5C 98.62,38.4138 99.2867,37.7472 100.5,37.5C 104.131,36.4852 107.798,36.3186 111.5,37C 112.756,37.4169 113.423,38.2502 113.5,39.5 Z"/></g>
<g><path style="opacity:1" fill="#141414" d="M 113.5,39.5 C 119.614,41.2902 125.614,43.2902 131.5,45.5C 140.672,48.0373 150.005,50.3707 159.5,52.5C 162.763,54.5682 166.43,55.5682 170.5,55.5C 175.652,57.4598 180.985,59.1264 186.5,60.5C 186.351,61.552 186.517,62.552 187,63.5C 190.719,68.9802 194.886,73.9802 199.5,78.5C 200.583,81.6975 202.25,84.5309 204.5,87C 203.586,88.4064 202.92,89.9064 202.5,91.5C 201.5,91.5 200.5,91.5 199.5,91.5C 195.356,92.3565 191.356,93.6898 187.5,95.5C 186.501,111.152 186.167,126.819 186.5,142.5C 185.5,142.833 184.833,143.5 184.5,144.5C 180.292,144.677 176.626,146.01 173.5,148.5C 166.703,150.734 160.37,153.734 154.5,157.5C 149.798,158.098 145.298,159.431 141,161.5C 139.97,161.836 139.47,162.503 139.5,163.5C 136.189,163.307 133.522,164.307 131.5,166.5C 127.245,166.472 123.579,167.805 120.5,170.5C 117.422,170.62 114.755,171.62 112.5,173.5C 108.747,175.139 104.747,175.806 100.5,175.5C 88.4882,170.732 76.4882,165.732 64.5,160.5C 62.9674,158.755 60.9674,157.755 58.5,157.5C 51.3917,155.112 44.3917,152.446 37.5,149.5C 34.7054,147.106 31.372,145.44 27.5,144.5C 26.0413,144.567 24.7079,144.234 23.5,143.5C 23.5,127.5 23.5,111.5 23.5,95.5C 20.779,95.0372 18.1123,94.3705 15.5,93.5C 11.8551,92.271 8.18846,90.9377 4.5,89.5C 4.35729,87.7376 4.69063,86.0709 5.5,84.5C 9.56178,79.4503 13.5618,74.4503 17.5,69.5C 19.7945,67.5136 21.4612,65.0136 22.5,62C 26.0154,60.5858 29.3487,59.0858 32.5,57.5C 48.7292,52.7873 65.0625,48.4539 81.5,44.5C 87.2241,42.697 92.8907,41.0303 98.5,39.5C 103.477,38.3097 108.477,38.3097 113.5,39.5 Z"/></g>
<g><path style="opacity:1" fill="#9d9d9d" d="M 98.5,39.5 C 92.8907,41.0303 87.2241,42.697 81.5,44.5C 81.9528,43.5416 82.6195,42.7083 83.5,42C 88.4119,40.584 93.4119,39.7507 98.5,39.5 Z"/></g>
<g><path style="opacity:1" fill="#909090" d="M 102.5,44.5 C 99.8112,46.117 96.8112,47.117 93.5,47.5C 96.0076,45.446 99.0076,44.446 102.5,44.5 Z"/></g>
<g><path style="opacity:1" fill="#f9f9f9" d="M 102.5,44.5 C 112.428,45.8748 122.095,48.2081 131.5,51.5C 133.657,52.4067 135.99,53.0733 138.5,53.5C 141.544,55.0114 144.878,55.678 148.5,55.5C 148.5,55.8333 148.5,56.1667 148.5,56.5C 151.358,58.6706 154.691,60.0039 158.5,60.5C 159.478,63.9963 158.644,64.3296 156,61.5C 156.558,63.5673 156.058,65.5673 154.5,67.5C 153.167,67.5 151.833,67.5 150.5,67.5C 144.62,68.7972 138.953,70.4638 133.5,72.5C 125.308,73.7155 117.308,75.5489 109.5,78C 108.944,78.3826 108.611,78.8826 108.5,79.5C 104.143,79.4135 99.81,79.0802 95.5,78.5C 90.7115,77.5702 86.0448,76.2369 81.5,74.5C 78.0394,73.134 74.3727,72.134 70.5,71.5C 68.6976,70.5418 66.6976,69.8751 64.5,69.5C 63.5,69.5 62.5,69.5 61.5,69.5C 61.3893,68.8826 61.056,68.3826 60.5,68C 58.1902,67.5034 55.8568,67.3367 53.5,67.5C 51.8333,66.8333 50.1667,66.1667 48.5,65.5C 46.3432,64.5933 44.0098,63.9267 41.5,63.5C 40.6236,63.6309 39.9569,63.2975 39.5,62.5C 40.325,61.6143 41.325,61.281 42.5,61.5C 55.817,59.675 68.4836,56.0083 80.5,50.5C 80.8333,50.5 81.1667,50.5 81.5,50.5C 85.1368,50.13 88.4701,49.13 91.5,47.5C 92.1667,47.5 92.8333,47.5 93.5,47.5C 96.8112,47.117 99.8112,46.117 102.5,44.5 Z"/></g>
<g><path style="opacity:1" fill="#777777" d="M 91.5,47.5 C 88.4701,49.13 85.1368,50.13 81.5,50.5C 81.6107,49.8826 81.944,49.3826 82.5,49C 85.4781,48.304 88.4781,47.804 91.5,47.5 Z"/></g>
<g><path style="opacity:1" fill="#bdbdbd" d="M 131.5,45.5 C 138.626,45.8642 145.626,47.0309 152.5,49C 155.069,49.8984 157.402,51.065 159.5,52.5C 150.005,50.3707 140.672,48.0373 131.5,45.5 Z"/></g>
<g><path style="opacity:1" fill="#6f6f6f" d="M 131.5,51.5 C 134.388,50.9898 136.721,51.6565 138.5,53.5C 135.99,53.0733 133.657,52.4067 131.5,51.5 Z"/></g>
<g><path style="opacity:1" fill="#a2a2a2" d="M 80.5,50.5 C 68.4836,56.0083 55.817,59.675 42.5,61.5C 42.6107,60.8826 42.944,60.3826 43.5,60C 56.0588,57.6105 68.3921,54.4438 80.5,50.5 Z"/></g>
<g><path style="opacity:1" fill="#979797" d="M 159.5,52.5 C 163.427,52.9257 167.093,53.9257 170.5,55.5C 166.43,55.5682 162.763,54.5682 159.5,52.5 Z"/></g>
<g><path style="opacity:1" fill="#5f5f5f" d="M 138.5,53.5 C 142.078,53.5488 145.411,54.2154 148.5,55.5C 144.878,55.678 141.544,55.0114 138.5,53.5 Z"/></g>
<g><path style="opacity:1" fill="#c5c5c5" d="M 32.5,57.5 C 29.3487,59.0858 26.0154,60.5858 22.5,62C 21.4612,65.0136 19.7945,67.5136 17.5,69.5C 18.379,67.772 19.0457,65.9386 19.5,64C 19.4148,62.8926 19.0814,61.8926 18.5,61C 22.9535,59.0603 27.6202,57.8936 32.5,57.5 Z"/></g>
<g><path style="opacity:1" fill="#d4d4d4" d="M 148.5,56.5 C 155.514,58.2325 162.514,60.2325 169.5,62.5C 164.583,64.4606 159.583,66.1273 154.5,67.5C 156.058,65.5673 156.558,63.5673 156,61.5C 158.644,64.3296 159.478,63.9963 158.5,60.5C 154.691,60.0039 151.358,58.6706 148.5,56.5 Z"/></g>
<g><path style="opacity:1" fill="#5f5f5f" d="M 41.5,63.5 C 44.0098,63.9267 46.3432,64.5933 48.5,65.5C 46.4727,65.6621 44.4727,65.4955 42.5,65C 41.944,64.6174 41.6107,64.1174 41.5,63.5 Z"/></g>
<g><path style="opacity:1" fill="#8d8d8d" d="M 38.5,69.5 C 35.3377,68.8889 32.171,68.2223 29,67.5C 27.6974,67.9783 26.5307,68.645 25.5,69.5C 25.5587,67.2776 26.7253,66.2776 29,66.5C 31.8236,67.0539 34.657,67.5539 37.5,68C 38.056,68.3826 38.3893,68.8826 38.5,69.5 Z"/></g>
<g><path style="opacity:1" fill="#888888" d="M 184.5,69.5 C 183.406,68.4183 182.073,67.7517 180.5,67.5C 177.481,68.17 174.481,68.8366 171.5,69.5C 173.957,67.5569 176.957,66.5569 180.5,66.5C 182.982,66.1104 184.315,67.1104 184.5,69.5 Z"/></g>
<g><path style="opacity:1" fill="#f7f7f7" d="M 38.5,69.5 C 39.8333,69.5 41.1667,69.5 42.5,69.5C 43.9025,70.9312 45.5692,72.0978 47.5,73C 51.8533,73.8362 56.1866,74.6695 60.5,75.5C 64.2873,76.9175 68.2873,77.9175 72.5,78.5C 72.4701,79.4972 72.9701,80.1639 74,80.5C 77.171,81.2223 80.3377,81.8889 83.5,82.5C 88.6494,82.8986 93.6494,83.8986 98.5,85.5C 98.6495,86.552 98.4828,87.552 98,88.5C 96.0788,90.7603 94.2455,93.0936 92.5,95.5C 89.1485,97.8537 86.4819,100.854 84.5,104.5C 83.147,105.526 82.147,106.859 81.5,108.5C 77.9408,107.359 74.2742,106.359 70.5,105.5C 69.209,105.737 68.209,105.404 67.5,104.5C 61.9978,102.6 56.3312,100.934 50.5,99.5C 47.6642,98.2957 44.8308,96.9623 42,95.5C 33.7782,93.3026 25.6116,90.9692 17.5,88.5C 16.9935,87.1411 15.9935,86.1411 14.5,85.5C 15.1272,84.5832 15.4606,83.5832 15.5,82.5C 15.7376,80.5956 16.7376,79.2623 18.5,78.5C 21.5907,76.0775 23.924,73.0775 25.5,69.5C 26.5307,68.645 27.6974,67.9783 29,67.5C 32.171,68.2223 35.3377,68.8889 38.5,69.5 Z"/></g>
<g><path style="opacity:1" fill="#7e7e7e" d="M 53.5,67.5 C 55.8568,67.3367 58.1902,67.5034 60.5,68C 61.056,68.3826 61.3893,68.8826 61.5,69.5C 58.6697,69.0372 56.003,68.3705 53.5,67.5 Z"/></g>
<g><path style="opacity:1" fill="#bcbcbc" d="M 150.5,67.5 C 147.743,68.9908 144.743,70.3241 141.5,71.5C 138.885,72.2692 136.219,72.6025 133.5,72.5C 138.953,70.4638 144.62,68.7972 150.5,67.5 Z"/></g>
<g><path style="opacity:1" fill="#f8f8f8" d="M 184.5,69.5 C 188.074,74.6835 191.74,79.8502 195.5,85C 195.241,86.2613 194.574,87.2613 193.5,88C 188.907,88.48 184.573,89.6467 180.5,91.5C 178.033,91.7549 176.033,92.7549 174.5,94.5C 169.605,94.4664 165.272,95.7997 161.5,98.5C 159.801,98.3398 158.134,98.5065 156.5,99C 151.772,101.479 147.106,103.646 142.5,105.5C 139.962,105.507 137.462,105.841 135,106.5C 133.624,106.684 132.791,107.351 132.5,108.5C 129.675,108.919 127.509,107.919 126,105.5C 121.711,99.5422 117.044,93.8756 112,88.5C 111.517,87.552 111.351,86.552 111.5,85.5C 112.5,85.5 113.5,85.5 114.5,85.5C 124.356,84.2302 133.689,81.5636 142.5,77.5C 148.196,76.9852 153.529,75.3185 158.5,72.5C 162.892,71.6517 167.225,70.6517 171.5,69.5C 174.481,68.8366 177.481,68.17 180.5,67.5C 182.073,67.7517 183.406,68.4183 184.5,69.5 Z"/></g>
<g><path style="opacity:1" fill="#777777" d="M 64.5,69.5 C 66.6976,69.8751 68.6976,70.5418 70.5,71.5C 67.9179,71.9746 65.9179,71.3079 64.5,69.5 Z"/></g>
<g><path style="opacity:1" fill="#999999" d="M 42.5,69.5 C 47.9512,71.7041 53.6178,73.2041 59.5,74C 60.056,74.3826 60.3893,74.8826 60.5,75.5C 56.1866,74.6695 51.8533,73.8362 47.5,73C 45.5692,72.0978 43.9025,70.9312 42.5,69.5 Z"/></g>
<g><path style="opacity:1" fill="#686868" d="M 70.5,71.5 C 74.3727,72.134 78.0394,73.134 81.5,74.5C 78.1262,74.3256 74.7928,73.8256 71.5,73C 70.944,72.6174 70.6107,72.1174 70.5,71.5 Z"/></g>
<g><path style="opacity:1" fill="#c6c6c6" d="M 133.5,72.5 C 132.01,74.2798 130.01,74.9465 127.5,74.5C 124.728,74.7587 122.395,75.7587 120.5,77.5C 116.382,77.5304 112.382,78.1971 108.5,79.5C 108.611,78.8826 108.944,78.3826 109.5,78C 117.308,75.5489 125.308,73.7155 133.5,72.5 Z"/></g>
<g><path style="opacity:1" fill="#919191" d="M 25.5,69.5 C 23.924,73.0775 21.5907,76.0775 18.5,78.5C 20.1108,74.9485 22.4442,71.9485 25.5,69.5 Z"/></g>
<g><path style="opacity:1" fill="#5e5e5e" d="M 127.5,74.5 C 125.605,76.2413 123.272,77.2413 120.5,77.5C 122.395,75.7587 124.728,74.7587 127.5,74.5 Z"/></g>
<g><path style="opacity:1" fill="#606060" d="M 60.5,75.5 C 64.1879,75.7811 67.8546,76.2811 71.5,77C 72.056,77.3826 72.3893,77.8826 72.5,78.5C 68.2873,77.9175 64.2873,76.9175 60.5,75.5 Z"/></g>
<g><path style="opacity:1" fill="#a9a9a9" d="M 158.5,72.5 C 153.529,75.3185 148.196,76.9852 142.5,77.5C 147.341,74.7725 152.675,73.1059 158.5,72.5 Z"/></g>
<g><path style="opacity:1" fill="#979797" d="M 95.5,78.5 C 99.81,79.0802 104.143,79.4135 108.5,79.5C 107.036,80.1599 105.369,80.4932 103.5,80.5C 100.514,80.6183 97.8476,79.9517 95.5,78.5 Z"/></g>
<g><path style="opacity:1" fill="#a6a6a6" d="M 199.5,78.5 C 201.533,80.1631 203.366,82.1631 205,84.5C 206.087,87.6139 205.254,89.9472 202.5,91.5C 202.92,89.9064 203.586,88.4064 204.5,87C 202.25,84.5309 200.583,81.6975 199.5,78.5 Z"/></g>
<g><path style="opacity:1" fill="#bababa" d="M 72.5,78.5 C 75.7767,79.4229 79.11,80.2562 82.5,81C 83.056,81.3826 83.3893,81.8826 83.5,82.5C 80.3377,81.8889 77.171,81.2223 74,80.5C 72.9701,80.1639 72.4701,79.4972 72.5,78.5 Z"/></g>
<g><path style="opacity:1" fill="#bbbbbb" d="M 142.5,77.5 C 133.689,81.5636 124.356,84.2302 114.5,85.5C 116.732,83.8046 119.399,82.6379 122.5,82C 129.328,81.031 135.995,79.531 142.5,77.5 Z"/></g>
<g><path style="opacity:1" fill="#737373" d="M 15.5,82.5 C 15.4606,83.5832 15.1272,84.5832 14.5,85.5C 15.9935,86.1411 16.9935,87.1411 17.5,88.5C 15.4334,88.4677 14.1001,87.4677 13.5,85.5C 13.4534,83.9623 14.1201,82.9623 15.5,82.5 Z"/></g>
<g><path style="opacity:1" fill="#b9b9b9" d="M 4.5,89.5 C 8.18846,90.9377 11.8551,92.271 15.5,93.5C 12.9621,93.4928 10.4621,93.1595 8,92.5C 6.09225,92.2849 4.92558,91.2849 4.5,89.5 Z"/></g>
<g><path style="opacity:1" fill="#5c5c5c" d="M 180.5,91.5 C 178.967,93.2451 176.967,94.2451 174.5,94.5C 176.033,92.7549 178.033,91.7549 180.5,91.5 Z"/></g>
<g><path style="opacity:1" fill="#747474" d="M 110.5,95.5 C 109.168,107.148 108.501,119.148 108.5,131.5C 108.5,143.671 108.833,155.671 109.5,167.5C 110.167,167.5 110.833,167.5 111.5,167.5C 110.432,168.434 109.099,168.768 107.5,168.5C 107.5,143.833 107.5,119.167 107.5,94.5C 108.791,94.2627 109.791,94.596 110.5,95.5 Z"/></g>
<g><path style="opacity:1" fill="#656565" d="M 174.5,94.5 C 170.249,95.9814 165.915,97.3148 161.5,98.5C 165.272,95.7997 169.605,94.4664 174.5,94.5 Z"/></g>
<g><path style="opacity:1" fill="#bebebe" d="M 199.5,91.5 C 196.262,94.6616 192.262,96.3282 187.5,96.5C 187.83,112.009 187.496,127.342 186.5,142.5C 186.167,126.819 186.501,111.152 187.5,95.5C 191.356,93.6898 195.356,92.3565 199.5,91.5 Z"/></g>
<g><path style="opacity:1" fill="#636363" d="M 92.5,95.5 C 90.5472,99.1203 87.8805,102.12 84.5,104.5C 86.4819,100.854 89.1485,97.8537 92.5,95.5 Z"/></g>
<g><path style="opacity:1" fill="#c5c5c5" d="M 15.5,93.5 C 18.1123,94.3705 20.779,95.0372 23.5,95.5C 23.5,111.5 23.5,127.5 23.5,143.5C 22.5037,128.009 22.1704,112.342 22.5,96.5C 19.3637,97.0209 17.0304,96.0209 15.5,93.5 Z"/></g>
<g><path style="opacity:1" fill="#8c8c8c" d="M 179.5,139.5 C 179.5,126.167 179.5,112.833 179.5,99.5C 176.5,100.167 173.5,100.833 170.5,101.5C 173.251,99.0255 176.584,98.0255 180.5,98.5C 180.829,112.344 180.496,126.01 179.5,139.5 Z"/></g>
<g><path style="opacity:1" fill="#a5a5a5" d="M 38.5,101.5 C 35.8333,101.167 33.1667,100.833 30.5,100.5C 30.5,113.5 30.5,126.5 30.5,139.5C 32.3797,139.229 33.713,139.896 34.5,141.5C 32.8828,140.962 31.2161,140.629 29.5,140.5C 29.5,126.5 29.5,112.5 29.5,98.5C 33.0774,98.1449 36.0774,99.1449 38.5,101.5 Z"/></g>
<g><path style="opacity:1" fill="#fafafa" d="M 101.5,94.5 C 101.5,118.833 101.5,143.167 101.5,167.5C 100.167,167.5 98.8333,167.5 97.5,167.5C 87.5123,164.254 77.8456,160.254 68.5,155.5C 66.52,153.549 64.1867,152.049 61.5,151C 58.0543,150.339 54.7209,149.505 51.5,148.5C 48.0497,146.792 44.383,145.459 40.5,144.5C 39.3406,142.75 37.674,141.75 35.5,141.5C 35.1667,141.5 34.8333,141.5 34.5,141.5C 33.713,139.896 32.3797,139.229 30.5,139.5C 30.5,126.5 30.5,113.5 30.5,100.5C 33.1667,100.833 35.8333,101.167 38.5,101.5C 42.4515,104.71 47.1182,106.376 52.5,106.5C 54.5,107.167 56.5,107.833 58.5,108.5C 59.0906,109.151 59.7573,109.818 60.5,110.5C 65.5838,111.687 70.5838,113.02 75.5,114.5C 78.3962,115.775 81.3962,115.775 84.5,114.5C 86.8903,113.109 88.5569,111.109 89.5,108.5C 93.2153,105.393 96.2153,101.727 98.5,97.5C 98.5,95.5 99.5,94.5 101.5,94.5 Z"/></g>
<g><path style="opacity:1" fill="#424242" d="M 50.5,99.5 C 56.3312,100.934 61.9978,102.6 67.5,104.5C 61.2692,104.202 55.6025,102.536 50.5,99.5 Z"/></g>
<g><path style="opacity:1" fill="#d9d9d9" d="M 110.5,95.5 C 113.323,98.4751 115.656,101.808 117.5,105.5C 115.074,103.62 112.408,102.287 109.5,101.5C 109.5,123.5 109.5,145.5 109.5,167.5C 108.833,155.671 108.5,143.671 108.5,131.5C 108.501,119.148 109.168,107.148 110.5,95.5 Z"/></g>
<g><path style="opacity:1" fill="#fafafa" d="M 179.5,139.5 C 159.757,146.597 140.424,154.597 121.5,163.5C 117.723,163.934 114.39,165.267 111.5,167.5C 110.833,167.5 110.167,167.5 109.5,167.5C 109.5,145.5 109.5,123.5 109.5,101.5C 112.408,102.287 115.074,103.62 117.5,105.5C 120.861,107.895 123.528,110.895 125.5,114.5C 131.648,116.318 137.314,115.318 142.5,111.5C 143.209,110.596 144.209,110.263 145.5,110.5C 152.1,108.746 158.433,106.413 164.5,103.5C 166.698,103.125 168.698,102.458 170.5,101.5C 173.5,100.833 176.5,100.167 179.5,99.5C 179.5,112.833 179.5,126.167 179.5,139.5 Z"/></g>
<g><path style="opacity:1" fill="#b1b1b1" d="M 38.5,101.5 C 43.5909,102.263 48.2576,103.93 52.5,106.5C 47.1182,106.376 42.4515,104.71 38.5,101.5 Z"/></g>
<g><path style="opacity:1" fill="#969696" d="M 98.5,97.5 C 96.2153,101.727 93.2153,105.393 89.5,108.5C 91.7847,104.273 94.7847,100.607 98.5,97.5 Z"/></g>
<g><path style="opacity:1" fill="#898989" d="M 164.5,103.5 C 158.433,106.413 152.1,108.746 145.5,110.5C 145.611,109.883 145.944,109.383 146.5,109C 152.473,106.844 158.473,105.01 164.5,103.5 Z"/></g>
<g><path style="opacity:1" fill="#5c5c5c" d="M 142.5,105.5 C 139.417,107.025 136.084,108.025 132.5,108.5C 132.791,107.351 133.624,106.684 135,106.5C 137.462,105.841 139.962,105.507 142.5,105.5 Z"/></g>
<g><path style="opacity:1" fill="#737373" d="M 70.5,105.5 C 74.2742,106.359 77.9408,107.359 81.5,108.5C 80.0536,109.613 78.3869,109.78 76.5,109C 74.2418,108.124 72.2418,106.957 70.5,105.5 Z"/></g>
<g><path style="opacity:1" fill="#5a5a5a" d="M 101.5,94.5 C 102.498,118.994 102.831,143.661 102.5,168.5C 100.585,168.784 98.9187,168.451 97.5,167.5C 98.8333,167.5 100.167,167.5 101.5,167.5C 101.5,143.167 101.5,118.833 101.5,94.5 Z"/></g>
<g><path style="opacity:1" fill="#b6b6b6" d="M 58.5,108.5 C 64.5268,109.748 70.1934,111.748 75.5,114.5C 70.5838,113.02 65.5838,111.687 60.5,110.5C 59.7573,109.818 59.0906,109.151 58.5,108.5 Z"/></g>
<g><path style="opacity:1" fill="#7d7d7d" d="M 89.5,108.5 C 88.5569,111.109 86.8903,113.109 84.5,114.5C 85.4735,111.865 87.1402,109.865 89.5,108.5 Z"/></g>
<g><path style="opacity:1" fill="#a7a7a7" d="M 142.5,111.5 C 137.314,115.318 131.648,116.318 125.5,114.5C 131.403,114.384 137.07,113.384 142.5,111.5 Z"/></g>
<g><path style="opacity:1" fill="#5b5b5b" d="M 35.5,141.5 C 37.674,141.75 39.3406,142.75 40.5,144.5C 38.1523,144.408 36.4856,143.408 35.5,141.5 Z"/></g>
<g><path style="opacity:1" fill="#656565" d="M 27.5,144.5 C 31.372,145.44 34.7054,147.106 37.5,149.5C 33.628,148.56 30.2946,146.894 27.5,144.5 Z"/></g>
<g><path style="opacity:1" fill="#7d7d7d" d="M 184.5,144.5 C 181.032,146.287 177.365,147.62 173.5,148.5C 176.626,146.01 180.292,144.677 184.5,144.5 Z"/></g>
<g><path style="opacity:1" fill="#9f9f9f" d="M 51.5,148.5 C 54.7209,149.505 58.0543,150.339 61.5,151C 64.1867,152.049 66.52,153.549 68.5,155.5C 62.4809,153.724 56.8142,151.391 51.5,148.5 Z"/></g>
<g><path style="opacity:1" fill="#b5b5b5" d="M 173.5,148.5 C 171.747,150.223 169.747,151.723 167.5,153C 163.388,155.052 159.054,156.552 154.5,157.5C 160.37,153.734 166.703,150.734 173.5,148.5 Z"/></g>
<g><path style="opacity:1" fill="#606060" d="M 58.5,157.5 C 60.9674,157.755 62.9674,158.755 64.5,160.5C 62.0326,160.245 60.0326,159.245 58.5,157.5 Z"/></g>
<g><path style="opacity:1" fill="#bcbcbc" d="M 139.5,163.5 C 137.443,165.856 134.776,166.856 131.5,166.5C 133.522,164.307 136.189,163.307 139.5,163.5 Z"/></g>
<g><path style="opacity:1" fill="#6e6e6e" d="M 121.5,163.5 C 121.389,164.117 121.056,164.617 120.5,165C 117.555,166.131 114.555,166.964 111.5,167.5C 114.39,165.267 117.723,163.934 121.5,163.5 Z"/></g>
<g><path style="opacity:1" fill="#939393" d="M 131.5,166.5 C 128.453,169.19 124.787,170.524 120.5,170.5C 123.579,167.805 127.245,166.472 131.5,166.5 Z"/></g>
<g><path style="opacity:1" fill="#6d6d6d" d="M 120.5,170.5 C 118.245,172.38 115.578,173.38 112.5,173.5C 114.755,171.62 117.422,170.62 120.5,170.5 Z"/></g>
<g><path style="opacity:1" fill="#5f5f5f" d="M 112.5,173.5 C 108.91,176.566 104.91,177.233 100.5,175.5C 104.747,175.806 108.747,175.139 112.5,173.5 Z"/></g>
</svg>
