<?xml version="1.0" encoding="UTF-8"?>
<!DOCTYPE svg PUBLIC "-//W3C//DTD SVG 1.1//EN" "http://www.w3.org/Graphics/SVG/1.1/DTD/svg11.dtd">
<svg xmlns="http://www.w3.org/2000/svg" version="1.1" width="216px" height="208px" style="shape-rendering:geometricPrecision; text-rendering:geometricPrecision; image-rendering:optimizeQuality; fill-rule:evenodd; clip-rule:evenodd" xmlns:xlink="http://www.w3.org/1999/xlink">
<g><path style="opacity:1" fill="#fcfcfc" d="M -0.5,-0.5 C 71.5,-0.5 143.5,-0.5 215.5,-0.5C 215.5,68.8333 215.5,138.167 215.5,207.5C 143.5,207.5 71.5,207.5 -0.5,207.5C -0.5,138.167 -0.5,68.8333 -0.5,-0.5 Z"/></g>
<g><path style="opacity:1" fill="#0f0f0f" d="M 63.5,21.5 C 93.8352,21.3334 124.168,21.5 154.5,22C 155.044,22.7172 155.711,23.2172 156.5,23.5C 157.149,78.9813 156.482,134.315 154.5,189.5C 124.165,189.667 93.8315,189.5 63.5,189C 62.944,188.617 62.6107,188.117 62.5,187.5C 62.1751,132.125 62.5084,76.7915 63.5,21.5 Z"/></g>
<g><path style="opacity:1" fill="#545454" d="M 68.5,28.5 C 81.8292,27.8334 95.3292,27.5001 109,27.5C 122.85,27.5007 136.35,28.1674 149.5,29.5C 149.167,29.5 148.833,29.5 148.5,29.5C 122.005,28.5021 95.3386,28.1688 68.5,28.5 Z"/></g>
<g><path style="opacity:1" fill="#f9f9f9" d="M 68.5,28.5 C 95.3386,28.1688 122.005,28.5021 148.5,29.5C 148.5,43.1667 148.5,56.8333 148.5,70.5C 121.833,70.5 95.1667,70.5 68.5,70.5C 68.5,56.5 68.5,42.5 68.5,28.5 Z"/></g>
<g><path style="opacity:1" fill="#191919" d="M 135.5,37.5 C 136.93,37.4208 138.264,37.7542 139.5,38.5C 140.833,46.1667 140.833,53.8333 139.5,61.5C 137.684,64.0643 135.851,64.0643 134,61.5C 132.918,53.2338 133.418,45.2338 135.5,37.5 Z"/></g>
<g><path style="opacity:1" fill="#a3a3a3" d="M 148.5,29.5 C 148.833,29.5 149.167,29.5 149.5,29.5C 149.5,43.5 149.5,57.5 149.5,71.5C 122.328,71.8312 95.3282,71.4979 68.5,70.5C 95.1667,70.5 121.833,70.5 148.5,70.5C 148.5,56.8333 148.5,43.1667 148.5,29.5 Z"/></g>
<g><path style="opacity:1" fill="#545454" d="M 68.5,78.5 C 81.8292,77.8334 95.3292,77.5001 109,77.5C 122.85,77.5007 136.35,78.1674 149.5,79.5C 149.167,79.5 148.833,79.5 148.5,79.5C 122.005,78.5021 95.3386,78.1688 68.5,78.5 Z"/></g>
<g><path style="opacity:1" fill="#c3c3c3" d="M 68.5,78.5 C 95.3386,78.1688 122.005,78.5021 148.5,79.5C 148.833,79.5 149.167,79.5 149.5,79.5C 149.5,113.833 149.5,148.167 149.5,182.5C 122.5,182.5 95.5,182.5 68.5,182.5C 68.5,147.833 68.5,113.167 68.5,78.5 Z"/></g>
<g><path style="opacity:1" fill="#fcfcfc" d="M 148.5,79.5 C 148.5,113.167 148.5,146.833 148.5,180.5C 122.498,180.667 96.4979,180.5 70.5,180C 69.9186,179.107 69.5852,178.107 69.5,177C 69.762,144.726 69.762,112.56 69.5,80.5C 95.8249,79.5002 122.158,79.1669 148.5,79.5 Z"/></g>
<g><path style="opacity:1" fill="#232323" d="M 63.5,21.5 C 62.5084,76.7915 62.1751,132.125 62.5,187.5C 61.3349,132.668 61.1682,77.6682 62,22.5C 62.3826,21.944 62.8826,21.6107 63.5,21.5 Z"/></g>
<g><path style="opacity:1" fill="#aeaeae" d="M 156.5,23.5 C 157.831,78.3348 157.831,133.335 156.5,188.5C 155.817,188.863 155.15,189.196 154.5,189.5C 156.482,134.315 157.149,78.9813 156.5,23.5 Z"/></g>
<g><path style="opacity:1" fill="#161616" d="M 134.5,107.5 C 136.262,107.357 137.929,107.691 139.5,108.5C 140.666,122.822 140.833,137.155 140,151.5C 137.959,152.423 135.792,152.756 133.5,152.5C 133.184,137.422 133.517,122.422 134.5,107.5 Z"/></g>
</svg>
