<?xml version="1.0" encoding="UTF-8"?>
<!DOCTYPE svg PUBLIC "-//W3C//DTD SVG 1.1//EN" "http://www.w3.org/Graphics/SVG/1.1/DTD/svg11.dtd">
<svg xmlns="http://www.w3.org/2000/svg" version="1.1" width="566px" height="192px" style="shape-rendering:geometricPrecision; text-rendering:geometricPrecision; image-rendering:optimizeQuality; fill-rule:evenodd; clip-rule:evenodd" xmlns:xlink="http://www.w3.org/1999/xlink">
<g><path style="opacity:0.997" fill="#fefefd" d="M -0.5,0.5 C 188.167,0.5 376.833,0.5 565.5,0.5C 565.5,64.1667 565.5,127.833 565.5,191.5C 376.833,191.5 188.167,191.5 -0.5,191.5C -0.5,127.833 -0.5,64.1667 -0.5,0.5 Z"/></g>
<g><path style="opacity:1" fill="#909090" d="M 450.5,33.5 C 446.85,32.3252 443.183,32.3252 439.5,33.5C 443.167,30.8333 446.833,30.8333 450.5,33.5 Z"/></g>
<g><path style="opacity:1" fill="#f8d7c4" d="M 234.5,43.5 C 178.664,43.8323 122.998,43.499 67.5,42.5C 123.167,42.5 178.833,42.5 234.5,42.5C 234.784,40.5853 234.451,38.9187 233.5,37.5C 233.423,36.2502 232.756,35.4169 231.5,35C 176.998,34.1682 122.665,34.3349 68.5,35.5C 67.391,35.5569 66.391,35.8902 65.5,36.5C 65.3601,34.8762 66.0267,33.7096 67.5,33C 123.071,32.8311 178.571,32.3311 234,31.5C 235.254,34.3184 236.087,37.3184 236.5,40.5C 236.547,42.0377 235.88,43.0377 234.5,43.5 Z"/></g>
<g><path style="opacity:1" fill="#cc522a" d="M 233.5,37.5 C 233.5,38.8333 233.5,40.1667 233.5,41.5C 178.167,41.5 122.833,41.5 67.5,41.5C 67.2155,39.5853 67.5489,37.9187 68.5,36.5C 68.5,36.1667 68.5,35.8333 68.5,35.5C 122.665,34.3349 176.998,34.1682 231.5,35C 232.756,35.4169 233.423,36.2502 233.5,37.5 Z"/></g>
<g><path style="opacity:1" fill="#d33605" d="M 68.5,36.5 C 123.167,36.5 177.833,36.5 232.5,36.5C 232.5,37.8333 232.5,39.1667 232.5,40.5C 177.833,40.5 123.167,40.5 68.5,40.5C 68.5,39.1667 68.5,37.8333 68.5,36.5 Z"/></g>
<g><path style="opacity:1" fill="#df8b64" d="M 68.5,35.5 C 68.5,35.8333 68.5,36.1667 68.5,36.5C 67.5489,37.9187 67.2155,39.5853 67.5,41.5C 122.833,41.5 178.167,41.5 233.5,41.5C 233.5,40.1667 233.5,38.8333 233.5,37.5C 234.451,38.9187 234.784,40.5853 234.5,42.5C 178.833,42.5 123.167,42.5 67.5,42.5C 66.8333,42.1667 66.1667,41.8333 65.5,41.5C 65.5,39.8333 65.5,38.1667 65.5,36.5C 66.391,35.8902 67.391,35.5569 68.5,35.5 Z"/></g>
<g><path style="opacity:1" fill="#f7e9c6" d="M 65.5,41.5 C 66.1667,41.8333 66.8333,42.1667 67.5,42.5C 122.998,43.499 178.664,43.8323 234.5,43.5C 233.892,48.9443 234.558,53.9443 236.5,58.5C 234.832,60.4786 234.166,62.812 234.5,65.5C 236.292,66.3091 238.292,66.8091 240.5,67C 239.944,67.3826 239.611,67.8826 239.5,68.5C 239.167,68.5 238.833,68.5 238.5,68.5C 237.833,73.6813 237.167,79.0147 236.5,84.5C 235.824,83.3984 235.158,82.3984 234.5,81.5C 178.833,81.5 123.167,81.5 67.5,81.5C 66.8333,81.5 66.1667,81.5 65.5,81.5C 65.7828,80.7109 66.2828,80.0442 67,79.5C 67.6667,68.5 67.6667,57.5 67,46.5C 66.3923,44.8455 65.8923,43.1789 65.5,41.5 Z"/></g>
<g><path style="opacity:1" fill="#2e2e2e" d="M 450.5,33.5 C 452.187,34.9176 454.02,36.2509 456,37.5C 458.552,42.6819 459.052,48.0152 457.5,53.5C 456.596,54.209 456.263,55.209 456.5,56.5C 459.5,56.5 462.5,56.5 465.5,56.5C 467.067,57.6808 467.901,59.3474 468,61.5C 468.376,68.5177 468.876,75.5177 469.5,82.5C 469.806,85.3854 469.473,88.0521 468.5,90.5C 467.343,81.7105 466.01,73.0438 464.5,64.5C 464.5,62.8333 464.5,61.1667 464.5,59.5C 460.5,59.5 456.5,59.5 452.5,59.5C 452.5,59.1667 452.5,58.8333 452.5,58.5C 453.418,54.6635 454.418,50.8301 455.5,47C 453.913,36.6298 448.413,33.4631 439,37.5C 437.025,40.5472 435.858,43.8805 435.5,47.5C 435.556,49.6397 436.223,51.3064 437.5,52.5C 438.605,54.7131 438.605,56.8797 437.5,59C 433.848,59.4986 430.182,59.6653 426.5,59.5C 426.81,62.7131 426.477,65.7131 425.5,68.5C 424.199,72.9426 423.532,77.6093 423.5,82.5C 422.521,85.6248 422.187,88.9581 422.5,92.5C 421.778,92.9175 421.278,93.5842 421,94.5C 420.503,92.1902 420.337,89.8568 420.5,87.5C 421.038,77.8101 421.872,68.1434 423,58.5C 425.82,55.5224 429.32,54.0224 433.5,54C 430.8,48.3984 431.133,42.8984 434.5,37.5C 436.419,36.3875 438.086,35.0542 439.5,33.5C 443.183,32.3252 446.85,32.3252 450.5,33.5 Z"/></g>
<g><path style="opacity:1" fill="#2c2c2c" d="M 451.5,52.5 C 450.662,52.8417 450.328,53.5084 450.5,54.5C 447.744,55.2541 445.078,55.2541 442.5,54.5C 440.381,54.5323 439.048,53.5323 438.5,51.5C 436.418,44.6585 438.751,40.3252 445.5,38.5C 452.259,40.9498 454.259,45.6165 451.5,52.5 Z"/></g>
<g><path style="opacity:1" fill="#bababa" d="M 452.5,58.5 C 452.167,56.5 451.833,54.5 451.5,52.5C 454.259,45.6165 452.259,40.9498 445.5,38.5C 438.751,40.3252 436.418,44.6585 438.5,51.5C 437.833,51.5 437.5,51.8333 437.5,52.5C 436.223,51.3064 435.556,49.6397 435.5,47.5C 435.858,43.8805 437.025,40.5472 439,37.5C 448.413,33.4631 453.913,36.6298 455.5,47C 454.418,50.8301 453.418,54.6635 452.5,58.5 Z"/></g>
<g><path style="opacity:1" fill="#e5e5e5" d="M 442.5,42.5 C 447.993,41.178 450.493,43.178 450,48.5C 446.003,53.6342 442.503,53.1342 439.5,47C 440.315,45.3566 441.315,43.8566 442.5,42.5 Z"/></g>
<g><path style="opacity:1" fill="#f8d3ca" d="M 284.5,58.5 C 283.833,58.5 283.167,58.5 282.5,58.5C 267.5,58.5 252.5,58.5 237.5,58.5C 237.167,58.5 236.833,58.5 236.5,58.5C 236.804,57.8501 237.137,57.1835 237.5,56.5C 252.155,55.3338 266.822,55.1672 281.5,56C 283.256,56.2022 284.922,56.7022 286.5,57.5C 286.043,58.2975 285.376,58.6309 284.5,58.5 Z"/></g>
<g><path style="opacity:1" fill="#fbfbfb" d="M 438.5,51.5 C 439.048,53.5323 440.381,54.5323 442.5,54.5C 442.962,55.8799 443.962,56.5466 445.5,56.5C 447.422,56.1992 449.088,55.5325 450.5,54.5C 450.328,53.5084 450.662,52.8417 451.5,52.5C 451.833,54.5 452.167,56.5 452.5,58.5C 452.5,58.8333 452.5,59.1667 452.5,59.5C 455.962,60.4816 459.629,60.815 463.5,60.5C 463.232,62.099 463.566,63.4324 464.5,64.5C 464.249,74.344 464.916,84.0106 466.5,93.5C 452.167,93.5 437.833,93.5 423.5,93.5C 423.5,89.8333 423.5,86.1667 423.5,82.5C 425.104,78.1004 425.771,73.4338 425.5,68.5C 426.477,65.7131 426.81,62.7131 426.5,59.5C 430.182,59.6653 433.848,59.4986 437.5,59C 438.605,56.8797 438.605,54.7131 437.5,52.5C 437.5,51.8333 437.833,51.5 438.5,51.5 Z"/></g>
<g><path style="opacity:1" fill="#848484" d="M 442.5,54.5 C 445.078,55.2541 447.744,55.2541 450.5,54.5C 449.088,55.5325 447.422,56.1992 445.5,56.5C 443.962,56.5466 442.962,55.8799 442.5,54.5 Z"/></g>
<g><path style="opacity:1" fill="#5a5a5a" d="M 457.5,53.5 C 460.313,54.0818 462.98,55.0818 465.5,56.5C 462.5,56.5 459.5,56.5 456.5,56.5C 456.263,55.209 456.596,54.209 457.5,53.5 Z"/></g>
<g><path style="opacity:1" fill="#d93506" d="M 237.5,59.5 C 250.5,59.5 263.5,59.5 276.5,59.5C 276.67,60.8221 276.337,61.9887 275.5,63C 262.838,63.4999 250.171,63.6666 237.5,63.5C 237.5,62.5 237.5,61.5 237.5,60.5C 237.5,60.1667 237.5,59.8333 237.5,59.5 Z"/></g>
<g><path style="opacity:1" fill="#b3b3b3" d="M 452.5,59.5 C 456.5,59.5 460.5,59.5 464.5,59.5C 464.5,61.1667 464.5,62.8333 464.5,64.5C 463.566,63.4324 463.232,62.099 463.5,60.5C 459.629,60.815 455.962,60.4816 452.5,59.5 Z"/></g>
<g><path style="opacity:1" fill="#c73b11" d="M 237.5,59.5 C 237.5,59.1667 237.5,58.8333 237.5,58.5C 252.5,58.5 267.5,58.5 282.5,58.5C 283.167,59.8333 284.167,60.8333 285.5,61.5C 286.625,62.6522 286.625,63.6522 285.5,64.5C 268.833,64.5 252.167,64.5 235.5,64.5C 235.229,62.6203 235.896,61.287 237.5,60.5C 237.5,61.5 237.5,62.5 237.5,63.5C 250.171,63.6666 262.838,63.4999 275.5,63C 276.337,61.9887 276.67,60.8221 276.5,59.5C 263.5,59.5 250.5,59.5 237.5,59.5 Z"/></g>
<g><path style="opacity:1" fill="#f5966f" d="M 236.5,58.5 C 236.833,58.5 237.167,58.5 237.5,58.5C 237.5,58.8333 237.5,59.1667 237.5,59.5C 237.5,59.8333 237.5,60.1667 237.5,60.5C 235.896,61.287 235.229,62.6203 235.5,64.5C 252.167,64.5 268.833,64.5 285.5,64.5C 268.675,65.4966 251.675,65.8299 234.5,65.5C 234.166,62.812 234.832,60.4786 236.5,58.5 Z"/></g>
<g><path style="opacity:1" fill="#f4c8a7" d="M 285.5,61.5 C 288.017,63.0771 288.017,64.9104 285.5,67C 287.314,69.4815 287.98,72.3148 287.5,75.5C 286.833,73.8333 286.167,72.1667 285.5,70.5C 270.536,68.5159 255.203,67.8493 239.5,68.5C 239.611,67.8826 239.944,67.3826 240.5,67C 238.292,66.8091 236.292,66.3091 234.5,65.5C 251.675,65.8299 268.675,65.4966 285.5,64.5C 286.625,63.6522 286.625,62.6522 285.5,61.5 Z"/></g>
<g><path style="opacity:1" fill="#b95f49" d="M 239.5,68.5 C 255.203,67.8493 270.536,68.5159 285.5,70.5C 285.663,72.8568 285.497,75.1902 285,77.5C 284.667,75.5 284.333,73.5 284,71.5C 283.25,70.8742 282.416,70.3742 281.5,70C 268.327,69.1731 255.327,69.3398 242.5,70.5C 241.506,79.9856 241.173,89.6522 241.5,99.5C 240.833,99.5 240.167,99.5 239.5,99.5C 239.5,89.1667 239.5,78.8333 239.5,68.5 Z"/></g>
<g><path style="opacity:1" fill="#bf7865" d="M 242.5,70.5 C 255.327,69.3398 268.327,69.1731 281.5,70C 282.416,70.3742 283.25,70.8742 284,71.5C 284.333,73.5 284.667,75.5 285,77.5C 285.497,75.1902 285.663,72.8568 285.5,70.5C 286.167,72.1667 286.833,73.8333 287.5,75.5C 287.294,80.6572 287.961,85.6572 289.5,90.5C 289.306,94.0048 288.306,94.3382 286.5,91.5C 286.966,87.0184 285.966,83.0184 283.5,79.5C 283.663,77.1432 283.497,74.8098 283,72.5C 282.329,71.7476 281.496,71.4142 280.5,71.5C 268.011,70.5046 255.344,70.1713 242.5,70.5 Z"/></g>
<g><path style="opacity:1" fill="#0f0f0f" d="M 450.5,72.5 C 448.833,72.5 447.167,72.5 445.5,72.5C 445.5,76.5 445.5,80.5 445.5,84.5C 443.875,81.1091 442.875,77.4425 442.5,73.5C 441.791,72.596 440.791,72.2627 439.5,72.5C 440.871,71.2132 442.705,70.5465 445,70.5C 447.295,70.5465 449.129,71.2132 450.5,72.5 Z"/></g>
<g><path style="opacity:1" fill="#a9a9a9" d="M 439.5,72.5 C 440.791,72.2627 441.791,72.596 442.5,73.5C 442.5,77.1667 442.5,80.8333 442.5,84.5C 442.023,80.3795 441.023,76.3795 439.5,72.5 Z"/></g>
<g><path style="opacity:1" fill="#606060" d="M 442.5,73.5 C 442.875,77.4425 443.875,81.1091 445.5,84.5C 444.5,85.8333 443.5,85.8333 442.5,84.5C 442.5,80.8333 442.5,77.1667 442.5,73.5 Z"/></g>
<g><path style="opacity:1" fill="#acacac" d="M 450.5,72.5 C 449.432,73.4345 448.099,73.7678 446.5,73.5C 446.815,77.3714 446.482,81.0381 445.5,84.5C 445.5,80.5 445.5,76.5 445.5,72.5C 447.167,72.5 448.833,72.5 450.5,72.5 Z"/></g>
<g><path style="opacity:1" fill="#9fd6f6" d="M 262.5,71.5 C 268.5,71.5 274.5,71.5 280.5,71.5C 281.496,71.4142 282.329,71.7476 283,72.5C 283.497,74.8098 283.663,77.1432 283.5,79.5C 285.182,85.6799 285.848,92.0133 285.5,98.5C 284.167,98.5 282.833,98.5 281.5,98.5C 276.701,91.6001 271.867,84.6001 267,77.5C 265.846,76.2567 264.512,75.2567 263,74.5C 262.517,73.552 262.351,72.552 262.5,71.5 Z"/></g>
<g><path style="opacity:1" fill="#a0a0a0" d="M 425.5,68.5 C 425.771,73.4338 425.104,78.1004 423.5,82.5C 423.532,77.6093 424.199,72.9426 425.5,68.5 Z"/></g>
<g><path style="opacity:1" fill="#9ed6f7" d="M 246.5,71.5 C 253.152,80.7877 259.818,90.121 266.5,99.5C 258.5,99.5 250.5,99.5 242.5,99.5C 242.5,90.1667 242.5,80.8333 242.5,71.5C 243.833,71.5 245.167,71.5 246.5,71.5 Z"/></g>
<g><path style="opacity:1" fill="#daf0f9" d="M 246.5,71.5 C 251.833,71.5 257.167,71.5 262.5,71.5C 262.351,72.552 262.517,73.552 263,74.5C 264.512,75.2567 265.846,76.2567 267,77.5C 271.867,84.6001 276.701,91.6001 281.5,98.5C 276.695,99.4872 271.695,99.8205 266.5,99.5C 259.818,90.121 253.152,80.7877 246.5,71.5 Z"/></g>
<g><path style="opacity:1" fill="#faf3e7" d="M 65.5,36.5 C 65.5,38.1667 65.5,39.8333 65.5,41.5C 65.8923,43.1789 66.3923,44.8455 67,46.5C 67.6667,57.5 67.6667,68.5 67,79.5C 66.2828,80.0442 65.7828,80.7109 65.5,81.5C 65.5,82.8333 65.5,84.1667 65.5,85.5C 65.8333,86.8333 66.1667,88.1667 66.5,89.5C 65.2248,92.6038 65.2248,95.6038 66.5,98.5C 66.5,99.1667 66.5,99.8333 66.5,100.5C 66.1667,102.5 65.8333,104.5 65.5,106.5C 65.5,106.833 65.5,107.167 65.5,107.5C 64.5041,107.414 63.6708,107.748 63,108.5C 62.5005,114.825 62.3338,121.158 62.5,127.5C 61.8826,127.389 61.3826,127.056 61,126.5C 60.6667,121.5 60.3333,116.5 60,111.5C 59.6667,111.833 59.3333,112.167 59,112.5C 57.5886,110.35 56.7553,108.016 56.5,105.5C 59.1194,105.768 61.6194,105.435 64,104.5C 64.4995,98.1754 64.6662,91.8421 64.5,85.5C 58.0881,84.3097 57.2548,81.643 62,77.5C 62.414,77.9574 62.914,78.2907 63.5,78.5C 64.7799,64.3328 65.4466,50.3328 65.5,36.5 Z"/></g>
<g><path style="opacity:1" fill="#c94618" d="M 67.5,82.5 C 122.833,82.5 178.167,82.5 233.5,82.5C 233.5,83.5 233.5,84.5 233.5,85.5C 178.5,85.5 123.5,85.5 68.5,85.5C 67.596,84.791 67.2627,83.791 67.5,82.5 Z"/></g>
<g><path style="opacity:1" fill="#d26d42" d="M 67.5,82.5 C 67.5,82.1667 67.5,81.8333 67.5,81.5C 123.167,81.5 178.833,81.5 234.5,81.5C 234.5,83.1667 234.5,84.8333 234.5,86.5C 178.997,86.8323 123.664,86.499 68.5,85.5C 123.5,85.5 178.5,85.5 233.5,85.5C 233.5,84.5 233.5,83.5 233.5,82.5C 178.167,82.5 122.833,82.5 67.5,82.5 Z"/></g>
<g><path style="opacity:1" fill="#e7b08b" d="M 65.5,81.5 C 66.1667,81.5 66.8333,81.5 67.5,81.5C 67.5,81.8333 67.5,82.1667 67.5,82.5C 67.2627,83.791 67.596,84.791 68.5,85.5C 123.664,86.499 178.997,86.8323 234.5,86.5C 179.002,87.6652 123.335,87.8318 67.5,87C 66.9558,86.2828 66.2891,85.7828 65.5,85.5C 65.5,84.1667 65.5,82.8333 65.5,81.5 Z"/></g>
<g><path style="opacity:1" fill="#eda883" d="M 66.5,89.5 C 122.843,88.8374 178.843,89.5041 234.5,91.5C 234.167,91.5 233.833,91.5 233.5,91.5C 178.335,90.3348 123.002,90.1682 67.5,91C 66.565,93.3806 66.2317,95.8806 66.5,98.5C 65.2248,95.6038 65.2248,92.6038 66.5,89.5 Z"/></g>
<g><path style="opacity:1" fill="#c69573" d="M 289.5,90.5 C 291.223,92.78 291.889,95.4467 291.5,98.5C 292.146,100.156 292.813,101.823 293.5,103.5C 293.253,104.713 292.586,105.38 291.5,105.5C 291.254,102.53 289.588,101.197 286.5,101.5C 271.324,101.829 256.324,101.496 241.5,100.5C 257.167,100.5 272.833,100.5 288.5,100.5C 288.442,97.3356 287.776,94.3356 286.5,91.5C 288.306,94.3382 289.306,94.0048 289.5,90.5 Z"/></g>
<g><path style="opacity:1" fill="#f7e9d0" d="M 282.5,58.5 C 283.167,58.5 283.833,58.5 284.5,58.5C 285.287,60.1042 286.62,60.7709 288.5,60.5C 289.899,71.7238 291.565,82.8905 293.5,94C 293.492,95.7067 293.158,97.2067 292.5,98.5C 292.167,98.5 291.833,98.5 291.5,98.5C 291.889,95.4467 291.223,92.78 289.5,90.5C 287.961,85.6572 287.294,80.6572 287.5,75.5C 287.98,72.3148 287.314,69.4815 285.5,67C 288.017,64.9104 288.017,63.0771 285.5,61.5C 284.167,60.8333 283.167,59.8333 282.5,58.5 Z"/></g>
<g><path style="opacity:1" fill="#bbbbbb" d="M 464.5,64.5 C 466.01,73.0438 467.343,81.7105 468.5,90.5C 468.5,91.8333 468.5,93.1667 468.5,94.5C 452.797,95.1507 437.464,94.4841 422.5,92.5C 422.187,88.9581 422.521,85.6248 423.5,82.5C 423.5,86.1667 423.5,89.8333 423.5,93.5C 437.833,93.5 452.167,93.5 466.5,93.5C 464.916,84.0106 464.249,74.344 464.5,64.5 Z"/></g>
<g><path style="opacity:1" fill="#5b5b5b" d="M 469.5,82.5 C 470.8,84.223 471.467,86.3897 471.5,89C 471.333,91.1667 471.167,93.3333 471,95.5C 470.292,96.3805 469.458,97.0472 468.5,97.5C 461.03,96.169 453.196,95.5023 445,95.5C 436.993,95.5003 429.159,95.8336 421.5,96.5C 420.235,95.4855 419.569,93.9855 419.5,92C 419.508,90.2933 419.842,88.7933 420.5,87.5C 420.337,89.8568 420.503,92.1902 421,94.5C 421.278,93.5842 421.778,92.9175 422.5,92.5C 437.464,94.4841 452.797,95.1507 468.5,94.5C 468.5,93.1667 468.5,91.8333 468.5,90.5C 469.473,88.0521 469.806,85.3854 469.5,82.5 Z"/></g>
<g><path style="opacity:1" fill="#3e3e3e" d="M 468.5,97.5 C 460.841,98.1664 453.007,98.4997 445,98.5C 436.804,98.4977 428.97,97.831 421.5,96.5C 429.159,95.8336 436.993,95.5003 445,95.5C 453.196,95.5023 461.03,96.169 468.5,97.5 Z"/></g>
<g><path style="opacity:1" fill="#d85e31" d="M 233.5,91.5 C 233.833,91.5 234.167,91.5 234.5,91.5C 234.5,94.1667 234.5,96.8333 234.5,99.5C 178.428,99.8289 122.428,99.4956 66.5,98.5C 66.2317,95.8806 66.565,93.3806 67.5,91C 123.002,90.1682 178.335,90.3348 233.5,91.5 Z"/></g>
<g><path style="opacity:1" fill="#d73405" d="M 233.5,91.5 C 233.5,93.8333 233.5,96.1667 233.5,98.5C 178.832,98.6667 124.166,98.5 69.5,98C 68.5769,95.9592 68.2436,93.7925 68.5,91.5C 123.5,91.5 178.5,91.5 233.5,91.5 Z"/></g>
<g><path style="opacity:1" fill="#e69367" d="M 66.5,98.5 C 122.428,99.4956 178.428,99.8289 234.5,99.5C 178.669,100.499 122.669,100.832 66.5,100.5C 66.5,99.8333 66.5,99.1667 66.5,98.5 Z"/></g>
<g><path style="opacity:1" fill="#c8bbbe" d="M 242.5,70.5 C 255.344,70.1713 268.011,70.5046 280.5,71.5C 274.5,71.5 268.5,71.5 262.5,71.5C 257.167,71.5 251.833,71.5 246.5,71.5C 245.167,71.5 243.833,71.5 242.5,71.5C 242.5,80.8333 242.5,90.1667 242.5,99.5C 250.5,99.5 258.5,99.5 266.5,99.5C 271.695,99.8205 276.695,99.4872 281.5,98.5C 282.833,98.5 284.167,98.5 285.5,98.5C 285.848,92.0133 285.182,85.6799 283.5,79.5C 285.966,83.0184 286.966,87.0184 286.5,91.5C 287.776,94.3356 288.442,97.3356 288.5,100.5C 272.833,100.5 257.167,100.5 241.5,100.5C 241.5,100.167 241.5,99.8333 241.5,99.5C 241.173,89.6522 241.506,79.9856 242.5,70.5 Z"/></g>
<g><path style="opacity:1" fill="#e39478" d="M 325.5,101.5 C 333.142,102.192 340.808,102.692 348.5,103C 349.737,103.232 350.737,103.732 351.5,104.5C 350.167,104.5 348.833,104.5 347.5,104.5C 340.223,103.57 332.89,103.236 325.5,103.5C 318.689,102.435 311.689,101.768 304.5,101.5C 301.41,101.522 298.743,102.188 296.5,103.5C 295.596,102.791 295.263,101.791 295.5,100.5C 305.514,100.501 315.514,100.834 325.5,101.5 Z"/></g>
<g><path style="opacity:1" fill="#e1704a" d="M 67.5,104.5 C 122.998,103.501 178.664,103.168 234.5,103.5C 234.5,116.833 234.5,130.167 234.5,143.5C 233.505,131.345 233.171,119.011 233.5,106.5C 178.51,104.504 123.177,103.837 67.5,104.5 Z"/></g>
<g><path style="opacity:1" fill="#d6360b" d="M 325.5,103.5 C 332.89,103.236 340.223,103.57 347.5,104.5C 348.568,105.434 349.901,105.768 351.5,105.5C 343.361,106.831 334.861,107.498 326,107.5C 317.5,107.167 309,106.833 300.5,106.5C 299.96,105.252 299.293,104.085 298.5,103C 299.833,102.833 301.167,102.667 302.5,102.5C 310.142,103.358 317.809,103.692 325.5,103.5 Z"/></g>
<g><path style="opacity:1" fill="#d14519" d="M 67.5,104.5 C 123.177,103.837 178.51,104.504 233.5,106.5C 178.571,105.338 123.571,105.171 68.5,106C 67.7894,107.255 66.956,108.421 66,109.5C 65.3333,114.167 65.3333,118.833 66,123.5C 66.3678,124.91 67.2011,125.91 68.5,126.5C 69.3078,128.423 69.8078,130.423 70,132.5C 70.9947,133.066 71.828,133.733 72.5,134.5C 70.8333,134.5 69.1667,134.5 67.5,134.5C 67.1667,134.5 66.8333,134.5 66.5,134.5C 66.9984,131.319 66.1651,128.653 64,126.5C 63.3333,120.833 63.3333,115.167 64,109.5C 64.7172,108.956 65.2172,108.289 65.5,107.5C 65.5,107.167 65.5,106.833 65.5,106.5C 66.1667,105.833 66.8333,105.167 67.5,104.5 Z"/></g>
<g><path style="opacity:1" fill="#f4c0ab" d="M 252.5,108.5 C 250.052,109.473 247.385,109.806 244.5,109.5C 243.833,109.5 243.5,109.167 243.5,108.5C 243.5,107.5 243.5,106.5 243.5,105.5C 246.5,105.5 249.5,105.5 252.5,105.5C 252.5,106.5 252.5,107.5 252.5,108.5 Z"/></g>
<g><path style="opacity:1" fill="#dc3302" d="M 243.5,140.5 C 242.504,140.586 241.671,140.252 241,139.5C 240.168,128.818 240.334,118.151 241.5,107.5C 242.183,107.863 242.85,108.196 243.5,108.5C 243.5,109.167 243.833,109.5 244.5,109.5C 244.97,110.693 245.97,111.36 247.5,111.5C 250.179,111.064 252.845,110.564 255.5,110C 256.406,108.301 256.739,106.467 256.5,104.5C 266.468,103.604 276.468,103.271 286.5,103.5C 286.5,104.5 286.5,105.5 286.5,106.5C 287.5,106.5 288.5,106.5 289.5,106.5C 289.5,117.833 289.5,129.167 289.5,140.5C 274.167,140.5 258.833,140.5 243.5,140.5 Z"/></g>
<g><path style="opacity:1" fill="#db3302" d="M 233.5,106.5 C 233.171,119.011 233.505,131.345 234.5,143.5C 234.5,143.833 234.5,144.167 234.5,144.5C 234.167,145.167 233.833,145.833 233.5,146.5C 231.821,146.892 230.154,147.392 228.5,148C 208.503,148.5 188.503,148.667 168.5,148.5C 168.665,145.482 168.498,142.482 168,139.5C 167.292,138.619 166.458,137.953 165.5,137.5C 164.92,135.251 163.587,133.585 161.5,132.5C 160.137,129.402 157.803,127.735 154.5,127.5C 152.887,125.912 150.887,124.912 148.5,124.5C 147.129,123.213 145.295,122.547 143,122.5C 136.009,123.746 129.509,126.246 123.5,130C 121.443,134.054 119.609,138.221 118,142.5C 117.505,144.473 117.338,146.473 117.5,148.5C 102.152,148.833 86.8189,148.499 71.5,147.5C 72.6283,146.738 73.7949,146.071 75,145.5C 75.4986,141.848 75.6653,138.182 75.5,134.5C 74.5,134.5 73.5,134.5 72.5,134.5C 71.828,133.733 70.9947,133.066 70,132.5C 69.8078,130.423 69.3078,128.423 68.5,126.5C 67.2011,125.91 66.3678,124.91 66,123.5C 65.3333,118.833 65.3333,114.167 66,109.5C 66.956,108.421 67.7894,107.255 68.5,106C 123.571,105.171 178.571,105.338 233.5,106.5 Z"/></g>
<g><path style="opacity:1" fill="#cd4a20" d="M 325.5,103.5 C 317.809,103.692 310.142,103.358 302.5,102.5C 301.167,102.667 299.833,102.833 298.5,103C 299.293,104.085 299.96,105.252 300.5,106.5C 309,106.833 317.5,107.167 326,107.5C 334.861,107.498 343.361,106.831 351.5,105.5C 352.404,106.209 352.737,107.209 352.5,108.5C 334.833,108.5 317.167,108.5 299.5,108.5C 298.075,107.078 297.075,105.411 296.5,103.5C 298.743,102.188 301.41,101.522 304.5,101.5C 311.689,101.768 318.689,102.435 325.5,103.5 Z"/></g>
<g><path style="opacity:1" fill="#efcead" d="M 291.5,98.5 C 291.833,98.5 292.167,98.5 292.5,98.5C 303.55,98.9832 314.55,99.9832 325.5,101.5C 315.514,100.834 305.514,100.501 295.5,100.5C 295.263,101.791 295.596,102.791 296.5,103.5C 297.075,105.411 298.075,107.078 299.5,108.5C 299.5,108.833 299.5,109.167 299.5,109.5C 298.5,109.5 297.5,109.5 296.5,109.5C 296.5,108.5 296.5,107.5 296.5,106.5C 295.5,106.5 294.5,106.5 293.5,106.5C 293.5,117.167 293.5,127.833 293.5,138.5C 293.5,140.167 293.5,141.833 293.5,143.5C 293.167,143.5 292.833,143.5 292.5,143.5C 291.761,143.631 291.094,143.464 290.5,143C 291.252,142.329 291.586,141.496 291.5,140.5C 291.5,128.833 291.5,117.167 291.5,105.5C 292.586,105.38 293.253,104.713 293.5,103.5C 292.813,101.823 292.146,100.156 291.5,98.5 Z"/></g>
<g><path style="opacity:1" fill="#d5774e" d="M 347.5,104.5 C 348.833,104.5 350.167,104.5 351.5,104.5C 353.027,104.427 354.027,105.094 354.5,106.5C 354.5,107.5 354.5,108.5 354.5,109.5C 337.167,109.5 319.833,109.5 302.5,109.5C 301.5,109.5 300.5,109.5 299.5,109.5C 299.5,109.167 299.5,108.833 299.5,108.5C 317.167,108.5 334.833,108.5 352.5,108.5C 352.737,107.209 352.404,106.209 351.5,105.5C 349.901,105.768 348.568,105.434 347.5,104.5 Z"/></g>
<g><path style="opacity:1" fill="#f5c39e" d="M 354.5,106.5 C 355.467,107.806 356.801,108.473 358.5,108.5C 358.5,109.5 358.5,110.5 358.5,111.5C 357.849,110.909 357.182,110.243 356.5,109.5C 355.167,115.5 355.167,121.5 356.5,127.5C 357.182,126.757 357.849,126.091 358.5,125.5C 358.5,125.833 358.5,126.167 358.5,126.5C 358.5,127.5 358.5,128.5 358.5,129.5C 357.041,129.433 355.708,129.766 354.5,130.5C 354.5,123.833 354.5,117.167 354.5,110.5C 336.992,110.83 319.659,110.497 302.5,109.5C 319.833,109.5 337.167,109.5 354.5,109.5C 354.5,108.5 354.5,107.5 354.5,106.5 Z"/></g>
<g><path style="opacity:1" fill="#fad6b1" d="M 238.5,68.5 C 238.5,93.1667 238.5,117.833 238.5,142.5C 237.5,142.5 236.5,142.5 235.5,142.5C 235.829,129.323 235.495,116.323 234.5,103.5C 178.664,103.168 122.998,103.501 67.5,104.5C 66.8333,105.167 66.1667,105.833 65.5,106.5C 65.8333,104.5 66.1667,102.5 66.5,100.5C 122.669,100.832 178.669,100.499 234.5,99.5C 234.5,96.8333 234.5,94.1667 234.5,91.5C 178.843,89.5041 122.843,88.8374 66.5,89.5C 66.1667,88.1667 65.8333,86.8333 65.5,85.5C 66.2891,85.7828 66.9558,86.2828 67.5,87C 123.335,87.8318 179.002,87.6652 234.5,86.5C 234.5,84.8333 234.5,83.1667 234.5,81.5C 235.158,82.3984 235.824,83.3984 236.5,84.5C 237.167,79.0147 237.833,73.6813 238.5,68.5 Z"/></g>
<g><path style="opacity:1" fill="#f6e9c8" d="M 299.5,109.5 C 300.5,109.5 301.5,109.5 302.5,109.5C 319.659,110.497 336.992,110.83 354.5,110.5C 354.5,117.167 354.5,123.833 354.5,130.5C 354.5,132.167 354.5,133.833 354.5,135.5C 351.813,135.336 349.146,135.503 346.5,136C 345.565,138.381 345.232,140.881 345.5,143.5C 344.167,143.5 342.833,143.5 341.5,143.5C 341.339,137.849 338.672,133.849 333.5,131.5C 332.833,130.5 332.167,129.5 331.5,128.5C 330.014,126.381 328.014,124.881 325.5,124C 320.833,123.333 316.167,123.333 311.5,124C 310.584,124.278 309.918,124.778 309.5,125.5C 306.089,125.657 303.422,126.991 301.5,129.5C 298.145,131.857 295.478,134.857 293.5,138.5C 293.5,127.833 293.5,117.167 293.5,106.5C 294.5,106.5 295.5,106.5 296.5,106.5C 296.5,107.5 296.5,108.5 296.5,109.5C 297.5,109.5 298.5,109.5 299.5,109.5 Z"/></g>
<g><path style="opacity:1" fill="#d3441a" d="M 286.5,102.5 C 287.583,102.539 288.583,102.873 289.5,103.5C 290.499,115.815 290.832,128.149 290.5,140.5C 290.5,141.167 290.167,141.5 289.5,141.5C 273.991,141.83 258.658,141.496 243.5,140.5C 258.833,140.5 274.167,140.5 289.5,140.5C 289.5,129.167 289.5,117.833 289.5,106.5C 288.5,106.5 287.5,106.5 286.5,106.5C 286.5,105.5 286.5,104.5 286.5,103.5C 276.468,103.271 266.468,103.604 256.5,104.5C 256.739,106.467 256.406,108.301 255.5,110C 252.845,110.564 250.179,111.064 247.5,111.5C 245.97,111.36 244.97,110.693 244.5,109.5C 247.385,109.806 250.052,109.473 252.5,108.5C 254.176,107.817 254.843,106.483 254.5,104.5C 249.786,104.827 245.12,104.493 240.5,103.5C 255.819,102.501 271.152,102.167 286.5,102.5 Z"/></g>
<g><path style="opacity:1" fill="#de7e54" d="M 286.5,102.5 C 286.5,102.167 286.5,101.833 286.5,101.5C 289.588,101.197 291.254,102.53 291.5,105.5C 291.5,117.167 291.5,128.833 291.5,140.5C 291.167,140.5 290.833,140.5 290.5,140.5C 290.832,128.149 290.499,115.815 289.5,103.5C 288.583,102.873 287.583,102.539 286.5,102.5 Z"/></g>
<g><path style="opacity:1" fill="#f8dba7" d="M 358.5,111.5 C 360.922,112.692 361.922,114.692 361.5,117.5C 361.318,120.226 360.818,122.893 360,125.5C 359.617,126.056 359.117,126.389 358.5,126.5C 358.5,126.167 358.5,125.833 358.5,125.5C 359.762,120.819 359.762,116.152 358.5,111.5 Z"/></g>
<g><path style="opacity:1" fill="#d25634" d="M 239.5,99.5 C 240.167,99.5 240.833,99.5 241.5,99.5C 241.5,99.8333 241.5,100.167 241.5,100.5C 256.324,101.496 271.324,101.829 286.5,101.5C 286.5,101.833 286.5,102.167 286.5,102.5C 271.152,102.167 255.819,102.501 240.5,103.5C 245.12,104.493 249.786,104.827 254.5,104.5C 254.843,106.483 254.176,107.817 252.5,108.5C 252.5,107.5 252.5,106.5 252.5,105.5C 249.5,105.5 246.5,105.5 243.5,105.5C 243.5,106.5 243.5,107.5 243.5,108.5C 242.85,108.196 242.183,107.863 241.5,107.5C 240.334,118.151 240.168,128.818 241,139.5C 241.671,140.252 242.504,140.586 243.5,140.5C 258.658,141.496 273.991,141.83 289.5,141.5C 273.008,142.497 256.342,142.83 239.5,142.5C 239.5,128.167 239.5,113.833 239.5,99.5 Z"/></g>
<g><path style="opacity:1" fill="#525252" d="M 491.5,143.5 C 491.5,136.833 491.5,130.167 491.5,123.5C 489.801,123.34 488.134,123.506 486.5,124C 485.748,124.671 485.414,125.504 485.5,126.5C 483.153,125.393 482.82,123.726 484.5,121.5C 489.985,120.348 495.651,120.182 501.5,121C 502.973,121.71 503.64,122.876 503.5,124.5C 500.833,124.167 498.167,123.833 495.5,123.5C 495.5,130.167 495.5,136.833 495.5,143.5C 494.167,143.5 492.833,143.5 491.5,143.5 Z"/></g>
<g><path style="opacity:1" fill="#b8b8b8" d="M 411.5,130.5 C 411.854,124.796 409.187,122.963 403.5,125C 402.748,125.671 402.414,126.504 402.5,127.5C 401.201,125.847 401.534,124.347 403.5,123C 410.817,121.153 413.484,123.653 411.5,130.5 Z"/></g>
<g><path style="opacity:1" fill="#474747" d="M 436.5,120.5 C 439.588,120.197 441.254,121.53 441.5,124.5C 439.585,124.784 437.919,124.451 436.5,123.5C 435.432,122.566 434.099,122.232 432.5,122.5C 431.5,121.167 430.5,121.167 429.5,122.5C 427.801,122.34 426.134,122.506 424.5,123C 423.748,123.671 423.414,124.504 423.5,125.5C 422.791,126.404 421.791,126.737 420.5,126.5C 420.297,124.61 420.963,123.11 422.5,122C 427.066,120.691 431.733,120.191 436.5,120.5 Z"/></g>
<g><path style="opacity:1" fill="#9d361a" d="M 148.5,124.5 C 144.818,124.335 141.152,124.501 137.5,125C 136.584,125.278 135.918,125.778 135.5,126.5C 129.42,127.314 125.42,130.648 123.5,136.5C 120.968,140.231 118.968,144.231 117.5,148.5C 117.338,146.473 117.505,144.473 118,142.5C 119.609,138.221 121.443,134.054 123.5,130C 129.509,126.246 136.009,123.746 143,122.5C 145.295,122.547 147.129,123.213 148.5,124.5 Z"/></g>
<g><path style="opacity:1" fill="#aba38e" d="M 331.5,128.5 C 324.621,124.586 317.288,123.586 309.5,125.5C 309.918,124.778 310.584,124.278 311.5,124C 316.167,123.333 320.833,123.333 325.5,124C 328.014,124.881 330.014,126.381 331.5,128.5 Z"/></g>
<g><path style="opacity:1" fill="#d46433" d="M 358.5,111.5 C 359.762,116.152 359.762,120.819 358.5,125.5C 357.849,126.091 357.182,126.757 356.5,127.5C 355.167,121.5 355.167,115.5 356.5,109.5C 357.182,110.243 357.849,110.909 358.5,111.5 Z"/></g>
<g><path style="opacity:1" fill="#999999" d="M 429.5,122.5 C 429.5,129.5 429.5,136.5 429.5,143.5C 428.509,137.021 428.176,130.354 428.5,123.5C 426.486,123.392 424.82,124.058 423.5,125.5C 423.414,124.504 423.748,123.671 424.5,123C 426.134,122.506 427.801,122.34 429.5,122.5 Z"/></g>
<g><path style="opacity:1" fill="#434343" d="M 429.5,122.5 C 430.328,128.987 430.828,135.654 431,142.5C 431.21,140.942 431.71,139.609 432.5,138.5C 432.5,139.833 432.5,141.167 432.5,142.5C 431.791,143.404 430.791,143.737 429.5,143.5C 429.5,136.5 429.5,129.5 429.5,122.5 Z"/></g>
<g><path style="opacity:1" fill="#9d9d9d" d="M 484.5,121.5 C 482.82,123.726 483.153,125.393 485.5,126.5C 484.791,127.404 483.791,127.737 482.5,127.5C 482.025,124.918 482.692,122.918 484.5,121.5 Z"/></g>
<g><path style="opacity:1" fill="#c4c4c4" d="M 491.5,143.5 C 490.51,137.355 490.177,131.022 490.5,124.5C 488.486,124.392 486.82,125.058 485.5,126.5C 485.414,125.504 485.748,124.671 486.5,124C 488.134,123.506 489.801,123.34 491.5,123.5C 491.5,130.167 491.5,136.833 491.5,143.5 Z"/></g>
<g><path style="opacity:1" fill="#592f1d" d="M 148.5,124.5 C 150.887,124.912 152.887,125.912 154.5,127.5C 148.225,126.582 141.892,126.249 135.5,126.5C 135.918,125.778 136.584,125.278 137.5,125C 141.152,124.501 144.818,124.335 148.5,124.5 Z"/></g>
<g><path style="opacity:1" fill="#afafaf" d="M 436.5,120.5 C 431.733,120.191 427.066,120.691 422.5,122C 420.963,123.11 420.297,124.61 420.5,126.5C 418.848,123.375 419.848,121.208 423.5,120C 428.02,119.186 432.354,119.353 436.5,120.5 Z"/></g>
<g><path style="opacity:1" fill="#1c1c1c" d="M 429.5,122.5 C 430.5,121.167 431.5,121.167 432.5,122.5C 432.5,127.833 432.5,133.167 432.5,138.5C 431.71,139.609 431.21,140.942 431,142.5C 430.828,135.654 430.328,128.987 429.5,122.5 Z"/></g>
<g><path style="opacity:1" fill="#8a8a8a" d="M 432.5,122.5 C 434.099,122.232 435.432,122.566 436.5,123.5C 435.5,123.5 434.5,123.5 433.5,123.5C 433.823,130.022 433.49,136.355 432.5,142.5C 432.5,141.167 432.5,139.833 432.5,138.5C 432.5,133.167 432.5,127.833 432.5,122.5 Z"/></g>
<g><path style="opacity:1" fill="#1d1d1d" d="M 491.5,122.5 C 492.601,121.402 493.934,121.235 495.5,122C 494.85,128.778 494.183,135.611 493.5,142.5C 492.833,135.679 492.167,129.012 491.5,122.5 Z"/></g>
<g><path style="opacity:1" fill="#231c1a" d="M 135.5,126.5 C 141.892,126.249 148.225,126.582 154.5,127.5C 155.187,131.352 157.521,133.019 161.5,132.5C 161.343,133.873 161.51,135.207 162,136.5C 162.9,138.398 164.066,140.064 165.5,141.5C 166.48,144.086 166.813,146.753 166.5,149.5C 166.167,149.5 165.833,149.5 165.5,149.5C 163.722,152.902 162.389,156.569 161.5,160.5C 158.833,162.5 156.5,164.833 154.5,167.5C 152.142,167.253 150.142,167.919 148.5,169.5C 143.009,169.85 137.676,169.184 132.5,167.5C 126.264,163.02 122.597,157.02 121.5,149.5C 121.276,144.941 121.942,140.608 123.5,136.5C 125.42,130.648 129.42,127.314 135.5,126.5 Z"/></g>
<g><path style="opacity:1" fill="#3b3b3b" d="M 473.5,124.5 C 474.003,129.172 474.169,133.839 474,138.5C 471.519,140.314 468.685,140.98 465.5,140.5C 464.833,140.5 464.5,140.167 464.5,139.5C 464.281,138.325 464.614,137.325 465.5,136.5C 468.778,138.325 471.112,137.658 472.5,134.5C 472.253,133.287 471.586,132.62 470.5,132.5C 469.791,131.596 468.791,131.263 467.5,131.5C 467.5,130.5 467.5,129.5 467.5,128.5C 468.978,128.762 470.311,128.429 471.5,127.5C 469.955,126.548 468.288,126.215 466.5,126.5C 466.5,125.5 466.5,124.5 466.5,123.5C 469.059,123.198 471.393,123.532 473.5,124.5 Z"/></g>
<g><path style="opacity:1" fill="#f1bb9f" d="M 65.5,107.5 C 65.2172,108.289 64.7172,108.956 64,109.5C 63.3333,115.167 63.3333,120.833 64,126.5C 66.1651,128.653 66.9984,131.319 66.5,134.5C 66.1667,134.5 65.8333,134.5 65.5,134.5C 65.1667,134.5 64.8333,134.5 64.5,134.5C 64.8294,131.772 64.1628,129.438 62.5,127.5C 62.3338,121.158 62.5005,114.825 63,108.5C 63.6708,107.748 64.5041,107.414 65.5,107.5 Z"/></g>
<g><path style="opacity:1" fill="#582d1c" d="M 154.5,127.5 C 157.803,127.735 160.137,129.402 161.5,132.5C 157.521,133.019 155.187,131.352 154.5,127.5 Z"/></g>
<g><path style="opacity:1" fill="#535353" d="M 449.5,129.5 C 451.5,129.5 453.5,129.5 455.5,129.5C 455.5,130.5 455.5,131.5 455.5,132.5C 453.5,132.5 451.5,132.5 449.5,132.5C 449.5,131.5 449.5,130.5 449.5,129.5 Z"/></g>
<g><path style="opacity:1" fill="#474747" d="M 411.5,130.5 C 411.443,131.609 411.11,132.609 410.5,133.5C 409.038,134.458 407.705,135.624 406.5,137C 407.094,137.464 407.761,137.631 408.5,137.5C 406.95,138.72 405.284,138.72 403.5,137.5C 403.833,136.833 404.167,136.167 404.5,135.5C 407.076,133.112 408.076,130.112 407.5,126.5C 405.784,126.629 404.117,126.962 402.5,127.5C 402.414,126.504 402.748,125.671 403.5,125C 409.187,122.963 411.854,124.796 411.5,130.5 Z"/></g>
<g><path style="opacity:1" fill="#231e1b" d="M 333.5,131.5 C 334.48,134.116 335.98,136.449 338,138.5C 339.237,142.06 339.737,145.727 339.5,149.5C 337.96,151.838 337.294,154.505 337.5,157.5C 336.833,157.5 336.5,157.833 336.5,158.5C 334.453,160.55 332.786,162.883 331.5,165.5C 330.395,166.6 329.062,167.267 327.5,167.5C 320.744,170.07 314.078,170.07 307.5,167.5C 304.21,165.876 301.543,163.543 299.5,160.5C 299.25,158.326 298.25,156.659 296.5,155.5C 296.795,153.265 296.461,151.265 295.5,149.5C 295.5,146.5 295.5,143.5 295.5,140.5C 297.891,136.922 300.558,133.422 303.5,130C 305.974,129.887 307.974,128.887 309.5,127C 314.167,126.333 318.833,126.333 323.5,127C 326.85,128.61 330.184,130.11 333.5,131.5 Z"/></g>
<g><path style="opacity:1" fill="#9c9695" d="M 326.5,136.5 C 324.952,136.821 324.285,137.821 324.5,139.5C 323.5,139.5 322.5,139.5 321.5,139.5C 321.421,138.07 321.754,136.736 322.5,135.5C 321.311,134.571 319.978,134.238 318.5,134.5C 318.5,135.833 318.5,137.167 318.5,138.5C 317.5,138.5 316.5,138.5 315.5,138.5C 315.5,137.167 315.5,135.833 315.5,134.5C 314.022,134.238 312.689,134.571 311.5,135.5C 312.246,136.736 312.579,138.07 312.5,139.5C 311.5,139.5 310.5,139.5 309.5,139.5C 309.649,138.448 309.483,137.448 309,136.5C 308.184,137.823 307.017,138.489 305.5,138.5C 307.869,134.256 311.536,132.256 316.5,132.5C 319.226,132.682 321.893,133.182 324.5,134C 325.381,134.708 326.047,135.542 326.5,136.5 Z"/></g>
<g><path style="opacity:1" fill="#9a8f7c" d="M 301.5,129.5 C 300.158,132.166 298.325,134.499 296,136.5C 295.51,137.793 295.343,139.127 295.5,140.5C 294.833,141.5 294.167,142.5 293.5,143.5C 293.5,141.833 293.5,140.167 293.5,138.5C 295.478,134.857 298.145,131.857 301.5,129.5 Z"/></g>
<g><path style="opacity:1" fill="#534d3f" d="M 331.5,128.5 C 332.167,129.5 332.833,130.5 333.5,131.5C 330.184,130.11 326.85,128.61 323.5,127C 318.833,126.333 314.167,126.333 309.5,127C 307.974,128.887 305.974,129.887 303.5,130C 300.558,133.422 297.891,136.922 295.5,140.5C 295.343,139.127 295.51,137.793 296,136.5C 298.325,134.499 300.158,132.166 301.5,129.5C 303.422,126.991 306.089,125.657 309.5,125.5C 317.288,123.586 324.621,124.586 331.5,128.5 Z"/></g>
<g><path style="opacity:1" fill="#8d8c8e" d="M 64.5,134.5 C 64.8333,134.5 65.1667,134.5 65.5,134.5C 60.9207,135.094 58.9207,137.76 59.5,142.5C 57.1406,137.401 58.8072,134.734 64.5,134.5 Z"/></g>
<g><path style="opacity:1" fill="#b9b9b9" d="M 470.5,132.5 C 471.586,132.62 472.253,133.287 472.5,134.5C 471.112,137.658 468.778,138.325 465.5,136.5C 464.614,137.325 464.281,138.325 464.5,139.5C 462.348,138.923 462.015,137.756 463.5,136C 465.847,135.666 468.181,135.833 470.5,136.5C 470.5,135.167 470.5,133.833 470.5,132.5 Z"/></g>
<g><path style="opacity:1" fill="#60321e" d="M 161.5,132.5 C 163.587,133.585 164.92,135.251 165.5,137.5C 167.252,141.227 167.919,145.227 167.5,149.5C 167.167,149.5 166.833,149.5 166.5,149.5C 166.813,146.753 166.48,144.086 165.5,141.5C 164.066,140.064 162.9,138.398 162,136.5C 161.51,135.207 161.343,133.873 161.5,132.5 Z"/></g>
<g><path style="opacity:1" fill="#b1a892" d="M 354.5,135.5 C 356.167,136.167 357.833,136.833 359.5,137.5C 355.167,137.5 350.833,137.5 346.5,137.5C 346.5,139.5 346.5,141.5 346.5,143.5C 346.167,143.5 345.833,143.5 345.5,143.5C 345.232,140.881 345.565,138.381 346.5,136C 349.146,135.503 351.813,135.336 354.5,135.5 Z"/></g>
<g><path style="opacity:1" fill="#bfbfbf" d="M 473.5,124.5 C 474.725,125.152 475.392,126.319 475.5,128C 478.95,138.353 475.617,142.519 465.5,140.5C 468.685,140.98 471.519,140.314 474,138.5C 474.169,133.839 474.003,129.172 473.5,124.5 Z"/></g>
<g><path style="opacity:1" fill="#949494" d="M 410.5,133.5 C 411.445,134.993 412.445,136.493 413.5,138C 413.355,138.772 413.022,139.439 412.5,140C 408.3,141.367 403.967,141.867 399.5,141.5C 398.976,137.69 400.643,135.69 404.5,135.5C 404.167,136.167 403.833,136.833 403.5,137.5C 402.624,137.369 401.957,137.702 401.5,138.5C 405.317,139.915 408.984,139.748 412.5,138C 411.207,137.51 409.873,137.343 408.5,137.5C 407.761,137.631 407.094,137.464 406.5,137C 407.705,135.624 409.038,134.458 410.5,133.5 Z"/></g>
<g><path style="opacity:1" fill="#1d1d1d" d="M 403.5,137.5 C 405.284,138.72 406.95,138.72 408.5,137.5C 409.873,137.343 411.207,137.51 412.5,138C 408.984,139.748 405.317,139.915 401.5,138.5C 401.957,137.702 402.624,137.369 403.5,137.5 Z"/></g>
<g><path style="opacity:1" fill="#4c3226" d="M 123.5,136.5 C 121.942,140.608 121.276,144.941 121.5,149.5C 120.167,149.5 118.833,149.5 117.5,149.5C 117.5,149.167 117.5,148.833 117.5,148.5C 118.968,144.231 120.968,140.231 123.5,136.5 Z"/></g>
<g><path style="opacity:1" fill="#5a4f42" d="M 333.5,131.5 C 338.672,133.849 341.339,137.849 341.5,143.5C 341.5,145.5 341.5,147.5 341.5,149.5C 340.833,149.5 340.167,149.5 339.5,149.5C 339.737,145.727 339.237,142.06 338,138.5C 335.98,136.449 334.48,134.116 333.5,131.5 Z"/></g>
<g><path style="opacity:1" fill="#473b36" d="M 65.5,134.5 C 65.8333,134.5 66.1667,134.5 66.5,134.5C 66.8333,134.5 67.1667,134.5 67.5,134.5C 69.2646,135.461 71.2646,135.795 73.5,135.5C 73.5,138.5 73.5,141.5 73.5,144.5C 71.1667,144.5 68.8333,144.5 66.5,144.5C 64.4727,144.662 62.4727,144.495 60.5,144C 59.944,143.617 59.6107,143.117 59.5,142.5C 58.9207,137.76 60.9207,135.094 65.5,134.5 Z"/></g>
<g><path style="opacity:1" fill="#433f3a" d="M 359.5,137.5 C 362.034,140.578 362.034,143.578 359.5,146.5C 358.167,146.5 356.833,146.5 355.5,146.5C 352.921,145.772 350.254,145.272 347.5,145C 346.944,144.617 346.611,144.117 346.5,143.5C 346.5,141.5 346.5,139.5 346.5,137.5C 350.833,137.5 355.167,137.5 359.5,137.5 Z"/></g>
<g><path style="opacity:1" fill="#eca980" d="M 238.5,68.5 C 238.833,68.5 239.167,68.5 239.5,68.5C 239.5,78.8333 239.5,89.1667 239.5,99.5C 239.5,113.833 239.5,128.167 239.5,142.5C 256.342,142.83 273.008,142.497 289.5,141.5C 290.167,141.5 290.5,141.167 290.5,140.5C 290.833,140.5 291.167,140.5 291.5,140.5C 291.586,141.496 291.252,142.329 290.5,143C 291.094,143.464 291.761,143.631 292.5,143.5C 292.5,144.167 292.167,144.5 291.5,144.5C 272.5,144.5 253.5,144.5 234.5,144.5C 234.5,144.167 234.5,143.833 234.5,143.5C 234.5,130.167 234.5,116.833 234.5,103.5C 235.495,116.323 235.829,129.323 235.5,142.5C 236.5,142.5 237.5,142.5 238.5,142.5C 238.5,117.833 238.5,93.1667 238.5,68.5 Z"/></g>
<g><path style="opacity:1" fill="#f2efef" d="M 153.5,149.5 C 153.443,150.609 153.11,151.609 152.5,152.5C 146.005,159.492 139.838,159.158 134,151.5C 133.249,147.595 133.749,143.929 135.5,140.5C 138.156,139.842 140.822,139.175 143.5,138.5C 145.841,139.182 148.174,139.849 150.5,140.5C 151.265,143.67 152.265,146.67 153.5,149.5 Z"/></g>
<g><path style="opacity:1" fill="#9c9695" d="M 329.5,138.5 C 330.906,138.973 331.573,139.973 331.5,141.5C 330.351,141.791 329.684,142.624 329.5,144C 329.943,145.825 330.277,147.658 330.5,149.5C 329.5,149.5 328.5,149.5 327.5,149.5C 327.421,148.07 327.754,146.736 328.5,145.5C 328.043,144.702 327.376,144.369 326.5,144.5C 325.566,143.432 325.232,142.099 325.5,140.5C 327.483,140.843 328.817,140.176 329.5,138.5 Z"/></g>
<g><path style="opacity:1" fill="#928c8b" d="M 128.5,142.5 C 128.294,146.898 128.627,151.232 129.5,155.5C 128.883,155.389 128.383,155.056 128,154.5C 127.188,150.311 127.355,146.311 128.5,142.5 Z"/></g>
<g><path style="opacity:1" fill="#5c3826" d="M 295.5,140.5 C 295.5,143.5 295.5,146.5 295.5,149.5C 293.833,149.5 292.167,149.5 290.5,149.5C 290.5,149.167 290.5,148.833 290.5,148.5C 291.434,147.432 291.768,146.099 291.5,144.5C 292.167,144.5 292.5,144.167 292.5,143.5C 292.833,143.5 293.167,143.5 293.5,143.5C 294.167,142.5 294.833,141.5 295.5,140.5 Z"/></g>
<g><path style="opacity:1" fill="#cb512f" d="M 67.5,134.5 C 69.1667,134.5 70.8333,134.5 72.5,134.5C 73.5,134.5 74.5,134.5 75.5,134.5C 75.6653,138.182 75.4986,141.848 75,145.5C 73.7949,146.071 72.6283,146.738 71.5,147.5C 86.8189,148.499 102.152,148.833 117.5,148.5C 117.5,148.833 117.5,149.167 117.5,149.5C 101.167,149.5 84.8333,149.5 68.5,149.5C 68.6085,147.486 67.9418,145.82 66.5,144.5C 68.8333,144.5 71.1667,144.5 73.5,144.5C 73.5,141.5 73.5,138.5 73.5,135.5C 71.2646,135.795 69.2646,135.461 67.5,134.5 Z"/></g>
<g><path style="opacity:1" fill="#cf522f" d="M 165.5,137.5 C 166.458,137.953 167.292,138.619 168,139.5C 168.498,142.482 168.665,145.482 168.5,148.5C 188.503,148.667 208.503,148.5 228.5,148C 230.154,147.392 231.821,146.892 233.5,146.5C 233.047,147.458 232.381,148.292 231.5,149C 210.169,149.5 188.836,149.667 167.5,149.5C 167.919,145.227 167.252,141.227 165.5,137.5 Z"/></g>
<g><path style="opacity:1" fill="#d25230" d="M 234.5,144.5 C 253.5,144.5 272.5,144.5 291.5,144.5C 291.768,146.099 291.434,147.432 290.5,148.5C 290.5,148.833 290.5,149.167 290.5,149.5C 272.497,149.667 254.497,149.5 236.5,149C 235.922,147.583 234.922,146.75 233.5,146.5C 233.833,145.833 234.167,145.167 234.5,144.5 Z"/></g>
<g><path style="opacity:1" fill="#d1380e" d="M 290.5,148.5 C 272.821,148.833 255.154,148.5 237.5,147.5C 237.291,146.914 236.957,146.414 236.5,146C 254.497,145.5 272.497,145.333 290.5,145.5C 290.5,146.5 290.5,147.5 290.5,148.5 Z"/></g>
<g><path style="opacity:1" fill="#b14a2f" d="M 341.5,143.5 C 342.833,143.5 344.167,143.5 345.5,143.5C 345.833,143.5 346.167,143.5 346.5,143.5C 346.611,144.117 346.944,144.617 347.5,145C 350.254,145.272 352.921,145.772 355.5,146.5C 355.5,147.5 355.5,148.5 355.5,149.5C 350.833,149.5 346.167,149.5 341.5,149.5C 341.5,147.5 341.5,145.5 341.5,143.5 Z"/></g>
<g><path style="opacity:1" fill="#a19d9c" d="M 305.5,138.5 C 305.821,140.048 306.821,140.715 308.5,140.5C 308.5,141.5 308.5,142.5 308.5,143.5C 306.833,143.5 305.167,143.5 303.5,143.5C 303.5,144.5 303.5,145.5 303.5,146.5C 304.833,146.5 306.167,146.5 307.5,146.5C 307.5,147.833 307.5,149.167 307.5,150.5C 306.167,150.5 304.833,150.5 303.5,150.5C 303.5,152.167 303.5,153.833 303.5,155.5C 301.588,151.806 301.088,147.806 302,143.5C 302.223,141.119 303.39,139.453 305.5,138.5 Z"/></g>
<g><path style="opacity:1" fill="#a29c9c" d="M 155.5,138.5 C 158.46,140.854 159.793,144.02 159.5,148C 159.406,151.357 158.573,154.523 157,157.5C 156.292,158.381 155.458,159.047 154.5,159.5C 156.1,157.429 156.6,155.095 156,152.5C 155.667,152.167 155.333,151.833 155,151.5C 154.804,153.286 153.971,154.619 152.5,155.5C 151.438,154.575 151.438,153.575 152.5,152.5C 153.11,151.609 153.443,150.609 153.5,149.5C 153.5,148.5 153.5,147.5 153.5,146.5C 154.822,146.33 155.989,146.663 157,147.5C 157.788,144.228 157.288,141.228 155.5,138.5 Z"/></g>
<g><path style="opacity:1" fill="#878580" d="M 331.5,142.5 C 332.972,144.117 333.639,146.117 333.5,148.5C 333.639,150.883 332.972,152.883 331.5,154.5C 331.5,150.5 331.5,146.5 331.5,142.5 Z"/></g>
<g><path style="opacity:1" fill="#e3cfc5" d="M 355.5,146.5 C 356.833,146.5 358.167,146.5 359.5,146.5C 358.067,147.833 356.733,149.333 355.5,151C 350.511,151.499 345.511,151.666 340.5,151.5C 340.346,153.97 339.346,155.97 337.5,157.5C 337.294,154.505 337.96,151.838 339.5,149.5C 340.167,149.5 340.833,149.5 341.5,149.5C 346.167,149.5 350.833,149.5 355.5,149.5C 355.5,148.5 355.5,147.5 355.5,146.5 Z"/></g>
<g><path style="opacity:1" fill="#b1acac" d="M 140.5,143.5 C 147.673,141.839 150.173,144.506 148,151.5C 147.101,153.368 145.601,154.368 143.5,154.5C 141.865,153.954 140.199,153.62 138.5,153.5C 137.841,150.545 137.508,147.545 137.5,144.5C 138.791,144.737 139.791,144.404 140.5,143.5 Z"/></g>
<g><path style="opacity:1" fill="#f6e3db" d="M 233.5,146.5 C 234.922,146.75 235.922,147.583 236.5,149C 254.497,149.5 272.497,149.667 290.5,149.5C 292.167,149.5 293.833,149.5 295.5,149.5C 296.461,151.265 296.795,153.265 296.5,155.5C 296.833,156.833 297.167,158.167 297.5,159.5C 296.504,159.586 295.671,159.252 295,158.5C 294.338,156.187 293.838,153.854 293.5,151.5C 273.834,151.536 254.334,151.536 235,151.5C 233.233,152.34 231.899,153.673 231,155.5C 230.167,154.667 229.333,153.833 228.5,153C 208.154,153.169 187.82,153.169 167.5,153C 166.167,154.333 166.167,155.667 167.5,157C 166.505,161.338 163.838,163.838 159.5,164.5C 160.6,163.395 161.267,162.062 161.5,160.5C 164.19,157.453 165.524,153.787 165.5,149.5C 165.833,149.5 166.167,149.5 166.5,149.5C 166.833,149.5 167.167,149.5 167.5,149.5C 188.836,149.667 210.169,149.5 231.5,149C 232.381,148.292 233.047,147.458 233.5,146.5 Z"/></g>
<g><path style="opacity:1" fill="#cac6c4" d="M 155.5,138.5 C 157.288,141.228 157.788,144.228 157,147.5C 155.989,146.663 154.822,146.33 153.5,146.5C 153.5,147.5 153.5,148.5 153.5,149.5C 152.265,146.67 151.265,143.67 150.5,140.5C 148.174,139.849 145.841,139.182 143.5,138.5C 140.822,139.175 138.156,139.842 135.5,140.5C 133.749,143.929 133.249,147.595 134,151.5C 139.838,159.158 146.005,159.492 152.5,152.5C 151.438,153.575 151.438,154.575 152.5,155.5C 153.971,154.619 154.804,153.286 155,151.5C 155.333,151.833 155.667,152.167 156,152.5C 156.6,155.095 156.1,157.429 154.5,159.5C 147.442,164.412 140.109,164.745 132.5,160.5C 131.675,158.64 130.675,156.974 129.5,155.5C 128.627,151.232 128.294,146.898 128.5,142.5C 132.372,133.567 139.039,130.567 148.5,133.5C 151.039,134.931 153.372,136.597 155.5,138.5 Z"/></g>
<g><path style="opacity:1" fill="#342e2e" d="M 141.5,146.5 C 142.5,146.5 143.5,146.5 144.5,146.5C 144.5,147.5 144.5,148.5 144.5,149.5C 143.5,149.5 142.5,149.5 141.5,149.5C 141.5,148.5 141.5,147.5 141.5,146.5 Z"/></g>
<g><path style="opacity:1" fill="#dfdcdb" d="M 326.5,136.5 C 327.5,137.167 328.5,137.833 329.5,138.5C 328.817,140.176 327.483,140.843 325.5,140.5C 325.232,142.099 325.566,143.432 326.5,144.5C 327.375,154.186 323.041,158.353 313.5,157C 311.153,155.128 309.153,152.961 307.5,150.5C 307.5,149.167 307.5,147.833 307.5,146.5C 306.167,146.5 304.833,146.5 303.5,146.5C 303.5,145.5 303.5,144.5 303.5,143.5C 305.167,143.5 306.833,143.5 308.5,143.5C 308.5,142.5 308.5,141.5 308.5,140.5C 306.821,140.715 305.821,140.048 305.5,138.5C 307.017,138.489 308.184,137.823 309,136.5C 309.483,137.448 309.649,138.448 309.5,139.5C 310.5,139.5 311.5,139.5 312.5,139.5C 312.579,138.07 312.246,136.736 311.5,135.5C 312.689,134.571 314.022,134.238 315.5,134.5C 315.5,135.833 315.5,137.167 315.5,138.5C 316.5,138.5 317.5,138.5 318.5,138.5C 318.5,137.167 318.5,135.833 318.5,134.5C 319.978,134.238 321.311,134.571 322.5,135.5C 321.754,136.736 321.421,138.07 321.5,139.5C 322.5,139.5 323.5,139.5 324.5,139.5C 324.285,137.821 324.952,136.821 326.5,136.5 Z"/></g>
<g><path style="opacity:1" fill="#aaa8a7" d="M 313.5,143.5 C 321.885,141.548 324.551,144.548 321.5,152.5C 318.914,153.48 316.247,153.813 313.5,153.5C 314.627,150.143 314.627,146.809 313.5,143.5 Z"/></g>
<g><path style="opacity:1" fill="#434240" d="M 315.5,146.5 C 316.833,146.5 318.167,146.5 319.5,146.5C 319.833,149.5 318.5,150.833 315.5,150.5C 315.5,149.167 315.5,147.833 315.5,146.5 Z"/></g>
<g><path style="opacity:1" fill="#c4c0be" d="M 331.5,141.5 C 331.5,141.833 331.5,142.167 331.5,142.5C 331.5,146.5 331.5,150.5 331.5,154.5C 327.408,163.039 320.742,165.872 311.5,163C 308.308,160.972 305.641,158.472 303.5,155.5C 303.5,153.833 303.5,152.167 303.5,150.5C 304.833,150.5 306.167,150.5 307.5,150.5C 309.153,152.961 311.153,155.128 313.5,157C 323.041,158.353 327.375,154.186 326.5,144.5C 327.376,144.369 328.043,144.702 328.5,145.5C 327.754,146.736 327.421,148.07 327.5,149.5C 328.5,149.5 329.5,149.5 330.5,149.5C 330.277,147.658 329.943,145.825 329.5,144C 329.684,142.624 330.351,141.791 331.5,141.5 Z"/></g>
<g><path style="opacity:1" fill="#726e6c" d="M 296.5,155.5 C 298.25,156.659 299.25,158.326 299.5,160.5C 298.508,160.672 297.842,160.338 297.5,159.5C 297.167,158.167 296.833,156.833 296.5,155.5 Z"/></g>
<g><path style="opacity:1" fill="#878683" d="M 165.5,149.5 C 165.524,153.787 164.19,157.453 161.5,160.5C 162.389,156.569 163.722,152.902 165.5,149.5 Z"/></g>
<g><path style="opacity:1" fill="#848280" d="M 336.5,158.5 C 336.031,161.643 334.364,163.977 331.5,165.5C 332.786,162.883 334.453,160.55 336.5,158.5 Z"/></g>
<g><path style="opacity:1" fill="#8f8e8c" d="M 161.5,160.5 C 161.267,162.062 160.6,163.395 159.5,164.5C 158.078,165.925 156.411,166.925 154.5,167.5C 156.5,164.833 158.833,162.5 161.5,160.5 Z"/></g>
<g><path style="opacity:1" fill="#777474" d="M 132.5,167.5 C 137.676,169.184 143.009,169.85 148.5,169.5C 144.689,170.645 140.689,170.812 136.5,170C 134.68,169.8 133.347,168.966 132.5,167.5 Z"/></g>
<g><path style="opacity:1" fill="#817f7c" d="M 307.5,167.5 C 314.078,170.07 320.744,170.07 327.5,167.5C 327.119,168.931 326.119,169.764 324.5,170C 319.5,170.667 314.5,170.667 309.5,170C 308.619,169.292 307.953,168.458 307.5,167.5 Z"/></g>
</svg>
