<?xml version="1.0" encoding="UTF-8"?>
<!DOCTYPE svg PUBLIC "-//W3C//DTD SVG 1.1//EN" "http://www.w3.org/Graphics/SVG/1.1/DTD/svg11.dtd">
<svg xmlns="http://www.w3.org/2000/svg" version="1.1" width="566px" height="192px" style="shape-rendering:geometricPrecision; text-rendering:geometricPrecision; image-rendering:optimizeQuality; fill-rule:evenodd; clip-rule:evenodd" xmlns:xlink="http://www.w3.org/1999/xlink">
<g><path style="opacity:0.997" fill="#fefefe" d="M -0.5,0.5 C 188.167,0.5 376.833,0.5 565.5,0.5C 565.5,64.1667 565.5,127.833 565.5,191.5C 376.833,191.5 188.167,191.5 -0.5,191.5C -0.5,127.833 -0.5,64.1667 -0.5,0.5 Z"/></g>
<g><path style="opacity:1" fill="#fdfbf2" d="M 304.5,56.5 C 295.472,56.3195 286.472,56.6529 277.5,57.5C 277.821,51.9738 277.488,46.6405 276.5,41.5C 276.025,39.2163 275.025,37.2163 273.5,35.5C 273.027,34.0937 272.027,33.427 270.5,33.5C 207.001,32.3346 143.335,32.168 79.5,33C 76.7428,34.649 74.0761,36.4823 71.5,38.5C 69.9617,40.2433 68.9617,42.2433 68.5,44.5C 66.5367,51.4238 65.8701,58.7572 66.5,66.5C 65.3431,58.0099 65.1764,49.3433 66,40.5C 68.4878,38.2567 71.1544,36.2567 74,34.5C 74.5396,32.8654 74.0396,31.5321 72.5,30.5C 74.3482,27.81 76.0149,27.9767 77.5,31C 135.5,31.6667 193.5,31.6667 251.5,31C 250.62,29.6439 250.286,28.1439 250.5,26.5C 256.215,26.1729 256.881,27.6729 252.5,31C 254.81,31.4966 257.143,31.6633 259.5,31.5C 259.083,26.9315 261.083,25.4315 265.5,27C 266.727,28.5874 266.394,29.9207 264.5,31C 266.833,31.3333 269.167,31.6667 271.5,32C 274.085,34.2581 276.918,36.0914 280,37.5C 281.156,36.0072 281.99,36.1739 282.5,38C 279.491,41.3398 278.158,45.3398 278.5,50C 278.404,52.3747 278.904,54.5413 280,56.5C 288.265,55.1724 296.432,55.1724 304.5,56.5 Z"/></g>
<g><path style="opacity:1" fill="#fdf5de" d="M 270.5,33.5 C 207.166,33.3333 143.832,33.5 80.5,34C 79.944,34.3826 79.6107,34.8826 79.5,35.5C 77.2512,36.0798 75.5846,37.4131 74.5,39.5C 72.3043,40.8381 70.3043,42.5047 68.5,44.5C 68.9617,42.2433 69.9617,40.2433 71.5,38.5C 74.0761,36.4823 76.7428,34.649 79.5,33C 143.335,32.168 207.001,32.3346 270.5,33.5 Z"/></g>
<g><path style="opacity:1" fill="#f7dcac" d="M 270.5,33.5 C 272.027,33.427 273.027,34.0937 273.5,35.5C 273.167,35.5 272.833,35.5 272.5,35.5C 208.167,35.5 143.833,35.5 79.5,35.5C 79.6107,34.8826 79.944,34.3826 80.5,34C 143.832,33.5 207.166,33.3333 270.5,33.5 Z"/></g>
<g><path style="opacity:1" fill="#e59b40" d="M 79.5,35.5 C 143.833,35.5 208.167,35.5 272.5,35.5C 274.278,39.5653 274.945,43.8986 274.5,48.5C 274.167,48.5 273.833,48.5 273.5,48.5C 273.665,45.4816 273.498,42.4816 273,39.5C 272.329,38.7476 271.496,38.4142 270.5,38.5C 261.606,36.344 252.606,36.0106 243.5,37.5C 189.335,36.3349 135.002,36.1682 80.5,37C 78.3716,37.6552 76.3716,38.4886 74.5,39.5C 75.5846,37.4131 77.2512,36.0798 79.5,35.5 Z"/></g>
<g><path style="opacity:1" fill="#f69013" d="M 73.5,43.5 C 74.1098,42.609 74.4431,41.609 74.5,40.5C 77.6473,40.2634 80.6473,39.4301 83.5,38C 136.499,37.5 189.499,37.3333 242.5,37.5C 242.149,40.2377 241.482,42.9044 240.5,45.5C 233.858,46.3309 227.191,46.8309 220.5,47C 174.301,47.4533 128.801,47.62 84,47.5C 80.9243,46.7117 77.7577,46.2117 74.5,46C 73.7476,45.3292 73.4142,44.4959 73.5,43.5 Z"/></g>
<g><path style="opacity:1" fill="#f2961f" d="M 243.5,37.5 C 243.274,40.2492 243.607,42.9159 244.5,45.5C 246.167,45.8333 247.833,46.1667 249.5,46.5C 256.026,46.3573 262.693,46.1906 269.5,46C 270.435,43.6194 270.768,41.1194 270.5,38.5C 271.496,38.4142 272.329,38.7476 273,39.5C 273.498,42.4816 273.665,45.4816 273.5,48.5C 273.5,48.8333 273.5,49.1667 273.5,49.5C 266.551,48.9915 259.551,48.9915 252.5,49.5C 192.167,49.5 131.833,49.5 71.5,49.5C 71.1667,49.5 70.8333,49.5 70.5,49.5C 70.087,46.6798 71.087,44.6798 73.5,43.5C 73.4142,44.4959 73.7476,45.3292 74.5,46C 77.7577,46.2117 80.9243,46.7117 84,47.5C 128.801,47.62 174.301,47.4533 220.5,47C 227.191,46.8309 233.858,46.3309 240.5,45.5C 241.482,42.9044 242.149,40.2377 242.5,37.5C 189.499,37.3333 136.499,37.5 83.5,38C 80.6473,39.4301 77.6473,40.2634 74.5,40.5C 74.5,40.1667 74.5,39.8333 74.5,39.5C 76.3716,38.4886 78.3716,37.6552 80.5,37C 135.002,36.1682 189.335,36.3349 243.5,37.5 Z"/></g>
<g><path style="opacity:1" fill="#c0711e" d="M 270.5,38.5 C 270.768,41.1194 270.435,43.6194 269.5,46C 262.693,46.1906 256.026,46.3573 249.5,46.5C 247.833,46.1667 246.167,45.8333 244.5,45.5C 243.607,42.9159 243.274,40.2492 243.5,37.5C 252.606,36.0106 261.606,36.344 270.5,38.5 Z"/></g>
<g><path style="opacity:1" fill="#a3611f" d="M 259.5,38.5 C 262.764,39.3242 266.098,39.6576 269.5,39.5C 269.5,41.1667 269.5,42.8333 269.5,44.5C 265.167,44.5 260.833,44.5 256.5,44.5C 256.5,42.8333 256.5,41.1667 256.5,39.5C 257.791,39.7373 258.791,39.404 259.5,38.5 Z"/></g>
<g><path style="opacity:1" fill="#707070" d="M 468.5,44.5 C 469.117,44.6107 469.617,44.944 470,45.5C 470.767,49.5575 470.6,53.5575 469.5,57.5C 471.631,58.1687 473.631,58.8354 475.5,59.5C 472.753,59.8134 470.086,59.48 467.5,58.5C 469.743,53.978 470.076,49.3114 468.5,44.5 Z"/></g>
<g><path style="opacity:1" fill="#2d2d2d" d="M 468.5,44.5 C 470.076,49.3114 469.743,53.978 467.5,58.5C 470.086,59.48 472.753,59.8134 475.5,59.5C 476.778,59.7822 477.778,60.4489 478.5,61.5C 478.241,65.2396 478.574,68.9062 479.5,72.5C 479.167,72.8333 478.833,73.1667 478.5,73.5C 477.818,72.7573 477.151,72.0906 476.5,71.5C 475.908,68.8728 475.575,66.2062 475.5,63.5C 471.5,63.5 467.5,63.5 463.5,63.5C 462.562,61.2436 462.562,58.9103 463.5,56.5C 464.931,56.1193 465.764,55.1193 466,53.5C 466.66,48.3121 465.16,43.8121 461.5,40C 451.35,36.3156 446.017,39.8156 445.5,50.5C 445.382,53.4857 446.048,56.1524 447.5,58.5C 448.434,59.5676 448.768,60.901 448.5,62.5C 444.265,63.436 439.931,63.7693 435.5,63.5C 435.5,66.1667 435.5,68.8333 435.5,71.5C 434.883,71.6107 434.383,71.944 434,72.5C 433.114,77.4702 432.448,82.4702 432,87.5C 431.542,79.1571 431.709,70.8237 432.5,62.5C 435.345,59.3534 439.012,57.8534 443.5,58C 439.342,51.9284 439.676,46.095 444.5,40.5C 451.962,32.545 459.462,32.545 467,40.5C 467.41,41.9007 467.91,43.234 468.5,44.5 Z"/></g>
<g><path style="opacity:1" fill="#b9b9b9" d="M 463.5,56.5 C 463.5,55.8333 463.167,55.5 462.5,55.5C 465.016,48.5158 462.849,43.8491 456,41.5C 448.72,43.4609 446.22,48.1275 448.5,55.5C 447.596,56.209 447.263,57.209 447.5,58.5C 446.048,56.1524 445.382,53.4857 445.5,50.5C 446.017,39.8156 451.35,36.3156 461.5,40C 465.16,43.8121 466.66,48.3121 466,53.5C 465.764,55.1193 464.931,56.1193 463.5,56.5 Z"/></g>
<g><path style="opacity:1" fill="#2f2f2f" d="M 462.5,55.5 C 458.953,60.0041 454.619,60.6708 449.5,57.5C 449.137,56.8165 448.804,56.1499 448.5,55.5C 446.22,48.1275 448.72,43.4609 456,41.5C 462.849,43.8491 465.016,48.5158 462.5,55.5 Z"/></g>
<g><path style="opacity:1" fill="#e2e2e2" d="M 452.5,45.5 C 456.828,44.931 459.828,46.5977 461.5,50.5C 457.371,57.0704 453.371,57.0704 449.5,50.5C 450.84,49.0104 451.84,47.3437 452.5,45.5 Z"/></g>
<g><path style="opacity:1" fill="#fbfbfb" d="M 448.5,55.5 C 448.804,56.1499 449.137,56.8165 449.5,57.5C 454.619,60.6708 458.953,60.0041 462.5,55.5C 463.167,55.5 463.5,55.8333 463.5,56.5C 462.562,58.9103 462.562,61.2436 463.5,63.5C 466.625,64.4794 469.958,64.8128 473.5,64.5C 474.953,72.4988 476.453,80.4988 478,88.5C 478.499,92.1516 478.665,95.8183 478.5,99.5C 463.167,99.5 447.833,99.5 432.5,99.5C 432.5,96.5 432.5,93.5 432.5,90.5C 433.248,86.1878 433.914,81.8544 434.5,77.5C 435.222,77.0825 435.722,76.4158 436,75.5C 436.499,71.8484 436.665,68.1817 436.5,64.5C 440.971,65.0894 444.971,64.4228 448.5,62.5C 448.768,60.901 448.434,59.5676 447.5,58.5C 447.263,57.209 447.596,56.209 448.5,55.5 Z"/></g>
<g><path style="opacity:1" fill="#f0d19a" d="M 272.5,35.5 C 272.833,35.5 273.167,35.5 273.5,35.5C 275.025,37.2163 276.025,39.2163 276.5,41.5C 276.169,48.8635 276.503,56.1968 277.5,63.5C 278.182,62.7573 278.849,62.0906 279.5,61.5C 279.5,62.1667 279.5,62.8333 279.5,63.5C 279.5,63.8333 279.5,64.1667 279.5,64.5C 279.167,64.5 278.833,64.5 278.5,64.5C 277.167,64.5 275.833,64.5 274.5,64.5C 274.5,59.1667 274.5,53.8333 274.5,48.5C 274.945,43.8986 274.278,39.5653 272.5,35.5 Z"/></g>
<g><path style="opacity:1" fill="#fcecc9" d="M 276.5,41.5 C 277.488,46.6405 277.821,51.9738 277.5,57.5C 286.472,56.6529 295.472,56.3195 304.5,56.5C 309.36,57.988 314.36,58.8213 319.5,59C 321.063,59.7589 322.063,60.9256 322.5,62.5C 321.833,62.5 321.167,62.5 320.5,62.5C 316.89,60.4259 312.89,59.2593 308.5,59C 299.833,58.3333 291.167,58.3333 282.5,59C 281.627,60.045 280.627,60.8783 279.5,61.5C 278.849,62.0906 278.182,62.7573 277.5,63.5C 276.503,56.1968 276.169,48.8635 276.5,41.5 Z"/></g>
<g><path style="opacity:1" fill="#eebd5d" d="M 74.5,39.5 C 74.5,39.8333 74.5,40.1667 74.5,40.5C 74.4431,41.609 74.1098,42.609 73.5,43.5C 71.087,44.6798 70.087,46.6798 70.5,49.5C 70.1975,54.43 70.5308,59.2633 71.5,64C 138.833,64.5 206.166,64.6667 273.5,64.5C 273.5,59.5 273.5,54.5 273.5,49.5C 273.5,49.1667 273.5,48.8333 273.5,48.5C 273.833,48.5 274.167,48.5 274.5,48.5C 274.5,53.8333 274.5,59.1667 274.5,64.5C 274.5,64.8333 274.5,65.1667 274.5,65.5C 273.833,65.5 273.5,65.8333 273.5,66.5C 272.833,66.5 272.167,66.5 271.5,66.5C 204.499,66.6667 137.499,66.5 70.5,66C 69.9558,65.2828 69.2891,64.7828 68.5,64.5C 68.5,57.8333 68.5,51.1667 68.5,44.5C 70.3043,42.5047 72.3043,40.8381 74.5,39.5 Z"/></g>
<g><path style="opacity:1" fill="#f7b339" d="M 273.5,49.5 C 273.5,54.5 273.5,59.5 273.5,64.5C 206.166,64.6667 138.833,64.5 71.5,64C 70.5308,59.2633 70.1975,54.43 70.5,49.5C 70.8333,49.5 71.1667,49.5 71.5,49.5C 71.5,50.8333 71.5,52.1667 71.5,53.5C 127.472,52.6789 183.472,52.1789 239.5,52C 243.94,51.0344 248.273,50.2011 252.5,49.5C 259.551,48.9915 266.551,48.9915 273.5,49.5 Z"/></g>
<g><path style="opacity:1" fill="#fbb034" d="M 71.5,49.5 C 131.833,49.5 192.167,49.5 252.5,49.5C 248.273,50.2011 243.94,51.0344 239.5,52C 183.472,52.1789 127.472,52.6789 71.5,53.5C 71.5,52.1667 71.5,50.8333 71.5,49.5 Z"/></g>
<g><path style="opacity:1" fill="#f6e0a0" d="M 68.5,64.5 C 69.2891,64.7828 69.9558,65.2828 70.5,66C 137.499,66.5 204.499,66.6667 271.5,66.5C 203.931,67.831 136.264,67.831 68.5,66.5C 68.5,65.8333 68.5,65.1667 68.5,64.5 Z"/></g>
<g><path style="opacity:1" fill="#f8ebc7" d="M 68.5,44.5 C 68.5,51.1667 68.5,57.8333 68.5,64.5C 68.5,65.1667 68.5,65.8333 68.5,66.5C 68.0217,69.2776 69.0217,71.2776 71.5,72.5C 72.2868,71.7579 72.9535,70.9246 73.5,70C 136.167,69.3333 198.833,69.3333 261.5,70C 265.072,71.4049 268.739,71.7383 272.5,71C 273.38,69.6439 273.714,68.1439 273.5,66.5C 273.5,65.8333 273.833,65.5 274.5,65.5C 274.5,73.5 274.5,81.5 274.5,89.5C 274.167,89.5 273.833,89.5 273.5,89.5C 205.499,89.3333 137.499,89.5 69.5,90C 66.8761,91.9688 66.8761,93.8022 69.5,95.5C 137.665,96.4992 205.998,96.8325 274.5,96.5C 274.5,98.8333 274.5,101.167 274.5,103.5C 205.833,103.333 137.166,103.5 68.5,104C 67.5333,108.401 67.2,112.901 67.5,117.5C 67.3338,123.842 67.5005,130.175 68,136.5C 69.4443,138.155 71.2776,138.822 73.5,138.5C 74.299,141.43 74.6323,144.43 74.5,147.5C 70.7601,146.68 68.4267,148.013 67.5,151.5C 67.3898,153.374 68.0564,154.874 69.5,156C 84.4963,156.5 99.4963,156.667 114.5,156.5C 115.167,156.5 115.5,156.833 115.5,157.5C 99.5741,158.65 83.5741,158.817 67.5,158C 66.5495,154.943 66.2161,151.777 66.5,148.5C 65.1667,148.5 63.8333,148.5 62.5,148.5C 61.7824,144.097 62.9491,140.43 66,137.5C 66.4966,135.19 66.6633,132.857 66.5,130.5C 66.5,126.167 66.5,121.833 66.5,117.5C 66.1319,104.434 66.7986,91.4342 68.5,78.5C 68.5891,74.239 67.9224,70.239 66.5,66.5C 65.8701,58.7572 66.5367,51.4238 68.5,44.5 Z"/></g>
<g><path style="opacity:1" fill="#fde8bf" d="M 68.5,66.5 C 136.264,67.831 203.931,67.831 271.5,66.5C 272.167,66.5 272.833,66.5 273.5,66.5C 273.714,68.1439 273.38,69.6439 272.5,71C 268.739,71.7383 265.072,71.4049 261.5,70C 198.833,69.3333 136.167,69.3333 73.5,70C 72.9535,70.9246 72.2868,71.7579 71.5,72.5C 69.0217,71.2776 68.0217,69.2776 68.5,66.5 Z"/></g>
<g><path style="opacity:1" fill="#937e63" d="M 274.5,64.5 C 275.833,64.5 277.167,64.5 278.5,64.5C 278.5,64.8333 278.5,65.1667 278.5,65.5C 276.52,77.7892 275.853,90.4559 276.5,103.5C 276.167,103.5 275.833,103.5 275.5,103.5C 275.167,103.5 274.833,103.5 274.5,103.5C 274.5,101.167 274.5,98.8333 274.5,96.5C 274.5,95.8333 274.5,95.1667 274.5,94.5C 274.5,92.8333 274.5,91.1667 274.5,89.5C 274.5,81.5 274.5,73.5 274.5,65.5C 274.5,65.1667 274.5,64.8333 274.5,64.5 Z"/></g>
<g><path style="opacity:1" fill="#efb262" d="M 287.5,66.5 C 287.5,66.8333 287.5,67.1667 287.5,67.5C 286.167,68.1667 285.167,69.1667 284.5,70.5C 283.502,94.6609 283.169,118.994 283.5,143.5C 282.337,119.003 282.17,94.3368 283,69.5C 283.717,68.9558 284.217,68.2891 284.5,67.5C 285.391,66.8902 286.391,66.5569 287.5,66.5 Z"/></g>
<g><path style="opacity:1" fill="#cbcbcb" d="M 448.5,62.5 C 444.971,64.4228 440.971,65.0894 436.5,64.5C 436.665,68.1817 436.499,71.8484 436,75.5C 435.722,76.4158 435.222,77.0825 434.5,77.5C 434.517,75.4352 434.85,73.4352 435.5,71.5C 435.5,68.8333 435.5,66.1667 435.5,63.5C 439.931,63.7693 444.265,63.436 448.5,62.5 Z"/></g>
<g><path style="opacity:1" fill="#c4e6f8" d="M 313.5,68.5 C 313.461,69.7562 313.961,70.7562 315,71.5C 315.5,81.828 315.666,92.1613 315.5,102.5C 314.711,102.783 314.044,103.283 313.5,104C 304.324,104.824 295.324,104.657 286.5,103.5C 291.167,103.5 295.833,103.5 300.5,103.5C 300.887,99.2759 299.387,95.9426 296,93.5C 295.667,91.8333 295.333,90.1667 295,88.5C 291.965,85.9259 289.131,83.2592 286.5,80.5C 286.335,77.4816 286.502,74.4816 287,71.5C 287.5,71 288,70.5 288.5,70C 296.797,68.8773 305.13,68.3773 313.5,68.5 Z"/></g>
<g><path style="opacity:1" fill="#090909" d="M 460.5,75.5 C 459.448,77.256 457.781,77.9227 455.5,77.5C 454.833,93.5 454.167,93.5 453.5,77.5C 452.167,77.5 450.833,77.5 449.5,77.5C 452.684,75.5864 456.351,74.9197 460.5,75.5 Z"/></g>
<g><path style="opacity:1" fill="#444444" d="M 478.5,61.5 C 479.302,62.9516 479.802,64.6183 480,66.5C 480.499,71.8229 480.666,77.1563 480.5,82.5C 482.132,89.0465 482.799,95.7132 482.5,102.5C 482.167,102.5 481.833,102.5 481.5,102.5C 482.11,97.6833 481.777,95.6833 480.5,96.5C 480.167,96.5 479.833,96.5 479.5,96.5C 478.561,88.1652 477.561,79.8319 476.5,71.5C 477.151,72.0906 477.818,72.7573 478.5,73.5C 478.833,73.1667 479.167,72.8333 479.5,72.5C 478.574,68.9062 478.241,65.2396 478.5,61.5 Z"/></g>
<g><path style="opacity:1" fill="#606060" d="M 432.5,62.5 C 431.709,70.8237 431.542,79.1571 432,87.5C 432.448,82.4702 433.114,77.4702 434,72.5C 434.383,71.944 434.883,71.6107 435.5,71.5C 434.85,73.4352 434.517,75.4352 434.5,77.5C 433.914,81.8544 433.248,86.1878 432.5,90.5C 432.167,90.5 431.833,90.5 431.5,90.5C 431.631,89.7611 431.464,89.0944 431,88.5C 430.768,89.7375 430.268,90.7375 429.5,91.5C 429.907,81.6292 430.907,71.9625 432.5,62.5 Z"/></g>
<g><path style="opacity:1" fill="#d9e1d1" d="M 287.5,67.5 C 296.349,67.1736 305.016,67.507 313.5,68.5C 305.13,68.3773 296.797,68.8773 288.5,70C 288,70.5 287.5,71 287,71.5C 286.502,74.4816 286.335,77.4816 286.5,80.5C 286.5,88.1667 286.5,95.8333 286.5,103.5C 295.324,104.657 304.324,104.824 313.5,104C 314.044,103.283 314.711,102.783 315.5,102.5C 315.461,103.583 315.127,104.583 314.5,105.5C 304.773,106.805 295.107,106.805 285.5,105.5C 284.542,93.8838 284.209,82.2172 284.5,70.5C 285.167,69.1667 286.167,68.1667 287.5,67.5 Z"/></g>
<g><path style="opacity:1" fill="#6b6b6b" d="M 460.5,75.5 C 461.404,76.209 461.737,77.209 461.5,78.5C 459.833,78.5 458.167,78.5 456.5,78.5C 456.5,82.5 456.5,86.5 456.5,90.5C 455.167,90.5 453.833,90.5 452.5,90.5C 452.5,86.5 452.5,82.5 452.5,78.5C 451.209,78.7373 450.209,78.404 449.5,77.5C 450.833,77.5 452.167,77.5 453.5,77.5C 454.167,93.5 454.833,93.5 455.5,77.5C 457.781,77.9227 459.448,77.256 460.5,75.5 Z"/></g>
<g><path style="opacity:1" fill="#dfdcc3" d="M 313.5,68.5 C 314.391,69.1098 315.391,69.4431 316.5,69.5C 317.799,80.628 317.799,91.628 316.5,102.5C 316.167,102.5 315.833,102.5 315.5,102.5C 315.666,92.1613 315.5,81.828 315,71.5C 313.961,70.7562 313.461,69.7562 313.5,68.5 Z"/></g>
<g><path style="opacity:1" fill="#a2d7f4" d="M 286.5,80.5 C 289.131,83.2592 291.965,85.9259 295,88.5C 295.333,90.1667 295.667,91.8333 296,93.5C 299.387,95.9426 300.887,99.2759 300.5,103.5C 295.833,103.5 291.167,103.5 286.5,103.5C 286.5,95.8333 286.5,88.1667 286.5,80.5 Z"/></g>
<g><path style="opacity:1" fill="#efc36d" d="M 273.5,89.5 C 273.833,89.5 274.167,89.5 274.5,89.5C 274.5,91.1667 274.5,92.8333 274.5,94.5C 274.167,94.5 273.833,94.5 273.5,94.5C 273.5,93.5 273.5,92.5 273.5,91.5C 205.833,91.5 138.167,91.5 70.5,91.5C 138.167,90.8333 205.833,90.1667 273.5,89.5 Z"/></g>
<g><path style="opacity:1" fill="#c4e4f3" d="M 336.5,103.5 C 333.167,103.5 329.833,103.5 326.5,103.5C 326.666,99.4862 326.499,95.4862 326,91.5C 324.89,89.9632 323.39,89.2965 321.5,89.5C 321.5,85.8333 321.5,82.1667 321.5,78.5C 322.468,76.3926 322.802,74.0593 322.5,71.5C 324.167,71.5 325.833,71.5 327.5,71.5C 327.844,74.5623 328.511,77.5623 329.5,80.5C 331.621,82.0205 333.121,84.0205 334,86.5C 335.89,92.0146 336.724,97.6812 336.5,103.5 Z"/></g>
<g><path style="opacity:1" fill="#f2cb86" d="M 316.5,69.5 C 317.167,69.8333 317.833,70.1667 318.5,70.5C 318.5,81.1667 318.5,91.8333 318.5,102.5C 318.5,111.833 318.5,121.167 318.5,130.5C 318.167,130.5 317.833,130.5 317.5,130.5C 317.167,130.5 316.833,130.5 316.5,130.5C 316.5,121.167 316.5,111.833 316.5,102.5C 317.799,91.628 317.799,80.628 316.5,69.5 Z"/></g>
<g><path style="opacity:1" fill="#ccb691" d="M 321.5,71.5 C 321.5,73.8333 321.5,76.1667 321.5,78.5C 321.5,82.1667 321.5,85.8333 321.5,89.5C 321.294,93.8982 321.627,98.2315 322.5,102.5C 322.167,102.5 321.833,102.5 321.5,102.5C 321.217,101.711 320.717,101.044 320,100.5C 319.833,95.6667 319.667,90.8333 319.5,86C 319.506,80.7843 320.173,75.951 321.5,71.5 Z"/></g>
<g><path style="opacity:1" fill="#ebb851" d="M 70.5,91.5 C 138.167,91.5 205.833,91.5 273.5,91.5C 273.5,92.5 273.5,93.5 273.5,94.5C 205.5,94.5 137.5,94.5 69.5,94.5C 69.2627,93.209 69.596,92.209 70.5,91.5 Z"/></g>
<g><path style="opacity:1" fill="#d4a664" d="M 320.5,62.5 C 321.167,62.5 321.833,62.5 322.5,62.5C 325.518,63.855 326.851,66.1884 326.5,69.5C 324.302,69.1201 322.635,69.7868 321.5,71.5C 320.173,75.951 319.506,80.7843 319.5,86C 319.667,90.8333 319.833,95.6667 320,100.5C 320.717,101.044 321.217,101.711 321.5,102.5C 320.5,102.5 319.5,102.5 318.5,102.5C 318.5,91.8333 318.5,81.1667 318.5,70.5C 320.315,69.3702 322.315,68.7036 324.5,68.5C 324.343,65.6824 323.009,63.6824 320.5,62.5 Z"/></g>
<g><path style="opacity:1" fill="#f6d38c" d="M 273.5,89.5 C 205.833,90.1667 138.167,90.8333 70.5,91.5C 69.596,92.209 69.2627,93.209 69.5,94.5C 137.5,94.5 205.5,94.5 273.5,94.5C 205.669,95.4992 137.669,95.8325 69.5,95.5C 66.8761,93.8022 66.8761,91.9688 69.5,90C 137.499,89.5 205.499,89.3333 273.5,89.5 Z"/></g>
<g><path style="opacity:1" fill="#f9dfa7" d="M 273.5,94.5 C 273.833,94.5 274.167,94.5 274.5,94.5C 274.5,95.1667 274.5,95.8333 274.5,96.5C 205.998,96.8325 137.665,96.4992 69.5,95.5C 137.669,95.8325 205.669,95.4992 273.5,94.5 Z"/></g>
<g><path style="opacity:1" fill="#b5b5b5" d="M 480.5,82.5 C 482.13,84.0261 482.963,86.0261 483,88.5C 483.815,93.3522 483.648,98.0189 482.5,102.5C 482.799,95.7132 482.132,89.0465 480.5,82.5 Z"/></g>
<g><path style="opacity:1" fill="#292929" d="M 431.5,90.5 C 431.5,93.1667 431.5,95.8333 431.5,98.5C 430.778,98.9175 430.278,99.5842 430,100.5C 429.503,98.1902 429.337,95.8568 429.5,93.5C 429.5,92.8333 429.5,92.1667 429.5,91.5C 430.268,90.7375 430.768,89.7375 431,88.5C 431.464,89.0944 431.631,89.7611 431.5,90.5 Z"/></g>
<g><path style="opacity:1" fill="#e9e0bf" d="M 321.5,89.5 C 323.39,89.2965 324.89,89.9632 326,91.5C 326.499,95.4862 326.666,99.4862 326.5,103.5C 329.833,103.5 333.167,103.5 336.5,103.5C 339.812,103.149 342.145,104.482 343.5,107.5C 341.804,107.315 340.471,106.481 339.5,105C 335.848,104.501 332.182,104.335 328.5,104.5C 326.744,105.552 326.077,107.219 326.5,109.5C 325.167,109.5 323.833,109.5 322.5,109.5C 322.5,107.167 322.5,104.833 322.5,102.5C 321.627,98.2315 321.294,93.8982 321.5,89.5 Z"/></g>
<g><path style="opacity:1" fill="#c9c9c9" d="M 463.5,63.5 C 467.5,63.5 471.5,63.5 475.5,63.5C 475.575,66.2062 475.908,68.8728 476.5,71.5C 477.561,79.8319 478.561,88.1652 479.5,96.5C 479.5,97.8333 479.5,99.1667 479.5,100.5C 463.132,101.151 447.132,100.485 431.5,98.5C 431.5,95.8333 431.5,93.1667 431.5,90.5C 431.833,90.5 432.167,90.5 432.5,90.5C 432.5,93.5 432.5,96.5 432.5,99.5C 447.833,99.5 463.167,99.5 478.5,99.5C 478.665,95.8183 478.499,92.1516 478,88.5C 476.453,80.4988 474.953,72.4988 473.5,64.5C 469.958,64.8128 466.625,64.4794 463.5,63.5 Z"/></g>
<g><path style="opacity:1" fill="#777777" d="M 429.5,93.5 C 429.337,95.8568 429.503,98.1902 430,100.5C 430.278,99.5842 430.778,98.9175 431.5,98.5C 447.132,100.485 463.132,101.151 479.5,100.5C 479.5,99.1667 479.5,97.8333 479.5,96.5C 479.833,96.5 480.167,96.5 480.5,96.5C 480.5,98.1667 480.5,99.8333 480.5,101.5C 463.658,101.17 446.992,101.503 430.5,102.5C 429.833,102.167 429.167,101.833 428.5,101.5C 427.844,100.378 427.511,99.0451 427.5,97.5C 427.585,95.6672 428.252,94.3339 429.5,93.5 Z"/></g>
<g><path style="opacity:1" fill="#212121" d="M 481.5,102.5 C 464.402,103.824 447.402,103.824 430.5,102.5C 446.992,101.503 463.658,101.17 480.5,101.5C 480.5,99.8333 480.5,98.1667 480.5,96.5C 481.777,95.6833 482.11,97.6833 481.5,102.5 Z"/></g>
<g><path style="opacity:1" fill="#f8d68f" d="M 274.5,103.5 C 274.5,103.833 274.5,104.167 274.5,104.5C 206.166,104.333 137.833,104.5 69.5,105C 68.8599,109.268 68.1933,113.435 67.5,117.5C 67.2,112.901 67.5333,108.401 68.5,104C 137.166,103.5 205.833,103.333 274.5,103.5 Z"/></g>
<g><path style="opacity:1" fill="#a1a1a1" d="M 428.5,101.5 C 429.167,101.833 429.833,102.167 430.5,102.5C 447.402,103.824 464.402,103.824 481.5,102.5C 481.833,102.5 482.167,102.5 482.5,102.5C 482.586,103.496 482.252,104.329 481.5,105C 464.157,105.833 446.824,105.666 429.5,104.5C 428.873,103.583 428.539,102.583 428.5,101.5 Z"/></g>
<g><path style="opacity:1" fill="#f2ba59" d="M 274.5,104.5 C 274.5,120.167 274.5,135.833 274.5,151.5C 274.5,152.167 274.167,152.5 273.5,152.5C 273.5,137.167 273.5,121.833 273.5,106.5C 205.833,106.5 138.167,106.5 70.5,106.5C 70.693,110.566 70.3597,114.566 69.5,118.5C 69.3338,124.509 69.5005,130.509 70,136.5C 71.3024,137.085 72.469,137.751 73.5,138.5C 71.2776,138.822 69.4443,138.155 68,136.5C 67.5005,130.175 67.3338,123.842 67.5,117.5C 68.1933,113.435 68.8599,109.268 69.5,105C 137.833,104.5 206.166,104.333 274.5,104.5 Z"/></g>
<g><path style="opacity:1" fill="#d78c35" d="M 279.5,63.5 C 280.845,91.6565 281.511,119.99 281.5,148.5C 281.286,150.144 281.62,151.644 282.5,153C 288.825,153.5 295.158,153.666 301.5,153.5C 302.141,150.109 303.308,146.776 305,143.5C 305.497,141.19 305.663,138.857 305.5,136.5C 309.124,134.498 312.79,132.498 316.5,130.5C 316.833,130.5 317.167,130.5 317.5,130.5C 316.058,131.82 315.392,133.486 315.5,135.5C 322.687,135.175 329.687,135.509 336.5,136.5C 327.105,135.862 318.105,136.529 309.5,138.5C 306.337,143.825 304.004,149.492 302.5,155.5C 295.468,155.83 288.468,155.497 281.5,154.5C 281.145,153.478 280.478,152.811 279.5,152.5C 279.5,151.833 279.5,151.167 279.5,150.5C 279.5,121.833 279.5,93.1667 279.5,64.5C 279.5,64.1667 279.5,63.8333 279.5,63.5 Z"/></g>
<g><path style="opacity:1" fill="#e49f44" d="M 328.5,104.5 C 332.182,104.335 335.848,104.501 339.5,105C 340.471,106.481 341.804,107.315 343.5,107.5C 344.833,108.167 346.167,108.833 347.5,109.5C 348.167,110.5 348.833,111.5 349.5,112.5C 348.127,112.657 346.793,112.49 345.5,112C 343.5,110.333 341.5,108.667 339.5,107C 338.167,106.833 336.833,106.667 335.5,106.5C 333.667,106.585 332.334,107.252 331.5,108.5C 330.659,107.074 329.659,105.74 328.5,104.5 Z"/></g>
<g><path style="opacity:1" fill="#f6b339" d="M 273.5,152.5 C 273.5,153.167 273.5,153.833 273.5,154.5C 260.5,154.5 247.5,154.5 234.5,154.5C 234.5,154.167 234.5,153.833 234.5,153.5C 235.496,153.586 236.329,153.252 237,152.5C 237.667,147.5 237.667,142.5 237,137.5C 233.633,132.613 230.133,127.779 226.5,123C 224.448,121.188 222.115,119.855 219.5,119C 218.216,118.316 217.049,118.483 216,119.5C 214.299,117.59 212.133,116.423 209.5,116C 163.85,116.281 118.183,116.614 72.5,117C 71.5842,117.278 70.9175,117.778 70.5,118.5C 70.1667,118.5 69.8333,118.5 69.5,118.5C 70.3597,114.566 70.693,110.566 70.5,106.5C 138.167,106.5 205.833,106.5 273.5,106.5C 273.5,121.833 273.5,137.167 273.5,152.5 Z"/></g>
<g><path style="opacity:1" fill="#aa803a" d="M 274.5,103.5 C 274.833,103.5 275.167,103.5 275.5,103.5C 275.5,119.167 275.5,134.833 275.5,150.5C 276.833,150.5 278.167,150.5 279.5,150.5C 279.5,151.167 279.5,151.833 279.5,152.5C 277.958,151.699 276.292,151.366 274.5,151.5C 274.5,135.833 274.5,120.167 274.5,104.5C 274.5,104.167 274.5,103.833 274.5,103.5 Z"/></g>
<g><path style="opacity:1" fill="#915f21" d="M 278.5,64.5 C 278.833,64.5 279.167,64.5 279.5,64.5C 279.5,93.1667 279.5,121.833 279.5,150.5C 278.167,150.5 276.833,150.5 275.5,150.5C 275.5,134.833 275.5,119.167 275.5,103.5C 275.833,103.5 276.167,103.5 276.5,103.5C 276.167,118.848 276.501,134.181 277.5,149.5C 278.5,121.508 278.833,93.5079 278.5,65.5C 278.5,65.1667 278.5,64.8333 278.5,64.5 Z"/></g>
<g><path style="opacity:1" fill="#f7eac7" d="M 315.5,102.5 C 315.833,102.5 316.167,102.5 316.5,102.5C 316.5,111.833 316.5,121.167 316.5,130.5C 312.79,132.498 309.124,134.498 305.5,136.5C 303.058,138.121 301.725,140.454 301.5,143.5C 299.824,144.183 299.157,145.517 299.5,147.5C 295.233,147.797 291.066,147.464 287,146.5C 285.594,132.885 285.094,119.218 285.5,105.5C 295.107,106.805 304.773,106.805 314.5,105.5C 315.127,104.583 315.461,103.583 315.5,102.5 Z"/></g>
<g><path style="opacity:1" fill="#58380f" d="M 278.5,65.5 C 278.833,93.5079 278.5,121.508 277.5,149.5C 276.501,134.181 276.167,118.848 276.5,103.5C 275.853,90.4559 276.52,77.7892 278.5,65.5 Z"/></g>
<g><path style="opacity:1" fill="#834e19" d="M 328.5,104.5 C 329.659,105.74 330.659,107.074 331.5,108.5C 332.75,111.006 333.416,113.673 333.5,116.5C 331.801,116.473 330.467,115.806 329.5,114.5C 328.89,112.566 327.89,110.899 326.5,109.5C 326.077,107.219 326.744,105.552 328.5,104.5 Z"/></g>
<g><path style="opacity:1" fill="#ab9e8a" d="M 288.5,107.5 C 291.5,107.5 294.5,107.5 297.5,107.5C 297.5,109.167 297.5,110.833 297.5,112.5C 294.5,112.5 291.5,112.5 288.5,112.5C 288.5,110.833 288.5,109.167 288.5,107.5 Z"/></g>
<g><path style="opacity:1" fill="#635545" d="M 289.5,108.5 C 291.833,108.5 294.167,108.5 296.5,108.5C 296.5,109.5 296.5,110.5 296.5,111.5C 294.167,111.5 291.833,111.5 289.5,111.5C 289.5,110.5 289.5,109.5 289.5,108.5 Z"/></g>
<g><path style="opacity:1" fill="#e99d40" d="M 318.5,102.5 C 319.5,102.5 320.5,102.5 321.5,102.5C 321.833,102.5 322.167,102.5 322.5,102.5C 322.5,104.833 322.5,107.167 322.5,109.5C 323.833,109.5 325.167,109.5 326.5,109.5C 327.89,110.899 328.89,112.566 329.5,114.5C 328.469,113.645 327.303,112.978 326,112.5C 323.888,113.386 321.722,113.386 319.5,112.5C 319.823,118.69 319.49,124.69 318.5,130.5C 318.5,121.167 318.5,111.833 318.5,102.5 Z"/></g>
<g><path style="opacity:1" fill="#fbad32" d="M 234.5,153.5 C 235.403,141.102 231.069,130.602 221.5,122C 217.918,120.749 214.251,119.749 210.5,119C 163.835,118.5 117.168,118.333 70.5,118.5C 70.9175,117.778 71.5842,117.278 72.5,117C 118.183,116.614 163.85,116.281 209.5,116C 212.133,116.423 214.299,117.59 216,119.5C 217.049,118.483 218.216,118.316 219.5,119C 222.115,119.855 224.448,121.188 226.5,123C 230.133,127.779 233.633,132.613 237,137.5C 237.667,142.5 237.667,147.5 237,152.5C 236.329,153.252 235.496,153.586 234.5,153.5 Z"/></g>
<g><path style="opacity:1" fill="#eaa54d" d="M 353.5,116.5 C 353.833,116.5 354.167,116.5 354.5,116.5C 354.5,123.5 354.5,130.5 354.5,137.5C 352.833,137.5 351.167,137.5 349.5,137.5C 350.261,136.609 351.261,135.942 352.5,135.5C 353.496,129.202 353.83,122.868 353.5,116.5 Z"/></g>
<g><path style="opacity:1" fill="#deb9ad" d="M 66.5,117.5 C 66.5,121.833 66.5,126.167 66.5,130.5C 65.1779,130.67 64.0113,130.337 63,129.5C 62.3333,126.167 62.3333,122.833 63,119.5C 63.8159,118.177 64.9826,117.511 66.5,117.5 Z"/></g>
<g><path style="opacity:1" fill="#f3971f" d="M 69.5,118.5 C 69.8333,118.5 70.1667,118.5 70.5,118.5C 117.168,118.333 163.835,118.5 210.5,119C 214.251,119.749 217.918,120.749 221.5,122C 231.069,130.602 235.403,141.102 234.5,153.5C 234.5,153.833 234.5,154.167 234.5,154.5C 218.925,155.126 203.592,154.46 188.5,152.5C 188.5,151.5 188.5,150.5 188.5,149.5C 189.478,149.811 190.145,150.478 190.5,151.5C 204.167,152.833 217.833,152.833 231.5,151.5C 232.458,146.917 230.791,143.417 226.5,141C 227.517,139.951 227.684,138.784 227,137.5C 224.915,135.918 223.415,133.918 222.5,131.5C 221.201,132.09 220.368,133.09 220,134.5C 219.502,131.518 219.335,128.518 219.5,125.5C 216.129,124.677 212.796,123.511 209.5,122C 205.5,121.667 201.5,121.333 197.5,121C 155.168,120.5 112.835,120.333 70.5,120.5C 70.1725,125.544 70.5059,130.544 71.5,135.5C 78.3895,137.894 80.3895,142.56 77.5,149.5C 75.4138,150.489 73.7471,151.822 72.5,153.5C 71.0937,153.027 70.427,152.027 70.5,150.5C 71.9187,149.549 73.5853,149.216 75.5,149.5C 75.665,146.15 75.4983,142.817 75,139.5C 74.6174,138.944 74.1174,138.611 73.5,138.5C 72.469,137.751 71.3024,137.085 70,136.5C 69.5005,130.509 69.3338,124.509 69.5,118.5 Z"/></g>
<g><path style="opacity:1" fill="#f78f12" d="M 188.5,149.5 C 187.812,146.082 186.812,142.749 185.5,139.5C 184.5,139 183.5,138.5 182.5,138C 161.159,137.167 139.826,137.334 118.5,138.5C 117.544,140.075 116.877,141.742 116.5,143.5C 113.858,146.192 112.858,149.525 113.5,153.5C 99.8333,153.5 86.1667,153.5 72.5,153.5C 73.7471,151.822 75.4138,150.489 77.5,149.5C 80.3895,142.56 78.3895,137.894 71.5,135.5C 70.5059,130.544 70.1725,125.544 70.5,120.5C 112.835,120.333 155.168,120.5 197.5,121C 201.5,121.333 205.5,121.667 209.5,122C 212.796,123.511 216.129,124.677 219.5,125.5C 219.335,128.518 219.502,131.518 220,134.5C 220.368,133.09 221.201,132.09 222.5,131.5C 223.415,133.918 224.915,135.918 227,137.5C 227.684,138.784 227.517,139.951 226.5,141C 230.791,143.417 232.458,146.917 231.5,151.5C 217.833,152.833 204.167,152.833 190.5,151.5C 190.145,150.478 189.478,149.811 188.5,149.5 Z"/></g>
<g><path style="opacity:1" fill="#f28f17" d="M 349.5,112.5 C 351.167,113.5 352.5,114.833 353.5,116.5C 353.83,122.868 353.496,129.202 352.5,135.5C 351.261,135.942 350.261,136.609 349.5,137.5C 347.983,137.511 346.816,138.177 346,139.5C 345.232,143.92 345.398,148.253 346.5,152.5C 345.833,152.5 345.167,152.5 344.5,152.5C 343.736,147.366 341.902,142.7 339,138.5C 338.329,137.748 337.496,137.414 336.5,137.5C 336.5,137.167 336.5,136.833 336.5,136.5C 329.687,135.509 322.687,135.175 315.5,135.5C 315.392,133.486 316.058,131.82 317.5,130.5C 317.833,130.5 318.167,130.5 318.5,130.5C 319.49,124.69 319.823,118.69 319.5,112.5C 321.722,113.386 323.888,113.386 326,112.5C 327.303,112.978 328.469,113.645 329.5,114.5C 330.467,115.806 331.801,116.473 333.5,116.5C 333.416,113.673 332.75,111.006 331.5,108.5C 332.334,107.252 333.667,106.585 335.5,106.5C 336.833,106.667 338.167,106.833 339.5,107C 341.5,108.667 343.5,110.333 345.5,112C 346.793,112.49 348.127,112.657 349.5,112.5 Z"/></g>
<g><path style="opacity:1" fill="#f2ca82" d="M 354.5,116.5 C 355.434,117.568 355.768,118.901 355.5,120.5C 356.5,120.5 357.5,120.5 358.5,120.5C 358.823,124.226 358.489,127.893 357.5,131.5C 356.016,133.282 355.016,135.282 354.5,137.5C 354.5,130.5 354.5,123.5 354.5,116.5 Z"/></g>
<g><path style="opacity:1" fill="#ea9a38" d="M 320.5,62.5 C 323.009,63.6824 324.343,65.6824 324.5,68.5C 322.315,68.7036 320.315,69.3702 318.5,70.5C 317.833,70.1667 317.167,69.8333 316.5,69.5C 316.5,68.8333 316.5,68.1667 316.5,67.5C 318.912,68.9787 320.912,68.4787 322.5,66C 320.411,64.8292 318.411,63.4959 316.5,62C 305.565,60.1012 294.565,59.4345 283.5,60C 282.133,62.3015 281.466,64.8015 281.5,67.5C 282.5,67.5 283.5,67.5 284.5,67.5C 284.217,68.2891 283.717,68.9558 283,69.5C 282.17,94.3368 282.337,119.003 283.5,143.5C 284.339,144.641 285.006,145.974 285.5,147.5C 290.456,148.494 295.456,148.827 300.5,148.5C 300.629,146.784 300.962,145.117 301.5,143.5C 301.725,140.454 303.058,138.121 305.5,136.5C 305.663,138.857 305.497,141.19 305,143.5C 303.308,146.776 302.141,150.109 301.5,153.5C 301.657,152.127 301.49,150.793 301,149.5C 295.25,150.641 289.416,150.807 283.5,150C 282.956,149.283 282.289,148.783 281.5,148.5C 281.511,119.99 280.845,91.6565 279.5,63.5C 279.5,62.8333 279.5,62.1667 279.5,61.5C 280.627,60.8783 281.627,60.045 282.5,59C 291.167,58.3333 299.833,58.3333 308.5,59C 312.89,59.2593 316.89,60.4259 320.5,62.5 Z"/></g>
<g><path style="opacity:1" fill="#f4d69e" d="M 287.5,67.5 C 287.5,67.1667 287.5,66.8333 287.5,66.5C 297.219,66.2181 306.886,66.5514 316.5,67.5C 316.5,68.1667 316.5,68.8333 316.5,69.5C 315.391,69.4431 314.391,69.1098 313.5,68.5C 305.016,67.507 296.349,67.1736 287.5,67.5 Z"/></g>
<g><path style="opacity:1" fill="#f19425" d="M 316.5,67.5 C 306.886,66.5514 297.219,66.2181 287.5,66.5C 286.391,66.5569 285.391,66.8902 284.5,67.5C 283.5,67.5 282.5,67.5 281.5,67.5C 281.466,64.8015 282.133,62.3015 283.5,60C 294.565,59.4345 305.565,60.1012 316.5,62C 318.411,63.4959 320.411,64.8292 322.5,66C 320.912,68.4787 318.912,68.9787 316.5,67.5 Z"/></g>
<g><path style="opacity:1" fill="#f7d79e" d="M 284.5,70.5 C 284.209,82.2172 284.542,93.8838 285.5,105.5C 285.094,119.218 285.594,132.885 287,146.5C 291.066,147.464 295.233,147.797 299.5,147.5C 299.157,145.517 299.824,144.183 301.5,143.5C 300.962,145.117 300.629,146.784 300.5,148.5C 295.456,148.827 290.456,148.494 285.5,147.5C 285.006,145.974 284.339,144.641 283.5,143.5C 283.169,118.994 283.502,94.6609 284.5,70.5 Z"/></g>
<g><path style="opacity:1" fill="#7a7a7a" d="M 423.5,136.5 C 428.65,135.349 433.984,135.183 439.5,136C 440.056,136.383 440.389,136.883 440.5,137.5C 434.879,136.646 429.212,136.313 423.5,136.5 Z"/></g>
<g><path style="opacity:1" fill="#838383" d="M 488.5,136.5 C 494.319,135.347 500.319,135.181 506.5,136C 507.056,136.383 507.389,136.883 507.5,137.5C 502.897,136.617 498.23,136.283 493.5,136.5C 491.833,136.5 490.167,136.5 488.5,136.5 Z"/></g>
<g><path style="opacity:1" fill="#7c5524" d="M 336.5,136.5 C 336.5,136.833 336.5,137.167 336.5,137.5C 327.447,137.222 318.447,137.556 309.5,138.5C 318.105,136.529 327.105,135.862 336.5,136.5 Z"/></g>
<g><path style="opacity:1" fill="#c97f26" d="M 188.5,149.5 C 188.5,150.5 188.5,151.5 188.5,152.5C 187.278,149.272 185.612,146.272 183.5,143.5C 183.5,142.167 183.5,140.833 183.5,139.5C 181.833,139.5 180.167,139.5 178.5,139.5C 159.338,138.338 140.004,138.171 120.5,139C 119.267,140.667 117.933,142.167 116.5,143.5C 116.877,141.742 117.544,140.075 118.5,138.5C 139.826,137.334 161.159,137.167 182.5,138C 183.5,138.5 184.5,139 185.5,139.5C 186.812,142.749 187.812,146.082 188.5,149.5 Z"/></g>
<g><path style="opacity:1" fill="#4c4c4c" d="M 421.5,136.5 C 422.167,136.5 422.833,136.5 423.5,136.5C 429.212,136.313 434.879,136.646 440.5,137.5C 441.338,137.842 441.672,138.508 441.5,139.5C 438.545,138.841 435.545,138.508 432.5,138.5C 432.825,145.687 432.491,152.687 431.5,159.5C 430.833,130.167 430.167,130.167 429.5,159.5C 428.509,152.687 428.175,145.687 428.5,138.5C 424.759,137.599 422.759,138.932 422.5,142.5C 421.5,142.5 420.5,142.5 419.5,142.5C 419.253,140.142 419.919,138.142 421.5,136.5 Z"/></g>
<g><path style="opacity:1" fill="#7e4f1a" d="M 178.5,139.5 C 160.83,139.333 143.164,139.5 125.5,140C 123.369,140.543 121.369,141.376 119.5,142.5C 119.043,144.598 118.043,146.264 116.5,147.5C 116.5,146.167 116.5,144.833 116.5,143.5C 117.933,142.167 119.267,140.667 120.5,139C 140.004,138.171 159.338,138.338 178.5,139.5 Z"/></g>
<g><path style="opacity:1" fill="#5a4125" d="M 336.5,137.5 C 337.496,137.414 338.329,137.748 339,138.5C 341.902,142.7 343.736,147.366 344.5,152.5C 344.5,153.167 344.5,153.833 344.5,154.5C 343.5,154.5 342.5,154.5 341.5,154.5C 341.611,153.883 341.944,153.383 342.5,153C 341.403,148.414 340.07,143.914 338.5,139.5C 331.847,138.946 325.18,138.612 318.5,138.5C 314.413,138.294 310.913,139.627 308,142.5C 307.07,146.917 305.904,151.25 304.5,155.5C 304.167,155.5 303.833,155.5 303.5,155.5C 303.167,155.5 302.833,155.5 302.5,155.5C 304.004,149.492 306.337,143.825 309.5,138.5C 318.447,137.556 327.447,137.222 336.5,137.5 Z"/></g>
<g><path style="opacity:1" fill="#868686" d="M 489.5,139.5 C 490.919,138.549 492.585,138.216 494.5,138.5C 495.491,145.313 495.825,152.313 495.5,159.5C 496.5,159.5 497.5,159.5 498.5,159.5C 498.5,159.833 498.5,160.167 498.5,160.5C 497.167,160.5 495.833,160.5 494.5,160.5C 494.5,153.5 494.5,146.5 494.5,139.5C 492.833,139.5 491.167,139.5 489.5,139.5 Z"/></g>
<g><path style="opacity:1" fill="#221f1d" d="M 318.5,138.5 C 325.18,138.612 331.847,138.946 338.5,139.5C 340.07,143.914 341.403,148.414 342.5,153C 341.944,153.383 341.611,153.883 341.5,154.5C 339.815,160.208 336.815,165.208 332.5,169.5C 327.584,170.611 322.584,170.778 317.5,170C 315.676,169.34 314.343,168.173 313.5,166.5C 312.847,165.193 312.18,163.86 311.5,162.5C 311.957,161.702 312.624,161.369 313.5,161.5C 317.653,166.295 322.986,167.795 329.5,166C 330.416,165.722 331.082,165.222 331.5,164.5C 331.932,163.29 332.599,162.29 333.5,161.5C 338.147,154.884 337.147,149.051 330.5,144C 323.429,140.906 317.762,142.406 313.5,148.5C 312.034,149.347 311.2,150.68 311,152.5C 310.667,154.833 310.333,157.167 310,159.5C 306.811,151.927 308.311,145.594 314.5,140.5C 315.949,139.828 317.282,139.161 318.5,138.5 Z"/></g>
<g><path style="opacity:1" fill="#f8e8c2" d="M 347.5,109.5 C 349.372,110.511 351.372,111.345 353.5,112C 359.869,119.063 361.203,127.063 357.5,136C 361.892,149.448 357.226,155.948 343.5,155.5C 344.167,155.5 344.5,155.167 344.5,154.5C 344.5,153.833 344.5,153.167 344.5,152.5C 345.167,152.5 345.833,152.5 346.5,152.5C 348.857,152.663 351.19,152.497 353.5,152C 354.337,150.989 354.67,149.822 354.5,148.5C 351.833,148.5 349.167,148.5 346.5,148.5C 345.807,144.247 346.807,140.581 349.5,137.5C 351.167,137.5 352.833,137.5 354.5,137.5C 355.016,135.282 356.016,133.282 357.5,131.5C 358.489,127.893 358.823,124.226 358.5,120.5C 357.5,120.5 356.5,120.5 355.5,120.5C 355.768,118.901 355.434,117.568 354.5,116.5C 354.167,116.5 353.833,116.5 353.5,116.5C 352.5,114.833 351.167,113.5 349.5,112.5C 348.833,111.5 348.167,110.5 347.5,109.5 Z"/></g>
<g><path style="opacity:1" fill="#c4c4c4" d="M 421.5,136.5 C 419.919,138.142 419.253,140.142 419.5,142.5C 420.5,142.5 421.5,142.5 422.5,142.5C 422.759,138.932 424.759,137.599 428.5,138.5C 428.175,145.687 428.509,152.687 429.5,159.5C 429.5,159.833 429.5,160.167 429.5,160.5C 427.856,153.881 426.856,146.881 426.5,139.5C 425.155,140.347 424.155,141.513 423.5,143C 421.866,143.494 420.199,143.66 418.5,143.5C 418.338,141.473 418.505,139.473 419,137.5C 419.671,136.748 420.504,136.414 421.5,136.5 Z"/></g>
<g><path style="opacity:1" fill="#4b4b4b" d="M 488.5,136.5 C 490.167,136.5 491.833,136.5 493.5,136.5C 493.833,137.167 494.167,137.833 494.5,138.5C 492.585,138.216 490.919,138.549 489.5,139.5C 489.306,141.912 487.973,142.912 485.5,142.5C 485.34,140.801 485.506,139.134 486,137.5C 486.671,136.748 487.504,136.414 488.5,136.5 Z"/></g>
<g><path style="opacity:1" fill="#d3d3d3" d="M 507.5,137.5 C 508.434,138.568 508.768,139.901 508.5,141.5C 505.794,141.425 503.127,141.092 500.5,140.5C 500.666,146.842 500.5,153.175 500,159.5C 499.617,160.056 499.117,160.389 498.5,160.5C 498.5,160.167 498.5,159.833 498.5,159.5C 498.5,152.5 498.5,145.5 498.5,138.5C 500.884,138.443 503.218,138.777 505.5,139.5C 506.713,139.253 507.38,138.586 507.5,137.5 Z"/></g>
<g><path style="opacity:1" fill="#191919" d="M 431.5,159.5 C 431.5,159.833 431.5,160.167 431.5,160.5C 430.833,160.5 430.167,160.5 429.5,160.5C 429.5,160.167 429.5,159.833 429.5,159.5C 430.167,130.167 430.833,130.167 431.5,159.5 Z"/></g>
<g><path style="opacity:1" fill="#b4b4b4" d="M 441.5,139.5 C 439.019,140.258 436.352,140.258 433.5,139.5C 434.128,146.913 433.461,153.913 431.5,160.5C 431.5,160.167 431.5,159.833 431.5,159.5C 432.491,152.687 432.825,145.687 432.5,138.5C 435.545,138.508 438.545,138.841 441.5,139.5 Z"/></g>
<g><path style="opacity:1" fill="#2c2c2c" d="M 493.5,136.5 C 498.23,136.283 502.897,136.617 507.5,137.5C 507.38,138.586 506.713,139.253 505.5,139.5C 503.218,138.777 500.884,138.443 498.5,138.5C 498.5,145.5 498.5,152.5 498.5,159.5C 497.5,159.5 496.5,159.5 495.5,159.5C 495.825,152.313 495.491,145.313 494.5,138.5C 494.167,137.833 493.833,137.167 493.5,136.5 Z"/></g>
<g><path style="opacity:1" fill="#b9b9b9" d="M 475.5,156.5 C 475.5,155.833 475.5,155.167 475.5,154.5C 476.237,150.079 476.237,145.746 475.5,141.5C 473.562,139.837 471.228,139.171 468.5,139.5C 471.424,136.782 474.257,137.115 477,140.5C 477.453,143.84 477.953,147.174 478.5,150.5C 478.533,153.102 477.533,155.102 475.5,156.5 Z"/></g>
<g><path style="opacity:1" fill="#3c2b1b" d="M 178.5,139.5 C 180.167,139.5 181.833,139.5 183.5,139.5C 183.5,140.833 183.5,142.167 183.5,143.5C 182.234,142.91 180.901,142.41 179.5,142C 172.508,141.5 165.508,141.334 158.5,141.5C 153.5,141.5 148.5,141.5 143.5,141.5C 135.928,139.681 128.595,140.348 121.5,143.5C 118.56,147.321 117.227,151.654 117.5,156.5C 116.833,156.167 116.167,155.833 115.5,155.5C 115.194,152.615 115.527,149.948 116.5,147.5C 118.043,146.264 119.043,144.598 119.5,142.5C 121.369,141.376 123.369,140.543 125.5,140C 143.164,139.5 160.83,139.333 178.5,139.5 Z"/></g>
<g><path style="opacity:1" fill="#202020" d="M 475.5,141.5 C 476.237,145.746 476.237,150.079 475.5,154.5C 475.083,151.841 474.083,149.508 472.5,147.5C 472.621,144.895 473.621,142.895 475.5,141.5 Z"/></g>
<g><path style="opacity:1" fill="#505050" d="M 468.5,139.5 C 471.228,139.171 473.562,139.837 475.5,141.5C 473.621,142.895 472.621,144.895 472.5,147.5C 467.296,146.399 467.296,145.065 472.5,143.5C 470.955,142.548 469.288,142.215 467.5,142.5C 467.263,141.209 467.596,140.209 468.5,139.5 Z"/></g>
<g><path style="opacity:1" fill="#464646" d="M 449.5,146.5 C 451.604,146.201 453.604,146.534 455.5,147.5C 454.5,147.833 453.5,148.167 452.5,148.5C 450.97,148.36 449.97,147.693 449.5,146.5 Z"/></g>
<g><path style="opacity:1" fill="#bebbb9" d="M 179.5,147.5 C 183.407,155.165 181.74,161.332 174.5,166C 171.167,166.667 167.833,166.667 164.5,166C 162.249,165.252 160.916,163.752 160.5,161.5C 159.676,158.236 159.342,154.902 159.5,151.5C 160.833,151.5 162.167,151.5 163.5,151.5C 163.52,149.857 162.853,148.524 161.5,147.5C 162.867,146.16 164.2,144.827 165.5,143.5C 170.922,141.747 175.588,143.08 179.5,147.5 Z"/></g>
<g><path style="opacity:1" fill="#b7b4b3" d="M 333.5,161.5 C 334.038,159.883 334.371,158.216 334.5,156.5C 333.5,156.5 332.5,156.5 331.5,156.5C 331.923,153.712 330.923,151.712 328.5,150.5C 328.324,152.672 328.157,155.005 328,157.5C 325.936,158.591 323.769,158.758 321.5,158C 320.88,155.527 320.214,153.027 319.5,150.5C 318.009,151.348 317.342,152.681 317.5,154.5C 317.84,156.512 318.173,158.512 318.5,160.5C 319.5,160.5 320.5,160.5 321.5,160.5C 321.52,162.143 320.853,163.476 319.5,164.5C 323.493,165.613 327.493,165.613 331.5,164.5C 331.082,165.222 330.416,165.722 329.5,166C 322.986,167.795 317.653,166.295 313.5,161.5C 312.167,157.167 312.167,152.833 313.5,148.5C 317.762,142.406 323.429,140.906 330.5,144C 337.147,149.051 338.147,154.884 333.5,161.5 Z"/></g>
<g><path style="opacity:1" fill="#eda74d" d="M 349.5,137.5 C 346.807,140.581 345.807,144.247 346.5,148.5C 349.167,148.5 351.833,148.5 354.5,148.5C 354.67,149.822 354.337,150.989 353.5,152C 351.19,152.497 348.857,152.663 346.5,152.5C 345.398,148.253 345.232,143.92 346,139.5C 346.816,138.177 347.983,137.511 349.5,137.5 Z"/></g>
<g><path style="opacity:1" fill="#201e1a" d="M 158.5,141.5 C 165.508,141.334 172.508,141.5 179.5,142C 180.901,142.41 182.234,142.91 183.5,143.5C 185.531,147.216 186.531,151.216 186.5,155.5C 185.659,157.812 184.659,160.145 183.5,162.5C 182.675,158.353 182.175,154.019 182,149.5C 181.292,148.619 180.458,147.953 179.5,147.5C 175.588,143.08 170.922,141.747 165.5,143.5C 162.3,144.044 159.967,145.71 158.5,148.5C 157.883,148.611 157.383,148.944 157,149.5C 156.667,152.833 156.333,156.167 156,159.5C 155.487,156.973 154.32,154.807 152.5,153C 153.577,148.649 155.577,144.815 158.5,141.5 Z"/></g>
<g><path style="opacity:1" fill="#292929" d="M 409.5,156.5 C 406.278,156.892 403.278,156.392 400.5,155C 402.058,154.79 403.391,154.29 404.5,153.5C 404.5,151.5 404.5,149.5 404.5,147.5C 405.468,145.393 405.802,143.059 405.5,140.5C 406.5,140.5 407.5,140.5 408.5,140.5C 408.386,143.85 408.053,147.183 407.5,150.5C 407.87,152.667 408.537,154.667 409.5,156.5 Z"/></g>
<g><path style="opacity:1" fill="#573d1d" d="M 183.5,143.5 C 185.612,146.272 187.278,149.272 188.5,152.5C 188.5,153.5 188.5,154.5 188.5,155.5C 188.167,155.5 187.833,155.5 187.5,155.5C 187.167,155.5 186.833,155.5 186.5,155.5C 186.531,151.216 185.531,147.216 183.5,143.5 Z"/></g>
<g><path style="opacity:1" fill="#f48f1b" d="M 281.5,148.5 C 282.289,148.783 282.956,149.283 283.5,150C 289.416,150.807 295.25,150.641 301,149.5C 301.49,150.793 301.657,152.127 301.5,153.5C 295.158,153.666 288.825,153.5 282.5,153C 281.62,151.644 281.286,150.144 281.5,148.5 Z"/></g>
<g><path style="opacity:1" fill="#df902f" d="M 116.5,143.5 C 116.5,144.833 116.5,146.167 116.5,147.5C 115.527,149.948 115.194,152.615 115.5,155.5C 115.167,155.5 114.833,155.5 114.5,155.5C 99.5781,154.517 84.5781,154.184 69.5,154.5C 69.2322,152.901 69.5655,151.568 70.5,150.5C 70.427,152.027 71.0937,153.027 72.5,153.5C 86.1667,153.5 99.8333,153.5 113.5,153.5C 112.858,149.525 113.858,146.192 116.5,143.5 Z"/></g>
<g><path style="opacity:1" fill="#898583" d="M 165.5,143.5 C 164.2,144.827 162.867,146.16 161.5,147.5C 162.853,148.524 163.52,149.857 163.5,151.5C 162.167,151.5 160.833,151.5 159.5,151.5C 159.342,154.902 159.676,158.236 160.5,161.5C 159.034,160.653 158.2,159.32 158,157.5C 157.366,154.445 157.532,151.445 158.5,148.5C 159.967,145.71 162.3,144.044 165.5,143.5 Z"/></g>
<g><path style="opacity:1" fill="#6d6d6d" d="M 409.5,156.5 C 408.537,154.667 407.87,152.667 407.5,150.5C 408.053,147.183 408.386,143.85 408.5,140.5C 407.5,140.5 406.5,140.5 405.5,140.5C 405.802,143.059 405.468,145.393 404.5,147.5C 404.5,146.167 404.5,144.833 404.5,143.5C 400.473,143.719 399.806,142.552 402.5,140C 404.81,139.503 407.143,139.337 409.5,139.5C 409.331,144.181 408.998,148.848 408.5,153.5C 409.5,153.5 410.5,153.5 411.5,153.5C 411.715,155.179 411.048,156.179 409.5,156.5 Z"/></g>
<g><path style="opacity:1" fill="#ebb770" d="M 73.5,138.5 C 74.1174,138.611 74.6174,138.944 75,139.5C 75.4983,142.817 75.665,146.15 75.5,149.5C 73.5853,149.216 71.9187,149.549 70.5,150.5C 69.5655,151.568 69.2322,152.901 69.5,154.5C 84.5781,154.184 99.5781,154.517 114.5,155.5C 114.5,155.833 114.5,156.167 114.5,156.5C 99.4963,156.667 84.4963,156.5 69.5,156C 68.0564,154.874 67.3898,153.374 67.5,151.5C 68.4267,148.013 70.7601,146.68 74.5,147.5C 74.6323,144.43 74.299,141.43 73.5,138.5 Z"/></g>
<g><path style="opacity:1" fill="#eab869" d="M 188.5,152.5 C 203.592,154.46 218.925,155.126 234.5,154.5C 247.5,154.5 260.5,154.5 273.5,154.5C 245.338,155.498 217.005,155.831 188.5,155.5C 188.5,154.5 188.5,153.5 188.5,152.5 Z"/></g>
<g><path style="opacity:1" fill="#f3d8a6" d="M 274.5,151.5 C 276.292,151.366 277.958,151.699 279.5,152.5C 280.478,152.811 281.145,153.478 281.5,154.5C 288.468,155.497 295.468,155.83 302.5,155.5C 302.833,155.5 303.167,155.5 303.5,155.5C 303.5,156.167 303.5,156.833 303.5,157.5C 295.826,157.666 288.159,157.5 280.5,157C 279.025,152.917 277.025,152.584 274.5,156C 245.835,156.5 217.169,156.667 188.5,156.5C 188.167,156.5 187.833,156.5 187.5,156.5C 187.5,156.167 187.5,155.833 187.5,155.5C 187.833,155.5 188.167,155.5 188.5,155.5C 217.005,155.831 245.338,155.498 273.5,154.5C 273.5,153.833 273.5,153.167 273.5,152.5C 274.167,152.5 274.5,152.167 274.5,151.5 Z"/></g>
<g><path style="opacity:1" fill="#4e4e4e" d="M 472.5,147.5 C 474.083,149.508 475.083,151.841 475.5,154.5C 475.5,155.167 475.5,155.833 475.5,156.5C 473.512,156.827 471.512,157.16 469.5,157.5C 466.136,157.094 465.136,155.428 466.5,152.5C 472.311,154.919 474.311,153.252 472.5,147.5 Z"/></g>
<g><path style="opacity:1" fill="#8b8b8b" d="M 404.5,153.5 C 403.391,154.29 402.058,154.79 400.5,155C 403.278,156.392 406.278,156.892 409.5,156.5C 406.696,157.638 403.696,157.805 400.5,157C 399.663,155.989 399.33,154.822 399.5,153.5C 401.167,153.5 402.833,153.5 404.5,153.5 Z"/></g>
<g><path style="opacity:1" fill="#fcf8e5" d="M 303.5,157.5 C 295.709,159.544 287.709,159.878 279.5,158.5C 277.824,156.079 275.824,155.912 273.5,158C 247.833,158.667 222.167,158.667 196.5,158C 193.635,157.817 190.969,157.317 188.5,156.5C 217.169,156.667 245.835,156.5 274.5,156C 277.025,152.584 279.025,152.917 280.5,157C 288.159,157.5 295.826,157.666 303.5,157.5 Z"/></g>
<g><path style="opacity:1" fill="#3d3835" d="M 318.5,138.5 C 317.282,139.161 315.949,139.828 314.5,140.5C 308.311,145.594 306.811,151.927 310,159.5C 310.333,157.167 310.667,154.833 311,152.5C 311.2,150.68 312.034,149.347 313.5,148.5C 312.167,152.833 312.167,157.167 313.5,161.5C 312.624,161.369 311.957,161.702 311.5,162.5C 312.18,163.86 312.847,165.193 313.5,166.5C 309.236,165.136 307.403,162.136 308,157.5C 307.184,156.177 306.017,155.511 304.5,155.5C 305.904,151.25 307.07,146.917 308,142.5C 310.913,139.627 314.413,138.294 318.5,138.5 Z"/></g>
<g><path style="opacity:1" fill="#b9b4b3" d="M 124.5,148.5 C 125.5,148.5 126.5,148.5 127.5,148.5C 125.358,153.465 126.358,157.632 130.5,161C 138.143,162.207 141.143,159.041 139.5,151.5C 141.124,151.64 142.29,150.973 143,149.5C 143.564,151.562 143.064,153.395 141.5,155C 142.707,156.3 143.374,157.8 143.5,159.5C 142.55,162.115 140.883,164.115 138.5,165.5C 128.316,168.724 122.65,164.891 121.5,154C 121.124,151.345 122.124,149.512 124.5,148.5 Z"/></g>
<g><path style="opacity:1" fill="#8b8587" d="M 186.5,155.5 C 186.833,155.5 187.167,155.5 187.5,155.5C 187.5,155.833 187.5,156.167 187.5,156.5C 186.717,158.343 186.05,160.343 185.5,162.5C 185.043,163.298 184.376,163.631 183.5,163.5C 183.5,163.167 183.5,162.833 183.5,162.5C 184.659,160.145 185.659,157.812 186.5,155.5 Z"/></g>
<g><path style="opacity:1" fill="#aeaba8" d="M 114.5,156.5 C 114.5,156.167 114.5,155.833 114.5,155.5C 114.833,155.5 115.167,155.5 115.5,155.5C 116.167,155.833 116.833,156.167 117.5,156.5C 118.367,159.443 119.367,162.443 120.5,165.5C 117.393,163.848 115.727,161.181 115.5,157.5C 115.5,156.833 115.167,156.5 114.5,156.5 Z"/></g>
<g><path style="opacity:1" fill="#433f3c" d="M 144.5,148.5 C 145.117,148.611 145.617,148.944 146,149.5C 146.176,153.688 146.676,157.688 147.5,161.5C 147.5,162.167 147.5,162.833 147.5,163.5C 145.984,167.677 142.984,170.011 138.5,170.5C 140.132,169.168 141.799,167.835 143.5,166.5C 141.955,165.548 140.288,165.215 138.5,165.5C 140.883,164.115 142.55,162.115 143.5,159.5C 145.785,156.134 146.119,152.468 144.5,148.5 Z"/></g>
<g><path style="opacity:1" fill="#c9c9c7" d="M 161.5,169.5 C 154.069,168.9 150.902,164.9 152,157.5C 151.208,160.106 149.708,162.106 147.5,163.5C 147.5,162.833 147.5,162.167 147.5,161.5C 149.067,160.319 149.901,158.653 150,156.5C 150.718,155.549 151.551,155.383 152.5,156C 154.071,159.071 155.571,162.238 157,165.5C 158.992,166.328 160.492,167.661 161.5,169.5 Z"/></g>
<g><path style="opacity:1" fill="#cfcacb" d="M 333.5,161.5 C 332.599,162.29 331.932,163.29 331.5,164.5C 327.493,165.613 323.493,165.613 319.5,164.5C 320.853,163.476 321.52,162.143 321.5,160.5C 320.5,160.5 319.5,160.5 318.5,160.5C 318.173,158.512 317.84,156.512 317.5,154.5C 317.342,152.681 318.009,151.348 319.5,150.5C 320.214,153.027 320.88,155.527 321.5,158C 323.769,158.758 325.936,158.591 328,157.5C 328.157,155.005 328.324,152.672 328.5,150.5C 330.923,151.712 331.923,153.712 331.5,156.5C 332.5,156.5 333.5,156.5 334.5,156.5C 334.371,158.216 334.038,159.883 333.5,161.5 Z"/></g>
<g><path style="opacity:1" fill="#25211e" d="M 143.5,141.5 C 144.622,142.947 146.122,143.947 148,144.5C 148.333,145.5 148.667,146.5 149,147.5C 149.648,152.312 149.148,156.978 147.5,161.5C 146.676,157.688 146.176,153.688 146,149.5C 145.617,148.944 145.117,148.611 144.5,148.5C 142.37,146.873 140.37,145.04 138.5,143C 134.406,142.233 130.406,142.566 126.5,144C 125.695,145.113 125.028,146.279 124.5,147.5C 124.5,147.833 124.5,148.167 124.5,148.5C 122.124,149.512 121.124,151.345 121.5,154C 122.65,164.891 128.316,168.724 138.5,165.5C 140.288,165.215 141.955,165.548 143.5,166.5C 141.799,167.835 140.132,169.168 138.5,170.5C 133.968,170.818 129.634,170.485 125.5,169.5C 124.421,167.457 122.754,166.124 120.5,165.5C 119.367,162.443 118.367,159.443 117.5,156.5C 117.227,151.654 118.56,147.321 121.5,143.5C 128.595,140.348 135.928,139.681 143.5,141.5 Z"/></g>
<g><path style="opacity:1" fill="#e0dcdc" d="M 139.5,151.5 C 141.143,159.041 138.143,162.207 130.5,161C 126.358,157.632 125.358,153.465 127.5,148.5C 126.5,148.5 125.5,148.5 124.5,148.5C 124.5,148.167 124.5,147.833 124.5,147.5C 129.393,147.869 134.56,147.869 140,147.5C 140.5,147.667 141,147.833 141.5,148C 140.027,148.71 139.36,149.876 139.5,151.5 Z"/></g>
<g><path style="opacity:1" fill="#a4a2a1" d="M 129.5,151.5 C 132.167,151.5 134.833,151.5 137.5,151.5C 137.5,153.5 137.5,155.5 137.5,157.5C 134.833,157.5 132.167,157.5 129.5,157.5C 129.5,155.5 129.5,153.5 129.5,151.5 Z"/></g>
<g><path style="opacity:1" fill="#a29e9c" d="M 144.5,148.5 C 146.119,152.468 145.785,156.134 143.5,159.5C 143.374,157.8 142.707,156.3 141.5,155C 143.064,153.395 143.564,151.562 143,149.5C 142.29,150.973 141.124,151.64 139.5,151.5C 139.36,149.876 140.027,148.71 141.5,148C 141,147.833 140.5,147.667 140,147.5C 134.56,147.869 129.393,147.869 124.5,147.5C 125.028,146.279 125.695,145.113 126.5,144C 130.406,142.566 134.406,142.233 138.5,143C 140.37,145.04 142.37,146.873 144.5,148.5 Z"/></g>
<g><path style="opacity:1" fill="#322d2b" d="M 143.5,141.5 C 148.5,141.5 153.5,141.5 158.5,141.5C 155.577,144.815 153.577,148.649 152.5,153C 154.32,154.807 155.487,156.973 156,159.5C 156.333,156.167 156.667,152.833 157,149.5C 157.383,148.944 157.883,148.611 158.5,148.5C 157.532,151.445 157.366,154.445 158,157.5C 158.2,159.32 159.034,160.653 160.5,161.5C 160.916,163.752 162.249,165.252 164.5,166C 167.833,166.667 171.167,166.667 174.5,166C 181.74,161.332 183.407,155.165 179.5,147.5C 180.458,147.953 181.292,148.619 182,149.5C 182.175,154.019 182.675,158.353 183.5,162.5C 183.5,162.833 183.5,163.167 183.5,163.5C 182.295,166.872 179.961,169.038 176.5,170C 171.316,170.816 166.316,170.65 161.5,169.5C 160.492,167.661 158.992,166.328 157,165.5C 155.571,162.238 154.071,159.071 152.5,156C 151.551,155.383 150.718,155.549 150,156.5C 149.901,158.653 149.067,160.319 147.5,161.5C 149.148,156.978 149.648,152.312 149,147.5C 148.667,146.5 148.333,145.5 148,144.5C 146.122,143.947 144.622,142.947 143.5,141.5 Z"/></g>
<g><path style="opacity:1" fill="#e0dcdb" d="M 163.5,151.5 C 164.117,151.389 164.617,151.056 165,150.5C 163.793,157.637 166.459,159.97 173,157.5C 173.186,155.1 173.686,152.766 174.5,150.5C 177.055,153.771 177.055,157.105 174.5,160.5C 166.096,163.413 162.43,160.413 163.5,151.5 Z"/></g>
<g><path style="opacity:1" fill="#cbc8c6" d="M 341.5,154.5 C 342.5,154.5 343.5,154.5 344.5,154.5C 344.5,155.167 344.167,155.5 343.5,155.5C 341.643,157.261 340.643,159.594 340.5,162.5C 340.68,163.554 341.013,164.554 341.5,165.5C 340.726,166.711 339.893,166.711 339,165.5C 338.517,166.448 338.351,167.448 338.5,168.5C 336.435,168.517 334.435,168.85 332.5,169.5C 336.815,165.208 339.815,160.208 341.5,154.5 Z"/></g>
<g><path style="opacity:1" fill="#979591" d="M 120.5,165.5 C 122.754,166.124 124.421,167.457 125.5,169.5C 122.796,169.33 121.129,167.997 120.5,165.5 Z"/></g>
</svg>
