<?xml version="1.0" encoding="UTF-8"?>
<!DOCTYPE svg PUBLIC "-//W3C//DTD SVG 1.1//EN" "http://www.w3.org/Graphics/SVG/1.1/DTD/svg11.dtd">
<svg xmlns="http://www.w3.org/2000/svg" version="1.1" width="566px" height="191px" style="shape-rendering:geometricPrecision; text-rendering:geometricPrecision; image-rendering:optimizeQuality; fill-rule:evenodd; clip-rule:evenodd" xmlns:xlink="http://www.w3.org/1999/xlink">
<g><path style="opacity:0.997" fill="#fefefe" d="M -0.5,-0.5 C 188.167,-0.5 376.833,-0.5 565.5,-0.5C 565.5,63.1667 565.5,126.833 565.5,190.5C 376.833,190.5 188.167,190.5 -0.5,190.5C -0.5,126.833 -0.5,63.1667 -0.5,-0.5 Z"/></g>
<g><path style="opacity:1" fill="#383838" d="M 398.5,100.5 C 412.99,99.504 427.657,99.1707 442.5,99.5C 442.784,97.5853 442.451,95.9187 441.5,94.5C 441.806,91.6146 441.473,88.9479 440.5,86.5C 440.778,79.511 439.778,72.8443 437.5,66.5C 434.15,66.665 430.817,66.4983 427.5,66C 426.457,63.6268 426.79,61.4601 428.5,59.5C 431.226,54.1125 430.226,49.2791 425.5,45C 416.523,41.9513 411.856,45.2846 411.5,55C 411.569,56.9855 412.235,58.4855 413.5,59.5C 414.605,61.7131 414.605,63.8797 413.5,66C 410.183,66.4983 406.85,66.665 403.5,66.5C 401.74,73.2612 400.74,80.2612 400.5,87.5C 399.523,90.2869 399.19,93.2869 399.5,96.5C 398.778,96.9175 398.278,97.5842 398,98.5C 397.506,96.8659 397.34,95.1992 397.5,93.5C 398.002,83.8053 398.835,74.1386 400,64.5C 402.674,62.1295 405.841,60.9628 409.5,61C 406.294,53.0671 408.294,46.7337 415.5,42C 418.03,40.5783 420.697,40.245 423.5,41C 431.995,44.8298 434.995,51.3298 432.5,60.5C 438.224,60.2628 441.391,62.9295 442,68.5C 442.171,77.1128 443.005,85.6128 444.5,94C 444.372,96.7073 443.705,99.2073 442.5,101.5C 435.167,101.833 427.833,102.167 420.5,102.5C 412.802,102.497 405.468,101.831 398.5,100.5 Z"/></g>
<g><path style="opacity:1" fill="#b7b7b7" d="M 428.5,59.5 C 428.672,58.5084 428.338,57.8417 427.5,57.5C 427.928,48.3915 424.094,45.3915 416,48.5C 413.395,51.9089 412.895,55.5756 414.5,59.5C 414.167,59.5 413.833,59.5 413.5,59.5C 412.235,58.4855 411.569,56.9855 411.5,55C 411.856,45.2846 416.523,41.9513 425.5,45C 430.226,49.2791 431.226,54.1125 428.5,59.5 Z"/></g>
<g><path style="opacity:1" fill="#2e2e2e" d="M 427.5,57.5 C 423.941,63.1393 419.607,63.8059 414.5,59.5C 412.895,55.5756 413.395,51.9089 416,48.5C 424.094,45.3915 427.928,48.3915 427.5,57.5 Z"/></g>
<g><path style="opacity:1" fill="#ededed" d="M 417.5,50.5 C 422.993,49.178 425.493,51.178 425,56.5C 420.942,59.6317 417.775,58.965 415.5,54.5C 416.63,53.3777 417.297,52.0443 417.5,50.5 Z"/></g>
<g><path style="opacity:1" fill="#fcf1eb" d="M 220.5,59.5 C 212.833,59.5 205.167,59.5 197.5,59.5C 167.167,59.5 136.833,59.5 106.5,59.5C 108.969,58.6829 111.635,58.1829 114.5,58C 142.513,57.7999 170.513,57.2999 198.5,56.5C 205.981,57.5068 213.315,58.5068 220.5,59.5 Z"/></g>
<g><path style="opacity:1" fill="#f6cdbd" d="M 197.5,59.5 C 205.167,59.5 212.833,59.5 220.5,59.5C 222.631,60.3138 224.964,60.8138 227.5,61C 228.805,63.7868 230.472,66.2868 232.5,68.5C 229.851,66.86 227.184,65.1933 224.5,63.5C 222.611,62.678 220.611,61.8447 218.5,61C 211.321,60.8285 204.321,60.3285 197.5,59.5 Z"/></g>
<g><path style="opacity:1" fill="#cc5531" d="M 105.5,59.5 C 105.833,59.5 106.167,59.5 106.5,59.5C 136.833,59.5 167.167,59.5 197.5,59.5C 204.321,60.3285 211.321,60.8285 218.5,61C 220.611,61.8447 222.611,62.678 224.5,63.5C 222.473,63.3379 220.473,63.5045 218.5,64C 220.192,65.3073 221.525,66.8073 222.5,68.5C 221.833,68.5 221.167,68.5 220.5,68.5C 219.329,67.6554 217.995,66.9887 216.5,66.5C 214.5,65.8333 212.5,65.1667 210.5,64.5C 212.5,64.5 214.5,64.5 216.5,64.5C 216.5,63.5 216.5,62.5 216.5,61.5C 174.5,61.5 132.5,61.5 90.5,61.5C 90.5,61.1667 90.5,60.8333 90.5,60.5C 95.6946,60.8205 100.695,60.4872 105.5,59.5 Z"/></g>
<g><path style="opacity:1" fill="#fafafa" d="M 427.5,57.5 C 428.338,57.8417 428.672,58.5084 428.5,59.5C 426.79,61.4601 426.457,63.6268 427.5,66C 430.817,66.4983 434.15,66.665 437.5,66.5C 437.439,73.4545 438.439,80.1212 440.5,86.5C 440.5,90.1667 440.5,93.8333 440.5,97.5C 427.167,97.5 413.833,97.5 400.5,97.5C 400.5,94.1667 400.5,90.8333 400.5,87.5C 402.979,80.8449 403.979,73.8449 403.5,66.5C 406.85,66.665 410.183,66.4983 413.5,66C 414.605,63.8797 414.605,61.7131 413.5,59.5C 413.833,59.5 414.167,59.5 414.5,59.5C 419.607,63.8059 423.941,63.1393 427.5,57.5 Z"/></g>
<g><path style="opacity:1" fill="#f75807" d="M 86.5,102.5 C 85.8826,102.389 85.3826,102.056 85,101.5C 84.5006,95.8431 84.3339,90.1764 84.5,84.5C 85.4167,78.6592 86.2501,72.6592 87,66.5C 87.5,66 88,65.5 88.5,65C 94.143,64.1357 99.8097,63.469 105.5,63C 131.739,62.1723 157.906,62.339 184,63.5C 184.822,76.4088 184.655,89.2421 183.5,102C 151.168,102.5 118.835,102.667 86.5,102.5 Z"/></g>
<g><path style="opacity:1" fill="#d37549" d="M 210.5,64.5 C 212.5,65.1667 214.5,65.8333 216.5,66.5C 207.838,66.0718 199.171,65.7384 190.5,65.5C 190.174,74.0168 190.507,82.3501 191.5,90.5C 198.167,91.1667 204.833,91.8333 211.5,92.5C 204.833,92.5 198.167,92.5 191.5,92.5C 190.272,91.6935 189.272,90.6935 188.5,89.5C 188.334,81.4931 188.5,73.4931 189,65.5C 196.079,64.5201 203.245,64.1868 210.5,64.5 Z"/></g>
<g><path style="opacity:1" fill="#fbebe1" d="M 105.5,59.5 C 100.695,60.4872 95.6946,60.8205 90.5,60.5C 87.5253,60.3069 85.0253,61.3069 83,63.5C 81.6264,76.1202 81.1264,88.7869 81.5,101.5C 80.5416,101.953 79.7083,102.619 79,103.5C 78.5017,106.817 78.335,110.15 78.5,113.5C 78.5,115.833 78.5,118.167 78.5,120.5C 77.1803,117.572 76.5136,114.239 76.5,110.5C 78.9168,94.5962 80.7501,78.5962 82,62.5C 82.5,61.3333 83.3333,60.5 84.5,60C 91.4921,59.5004 98.4921,59.3337 105.5,59.5 Z"/></g>
<g><path style="opacity:1" fill="#def1f9" d="M 193.5,67.5 C 201.517,67.5012 209.517,67.8345 217.5,68.5C 222.086,76.0916 227.086,83.4249 232.5,90.5C 224.833,90.5 217.167,90.5 209.5,90.5C 209.723,87.8858 208.556,86.2191 206,85.5C 202.575,78.9817 198.408,72.9817 193.5,67.5 Z"/></g>
<g><path style="opacity:1" fill="#cf815c" d="M 224.5,69.5 C 228.1,71.4302 231.1,74.0969 233.5,77.5C 229.9,75.5698 226.9,72.9031 224.5,69.5 Z"/></g>
<g><path style="opacity:1" fill="#ecaf9b" d="M 90.5,60.5 C 90.5,60.8333 90.5,61.1667 90.5,61.5C 88.0301,61.6535 86.0301,62.6535 84.5,64.5C 82.9879,69.9291 82.3213,75.5958 82.5,81.5C 82.5,88.1667 82.5,94.8333 82.5,101.5C 82.1667,101.5 81.8333,101.5 81.5,101.5C 81.1264,88.7869 81.6264,76.1202 83,63.5C 85.0253,61.3069 87.5253,60.3069 90.5,60.5 Z"/></g>
<g><path style="opacity:1" fill="#da4819" d="M 224.5,63.5 C 227.184,65.1933 229.851,66.86 232.5,68.5C 234.9,71.9031 237.9,74.5698 241.5,76.5C 243.9,79.9031 246.9,82.5698 250.5,84.5C 251.5,85.8333 252.5,87.1667 253.5,88.5C 251.251,87.7689 249.084,86.7689 247,85.5C 246.228,85.6448 245.561,85.9781 245,86.5C 244.964,84.0588 244.131,82.0588 242.5,80.5C 241.708,81.6998 241.708,83.0331 242.5,84.5C 239.767,81.7606 236.767,79.4273 233.5,77.5C 231.1,74.0969 228.1,71.4302 224.5,69.5C 223.508,69.6716 222.842,69.3382 222.5,68.5C 221.525,66.8073 220.192,65.3073 218.5,64C 220.473,63.5045 222.473,63.3379 224.5,63.5 Z"/></g>
<g><path style="opacity:1" fill="#eaaa95" d="M 232.5,68.5 C 236.1,70.4302 239.1,73.0969 241.5,76.5C 237.9,74.5698 234.9,71.9031 232.5,68.5 Z"/></g>
<g><path style="opacity:1" fill="#cbb4aa" d="M 216.5,66.5 C 217.995,66.9887 219.329,67.6554 220.5,68.5C 219.5,68.5 218.5,68.5 217.5,68.5C 209.517,67.8345 201.517,67.5012 193.5,67.5C 193.44,66.9569 193.107,66.6236 192.5,66.5C 191.502,74.4723 191.169,82.4723 191.5,90.5C 190.507,82.3501 190.174,74.0168 190.5,65.5C 199.171,65.7384 207.838,66.0718 216.5,66.5 Z"/></g>
<g><path style="opacity:1" fill="#c2c2c2" d="M 437.5,66.5 C 439.778,72.8443 440.778,79.511 440.5,86.5C 438.439,80.1212 437.439,73.4545 437.5,66.5 Z"/></g>
<g><path style="opacity:1" fill="#a4d4f2" d="M 193.5,67.5 C 198.408,72.9817 202.575,78.9817 206,85.5C 208.556,86.2191 209.723,87.8858 209.5,90.5C 203.5,90.5 197.5,90.5 191.5,90.5C 191.169,82.4723 191.502,74.4723 192.5,66.5C 193.107,66.6236 193.44,66.9569 193.5,67.5 Z"/></g>
<g><path style="opacity:1" fill="#e8a790" d="M 241.5,76.5 C 245.1,78.4302 248.1,81.0969 250.5,84.5C 246.9,82.5698 243.9,79.9031 241.5,76.5 Z"/></g>
<g><path style="opacity:1" fill="#a6a6a6" d="M 403.5,66.5 C 403.979,73.8449 402.979,80.8449 400.5,87.5C 400.74,80.2612 401.74,73.2612 403.5,66.5 Z"/></g>
<g><path style="opacity:1" fill="#101010" d="M 421.5,78.5 C 420.834,82.0208 420.167,85.6875 419.5,89.5C 418.833,85.6875 418.166,82.0208 417.5,78.5C 416.624,78.6309 415.957,78.2975 415.5,77.5C 418.833,76.1667 422.167,76.1667 425.5,77.5C 424.311,78.4287 422.978,78.762 421.5,78.5 Z"/></g>
<g><path style="opacity:1" fill="#e1866b" d="M 84.5,64.5 C 84.5,67.1667 84.5,69.8333 84.5,72.5C 83.8333,75.5 83.1667,78.5 82.5,81.5C 82.3213,75.5958 82.9879,69.9291 84.5,64.5 Z"/></g>
<g><path style="opacity:1" fill="#a5d4f1" d="M 217.5,68.5 C 218.5,68.5 219.5,68.5 220.5,68.5C 221.167,68.5 221.833,68.5 222.5,68.5C 222.842,69.3382 223.508,69.6716 224.5,69.5C 226.9,72.9031 229.9,75.5698 233.5,77.5C 235.461,79.9635 237.628,82.2968 240,84.5C 240.743,86.4406 240.576,88.2739 239.5,90C 237.19,90.4966 234.857,90.6633 232.5,90.5C 227.086,83.4249 222.086,76.0916 217.5,68.5 Z"/></g>
<g><path style="opacity:1" fill="#797979" d="M 417.5,78.5 C 418.166,82.0208 418.833,85.6875 419.5,89.5C 420.167,85.6875 420.834,82.0208 421.5,78.5C 421.5,82.5 421.5,86.5 421.5,90.5C 420.167,90.5 418.833,90.5 417.5,90.5C 417.5,86.5 417.5,82.5 417.5,78.5 Z"/></g>
<g><path style="opacity:1" fill="#e4977f" d="M 250.5,84.5 C 253.667,86.5522 257,88.2188 260.5,89.5C 258.097,89.552 255.764,89.2186 253.5,88.5C 252.5,87.1667 251.5,85.8333 250.5,84.5 Z"/></g>
<g><path style="opacity:1" fill="#caa496" d="M 233.5,77.5 C 236.767,79.4273 239.767,81.7606 242.5,84.5C 242.5,85.8333 242.5,87.1667 242.5,88.5C 241.751,89.531 241.085,90.6976 240.5,92C 231.173,92.4998 221.839,92.6665 212.5,92.5C 212.167,92.5 211.833,92.5 211.5,92.5C 204.833,91.8333 198.167,91.1667 191.5,90.5C 197.5,90.5 203.5,90.5 209.5,90.5C 217.167,90.5 224.833,90.5 232.5,90.5C 234.857,90.6633 237.19,90.4966 239.5,90C 240.576,88.2739 240.743,86.4406 240,84.5C 237.628,82.2968 235.461,79.9635 233.5,77.5 Z"/></g>
<g><path style="opacity:1" fill="#eaaa91" d="M 260.5,89.5 C 265.312,88.9645 269.645,89.9645 273.5,92.5C 268.876,92.2367 264.542,91.2367 260.5,89.5 Z"/></g>
<g><path style="opacity:1" fill="#edb6a1" d="M 273.5,92.5 C 276.187,92.3359 278.854,92.5026 281.5,93C 285.742,93.9765 289.742,95.4765 293.5,97.5C 286.588,96.3806 279.921,94.714 273.5,92.5 Z"/></g>
<g><path style="opacity:1" fill="#f6d9cc" d="M 294.5,97.5 C 300.214,98.2617 305.88,98.2617 311.5,97.5C 313.505,99.8375 315.505,102.171 317.5,104.5C 316.833,104.5 316.167,104.5 315.5,104.5C 314.653,103.034 313.32,102.2 311.5,102C 308.522,101.304 305.522,100.804 302.5,100.5C 299.833,99.5 297.167,98.5 294.5,97.5 Z"/></g>
<g><path style="opacity:1" fill="#c4c4c4" d="M 440.5,86.5 C 441.473,88.9479 441.806,91.6146 441.5,94.5C 441.5,95.8333 441.5,97.1667 441.5,98.5C 427.127,99.1491 413.127,98.4824 399.5,96.5C 399.19,93.2869 399.523,90.2869 400.5,87.5C 400.5,90.8333 400.5,94.1667 400.5,97.5C 413.833,97.5 427.167,97.5 440.5,97.5C 440.5,93.8333 440.5,90.1667 440.5,86.5 Z"/></g>
<g><path style="opacity:1" fill="#686868" d="M 397.5,93.5 C 397.34,95.1992 397.506,96.8659 398,98.5C 398.278,97.5842 398.778,96.9175 399.5,96.5C 413.127,98.4824 427.127,99.1491 441.5,98.5C 441.5,97.1667 441.5,95.8333 441.5,94.5C 442.451,95.9187 442.784,97.5853 442.5,99.5C 427.657,99.1707 412.99,99.504 398.5,100.5C 397.007,99.6879 396.34,98.3545 396.5,96.5C 396.52,95.2739 396.853,94.2739 397.5,93.5 Z"/></g>
<g><path style="opacity:1" fill="#dd3503" d="M 90.5,61.5 C 132.5,61.5 174.5,61.5 216.5,61.5C 216.5,62.5 216.5,63.5 216.5,64.5C 214.5,64.5 212.5,64.5 210.5,64.5C 203.245,64.1868 196.079,64.5201 189,65.5C 188.5,73.4931 188.334,81.4931 188.5,89.5C 188.213,105.202 188.546,120.869 189.5,136.5C 209.169,136.667 228.836,136.5 248.5,136C 249,135.5 249.5,135 250,134.5C 250.667,119.833 250.667,105.167 250,90.5C 249.581,89.3279 248.915,88.3279 248,87.5C 248.862,93.4721 246.362,95.8055 240.5,94.5C 240.5,94.1667 240.5,93.8333 240.5,93.5C 242.213,92.3646 242.88,90.698 242.5,88.5C 242.5,87.1667 242.5,85.8333 242.5,84.5C 241.708,83.0331 241.708,81.6998 242.5,80.5C 244.131,82.0588 244.964,84.0588 245,86.5C 245.561,85.9781 246.228,85.6448 247,85.5C 249.084,86.7689 251.251,87.7689 253.5,88.5C 255.764,89.2186 258.097,89.552 260.5,89.5C 264.542,91.2367 268.876,92.2367 273.5,92.5C 279.921,94.714 286.588,96.3806 293.5,97.5C 293.833,97.5 294.167,97.5 294.5,97.5C 297.167,98.5 299.833,99.5 302.5,100.5C 305.288,102.976 308.622,103.976 312.5,103.5C 312.557,105.884 312.223,108.218 311.5,110.5C 311.742,113.937 312.909,116.937 315,119.5C 315.703,121.929 315.537,124.262 314.5,126.5C 312.861,127.473 311.527,128.806 310.5,130.5C 309.173,131.8 307.84,133.133 306.5,134.5C 304.784,133.451 303.451,132.118 302.5,130.5C 302.5,130.167 302.5,129.833 302.5,129.5C 299.918,123.921 295.585,120.588 289.5,119.5C 286.232,118.178 282.565,117.511 278.5,117.5C 274.833,117.667 271.167,117.833 267.5,118C 264.438,119.205 261.438,120.372 258.5,121.5C 256.49,125.03 254.656,128.696 253,132.5C 252.506,134.134 252.34,135.801 252.5,137.5C 220.167,137.5 187.833,137.5 155.5,137.5C 155.662,135.473 155.495,133.473 155,131.5C 154.764,129.881 153.931,128.881 152.5,128.5C 150.876,125.21 148.543,122.543 145.5,120.5C 141.796,118.909 137.796,118.076 133.5,118C 126.387,117.107 119.387,117.607 112.5,119.5C 109.827,123.334 106.994,127 104,130.5C 102.356,128.936 100.856,127.27 99.5,125.5C 100.547,123.944 101.214,122.277 101.5,120.5C 99.857,120.48 98.5237,121.147 97.5,122.5C 94.5541,119.229 90.8874,117.895 86.5,118.5C 86.5,113.167 86.5,107.833 86.5,102.5C 118.835,102.667 151.168,102.5 183.5,102C 184.655,89.2421 184.822,76.4088 184,63.5C 157.906,62.339 131.739,62.1723 105.5,63C 99.8097,63.469 94.143,64.1357 88.5,65C 88,65.5 87.5,66 87,66.5C 86.2501,72.6592 85.4167,78.6592 84.5,84.5C 84.5,80.5 84.5,76.5 84.5,72.5C 84.5,69.8333 84.5,67.1667 84.5,64.5C 86.0301,62.6535 88.0301,61.6535 90.5,61.5 Z"/></g>
<g><path style="opacity:1" fill="#f75807" d="M 188.5,89.5 C 189.272,90.6935 190.272,91.6935 191.5,92.5C 191.5,93.1667 191.5,93.8333 191.5,94.5C 191.5,94.8333 191.5,95.1667 191.5,95.5C 190.199,96.8845 190.199,98.3845 191.5,100C 195.167,100.667 198.833,100.667 202.5,100C 204.155,98.5557 204.822,96.7224 204.5,94.5C 216.5,94.5 228.5,94.5 240.5,94.5C 246.362,95.8055 248.862,93.4721 248,87.5C 248.915,88.3279 249.581,89.3279 250,90.5C 250.667,105.167 250.667,119.833 250,134.5C 249.5,135 249,135.5 248.5,136C 228.836,136.5 209.169,136.667 189.5,136.5C 188.546,120.869 188.213,105.202 188.5,89.5 Z"/></g>
<g><path style="opacity:1" fill="#f4b487" d="M 191.5,95.5 C 191.5,95.1667 191.5,94.8333 191.5,94.5C 194.833,94.5 198.167,94.5 201.5,94.5C 201.5,95.8333 201.5,97.1667 201.5,98.5C 197.958,98.8128 194.625,98.4794 191.5,97.5C 203.5,96.8333 203.5,96.1667 191.5,95.5 Z"/></g>
<g><path style="opacity:1" fill="#e56120" d="M 191.5,92.5 C 198.167,92.5 204.833,92.5 211.5,92.5C 211.833,92.5 212.167,92.5 212.5,92.5C 221.652,93.4936 230.985,93.8269 240.5,93.5C 240.5,93.8333 240.5,94.1667 240.5,94.5C 228.5,94.5 216.5,94.5 204.5,94.5C 204.822,96.7224 204.155,98.5557 202.5,100C 198.833,100.667 195.167,100.667 191.5,100C 190.199,98.3845 190.199,96.8845 191.5,95.5C 191.5,96.1667 191.5,96.8333 191.5,97.5C 194.625,98.4794 197.958,98.8128 201.5,98.5C 201.5,97.1667 201.5,95.8333 201.5,94.5C 198.167,94.5 194.833,94.5 191.5,94.5C 191.5,93.8333 191.5,93.1667 191.5,92.5 Z"/></g>
<g><path style="opacity:1" fill="#fde6c2" d="M 191.5,95.5 C 203.5,96.1667 203.5,96.8333 191.5,97.5C 191.5,96.8333 191.5,96.1667 191.5,95.5 Z"/></g>
<g><path style="opacity:1" fill="#cb6c42" d="M 242.5,88.5 C 242.88,90.698 242.213,92.3646 240.5,93.5C 230.985,93.8269 221.652,93.4936 212.5,92.5C 221.839,92.6665 231.173,92.4998 240.5,92C 241.085,90.6976 241.751,89.531 242.5,88.5 Z"/></g>
<g><path style="opacity:1" fill="#db6929" d="M 81.5,101.5 C 82.7662,107.63 82.7662,113.63 81.5,119.5C 81.5449,116.923 80.5449,114.923 78.5,113.5C 78.335,110.15 78.5017,106.817 79,103.5C 79.7083,102.619 80.5416,101.953 81.5,101.5 Z"/></g>
<g><path style="opacity:1" fill="#ce9545" d="M 315.5,104.5 C 316.167,104.5 316.833,104.5 317.5,104.5C 317.833,105.167 318.167,105.833 318.5,106.5C 319.925,107.922 320.925,109.589 321.5,111.5C 315.865,108.463 314.198,110.13 316.5,116.5C 313.032,112.808 312.699,108.808 315.5,104.5 Z"/></g>
<g><path style="opacity:1" fill="#a03c17" d="M 81.5,101.5 C 81.8333,101.5 82.1667,101.5 82.5,101.5C 83.1174,101.611 83.6174,101.944 84,102.5C 84.2092,108.581 84.7092,114.581 85.5,120.5C 84.1667,120.5 82.8333,120.5 81.5,120.5C 81.5,120.167 81.5,119.833 81.5,119.5C 82.7662,113.63 82.7662,107.63 81.5,101.5 Z"/></g>
<g><path style="opacity:1" fill="#ecaf41" d="M 321.5,111.5 C 323.976,114.288 324.976,117.622 324.5,121.5C 319.825,122.661 317.159,120.994 316.5,116.5C 314.198,110.13 315.865,108.463 321.5,111.5 Z"/></g>
<g><path style="opacity:1" fill="#c0c0c0" d="M 465.5,117.5 C 470.985,116.348 476.651,116.182 482.5,117C 483.38,118.356 483.714,119.856 483.5,121.5C 481.585,121.784 479.919,121.451 478.5,120.5C 478.833,120.5 479.167,120.5 479.5,120.5C 482.113,119.905 482.113,119.071 479.5,118C 474.845,117.501 470.179,117.334 465.5,117.5 Z"/></g>
<g><path style="opacity:1" fill="#c13610" d="M 289.5,119.5 C 280.75,119.09 272.084,119.59 263.5,121C 258.933,124.045 256.267,128.211 255.5,133.5C 254.833,134.833 254.167,136.167 253.5,137.5C 253.167,137.5 252.833,137.5 252.5,137.5C 252.34,135.801 252.506,134.134 253,132.5C 254.656,128.696 256.49,125.03 258.5,121.5C 261.438,120.372 264.438,119.205 267.5,118C 271.167,117.833 274.833,117.667 278.5,117.5C 282.565,117.511 286.232,118.178 289.5,119.5 Z"/></g>
<g><path style="opacity:1" fill="#3b3b3b" d="M 420.5,117.5 C 424.522,119.369 424.189,120.369 419.5,120.5C 418.432,119.566 417.099,119.232 415.5,119.5C 414.5,118.167 413.5,118.167 412.5,119.5C 410.901,119.232 409.568,119.566 408.5,120.5C 407.395,121.6 406.062,122.267 404.5,122.5C 405.024,119.812 406.691,118.312 409.5,118C 413.152,117.501 416.818,117.335 420.5,117.5 Z"/></g>
<g><path style="opacity:1" fill="#444444" d="M 465.5,117.5 C 470.179,117.334 474.845,117.501 479.5,118C 482.113,119.071 482.113,119.905 479.5,120.5C 478.081,119.549 476.415,119.216 474.5,119.5C 473.167,118.167 471.833,118.167 470.5,119.5C 468.901,119.232 467.568,119.566 466.5,120.5C 465.533,121.806 464.199,122.473 462.5,122.5C 461.916,119.715 462.916,118.048 465.5,117.5 Z"/></g>
<g><path style="opacity:1" fill="#eeb24c" d="M 78.5,113.5 C 80.5449,114.923 81.5449,116.923 81.5,119.5C 81.5,119.833 81.5,120.167 81.5,120.5C 81.1667,120.5 80.8333,120.5 80.5,120.5C 80.1667,120.5 79.8333,120.5 79.5,120.5C 79.1667,120.5 78.8333,120.5 78.5,120.5C 78.5,118.167 78.5,115.833 78.5,113.5 Z"/></g>
<g><path style="opacity:1" fill="#8b8b8b" d="M 420.5,117.5 C 416.818,117.335 413.152,117.501 409.5,118C 406.691,118.312 405.024,119.812 404.5,122.5C 403.253,119.825 404.253,117.991 407.5,117C 412.02,116.186 416.354,116.353 420.5,117.5 Z"/></g>
<g><path style="opacity:1" fill="#682917" d="M 145.5,120.5 C 148.543,122.543 150.876,125.21 152.5,128.5C 154.023,131.635 154.69,134.968 154.5,138.5C 152.212,127.519 145.545,121.853 134.5,121.5C 131.5,121.5 128.5,121.5 125.5,121.5C 121.227,121.081 117.227,121.748 113.5,123.5C 114.343,121.827 115.676,120.66 117.5,120C 126.861,119.279 136.194,119.446 145.5,120.5 Z"/></g>
<g><path style="opacity:1" fill="#b8b8b8" d="M 408.5,120.5 C 409.568,119.566 410.901,119.232 412.5,119.5C 412.5,125.833 412.5,132.167 412.5,138.5C 411.51,132.69 411.177,126.69 411.5,120.5C 410.5,120.5 409.5,120.5 408.5,120.5 Z"/></g>
<g><path style="opacity:1" fill="#595959" d="M 412.5,119.5 C 412.853,125.735 413.853,131.735 415.5,137.5C 414.791,138.404 413.791,138.737 412.5,138.5C 412.5,132.167 412.5,125.833 412.5,119.5 Z"/></g>
<g><path style="opacity:1" fill="#6e6e6e" d="M 454.5,135.5 C 453.081,131.007 452.081,126.341 451.5,121.5C 450.832,124.306 450.166,126.972 449.5,129.5C 449.5,127.833 449.5,126.167 449.5,124.5C 448.167,124.5 446.833,124.5 445.5,124.5C 445.281,123.325 445.614,122.325 446.5,121.5C 448.747,120.626 451.08,120.292 453.5,120.5C 453.035,125.205 453.701,129.705 455.5,134C 455.43,134.765 455.097,135.265 454.5,135.5 Z"/></g>
<g><path style="opacity:1" fill="#747474" d="M 466.5,120.5 C 467.568,119.566 468.901,119.232 470.5,119.5C 471.167,125.346 471.833,131.346 472.5,137.5C 473.167,131.346 473.833,125.346 474.5,119.5C 476.415,119.216 478.081,119.549 479.5,120.5C 479.167,120.5 478.833,120.5 478.5,120.5C 477.167,120.5 475.833,120.5 474.5,120.5C 474.5,126.5 474.5,132.5 474.5,138.5C 473.167,138.5 471.833,138.5 470.5,138.5C 470.5,132.5 470.5,126.5 470.5,120.5C 469.167,120.5 467.833,120.5 466.5,120.5 Z"/></g>
<g><path style="opacity:1" fill="#212121" d="M 470.5,119.5 C 471.833,118.167 473.167,118.167 474.5,119.5C 473.833,125.346 473.167,131.346 472.5,137.5C 471.833,131.346 471.167,125.346 470.5,119.5 Z"/></g>
<g><path style="opacity:1" fill="#d2cfce" d="M 272.5,121.5 C 276.167,121.5 279.833,121.5 283.5,121.5C 287.791,124.123 291.457,127.456 294.5,131.5C 294.665,134.518 294.498,137.518 294,140.5C 293.506,138.866 293.34,137.199 293.5,135.5C 291.901,135.232 290.568,135.566 289.5,136.5C 287.694,137.024 286.028,137.691 284.5,138.5C 283.549,139.919 283.216,141.585 283.5,143.5C 282.5,143.5 281.5,143.5 280.5,143.5C 280.265,142.903 279.765,142.57 279,142.5C 277.418,144.029 275.585,144.529 273.5,144C 274.444,141.281 274.777,138.448 274.5,135.5C 276.179,135.715 277.179,135.048 277.5,133.5C 277.5,130.833 277.5,128.167 277.5,125.5C 273.31,125.023 270.31,126.689 268.5,130.5C 267.043,132.242 265.876,134.242 265,136.5C 264.517,135.552 264.351,134.552 264.5,133.5C 264.351,132.448 264.517,131.448 265,130.5C 267.705,127.964 270.205,125.297 272.5,122.5C 272.5,122.167 272.5,121.833 272.5,121.5 Z"/></g>
<g><path style="opacity:1" fill="#ba4b24" d="M 302.5,100.5 C 305.522,100.804 308.522,101.304 311.5,102C 313.32,102.2 314.653,103.034 315.5,104.5C 312.699,108.808 313.032,112.808 316.5,116.5C 317.159,120.994 319.825,122.661 324.5,121.5C 325.833,122.833 325.833,124.167 324.5,125.5C 321.098,125.342 317.764,125.676 314.5,126.5C 315.537,124.262 315.703,121.929 315,119.5C 312.909,116.937 311.742,113.937 311.5,110.5C 312.223,108.218 312.557,105.884 312.5,103.5C 308.622,103.976 305.288,102.976 302.5,100.5 Z"/></g>
<g><path style="opacity:1" fill="#141414" d="M 412.5,119.5 C 413.5,118.167 414.5,118.167 415.5,119.5C 415.5,125.5 415.5,131.5 415.5,137.5C 413.853,131.735 412.853,125.735 412.5,119.5 Z"/></g>
<g><path style="opacity:1" fill="#959594" d="M 415.5,119.5 C 417.099,119.232 418.432,119.566 419.5,120.5C 418.5,120.5 417.5,120.5 416.5,120.5C 416.822,126.358 416.489,132.025 415.5,137.5C 415.5,131.5 415.5,125.5 415.5,119.5 Z"/></g>
<g><path style="opacity:1" fill="#939393" d="M 394.5,120.5 C 395.791,121.542 395.791,122.708 394.5,124C 397.394,126.909 398.227,130.409 397,134.5C 396.184,135.823 395.017,136.489 393.5,136.5C 397.445,132.664 397.445,128.831 393.5,125C 392.207,124.51 390.873,124.343 389.5,124.5C 389.5,123.5 389.5,122.5 389.5,121.5C 391.415,121.784 393.081,121.451 394.5,120.5 Z"/></g>
<g><path style="opacity:1" fill="#f3e8c9" d="M 79.5,120.5 C 79.8333,120.5 80.1667,120.5 80.5,120.5C 80.3691,121.376 80.7025,122.043 81.5,122.5C 87.123,121.65 92.123,123.15 96.5,127C 97.1409,131.452 97.8076,135.952 98.5,140.5C 100.409,141.348 102.409,141.682 104.5,141.5C 104.5,140.5 104.5,139.5 104.5,138.5C 104.833,138.5 105.167,138.5 105.5,138.5C 105.5,140.5 105.5,142.5 105.5,144.5C 109.31,143.976 111.31,145.643 111.5,149.5C 109.952,149.179 109.285,148.179 109.5,146.5C 104.305,144.894 98.9716,143.727 93.5,143C 90.0665,140.565 86.3998,138.565 82.5,137C 80.9925,131.622 79.9925,126.122 79.5,120.5 Z"/></g>
<g><path style="opacity:1" fill="#444444" d="M 431.5,126.5 C 433.288,126.215 434.955,126.548 436.5,127.5C 435.667,127.833 434.833,128.167 434,128.5C 432.624,128.316 431.791,127.649 431.5,126.5 Z"/></g>
<g><path style="opacity:1" fill="#83807b" d="M 272.5,122.5 C 270.205,125.297 267.705,127.964 265,130.5C 264.517,131.448 264.351,132.448 264.5,133.5C 263.38,137.017 263.38,140.684 264.5,144.5C 259.84,134.599 262.506,127.266 272.5,122.5 Z"/></g>
<g><path style="opacity:1" fill="#cecece" d="M 386.5,120.5 C 386.5,122.5 386.5,124.5 386.5,126.5C 392.504,125.164 394.504,127.164 392.5,132.5C 392.5,131.167 392.5,129.833 392.5,128.5C 384.55,129.858 382.55,127.192 386.5,120.5 Z"/></g>
<g><path style="opacity:1" fill="#393939" d="M 394.5,120.5 C 393.081,121.451 391.415,121.784 389.5,121.5C 389.5,122.5 389.5,123.5 389.5,124.5C 390.873,124.343 392.207,124.51 393.5,125C 397.445,128.831 397.445,132.664 393.5,136.5C 391.143,136.663 388.81,136.497 386.5,136C 385.663,134.989 385.33,133.822 385.5,132.5C 388.005,133.417 390.338,133.417 392.5,132.5C 394.504,127.164 392.504,125.164 386.5,126.5C 386.5,124.5 386.5,122.5 386.5,120.5C 389.272,119.233 391.939,119.233 394.5,120.5 Z"/></g>
<g><path style="opacity:1" fill="#cc3f15" d="M 84.5,72.5 C 84.5,76.5 84.5,80.5 84.5,84.5C 84.3339,90.1764 84.5006,95.8431 85,101.5C 85.3826,102.056 85.8826,102.389 86.5,102.5C 86.5,107.833 86.5,113.167 86.5,118.5C 90.8874,117.895 94.5541,119.229 97.5,122.5C 98.5237,121.147 99.857,120.48 101.5,120.5C 101.214,122.277 100.547,123.944 99.5,125.5C 100.856,127.27 102.356,128.936 104,130.5C 106.994,127 109.827,123.334 112.5,119.5C 119.387,117.607 126.387,117.107 133.5,118C 137.796,118.076 141.796,118.909 145.5,120.5C 136.194,119.446 126.861,119.279 117.5,120C 115.676,120.66 114.343,121.827 113.5,123.5C 107.411,126.608 104.744,131.608 105.5,138.5C 105.167,138.5 104.833,138.5 104.5,138.5C 102.856,138.714 101.356,138.38 100,137.5C 100.645,126.988 95.8118,121.321 85.5,120.5C 84.7092,114.581 84.2092,108.581 84,102.5C 83.6174,101.944 83.1174,101.611 82.5,101.5C 82.5,94.8333 82.5,88.1667 82.5,81.5C 83.1667,78.5 83.8333,75.5 84.5,72.5 Z"/></g>
<g><path style="opacity:1" fill="#524f50" d="M 277.5,133.5 C 274.813,133.664 272.146,133.497 269.5,133C 268.748,132.329 268.414,131.496 268.5,130.5C 270.31,126.689 273.31,125.023 277.5,125.5C 277.5,128.167 277.5,130.833 277.5,133.5 Z"/></g>
<g><path style="opacity:1" fill="#595455" d="M 280.5,125.5 C 283.226,125.264 285.559,126.097 287.5,128C 289.329,129.113 290.163,130.613 290,132.5C 281.961,136.859 278.794,134.526 280.5,125.5 Z"/></g>
<g><path style="opacity:1" fill="#312725" d="M 283.5,121.5 C 287.605,121.234 291.605,121.734 295.5,123C 296.71,124.039 297.71,125.206 298.5,126.5C 299.995,129.608 300.995,132.941 301.5,136.5C 300.348,139.734 298.682,142.734 296.5,145.5C 295.614,144.675 295.281,143.675 295.5,142.5C 295.815,138.629 295.482,134.962 294.5,131.5C 291.457,127.456 287.791,124.123 283.5,121.5 Z"/></g>
<g><path style="opacity:1" fill="#f3d596" d="M 81.5,123.5 C 85.4905,122.824 87.1571,124.49 86.5,128.5C 87.2259,131.958 85.8925,133.625 82.5,133.5C 81.7929,130.214 81.4595,126.881 81.5,123.5 Z"/></g>
<g><path style="opacity:1" fill="#752d17" d="M 289.5,119.5 C 295.585,120.588 299.918,123.921 302.5,129.5C 301.167,128.5 299.833,127.5 298.5,126.5C 297.71,125.206 296.71,124.039 295.5,123C 291.605,121.734 287.605,121.234 283.5,121.5C 279.833,121.5 276.167,121.5 272.5,121.5C 268.456,120.958 264.789,121.791 261.5,124C 258.773,126.855 256.773,130.022 255.5,133.5C 256.267,128.211 258.933,124.045 263.5,121C 272.084,119.59 280.75,119.09 289.5,119.5 Z"/></g>
<g><path style="opacity:1" fill="#f4dcb4" d="M 324.5,125.5 C 324.179,127.048 323.179,127.715 321.5,127.5C 321.665,130.518 321.498,133.518 321,136.5C 319.914,138.847 318.581,138.847 317,136.5C 315.192,137.69 313.359,137.69 311.5,136.5C 310.833,136.667 310.167,136.833 309.5,137C 309.833,138 310.167,139 310.5,140C 308.527,140.495 306.527,140.662 304.5,140.5C 304.5,142.167 304.5,143.833 304.5,145.5C 303.167,145.5 301.833,145.5 300.5,145.5C 301.209,144.596 302.209,144.263 303.5,144.5C 303.5,142.167 303.5,139.833 303.5,137.5C 304.738,138.412 306.072,138.579 307.5,138C 308.991,135.692 309.991,133.192 310.5,130.5C 311.527,128.806 312.861,127.473 314.5,126.5C 317.764,125.676 321.098,125.342 324.5,125.5 Z"/></g>
<g><path style="opacity:1" fill="#393939" d="M 366.5,120.5 C 370.215,120.196 373.715,120.863 377,122.5C 378.161,127.372 376.994,131.539 373.5,135C 365.72,136.553 362.553,133.386 364,125.5C 364.366,123.548 365.199,121.882 366.5,120.5 Z"/></g>
<g><path style="opacity:1" fill="#e3e3e3" d="M 368.5,122.5 C 370.144,122.286 371.644,122.62 373,123.5C 373.667,126.167 373.667,128.833 373,131.5C 368.907,134.448 366.74,133.281 366.5,128C 366.395,125.822 367.061,123.988 368.5,122.5 Z"/></g>
<g><path style="opacity:1" fill="#5c5c5c" d="M 379.5,131.5 C 380.833,131.5 382.167,131.5 383.5,131.5C 383.5,132.833 383.5,134.167 383.5,135.5C 382.167,135.5 380.833,135.5 379.5,135.5C 379.5,134.167 379.5,132.833 379.5,131.5 Z"/></g>
<g><path style="opacity:1" fill="#c8542e" d="M 302.5,130.5 C 303.451,132.118 304.784,133.451 306.5,134.5C 307.84,133.133 309.173,131.8 310.5,130.5C 309.991,133.192 308.991,135.692 307.5,138C 306.072,138.579 304.738,138.412 303.5,137.5C 302.781,135.236 302.448,132.903 302.5,130.5 Z"/></g>
<g><path style="opacity:1" fill="#2b2b2b" d="M 454.5,135.5 C 454.167,135.5 453.833,135.5 453.5,135.5C 451.076,135.808 448.743,135.474 446.5,134.5C 447.602,133.824 448.602,133.158 449.5,132.5C 449.5,131.5 449.5,130.5 449.5,129.5C 450.166,126.972 450.832,124.306 451.5,121.5C 452.081,126.341 453.081,131.007 454.5,135.5 Z"/></g>
<g><path style="opacity:1" fill="#908f8e" d="M 449.5,132.5 C 448.602,133.158 447.602,133.824 446.5,134.5C 448.743,135.474 451.076,135.808 453.5,135.5C 451.052,136.473 448.385,136.806 445.5,136.5C 445.5,135.167 445.5,133.833 445.5,132.5C 446.833,132.5 448.167,132.5 449.5,132.5 Z"/></g>
<g><path style="opacity:1" fill="#d8572a" d="M 152.5,128.5 C 153.931,128.881 154.764,129.881 155,131.5C 155.495,133.473 155.662,135.473 155.5,137.5C 187.833,137.5 220.167,137.5 252.5,137.5C 252.833,137.5 253.167,137.5 253.5,137.5C 253.5,137.833 253.5,138.167 253.5,138.5C 220.5,138.5 187.5,138.5 154.5,138.5C 154.69,134.968 154.023,131.635 152.5,128.5 Z"/></g>
<g><path style="opacity:1" fill="#46372f" d="M 113.5,123.5 C 109.851,127.328 108.184,131.995 108.5,137.5C 110.131,141.815 111.798,146.148 113.5,150.5C 112.833,150.167 112.167,149.833 111.5,149.5C 111.31,145.643 109.31,143.976 105.5,144.5C 105.5,142.5 105.5,140.5 105.5,138.5C 104.744,131.608 107.411,126.608 113.5,123.5 Z"/></g>
<g><path style="opacity:1" fill="#f2cda5" d="M 80.5,120.5 C 80.8333,120.5 81.1667,120.5 81.5,120.5C 82.8333,120.5 84.1667,120.5 85.5,120.5C 95.8118,121.321 100.645,126.988 100,137.5C 101.356,138.38 102.856,138.714 104.5,138.5C 104.5,139.5 104.5,140.5 104.5,141.5C 102.409,141.682 100.409,141.348 98.5,140.5C 97.8076,135.952 97.1409,131.452 96.5,127C 92.123,123.15 87.123,121.65 81.5,122.5C 80.7025,122.043 80.3691,121.376 80.5,120.5 Z"/></g>
<g><path style="opacity:1" fill="#f5dfbe" d="M 154.5,139.5 C 154.5,139.167 154.5,138.833 154.5,138.5C 187.5,138.5 220.5,138.5 253.5,138.5C 253.5,140.5 253.5,142.5 253.5,144.5C 221.832,144.667 190.165,144.5 158.5,144C 157.956,143.283 157.289,142.783 156.5,142.5C 156.573,140.973 155.906,139.973 154.5,139.5 Z"/></g>
<g><path style="opacity:1" fill="#352c29" d="M 272.5,121.5 C 272.5,121.833 272.5,122.167 272.5,122.5C 262.506,127.266 259.84,134.599 264.5,144.5C 270.113,155.043 278.113,157.209 288.5,151C 291.21,148.372 293.544,145.539 295.5,142.5C 295.281,143.675 295.614,144.675 296.5,145.5C 298.682,142.734 300.348,139.734 301.5,136.5C 300.995,132.941 299.995,129.608 298.5,126.5C 299.833,127.5 301.167,128.5 302.5,129.5C 302.5,129.833 302.5,130.167 302.5,130.5C 302.448,132.903 302.781,135.236 303.5,137.5C 303.5,139.833 303.5,142.167 303.5,144.5C 302.209,144.263 301.209,144.596 300.5,145.5C 299.833,145.833 299.167,146.167 298.5,146.5C 296.622,149.813 294.289,152.813 291.5,155.5C 288.807,156.552 286.14,157.552 283.5,158.5C 278.387,158.569 273.387,157.903 268.5,156.5C 266.265,155.772 264.432,154.439 263,152.5C 262.062,149.743 260.562,147.41 258.5,145.5C 257.432,144.566 256.099,144.232 254.5,144.5C 254.795,142.265 254.461,140.265 253.5,138.5C 253.5,138.167 253.5,137.833 253.5,137.5C 254.167,136.167 254.833,134.833 255.5,133.5C 256.773,130.022 258.773,126.855 261.5,124C 264.789,121.791 268.456,120.958 272.5,121.5 Z"/></g>
<g><path style="opacity:1" fill="#f6ebcf" d="M 318.5,106.5 C 319.978,106.238 321.311,106.571 322.5,107.5C 326.892,115.037 327.559,122.87 324.5,131C 324.735,131.873 325.069,132.707 325.5,133.5C 323.985,135.547 323.151,137.881 323,140.5C 322.021,142.32 320.521,143.487 318.5,144C 313.75,144.223 309.084,144.723 304.5,145.5C 304.5,143.833 304.5,142.167 304.5,140.5C 306.527,140.662 308.527,140.495 310.5,140C 310.167,139 309.833,138 309.5,137C 310.167,136.833 310.833,136.667 311.5,136.5C 313.359,137.69 315.192,137.69 317,136.5C 318.581,138.847 319.914,138.847 321,136.5C 321.498,133.518 321.665,130.518 321.5,127.5C 323.179,127.715 324.179,127.048 324.5,125.5C 325.833,124.167 325.833,122.833 324.5,121.5C 324.976,117.622 323.976,114.288 321.5,111.5C 320.925,109.589 319.925,107.922 318.5,106.5 Z"/></g>
<g><path style="opacity:1" fill="#9d9890" d="M 253.5,138.5 C 254.461,140.265 254.795,142.265 254.5,144.5C 256.099,144.232 257.432,144.566 258.5,145.5C 256.585,145.784 254.919,145.451 253.5,144.5C 253.5,142.5 253.5,140.5 253.5,138.5 Z"/></g>
<g><path style="opacity:1" fill="#f8f6ed" d="M 156.5,142.5 C 157.289,142.783 157.956,143.283 158.5,144C 190.165,144.5 221.832,144.667 253.5,144.5C 254.919,145.451 256.585,145.784 258.5,145.5C 260.562,147.41 262.062,149.743 263,152.5C 264.432,154.439 266.265,155.772 268.5,156.5C 268.833,157.167 269.167,157.833 269.5,158.5C 267.833,158.5 266.167,158.5 264.5,158.5C 264.5,157.5 264.5,156.5 264.5,155.5C 263.5,155.5 262.5,155.5 261.5,155.5C 261.405,152.642 260.238,150.309 258,148.5C 222.096,148.562 186.263,148.562 150.5,148.5C 150.5,147.5 150.5,146.5 150.5,145.5C 152.5,145.5 154.5,145.5 156.5,145.5C 156.5,144.5 156.5,143.5 156.5,142.5 Z"/></g>
<g><path style="opacity:1" fill="#c0bdbb" d="M 268.5,130.5 C 268.414,131.496 268.748,132.329 269.5,133C 272.146,133.497 274.813,133.664 277.5,133.5C 277.179,135.048 276.179,135.715 274.5,135.5C 274.777,138.448 274.444,141.281 273.5,144C 275.585,144.529 277.418,144.029 279,142.5C 279.765,142.57 280.265,142.903 280.5,143.5C 281.5,143.5 282.5,143.5 283.5,143.5C 283.216,141.585 283.549,139.919 284.5,138.5C 286.674,148.612 289.008,148.779 291.5,139C 291.316,137.624 290.649,136.791 289.5,136.5C 290.568,135.566 291.901,135.232 293.5,135.5C 293.34,137.199 293.506,138.866 294,140.5C 294.498,137.518 294.665,134.518 294.5,131.5C 295.482,134.962 295.815,138.629 295.5,142.5C 293.544,145.539 291.21,148.372 288.5,151C 278.113,157.209 270.113,155.043 264.5,144.5C 263.38,140.684 263.38,137.017 264.5,133.5C 264.351,134.552 264.517,135.552 265,136.5C 265.876,134.242 267.043,132.242 268.5,130.5 Z"/></g>
<g><path style="opacity:1" fill="#444241" d="M 280.5,143.5 C 282.705,145.363 284.039,147.697 284.5,150.5C 281.223,150.784 278.057,150.451 275,149.5C 274.333,148.5 274.333,147.5 275,146.5C 276.741,145.242 278.574,144.242 280.5,143.5 Z"/></g>
<g><path style="opacity:1" fill="#484546" d="M 289.5,136.5 C 290.649,136.791 291.316,137.624 291.5,139C 289.008,148.779 286.674,148.612 284.5,138.5C 286.028,137.691 287.694,137.024 289.5,136.5 Z"/></g>
<g><path style="opacity:1" fill="#494a48" d="M 266.5,136.5 C 269.93,135.79 272.263,136.957 273.5,140C 272.582,142.086 271.915,144.253 271.5,146.5C 270.5,146.5 269.5,146.5 268.5,146.5C 267.124,143.342 266.458,140.009 266.5,136.5 Z"/></g>
<g><path style="opacity:1" fill="#b4b2ae" d="M 298.5,146.5 C 298.749,151.578 296.415,154.578 291.5,155.5C 294.289,152.813 296.622,149.813 298.5,146.5 Z"/></g>
<g><path style="opacity:1" fill="#a5a09d" d="M 154.5,139.5 C 155.906,139.973 156.573,140.973 156.5,142.5C 156.5,143.5 156.5,144.5 156.5,145.5C 154.5,145.5 152.5,145.5 150.5,145.5C 150.5,146.5 150.5,147.5 150.5,148.5C 148.063,152.269 144.729,154.936 140.5,156.5C 144.55,153.774 147.55,150.108 149.5,145.5C 151.045,144.548 152.712,144.215 154.5,144.5C 154.5,142.833 154.5,141.167 154.5,139.5 Z"/></g>
<g><path style="opacity:1" fill="#312a27" d="M 125.5,121.5 C 115.955,125.25 112.121,132.25 114,142.5C 119.516,154.561 128.016,157.394 139.5,151C 149.996,139.146 148.33,129.313 134.5,121.5C 145.545,121.853 152.212,127.519 154.5,138.5C 154.5,138.833 154.5,139.167 154.5,139.5C 154.5,141.167 154.5,142.833 154.5,144.5C 152.712,144.215 151.045,144.548 149.5,145.5C 147.55,150.108 144.55,153.774 140.5,156.5C 132.238,160.842 124.238,160.342 116.5,155C 114.859,153.871 113.859,152.371 113.5,150.5C 111.798,146.148 110.131,141.815 108.5,137.5C 108.184,131.995 109.851,127.328 113.5,123.5C 117.227,121.748 121.227,121.081 125.5,121.5 Z"/></g>
<g><path style="opacity:1" fill="#c2bfbe" d="M 125.5,121.5 C 128.5,121.5 131.5,121.5 134.5,121.5C 148.33,129.313 149.996,139.146 139.5,151C 128.016,157.394 119.516,154.561 114,142.5C 112.121,132.25 115.955,125.25 125.5,121.5 Z"/></g>
<g><path style="opacity:1" fill="#7e7b7c" d="M 119.5,136.5 C 118.351,136.791 117.684,137.624 117.5,139C 117.651,141.644 118.651,143.811 120.5,145.5C 123.574,143.471 124.24,140.804 122.5,137.5C 123.167,137.5 123.833,137.5 124.5,137.5C 125.875,141.711 124.541,144.711 120.5,146.5C 119.558,146.392 118.725,146.059 118,145.5C 116.801,142.274 116.301,138.941 116.5,135.5C 117.791,135.263 118.791,135.596 119.5,136.5 Z"/></g>
<g><path style="opacity:1" fill="#4c4b4a" d="M 128.5,142.5 C 129.5,142.5 130.5,142.5 131.5,142.5C 133.284,144.948 134.618,147.615 135.5,150.5C 132.223,150.784 129.057,150.451 126,149.5C 125.683,146.793 126.516,144.46 128.5,142.5 Z"/></g>
<g><path style="opacity:1" fill="#f1eff0" d="M 132.5,133.5 C 133.681,135.067 135.347,135.901 137.5,136C 136.944,136.383 136.611,136.883 136.5,137.5C 135.833,137.833 135.167,138.167 134.5,138.5C 133.978,140.219 132.978,141.552 131.5,142.5C 130.5,142.5 129.5,142.5 128.5,142.5C 127.167,140.833 125.833,139.167 124.5,137.5C 125.5,136.167 126.5,134.833 127.5,133.5C 128.167,133.5 128.5,133.167 128.5,132.5C 129.314,130.369 129.814,128.036 130,125.5C 130.333,127.833 130.667,130.167 131,132.5C 131.383,133.056 131.883,133.389 132.5,133.5 Z"/></g>
<g><path style="opacity:1" fill="#4a4748" d="M 134.5,138.5 C 135.167,138.167 135.833,137.833 136.5,137.5C 138.258,137.123 139.925,136.456 141.5,135.5C 143.191,139.663 142.525,143.329 139.5,146.5C 136.98,144.324 135.313,141.658 134.5,138.5 Z"/></g>
<g><path style="opacity:1" fill="#3f3f3e" d="M 119.5,136.5 C 120.391,137.11 121.391,137.443 122.5,137.5C 124.24,140.804 123.574,143.471 120.5,145.5C 118.651,143.811 117.651,141.644 117.5,139C 117.684,137.624 118.351,136.791 119.5,136.5 Z"/></g>
<g><path style="opacity:1" fill="#434041" d="M 132.5,133.5 C 132.5,131.167 132.5,128.833 132.5,126.5C 136.158,126.426 138.825,127.926 140.5,131C 140.095,131.945 139.428,132.612 138.5,133C 136.527,133.495 134.527,133.662 132.5,133.5 Z"/></g>
<g><path style="opacity:1" fill="#4a4849" d="M 128.5,132.5 C 128.5,133.167 128.167,133.5 127.5,133.5C 124.794,133.425 122.127,133.092 119.5,132.5C 120.404,127.607 123.404,125.273 128.5,125.5C 128.5,127.833 128.5,130.167 128.5,132.5 Z"/></g>
<g><path style="opacity:1" fill="#716d6e" d="M 268.5,156.5 C 273.387,157.903 278.387,158.569 283.5,158.5C 278.987,159.597 274.321,159.597 269.5,158.5C 269.167,157.833 268.833,157.167 268.5,156.5 Z"/></g>
</svg>
