<?xml version="1.0" encoding="UTF-8"?>
<!DOCTYPE svg PUBLIC "-//W3C//DTD SVG 1.1//EN" "http://www.w3.org/Graphics/SVG/1.1/DTD/svg11.dtd">
<svg xmlns="http://www.w3.org/2000/svg" version="1.1" width="566px" height="192px" style="shape-rendering:geometricPrecision; text-rendering:geometricPrecision; image-rendering:optimizeQuality; fill-rule:evenodd; clip-rule:evenodd" xmlns:xlink="http://www.w3.org/1999/xlink">
<g><path style="opacity:0.995" fill="#fdfefe" d="M -0.5,0.5 C 188.167,0.5 376.833,0.5 565.5,0.5C 565.5,64.1667 565.5,127.833 565.5,191.5C 376.833,191.5 188.167,191.5 -0.5,191.5C -0.5,127.833 -0.5,64.1667 -0.5,0.5 Z"/></g>
<g><path style="opacity:1" fill="#91b4cb" d="M 200.5,40.5 C 155.165,40.3333 109.832,40.5 64.5,41C 63.6266,42.045 62.6266,42.8783 61.5,43.5C 60.8826,43.6107 60.3826,43.944 60,44.5C 59.5,65.164 59.3334,85.8306 59.5,106.5C 59.5,109.5 59.5,112.5 59.5,115.5C 59.1667,115.5 58.8333,115.5 58.5,115.5C 58.3334,91.4977 58.5,67.4977 59,43.5C 60.7713,42.6959 62.2713,41.5292 63.5,40C 109.335,39.1685 155.002,39.3352 200.5,40.5 Z"/></g>
<g><path style="opacity:1" fill="#3378a4" d="M 65.5,69.5 C 65.4142,70.4959 65.7476,71.3292 66.5,72C 95.201,73.1488 124.034,73.3155 153,72.5C 165.833,72.6667 178.667,72.8333 191.5,73C 194.001,74.4177 193.668,75.4177 190.5,76C 148.833,76.3333 107.167,76.6667 65.5,77C 64.7108,79.267 64.0441,81.6003 63.5,84C 63.3576,88.9832 63.6909,93.9832 64.5,99C 106.5,99.6667 148.5,99.6667 190.5,99C 194.369,97.5436 198.203,97.0436 202,97.5C 203.777,92.8617 204.944,88.195 205.5,83.5C 205.5,91.1667 205.5,98.8333 205.5,106.5C 157.167,106.5 108.833,106.5 60.5,106.5C 60.1695,85.9931 60.5028,65.6598 61.5,45.5C 62.9616,44.5423 64.2949,43.3756 65.5,42C 108.833,41.3333 152.167,41.3333 195.5,42C 197.99,42.4952 199.49,43.9952 200,46.5C 200.333,46.1667 200.667,45.8333 201,45.5C 203.155,51.1317 202.989,56.6317 200.5,62C 200.957,62.414 201.291,62.914 201.5,63.5C 199.579,64.641 197.579,64.8077 195.5,64C 196.328,63.0853 197.328,62.4186 198.5,62C 196.438,61.4361 194.605,61.9361 193,63.5C 191.1,61.112 188.6,59.7787 185.5,59.5C 185.64,61.1238 184.973,62.2904 183.5,63C 166.49,63.8329 149.49,63.6663 132.5,62.5C 132.709,61.914 133.043,61.414 133.5,61C 113.5,60.3333 93.5,60.3333 73.5,61C 72.1225,63.4494 70.2892,63.9494 68,62.5C 64.6048,64.0176 63.7715,66.351 65.5,69.5 Z"/></g>
<g><path style="opacity:1" fill="#6493b0" d="M 61.5,43.5 C 61.5,44.1667 61.5,44.8333 61.5,45.5C 60.5028,65.6598 60.1695,85.9931 60.5,106.5C 60.1667,106.5 59.8333,106.5 59.5,106.5C 59.3334,85.8306 59.5,65.164 60,44.5C 60.3826,43.944 60.8826,43.6107 61.5,43.5 Z"/></g>
<g><path style="opacity:1" fill="#303030" d="M 469.5,58.5 C 469.5,60.1667 469.5,61.8333 469.5,63.5C 469.975,66.0821 469.308,68.0821 467.5,69.5C 467.037,66.5176 466.704,63.5176 466.5,60.5C 462.4,60.7633 458.4,60.4299 454.5,59.5C 455.34,55.8078 456.34,52.1411 457.5,48.5C 456.955,40.1102 452.621,36.2769 444.5,37C 439.991,39.6152 437.991,43.6152 438.5,49C 438.408,51.8211 439.074,54.3211 440.5,56.5C 440.768,58.099 440.434,59.4324 439.5,60.5C 435.833,60.5 432.167,60.5 428.5,60.5C 428.5,63.5 428.5,66.5 428.5,69.5C 427.028,73.9192 426.362,78.5859 426.5,83.5C 425.833,83.5 425.5,83.8333 425.5,84.5C 424.847,88.0928 424.014,91.7595 423,95.5C 422.505,93.5273 422.338,91.5273 422.5,89.5C 422.5,88.5 422.5,87.5 422.5,86.5C 423.268,85.7375 423.768,84.7375 424,83.5C 424.442,75.4904 424.942,67.4904 425.5,59.5C 426.058,58.2101 427.058,57.3768 428.5,57C 430.9,56.8142 433.234,56.3142 435.5,55.5C 431.63,43.9084 435.63,36.5751 447.5,33.5C 459.447,36.7952 463.78,44.4618 460.5,56.5C 463.754,56.2069 466.754,56.8736 469.5,58.5 Z"/></g>
<g><path style="opacity:1" fill="#3a3a3a" d="M 452.5,56.5 C 448.899,57.9725 445.566,57.6392 442.5,55.5C 439.423,51.8493 438.923,47.8493 441,43.5C 446.654,37.6992 451.321,38.3659 455,45.5C 455.667,47.5 455.667,49.5 455,51.5C 453.562,52.9003 452.729,54.567 452.5,56.5 Z"/></g>
<g><path style="opacity:1" fill="#cdcdcd" d="M 454.5,59.5 C 453.833,58.5 453.167,57.5 452.5,56.5C 452.729,54.567 453.562,52.9003 455,51.5C 455.667,49.5 455.667,47.5 455,45.5C 451.321,38.3659 446.654,37.6992 441,43.5C 438.923,47.8493 439.423,51.8493 442.5,55.5C 441.075,53.9689 440.409,54.3023 440.5,56.5C 439.074,54.3211 438.408,51.8211 438.5,49C 437.991,43.6152 439.991,39.6152 444.5,37C 452.621,36.2769 456.955,40.1102 457.5,48.5C 456.34,52.1411 455.34,55.8078 454.5,59.5 Z"/></g>
<g><path style="opacity:1" fill="#f2f2f2" d="M 444.5,44.5 C 449.993,43.178 452.493,45.178 452,50.5C 448.102,53.4811 444.935,52.8144 442.5,48.5C 443.225,47.1331 443.892,45.7997 444.5,44.5 Z"/></g>
<g><path style="opacity:1" fill="#fafafa" d="M 442.5,55.5 C 445.566,57.6392 448.899,57.9725 452.5,56.5C 453.167,57.5 453.833,58.5 454.5,59.5C 458.4,60.4299 462.4,60.7633 466.5,60.5C 466.704,63.5176 467.037,66.5176 467.5,69.5C 468.586,76.7746 469.252,84.108 469.5,91.5C 469.5,92.5 469.5,93.5 469.5,94.5C 455.167,94.5 440.833,94.5 426.5,94.5C 426.5,90.8333 426.5,87.1667 426.5,83.5C 426.362,78.5859 427.028,73.9192 428.5,69.5C 429.473,67.0521 429.806,64.3854 429.5,61.5C 433.042,61.8128 436.375,61.4794 439.5,60.5C 440.434,59.4324 440.768,58.099 440.5,56.5C 440.409,54.3023 441.075,53.9689 442.5,55.5 Z"/></g>
<g><path style="opacity:1" fill="#aaaaaa" d="M 439.5,60.5 C 436.375,61.4794 433.042,61.8128 429.5,61.5C 429.806,64.3854 429.473,67.0521 428.5,69.5C 428.5,66.5 428.5,63.5 428.5,60.5C 432.167,60.5 435.833,60.5 439.5,60.5 Z"/></g>
<g><path style="opacity:1" fill="#929292" d="M 425.5,59.5 C 424.942,67.4904 424.442,75.4904 424,83.5C 423.768,84.7375 423.268,85.7375 422.5,86.5C 422.874,77.2858 423.874,68.2858 425.5,59.5 Z"/></g>
<g><path style="opacity:1" fill="#545454" d="M 452.5,72.5 C 449.15,72.335 445.817,72.5017 442.5,73C 443.416,73.2784 444.082,73.7784 444.5,74.5C 443.5,74.5 442.5,74.5 441.5,74.5C 441.5,73.5 441.5,72.5 441.5,71.5C 445.371,71.185 449.038,71.5184 452.5,72.5 Z"/></g>
<g><path style="opacity:1" fill="#357da5" d="M 200.5,40.5 C 202.103,41.5964 203.603,42.9297 205,44.5C 204.849,57.2074 205.683,69.5407 207.5,81.5C 207.167,82.5 206.5,83.1667 205.5,83.5C 204.944,88.195 203.777,92.8617 202,97.5C 198.203,97.0436 194.369,97.5436 190.5,99C 148.5,99.6667 106.5,99.6667 64.5,99C 63.6909,93.9832 63.3576,88.9832 63.5,84C 64.0441,81.6003 64.7108,79.267 65.5,77C 107.167,76.6667 148.833,76.3333 190.5,76C 193.668,75.4177 194.001,74.4177 191.5,73C 178.667,72.8333 165.833,72.6667 153,72.5C 124.034,73.3155 95.201,73.1488 66.5,72C 65.7476,71.3292 65.4142,70.4959 65.5,69.5C 63.7715,66.351 64.6048,64.0176 68,62.5C 70.2892,63.9494 72.1225,63.4494 73.5,61C 93.5,60.3333 113.5,60.3333 133.5,61C 133.043,61.414 132.709,61.914 132.5,62.5C 149.49,63.6663 166.49,63.8329 183.5,63C 184.973,62.2904 185.64,61.1238 185.5,59.5C 188.6,59.7787 191.1,61.112 193,63.5C 194.605,61.9361 196.438,61.4361 198.5,62C 197.328,62.4186 196.328,63.0853 195.5,64C 197.579,64.8077 199.579,64.641 201.5,63.5C 201.291,62.914 200.957,62.414 200.5,62C 202.989,56.6317 203.155,51.1317 201,45.5C 200.667,45.8333 200.333,46.1667 200,46.5C 199.49,43.9952 197.99,42.4952 195.5,42C 152.167,41.3333 108.833,41.3333 65.5,42C 64.2949,43.3756 62.9616,44.5423 61.5,45.5C 61.5,44.8333 61.5,44.1667 61.5,43.5C 62.6266,42.8783 63.6266,42.045 64.5,41C 109.832,40.5 155.165,40.3333 200.5,40.5 Z"/></g>
<g><path style="opacity:1" fill="#4191b6" d="M 196.5,69.5 C 196.833,69.5 197.167,69.5 197.5,69.5C 197.833,69.5 198.167,69.5 198.5,69.5C 198.389,70.1174 198.056,70.6174 197.5,71C 153.998,71.8314 110.665,71.6647 67.5,70.5C 110.67,70.832 153.67,70.4987 196.5,69.5 Z"/></g>
<g><path style="opacity:1" fill="#55a9cb" d="M 198.5,69.5 C 198.167,69.5 197.833,69.5 197.5,69.5C 176.177,68.167 154.51,67.5003 132.5,67.5C 110.833,67.8333 89.1667,68.1667 67.5,68.5C 110.495,69.4999 153.495,69.8333 196.5,69.5C 153.67,70.4987 110.67,70.832 67.5,70.5C 66.8333,70.1667 66.1667,69.8333 65.5,69.5C 65.33,68.1779 65.6634,67.0113 66.5,66C 110.167,65.3333 153.833,65.3333 197.5,66C 198.337,67.0113 198.67,68.1779 198.5,69.5 Z"/></g>
<g><path style="opacity:1" fill="#64bddb" d="M 197.5,69.5 C 197.167,69.5 196.833,69.5 196.5,69.5C 153.495,69.8333 110.495,69.4999 67.5,68.5C 89.1667,68.1667 110.833,67.8333 132.5,67.5C 154.51,67.5003 176.177,68.167 197.5,69.5 Z"/></g>
<g><path style="opacity:1" fill="#101010" d="M 452.5,72.5 C 451.817,74.1765 450.483,74.8432 448.5,74.5C 447.834,78.0208 447.167,81.6875 446.5,85.5C 445.833,81.6875 445.166,78.0208 444.5,74.5C 444.082,73.7784 443.416,73.2784 442.5,73C 445.817,72.5017 449.15,72.335 452.5,72.5 Z"/></g>
<g><path style="opacity:1" fill="#4e4e4e" d="M 469.5,63.5 C 470.167,68.5 470.833,73.5 471.5,78.5C 472.268,82.9754 472.934,87.4754 473.5,92C 473.726,94.6709 473.059,97.0042 471.5,99C 455.328,99.8281 439.328,99.6614 423.5,98.5C 439.536,99.1511 455.202,98.4844 470.5,96.5C 470.5,96.1667 470.5,95.8333 470.5,95.5C 470.768,93.901 470.434,92.5676 469.5,91.5C 469.252,84.108 468.586,76.7746 467.5,69.5C 469.308,68.0821 469.975,66.0821 469.5,63.5 Z"/></g>
<g><path style="opacity:1" fill="#929292" d="M 469.5,58.5 C 470.268,59.2625 470.768,60.2625 471,61.5C 471.499,67.1569 471.666,72.8236 471.5,78.5C 470.833,73.5 470.167,68.5 469.5,63.5C 469.5,61.8333 469.5,60.1667 469.5,58.5 Z"/></g>
<g><path style="opacity:1" fill="#5d5d5d" d="M 444.5,74.5 C 445.166,78.0208 445.833,81.6875 446.5,85.5C 447.167,81.6875 447.834,78.0208 448.5,74.5C 448.5,78.5 448.5,82.5 448.5,86.5C 447.167,86.5 445.833,86.5 444.5,86.5C 444.5,82.5 444.5,78.5 444.5,74.5 Z"/></g>
<g><path style="opacity:1" fill="#3b8db1" d="M 67.5,78.5 C 89.1641,77.8334 110.997,77.5 133,77.5C 155.177,77.5003 177.01,78.1669 198.5,79.5C 154.906,78.5057 111.239,78.1724 67.5,78.5 Z"/></g>
<g><path style="opacity:1" fill="#d5e2eb" d="M 200.5,40.5 C 203.509,40.423 205.676,41.7563 207,44.5C 207.168,55.5151 207.668,66.5151 208.5,77.5C 209.72,78.7111 210.887,78.7111 212,77.5C 223.758,78.3225 235.591,78.8225 247.5,79C 248.833,79.6667 249.833,80.6667 250.5,82C 255.607,81.8806 258.94,84.214 260.5,89C 265.53,89.8654 268.864,92.6987 270.5,97.5C 272.879,99.0418 275.379,100.375 278,101.5C 279.412,100.077 280.579,100.244 281.5,102C 296.804,103.829 312.137,105.329 327.5,106.5C 331.632,107.533 335.632,108.533 339.5,109.5C 336.5,109.5 333.5,109.5 330.5,109.5C 312.691,107.003 294.691,105.003 276.5,103.5C 267.445,96.4453 258.112,89.7786 248.5,83.5C 248.082,82.7784 247.416,82.2784 246.5,82C 233.504,81.5001 220.504,81.3334 207.5,81.5C 205.683,69.5407 204.849,57.2074 205,44.5C 203.603,42.9297 202.103,41.5964 200.5,40.5 Z"/></g>
<g><path style="opacity:1" fill="#50a3c5" d="M 67.5,78.5 C 111.239,78.1724 154.906,78.5057 198.5,79.5C 198.5,80.5 198.5,81.5 198.5,82.5C 154.876,83.4893 111.209,83.8227 67.5,83.5C 64.8333,81.8333 64.8333,80.1667 67.5,78.5 Z"/></g>
<g><path style="opacity:1" fill="#62b9d8" d="M 67.5,79.5 C 110.505,79.1667 153.505,79.5001 196.5,80.5C 196.291,81.086 195.957,81.586 195.5,82C 152.835,82.5 110.168,82.6667 67.5,82.5C 67.5,81.5 67.5,80.5 67.5,79.5 Z"/></g>
<g><path style="opacity:1" fill="#3d8baf" d="M 198.5,82.5 C 198.389,83.1174 198.056,83.6174 197.5,84C 153.998,84.8314 110.665,84.6647 67.5,83.5C 111.209,83.8227 154.876,83.4893 198.5,82.5 Z"/></g>
<g><path style="opacity:1" fill="#497699" d="M 245.5,84.5 C 234.167,84.5 222.833,84.5 211.5,84.5C 211.5,92.1667 211.5,99.8333 211.5,107.5C 210.508,99.6841 210.174,91.6841 210.5,83.5C 222.345,83.1717 234.012,83.5051 245.5,84.5 Z"/></g>
<g><path style="opacity:1" fill="#3d6789" d="M 248.5,83.5 C 258.112,89.7786 267.445,96.4453 276.5,103.5C 277.5,104.167 278.5,104.833 279.5,105.5C 279.5,105.833 279.5,106.167 279.5,106.5C 277.804,104.871 276.804,105.204 276.5,107.5C 275.778,106.449 274.778,105.782 273.5,105.5C 273.5,104.833 273.167,104.5 272.5,104.5C 272.167,104.5 271.833,104.5 271.5,104.5C 262.524,98.5143 253.857,92.1809 245.5,85.5C 245.5,85.1667 245.5,84.8333 245.5,84.5C 246.609,84.4431 247.609,84.1098 248.5,83.5 Z"/></g>
<g><path style="opacity:1" fill="#5eb7d6" d="M 68.5,91.5 C 111.833,91.5 155.167,91.5 198.5,91.5C 198.768,93.099 198.434,94.4324 197.5,95.5C 154.167,95.5 110.833,95.5 67.5,95.5C 67.4326,94.0413 67.7659,92.7079 68.5,91.5 Z"/></g>
<g><path style="opacity:1" fill="#d0d0d0" d="M 426.5,83.5 C 426.5,87.1667 426.5,90.8333 426.5,94.5C 440.833,94.5 455.167,94.5 469.5,94.5C 469.5,93.5 469.5,92.5 469.5,91.5C 470.434,92.5676 470.768,93.901 470.5,95.5C 455.5,95.5 440.5,95.5 425.5,95.5C 425.5,91.8333 425.5,88.1667 425.5,84.5C 425.5,83.8333 425.833,83.5 426.5,83.5 Z"/></g>
<g><path style="opacity:1" fill="#4a9fc0" d="M 68.5,91.5 C 67.7659,92.7079 67.4326,94.0413 67.5,95.5C 110.833,95.5 154.167,95.5 197.5,95.5C 154.002,96.6648 110.335,96.8314 66.5,96C 64.9442,93.499 65.6108,91.999 68.5,91.5 Z"/></g>
<g><path style="opacity:1" fill="#717171" d="M 425.5,84.5 C 425.5,88.1667 425.5,91.8333 425.5,95.5C 440.5,95.5 455.5,95.5 470.5,95.5C 470.5,95.8333 470.5,96.1667 470.5,96.5C 454.658,96.1704 438.991,96.5037 423.5,97.5C 421.974,96.5081 421.307,95.0081 421.5,93C 421.514,91.6153 421.848,90.4486 422.5,89.5C 422.338,91.5273 422.505,93.5273 423,95.5C 424.014,91.7595 424.847,88.0928 425.5,84.5 Z"/></g>
<g><path style="opacity:1" fill="#212121" d="M 470.5,96.5 C 455.202,98.4844 439.536,99.1511 423.5,98.5C 423.5,98.1667 423.5,97.8333 423.5,97.5C 438.991,96.5037 454.658,96.1704 470.5,96.5 Z"/></g>
<g><path style="opacity:1" fill="#badff0" d="M 245.5,85.5 C 253.857,92.1809 262.524,98.5143 271.5,104.5C 271.03,105.693 270.03,106.36 268.5,106.5C 265.75,105.588 263.75,103.754 262.5,101C 261.552,100.517 260.552,100.351 259.5,100.5C 255.198,96.207 250.531,92.207 245.5,88.5C 244.667,88.1667 243.833,87.8333 243,87.5C 241.624,87.6842 240.791,88.3509 240.5,89.5C 239.596,88.791 239.263,87.791 239.5,86.5C 233.974,86.1786 228.64,86.5119 223.5,87.5C 220.5,87.5 217.5,87.5 214.5,87.5C 214.5,93.1667 214.5,98.8333 214.5,104.5C 220.955,104.85 227.289,104.183 233.5,102.5C 232.37,101.378 231.703,100.044 231.5,98.5C 233.812,100.146 235.812,102.146 237.5,104.5C 242.802,105.663 248.136,105.829 253.5,105C 252.619,104.292 251.953,103.458 251.5,102.5C 253.593,103.045 255.593,103.878 257.5,105C 256.944,105.383 256.611,105.883 256.5,106.5C 241.833,106.5 227.167,106.5 212.5,106.5C 212.5,99.5 212.5,92.5 212.5,85.5C 223.5,85.5 234.5,85.5 245.5,85.5 Z"/></g>
<g><path style="opacity:1" fill="#9dd6f7" d="M 259.5,100.5 C 259.5,102.5 259.5,104.5 259.5,106.5C 258.5,106.5 257.5,106.5 256.5,106.5C 256.611,105.883 256.944,105.383 257.5,105C 255.593,103.878 253.593,103.045 251.5,102.5C 248.15,97.8232 244.483,93.4899 240.5,89.5C 240.791,88.3509 241.624,87.6842 243,87.5C 243.833,87.8333 244.667,88.1667 245.5,88.5C 250.531,92.207 255.198,96.207 259.5,100.5 Z"/></g>
<g><path style="opacity:1" fill="#d4eef8" d="M 240.5,89.5 C 244.483,93.4899 248.15,97.8232 251.5,102.5C 251.953,103.458 252.619,104.292 253.5,105C 248.136,105.829 242.802,105.663 237.5,104.5C 235.812,102.146 233.812,100.146 231.5,98.5C 229.684,95.2103 227.184,92.5436 224,90.5C 223.517,89.552 223.351,88.552 223.5,87.5C 228.64,86.5119 233.974,86.1786 239.5,86.5C 239.263,87.791 239.596,88.791 240.5,89.5 Z"/></g>
<g><path style="opacity:1" fill="#9fd6f9" d="M 223.5,87.5 C 223.351,88.552 223.517,89.552 224,90.5C 227.184,92.5436 229.684,95.2103 231.5,98.5C 231.703,100.044 232.37,101.378 233.5,102.5C 227.289,104.183 220.955,104.85 214.5,104.5C 214.5,98.8333 214.5,93.1667 214.5,87.5C 217.5,87.5 220.5,87.5 223.5,87.5 Z"/></g>
<g><path style="opacity:1" fill="#80a8bf" d="M 276.5,103.5 C 294.691,105.003 312.691,107.003 330.5,109.5C 313.43,108.772 296.43,107.439 279.5,105.5C 278.5,104.833 277.5,104.167 276.5,103.5 Z"/></g>
<g><path style="opacity:1" fill="#2a648f" d="M 59.5,106.5 C 59.8333,106.5 60.1667,106.5 60.5,106.5C 108.833,106.5 157.167,106.5 205.5,106.5C 158.003,107.499 110.336,107.832 62.5,107.5C 60.631,109.635 59.9644,112.302 60.5,115.5C 60.1667,115.5 59.8333,115.5 59.5,115.5C 59.5,112.5 59.5,109.5 59.5,106.5 Z"/></g>
<g><path style="opacity:1" fill="#87bad1" d="M 259.5,100.5 C 260.552,100.351 261.552,100.517 262.5,101C 263.75,103.754 265.75,105.588 268.5,106.5C 270.03,106.36 271.03,105.693 271.5,104.5C 271.833,104.5 272.167,104.5 272.5,104.5C 272.5,105.5 272.5,106.5 272.5,107.5C 268.61,107.272 264.776,107.606 261,108.5C 244.693,107.854 228.526,107.188 212.5,106.5C 227.167,106.5 241.833,106.5 256.5,106.5C 257.5,106.5 258.5,106.5 259.5,106.5C 259.5,104.5 259.5,102.5 259.5,100.5 Z"/></g>
<g><path style="opacity:1" fill="#6b9ab8" d="M 245.5,84.5 C 245.5,84.8333 245.5,85.1667 245.5,85.5C 234.5,85.5 223.5,85.5 212.5,85.5C 212.5,92.5 212.5,99.5 212.5,106.5C 228.526,107.188 244.693,107.854 261,108.5C 264.776,107.606 268.61,107.272 272.5,107.5C 272.5,106.5 272.5,105.5 272.5,104.5C 273.167,104.5 273.5,104.833 273.5,105.5C 273.5,106.5 273.5,107.5 273.5,108.5C 258.199,108.825 242.866,108.825 227.5,108.5C 228.508,113.492 226.508,115.492 221.5,114.5C 216.492,115.492 214.492,113.492 215.5,108.5C 214.167,108.5 212.833,108.5 211.5,108.5C 211.5,108.167 211.5,107.833 211.5,107.5C 211.5,99.8333 211.5,92.1667 211.5,84.5C 222.833,84.5 234.167,84.5 245.5,84.5 Z"/></g>
<g><path style="opacity:1" fill="#184c7a" d="M 207.5,81.5 C 220.504,81.3334 233.504,81.5001 246.5,82C 247.416,82.2784 248.082,82.7784 248.5,83.5C 247.609,84.1098 246.609,84.4431 245.5,84.5C 234.012,83.5051 222.345,83.1717 210.5,83.5C 210.174,91.6841 210.508,99.6841 211.5,107.5C 211.5,107.833 211.5,108.167 211.5,108.5C 211.5,120.167 211.5,131.833 211.5,143.5C 209.846,132.864 208.846,121.864 208.5,110.5C 207.289,109.61 205.955,109.61 204.5,110.5C 158.522,109.677 112.522,109.177 66.5,109C 64.9419,108.79 63.6085,108.29 62.5,107.5C 110.336,107.832 158.003,107.499 205.5,106.5C 205.5,98.8333 205.5,91.1667 205.5,83.5C 206.5,83.1667 207.167,82.5 207.5,81.5 Z"/></g>
<g><path style="opacity:1" fill="#3478a4" d="M 273.5,105.5 C 274.778,105.782 275.778,106.449 276.5,107.5C 279.092,118.465 279.092,129.465 276.5,140.5C 276.36,142.03 275.693,143.03 274.5,143.5C 253.5,143.5 232.5,143.5 211.5,143.5C 211.5,131.833 211.5,120.167 211.5,108.5C 212.833,108.5 214.167,108.5 215.5,108.5C 214.492,113.492 216.492,115.492 221.5,114.5C 226.508,115.492 228.508,113.492 227.5,108.5C 242.866,108.825 258.199,108.825 273.5,108.5C 273.5,107.5 273.5,106.5 273.5,105.5 Z"/></g>
<g><path style="opacity:1" fill="#4c7fa3" d="M 279.5,106.5 C 279.5,106.167 279.5,105.833 279.5,105.5C 296.43,107.439 313.43,108.772 330.5,109.5C 333.5,109.5 336.5,109.5 339.5,109.5C 343.141,109.652 345.807,111.318 347.5,114.5C 347.5,116.5 347.5,118.5 347.5,120.5C 348.275,125.797 348.608,131.13 348.5,136.5C 345.833,136.5 343.167,136.5 340.5,136.5C 342.607,135.532 344.941,135.198 347.5,135.5C 347.747,132.061 347.414,128.728 346.5,125.5C 346.665,121.818 346.499,118.152 346,114.5C 345.167,113.667 344.333,112.833 343.5,112C 323.826,110.928 304.16,109.761 284.5,108.5C 282.861,107.678 281.195,107.011 279.5,106.5 Z"/></g>
<g><path style="opacity:1" fill="#c9e4ef" d="M 216.5,109.5 C 219.833,109.5 223.167,109.5 226.5,109.5C 226.5,110.5 226.5,111.5 226.5,112.5C 223.167,112.5 219.833,112.5 216.5,112.5C 216.5,111.5 216.5,110.5 216.5,109.5 Z"/></g>
<g><path style="opacity:1" fill="#2e6592" d="M 279.5,106.5 C 281.195,107.011 282.861,107.678 284.5,108.5C 304.16,109.761 323.826,110.928 343.5,112C 344.333,112.833 345.167,113.667 346,114.5C 346.499,118.152 346.665,121.818 346.5,125.5C 345.679,122.359 345.179,119.025 345,115.5C 344.25,114.874 343.416,114.374 342.5,114C 322.568,112.156 302.568,110.822 282.5,110C 280.574,109.578 279.574,108.411 279.5,106.5 Z"/></g>
<g><path style="opacity:1" fill="#124475" d="M 62.5,107.5 C 63.6085,108.29 64.9419,108.79 66.5,109C 112.522,109.177 158.522,109.677 204.5,110.5C 205.955,109.61 207.289,109.61 208.5,110.5C 208.846,121.864 209.846,132.864 211.5,143.5C 192.529,145.488 173.196,146.154 153.5,145.5C 153.666,141.486 153.499,137.486 153,133.5C 151.89,131.963 150.39,131.297 148.5,131.5C 148.703,129.61 148.037,128.11 146.5,127C 136.833,126.333 127.167,126.333 117.5,127C 115.376,129.144 112.876,130.644 110,131.5C 108.637,136.084 107.803,140.751 107.5,145.5C 93.1628,145.667 78.8295,145.5 64.5,145C 64.1667,144.667 63.8333,144.333 63.5,144C 66.5,143.667 69.5,143.333 72.5,143C 75.2994,139.661 74.9661,136.661 71.5,134C 67.8484,133.501 64.1817,133.335 60.5,133.5C 61.6874,127.448 61.6874,121.448 60.5,115.5C 59.9644,112.302 60.631,109.635 62.5,107.5 Z"/></g>
<g><path style="opacity:1" fill="#144575" d="M 279.5,106.5 C 279.574,108.411 280.574,109.578 282.5,110C 302.568,110.822 322.568,112.156 342.5,114C 343.416,114.374 344.25,114.874 345,115.5C 345.179,119.025 345.679,122.359 346.5,125.5C 347.414,128.728 347.747,132.061 347.5,135.5C 344.941,135.198 342.607,135.532 340.5,136.5C 340.5,138.167 340.5,139.833 340.5,141.5C 340.611,142.117 340.944,142.617 341.5,143C 339.19,143.497 336.857,143.663 334.5,143.5C 333.276,139.221 331.943,134.887 330.5,130.5C 329.5,130.5 328.5,130.5 327.5,130.5C 326.365,128.787 324.698,128.12 322.5,128.5C 314.677,127.344 306.677,127.177 298.5,128C 296.941,130.364 294.775,131.864 292,132.5C 291.127,136.947 289.96,141.28 288.5,145.5C 283.489,145.666 278.489,145.499 273.5,145C 274.056,144.617 274.389,144.117 274.5,143.5C 275.693,143.03 276.36,142.03 276.5,140.5C 279.092,129.465 279.092,118.465 276.5,107.5C 276.804,105.204 277.804,104.871 279.5,106.5 Z"/></g>
<g><path style="opacity:1" fill="#d4d4d4" d="M 422.5,118.5 C 426.981,117.352 431.648,117.185 436.5,118C 438.838,119.508 439.838,121.675 439.5,124.5C 437.517,124.843 436.183,124.176 435.5,122.5C 436.675,122.719 437.675,122.386 438.5,121.5C 437.398,120.824 436.398,120.158 435.5,119.5C 431.366,118.515 427.032,118.182 422.5,118.5 Z"/></g>
<g><path style="opacity:1" fill="#d0d0d0" d="M 490.5,122.5 C 491.978,122.762 493.311,122.429 494.5,121.5C 494.291,120.914 493.957,120.414 493.5,120C 487.651,119.182 481.985,119.348 476.5,120.5C 476.167,120.5 475.833,120.5 475.5,120.5C 475.577,119.25 476.244,118.417 477.5,118C 483.518,117.012 489.351,117.512 495,119.5C 495.494,121.134 495.66,122.801 495.5,124.5C 493.302,124.88 491.635,124.213 490.5,122.5 Z"/></g>
<g><path style="opacity:1" fill="#515151" d="M 476.5,120.5 C 481.985,119.348 487.651,119.182 493.5,120C 493.957,120.414 494.291,120.914 494.5,121.5C 493.311,122.429 491.978,122.762 490.5,122.5C 489.432,121.566 488.099,121.232 486.5,121.5C 483.375,120.521 480.042,120.187 476.5,120.5 Z"/></g>
<g><path style="opacity:1" fill="#daad9c" d="M 58.5,115.5 C 57.6167,120.103 57.2834,124.77 57.5,129.5C 57.1667,129.5 56.8333,129.5 56.5,129.5C 55.5139,125.03 55.1805,120.363 55.5,115.5C 56.5,115.5 57.5,115.5 58.5,115.5 Z"/></g>
<g><path style="opacity:1" fill="#292929" d="M 475.5,120.5 C 475.833,120.5 476.167,120.5 476.5,120.5C 480.042,120.187 483.375,120.521 486.5,121.5C 486.5,128.167 486.5,134.833 486.5,141.5C 486.167,141.5 485.833,141.5 485.5,141.5C 483.541,135.25 482.874,128.584 483.5,121.5C 481.585,121.216 479.919,121.549 478.5,122.5C 477.518,123.141 476.518,123.807 475.5,124.5C 474.614,123.675 474.281,122.675 474.5,121.5C 474.5,120.833 474.833,120.5 475.5,120.5 Z"/></g>
<g><path style="opacity:1" fill="#90574e" d="M 58.5,115.5 C 58.8333,115.5 59.1667,115.5 59.5,115.5C 59.5,120.5 59.5,125.5 59.5,130.5C 58.5084,130.672 57.8417,130.338 57.5,129.5C 57.2834,124.77 57.6167,120.103 58.5,115.5 Z"/></g>
<g><path style="opacity:1" fill="#999999" d="M 422.5,118.5 C 427.032,118.182 431.366,118.515 435.5,119.5C 430.401,119.175 425.401,119.675 420.5,121C 417.532,123.178 417.865,124.344 421.5,124.5C 420.432,125.434 419.099,125.768 417.5,125.5C 417.213,121.785 418.88,119.452 422.5,118.5 Z"/></g>
<g><path style="opacity:1" fill="#ababab" d="M 427.5,142.5 C 426.509,136.021 426.176,129.354 426.5,122.5C 424.486,122.392 422.82,123.058 421.5,124.5C 421.414,123.504 421.748,122.671 422.5,122C 424.134,121.506 425.801,121.34 427.5,121.5C 427.5,128.5 427.5,135.5 427.5,142.5 Z"/></g>
<g><path style="opacity:1" fill="#313131" d="M 435.5,119.5 C 436.398,120.158 437.398,120.824 438.5,121.5C 437.675,122.386 436.675,122.719 435.5,122.5C 435.167,122.5 434.833,122.5 434.5,122.5C 433.432,121.566 432.099,121.232 430.5,121.5C 430.795,128.588 430.462,135.588 429.5,142.5C 428.833,142.5 428.167,142.5 427.5,142.5C 427.5,135.5 427.5,128.5 427.5,121.5C 425.801,121.34 424.134,121.506 422.5,122C 421.748,122.671 421.414,123.504 421.5,124.5C 417.865,124.344 417.532,123.178 420.5,121C 425.401,119.675 430.401,119.175 435.5,119.5 Z"/></g>
<g><path style="opacity:1" fill="#919191" d="M 478.5,122.5 C 479.919,121.549 481.585,121.216 483.5,121.5C 482.874,128.584 483.541,135.25 485.5,141.5C 484.791,142.404 483.791,142.737 482.5,142.5C 482.5,135.833 482.5,129.167 482.5,122.5C 481.167,122.5 479.833,122.5 478.5,122.5 Z"/></g>
<g><path style="opacity:1" fill="#dddabc" d="M 347.5,114.5 C 351.314,116.83 352.981,120.33 352.5,125C 352.431,126.986 351.765,128.486 350.5,129.5C 350.443,125.971 349.443,122.971 347.5,120.5C 347.5,118.5 347.5,116.5 347.5,114.5 Z"/></g>
<g><path style="opacity:1" fill="#9c9c9c" d="M 434.5,122.5 C 433.5,122.5 432.5,122.5 431.5,122.5C 432.126,129.584 431.459,136.25 429.5,142.5C 430.462,135.588 430.795,128.588 430.5,121.5C 432.099,121.232 433.432,121.566 434.5,122.5 Z"/></g>
<g><path style="opacity:1" fill="#afafaf" d="M 486.5,121.5 C 488.099,121.232 489.432,121.566 490.5,122.5C 489.5,122.5 488.5,122.5 487.5,122.5C 487.823,129.022 487.49,135.355 486.5,141.5C 486.5,134.833 486.5,128.167 486.5,121.5 Z"/></g>
<g><path style="opacity:1" fill="#646464" d="M 404.5,123.5 C 405.657,126.307 405.657,128.974 404.5,131.5C 404.5,129.833 404.5,128.167 404.5,126.5C 403.022,126.762 401.689,126.429 400.5,125.5C 401.32,123.889 402.654,123.222 404.5,123.5 Z"/></g>
<g><path style="opacity:1" fill="#868686" d="M 404.5,123.5 C 405.209,122.596 406.209,122.263 407.5,122.5C 408.117,122.611 408.617,122.944 409,123.5C 409.663,126.869 409.496,130.203 408.5,133.5C 408.942,134.739 409.609,135.739 410.5,136.5C 409.5,136.5 408.5,136.5 407.5,136.5C 407.5,132.167 407.5,127.833 407.5,123.5C 406.5,123.5 405.5,123.5 404.5,123.5 Z"/></g>
<g><path style="opacity:1" fill="#bdbdbd" d="M 407.5,122.5 C 406.209,122.263 405.209,122.596 404.5,123.5C 402.654,123.222 401.32,123.889 400.5,125.5C 401.689,126.429 403.022,126.762 404.5,126.5C 404.5,128.167 404.5,129.833 404.5,131.5C 404.5,133.167 404.5,134.833 404.5,136.5C 402.517,136.157 401.183,136.824 400.5,138.5C 399.596,137.791 399.263,136.791 399.5,135.5C 400.833,135.5 402.167,135.5 403.5,135.5C 403.5,132.833 403.5,130.167 403.5,127.5C 402.167,127.5 400.833,127.5 399.5,127.5C 399.175,123.35 401.175,121.35 405.5,121.5C 406.416,121.543 407.083,121.876 407.5,122.5 Z"/></g>
<g><path style="opacity:1" fill="#999999" d="M 474.5,121.5 C 474.281,122.675 474.614,123.675 475.5,124.5C 476.518,123.807 477.518,123.141 478.5,122.5C 478.033,125.297 476.367,126.631 473.5,126.5C 473.737,127.791 473.404,128.791 472.5,129.5C 472.834,126.812 472.168,124.479 470.5,122.5C 471.496,122.414 472.329,122.748 473,123.5C 473.278,122.584 473.778,121.918 474.5,121.5 Z"/></g>
<g><path style="opacity:1" fill="#1c3856" d="M 322.5,128.5 C 314.826,128.334 307.159,128.5 299.5,129C 294.541,133.417 291.541,138.917 290.5,145.5C 289.833,145.5 289.167,145.5 288.5,145.5C 289.96,141.28 291.127,136.947 292,132.5C 294.775,131.864 296.941,130.364 298.5,128C 306.677,127.177 314.677,127.344 322.5,128.5 Z"/></g>
<g><path style="opacity:1" fill="#c0c0c0" d="M 469.5,122.5 C 466.722,122.022 464.722,123.022 463.5,125.5C 465.326,125.92 467.326,125.92 469.5,125.5C 469.795,127.735 469.461,129.735 468.5,131.5C 468.167,131.5 467.833,131.5 467.5,131.5C 467.5,130.167 467.5,128.833 467.5,127.5C 465.833,127.5 464.167,127.5 462.5,127.5C 462.476,122.165 464.81,120.499 469.5,122.5 Z"/></g>
<g><path style="opacity:1" fill="#5f5f5f" d="M 447.5,128.5 C 449.5,128.5 451.5,128.5 453.5,128.5C 453.5,129.5 453.5,130.5 453.5,131.5C 451.076,131.808 448.743,131.474 446.5,130.5C 446.863,129.817 447.196,129.15 447.5,128.5 Z"/></g>
<g><path style="opacity:1" fill="#343434" d="M 469.5,122.5 C 469.833,122.5 470.167,122.5 470.5,122.5C 472.168,124.479 472.834,126.812 472.5,129.5C 471.974,131.23 470.974,132.564 469.5,133.5C 468.662,133.158 468.328,132.492 468.5,131.5C 469.461,129.735 469.795,127.735 469.5,125.5C 467.326,125.92 465.326,125.92 463.5,125.5C 464.722,123.022 466.722,122.022 469.5,122.5 Z"/></g>
<g><path style="opacity:1" fill="#585858" d="M 467.5,131.5 C 467.833,131.5 468.167,131.5 468.5,131.5C 468.328,132.492 468.662,133.158 469.5,133.5C 470.678,134.999 472.345,135.999 474.5,136.5C 473.68,138.111 472.346,138.778 470.5,138.5C 468.095,137.232 465.428,136.565 462.5,136.5C 463.973,134.605 465.64,132.939 467.5,131.5 Z"/></g>
<g><path style="opacity:1" fill="#26394b" d="M 327.5,130.5 C 328.5,130.5 329.5,130.5 330.5,130.5C 331.943,134.887 333.276,139.221 334.5,143.5C 333.791,144.404 332.791,144.737 331.5,144.5C 331.662,142.473 331.495,140.473 331,138.5C 329.519,135.89 328.352,133.223 327.5,130.5 Z"/></g>
<g><path style="opacity:1" fill="#c9ccce" d="M 347.5,120.5 C 349.443,122.971 350.443,125.971 350.5,129.5C 349.699,131.042 349.366,132.708 349.5,134.5C 350.833,134.5 352.167,134.5 353.5,134.5C 353.492,137.545 353.159,140.545 352.5,143.5C 350.801,143.38 349.135,143.046 347.5,142.5C 346,142.453 345,143.119 344.5,144.5C 341.572,145.484 338.572,145.817 335.5,145.5C 337.631,144.686 339.964,144.186 342.5,144C 343.609,142.187 342.942,141.354 340.5,141.5C 340.5,139.833 340.5,138.167 340.5,136.5C 343.167,136.5 345.833,136.5 348.5,136.5C 348.608,131.13 348.275,125.797 347.5,120.5 Z"/></g>
<g><path style="opacity:1" fill="#c6c6d0" d="M 56.5,129.5 C 56.8333,129.5 57.1667,129.5 57.5,129.5C 57.8417,130.338 58.5084,130.672 59.5,130.5C 59.5,131.833 59.5,133.167 59.5,134.5C 64.0725,133.769 68.0725,134.769 71.5,137.5C 71.5,138.5 71.5,139.5 71.5,140.5C 67.8333,140.5 64.1667,140.5 60.5,140.5C 60.5,141.5 60.5,142.5 60.5,143.5C 58.5791,141.608 57.2458,139.275 56.5,136.5C 57.5582,134.106 57.5582,131.772 56.5,129.5 Z"/></g>
<g><path style="opacity:1" fill="#213e5d" d="M 153.5,145.5 C 152.167,145.5 150.833,145.5 149.5,145.5C 150.685,132.933 145.018,127.266 132.5,128.5C 128.833,128.667 125.167,128.833 121.5,129C 118.328,130.752 115.328,132.752 112.5,135C 110.42,138.714 110.087,142.547 111.5,146.5C 110.833,146.5 110.167,146.5 109.5,146.5C 109.158,145.662 108.492,145.328 107.5,145.5C 107.803,140.751 108.637,136.084 110,131.5C 112.876,130.644 115.376,129.144 117.5,127C 127.167,126.333 136.833,126.333 146.5,127C 148.037,128.11 148.703,129.61 148.5,131.5C 150.39,131.297 151.89,131.963 153,133.5C 153.499,137.486 153.666,141.486 153.5,145.5 Z"/></g>
<g><path style="opacity:1" fill="#222222" d="M 404.5,123.5 C 405.5,123.5 406.5,123.5 407.5,123.5C 407.5,127.833 407.5,132.167 407.5,136.5C 408.5,136.5 409.5,136.5 410.5,136.5C 410.5,137.167 410.5,137.833 410.5,138.5C 407.167,138.5 403.833,138.5 400.5,138.5C 401.183,136.824 402.517,136.157 404.5,136.5C 404.5,134.833 404.5,133.167 404.5,131.5C 405.657,128.974 405.657,126.307 404.5,123.5 Z"/></g>
<g><path style="opacity:1" fill="#161616" d="M 462.5,136.5 C 465.428,136.565 468.095,137.232 470.5,138.5C 467.302,139.036 464.635,138.369 462.5,136.5 Z"/></g>
<g><path style="opacity:1" fill="#787878" d="M 462.5,136.5 C 464.635,138.369 467.302,139.036 470.5,138.5C 467.713,139.477 464.713,139.81 461.5,139.5C 461.263,138.209 461.596,137.209 462.5,136.5 Z"/></g>
<g><path style="opacity:1" fill="#a8a8a8" d="M 400.5,138.5 C 403.833,138.5 407.167,138.5 410.5,138.5C 410.389,139.117 410.056,139.617 409.5,140C 406.833,140.667 404.167,140.667 401.5,140C 400.944,139.617 400.611,139.117 400.5,138.5 Z"/></g>
<g><path style="opacity:1" fill="#687d97" d="M 71.5,137.5 C 72.4345,138.568 72.7678,139.901 72.5,141.5C 68.351,140.92 64.6843,141.586 61.5,143.5C 61.1667,143.5 60.8333,143.5 60.5,143.5C 60.5,142.5 60.5,141.5 60.5,140.5C 64.1667,140.5 67.8333,140.5 71.5,140.5C 71.5,139.5 71.5,138.5 71.5,137.5 Z"/></g>
<g><path style="opacity:1" fill="#375173" d="M 59.5,115.5 C 59.8333,115.5 60.1667,115.5 60.5,115.5C 61.6874,121.448 61.6874,127.448 60.5,133.5C 64.1817,133.335 67.8484,133.501 71.5,134C 74.9661,136.661 75.2994,139.661 72.5,143C 69.5,143.333 66.5,143.667 63.5,144C 63.8333,144.333 64.1667,144.667 64.5,145C 78.8295,145.5 93.1628,145.667 107.5,145.5C 108.492,145.328 109.158,145.662 109.5,146.5C 94.5,146.5 79.5,146.5 64.5,146.5C 63.1667,145.833 62.1667,144.833 61.5,143.5C 64.6843,141.586 68.351,140.92 72.5,141.5C 72.7678,139.901 72.4345,138.568 71.5,137.5C 68.0725,134.769 64.0725,133.769 59.5,134.5C 59.5,133.167 59.5,131.833 59.5,130.5C 59.5,125.5 59.5,120.5 59.5,115.5 Z"/></g>
<g><path style="opacity:1" fill="#1f1b1b" d="M 149.5,145.5 C 149.5,145.833 149.5,146.167 149.5,146.5C 148.662,146.842 148.328,147.508 148.5,148.5C 148.443,149.609 148.11,150.609 147.5,151.5C 144.789,155.212 141.456,158.212 137.5,160.5C 133.066,161.794 128.733,161.794 124.5,160.5C 124.33,159.178 124.663,158.011 125.5,157C 128.628,156.159 131.628,155.325 134.5,154.5C 142.57,150.444 144.57,144.444 140.5,136.5C 139.167,135.5 137.833,134.5 136.5,133.5C 136.389,132.883 136.056,132.383 135.5,132C 128.174,129.729 122.841,131.895 119.5,138.5C 118.677,141.977 118.177,145.644 118,149.5C 117.105,146.233 115.272,145.566 112.5,147.5C 112.5,146.833 112.167,146.5 111.5,146.5C 110.087,142.547 110.42,138.714 112.5,135C 115.328,132.752 118.328,130.752 121.5,129C 125.167,128.833 128.833,128.667 132.5,128.5C 145.018,127.266 150.685,132.933 149.5,145.5 Z"/></g>
<g><path style="opacity:1" fill="#c1bab9" d="M 136.5,133.5 C 124.67,132.332 119.67,137.665 121.5,149.5C 119.783,146.155 119.116,142.489 119.5,138.5C 122.841,131.895 128.174,129.729 135.5,132C 136.056,132.383 136.389,132.883 136.5,133.5 Z"/></g>
<g><path style="opacity:1" fill="#ede9e8" d="M 136.5,133.5 C 137.833,134.5 139.167,135.5 140.5,136.5C 140.665,139.518 140.498,142.518 140,145.5C 139.837,147.676 139.004,149.509 137.5,151C 134.893,151.818 132.226,152.318 129.5,152.5C 126.442,152.417 123.775,151.417 121.5,149.5C 119.67,137.665 124.67,132.332 136.5,133.5 Z"/></g>
<g><path style="opacity:1" fill="#5e768e" d="M 340.5,141.5 C 342.942,141.354 343.609,142.187 342.5,144C 339.964,144.186 337.631,144.686 335.5,145.5C 334.167,145.5 332.833,145.5 331.5,145.5C 331.5,145.167 331.5,144.833 331.5,144.5C 332.791,144.737 333.791,144.404 334.5,143.5C 336.857,143.663 339.19,143.497 341.5,143C 340.944,142.617 340.611,142.117 340.5,141.5 Z"/></g>
<g><path style="opacity:1" fill="#305e86" d="M 211.5,143.5 C 232.5,143.5 253.5,143.5 274.5,143.5C 274.389,144.117 274.056,144.617 273.5,145C 278.489,145.499 283.489,145.666 288.5,145.5C 289.167,145.5 289.833,145.5 290.5,145.5C 290.5,145.833 290.5,146.167 290.5,146.5C 243.5,146.5 196.5,146.5 149.5,146.5C 149.5,146.167 149.5,145.833 149.5,145.5C 150.833,145.5 152.167,145.5 153.5,145.5C 173.196,146.154 192.529,145.488 211.5,143.5 Z"/></g>
<g><path style="opacity:1" fill="#8ea1b5" d="M 64.5,146.5 C 79.5,146.5 94.5,146.5 109.5,146.5C 110.167,146.5 110.833,146.5 111.5,146.5C 112.167,146.5 112.5,146.833 112.5,147.5C 112.5,147.833 112.5,148.167 112.5,148.5C 96.4019,147.847 80.4019,147.181 64.5,146.5 Z"/></g>
<g><path style="opacity:1" fill="#2f2928" d="M 119.5,138.5 C 119.116,142.489 119.783,146.155 121.5,149.5C 124.563,153.877 128.897,155.544 134.5,154.5C 131.628,155.325 128.628,156.159 125.5,157C 124.663,158.011 124.33,159.178 124.5,160.5C 118.202,158.869 114.202,154.869 112.5,148.5C 112.5,148.167 112.5,147.833 112.5,147.5C 115.272,145.566 117.105,146.233 118,149.5C 118.177,145.644 118.677,141.977 119.5,138.5 Z"/></g>
<g><path style="opacity:1" fill="#8ea3b7" d="M 149.5,146.5 C 196.5,146.5 243.5,146.5 290.5,146.5C 292.483,146.157 293.817,146.824 294.5,148.5C 246.069,147.17 197.736,147.17 149.5,148.5C 149.167,148.5 148.833,148.5 148.5,148.5C 148.328,147.508 148.662,146.842 149.5,146.5 Z"/></g>
<g><path style="opacity:1" fill="#d6dde3" d="M 149.5,148.5 C 197.736,147.17 246.069,147.17 294.5,148.5C 298.789,160.358 307.122,164.358 319.5,160.5C 318.942,161.79 317.942,162.623 316.5,163C 312.113,163.226 307.779,163.726 303.5,164.5C 303.331,163.603 302.998,162.603 302.5,161.5C 300.618,160.907 298.785,160.24 297,159.5C 296.324,155.599 294.824,152.099 292.5,149C 244.834,148.5 197.168,148.333 149.5,148.5 Z"/></g>
<g><path style="opacity:1" fill="#231e1d" d="M 322.5,128.5 C 324.698,128.12 326.365,128.787 327.5,130.5C 328.352,133.223 329.519,135.89 331,138.5C 331.495,140.473 331.662,142.473 331.5,144.5C 331.5,144.833 331.5,145.167 331.5,145.5C 330.833,146.833 330.167,148.167 329.5,149.5C 327.992,151.181 326.992,153.181 326.5,155.5C 325.033,158.29 322.7,159.956 319.5,160.5C 307.122,164.358 298.789,160.358 294.5,148.5C 293.817,146.824 292.483,146.157 290.5,146.5C 290.5,146.167 290.5,145.833 290.5,145.5C 291.541,138.917 294.541,133.417 299.5,129C 307.159,128.5 314.826,128.334 322.5,128.5 Z"/></g>
<g><path style="opacity:1" fill="#eae6e6" d="M 321.5,149.5 C 317.236,153.111 312.236,154.445 306.5,153.5C 306.167,152.833 305.833,152.167 305.5,151.5C 301.406,135.133 306.906,130.8 322,138.5C 322.45,142.188 322.283,145.854 321.5,149.5 Z"/></g>
<g><path style="opacity:1" fill="#bdb9b8" d="M 321.5,149.5 C 322.283,145.854 322.45,142.188 322,138.5C 306.906,130.8 301.406,135.133 305.5,151.5C 300.745,148.463 299.245,144.129 301,138.5C 308.415,129.283 316.082,129.283 324,138.5C 324.667,141.5 324.667,144.5 324,147.5C 323.292,148.381 322.458,149.047 321.5,149.5 Z"/></g>
<g><path style="opacity:1" fill="#b0aaa8" d="M 140.5,136.5 C 144.57,144.444 142.57,150.444 134.5,154.5C 128.897,155.544 124.563,153.877 121.5,149.5C 123.775,151.417 126.442,152.417 129.5,152.5C 132.226,152.318 134.893,151.818 137.5,151C 139.004,149.509 139.837,147.676 140,145.5C 140.498,142.518 140.665,139.518 140.5,136.5 Z"/></g>
<g><path style="opacity:1" fill="#64605d" d="M 329.5,149.5 C 329.539,152.089 328.539,154.089 326.5,155.5C 326.992,153.181 327.992,151.181 329.5,149.5 Z"/></g>
<g><path style="opacity:1" fill="#938d8d" d="M 321.5,149.5 C 321.084,151.752 319.751,153.252 317.5,154C 313.642,154.81 309.976,154.643 306.5,153.5C 312.236,154.445 317.236,153.111 321.5,149.5 Z"/></g>
<g><path style="opacity:1" fill="#878482" d="M 147.5,151.5 C 146.088,156.576 142.755,159.576 137.5,160.5C 141.456,158.212 144.789,155.212 147.5,151.5 Z"/></g>
</svg>
