<?xml version="1.0" encoding="UTF-8"?>
<!DOCTYPE svg PUBLIC "-//W3C//DTD SVG 1.1//EN" "http://www.w3.org/Graphics/SVG/1.1/DTD/svg11.dtd">
<svg xmlns="http://www.w3.org/2000/svg" version="1.1" width="566px" height="192px" style="shape-rendering:geometricPrecision; text-rendering:geometricPrecision; image-rendering:optimizeQuality; fill-rule:evenodd; clip-rule:evenodd" xmlns:xlink="http://www.w3.org/1999/xlink">
<g><path style="opacity:1" fill="#fdfdfd" d="M -0.5,1.5 C 188.167,1.5 376.833,1.5 565.5,1.5C 565.5,64.8333 565.5,128.167 565.5,191.5C 376.833,191.5 188.167,191.5 -0.5,191.5C -0.5,128.167 -0.5,64.8333 -0.5,1.5 Z"/></g>
<g><path style="opacity:1" fill="#4c4c4c" d="M 444.5,30.5 C 443.167,30.5 442.5,31.1667 442.5,32.5C 439.671,30.0216 436.338,29.0216 432.5,29.5C 434.292,28.6909 436.292,28.1909 438.5,28C 435.854,27.5026 433.187,27.3359 430.5,27.5C 432.795,25.615 435.462,25.115 438.5,26C 440.401,27.7482 442.401,29.2482 444.5,30.5 Z"/></g>
<g><path style="opacity:1" fill="#334b63" d="M 112.5,30.5 C 168.998,29.501 225.664,29.1677 282.5,29.5C 284.674,29.7497 286.341,30.7497 287.5,32.5C 280.309,30.8194 272.975,30.1527 265.5,30.5C 214.5,30.5 163.5,30.5 112.5,30.5 Z"/></g>
<g><path style="opacity:1" fill="#7a8c9f" d="M 282.5,29.5 C 225.664,29.1677 168.998,29.501 112.5,30.5C 109.092,31.3668 105.758,32.5335 102.5,34C 100.559,36.4536 98.2254,38.287 95.5,39.5C 99.0668,34.0421 104.067,30.5421 110.5,29C 168.001,28.1681 225.335,28.3348 282.5,29.5 Z"/></g>
<g><path style="opacity:1" fill="#212836" d="M 265.5,30.5 C 272.975,30.1527 280.309,30.8194 287.5,32.5C 288.5,32.8333 289.167,33.5 289.5,34.5C 289.461,35.7562 289.961,36.7562 291,37.5C 291.17,48.3412 291.67,59.0079 292.5,69.5C 292.5,69.8333 292.5,70.1667 292.5,70.5C 279.5,70.5 266.5,70.5 253.5,70.5C 253.833,69.8333 254.167,69.1667 254.5,68.5C 265.346,68.8278 276.013,68.4944 286.5,67.5C 287.167,67.5 287.5,67.1667 287.5,66.5C 288.658,57.0089 288.825,47.3422 288,37.5C 287.617,36.944 287.117,36.6107 286.5,36.5C 285.082,34.6921 283.082,34.0254 280.5,34.5C 280.5,34.1667 280.5,33.8333 280.5,33.5C 224.336,32.501 168.002,32.1677 111.5,32.5C 162.833,31.8333 214.167,31.1667 265.5,30.5 Z"/></g>
<g><path style="opacity:1" fill="#543528" d="M 111.5,32.5 C 168.002,32.1677 224.336,32.501 280.5,33.5C 224.166,33.3333 167.832,33.5 111.5,34C 110.142,34.9344 108.808,35.7677 107.5,36.5C 106.833,36.5 106.167,36.5 105.5,36.5C 107.322,34.9899 109.322,33.6566 111.5,32.5 Z"/></g>
<g><path style="opacity:1" fill="#c15418" d="M 280.5,33.5 C 280.5,33.8333 280.5,34.1667 280.5,34.5C 280.5,34.8333 280.5,35.1667 280.5,35.5C 222.81,35.1826 165.144,35.5159 107.5,36.5C 108.808,35.7677 110.142,34.9344 111.5,34C 167.832,33.5 224.166,33.3333 280.5,33.5 Z"/></g>
<g><path style="opacity:1" fill="#7c4424" d="M 280.5,35.5 C 280.5,35.1667 280.5,34.8333 280.5,34.5C 283.082,34.0254 285.082,34.6921 286.5,36.5C 284.435,36.4828 282.435,36.1495 280.5,35.5 Z"/></g>
<g><path style="opacity:1" fill="#f65807" d="M 280.5,35.5 C 282.676,36.7394 284.509,38.4061 286,40.5C 286.5,48.4931 286.666,56.4931 286.5,64.5C 221.833,64.5 157.167,64.5 92.5,64.5C 94.3929,54.8039 98.3929,46.1372 104.5,38.5C 105.338,38.1583 105.672,37.4916 105.5,36.5C 106.167,36.5 106.833,36.5 107.5,36.5C 165.144,35.5159 222.81,35.1826 280.5,35.5 Z"/></g>
<g><path style="opacity:1" fill="#5e5e5e" d="M 426.5,30.5 C 423.931,35.4544 422.931,40.7877 423.5,46.5C 420.397,40.4578 421.397,35.1245 426.5,30.5 Z"/></g>
<g><path style="opacity:1" fill="#53687b" d="M 289.5,34.5 C 290.794,35.2899 291.961,36.2899 293,37.5C 293.5,48.1615 293.667,58.8281 293.5,69.5C 293.167,69.5 292.833,69.5 292.5,69.5C 291.67,59.0079 291.17,48.3412 291,37.5C 289.961,36.7562 289.461,35.7562 289.5,34.5 Z"/></g>
<g><path style="opacity:1" fill="#2a2a2a" d="M 444.5,30.5 C 446.014,32.364 447.347,34.364 448.5,36.5C 448.847,41.0787 448.18,45.412 446.5,49.5C 448.833,49.5 451.167,49.5 453.5,49.5C 454.167,49.5 454.833,49.5 455.5,49.5C 456.527,53.446 456.694,57.446 456,61.5C 455.721,58.5432 454.887,55.8766 453.5,53.5C 450.167,53.5 446.833,53.5 443.5,53.5C 443.077,52.7354 442.743,51.9021 442.5,51C 446.17,44.6462 446.17,38.4796 442.5,32.5C 442.5,31.1667 443.167,30.5 444.5,30.5 Z"/></g>
<g><path style="opacity:1" fill="#c7c7c7" d="M 432.5,29.5 C 436.338,29.0216 439.671,30.0216 442.5,32.5C 446.17,38.4796 446.17,44.6462 442.5,51C 442.743,51.9021 443.077,52.7354 443.5,53.5C 441.972,52.1979 440.972,50.5313 440.5,48.5C 443.418,43.0246 443.085,37.8579 439.5,33C 428.179,33.1296 425.179,38.2962 430.5,48.5C 429.833,49.8333 429.167,51.1667 428.5,52.5C 426.228,45.8869 426.062,39.2203 428,32.5C 429.409,31.2189 430.909,30.2189 432.5,29.5 Z"/></g>
<g><path style="opacity:1" fill="#353535" d="M 440.5,48.5 C 437.167,49.8333 433.833,49.8333 430.5,48.5C 425.179,38.2962 428.179,33.1296 439.5,33C 443.085,37.8579 443.418,43.0246 440.5,48.5 Z"/></g>
<g><path style="opacity:1" fill="#f0f0f0" d="M 432.5,36.5 C 437.993,35.178 440.493,37.178 440,42.5C 437.847,44.4439 435.347,44.9439 432.5,44C 430.112,41.5972 430.112,39.0972 432.5,36.5 Z"/></g>
<g><path style="opacity:1" fill="#758696" d="M 94.5,41.5 C 92.4783,46.2044 90.4783,50.8711 88.5,55.5C 88.7766,49.9762 90.7766,45.3095 94.5,41.5 Z"/></g>
<g><path style="opacity:1" fill="#89472b" d="M 105.5,36.5 C 105.672,37.4916 105.338,38.1583 104.5,38.5C 102.629,38.8588 101.129,39.8588 100,41.5C 97.2409,47.3261 94.4076,52.9928 91.5,58.5C 92.5964,52.3708 94.763,46.7041 98,41.5C 99.8567,38.8002 102.357,37.1335 105.5,36.5 Z"/></g>
<g><path style="opacity:1" fill="#fbfbfb" d="M 430.5,48.5 C 433.833,49.8333 437.167,49.8333 440.5,48.5C 440.972,50.5313 441.972,52.1979 443.5,53.5C 446.833,53.5 450.167,53.5 453.5,53.5C 453.507,56.0379 453.841,58.5379 454.5,61C 454.684,62.3756 455.351,63.2089 456.5,63.5C 456.593,69.5164 456.926,75.5164 457.5,81.5C 457.5,83.1667 457.5,84.8333 457.5,86.5C 443.167,86.5 428.833,86.5 414.5,86.5C 414.5,82.8333 414.5,79.1667 414.5,75.5C 415.972,71.0808 416.638,66.4141 416.5,61.5C 417.473,59.0521 417.806,56.3854 417.5,53.5C 421.269,53.756 424.936,53.4227 428.5,52.5C 429.167,51.1667 429.833,49.8333 430.5,48.5 Z"/></g>
<g><path style="opacity:1" fill="#616161" d="M 448.5,36.5 C 449.793,40.0344 449.793,43.7011 448.5,47.5C 450.291,48.1698 451.958,48.8365 453.5,49.5C 451.167,49.5 448.833,49.5 446.5,49.5C 448.18,45.412 448.847,41.0787 448.5,36.5 Z"/></g>
<g><path style="opacity:1" fill="#4d4d4d" d="M 455.5,49.5 C 457.104,50.287 457.771,51.6203 457.5,53.5C 458.344,57.0991 458.677,60.7657 458.5,64.5C 457.833,64.1667 457.167,63.8333 456.5,63.5C 455.351,63.2089 454.684,62.3756 454.5,61C 453.841,58.5379 453.507,56.0379 453.5,53.5C 454.887,55.8766 455.721,58.5432 456,61.5C 456.694,57.446 456.527,53.446 455.5,49.5 Z"/></g>
<g><path style="opacity:1" fill="#d6d6d6" d="M 457.5,53.5 C 459.315,60.4461 460.315,67.7794 460.5,75.5C 459.883,75.3893 459.383,75.056 459,74.5C 458.502,71.1832 458.335,67.8499 458.5,64.5C 458.677,60.7657 458.344,57.0991 457.5,53.5 Z"/></g>
<g><path style="opacity:1" fill="#db5b1b" d="M 280.5,35.5 C 282.435,36.1495 284.435,36.4828 286.5,36.5C 287.449,46.1141 287.782,55.7807 287.5,65.5C 222.5,65.5 157.5,65.5 92.5,65.5C 91.5318,63.3926 91.1984,61.0593 91.5,58.5C 94.4076,52.9928 97.2409,47.3261 100,41.5C 101.129,39.8588 102.629,38.8588 104.5,38.5C 98.3929,46.1372 94.3929,54.8039 92.5,64.5C 157.167,64.5 221.833,64.5 286.5,64.5C 286.666,56.4931 286.5,48.4931 286,40.5C 284.509,38.4061 282.676,36.7394 280.5,35.5 Z"/></g>
<g><path style="opacity:1" fill="#ba5522" d="M 286.5,36.5 C 287.117,36.6107 287.617,36.944 288,37.5C 288.825,47.3422 288.658,57.0089 287.5,66.5C 222.331,66.8325 157.331,66.4991 92.5,65.5C 157.5,65.5 222.5,65.5 287.5,65.5C 287.782,55.7807 287.449,46.1141 286.5,36.5 Z"/></g>
<g><path style="opacity:1" fill="#71391f" d="M 91.5,58.5 C 91.1984,61.0593 91.5318,63.3926 92.5,65.5C 157.331,66.4991 222.331,66.8325 287.5,66.5C 287.5,67.1667 287.167,67.5 286.5,67.5C 221.167,67.5 155.833,67.5 90.5,67.5C 90.5,64.8333 90.5,62.1667 90.5,59.5C 90.5,58.8333 90.8333,58.5 91.5,58.5 Z"/></g>
<g><path style="opacity:1" fill="#637388" d="M 87.5,60.5 C 86.9751,64.533 85.6418,68.1996 83.5,71.5C 83.6667,67.3266 85,63.6599 87.5,60.5 Z"/></g>
<g><path style="opacity:1" fill="#21252d" d="M 90.5,59.5 C 90.5,62.1667 90.5,64.8333 90.5,67.5C 155.833,67.5 221.167,67.5 286.5,67.5C 276.013,68.4944 265.346,68.8278 254.5,68.5C 199.499,68.6667 144.499,68.5 89.5,68C 88.8922,66.769 88.5589,65.4357 88.5,64C 88.3068,61.9919 88.9735,60.4919 90.5,59.5 Z"/></g>
<g><path style="opacity:1" fill="#e6b595" d="M 292.5,69.5 C 292.833,69.5 293.167,69.5 293.5,69.5C 298.167,70.1667 302.833,70.8333 307.5,71.5C 302.5,71.5 297.5,71.5 292.5,71.5C 292.5,71.1667 292.5,70.8333 292.5,70.5C 292.5,70.1667 292.5,69.8333 292.5,69.5 Z"/></g>
<g><path style="opacity:1" fill="#aaaaaa" d="M 416.5,61.5 C 416.638,66.4141 415.972,71.0808 414.5,75.5C 414.229,70.5662 414.896,65.8996 416.5,61.5 Z"/></g>
<g><path style="opacity:1" fill="#9cd5f8" d="M 319.5,93.5 C 320.79,101.491 322.79,109.325 325.5,117C 325.453,119.256 324.453,120.756 322.5,121.5C 320.926,120.016 319.593,118.349 318.5,116.5C 318.817,112.298 318.483,108.298 317.5,104.5C 316.791,103.596 315.791,103.263 314.5,103.5C 314.782,108.927 314.449,114.26 313.5,119.5C 309.154,119.666 304.821,119.499 300.5,119C 300,118.5 299.5,118 299,117.5C 298.5,104.171 298.333,90.8375 298.5,77.5C 300.628,76.3709 302.961,76.2042 305.5,77C 307.83,79.1672 310.497,80.8338 313.5,82C 313.953,84.6933 315.453,86.5266 318,87.5C 318.191,89.7078 318.691,91.7078 319.5,93.5 Z"/></g>
<g><path style="opacity:1" fill="#eac1a7" d="M 254.5,74.5 C 266.838,74.3335 279.171,74.5001 291.5,75C 292.381,75.7083 293.047,76.5416 293.5,77.5C 293.5,91.8333 293.5,106.167 293.5,120.5C 293.167,120.5 292.833,120.5 292.5,120.5C 293.15,105.794 292.483,91.461 290.5,77.5C 285.04,76.1709 279.207,75.5042 273,75.5C 266.453,75.5387 259.953,75.872 253.5,76.5C 253.833,75.8333 254.167,75.1667 254.5,74.5 Z"/></g>
<g><path style="opacity:1" fill="#e9d3c4" d="M 305.5,74.5 C 309.864,77.1107 314.031,80.1107 318,83.5C 321.553,92.9889 324.386,102.656 326.5,112.5C 323.794,106.299 321.461,99.9659 319.5,93.5C 318.691,91.7078 318.191,89.7078 318,87.5C 315.453,86.5266 313.953,84.6933 313.5,82C 310.497,80.8338 307.83,79.1672 305.5,77C 302.961,76.2042 300.628,76.3709 298.5,77.5C 297.883,77.6107 297.383,77.944 297,78.5C 296.333,92.1667 296.333,105.833 297,119.5C 297.5,120 298,120.5 298.5,121C 303.489,121.499 308.489,121.666 313.5,121.5C 315.06,121.481 316.56,121.148 318,120.5C 319.03,120.836 319.53,121.503 319.5,122.5C 311.833,123.833 304.167,123.833 296.5,122.5C 295.531,107.215 295.198,91.8813 295.5,76.5C 295.611,75.8826 295.944,75.3826 296.5,75C 299.482,74.502 302.482,74.3354 305.5,74.5 Z"/></g>
<g><path style="opacity:1" fill="#b9b9b9" d="M 411.5,74.5 C 411.386,77.85 411.053,81.1833 410.5,84.5C 410.87,86.6673 411.537,88.6673 412.5,90.5C 411.504,90.5858 410.671,90.2524 410,89.5C 409.192,84.2414 409.692,79.2414 411.5,74.5 Z"/></g>
<g><path style="opacity:1" fill="#e1eff4" d="M 290.5,77.5 C 290.167,77.5 289.833,77.5 289.5,77.5C 279.326,76.1768 268.993,76.1768 258.5,77.5C 261.704,78.2036 264.871,78.8702 268,79.5C 274.455,92.0417 279.622,105.042 283.5,118.5C 279.833,118.5 276.167,118.5 272.5,118.5C 271.21,117.942 270.377,116.942 270,115.5C 269.489,113.122 268.822,110.788 268,108.5C 265.957,107.421 264.624,105.754 264,103.5C 262.664,97.2982 260.498,91.6315 257.5,86.5C 256.787,83.7629 256.787,81.0963 257.5,78.5C 256.349,77.269 255.183,77.269 254,78.5C 253.177,92.7415 253.344,106.908 254.5,121C 253.906,121.464 253.239,121.631 252.5,121.5C 252.5,120.833 252.167,120.5 251.5,120.5C 251.5,120.167 251.5,119.833 251.5,119.5C 251.333,105.496 251.5,91.496 252,77.5C 252.383,76.944 252.883,76.6107 253.5,76.5C 259.953,75.872 266.453,75.5387 273,75.5C 279.207,75.5042 285.04,76.1709 290.5,77.5 Z"/></g>
<g><path style="opacity:1" fill="#e38755" d="M 254.5,74.5 C 254.167,75.1667 253.833,75.8333 253.5,76.5C 252.883,76.6107 252.383,76.944 252,77.5C 251.5,91.496 251.333,105.496 251.5,119.5C 250.339,105.339 250.173,91.0059 251,76.5C 251.816,75.1772 252.983,74.5106 254.5,74.5 Z"/></g>
<g><path style="opacity:1" fill="#363636" d="M 430.5,27.5 C 433.187,27.3359 435.854,27.5026 438.5,28C 436.292,28.1909 434.292,28.6909 432.5,29.5C 430.909,30.2189 429.409,31.2189 428,32.5C 426.062,39.2203 426.228,45.8869 428.5,52.5C 424.936,53.4227 421.269,53.756 417.5,53.5C 417.806,56.3854 417.473,59.0521 416.5,61.5C 414.896,65.8996 414.229,70.5662 414.5,75.5C 413.517,79.2984 413.183,83.2984 413.5,87.5C 428.5,87.5 443.5,87.5 458.5,87.5C 458.795,85.2646 458.461,83.2646 457.5,81.5C 456.926,75.5164 456.593,69.5164 456.5,63.5C 457.167,63.8333 457.833,64.1667 458.5,64.5C 458.335,67.8499 458.502,71.1832 459,74.5C 459.383,75.056 459.883,75.3893 460.5,75.5C 460.666,79.8461 460.499,84.1794 460,88.5C 459.5,89 459,89.5 458.5,90C 443.17,90.4999 427.837,90.6666 412.5,90.5C 411.537,88.6673 410.87,86.6673 410.5,84.5C 411.053,81.1833 411.386,77.85 411.5,74.5C 412.235,66.9711 413.068,59.3045 414,51.5C 414.388,50.572 415.055,49.9054 416,49.5C 418.862,48.9717 421.696,48.3051 424.5,47.5C 424.376,46.8933 424.043,46.56 423.5,46.5C 422.931,40.7877 423.931,35.4544 426.5,30.5C 427.795,29.5116 429.128,28.5116 430.5,27.5 Z"/></g>
<g><path style="opacity:1" fill="#acacac" d="M 414.5,75.5 C 414.5,79.1667 414.5,82.8333 414.5,86.5C 428.833,86.5 443.167,86.5 457.5,86.5C 457.5,84.8333 457.5,83.1667 457.5,81.5C 458.461,83.2646 458.795,85.2646 458.5,87.5C 443.5,87.5 428.5,87.5 413.5,87.5C 413.183,83.2984 413.517,79.2984 414.5,75.5 Z"/></g>
<g><path style="opacity:1" fill="#151515" d="M 440.5,64.5 C 439.817,66.1765 438.483,66.8432 436.5,66.5C 435.834,70.0208 435.167,73.6875 434.5,77.5C 433.833,73.6875 433.166,70.0208 432.5,66.5C 432.082,65.7784 431.416,65.2784 430.5,65C 433.817,64.5017 437.15,64.335 440.5,64.5 Z"/></g>
<g><path style="opacity:1" fill="#767676" d="M 432.5,66.5 C 433.166,70.0208 433.833,73.6875 434.5,77.5C 435.167,73.6875 435.834,70.0208 436.5,66.5C 436.5,70.5 436.5,74.5 436.5,78.5C 435.167,78.5 433.833,78.5 432.5,78.5C 432.5,74.5 432.5,70.5 432.5,66.5 Z"/></g>
<g><path style="opacity:1" fill="#585858" d="M 440.5,64.5 C 437.15,64.335 433.817,64.5017 430.5,65C 431.416,65.2784 432.082,65.7784 432.5,66.5C 431.5,66.5 430.5,66.5 429.5,66.5C 429.5,65.5 429.5,64.5 429.5,63.5C 433.371,63.185 437.038,63.5184 440.5,64.5 Z"/></g>
<g><path style="opacity:1" fill="#485e6f" d="M 80.5,82.5 C 80.3386,85.6799 79.3386,88.3465 77.5,90.5C 77.3072,87.1889 78.3072,84.5223 80.5,82.5 Z"/></g>
<g><path style="opacity:1" fill="#623c2f" d="M 253.5,70.5 C 266.5,70.5 279.5,70.5 292.5,70.5C 292.5,70.8333 292.5,71.1667 292.5,71.5C 279.163,71.3334 265.829,71.5001 252.5,72C 251.333,73.1667 250.167,74.3333 249,75.5C 248.5,103.498 248.333,131.498 248.5,159.5C 247.833,159.5 247.167,159.5 246.5,159.5C 246.5,159.167 246.5,158.833 246.5,158.5C 247.498,131.005 247.831,103.338 247.5,75.5C 248.911,73.086 250.911,71.4194 253.5,70.5 Z"/></g>
<g><path style="opacity:1" fill="#c2e1f1" d="M 298.5,77.5 C 298.333,90.8375 298.5,104.171 299,117.5C 299.5,118 300,118.5 300.5,119C 304.821,119.499 309.154,119.666 313.5,119.5C 313.5,120.167 313.5,120.833 313.5,121.5C 308.489,121.666 303.489,121.499 298.5,121C 298,120.5 297.5,120 297,119.5C 296.333,105.833 296.333,92.1667 297,78.5C 297.383,77.944 297.883,77.6107 298.5,77.5 Z"/></g>
<g><path style="opacity:1" fill="#fae4d3" d="M 314.5,74.5 C 320.939,77.7952 324.439,83.1285 325,90.5C 329.271,95.8833 331.105,101.883 330.5,108.5C 331.923,111.275 332.589,114.275 332.5,117.5C 330.344,114.563 328.844,111.229 328,107.5C 326.507,100.038 324.507,92.7048 322,85.5C 320.451,81.1296 317.951,77.4629 314.5,74.5 Z"/></g>
<g><path style="opacity:1" fill="#dd7f4f" d="M 292.5,71.5 C 297.5,71.5 302.5,71.5 307.5,71.5C 309.687,72.758 312.02,73.758 314.5,74.5C 317.951,77.4629 320.451,81.1296 322,85.5C 324.507,92.7048 326.507,100.038 328,107.5C 328.844,111.229 330.344,114.563 332.5,117.5C 332.5,118.833 332.5,120.167 332.5,121.5C 331.849,120.909 331.182,120.243 330.5,119.5C 329.148,120.524 327.815,121.524 326.5,122.5C 327.215,119.24 327.215,115.907 326.5,112.5C 324.386,102.656 321.553,92.9889 318,83.5C 314.031,80.1107 309.864,77.1107 305.5,74.5C 306.756,74.5386 307.756,74.0386 308.5,73C 302.984,72.8267 297.651,72.3267 292.5,71.5 Z"/></g>
<g><path style="opacity:1" fill="#e3e5e3" d="M 319.5,93.5 C 321.461,99.9659 323.794,106.299 326.5,112.5C 327.215,115.907 327.215,119.24 326.5,122.5C 326.5,123.167 326.167,123.5 325.5,123.5C 324.5,123.5 323.5,123.5 322.5,123.5C 322.5,122.833 322.5,122.167 322.5,121.5C 324.453,120.756 325.453,119.256 325.5,117C 322.79,109.325 320.79,101.491 319.5,93.5 Z"/></g>
<g><path style="opacity:1" fill="#e5a17a" d="M 295.5,76.5 C 295.198,91.8813 295.531,107.215 296.5,122.5C 295.5,121.833 294.5,121.167 293.5,120.5C 293.5,106.167 293.5,91.8333 293.5,77.5C 294.167,77.1667 294.833,76.8333 295.5,76.5 Z"/></g>
<g><path style="opacity:1" fill="#435b6f" d="M 77.5,90.5 C 75.9035,96.794 74.4035,103.127 73,109.5C 72.059,111.727 70.8923,113.727 69.5,115.5C 70.7675,106.653 73.4341,98.3196 77.5,90.5 Z"/></g>
<g><path style="opacity:1" fill="#43657f" d="M 317.5,104.5 C 315.564,108.715 314.897,113.381 315.5,118.5C 317.179,118.715 318.179,118.048 318.5,116.5C 319.593,118.349 320.926,120.016 322.5,121.5C 322.5,122.167 322.5,122.833 322.5,123.5C 321.609,122.89 320.609,122.557 319.5,122.5C 319.53,121.503 319.03,120.836 318,120.5C 316.56,121.148 315.06,121.481 313.5,121.5C 313.5,120.833 313.5,120.167 313.5,119.5C 314.449,114.26 314.782,108.927 314.5,103.5C 315.791,103.263 316.791,103.596 317.5,104.5 Z"/></g>
<g><path style="opacity:1" fill="#082a45" d="M 112.5,30.5 C 163.5,30.5 214.5,30.5 265.5,30.5C 214.167,31.1667 162.833,31.8333 111.5,32.5C 109.322,33.6566 107.322,34.9899 105.5,36.5C 102.357,37.1335 99.8567,38.8002 98,41.5C 94.763,46.7041 92.5964,52.3708 91.5,58.5C 90.8333,58.5 90.5,58.8333 90.5,59.5C 88.9735,60.4919 88.3068,61.9919 88.5,64C 88.5589,65.4357 88.8922,66.769 89.5,68C 144.499,68.5 199.499,68.6667 254.5,68.5C 254.167,69.1667 253.833,69.8333 253.5,70.5C 250.911,71.4194 248.911,73.086 247.5,75.5C 247.161,90.0291 246.161,104.362 244.5,118.5C 186.664,118.168 128.998,118.501 71.5,119.5C 69.8235,118.817 69.1568,117.483 69.5,115.5C 70.8923,113.727 72.059,111.727 73,109.5C 74.4035,103.127 75.9035,96.794 77.5,90.5C 79.3386,88.3465 80.3386,85.6799 80.5,82.5C 80.7424,78.521 81.7424,74.8544 83.5,71.5C 85.6418,68.1996 86.9751,64.533 87.5,60.5C 87.2155,58.5853 87.5489,56.9187 88.5,55.5C 90.4783,50.8711 92.4783,46.2044 94.5,41.5C 94.3284,40.5084 94.6618,39.8417 95.5,39.5C 98.2254,38.287 100.559,36.4536 102.5,34C 105.758,32.5335 109.092,31.3668 112.5,30.5 Z"/></g>
<g><path style="opacity:1" fill="#022b4c" d="M 86.5,70.5 C 88.3039,72.4673 90.3039,74.3007 92.5,76C 113.491,75.9566 134.491,75.79 155.5,75.5C 185.019,75.6386 214.352,76.1386 243.5,77C 244.489,89.7536 244.822,102.587 244.5,115.5C 192.981,115.178 141.481,115.511 90,116.5C 88.8926,116.415 87.8926,116.081 87,115.5C 86.2255,111.853 85.5588,108.186 85,104.5C 84.124,108.341 82.7906,112.007 81,115.5C 78.2242,117.14 76.2242,116.473 75,113.5C 74.3333,111.5 74.3333,109.5 75,107.5C 76.4079,103.943 77.4079,100.276 78,96.5C 82.7788,91.1482 84.7788,84.8149 84,77.5C 84.1534,74.8494 84.9867,72.5161 86.5,70.5 Z"/></g>
<g><path style="opacity:1" fill="#04284e" d="M 91.5,69.5 C 142.834,69.3333 194.168,69.5 245.5,70C 245.957,70.414 246.291,70.914 246.5,71.5C 194.838,72.4999 143.171,72.8333 91.5,72.5C 91.5,71.5 91.5,70.5 91.5,69.5 Z"/></g>
<g><path style="opacity:1" fill="#184262" d="M 317.5,104.5 C 318.483,108.298 318.817,112.298 318.5,116.5C 318.179,118.048 317.179,118.715 315.5,118.5C 314.897,113.381 315.564,108.715 317.5,104.5 Z"/></g>
<g><path style="opacity:1" fill="#3e4637" d="M 71.5,119.5 C 128.998,118.501 186.664,118.168 244.5,118.5C 244.5,119.167 244.5,119.833 244.5,120.5C 244.167,120.5 243.833,120.5 243.5,120.5C 186.336,119.501 129.002,119.168 71.5,119.5 Z"/></g>
<g><path style="opacity:1" fill="#cae2ee" d="M 289.5,77.5 C 284.833,77.5 280.167,77.5 275.5,77.5C 275.687,79.5643 276.187,81.5643 277,83.5C 279.549,89.7019 282.549,95.7019 286,101.5C 286.333,103.833 286.667,106.167 287,108.5C 287.368,109.91 288.201,110.91 289.5,111.5C 290.499,100.186 290.832,88.8529 290.5,77.5C 292.483,91.461 293.15,105.794 292.5,120.5C 291.094,120.973 290.427,121.973 290.5,123.5C 290.167,123.5 289.833,123.5 289.5,123.5C 277.117,123.794 264.783,123.46 252.5,122.5C 252.5,122.167 252.5,121.833 252.5,121.5C 253.239,121.631 253.906,121.464 254.5,121C 253.344,106.908 253.177,92.7415 254,78.5C 255.183,77.269 256.349,77.269 257.5,78.5C 256.787,81.0963 256.787,83.7629 257.5,86.5C 256.842,85.6016 256.176,84.6016 255.5,83.5C 254.334,95.4861 254.167,107.486 255,119.5C 257.914,120.145 260.914,120.478 264,120.5C 267.252,120.481 270.085,119.814 272.5,118.5C 276.167,118.5 279.833,118.5 283.5,118.5C 279.622,105.042 274.455,92.0417 268,79.5C 264.871,78.8702 261.704,78.2036 258.5,77.5C 268.993,76.1768 279.326,76.1768 289.5,77.5 Z"/></g>
<g><path style="opacity:1" fill="#a0d7f9" d="M 257.5,86.5 C 260.498,91.6315 262.664,97.2982 264,103.5C 264.624,105.754 265.957,107.421 268,108.5C 268.822,110.788 269.489,113.122 270,115.5C 270.377,116.942 271.21,117.942 272.5,118.5C 270.085,119.814 267.252,120.481 264,120.5C 260.914,120.478 257.914,120.145 255,119.5C 254.167,107.486 254.334,95.4861 255.5,83.5C 256.176,84.6016 256.842,85.6016 257.5,86.5 Z"/></g>
<g><path style="opacity:1" fill="#9ed6f9" d="M 289.5,77.5 C 289.833,77.5 290.167,77.5 290.5,77.5C 290.832,88.8529 290.499,100.186 289.5,111.5C 288.201,110.91 287.368,109.91 287,108.5C 286.667,106.167 286.333,103.833 286,101.5C 282.549,95.7019 279.549,89.7019 277,83.5C 276.187,81.5643 275.687,79.5643 275.5,77.5C 280.167,77.5 284.833,77.5 289.5,77.5 Z"/></g>
<g><path style="opacity:1" fill="#8f7d4d" d="M 71.5,119.5 C 129.002,119.168 186.336,119.501 243.5,120.5C 186.331,120.168 129.331,120.501 72.5,121.5C 71.5655,122.568 71.2322,123.901 71.5,125.5C 128.833,125.5 186.167,125.5 243.5,125.5C 186.002,126.499 128.336,126.832 70.5,126.5C 70.298,124.05 70.6314,121.717 71.5,119.5 Z"/></g>
<g><path style="opacity:1" fill="#c8a050" d="M 72.5,121.5 C 129.331,120.501 186.331,120.168 243.5,120.5C 243.833,120.5 244.167,120.5 244.5,120.5C 244.5,122.167 244.5,123.833 244.5,125.5C 244.167,125.5 243.833,125.5 243.5,125.5C 243.737,124.209 243.404,123.209 242.5,122.5C 186.002,121.501 129.336,121.168 72.5,121.5 Z"/></g>
<g><path style="opacity:1" fill="#515151" d="M 412.5,123.5 C 411.081,122.549 409.415,122.216 407.5,122.5C 407.157,120.775 406.157,120.275 404.5,121C 404.822,128.162 405.822,134.995 407.5,141.5C 406.791,142.404 405.791,142.737 404.5,142.5C 404.5,135.833 404.5,129.167 404.5,122.5C 402.585,122.216 400.919,122.549 399.5,123.5C 398.817,125.176 397.483,125.843 395.5,125.5C 394.965,122.762 395.965,120.928 398.5,120C 404.204,119.313 409.87,119.479 415.5,120.5C 415.5,121.5 415.5,122.5 415.5,123.5C 414.5,123.5 413.5,123.5 412.5,123.5 Z"/></g>
<g><path style="opacity:1" fill="#e8b047" d="M 72.5,121.5 C 129.336,121.168 186.002,121.501 242.5,122.5C 242.672,123.492 242.338,124.158 241.5,124.5C 213.841,123.167 185.841,122.5 157.5,122.5C 129.159,122.5 101.159,123.167 73.5,124.5C 72.596,123.791 72.2627,122.791 72.5,121.5 Z"/></g>
<g><path style="opacity:1" fill="#f6cfaf" d="M 332.5,121.5 C 334.522,122.507 335.855,124.174 336.5,126.5C 336.833,127.167 337.167,127.833 337.5,128.5C 334.142,127.473 332.475,125.14 332.5,121.5 Z"/></g>
<g><path style="opacity:1" fill="#494949" d="M 489.5,123.5 C 488.081,122.549 486.415,122.216 484.5,122.5C 483.5,119.833 482.5,119.833 481.5,122.5C 479.833,122.5 478.167,122.5 476.5,122.5C 476.5,123.5 476.5,124.5 476.5,125.5C 475.167,125.5 473.833,125.5 472.5,125.5C 472.383,123.516 473.05,121.85 474.5,120.5C 480.834,119.345 487.168,119.345 493.5,120.5C 493.5,121.5 493.5,122.5 493.5,123.5C 492.167,123.5 490.833,123.5 489.5,123.5 Z"/></g>
<g><path style="opacity:1" fill="#365267" d="M 252.5,123.5 C 252.5,123.167 252.5,122.833 252.5,122.5C 264.783,123.46 277.117,123.794 289.5,123.5C 288.5,124.167 287.5,124.833 286.5,125.5C 284.473,125.338 282.473,125.505 280.5,126C 279.748,126.671 279.414,127.504 279.5,128.5C 278.209,127.458 278.209,126.292 279.5,125C 270.423,124.806 261.423,124.306 252.5,123.5 Z"/></g>
<g><path style="opacity:1" fill="#ce6a36" d="M 293.5,120.5 C 294.5,121.167 295.5,121.833 296.5,122.5C 304.167,123.833 311.833,123.833 319.5,122.5C 320.609,122.557 321.609,122.89 322.5,123.5C 323.5,123.5 324.5,123.5 325.5,123.5C 325.209,124.649 324.376,125.316 323,125.5C 313.53,124.565 304.03,124.232 294.5,124.5C 294.817,128.702 294.483,132.702 293.5,136.5C 293.5,131.167 293.5,125.833 293.5,120.5 Z"/></g>
<g><path style="opacity:1" fill="#b1b1b1" d="M 399.5,123.5 C 400.919,122.549 402.585,122.216 404.5,122.5C 404.5,129.167 404.5,135.833 404.5,142.5C 403.51,136.355 403.177,130.022 403.5,123.5C 402.167,123.5 400.833,123.5 399.5,123.5 Z"/></g>
<g><path style="opacity:1" fill="#5b5b5b" d="M 481.5,122.5 C 482.328,128.653 482.828,134.987 483,141.5C 483.21,139.942 483.71,138.609 484.5,137.5C 484.5,138.833 484.5,140.167 484.5,141.5C 483.791,142.404 482.791,142.737 481.5,142.5C 481.5,135.833 481.5,129.167 481.5,122.5 Z"/></g>
<g><path style="opacity:1" fill="#d5ae51" d="M 72.5,121.5 C 72.2627,122.791 72.596,123.791 73.5,124.5C 129.5,124.5 185.5,124.5 241.5,124.5C 242.338,124.158 242.672,123.492 242.5,122.5C 243.404,123.209 243.737,124.209 243.5,125.5C 186.167,125.5 128.833,125.5 71.5,125.5C 71.2322,123.901 71.5655,122.568 72.5,121.5 Z"/></g>
<g><path style="opacity:1" fill="#f0b43b" d="M 241.5,124.5 C 185.5,124.5 129.5,124.5 73.5,124.5C 101.159,123.167 129.159,122.5 157.5,122.5C 185.841,122.5 213.841,123.167 241.5,124.5 Z"/></g>
<g><path style="opacity:1" fill="#1a1a1a" d="M 407.5,122.5 C 407.5,128.833 407.5,135.167 407.5,141.5C 405.822,134.995 404.822,128.162 404.5,121C 406.157,120.275 407.157,120.775 407.5,122.5 Z"/></g>
<g><path style="opacity:1" fill="#949494" d="M 407.5,122.5 C 409.415,122.216 411.081,122.549 412.5,123.5C 411.167,123.5 409.833,123.5 408.5,123.5C 408.823,129.69 408.49,135.69 407.5,141.5C 407.5,135.167 407.5,128.833 407.5,122.5 Z"/></g>
<g><path style="opacity:1" fill="#252525" d="M 484.5,122.5 C 484.5,127.5 484.5,132.5 484.5,137.5C 483.71,138.609 483.21,139.942 483,141.5C 482.828,134.987 482.328,128.653 481.5,122.5C 482.5,119.833 483.5,119.833 484.5,122.5 Z"/></g>
<g><path style="opacity:1" fill="#9d9d9d" d="M 484.5,122.5 C 486.415,122.216 488.081,122.549 489.5,123.5C 488.167,123.5 486.833,123.5 485.5,123.5C 485.823,129.69 485.49,135.69 484.5,141.5C 484.5,140.167 484.5,138.833 484.5,137.5C 484.5,132.5 484.5,127.5 484.5,122.5 Z"/></g>
<g><path style="opacity:1" fill="#9d9d9d" d="M 385.5,122.5 C 387.814,123.179 388.147,124.512 386.5,126.5C 388.508,130.229 389.008,134.229 388,138.5C 384.89,140.592 381.723,140.925 378.5,139.5C 386.563,140.604 389.397,137.27 387,129.5C 385.333,127.372 383.166,126.039 380.5,125.5C 382.423,124.692 384.423,124.192 386.5,124C 385.944,123.617 385.611,123.117 385.5,122.5 Z"/></g>
<g><path style="opacity:1" fill="#52513f" d="M 243.5,125.5 C 243.833,125.5 244.167,125.5 244.5,125.5C 244.5,126.167 244.5,126.833 244.5,127.5C 186.833,127.5 129.167,127.5 71.5,127.5C 70.8333,127.5 70.5,127.167 70.5,126.5C 128.336,126.832 186.002,126.499 243.5,125.5 Z"/></g>
<g><path style="opacity:1" fill="#a2a2a2" d="M 385.5,122.5 C 379.666,121.337 377,123.671 377.5,129.5C 379.735,129.205 381.735,129.539 383.5,130.5C 381.167,130.5 378.833,130.5 376.5,130.5C 375.321,122.666 378.321,120 385.5,122.5 Z"/></g>
<g><path style="opacity:1" fill="#252f35" d="M 71.5,127.5 C 129.167,127.5 186.833,127.5 244.5,127.5C 241.054,128.687 237.387,129.354 233.5,129.5C 179.5,128.833 125.5,128.167 71.5,127.5 Z"/></g>
<g><path style="opacity:1" fill="#373737" d="M 385.5,122.5 C 385.611,123.117 385.944,123.617 386.5,124C 384.423,124.192 382.423,124.692 380.5,125.5C 383.166,126.039 385.333,127.372 387,129.5C 389.397,137.27 386.563,140.604 378.5,139.5C 376.524,138.573 376.191,137.24 377.5,135.5C 383.787,138.877 385.787,137.211 383.5,130.5C 381.735,129.539 379.735,129.205 377.5,129.5C 377,123.671 379.666,121.337 385.5,122.5 Z"/></g>
<g><path style="opacity:1" fill="#cacaca" d="M 439.5,124.5 C 440.552,126.256 442.219,126.923 444.5,126.5C 444.384,129.86 444.051,133.193 443.5,136.5C 442.167,136.5 440.833,136.5 439.5,136.5C 440.209,135.596 441.209,135.263 442.5,135.5C 442.5,133.167 442.5,130.833 442.5,128.5C 441.167,128.5 439.833,128.5 438.5,128.5C 438.232,126.901 438.566,125.568 439.5,124.5 Z"/></g>
<g><path style="opacity:1" fill="#202a39" d="M 69.5,115.5 C 69.1568,117.483 69.8235,118.817 71.5,119.5C 70.6314,121.717 70.298,124.05 70.5,126.5C 70.5,127.167 70.8333,127.5 71.5,127.5C 125.5,128.167 179.5,128.833 233.5,129.5C 178.997,129.168 124.664,129.501 70.5,130.5C 69.5098,136.645 69.1765,142.978 69.5,149.5C 68.1667,149.5 66.8333,149.5 65.5,149.5C 65.5,149.167 65.5,148.833 65.5,148.5C 66.4047,138.667 67.0714,128.667 67.5,118.5C 68.1667,117.5 68.8333,116.5 69.5,115.5 Z"/></g>
<g><path style="opacity:1" fill="#062a4a" d="M 252.5,123.5 C 261.423,124.306 270.423,124.806 279.5,125C 278.209,126.292 278.209,127.458 279.5,128.5C 279.5,129.167 279.833,129.5 280.5,129.5C 280.962,130.88 281.962,131.547 283.5,131.5C 288.303,129.631 290.636,131.298 290.5,136.5C 288.517,136.157 287.183,136.824 286.5,138.5C 284.139,138.674 281.806,139.007 279.5,139.5C 279.978,142.278 278.978,144.278 276.5,145.5C 275.571,146.689 275.238,148.022 275.5,149.5C 275.5,150.833 275.5,152.167 275.5,153.5C 268.74,155.38 261.74,156.047 254.5,155.5C 254.167,154.833 253.833,154.167 253.5,153.5C 252.55,143.552 252.216,133.552 252.5,123.5 Z"/></g>
<g><path style="opacity:1" fill="#75868f" d="M 286.5,125.5 C 288.652,126.077 288.985,127.244 287.5,129C 285.19,129.497 282.857,129.663 280.5,129.5C 279.833,129.5 279.5,129.167 279.5,128.5C 279.414,127.504 279.748,126.671 280.5,126C 282.473,125.505 284.473,125.338 286.5,125.5 Z"/></g>
<g><path style="opacity:1" fill="#b1b1b1" d="M 429.5,131.5 C 427.712,132.622 425.712,132.789 423.5,132C 422.549,131.282 422.383,130.449 423,129.5C 425.719,128.556 428.552,128.223 431.5,128.5C 431.715,130.179 431.048,131.179 429.5,131.5 Z"/></g>
<g><path style="opacity:1" fill="#2c262f" d="M 247.5,75.5 C 247.831,103.338 247.498,131.005 246.5,158.5C 246.666,152.158 246.5,145.825 246,139.5C 245.827,145.016 245.327,150.349 244.5,155.5C 244.5,147.167 244.5,138.833 244.5,130.5C 186.5,130.5 128.5,130.5 70.5,130.5C 124.664,129.501 178.997,129.168 233.5,129.5C 237.387,129.354 241.054,128.687 244.5,127.5C 244.5,126.833 244.5,126.167 244.5,125.5C 244.5,123.833 244.5,122.167 244.5,120.5C 244.5,119.833 244.5,119.167 244.5,118.5C 246.161,104.362 247.161,90.0291 247.5,75.5 Z"/></g>
<g><path style="opacity:1" fill="#1c2d3e" d="M 289.5,123.5 C 289.833,123.5 290.167,123.5 290.5,123.5C 292.43,127.373 293.097,131.706 292.5,136.5C 291.833,136.833 291.167,137.167 290.5,137.5C 289.167,137.833 287.833,138.167 286.5,138.5C 287.183,136.824 288.517,136.157 290.5,136.5C 290.636,131.298 288.303,129.631 283.5,131.5C 281.962,131.547 280.962,130.88 280.5,129.5C 282.857,129.663 285.19,129.497 287.5,129C 288.985,127.244 288.652,126.077 286.5,125.5C 287.5,124.833 288.5,124.167 289.5,123.5 Z"/></g>
<g><path style="opacity:1" fill="#bababa" d="M 443.5,123.5 C 444.919,122.549 446.585,122.216 448.5,122.5C 448.334,126.514 448.501,130.514 449,134.5C 449.333,132.5 449.667,130.5 450,128.5C 450.383,127.944 450.883,127.611 451.5,127.5C 451.5,130.5 451.5,133.5 451.5,136.5C 450.611,139.948 448.277,141.281 444.5,140.5C 442.36,140.444 440.694,139.777 439.5,138.5C 442.898,138.82 446.232,138.487 449.5,137.5C 448.675,136.614 447.675,136.281 446.5,136.5C 446.927,132.176 447.261,127.842 447.5,123.5C 446.167,123.5 444.833,123.5 443.5,123.5 Z"/></g>
<g><path style="opacity:1" fill="#844123" d="M 70.5,130.5 C 128.5,130.5 186.5,130.5 244.5,130.5C 244.5,138.833 244.5,147.167 244.5,155.5C 241.167,155.5 237.833,155.5 234.5,155.5C 209.5,155.5 184.5,155.5 159.5,155.5C 159.771,153.62 159.104,152.287 157.5,151.5C 157.5,150.833 157.5,150.167 157.5,149.5C 159.339,150.508 160.672,152.008 161.5,154C 188.831,154.5 216.165,154.667 243.5,154.5C 243.5,146.833 243.5,139.167 243.5,131.5C 185.833,131.5 128.167,131.5 70.5,131.5C 70.5,137.5 70.5,143.5 70.5,149.5C 70.1667,149.5 69.8333,149.5 69.5,149.5C 69.1765,142.978 69.5098,136.645 70.5,130.5 Z"/></g>
<g><path style="opacity:1" fill="#424242" d="M 429.5,131.5 C 427.712,131.785 426.045,131.452 424.5,130.5C 425.333,130.167 426.167,129.833 427,129.5C 428.376,129.684 429.209,130.351 429.5,131.5 Z"/></g>
<g><path style="opacity:1" fill="#c7581f" d="M 157.5,149.5 C 157.5,148.833 157.5,148.167 157.5,147.5C 159.619,148.791 161.285,150.625 162.5,153C 189.165,153.5 215.831,153.667 242.5,153.5C 242.5,151.5 242.5,149.5 242.5,147.5C 242.5,142.5 242.5,137.5 242.5,132.5C 185.5,132.5 128.5,132.5 71.5,132.5C 71.5,137.833 71.5,143.167 71.5,148.5C 71.5,148.833 71.5,149.167 71.5,149.5C 71.1667,149.5 70.8333,149.5 70.5,149.5C 70.5,143.5 70.5,137.5 70.5,131.5C 128.167,131.5 185.833,131.5 243.5,131.5C 243.5,139.167 243.5,146.833 243.5,154.5C 216.165,154.667 188.831,154.5 161.5,154C 160.672,152.008 159.339,150.508 157.5,149.5 Z"/></g>
<g><path style="opacity:1" fill="#dd5c13" d="M 242.5,147.5 C 241.514,143.03 241.181,138.363 241.5,133.5C 237.833,133.5 234.167,133.5 230.5,133.5C 177.833,133.5 125.167,133.5 72.5,133.5C 72.8205,138.695 72.4872,143.695 71.5,148.5C 71.5,143.167 71.5,137.833 71.5,132.5C 128.5,132.5 185.5,132.5 242.5,132.5C 242.5,137.5 242.5,142.5 242.5,147.5 Z"/></g>
<g><path style="opacity:1" fill="#7c4530" d="M 292.5,120.5 C 292.833,120.5 293.167,120.5 293.5,120.5C 293.5,125.833 293.5,131.167 293.5,136.5C 293.167,136.5 292.833,136.5 292.5,136.5C 293.097,131.706 292.43,127.373 290.5,123.5C 290.427,121.973 291.094,120.973 292.5,120.5 Z"/></g>
<g><path style="opacity:1" fill="#e85d0d" d="M 230.5,133.5 C 178.336,134.499 126.003,134.832 73.5,134.5C 73.5,138.833 73.5,143.167 73.5,147.5C 77.6224,147.697 81.6224,148.53 85.5,150C 86.1667,151 86.8333,152 87.5,153C 99.8288,153.5 112.162,153.667 124.5,153.5C 111.677,154.495 98.6774,154.829 85.5,154.5C 84.5168,152.709 83.1835,151.209 81.5,150C 78.1832,149.502 74.8499,149.335 71.5,149.5C 71.5,149.167 71.5,148.833 71.5,148.5C 72.4872,143.695 72.8205,138.695 72.5,133.5C 125.167,133.5 177.833,133.5 230.5,133.5 Z"/></g>
<g><path style="opacity:1" fill="#282828" d="M 443.5,123.5 C 444.833,123.5 446.167,123.5 447.5,123.5C 447.261,127.842 446.927,132.176 446.5,136.5C 447.675,136.281 448.675,136.614 449.5,137.5C 446.232,138.487 442.898,138.82 439.5,138.5C 439.5,137.833 439.5,137.167 439.5,136.5C 440.833,136.5 442.167,136.5 443.5,136.5C 444.051,133.193 444.384,129.86 444.5,126.5C 442.219,126.923 440.552,126.256 439.5,124.5C 440.833,124.167 442.167,123.833 443.5,123.5 Z"/></g>
<g><path style="opacity:1" fill="#343434" d="M 463.5,137.5 C 460.236,138.324 456.902,138.658 453.5,138.5C 453.167,137.5 452.5,136.833 451.5,136.5C 451.5,133.5 451.5,130.5 451.5,127.5C 452.024,124.812 453.691,123.312 456.5,123C 462.631,121.763 465.631,124.263 465.5,130.5C 465.559,133.109 464.892,135.443 463.5,137.5 Z"/></g>
<g><path style="opacity:1" fill="#b7b7b7" d="M 460.5,133.5 C 461.575,129.062 459.908,127.062 455.5,127.5C 455.337,129.857 455.503,132.19 456,134.5C 457.011,135.337 458.178,135.67 459.5,135.5C 458.081,136.451 456.415,136.784 454.5,136.5C 454.277,134.658 453.943,132.825 453.5,131C 454.655,125.509 457.488,124.343 462,127.5C 462.167,128.5 462.333,129.5 462.5,130.5C 462.36,132.03 461.693,133.03 460.5,133.5 Z"/></g>
<g><path style="opacity:1" fill="#fafafa" d="M 460.5,133.5 C 460.672,134.492 460.338,135.158 459.5,135.5C 458.178,135.67 457.011,135.337 456,134.5C 455.503,132.19 455.337,129.857 455.5,127.5C 459.908,127.062 461.575,129.062 460.5,133.5 Z"/></g>
<g><path style="opacity:1" fill="#f45909" d="M 332.5,121.5 C 332.475,125.14 334.142,127.473 337.5,128.5C 338.331,135.131 338.664,141.798 338.5,148.5C 334.353,149.325 330.019,149.825 325.5,150C 322.963,152.195 321.963,155.028 322.5,158.5C 319.833,158.5 317.167,158.5 314.5,158.5C 314.269,154.707 312.935,151.374 310.5,148.5C 309.026,143.627 305.692,141.293 300.5,141.5C 297.642,140.834 294.642,140.167 291.5,139.5C 292.193,138.482 292.859,137.482 293.5,136.5C 294.483,132.702 294.817,128.702 294.5,124.5C 304.03,124.232 313.53,124.565 323,125.5C 324.376,125.316 325.209,124.649 325.5,123.5C 326.167,123.5 326.5,123.167 326.5,122.5C 327.815,121.524 329.148,120.524 330.5,119.5C 331.182,120.243 331.849,120.909 332.5,121.5 Z"/></g>
<g><path style="opacity:1" fill="#647c8b" d="M 67.5,118.5 C 67.0714,128.667 66.4047,138.667 65.5,148.5C 65.3335,139.161 65.5002,129.827 66,120.5C 66.2784,119.584 66.7784,118.918 67.5,118.5 Z"/></g>
<g><path style="opacity:1" fill="#f65806" d="M 230.5,133.5 C 234.167,133.5 237.833,133.5 241.5,133.5C 241.181,138.363 241.514,143.03 242.5,147.5C 242.5,149.5 242.5,151.5 242.5,153.5C 215.831,153.667 189.165,153.5 162.5,153C 161.285,150.625 159.619,148.791 157.5,147.5C 156.44,144.231 154.107,142.565 150.5,142.5C 150.167,142.5 149.833,142.5 149.5,142.5C 145.064,140.038 140.397,139.872 135.5,142C 134.944,142.383 134.611,142.883 134.5,143.5C 131.67,143.694 129.004,144.361 126.5,145.5C 126.425,148.206 126.092,150.873 125.5,153.5C 125.167,153.5 124.833,153.5 124.5,153.5C 112.162,153.667 99.8288,153.5 87.5,153C 86.8333,152 86.1667,151 85.5,150C 81.6224,148.53 77.6224,147.697 73.5,147.5C 73.5,143.167 73.5,138.833 73.5,134.5C 126.003,134.832 178.336,134.499 230.5,133.5 Z"/></g>
<g><path style="opacity:1" fill="#703e2b" d="M 290.5,137.5 C 288.187,139.521 285.521,141.187 282.5,142.5C 282.369,141.761 282.536,141.094 283,140.5C 284.302,139.915 285.469,139.249 286.5,138.5C 287.833,138.167 289.167,137.833 290.5,137.5 Z"/></g>
<g><path style="opacity:1" fill="#b4b4b4" d="M 463.5,137.5 C 462.575,139.884 460.742,140.884 458,140.5C 455.992,140.693 454.492,140.026 453.5,138.5C 456.902,138.658 460.236,138.324 463.5,137.5 Z"/></g>
<g><path style="opacity:1" fill="#4d3428" d="M 251.5,120.5 C 252.167,120.5 252.5,120.833 252.5,121.5C 252.5,121.833 252.5,122.167 252.5,122.5C 252.5,122.833 252.5,123.167 252.5,123.5C 252.216,133.552 252.55,143.552 253.5,153.5C 251.523,142.884 250.856,131.884 251.5,120.5 Z"/></g>
<g><path style="opacity:1" fill="#282b37" d="M 286.5,138.5 C 285.469,139.249 284.302,139.915 283,140.5C 282.536,141.094 282.369,141.761 282.5,142.5C 279.854,144.479 277.521,146.812 275.5,149.5C 275.238,148.022 275.571,146.689 276.5,145.5C 278.978,144.278 279.978,142.278 279.5,139.5C 281.806,139.007 284.139,138.674 286.5,138.5 Z"/></g>
<g><path style="opacity:1" fill="#896d44" d="M 339.5,132.5 C 340.167,132.833 340.833,133.167 341.5,133.5C 341.5,137.167 341.5,140.833 341.5,144.5C 341.737,145.791 341.404,146.791 340.5,147.5C 340.167,147.5 339.833,147.5 339.5,147.5C 339.5,142.5 339.5,137.5 339.5,132.5 Z"/></g>
<g><path style="opacity:1" fill="#dfc280" d="M 341.5,133.5 C 342.997,135.29 343.664,137.456 343.5,140C 343.431,141.986 342.765,143.486 341.5,144.5C 341.5,140.833 341.5,137.167 341.5,133.5 Z"/></g>
<g><path style="opacity:1" fill="#824020" d="M 149.5,142.5 C 144.438,142.274 139.438,142.608 134.5,143.5C 134.611,142.883 134.944,142.383 135.5,142C 140.397,139.872 145.064,140.038 149.5,142.5 Z"/></g>
<g><path style="opacity:1" fill="#b55623" d="M 337.5,128.5 C 338.674,129.514 339.34,130.847 339.5,132.5C 339.5,137.5 339.5,142.5 339.5,147.5C 339.5,147.833 339.5,148.167 339.5,148.5C 339.167,148.5 338.833,148.5 338.5,148.5C 338.664,141.798 338.331,135.131 337.5,128.5 Z"/></g>
<g><path style="opacity:1" fill="#b2511a" d="M 150.5,142.5 C 154.107,142.565 156.44,144.231 157.5,147.5C 154.63,146.567 152.296,144.9 150.5,142.5 Z"/></g>
<g><path style="opacity:1" fill="#231f1c" d="M 157.5,151.5 C 159.104,152.287 159.771,153.62 159.5,155.5C 159.5,156.5 159.5,157.5 159.5,158.5C 159.5,160.833 159.5,163.167 159.5,165.5C 158.002,169.675 155.335,173.009 151.5,175.5C 145.868,177.913 140.202,177.913 134.5,175.5C 133.504,175.586 132.671,175.252 132,174.5C 130.579,171.991 128.912,169.657 127,167.5C 126.51,166.207 126.343,164.873 126.5,163.5C 126.5,162.167 126.5,160.833 126.5,159.5C 126.5,158.167 126.5,156.833 126.5,155.5C 127.794,152.646 129.461,149.979 131.5,147.5C 134.55,148.077 136.55,146.91 137.5,144C 143.223,144.792 148.889,146.125 154.5,148C 155.636,149.145 156.636,150.312 157.5,151.5 Z"/></g>
<g><path style="opacity:1" fill="#39281d" d="M 149.5,142.5 C 149.833,142.5 150.167,142.5 150.5,142.5C 152.296,144.9 154.63,146.567 157.5,147.5C 157.5,148.167 157.5,148.833 157.5,149.5C 157.5,150.167 157.5,150.833 157.5,151.5C 156.636,150.312 155.636,149.145 154.5,148C 148.889,146.125 143.223,144.792 137.5,144C 136.55,146.91 134.55,148.077 131.5,147.5C 132.5,146.167 133.5,144.833 134.5,143.5C 139.438,142.608 144.438,142.274 149.5,142.5 Z"/></g>
<g><path style="opacity:1" fill="#b5531d" d="M 134.5,143.5 C 133.5,144.833 132.5,146.167 131.5,147.5C 128.438,148.268 126.772,150.268 126.5,153.5C 126.167,153.5 125.833,153.5 125.5,153.5C 126.092,150.873 126.425,148.206 126.5,145.5C 129.004,144.361 131.67,143.694 134.5,143.5 Z"/></g>
<g><path style="opacity:1" fill="#87411d" d="M 300.5,141.5 C 305.692,141.293 309.026,143.627 310.5,148.5C 308.5,146.833 306.5,145.167 304.5,143.5C 294.924,140.807 286.924,143.141 280.5,150.5C 281.882,147.606 283.882,145.106 286.5,143C 291.102,141.878 295.768,141.378 300.5,141.5 Z"/></g>
<g><path style="opacity:1" fill="#422c1f" d="M 304.5,143.5 C 304.5,144.167 304.5,144.833 304.5,145.5C 295.606,142.644 288.106,144.644 282,151.5C 280.921,154.063 280.421,156.729 280.5,159.5C 280.167,159.5 279.833,159.5 279.5,159.5C 279.167,159.5 278.833,159.5 278.5,159.5C 278.584,156.673 279.25,154.006 280.5,151.5C 280.5,151.167 280.5,150.833 280.5,150.5C 286.924,143.141 294.924,140.807 304.5,143.5 Z"/></g>
<g><path style="opacity:1" fill="#211c19" d="M 304.5,145.5 C 310.127,148.463 312.793,153.13 312.5,159.5C 312.579,162.271 312.079,164.937 311,167.5C 309.708,168.791 308.542,168.791 307.5,167.5C 309.833,152.999 303.833,147.166 289.5,150C 287.21,151.777 285.543,153.944 284.5,156.5C 283.474,157.853 282.141,158.853 280.5,159.5C 280.421,156.729 280.921,154.063 282,151.5C 288.106,144.644 295.606,142.644 304.5,145.5 Z"/></g>
<g><path style="opacity:1" fill="#c06333" d="M 292.5,71.5 C 297.651,72.3267 302.984,72.8267 308.5,73C 307.756,74.0386 306.756,74.5386 305.5,74.5C 302.482,74.3354 299.482,74.502 296.5,75C 295.944,75.3826 295.611,75.8826 295.5,76.5C 294.833,76.8333 294.167,77.1667 293.5,77.5C 293.047,76.5416 292.381,75.7083 291.5,75C 279.171,74.5001 266.838,74.3335 254.5,74.5C 252.983,74.5106 251.816,75.1772 251,76.5C 250.173,91.0059 250.339,105.339 251.5,119.5C 251.5,119.833 251.5,120.167 251.5,120.5C 250.856,131.884 251.523,142.884 253.5,153.5C 253.833,154.167 254.167,154.833 254.5,155.5C 260.653,156.653 266.986,156.82 273.5,156C 274.381,155.292 275.047,154.458 275.5,153.5C 275.5,152.167 275.5,150.833 275.5,149.5C 277.521,146.812 279.854,144.479 282.5,142.5C 279.097,146.639 276.764,151.305 275.5,156.5C 275.833,156.833 276.167,157.167 276.5,157.5C 277.318,155.892 277.985,154.225 278.5,152.5C 278.957,151.702 279.624,151.369 280.5,151.5C 279.25,154.006 278.584,156.673 278.5,159.5C 268.5,159.5 258.5,159.5 248.5,159.5C 248.333,131.498 248.5,103.498 249,75.5C 250.167,74.3333 251.333,73.1667 252.5,72C 265.829,71.5001 279.163,71.3334 292.5,71.5 Z"/></g>
<g><path style="opacity:1" fill="#c95923" d="M 292.5,136.5 C 292.833,136.5 293.167,136.5 293.5,136.5C 292.859,137.482 292.193,138.482 291.5,139.5C 294.642,140.167 297.642,140.834 300.5,141.5C 295.768,141.378 291.102,141.878 286.5,143C 283.882,145.106 281.882,147.606 280.5,150.5C 280.5,150.833 280.5,151.167 280.5,151.5C 279.624,151.369 278.957,151.702 278.5,152.5C 277.985,154.225 277.318,155.892 276.5,157.5C 276.167,157.167 275.833,156.833 275.5,156.5C 276.764,151.305 279.097,146.639 282.5,142.5C 285.521,141.187 288.187,139.521 290.5,137.5C 291.167,137.167 291.833,136.833 292.5,136.5 Z"/></g>
<g><path style="opacity:1" fill="#f4b03b" d="M 69.5,149.5 C 69.8333,149.5 70.1667,149.5 70.5,149.5C 70.8333,149.5 71.1667,149.5 71.5,149.5C 74.8499,149.335 78.1832,149.502 81.5,150C 83.1835,151.209 84.5168,152.709 85.5,154.5C 84.8333,154.5 84.5,154.833 84.5,155.5C 83.5655,156.568 83.2322,157.901 83.5,159.5C 78.4889,159.666 73.4889,159.499 68.5,159C 64.5203,157.586 62.8536,154.753 63.5,150.5C 65.7354,150.795 67.7354,150.461 69.5,149.5 Z"/></g>
<g><path style="opacity:1" fill="#b8b7b7" d="M 151.5,152.5 C 151.685,154.196 152.519,155.529 154,156.5C 154.498,159.482 154.665,162.482 154.5,165.5C 150.352,172.846 144.352,175.013 136.5,172C 131.848,167.464 130.348,161.964 132,155.5C 136.235,148.977 142.069,147.144 149.5,150C 150.381,150.708 151.047,151.542 151.5,152.5 Z"/></g>
<g><path style="opacity:1" fill="#f6ae3a" d="M 338.5,148.5 C 338.833,148.5 339.167,148.5 339.5,148.5C 340.183,150.176 341.517,150.843 343.5,150.5C 343.5,152.833 343.5,155.167 343.5,157.5C 333.64,159.329 323.64,159.996 313.5,159.5C 313.5,158.833 313.833,158.5 314.5,158.5C 317.167,158.5 319.833,158.5 322.5,158.5C 321.963,155.028 322.963,152.195 325.5,150C 330.019,149.825 334.353,149.325 338.5,148.5 Z"/></g>
<g><path style="opacity:1" fill="#914c2a" d="M 124.5,153.5 C 124.833,153.5 125.167,153.5 125.5,153.5C 125.833,153.5 126.167,153.5 126.5,153.5C 126.167,154.167 125.833,154.833 125.5,155.5C 112.167,155.5 98.8333,155.5 85.5,155.5C 85.1667,155.5 84.8333,155.5 84.5,155.5C 84.5,154.833 84.8333,154.5 85.5,154.5C 98.6774,154.829 111.677,154.495 124.5,153.5 Z"/></g>
<g><path style="opacity:1" fill="#4f2f1a" d="M 131.5,147.5 C 129.461,149.979 127.794,152.646 126.5,155.5C 126.167,155.5 125.833,155.5 125.5,155.5C 125.833,154.833 126.167,154.167 126.5,153.5C 126.772,150.268 128.438,148.268 131.5,147.5 Z"/></g>
<g><path style="opacity:1" fill="#3c4047" d="M 85.5,155.5 C 98.8333,155.5 112.167,155.5 125.5,155.5C 125.833,155.5 126.167,155.5 126.5,155.5C 126.5,156.833 126.5,158.167 126.5,159.5C 112.833,159.5 99.1667,159.5 85.5,159.5C 85.5,158.167 85.5,156.833 85.5,155.5 Z"/></g>
<g><path style="opacity:1" fill="#2f2e33" d="M 159.5,155.5 C 184.5,155.5 209.5,155.5 234.5,155.5C 210.316,155.836 186.316,156.836 162.5,158.5C 161.5,158.5 160.5,158.5 159.5,158.5C 159.5,157.5 159.5,156.5 159.5,155.5 Z"/></g>
<g><path style="opacity:1" fill="#5a392f" d="M 275.5,153.5 C 275.047,154.458 274.381,155.292 273.5,156C 266.986,156.82 260.653,156.653 254.5,155.5C 261.74,156.047 268.74,155.38 275.5,153.5 Z"/></g>
<g><path style="opacity:1" fill="#5c3517" d="M 304.5,143.5 C 306.5,145.167 308.5,146.833 310.5,148.5C 312.935,151.374 314.269,154.707 314.5,158.5C 313.833,158.5 313.5,158.833 313.5,159.5C 313.167,159.5 312.833,159.5 312.5,159.5C 312.793,153.13 310.127,148.463 304.5,145.5C 304.5,144.833 304.5,144.167 304.5,143.5 Z"/></g>
<g><path style="opacity:1" fill="#faf3dd" d="M 336.5,126.5 C 339.484,126.787 340.817,128.454 340.5,131.5C 342.144,131.286 343.644,131.62 345,132.5C 344.961,138.722 345.961,144.722 348,150.5C 348.814,152.902 348.647,155.235 347.5,157.5C 346.583,158.127 345.583,158.461 344.5,158.5C 344.5,155.5 344.5,152.5 344.5,149.5C 342.517,149.843 341.183,149.176 340.5,147.5C 341.404,146.791 341.737,145.791 341.5,144.5C 342.765,143.486 343.431,141.986 343.5,140C 343.664,137.456 342.997,135.29 341.5,133.5C 340.833,133.167 340.167,132.833 339.5,132.5C 339.34,130.847 338.674,129.514 337.5,128.5C 337.167,127.833 336.833,127.167 336.5,126.5 Z"/></g>
<g><path style="opacity:1" fill="#14283f" d="M 246.5,158.5 C 218.5,158.5 190.5,158.5 162.5,158.5C 186.316,156.836 210.316,155.836 234.5,155.5C 237.833,155.5 241.167,155.5 244.5,155.5C 245.327,150.349 245.827,145.016 246,139.5C 246.5,145.825 246.666,152.158 246.5,158.5 Z"/></g>
<g><path style="opacity:1" fill="#142c44" d="M 88.5,156.5 C 99.8382,156.333 111.172,156.5 122.5,157C 116.833,158.148 111,158.648 105,158.5C 99.1238,158.495 93.6238,157.829 88.5,156.5 Z"/></g>
<g><path style="opacity:1" fill="#7c7a79" d="M 151.5,152.5 C 152.794,153.29 153.961,154.29 155,155.5C 155.808,159.027 155.641,162.36 154.5,165.5C 154.665,162.482 154.498,159.482 154,156.5C 152.519,155.529 151.685,154.196 151.5,152.5 Z"/></g>
<g><path style="opacity:1" fill="#576d7f" d="M 159.5,158.5 C 160.5,158.5 161.5,158.5 162.5,158.5C 190.5,158.5 218.5,158.5 246.5,158.5C 246.5,158.833 246.5,159.167 246.5,159.5C 217.833,159.5 189.167,159.5 160.5,159.5C 160.795,161.735 160.461,163.735 159.5,165.5C 159.5,163.167 159.5,160.833 159.5,158.5 Z"/></g>
<g><path style="opacity:1" fill="#e8c072" d="M 65.5,149.5 C 66.8333,149.5 68.1667,149.5 69.5,149.5C 67.7354,150.461 65.7354,150.795 63.5,150.5C 62.8536,154.753 64.5203,157.586 68.5,159C 73.4889,159.499 78.4889,159.666 83.5,159.5C 83.2322,157.901 83.5655,156.568 84.5,155.5C 84.8333,155.5 85.1667,155.5 85.5,155.5C 85.5,156.833 85.5,158.167 85.5,159.5C 84.8333,159.5 84.5,159.833 84.5,160.5C 78.916,161.618 73.2493,161.785 67.5,161C 62.9372,158.575 61.2706,154.742 62.5,149.5C 63.5,149.5 64.5,149.5 65.5,149.5 Z"/></g>
<g><path style="opacity:1" fill="#a6b2b9" d="M 84.5,160.5 C 84.5,159.833 84.8333,159.5 85.5,159.5C 99.1667,159.5 112.833,159.5 126.5,159.5C 126.5,160.833 126.5,162.167 126.5,163.5C 125.596,162.791 125.263,161.791 125.5,160.5C 111.833,160.5 98.1667,160.5 84.5,160.5 Z"/></g>
<g><path style="opacity:1" fill="#eec47d" d="M 339.5,147.5 C 339.833,147.5 340.167,147.5 340.5,147.5C 341.183,149.176 342.517,149.843 344.5,149.5C 344.5,152.5 344.5,155.5 344.5,158.5C 340.73,160.926 336.563,161.926 332,161.5C 325.842,160.955 319.675,160.622 313.5,160.5C 313.5,160.167 313.5,159.833 313.5,159.5C 323.64,159.996 333.64,159.329 343.5,157.5C 343.5,155.167 343.5,152.833 343.5,150.5C 341.517,150.843 340.183,150.176 339.5,148.5C 339.5,148.167 339.5,147.833 339.5,147.5 Z"/></g>
<g><path style="opacity:1" fill="#36322f" d="M 284.5,156.5 C 283.604,161.915 284.937,166.582 288.5,170.5C 284.421,170.534 283.754,171.867 286.5,174.5C 284.225,173.889 282.559,172.555 281.5,170.5C 280.081,166.985 279.414,163.319 279.5,159.5C 279.833,159.5 280.167,159.5 280.5,159.5C 282.141,158.853 283.474,157.853 284.5,156.5 Z"/></g>
<g><path style="opacity:1" fill="#b4b4b2" d="M 307.5,167.5 C 305.46,169.177 303.46,170.844 301.5,172.5C 298.257,173.58 294.924,173.747 291.5,173C 290.058,172.623 289.058,171.79 288.5,170.5C 284.937,166.582 283.604,161.915 284.5,156.5C 285.543,153.944 287.21,151.777 289.5,150C 303.833,147.166 309.833,152.999 307.5,167.5 Z"/></g>
<g><path style="opacity:1" fill="#e9e9e9" d="M 140.5,153.5 C 147.841,153.705 151.008,157.372 150,164.5C 140.614,171.547 136.281,169.214 137,157.5C 138.102,156.051 139.269,154.718 140.5,153.5 Z"/></g>
<g><path style="opacity:1" fill="#b0afb1" d="M 140.5,157.5 C 147.536,156.603 149.203,159.103 145.5,165C 138.659,165.807 136.992,163.307 140.5,157.5 Z"/></g>
<g><path style="opacity:1" fill="#e7e7e8" d="M 293.5,153.5 C 304.282,154.684 306.282,159.518 299.5,168C 291.833,169.33 288.333,166.163 289,158.5C 290.366,156.638 291.866,154.972 293.5,153.5 Z"/></g>
<g><path style="opacity:1" fill="#bdbdbd" d="M 292.5,157.5 C 294.857,157.337 297.19,157.503 299.5,158C 301.486,163.683 299.486,166.016 293.5,165C 292.565,162.619 292.232,160.119 292.5,157.5 Z"/></g>
<g><path style="opacity:1" fill="#898888" d="M 293.5,158.5 C 295.167,158.5 296.833,158.5 298.5,158.5C 298.5,160.167 298.5,161.833 298.5,163.5C 296.833,163.5 295.167,163.5 293.5,163.5C 293.5,161.833 293.5,160.167 293.5,158.5 Z"/></g>
<g><path style="opacity:1" fill="#ceb8aa" d="M 246.5,159.5 C 247.167,159.5 247.833,159.5 248.5,159.5C 258.5,159.5 268.5,159.5 278.5,159.5C 278.833,159.5 279.167,159.5 279.5,159.5C 279.414,163.319 280.081,166.985 281.5,170.5C 280.21,169.942 279.377,168.942 279,167.5C 278.503,165.19 278.337,162.857 278.5,160.5C 267.654,160.828 256.987,160.494 246.5,159.5 Z"/></g>
<g><path style="opacity:1" fill="#443f3d" d="M 312.5,159.5 C 312.833,159.5 313.167,159.5 313.5,159.5C 313.5,159.833 313.5,160.167 313.5,160.5C 313.792,165.985 311.792,170.319 307.5,173.5C 307.719,172.325 307.386,171.325 306.5,170.5C 304.925,171.456 303.258,172.123 301.5,172.5C 303.46,170.844 305.46,169.177 307.5,167.5C 308.542,168.791 309.708,168.791 311,167.5C 312.079,164.937 312.579,162.271 312.5,159.5 Z"/></g>
<g><path style="opacity:1" fill="#1f1c19" d="M 288.5,170.5 C 289.058,171.79 290.058,172.623 291.5,173C 294.924,173.747 298.257,173.58 301.5,172.5C 303.258,172.123 304.925,171.456 306.5,170.5C 307.386,171.325 307.719,172.325 307.5,173.5C 306.71,174.401 305.71,175.068 304.5,175.5C 299.562,176.392 294.562,176.726 289.5,176.5C 288.29,176.068 287.29,175.401 286.5,174.5C 283.754,171.867 284.421,170.534 288.5,170.5 Z"/></g>
<g><path style="opacity:1" fill="#4f4d4c" d="M 304.5,175.5 C 304.389,176.117 304.056,176.617 303.5,177C 298.648,177.815 293.981,177.648 289.5,176.5C 294.562,176.726 299.562,176.392 304.5,175.5 Z"/></g>
<g><path style="opacity:1" fill="#828080" d="M 134.5,175.5 C 140.202,177.913 145.868,177.913 151.5,175.5C 149.089,177.86 146.089,178.86 142.5,178.5C 139.174,178.927 136.508,177.927 134.5,175.5 Z"/></g>
</svg>
