<?xml version="1.0" encoding="UTF-8"?>
<!DOCTYPE svg PUBLIC "-//W3C//DTD SVG 1.1//EN" "http://www.w3.org/Graphics/SVG/1.1/DTD/svg11.dtd">
<svg xmlns="http://www.w3.org/2000/svg" version="1.1" width="566px" height="192px" style="shape-rendering:geometricPrecision; text-rendering:geometricPrecision; image-rendering:optimizeQuality; fill-rule:evenodd; clip-rule:evenodd" xmlns:xlink="http://www.w3.org/1999/xlink">
<g><path style="opacity:0.994" fill="#fefefe" d="M -0.5,0.5 C 188.167,0.5 376.833,0.5 565.5,0.5C 565.5,64.1667 565.5,127.833 565.5,191.5C 376.833,191.5 188.167,191.5 -0.5,191.5C -0.5,127.833 -0.5,64.1667 -0.5,0.5 Z"/></g>
<g><path style="opacity:1" fill="#fbf9ee" d="M 303.5,59.5 C 301.795,62.2869 300.628,61.9535 300,58.5C 299.667,59.1667 299.333,59.8333 299,60.5C 298.585,58.7091 297.585,57.3757 296,56.5C 294.817,57.731 293.651,57.731 292.5,56.5C 294.023,54.7175 296.023,54.0508 298.5,54.5C 298.617,52.5165 297.95,50.8498 296.5,49.5C 297.969,47.808 298.635,45.808 298.5,43.5C 297.898,39.9716 297.898,36.3049 298.5,32.5C 227.522,33.4871 156.522,33.8205 85.5,33.5C 76.0144,32.5062 66.3478,32.1729 56.5,32.5C 56.5,52.8333 56.5,73.1667 56.5,93.5C 56.5,108.833 56.5,124.167 56.5,139.5C 55.0783,139.291 53.745,138.791 52.5,138C 53.1536,102.943 53.8202,67.6094 54.5,32C 136.833,31.5 219.166,31.3333 301.5,31.5C 301.5,37.5 301.5,43.5 301.5,49.5C 306.833,49.8333 306.833,50.1667 301.5,50.5C 301.858,53.6888 302.525,56.6888 303.5,59.5 Z"/></g>
<g><path style="opacity:1" fill="#fbf4e3" d="M 303.5,59.5 C 321.341,59.1699 339.008,59.5033 356.5,60.5C 339.163,60.3334 321.83,60.5001 304.5,61C 303.944,61.3826 303.611,61.8826 303.5,62.5C 301.938,62.7329 300.605,63.3995 299.5,64.5C 297.824,65.1834 297.157,66.5168 297.5,68.5C 295.833,68.5 294.167,68.5 292.5,68.5C 241.166,68.6667 189.832,68.5 138.5,68C 137.377,66.9563 136.044,66.2896 134.5,66C 129.771,65.7273 125.104,65.0607 120.5,64C 113.091,59.4255 105.425,55.4255 97.5,52C 92.1181,46.7378 88.1181,40.5711 85.5,33.5C 156.522,33.8205 227.522,33.4871 298.5,32.5C 297.898,36.3049 297.898,39.9716 298.5,43.5C 298.635,45.808 297.969,47.808 296.5,49.5C 297.95,50.8498 298.617,52.5165 298.5,54.5C 296.023,54.0508 294.023,54.7175 292.5,56.5C 293.651,57.731 294.817,57.731 296,56.5C 297.585,57.3757 298.585,58.7091 299,60.5C 299.333,59.8333 299.667,59.1667 300,58.5C 300.628,61.9535 301.795,62.2869 303.5,59.5 Z"/></g>
<g><path style="opacity:1" fill="#f8ebca" d="M 292.5,68.5 C 294.167,68.5 295.833,68.5 297.5,68.5C 297.157,66.5168 297.824,65.1834 299.5,64.5C 299.5,66.8333 299.5,69.1667 299.5,71.5C 299.83,87.3422 299.496,103.009 298.5,118.5C 296.61,118.297 295.11,118.963 294,120.5C 293.501,124.821 293.334,129.154 293.5,133.5C 284.161,133.334 274.827,133.5 265.5,134C 263.845,135.444 263.178,137.278 263.5,139.5C 263.167,139.5 262.833,139.5 262.5,139.5C 248.677,138.504 234.677,138.171 220.5,138.5C 220.722,135.61 220.055,132.943 218.5,130.5C 215.203,124.463 211.203,118.796 206.5,113.5C 194.412,102.123 180.079,94.9559 163.5,92C 128.835,91.5 94.1683,91.3333 59.5,91.5C 58.6216,74.9206 58.2882,58.2539 58.5,41.5C 57.6698,34.3672 60.3364,32.7005 66.5,36.5C 72.4756,35.2087 78.4756,35.2087 84.5,36.5C 91.5198,50.6814 102.52,60.5148 117.5,66C 123.627,66.098 129.627,66.9313 135.5,68.5C 187.998,69.8312 240.332,69.8312 292.5,68.5 Z"/></g>
<g><path style="opacity:1" fill="#909090" d="M 461.5,52.5 C 462.802,54.0276 464.469,55.0276 466.5,55.5C 464.5,55.5 462.5,55.5 460.5,55.5C 460.263,54.209 460.596,53.209 461.5,52.5 Z"/></g>
<g><path style="opacity:1" fill="#f7f7f7" d="M 447.5,55.5 C 449.167,55.5 450.833,55.5 452.5,55.5C 453.609,55.5569 454.609,55.8902 455.5,56.5C 458.684,58.4136 462.351,59.0803 466.5,58.5C 467.427,64.1338 468.093,69.8005 468.5,75.5C 469.159,78.4552 469.492,81.4552 469.5,84.5C 469.5,85.8333 469.5,87.1667 469.5,88.5C 456.833,88.5 444.167,88.5 431.5,88.5C 431.5,85.5 431.5,82.5 431.5,79.5C 431.364,74.0538 432.031,68.7204 433.5,63.5C 433.5,61.8333 433.5,60.1667 433.5,58.5C 436.833,58.5 440.167,58.5 443.5,58.5C 444.404,57.791 444.737,56.791 444.5,55.5C 445.5,55.5 446.5,55.5 447.5,55.5 Z"/></g>
<g><path style="opacity:1" fill="#2e2e2e" d="M 461.5,52.5 C 460.596,53.209 460.263,54.209 460.5,55.5C 462.5,55.5 464.5,55.5 466.5,55.5C 468.912,55.6941 469.912,57.0274 469.5,59.5C 469.821,65.0262 469.488,70.3595 468.5,75.5C 468.093,69.8005 467.427,64.1338 466.5,58.5C 462.351,59.0803 458.684,58.4136 455.5,56.5C 456.59,53.7328 457.59,50.8995 458.5,48C 457.825,39.2896 453.491,36.2896 445.5,39C 444.619,39.7083 443.953,40.5416 443.5,41.5C 442.107,43.5112 441.44,45.8446 441.5,48.5C 442.174,51.8419 442.84,55.1752 443.5,58.5C 440.167,58.5 436.833,58.5 433.5,58.5C 433.5,60.1667 433.5,61.8333 433.5,63.5C 432.778,63.9175 432.278,64.5842 432,65.5C 429.83,57.8548 432.664,54.8548 440.5,56.5C 440.737,55.209 440.404,54.209 439.5,53.5C 436.085,43.677 439.585,37.3436 450,34.5C 458.845,37.1132 462.679,43.1132 461.5,52.5 Z"/></g>
<g><path style="opacity:1" fill="#343434" d="M 452.5,55.5 C 450.833,55.5 449.167,55.5 447.5,55.5C 444.052,52.1486 443.052,48.1486 444.5,43.5C 447.344,39.9213 450.678,39.5879 454.5,42.5C 457.605,47.5347 456.938,51.868 452.5,55.5 Z"/></g>
<g><path style="opacity:1" fill="#a0a0a0" d="M 443.5,41.5 C 443.328,42.4916 443.662,43.1583 444.5,43.5C 443.052,48.1486 444.052,52.1486 447.5,55.5C 446.5,55.5 445.5,55.5 444.5,55.5C 444.737,56.791 444.404,57.791 443.5,58.5C 442.84,55.1752 442.174,51.8419 441.5,48.5C 441.44,45.8446 442.107,43.5112 443.5,41.5 Z"/></g>
<g><path style="opacity:1" fill="#f1f1f1" d="M 447.5,44.5 C 452.006,43.5272 454.172,45.1939 454,49.5C 450.498,52.4656 447.665,51.9656 445.5,48C 445.978,46.6974 446.645,45.5307 447.5,44.5 Z"/></g>
<g><path style="opacity:1" fill="#c9c9c9" d="M 455.5,56.5 C 454.609,55.8902 453.609,55.5569 452.5,55.5C 456.938,51.868 457.605,47.5347 454.5,42.5C 450.678,39.5879 447.344,39.9213 444.5,43.5C 443.662,43.1583 443.328,42.4916 443.5,41.5C 443.953,40.5416 444.619,39.7083 445.5,39C 453.491,36.2896 457.825,39.2896 458.5,48C 457.59,50.8995 456.59,53.7328 455.5,56.5 Z"/></g>
<g><path style="opacity:1" fill="#e9ac85" d="M 356.5,60.5 C 356.5,60.8333 356.5,61.1667 356.5,61.5C 339.325,61.1701 322.325,61.5034 305.5,62.5C 304.833,62.5 304.167,62.5 303.5,62.5C 303.611,61.8826 303.944,61.3826 304.5,61C 321.83,60.5001 339.163,60.3334 356.5,60.5 Z"/></g>
<g><path style="opacity:1" fill="#f9f1d9" d="M 85.5,33.5 C 88.1181,40.5711 92.1181,46.7378 97.5,52C 105.425,55.4255 113.091,59.4255 120.5,64C 125.104,65.0607 129.771,65.7273 134.5,66C 136.044,66.2896 137.377,66.9563 138.5,68C 189.832,68.5 241.166,68.6667 292.5,68.5C 240.332,69.8312 187.998,69.8312 135.5,68.5C 129.627,66.9313 123.627,66.098 117.5,66C 102.52,60.5148 91.5198,50.6814 84.5,36.5C 78.4756,35.2087 72.4756,35.2087 66.5,36.5C 60.3364,32.7005 57.6698,34.3672 58.5,41.5C 58.2882,58.2539 58.6216,74.9206 59.5,91.5C 58.7095,92.4013 57.7095,93.0679 56.5,93.5C 56.5,73.1667 56.5,52.8333 56.5,32.5C 66.3478,32.1729 76.0144,32.5062 85.5,33.5 Z"/></g>
<g><path style="opacity:1" fill="#e07034" d="M 305.5,62.5 C 322.325,61.5034 339.325,61.1701 356.5,61.5C 361.412,62.9352 363.412,66.2686 362.5,71.5C 346.5,71.5 330.5,71.5 314.5,71.5C 314.167,71.5 313.833,71.5 313.5,71.5C 309.167,71.5 304.833,71.5 300.5,71.5C 300.167,71.5 299.833,71.5 299.5,71.5C 299.5,69.1667 299.5,66.8333 299.5,64.5C 300.605,63.3995 301.938,62.7329 303.5,62.5C 301.15,64.2133 300.15,66.5466 300.5,69.5C 320.833,69.5 341.167,69.5 361.5,69.5C 361.649,68.448 361.483,67.448 361,66.5C 359.229,65.6959 357.729,64.5292 356.5,63C 339.503,62.5001 322.503,62.3334 305.5,62.5 Z"/></g>
<g><path style="opacity:1" fill="#f55806" d="M 303.5,62.5 C 304.167,62.5 304.833,62.5 305.5,62.5C 322.503,62.3334 339.503,62.5001 356.5,63C 357.729,64.5292 359.229,65.6959 361,66.5C 361.483,67.448 361.649,68.448 361.5,69.5C 341.167,69.5 320.833,69.5 300.5,69.5C 300.15,66.5466 301.15,64.2133 303.5,62.5 Z"/></g>
<g><path style="opacity:1" fill="#f8e9c8" d="M 356.5,61.5 C 356.5,61.1667 356.5,60.8333 356.5,60.5C 362.103,61.0004 365.103,64.0004 365.5,69.5C 367.924,69.1924 370.257,69.5258 372.5,70.5C 374.028,71.8613 375.695,73.028 377.5,74C 379.155,75.4443 379.822,77.2776 379.5,79.5C 378.127,79.6567 376.793,79.49 375.5,79C 372.124,75.3237 368.124,74.4904 363.5,76.5C 362.652,75.375 361.652,75.375 360.5,76.5C 348.175,75.2713 335.841,75.2713 323.5,76.5C 322.873,77.4168 322.539,78.4168 322.5,79.5C 322.5,79.8333 322.5,80.1667 322.5,80.5C 321.732,81.2625 321.232,82.2625 321,83.5C 320.667,95.5 320.333,107.5 320,119.5C 319.346,118.304 318.846,118.304 318.5,119.5C 319.004,124.02 320.171,128.354 322,132.5C 324.997,133.866 328.164,134.533 331.5,134.5C 331.833,134.5 332.167,134.5 332.5,134.5C 332.5,135.5 332.5,136.5 332.5,137.5C 326.748,135.645 320.748,134.978 314.5,135.5C 314.5,135.167 314.5,134.833 314.5,134.5C 315.832,124.522 316.499,114.189 316.5,103.5C 316.499,92.811 315.832,82.4777 314.5,72.5C 314.5,72.1667 314.5,71.8333 314.5,71.5C 330.5,71.5 346.5,71.5 362.5,71.5C 363.412,66.2686 361.412,62.9352 356.5,61.5 Z"/></g>
<g><path style="opacity:1" fill="#708e9c" d="M 355.5,78.5 C 356.833,98.5 356.833,118.5 355.5,138.5C 356.142,127.779 355.475,117.446 353.5,107.5C 353.666,98.4938 353.5,89.4938 353,80.5C 352.617,79.944 352.117,79.6107 351.5,79.5C 346.167,79.5 340.833,79.5 335.5,79.5C 332.223,79.2161 329.057,79.5495 326,80.5C 325.5,87.4921 325.334,94.4921 325.5,101.5C 324.508,94.0182 324.175,86.3516 324.5,78.5C 334.833,77.1667 345.167,77.1667 355.5,78.5 Z"/></g>
<g><path style="opacity:1" fill="#b7b8ab" d="M 363.5,76.5 C 363.5,76.8333 363.5,77.1667 363.5,77.5C 362.833,77.8333 362.167,78.1667 361.5,78.5C 360.504,91.9898 360.171,105.656 360.5,119.5C 359.178,105.265 359.178,90.9312 360.5,76.5C 361.652,75.375 362.652,75.375 363.5,76.5 Z"/></g>
<g><path style="opacity:1" fill="#608aa7" d="M 377.5,81.5 C 378.822,81.33 379.989,81.6634 381,82.5C 381.667,86.5 381.667,90.5 381,94.5C 379.989,95.3366 378.822,95.67 377.5,95.5C 377.5,90.8333 377.5,86.1667 377.5,81.5 Z"/></g>
<g><path style="opacity:1" fill="#dceff9" d="M 335.5,79.5 C 340.833,79.5 346.167,79.5 351.5,79.5C 348.639,88.641 345.639,97.641 342.5,106.5C 338.802,106.448 335.135,106.114 331.5,105.5C 330.209,105.737 329.209,105.404 328.5,104.5C 330.369,96.0242 332.702,87.6909 335.5,79.5 Z"/></g>
<g><path style="opacity:1" fill="#414141" d="M 439.5,53.5 C 440.404,54.209 440.737,55.209 440.5,56.5C 432.664,54.8548 429.83,57.8548 432,65.5C 432.278,64.5842 432.778,63.9175 433.5,63.5C 432.031,68.7204 431.364,74.0538 431.5,79.5C 430.521,82.6248 430.187,85.9581 430.5,89.5C 443.833,89.5 457.167,89.5 470.5,89.5C 470.784,87.5853 470.451,85.9187 469.5,84.5C 469.492,81.4552 469.159,78.4552 468.5,75.5C 469.488,70.3595 469.821,65.0262 469.5,59.5C 470.169,67.9088 471.169,76.4088 472.5,85C 472.726,87.6709 472.059,90.0042 470.5,92C 456.833,92.6667 443.167,92.6667 429.5,92C 428.106,90.2605 427.439,88.2605 427.5,86C 428.894,76.5322 430.061,67.0322 431,57.5C 431.5,56.3333 432.333,55.5 433.5,55C 435.708,54.8091 437.708,54.3091 439.5,53.5 Z"/></g>
<g><path style="opacity:1" fill="#bebebe" d="M 431.5,79.5 C 431.5,82.5 431.5,85.5 431.5,88.5C 444.167,88.5 456.833,88.5 469.5,88.5C 469.5,87.1667 469.5,85.8333 469.5,84.5C 470.451,85.9187 470.784,87.5853 470.5,89.5C 457.167,89.5 443.833,89.5 430.5,89.5C 430.187,85.9581 430.521,82.6248 431.5,79.5 Z"/></g>
<g><path style="opacity:1" fill="#5c5c5c" d="M 447.5,70.5 C 447.881,74.1188 448.881,77.4521 450.5,80.5C 449.791,81.404 448.791,81.7373 447.5,81.5C 447.5,77.8333 447.5,74.1667 447.5,70.5 Z"/></g>
<g><path style="opacity:1" fill="#131313" d="M 450.5,80.5 C 448.881,77.4521 447.881,74.1188 447.5,70.5C 446.624,70.6309 445.957,70.2975 445.5,69.5C 448.5,68.1667 451.5,68.1667 454.5,69.5C 453.311,70.4287 451.978,70.762 450.5,70.5C 450.5,73.8333 450.5,77.1667 450.5,80.5 Z"/></g>
<g><path style="opacity:1" fill="#27455d" d="M 309.5,96.5 C 307.167,97.8333 304.833,97.8333 302.5,96.5C 302.5,92.5 302.5,88.5 302.5,84.5C 304.833,84.5 307.167,84.5 309.5,84.5C 309.5,88.5 309.5,92.5 309.5,96.5 Z"/></g>
<g><path style="opacity:1" fill="#9dd4f4" d="M 335.5,79.5 C 332.702,87.6909 330.369,96.0242 328.5,104.5C 327.167,103.833 326.167,102.833 325.5,101.5C 325.334,94.4921 325.5,87.4921 326,80.5C 329.057,79.5495 332.223,79.2161 335.5,79.5 Z"/></g>
<g><path style="opacity:1" fill="#c0dfef" d="M 363.5,77.5 C 367.896,91.2153 370.563,105.215 371.5,119.5C 370.833,119.5 370.5,119.833 370.5,120.5C 367.615,120.806 364.948,120.473 362.5,119.5C 361.504,106.01 361.171,92.3435 361.5,78.5C 362.167,78.1667 362.833,77.8333 363.5,77.5 Z"/></g>
<g><path style="opacity:1" fill="#a2d5f1" d="M 351.5,79.5 C 352.117,79.6107 352.617,79.944 353,80.5C 353.5,89.4938 353.666,98.4938 353.5,107.5C 348.666,108.426 343.666,108.426 338.5,107.5C 337.167,107.5 335.833,107.5 334.5,107.5C 333.5,106.833 332.5,106.167 331.5,105.5C 335.135,106.114 338.802,106.448 342.5,106.5C 345.639,97.641 348.639,88.641 351.5,79.5 Z"/></g>
<g><path style="opacity:1" fill="#e8dabd" d="M 59.5,91.5 C 94.1683,91.3333 128.835,91.5 163.5,92C 180.079,94.9559 194.412,102.123 206.5,113.5C 211.203,118.796 215.203,124.463 218.5,130.5C 220.055,132.943 220.722,135.61 220.5,138.5C 234.677,138.171 248.677,138.504 262.5,139.5C 236.833,139.5 211.167,139.5 185.5,139.5C 184.833,139.5 184.167,139.5 183.5,139.5C 178.706,134.141 172.706,132.141 165.5,133.5C 158.256,132.141 152.256,134.141 147.5,139.5C 145.5,139.5 143.5,139.5 141.5,139.5C 139.944,136.615 137.611,134.448 134.5,133C 126.833,132.333 119.167,132.333 111.5,133C 110.058,133.377 109.058,134.21 108.5,135.5C 106.833,136.833 105.167,138.167 103.5,139.5C 93.0846,139.192 82.7513,139.525 72.5,140.5C 66.9738,140.821 61.6405,140.488 56.5,139.5C 56.5,124.167 56.5,108.833 56.5,93.5C 57.7095,93.0679 58.7095,92.4013 59.5,91.5 Z"/></g>
<g><path style="opacity:1" fill="#def4fb" d="M 362.5,119.5 C 362.334,112.825 362.5,106.158 363,99.5C 363.619,96.9682 364.619,94.6349 366,92.5C 368.861,100.224 368.861,107.891 366,115.5C 365.26,117.319 364.093,118.652 362.5,119.5 Z"/></g>
<g><path style="opacity:1" fill="#3578a3" d="M 300.5,119.5 C 300.5,111.833 300.5,104.167 300.5,96.5C 301.167,96.5 301.833,96.5 302.5,96.5C 304.833,97.8333 307.167,97.8333 309.5,96.5C 310.812,94.2568 311.478,91.5902 311.5,88.5C 310.868,83.4459 310.868,78.4459 311.5,73.5C 312.5,93.4889 312.833,113.489 312.5,133.5C 308.833,133.5 305.167,133.5 301.5,133.5C 301.46,128.807 301.127,124.141 300.5,119.5 Z"/></g>
<g><path style="opacity:1" fill="#7896a1" d="M 313.5,71.5 C 313.833,71.5 314.167,71.5 314.5,71.5C 314.5,71.8333 314.5,72.1667 314.5,72.5C 314.5,93.1667 314.5,113.833 314.5,134.5C 314.5,134.833 314.5,135.167 314.5,135.5C 309.305,135.821 304.305,135.487 299.5,134.5C 299.833,134.5 300.167,134.5 300.5,134.5C 304.833,134.5 309.167,134.5 313.5,134.5C 313.5,113.5 313.5,92.5 313.5,71.5 Z"/></g>
<g><path style="opacity:1" fill="#7197a9" d="M 299.5,71.5 C 299.833,71.5 300.167,71.5 300.5,71.5C 300.5,79.8333 300.5,88.1667 300.5,96.5C 300.5,104.167 300.5,111.833 300.5,119.5C 299.833,119.5 299.167,119.5 298.5,119.5C 298.5,119.167 298.5,118.833 298.5,118.5C 299.496,103.009 299.83,87.3422 299.5,71.5 Z"/></g>
<g><path style="opacity:1" fill="#dddfcb" d="M 314.5,72.5 C 315.832,82.4777 316.499,92.811 316.5,103.5C 316.499,114.189 315.832,124.522 314.5,134.5C 314.5,113.833 314.5,93.1667 314.5,72.5 Z"/></g>
<g><path style="opacity:1" fill="#869598" d="M 361.5,78.5 C 361.171,92.3435 361.504,106.01 362.5,119.5C 364.948,120.473 367.615,120.806 370.5,120.5C 367.696,121.638 364.696,121.805 361.5,121C 360.944,120.617 360.611,120.117 360.5,119.5C 360.171,105.656 360.504,91.9898 361.5,78.5 Z"/></g>
<g><path style="opacity:1" fill="#434343" d="M 437.5,120.5 C 436.5,119.167 435.5,119.167 434.5,120.5C 432.833,120.5 431.167,120.5 429.5,120.5C 429.5,121.5 429.5,122.5 429.5,123.5C 428.5,123.5 427.5,123.5 426.5,123.5C 426.286,121.856 426.62,120.356 427.5,119C 432.833,118.333 438.167,118.333 443.5,119C 444.993,120.156 444.826,120.99 443,121.5C 441.234,120.767 439.401,120.433 437.5,120.5 Z"/></g>
<g><path style="opacity:1" fill="#3b3b3b" d="M 496.5,118.5 C 501.179,118.334 505.845,118.501 510.5,119C 511.609,120.813 510.942,121.646 508.5,121.5C 507.432,120.566 506.099,120.232 504.5,120.5C 503.5,119.167 502.5,119.167 501.5,120.5C 498.675,120.081 496.509,121.081 495,123.5C 494.387,121.505 494.887,119.838 496.5,118.5 Z"/></g>
<g><path style="opacity:1" fill="#050505" d="M 434.5,120.5 C 435.5,119.167 436.5,119.167 437.5,120.5C 436.673,125.985 436.173,131.652 436,137.5C 435.827,131.652 435.327,125.985 434.5,120.5 Z"/></g>
<g><path style="opacity:1" fill="#3e3e3e" d="M 408.5,134.5 C 407.597,131.609 407.264,128.609 407.5,125.5C 407.511,123.983 408.177,122.816 409.5,122C 418,119.833 421.167,123 419,131.5C 416.497,135.56 412.997,136.56 408.5,134.5 Z"/></g>
<g><path style="opacity:1" fill="#bdbdbd" d="M 434.5,120.5 C 434.5,126.5 434.5,132.5 434.5,138.5C 433.511,133.025 433.178,127.358 433.5,121.5C 431.801,121.527 430.467,122.194 429.5,123.5C 429.5,122.5 429.5,121.5 429.5,120.5C 431.167,120.5 432.833,120.5 434.5,120.5 Z"/></g>
<g><path style="opacity:1" fill="#d1d1d1" d="M 496.5,118.5 C 494.887,119.838 494.387,121.505 495,123.5C 496.509,121.081 498.675,120.081 501.5,120.5C 501.5,126.5 501.5,132.5 501.5,138.5C 499.866,133.563 498.866,128.229 498.5,122.5C 497.15,123.95 495.484,124.617 493.5,124.5C 493.34,122.801 493.506,121.134 494,119.5C 494.671,118.748 495.504,118.414 496.5,118.5 Z"/></g>
<g><path style="opacity:1" fill="#4d4d4d" d="M 501.5,120.5 C 502.327,125.985 502.827,131.652 503,137.5C 503.173,131.652 503.673,125.985 504.5,120.5C 504.5,126.167 504.5,131.833 504.5,137.5C 503.791,138.404 502.791,138.737 501.5,138.5C 501.5,132.5 501.5,126.5 501.5,120.5 Z"/></g>
<g><path style="opacity:1" fill="#e4e2cf" d="M 360.5,76.5 C 359.178,90.9312 359.178,105.265 360.5,119.5C 360.611,120.117 360.944,120.617 361.5,121C 364.696,121.805 367.696,121.638 370.5,120.5C 370.5,119.833 370.833,119.5 371.5,119.5C 371.5,121.5 371.5,123.5 371.5,125.5C 371.167,125.5 370.833,125.5 370.5,125.5C 369.508,123.974 368.008,123.307 366,123.5C 363.966,123.354 362.299,124.02 361,125.5C 360.692,124.692 360.192,124.025 359.5,123.5C 357.954,128.722 358.287,133.722 360.5,138.5C 354.445,142.351 347.778,143.517 340.5,142C 338.211,139.889 335.545,138.389 332.5,137.5C 332.5,136.5 332.5,135.5 332.5,134.5C 335.245,135.737 337.578,137.57 339.5,140C 344.5,140.667 349.5,140.667 354.5,140C 355.056,139.617 355.389,139.117 355.5,138.5C 356.833,118.5 356.833,98.5 355.5,78.5C 355.389,77.8826 355.056,77.3826 354.5,77C 349.5,76.8333 344.5,76.6667 339.5,76.5C 334.119,76.5058 329.119,77.1725 324.5,78.5C 323.833,78.8333 323.167,79.1667 322.5,79.5C 322.539,78.4168 322.873,77.4168 323.5,76.5C 335.841,75.2713 348.175,75.2713 360.5,76.5 Z"/></g>
<g><path style="opacity:1" fill="#a0aca9" d="M 355.5,78.5 C 345.167,77.1667 334.833,77.1667 324.5,78.5C 329.119,77.1725 334.119,76.5058 339.5,76.5C 344.5,76.6667 349.5,76.8333 354.5,77C 355.056,77.3826 355.389,77.8826 355.5,78.5 Z"/></g>
<g><path style="opacity:1" fill="#464646" d="M 434.5,120.5 C 435.327,125.985 435.827,131.652 436,137.5C 436.173,131.652 436.673,125.985 437.5,120.5C 437.5,126.5 437.5,132.5 437.5,138.5C 436.5,138.5 435.5,138.5 434.5,138.5C 434.5,132.5 434.5,126.5 434.5,120.5 Z"/></g>
<g><path style="opacity:1" fill="#101010" d="M 501.5,120.5 C 502.5,119.167 503.5,119.167 504.5,120.5C 503.673,125.985 503.173,131.652 503,137.5C 502.827,131.652 502.327,125.985 501.5,120.5 Z"/></g>
<g><path style="opacity:1" fill="#adadad" d="M 504.5,120.5 C 506.099,120.232 507.432,120.566 508.5,121.5C 507.5,121.5 506.5,121.5 505.5,121.5C 505.821,127.026 505.488,132.36 504.5,137.5C 504.5,131.833 504.5,126.167 504.5,120.5 Z"/></g>
<g><path style="opacity:1" fill="#e5e3cf" d="M 322.5,80.5 C 322.333,96.1702 322.5,111.837 323,127.5C 324.857,131.147 327.69,133.48 331.5,134.5C 328.164,134.533 324.997,133.866 322,132.5C 320.171,128.354 319.004,124.02 318.5,119.5C 318.846,118.304 319.346,118.304 320,119.5C 320.333,107.5 320.667,95.5 321,83.5C 321.232,82.2625 321.732,81.2625 322.5,80.5 Z"/></g>
<g><path style="opacity:1" fill="#988c76" d="M 298.5,118.5 C 298.5,118.833 298.5,119.167 298.5,119.5C 296.983,119.511 295.816,120.177 295,121.5C 294.501,125.486 294.334,129.486 294.5,133.5C 294.167,133.5 293.833,133.5 293.5,133.5C 293.334,129.154 293.501,124.821 294,120.5C 295.11,118.963 296.61,118.297 298.5,118.5 Z"/></g>
<g><path style="opacity:1" fill="#5b859a" d="M 324.5,78.5 C 324.175,86.3516 324.508,94.0182 325.5,101.5C 326.167,102.833 327.167,103.833 328.5,104.5C 329.209,105.404 330.209,105.737 331.5,105.5C 332.5,106.167 333.5,106.833 334.5,107.5C 330.991,107.542 327.658,106.876 324.5,105.5C 324.169,113.196 324.503,120.862 325.5,128.5C 329.568,131.702 334.234,133.868 339.5,135C 340.337,136.011 340.67,137.178 340.5,138.5C 345.167,138.5 349.833,138.5 354.5,138.5C 354.666,129.827 354.5,121.16 354,112.5C 349.548,109.997 344.715,108.831 339.5,109C 338.944,108.617 338.611,108.117 338.5,107.5C 343.666,108.426 348.666,108.426 353.5,107.5C 355.475,117.446 356.142,127.779 355.5,138.5C 355.389,139.117 355.056,139.617 354.5,140C 349.5,140.667 344.5,140.667 339.5,140C 337.578,137.57 335.245,135.737 332.5,134.5C 332.167,134.5 331.833,134.5 331.5,134.5C 327.69,133.48 324.857,131.147 323,127.5C 322.5,111.837 322.333,96.1702 322.5,80.5C 322.5,80.1667 322.5,79.8333 322.5,79.5C 323.167,79.1667 323.833,78.8333 324.5,78.5 Z"/></g>
<g><path style="opacity:1" fill="#3577a3" d="M 334.5,107.5 C 335.833,107.5 337.167,107.5 338.5,107.5C 338.611,108.117 338.944,108.617 339.5,109C 344.715,108.831 349.548,109.997 354,112.5C 354.5,121.16 354.666,129.827 354.5,138.5C 349.833,138.5 345.167,138.5 340.5,138.5C 340.67,137.178 340.337,136.011 339.5,135C 334.234,133.868 329.568,131.702 325.5,128.5C 324.503,120.862 324.169,113.196 324.5,105.5C 327.658,106.876 330.991,107.542 334.5,107.5 Z"/></g>
<g><path style="opacity:1" fill="#e8e8e8" d="M 411.5,123.5 C 413.144,123.286 414.644,123.62 416,124.5C 416.667,126.833 416.667,129.167 416,131.5C 414.604,133.527 412.938,133.86 411,132.5C 410.264,129.408 410.431,126.408 411.5,123.5 Z"/></g>
<g><path style="opacity:1" fill="#3d3d3d" d="M 486.5,127.5 C 486.599,130.237 486.265,132.904 485.5,135.5C 478.898,135.955 472.231,135.955 465.5,135.5C 465.351,134.448 465.517,133.448 466,132.5C 470.144,130.866 471.977,127.866 471.5,123.5C 470.07,123.421 468.736,123.754 467.5,124.5C 466.224,123.386 466.224,122.386 467.5,121.5C 474.425,120.572 476.259,123.239 473,129.5C 471.833,130.667 470.667,131.833 469.5,133C 474.033,132.052 478.367,132.385 482.5,134C 483.423,131.959 483.756,129.792 483.5,127.5C 481.167,127.5 478.833,127.5 476.5,127.5C 476.5,125.5 476.5,123.5 476.5,121.5C 479.391,120.597 482.391,120.264 485.5,120.5C 485.5,121.5 485.5,122.5 485.5,123.5C 483.669,122.948 482.003,122.948 480.5,123.5C 482.901,124.358 484.901,125.691 486.5,127.5 Z"/></g>
<g><path style="opacity:1" fill="#2f2f2f" d="M 399.5,121.5 C 400.833,121.5 402.167,121.5 403.5,121.5C 402.987,126.085 403.654,130.418 405.5,134.5C 402.914,135.48 400.247,135.813 397.5,135.5C 397.821,133.952 398.821,133.285 400.5,133.5C 400.616,130.14 400.949,126.807 401.5,123.5C 399.007,123.869 398.34,123.203 399.5,121.5 Z"/></g>
<g><path style="opacity:1" fill="#4d4d4d" d="M 456.5,126.5 C 455.448,128.256 453.781,128.923 451.5,128.5C 452.552,126.744 454.219,126.077 456.5,126.5 Z"/></g>
<g><path style="opacity:1" fill="#3e708e" d="M 300.5,71.5 C 304.833,71.5 309.167,71.5 313.5,71.5C 313.5,92.5 313.5,113.5 313.5,134.5C 309.167,134.5 304.833,134.5 300.5,134.5C 299.833,129.5 299.167,124.5 298.5,119.5C 299.167,119.5 299.833,119.5 300.5,119.5C 301.127,124.141 301.46,128.807 301.5,133.5C 305.167,133.5 308.833,133.5 312.5,133.5C 312.833,113.489 312.5,93.4889 311.5,73.5C 310.868,78.4459 310.868,83.4459 311.5,88.5C 311.478,91.5902 310.812,94.2568 309.5,96.5C 309.5,92.5 309.5,88.5 309.5,84.5C 307.167,84.5 304.833,84.5 302.5,84.5C 302.5,88.5 302.5,92.5 302.5,96.5C 301.833,96.5 301.167,96.5 300.5,96.5C 300.5,88.1667 300.5,79.8333 300.5,71.5 Z"/></g>
<g><path style="opacity:1" fill="#29475b" d="M 302.5,73.5 C 304.792,73.2436 306.959,73.5769 309,74.5C 309.498,77.4816 309.665,80.4816 309.5,83.5C 307.167,83.5 304.833,83.5 302.5,83.5C 302.5,80.1667 302.5,76.8333 302.5,73.5 Z"/></g>
<g><path style="opacity:1" fill="#bbbbbb" d="M 399.5,121.5 C 398.34,123.203 399.007,123.869 401.5,123.5C 400.949,126.807 400.616,130.14 400.5,133.5C 398.821,133.285 397.821,133.952 397.5,135.5C 396.566,134.432 396.232,133.099 396.5,131.5C 397.5,131.5 398.5,131.5 399.5,131.5C 399.5,129.5 399.5,127.5 399.5,125.5C 398.5,125.5 397.5,125.5 396.5,125.5C 396.088,123.027 397.088,121.694 399.5,121.5 Z"/></g>
<g><path style="opacity:1" fill="#949494" d="M 456.5,126.5 C 457.404,127.209 457.737,128.209 457.5,129.5C 455.265,129.795 453.265,129.461 451.5,128.5C 453.781,128.923 455.448,128.256 456.5,126.5 Z"/></g>
<g><path style="opacity:1" fill="#dbdbdb" d="M 467.5,121.5 C 470.362,120.319 473.362,120.319 476.5,121.5C 476.5,123.5 476.5,125.5 476.5,127.5C 478.833,127.5 481.167,127.5 483.5,127.5C 483.756,129.792 483.423,131.959 482.5,134C 478.367,132.385 474.033,132.052 469.5,133C 470.667,131.833 471.833,130.667 473,129.5C 476.259,123.239 474.425,120.572 467.5,121.5 Z"/></g>
<g><path style="opacity:1" fill="#1f201d" d="M 298.5,119.5 C 299.167,124.5 299.833,129.5 300.5,134.5C 300.167,134.5 299.833,134.5 299.5,134.5C 297.958,133.699 296.292,133.366 294.5,133.5C 294.334,129.486 294.501,125.486 295,121.5C 295.816,120.177 296.983,119.511 298.5,119.5 Z"/></g>
<g><path style="opacity:1" fill="#f3c196" d="M 141.5,139.5 C 141.167,139.5 140.833,139.5 140.5,139.5C 139.167,138.5 137.833,137.5 136.5,136.5C 127.701,132.883 118.701,132.55 109.5,135.5C 109.167,135.5 108.833,135.5 108.5,135.5C 109.058,134.21 110.058,133.377 111.5,133C 119.167,132.333 126.833,132.333 134.5,133C 137.611,134.448 139.944,136.615 141.5,139.5 Z"/></g>
<g><path style="opacity:1" fill="#f4e9c9" d="M 370.5,125.5 C 364.738,125.72 363.071,128.554 365.5,134C 367.874,134.743 369.874,134.243 371.5,132.5C 371.5,136.833 371.5,141.167 371.5,145.5C 359.651,146.074 347.984,145.408 336.5,143.5C 335.585,141.246 334.252,139.246 332.5,137.5C 335.545,138.389 338.211,139.889 340.5,142C 347.778,143.517 354.445,142.351 360.5,138.5C 358.287,133.722 357.954,128.722 359.5,123.5C 360.192,124.025 360.692,124.692 361,125.5C 362.299,124.02 363.966,123.354 366,123.5C 368.008,123.307 369.508,123.974 370.5,125.5 Z"/></g>
<g><path style="opacity:1" fill="#c79e67" d="M 370.5,125.5 C 370.833,125.5 371.167,125.5 371.5,125.5C 371.5,127.833 371.5,130.167 371.5,132.5C 369.874,134.243 367.874,134.743 365.5,134C 363.071,128.554 364.738,125.72 370.5,125.5 Z"/></g>
<g><path style="opacity:1" fill="#b0b0b0" d="M 403.5,121.5 C 404.166,125.021 404.833,128.687 405.5,132.5C 406.168,130.031 406.835,127.698 407.5,125.5C 407.264,128.609 407.597,131.609 408.5,134.5C 406.976,135.174 405.642,136.174 404.5,137.5C 402.018,136.933 399.684,136.266 397.5,135.5C 400.247,135.813 402.914,135.48 405.5,134.5C 403.654,130.418 402.987,126.085 403.5,121.5 Z"/></g>
<g><path style="opacity:1" fill="#e69964" d="M 293.5,133.5 C 293.5,133.833 293.5,134.167 293.5,134.5C 284.494,134.334 275.494,134.5 266.5,135C 265.531,139.737 265.197,144.57 265.5,149.5C 265.167,149.5 264.833,149.5 264.5,149.5C 264.813,145.958 264.479,142.625 263.5,139.5C 263.178,137.278 263.845,135.444 265.5,134C 274.827,133.5 284.161,133.334 293.5,133.5 Z"/></g>
<g><path style="opacity:1" fill="#e2601e" d="M 183.5,139.5 C 183.702,143.845 182.369,144.512 179.5,141.5C 178.128,140.488 176.795,139.488 175.5,138.5C 168.679,137.345 161.679,137.179 154.5,138C 152.536,139.451 151.203,141.284 150.5,143.5C 148.581,147.857 147.581,152.523 147.5,157.5C 145.5,157.5 143.5,157.5 141.5,157.5C 140.083,154.002 139.417,150.335 139.5,146.5C 138.708,145.033 138.708,143.7 139.5,142.5C 140.604,145.05 141.937,147.383 143.5,149.5C 144.189,150.774 145.023,150.774 146,149.5C 146.497,147.19 146.663,144.857 146.5,142.5C 147.11,141.609 147.443,140.609 147.5,139.5C 152.256,134.141 158.256,132.141 165.5,133.5C 172.706,132.141 178.706,134.141 183.5,139.5 Z"/></g>
<g><path style="opacity:1" fill="#ababab" d="M 486.5,127.5 C 487.152,128.449 487.486,129.615 487.5,131C 487.693,133.008 487.026,134.508 485.5,135.5C 486.265,132.904 486.599,130.237 486.5,127.5 Z"/></g>
<g><path style="opacity:1" fill="#e36320" d="M 136.5,136.5 C 136.414,137.496 136.748,138.329 137.5,139C 137,139.167 136.5,139.333 136,139.5C 134.594,138.586 133.094,137.92 131.5,137.5C 124.978,137.177 118.645,137.51 112.5,138.5C 110.589,139.075 108.922,140.075 107.5,141.5C 106.903,141.265 106.57,140.765 106.5,140C 107.315,138.357 108.315,136.857 109.5,135.5C 118.701,132.55 127.701,132.883 136.5,136.5 Z"/></g>
<g><path style="opacity:1" fill="#c15d25" d="M 293.5,133.5 C 293.833,133.5 294.167,133.5 294.5,133.5C 296.292,133.366 297.958,133.699 299.5,134.5C 304.305,135.487 309.305,135.821 314.5,135.5C 320.748,134.978 326.748,135.645 332.5,137.5C 334.252,139.246 335.585,141.246 336.5,143.5C 336.5,144.167 336.5,144.833 336.5,145.5C 335.034,144.653 334.2,143.32 334,141.5C 333.329,140.748 332.496,140.414 331.5,140.5C 330.486,139.326 329.153,138.66 327.5,138.5C 318.348,137.506 309.015,137.173 299.5,137.5C 299.817,141.702 299.483,145.702 298.5,149.5C 298.666,145.154 298.499,140.821 298,136.5C 296.378,135.901 294.878,135.234 293.5,134.5C 293.5,134.167 293.5,133.833 293.5,133.5 Z"/></g>
<g><path style="opacity:1" fill="#7e4120" d="M 112.5,138.5 C 118.645,137.51 124.978,137.177 131.5,137.5C 131.833,138.167 132.167,138.833 132.5,139.5C 125.891,138.577 119.224,138.244 112.5,138.5 Z"/></g>
<g><path style="opacity:1" fill="#854221" d="M 175.5,138.5 C 168.825,138.334 162.158,138.5 155.5,139C 153.963,140.707 152.296,142.207 150.5,143.5C 152.296,142.207 153.963,140.707 155.5,139C 162.158,138.5 168.825,138.334 175.5,138.5 Z"/></g>
<g><path style="opacity:1" fill="#63260a" d="M 327.5,138.5 C 318.5,138.5 309.5,138.5 300.5,138.5C 300.817,142.702 300.483,146.702 299.5,150.5C 299.167,150.5 298.833,150.5 298.5,150.5C 298.5,150.167 298.5,149.833 298.5,149.5C 299.483,145.702 299.817,141.702 299.5,137.5C 309.015,137.173 318.348,137.506 327.5,138.5 Z"/></g>
<g><path style="opacity:1" fill="#452f22" d="M 175.5,138.5 C 176.795,139.488 178.128,140.488 179.5,141.5C 181.043,144.807 182.377,148.14 183.5,151.5C 183.975,154.082 183.308,156.082 181.5,157.5C 180.656,141.201 172.322,135.701 156.5,141C 153.558,142.436 151.558,144.603 150.5,147.5C 150.5,146.167 150.5,144.833 150.5,143.5C 152.296,142.207 153.963,140.707 155.5,139C 162.158,138.5 168.825,138.334 175.5,138.5 Z"/></g>
<g><path style="opacity:1" fill="#493224" d="M 112.5,138.5 C 119.224,138.244 125.891,138.577 132.5,139.5C 135.509,141.21 137.842,143.543 139.5,146.5C 139.417,150.335 140.083,154.002 141.5,157.5C 140.508,157.328 139.842,157.662 139.5,158.5C 138.833,158.833 138.167,159.167 137.5,159.5C 138.231,141.821 129.898,135.655 112.5,141C 107.544,145.76 105.544,151.593 106.5,158.5C 105.833,158.5 105.167,158.5 104.5,158.5C 105.388,155.946 105.721,153.279 105.5,150.5C 105.5,149.833 105.5,149.167 105.5,148.5C 106.992,144.659 109.325,141.325 112.5,138.5 Z"/></g>
<g><path style="opacity:1" fill="#c45e24" d="M 136.5,136.5 C 137.833,137.5 139.167,138.5 140.5,139.5C 141.227,141.954 142.227,144.287 143.5,146.5C 143.5,147.5 143.5,148.5 143.5,149.5C 141.937,147.383 140.604,145.05 139.5,142.5C 138.708,143.7 138.708,145.033 139.5,146.5C 137.842,143.543 135.509,141.21 132.5,139.5C 132.167,138.833 131.833,138.167 131.5,137.5C 133.094,137.92 134.594,138.586 136,139.5C 136.5,139.333 137,139.167 137.5,139C 136.748,138.329 136.414,137.496 136.5,136.5 Z"/></g>
<g><path style="opacity:1" fill="#71919f" d="M 185.5,140.5 C 185.5,140.167 185.5,139.833 185.5,139.5C 211.167,139.5 236.833,139.5 262.5,139.5C 262.833,139.5 263.167,139.5 263.5,139.5C 264.479,142.625 264.813,145.958 264.5,149.5C 262.692,148.082 262.025,146.082 262.5,143.5C 262.5,142.5 262.5,141.5 262.5,140.5C 236.833,140.5 211.167,140.5 185.5,140.5 Z"/></g>
<g><path style="opacity:1" fill="#5d87a0" d="M 103.5,139.5 C 102.518,142.763 101.851,146.097 101.5,149.5C 100.523,152.287 100.19,155.287 100.5,158.5C 92.4931,158.666 84.4931,158.5 76.5,158C 75.6195,157.292 74.9528,156.458 74.5,155.5C 78.0787,157.045 81.9121,157.712 86,157.5C 90.5725,157.1 95.0725,156.434 99.5,155.5C 99.6686,150.819 100.002,146.152 100.5,141.5C 91.8333,141.5 83.1667,141.5 74.5,141.5C 74.5,145.833 74.5,150.167 74.5,154.5C 73.8826,154.389 73.3826,154.056 73,153.5C 72.501,149.179 72.3343,144.846 72.5,140.5C 82.7513,139.525 93.0846,139.192 103.5,139.5 Z"/></g>
<g><path style="opacity:1" fill="#8a421b" d="M 112.5,138.5 C 109.325,141.325 106.992,144.659 105.5,148.5C 105.394,145.921 106.061,143.588 107.5,141.5C 108.922,140.075 110.589,139.075 112.5,138.5 Z"/></g>
<g><path style="opacity:1" fill="#d4632c" d="M 108.5,135.5 C 108.833,135.5 109.167,135.5 109.5,135.5C 108.315,136.857 107.315,138.357 106.5,140C 106.57,140.765 106.903,141.265 107.5,141.5C 106.061,143.588 105.394,145.921 105.5,148.5C 105.5,149.167 105.5,149.833 105.5,150.5C 102.96,158.74 101.627,158.407 101.5,149.5C 101.851,146.097 102.518,142.763 103.5,139.5C 105.167,138.167 106.833,136.833 108.5,135.5 Z"/></g>
<g><path style="opacity:1" fill="#221c1a" d="M 137.5,159.5 C 136.167,162.167 134.833,164.833 133.5,167.5C 131.938,167.733 130.605,168.4 129.5,169.5C 125.215,170.295 120.881,170.628 116.5,170.5C 111.338,168.006 108.005,164.006 106.5,158.5C 105.544,151.593 107.544,145.76 112.5,141C 129.898,135.655 138.231,141.821 137.5,159.5 Z"/></g>
<g><path style="opacity:1" fill="#637383" d="M 140.5,139.5 C 140.833,139.5 141.167,139.5 141.5,139.5C 143.5,139.5 145.5,139.5 147.5,139.5C 147.443,140.609 147.11,141.609 146.5,142.5C 145.978,144.219 144.978,145.552 143.5,146.5C 142.227,144.287 141.227,141.954 140.5,139.5 Z"/></g>
<g><path style="opacity:1" fill="#3478a4" d="M 262.5,143.5 C 262.025,146.082 262.692,148.082 264.5,149.5C 264.5,150.167 264.5,150.833 264.5,151.5C 264.414,152.496 264.748,153.329 265.5,154C 275.195,154.783 284.862,154.616 294.5,153.5C 297.028,154.169 297.028,155.002 294.5,156C 259.835,156.5 225.168,156.667 190.5,156.5C 189.52,151.857 188.52,147.19 187.5,142.5C 199.667,142.167 211.833,141.833 224,141.5C 236.988,141.538 249.821,142.204 262.5,143.5 Z"/></g>
<g><path style="opacity:1" fill="#f25a0c" d="M 293.5,134.5 C 294.878,135.234 296.378,135.901 298,136.5C 298.499,140.821 298.666,145.154 298.5,149.5C 298.5,149.833 298.5,150.167 298.5,150.5C 287.321,150.828 276.321,150.495 265.5,149.5C 265.197,144.57 265.531,139.737 266.5,135C 275.494,134.5 284.494,134.334 293.5,134.5 Z"/></g>
<g><path style="opacity:1" fill="#3578a5" d="M 74.5,155.5 C 74.5,155.167 74.5,154.833 74.5,154.5C 74.5,150.167 74.5,145.833 74.5,141.5C 83.1667,141.5 91.8333,141.5 100.5,141.5C 100.002,146.152 99.6686,150.819 99.5,155.5C 95.0725,156.434 90.5725,157.1 86,157.5C 81.9121,157.712 78.0787,157.045 74.5,155.5 Z"/></g>
<g><path style="opacity:1" fill="#221d1c" d="M 181.5,157.5 C 181.5,158.167 181.5,158.833 181.5,159.5C 177.48,168.671 170.48,172.505 160.5,171C 156.992,168.982 153.992,166.482 151.5,163.5C 151.88,161.302 151.213,159.635 149.5,158.5C 148.982,157.423 148.648,156.256 148.5,155C 149.86,152.73 150.527,150.23 150.5,147.5C 151.558,144.603 153.558,142.436 156.5,141C 172.322,135.701 180.656,141.201 181.5,157.5 Z"/></g>
<g><path style="opacity:1" fill="#908b8d" d="M 171.5,147.5 C 170.849,148.091 170.182,148.757 169.5,149.5C 168.289,148.726 168.289,147.893 169.5,147C 167.865,146.46 166.532,146.96 165.5,148.5C 164.808,147.975 164.308,147.308 164,146.5C 163.751,147.624 163.251,148.624 162.5,149.5C 161.735,148.388 160.735,147.721 159.5,147.5C 161.159,145.657 163.325,144.657 166,144.5C 168.399,144.613 170.232,145.613 171.5,147.5 Z"/></g>
<g><path style="opacity:1" fill="#b0603b" d="M 183.5,139.5 C 184.167,139.5 184.833,139.5 185.5,139.5C 185.5,139.833 185.5,140.167 185.5,140.5C 187.36,146.326 188.36,152.326 188.5,158.5C 186.05,158.298 183.717,158.631 181.5,159.5C 181.5,158.833 181.5,158.167 181.5,157.5C 183.308,156.082 183.975,154.082 183.5,151.5C 182.377,148.14 181.043,144.807 179.5,141.5C 182.369,144.512 183.702,143.845 183.5,139.5 Z"/></g>
<g><path style="opacity:1" fill="#f9c79f" d="M 336.5,143.5 C 347.984,145.408 359.651,146.074 371.5,145.5C 372.496,145.414 373.329,145.748 374,146.5C 374.667,149.833 374.667,153.167 374,156.5C 373.329,157.252 372.496,157.586 371.5,157.5C 371.5,157.167 371.5,156.833 371.5,156.5C 372.117,156.389 372.617,156.056 373,155.5C 373.777,152.571 373.61,149.737 372.5,147C 360.425,146.813 348.425,146.313 336.5,145.5C 336.5,144.833 336.5,144.167 336.5,143.5 Z"/></g>
<g><path style="opacity:1" fill="#a16447" d="M 146.5,142.5 C 146.663,144.857 146.497,147.19 146,149.5C 145.023,150.774 144.189,150.774 143.5,149.5C 143.5,148.5 143.5,147.5 143.5,146.5C 144.978,145.552 145.978,144.219 146.5,142.5 Z"/></g>
<g><path style="opacity:1" fill="#cecbcc" d="M 171.5,147.5 C 172.5,147.833 173.167,148.5 173.5,149.5C 171.914,152.202 170.914,155.202 170.5,158.5C 166.94,162.553 163.773,162.22 161,157.5C 160.971,154.633 160.138,152.133 158.5,150C 159.252,149.329 159.586,148.496 159.5,147.5C 160.735,147.721 161.735,148.388 162.5,149.5C 163.251,148.624 163.751,147.624 164,146.5C 164.308,147.308 164.808,147.975 165.5,148.5C 166.532,146.96 167.865,146.46 169.5,147C 168.289,147.893 168.289,148.726 169.5,149.5C 170.182,148.757 170.849,148.091 171.5,147.5 Z"/></g>
<g><path style="opacity:1" fill="#7c6c6c" d="M 264.5,149.5 C 264.833,149.5 265.167,149.5 265.5,149.5C 276.321,150.495 287.321,150.828 298.5,150.5C 293.376,151.829 287.876,152.495 282,152.5C 276.089,152.479 270.255,152.146 264.5,151.5C 264.5,150.833 264.5,150.167 264.5,149.5 Z"/></g>
<g><path style="opacity:1" fill="#db5f1d" d="M 183.5,151.5 C 183.338,149.473 183.505,147.473 184,145.5C 186.413,148.893 186.913,152.56 185.5,156.5C 184.83,154.709 184.163,153.042 183.5,151.5 Z"/></g>
<g><path style="opacity:1" fill="#9f5531" d="M 150.5,143.5 C 150.5,144.833 150.5,146.167 150.5,147.5C 150.527,150.23 149.86,152.73 148.5,155C 148.648,156.256 148.982,157.423 149.5,158.5C 146.167,158.5 142.833,158.5 139.5,158.5C 139.842,157.662 140.508,157.328 141.5,157.5C 143.5,157.5 145.5,157.5 147.5,157.5C 147.581,152.523 148.581,147.857 150.5,143.5 Z"/></g>
<g><path style="opacity:1" fill="#a95a32" d="M 101.5,149.5 C 101.627,158.407 102.96,158.74 105.5,150.5C 105.721,153.279 105.388,155.946 104.5,158.5C 103.167,158.5 101.833,158.5 100.5,158.5C 100.19,155.287 100.523,152.287 101.5,149.5 Z"/></g>
<g><path style="opacity:1" fill="#4f7fa0" d="M 185.5,140.5 C 211.167,140.5 236.833,140.5 262.5,140.5C 262.5,141.5 262.5,142.5 262.5,143.5C 249.821,142.204 236.988,141.538 224,141.5C 211.833,141.833 199.667,142.167 187.5,142.5C 188.52,147.19 189.52,151.857 190.5,156.5C 225.168,156.667 259.835,156.5 294.5,156C 297.028,155.002 297.028,154.169 294.5,153.5C 284.862,154.616 275.195,154.783 265.5,154C 264.748,153.329 264.414,152.496 264.5,151.5C 270.255,152.146 276.089,152.479 282,152.5C 287.876,152.495 293.376,151.829 298.5,150.5C 298.833,150.5 299.167,150.5 299.5,150.5C 299.5,153.167 299.5,155.833 299.5,158.5C 262.5,158.5 225.5,158.5 188.5,158.5C 188.36,152.326 187.36,146.326 185.5,140.5 Z"/></g>
<g><path style="opacity:1" fill="#67270d" d="M 331.5,140.5 C 332.496,140.414 333.329,140.748 334,141.5C 334.2,143.32 335.034,144.653 336.5,145.5C 336.5,149.5 336.5,153.5 336.5,157.5C 336.426,151.376 334.759,145.71 331.5,140.5 Z"/></g>
<g><path style="opacity:1" fill="#e37133" d="M 336.5,145.5 C 348.425,146.313 360.425,146.813 372.5,147C 373.61,149.737 373.777,152.571 373,155.5C 372.617,156.056 372.117,156.389 371.5,156.5C 371.5,156.833 371.5,157.167 371.5,157.5C 360.198,158.41 348.864,158.743 337.5,158.5C 337.167,158.5 336.833,158.5 336.5,158.5C 336.5,158.167 336.5,157.833 336.5,157.5C 336.5,153.5 336.5,149.5 336.5,145.5 Z"/></g>
<g><path style="opacity:1" fill="#f55807" d="M 371.5,156.5 C 360.5,156.5 349.5,156.5 338.5,156.5C 337.908,153.873 337.575,151.206 337.5,148.5C 348.833,148.5 360.167,148.5 371.5,148.5C 371.5,151.167 371.5,153.833 371.5,156.5 Z"/></g>
<g><path style="opacity:1" fill="#b0aead" d="M 116.5,145.5 C 125.244,143.359 130.577,146.526 132.5,155C 130.828,163.342 125.828,166.342 117.5,164C 111.179,158.245 110.845,152.078 116.5,145.5 Z"/></g>
<g><path style="opacity:1" fill="#d9d9d7" d="M 119.5,149.5 C 126.163,148.333 128.997,150.999 128,157.5C 126.315,160.539 123.815,161.705 120.5,161C 119.122,159.287 117.455,157.953 115.5,157C 116.027,153.995 117.36,151.495 119.5,149.5 Z"/></g>
<g><path style="opacity:1" fill="#a4a1a2" d="M 119.5,152.5 C 121.5,152.5 123.5,152.5 125.5,152.5C 125.5,154.167 125.5,155.833 125.5,157.5C 123.5,157.5 121.5,157.5 119.5,157.5C 119.5,155.833 119.5,154.167 119.5,152.5 Z"/></g>
<g><path style="opacity:1" fill="#c8deeb" d="M 188.5,158.5 C 225.5,158.5 262.5,158.5 299.5,158.5C 300.5,158.5 301.5,158.5 302.5,158.5C 302.629,160.216 302.962,161.883 303.5,163.5C 302.163,162.685 301.163,161.518 300.5,160C 262.998,159.833 225.664,159.333 188.5,158.5 Z"/></g>
<g><path style="opacity:1" fill="#f9d3b3" d="M 371.5,157.5 C 370.737,158.268 369.737,158.768 368.5,159C 357.992,159.825 347.658,159.659 337.5,158.5C 348.864,158.743 360.198,158.41 371.5,157.5 Z"/></g>
<g><path style="opacity:1" fill="#e7e1dc" d="M 139.5,158.5 C 142.833,158.5 146.167,158.5 149.5,158.5C 151.213,159.635 151.88,161.302 151.5,163.5C 148.741,161.837 145.075,161.337 140.5,162C 138.465,164.268 136.132,166.101 133.5,167.5C 134.833,164.833 136.167,162.167 137.5,159.5C 138.167,159.167 138.833,158.833 139.5,158.5 Z"/></g>
<g><path style="opacity:1" fill="#aba8a7" d="M 159.5,147.5 C 159.586,148.496 159.252,149.329 158.5,150C 160.138,152.133 160.971,154.633 161,157.5C 163.773,162.22 166.94,162.553 170.5,158.5C 170.914,155.202 171.914,152.202 173.5,149.5C 174.931,149.881 175.764,150.881 176,152.5C 176.667,154.5 176.667,156.5 176,158.5C 174.323,160.676 172.489,162.676 170.5,164.5C 161.86,166.884 156.86,163.551 155.5,154.5C 155.561,151.372 156.894,149.039 159.5,147.5 Z"/></g>
<g><path style="opacity:1" fill="#646263" d="M 164.5,153.5 C 165.5,153.5 166.5,153.5 167.5,153.5C 167.5,154.5 167.5,155.5 167.5,156.5C 166.5,156.5 165.5,156.5 164.5,156.5C 164.5,155.5 164.5,154.5 164.5,153.5 Z"/></g>
<g><path style="opacity:1" fill="#211a18" d="M 327.5,138.5 C 329.153,138.66 330.486,139.326 331.5,140.5C 334.759,145.71 336.426,151.376 336.5,157.5C 336.5,157.833 336.5,158.167 336.5,158.5C 335.167,158.5 333.833,158.5 332.5,158.5C 330.991,164.01 327.658,168.01 322.5,170.5C 317.118,171.02 312.118,170.02 307.5,167.5C 305.806,166.473 304.473,165.139 303.5,163.5C 302.962,161.883 302.629,160.216 302.5,158.5C 301.5,158.5 300.5,158.5 299.5,158.5C 299.5,155.833 299.5,153.167 299.5,150.5C 300.483,146.702 300.817,142.702 300.5,138.5C 309.5,138.5 318.5,138.5 327.5,138.5 Z"/></g>
<g><path style="opacity:1" fill="#aaa8a7" d="M 324.5,148.5 C 325.458,148.953 326.292,149.619 327,150.5C 328.154,161.346 323.32,166.18 312.5,165C 306.207,158.986 305.873,152.652 311.5,146C 316.515,143.612 320.849,144.446 324.5,148.5 Z"/></g>
<g><path style="opacity:1" fill="#d7d6d6" d="M 324.5,148.5 C 324.279,149.735 323.612,150.735 322.5,151.5C 323.309,153.071 323.643,154.738 323.5,156.5C 324.552,156.351 325.552,156.517 326.5,157C 323.155,157.853 320.155,159.353 317.5,161.5C 311.446,159.569 310.112,155.902 313.5,150.5C 317.157,149.752 320.823,149.085 324.5,148.5 Z"/></g>
<g><path style="opacity:1" fill="#9f9d9f" d="M 314.5,152.5 C 316.5,152.5 318.5,152.5 320.5,152.5C 320.5,154.167 320.5,155.833 320.5,157.5C 318.5,157.5 316.5,157.5 314.5,157.5C 314.5,155.833 314.5,154.167 314.5,152.5 Z"/></g>
<g><path style="opacity:1" fill="#6b6969" d="M 129.5,169.5 C 127.366,171.033 124.866,171.7 122,171.5C 119.967,171.494 118.134,171.161 116.5,170.5C 120.881,170.628 125.215,170.295 129.5,169.5 Z"/></g>
<g><path style="opacity:1" fill="#646464" d="M 307.5,167.5 C 312.118,170.02 317.118,171.02 322.5,170.5C 319.024,171.643 315.358,171.81 311.5,171C 309.676,170.34 308.343,169.173 307.5,167.5 Z"/></g>
</svg>
