<?xml version="1.0" encoding="UTF-8"?>
<!DOCTYPE svg PUBLIC "-//W3C//DTD SVG 1.1//EN" "http://www.w3.org/Graphics/SVG/1.1/DTD/svg11.dtd">
<svg xmlns="http://www.w3.org/2000/svg" version="1.1" width="566px" height="192px" style="shape-rendering:geometricPrecision; text-rendering:geometricPrecision; image-rendering:optimizeQuality; fill-rule:evenodd; clip-rule:evenodd" xmlns:xlink="http://www.w3.org/1999/xlink">
<g><path style="opacity:0.988" fill="#fdfdfd" d="M -0.5,-0.5 C 188.167,-0.5 376.833,-0.5 565.5,-0.5C 565.5,63.5 565.5,127.5 565.5,191.5C 376.833,191.5 188.167,191.5 -0.5,191.5C -0.5,127.5 -0.5,63.5 -0.5,-0.5 Z"/></g>
<g><path style="opacity:1" fill="#2f2f2f" d="M 489.5,50.5 C 490.103,58.4987 490.27,66.4987 490,74.5C 489.819,71.3054 489.319,68.3054 488.5,65.5C 487.383,61.7051 486.717,57.7051 486.5,53.5C 482.298,53.8168 478.298,53.4834 474.5,52.5C 474.5,50.1667 474.5,47.8333 474.5,45.5C 477.024,40.4847 476.691,35.4847 473.5,30.5C 468.02,25.219 462.52,25.219 457,30.5C 454.97,37.211 455.137,43.8776 457.5,50.5C 457.315,51.5837 456.982,52.5837 456.5,53.5C 452.5,53.5 448.5,53.5 444.5,53.5C 444.693,57.5662 444.36,61.5662 443.5,65.5C 442.732,66.2625 442.232,67.2625 442,68.5C 441.502,71.8168 441.335,75.1501 441.5,78.5C 441.5,78.8333 441.5,79.1667 441.5,79.5C 440.515,83.6344 440.182,87.9677 440.5,92.5C 457.5,92.5 474.5,92.5 491.5,92.5C 491.768,90.901 491.434,89.5676 490.5,88.5C 490.5,84.8333 490.5,81.1667 490.5,77.5C 490.5,76.8333 490.833,76.5 491.5,76.5C 492.11,77.391 492.443,78.391 492.5,79.5C 493.725,84.4359 493.392,89.2692 491.5,94C 474.17,94.4999 456.837,94.6666 439.5,94.5C 438.833,94.1667 438.167,93.8333 437.5,93.5C 436.225,90.3962 436.225,87.3962 437.5,84.5C 438.302,83.0484 438.802,81.3817 439,79.5C 439.499,73.5092 439.666,67.5092 439.5,61.5C 439.89,58.1606 440.39,54.8273 441,51.5C 441.903,50.2986 443.069,49.4652 444.5,49C 447.226,48.8184 449.893,48.3184 452.5,47.5C 447.908,39.9788 448.908,33.3121 455.5,27.5C 457.942,26.5536 459.942,25.0536 461.5,23C 463.833,22.3333 466.167,22.3333 468.5,23C 470.73,24.8854 473.23,26.3854 476,27.5C 480.573,33.8542 481.74,40.8542 479.5,48.5C 483.085,48.1524 486.418,48.819 489.5,50.5 Z"/></g>
<g><path style="opacity:1" fill="#6c7f93" d="M 278.5,32.5 C 278.5,32.8333 278.5,33.1667 278.5,33.5C 198.763,33.1698 119.096,33.5031 39.5,34.5C 39.8807,33.0689 40.8807,32.2355 42.5,32C 121.334,31.1677 200.001,31.3344 278.5,32.5 Z"/></g>
<g><path style="opacity:1" fill="#cbcbcb" d="M 474.5,45.5 C 473.833,46.8333 473.167,48.1667 472.5,49.5C 472.672,48.5084 472.338,47.8417 471.5,47.5C 474.492,41.7631 474.159,36.2631 470.5,31C 467.167,30.3333 463.833,30.3333 460.5,31C 455.724,36.3295 455.39,41.8295 459.5,47.5C 459.5,47.8333 459.5,48.1667 459.5,48.5C 459.741,51.0336 458.741,52.7002 456.5,53.5C 456.982,52.5837 457.315,51.5837 457.5,50.5C 455.137,43.8776 454.97,37.211 457,30.5C 462.52,25.219 468.02,25.219 473.5,30.5C 476.691,35.4847 477.024,40.4847 474.5,45.5 Z"/></g>
<g><path style="opacity:1" fill="#2e2e2e" d="M 471.5,47.5 C 467.5,47.5 463.5,47.5 459.5,47.5C 455.39,41.8295 455.724,36.3295 460.5,31C 463.833,30.3333 467.167,30.3333 470.5,31C 474.159,36.2631 474.492,41.7631 471.5,47.5 Z"/></g>
<g><path style="opacity:1" fill="#072b48" d="M 278.5,33.5 C 286.364,34.3836 294.031,36.0503 301.5,38.5C 305.273,41.2891 309.273,43.7891 313.5,46C 316.432,48.2845 319.098,50.7845 321.5,53.5C 321.5,54.1667 321.167,54.5 320.5,54.5C 319.791,53.596 318.791,53.2627 317.5,53.5C 315.744,51.0552 313.411,49.2218 310.5,48C 309.207,47.51 307.873,47.3433 306.5,47.5C 306.5,48.5 306.5,49.5 306.5,50.5C 302.486,50.6655 298.486,50.4988 294.5,50C 295.759,49.0766 297.092,48.2432 298.5,47.5C 296.336,46.5857 294.336,45.419 292.5,44C 292.833,43.6667 293.167,43.3333 293.5,43C 286.944,36.702 279.444,35.202 271,38.5C 195.492,38.6874 120.325,38.354 45.5,37.5C 44.4461,37.6799 43.4461,38.0133 42.5,38.5C 41.5676,40.766 40.2342,42.766 38.5,44.5C 37.5159,47.4281 37.1826,50.4281 37.5,53.5C 35.9966,47.0531 36.6632,40.7198 39.5,34.5C 119.096,33.5031 198.763,33.1698 278.5,33.5 Z"/></g>
<g><path style="opacity:1" fill="#e6e6e6" d="M 461.5,34.5 C 467.831,33.0291 470.998,35.3624 471,41.5C 466.166,45.9451 462.333,45.2784 459.5,39.5C 460.174,37.8045 460.841,36.1379 461.5,34.5 Z"/></g>
<g><path style="opacity:1" fill="#022b4c" d="M 317.5,53.5 C 224.167,53.5 130.833,53.5 37.5,53.5C 37.1826,50.4281 37.5159,47.4281 38.5,44.5C 40.2342,42.766 41.5676,40.766 42.5,38.5C 43.4461,38.0133 44.4461,37.6799 45.5,37.5C 120.325,38.354 195.492,38.6874 271,38.5C 279.444,35.202 286.944,36.702 293.5,43C 293.167,43.3333 292.833,43.6667 292.5,44C 294.336,45.419 296.336,46.5857 298.5,47.5C 297.092,48.2432 295.759,49.0766 294.5,50C 298.486,50.4988 302.486,50.6655 306.5,50.5C 306.5,49.5 306.5,48.5 306.5,47.5C 307.873,47.3433 309.207,47.51 310.5,48C 313.411,49.2218 315.744,51.0552 317.5,53.5 Z"/></g>
<g><path style="opacity:1" fill="#c4d0d8" d="M 278.5,33.5 C 278.5,33.1667 278.5,32.8333 278.5,32.5C 283.511,32.3341 288.511,32.5007 293.5,33C 296.397,34.6058 299.064,36.4391 301.5,38.5C 294.031,36.0503 286.364,34.3836 278.5,33.5 Z"/></g>
<g><path style="opacity:1" fill="#fbfbfb" d="M 471.5,47.5 C 472.338,47.8417 472.672,48.5084 472.5,49.5C 472.427,51.0269 473.094,52.0269 474.5,52.5C 478.298,53.4834 482.298,53.8168 486.5,53.5C 486.717,57.7051 487.383,61.7051 488.5,65.5C 488.183,69.7016 488.517,73.7016 489.5,77.5C 489.5,81.8333 489.5,86.1667 489.5,90.5C 473.833,90.5 458.167,90.5 442.5,90.5C 442.5,86.5 442.5,82.5 442.5,78.5C 442.586,74.1434 442.92,69.81 443.5,65.5C 444.36,61.5662 444.693,57.5662 444.5,53.5C 448.5,53.5 452.5,53.5 456.5,53.5C 458.741,52.7002 459.741,51.0336 459.5,48.5C 463.779,50.1119 467.779,49.7786 471.5,47.5 Z"/></g>
<g><path style="opacity:1" fill="#626262" d="M 459.5,48.5 C 459.5,48.1667 459.5,47.8333 459.5,47.5C 463.5,47.5 467.5,47.5 471.5,47.5C 467.779,49.7786 463.779,50.1119 459.5,48.5 Z"/></g>
<g><path style="opacity:1" fill="#6d6d6d" d="M 474.5,45.5 C 474.5,47.8333 474.5,50.1667 474.5,52.5C 473.094,52.0269 472.427,51.0269 472.5,49.5C 473.167,48.1667 473.833,46.8333 474.5,45.5 Z"/></g>
<g><path style="opacity:1" fill="#124367" d="M 39.5,34.5 C 36.6632,40.7198 35.9966,47.0531 37.5,53.5C 130.833,53.5 224.167,53.5 317.5,53.5C 318.791,53.2627 319.791,53.596 320.5,54.5C 226.167,54.5 131.833,54.5 37.5,54.5C 35.5539,49.6042 34.8872,44.2709 35.5,38.5C 36.393,36.703 37.7263,35.3696 39.5,34.5 Z"/></g>
<g><path style="opacity:1" fill="#3578a4" d="M 35.5,38.5 C 34.8872,44.2709 35.5539,49.6042 37.5,54.5C 84.8322,55.1667 132.332,55.5 180,55.5C 227.838,55.4999 275.338,54.8333 322.5,53.5C 325.262,55.9192 327.595,58.5859 329.5,61.5C 329.678,62.6948 330.011,63.8615 330.5,65C 328.56,78.0253 327.894,91.192 328.5,104.5C 329.5,104.5 330.5,104.5 331.5,104.5C 330.527,106.068 330.36,107.735 331,109.5C 332,110.833 333,110.833 334,109.5C 335.077,114.115 337.91,115.615 342.5,114C 343.914,112.007 344.914,109.84 345.5,107.5C 346.833,107.5 348.167,107.5 349.5,107.5C 352.228,108.205 355.061,108.872 358,109.5C 358.333,108.167 358.667,106.833 359,105.5C 360.371,107.041 361.871,108.375 363.5,109.5C 364.272,110.694 365.272,111.694 366.5,112.5C 365.873,117.141 365.54,121.807 365.5,126.5C 364.833,126.5 364.5,126.833 364.5,127.5C 361.092,128.367 357.758,129.533 354.5,131C 350.961,133.419 347.628,135.919 344.5,138.5C 341.032,135.595 337.032,133.428 332.5,132C 328.5,131.333 324.5,131.333 320.5,132C 317.232,135.105 313.565,137.605 309.5,139.5C 307.396,139.799 305.396,139.466 303.5,138.5C 304.877,136.711 305.877,134.711 306.5,132.5C 312.104,128.532 318.104,125.365 324.5,123C 325.337,121.989 325.67,120.822 325.5,119.5C 326.662,101.338 326.829,83.0046 326,64.5C 325.308,63.9747 324.808,63.3081 324.5,62.5C 311.846,61.334 299.18,61.1674 286.5,62C 285.667,62.8333 284.833,63.6667 284,64.5C 283.5,89.4978 283.333,114.498 283.5,139.5C 281.833,139.5 280.167,139.5 278.5,139.5C 278.5,129.167 278.5,118.833 278.5,108.5C 278.667,93.163 278.5,77.8297 278,62.5C 264.246,61.5101 250.412,61.1767 236.5,61.5C 236.5,87.5 236.5,113.5 236.5,139.5C 209.5,139.5 182.5,139.5 155.5,139.5C 152.711,137.359 149.711,135.693 146.5,134.5C 145.942,133.21 144.942,132.377 143.5,132C 136.987,131.828 130.653,131.328 124.5,130.5C 124.567,129.041 124.234,127.708 123.5,126.5C 123.649,125.448 123.483,124.448 123,123.5C 120.269,120.437 117.936,117.104 116,113.5C 113.527,112.88 111.027,112.214 108.5,111.5C 108.291,110.914 107.957,110.414 107.5,110C 95.6667,109.833 83.8333,109.667 72,109.5C 59.8139,109.501 47.9806,110.168 36.5,111.5C 35.8333,111.5 35.1667,111.5 34.5,111.5C 34.169,86.9943 34.5024,62.6609 35.5,38.5 Z"/></g>
<g><path style="opacity:1" fill="#31698f" d="M 321.5,53.5 C 321.833,53.5 322.167,53.5 322.5,53.5C 275.338,54.8333 227.838,55.4999 180,55.5C 132.332,55.5 84.8322,55.1667 37.5,54.5C 131.833,54.5 226.167,54.5 320.5,54.5C 321.167,54.5 321.5,54.1667 321.5,53.5 Z"/></g>
<g><path style="opacity:1" fill="#a0a0a0" d="M 439.5,61.5 C 439.666,67.5092 439.499,73.5092 439,79.5C 438.802,81.3817 438.302,83.0484 437.5,84.5C 437.882,76.6613 438.549,68.9946 439.5,61.5 Z"/></g>
<g><path style="opacity:1" fill="#131313" d="M 459.5,65.5 C 463.5,65.5 467.5,65.5 471.5,65.5C 471.5,66.5 471.5,67.5 471.5,68.5C 469.833,68.5 468.167,68.5 466.5,68.5C 465.834,72.3525 465.167,76.3525 464.5,80.5C 463.833,76.3525 463.166,72.3525 462.5,68.5C 461.5,68.5 460.5,68.5 459.5,68.5C 459.5,67.5 459.5,66.5 459.5,65.5 Z"/></g>
<g><path style="opacity:1" fill="#4c4c4c" d="M 489.5,50.5 C 490.302,51.9516 490.802,53.6183 491,55.5C 491.5,62.4921 491.666,69.4921 491.5,76.5C 490.833,76.5 490.5,76.8333 490.5,77.5C 490.167,77.5 489.833,77.5 489.5,77.5C 488.517,73.7016 488.183,69.7016 488.5,65.5C 489.319,68.3054 489.819,71.3054 490,74.5C 490.27,66.4987 490.103,58.4987 489.5,50.5 Z"/></g>
<g><path style="opacity:1" fill="#1c5585" d="M 188.5,62.5 C 198.681,62.1726 208.681,62.506 218.5,63.5C 219.234,64.7079 219.567,66.0413 219.5,67.5C 209.161,67.6665 198.828,67.4998 188.5,67C 187.272,65.5098 187.272,64.0098 188.5,62.5 Z"/></g>
<g><path style="opacity:1" fill="#666666" d="M 462.5,68.5 C 463.166,72.3525 463.833,76.3525 464.5,80.5C 465.167,76.3525 465.834,72.3525 466.5,68.5C 466.5,72.8333 466.5,77.1667 466.5,81.5C 465.167,81.5 463.833,81.5 462.5,81.5C 462.5,77.1667 462.5,72.8333 462.5,68.5 Z"/></g>
<g><path style="opacity:1" fill="#b8b8b8" d="M 459.5,65.5 C 459.5,66.5 459.5,67.5 459.5,68.5C 460.5,68.5 461.5,68.5 462.5,68.5C 462.5,72.8333 462.5,77.1667 462.5,81.5C 461.517,77.7016 461.183,73.7016 461.5,69.5C 460.5,69.5 459.5,69.5 458.5,69.5C 458.232,67.901 458.566,66.5676 459.5,65.5 Z"/></g>
<g><path style="opacity:1" fill="#868686" d="M 443.5,65.5 C 442.92,69.81 442.586,74.1434 442.5,78.5C 442.167,78.5 441.833,78.5 441.5,78.5C 441.335,75.1501 441.502,71.8168 442,68.5C 442.232,67.2625 442.732,66.2625 443.5,65.5 Z"/></g>
<g><path style="opacity:1" fill="#245b86" d="M 325.5,119.5 C 325.666,115.154 325.499,110.821 325,106.5C 322.666,104.98 320.166,103.98 317.5,103.5C 319.833,103.5 322.167,103.5 324.5,103.5C 325.147,90.4559 324.48,77.7892 322.5,65.5C 310.833,65.5 299.167,65.5 287.5,65.5C 286.505,76.6544 286.172,87.9877 286.5,99.5C 285.566,100.568 285.232,101.901 285.5,103.5C 288.385,103.194 291.052,103.527 293.5,104.5C 294.451,105.919 294.784,107.585 294.5,109.5C 291.5,109.5 288.5,109.5 285.5,109.5C 285.114,119.67 284.447,129.67 283.5,139.5C 283.333,114.498 283.5,89.4978 284,64.5C 284.833,63.6667 285.667,62.8333 286.5,62C 299.18,61.1674 311.846,61.334 324.5,62.5C 324.808,63.3081 325.308,63.9747 326,64.5C 326.829,83.0046 326.662,101.338 325.5,119.5 Z"/></g>
<g><path style="opacity:1" fill="#9bd4f7" d="M 287.5,65.5 C 299.167,65.5 310.833,65.5 322.5,65.5C 322.5,77.8333 322.5,90.1667 322.5,102.5C 320.585,102.784 318.919,102.451 317.5,101.5C 318.833,101.5 320.167,101.5 321.5,101.5C 321.663,99.1432 321.497,96.8098 321,94.5C 316.93,85.2633 313.096,75.93 309.5,66.5C 304.5,66.5 299.5,66.5 294.5,66.5C 295.272,73.1569 297.606,79.1569 301.5,84.5C 303.523,90.5215 306.189,96.1882 309.5,101.5C 304.493,101.249 299.493,100.916 294.5,100.5C 292.401,99.3882 290.067,98.7215 287.5,98.5C 287.5,87.5 287.5,76.5 287.5,65.5 Z"/></g>
<g><path style="opacity:1" fill="#679dc5" d="M 322.5,65.5 C 324.48,77.7892 325.147,90.4559 324.5,103.5C 322.167,103.5 319.833,103.5 317.5,103.5C 314.572,103.435 311.905,102.768 309.5,101.5C 312.167,101.5 314.833,101.5 317.5,101.5C 318.919,102.451 320.585,102.784 322.5,102.5C 322.5,90.1667 322.5,77.8333 322.5,65.5 Z"/></g>
<g><path style="opacity:1" fill="#92cff3" d="M 349.5,107.5 C 348.167,107.5 346.833,107.5 345.5,107.5C 342.64,106.996 339.973,105.996 337.5,104.5C 336.673,100.541 336.173,96.5408 336,92.5C 334.989,91.6634 333.822,91.33 332.5,91.5C 332.5,94.5 332.5,97.5 332.5,100.5C 331.842,101.398 331.176,102.398 330.5,103.5C 329.501,92.1862 329.168,80.8529 329.5,69.5C 330.822,69.33 331.989,69.6634 333,70.5C 335.684,75.2072 338.351,79.8739 341,84.5C 344.857,87.3486 347.523,91.0153 349,95.5C 351.511,97.6703 353.677,100.17 355.5,103C 356.148,104.44 356.481,105.94 356.5,107.5C 354.167,107.5 351.833,107.5 349.5,107.5 Z"/></g>
<g><path style="opacity:1" fill="#649ac3" d="M 287.5,65.5 C 287.5,76.5 287.5,87.5 287.5,98.5C 290.067,98.7215 292.401,99.3882 294.5,100.5C 291.615,100.806 288.948,100.473 286.5,99.5C 286.172,87.9877 286.505,76.6544 287.5,65.5 Z"/></g>
<g><path style="opacity:1" fill="#cbe9f6" d="M 317.5,101.5 C 314.833,101.5 312.167,101.5 309.5,101.5C 306.189,96.1882 303.523,90.5215 301.5,84.5C 297.606,79.1569 295.272,73.1569 294.5,66.5C 299.5,66.5 304.5,66.5 309.5,66.5C 313.096,75.93 316.93,85.2633 321,94.5C 321.497,96.8098 321.663,99.1432 321.5,101.5C 320.167,101.5 318.833,101.5 317.5,101.5 Z"/></g>
<g><path style="opacity:1" fill="#e2f3fb" d="M 301.5,84.5 C 300.086,78.9947 298.086,73.6613 295.5,68.5C 298.446,67.3452 301.446,67.1786 304.5,68C 308.543,78.9013 312.876,89.7347 317.5,100.5C 314.784,100.322 312.117,99.8215 309.5,99C 308.142,95.927 306.975,92.7603 306,89.5C 304.476,87.7286 302.976,86.0619 301.5,84.5 Z"/></g>
<g><path style="opacity:1" fill="#5f93b4" d="M 329.5,61.5 C 330.496,61.4142 331.329,61.7476 332,62.5C 342.554,78.0808 353.054,93.7475 363.5,109.5C 361.871,108.375 360.371,107.041 359,105.5C 358.667,106.833 358.333,108.167 358,109.5C 355.061,108.872 352.228,108.205 349.5,107.5C 351.833,107.5 354.167,107.5 356.5,107.5C 356.481,105.94 356.148,104.44 355.5,103C 353.677,100.17 351.511,97.6703 349,95.5C 347.523,91.0153 344.857,87.3486 341,84.5C 338.351,79.8739 335.684,75.2072 333,70.5C 331.989,69.6634 330.822,69.33 329.5,69.5C 329.168,80.8529 329.501,92.1862 330.5,103.5C 331.176,102.398 331.842,101.398 332.5,100.5C 332.768,102.099 332.434,103.432 331.5,104.5C 330.5,104.5 329.5,104.5 328.5,104.5C 327.894,91.192 328.56,78.0253 330.5,65C 330.011,63.8615 329.678,62.6948 329.5,61.5 Z"/></g>
<g><path style="opacity:1" fill="#154d7e" d="M 219.5,88.5 C 219.67,89.8221 219.337,90.9887 218.5,92C 208.839,92.4998 199.172,92.6665 189.5,92.5C 188.766,91.2921 188.433,89.9587 188.5,88.5C 198.833,88.5 209.167,88.5 219.5,88.5 Z"/></g>
<g><path style="opacity:1" fill="#d8d8d8" d="M 489.5,77.5 C 489.833,77.5 490.167,77.5 490.5,77.5C 490.5,81.1667 490.5,84.8333 490.5,88.5C 490.5,89.5 490.5,90.5 490.5,91.5C 474.167,91.5 457.833,91.5 441.5,91.5C 441.5,87.5 441.5,83.5 441.5,79.5C 441.5,79.1667 441.5,78.8333 441.5,78.5C 441.833,78.5 442.167,78.5 442.5,78.5C 442.5,82.5 442.5,86.5 442.5,90.5C 458.167,90.5 473.833,90.5 489.5,90.5C 489.5,86.1667 489.5,81.8333 489.5,77.5 Z"/></g>
<g><path style="opacity:1" fill="#aeaeae" d="M 441.5,79.5 C 441.5,83.5 441.5,87.5 441.5,91.5C 457.833,91.5 474.167,91.5 490.5,91.5C 490.5,90.5 490.5,89.5 490.5,88.5C 491.434,89.5676 491.768,90.901 491.5,92.5C 474.5,92.5 457.5,92.5 440.5,92.5C 440.182,87.9677 440.515,83.6344 441.5,79.5 Z"/></g>
<g><path style="opacity:1" fill="#2b6897" d="M 188.5,62.5 C 187.272,64.0098 187.272,65.5098 188.5,67C 198.828,67.4998 209.161,67.6665 219.5,67.5C 219.567,66.0413 219.234,64.7079 218.5,63.5C 219.5,63.5 220.5,63.5 221.5,63.5C 220.855,66.5468 221.855,68.7135 224.5,70C 223.552,70.4828 222.552,70.6495 221.5,70.5C 221.198,75.0912 220.531,79.5912 219.5,84C 210.833,84.3333 202.167,84.6667 193.5,85C 201.731,86.2729 210.064,86.9395 218.5,87C 219.056,87.3826 219.389,87.8826 219.5,88.5C 209.167,88.5 198.833,88.5 188.5,88.5C 188.433,89.9587 188.766,91.2921 189.5,92.5C 188.262,92.81 188.262,93.31 189.5,94C 199.854,94.2955 210.187,94.7955 220.5,95.5C 220.784,97.4147 220.451,99.0813 219.5,100.5C 219.5,99.1667 219.5,97.8333 219.5,96.5C 208.833,96.5 198.167,96.5 187.5,96.5C 187.5,97.8333 187.5,99.1667 187.5,100.5C 186.953,98.4821 185.953,96.6487 184.5,95C 186.745,92.1041 187.078,88.9374 185.5,85.5C 186.123,82.8332 187.123,80.3332 188.5,78C 184.562,72.6101 184.562,67.4434 188.5,62.5 Z"/></g>
<g><path style="opacity:1" fill="#164b7d" d="M 188.5,80.5 C 198.172,80.3335 207.839,80.5002 217.5,81C 217.957,81.414 218.291,81.914 218.5,82.5C 208.522,83.4985 198.522,83.8319 188.5,83.5C 188.5,82.5 188.5,81.5 188.5,80.5 Z"/></g>
<g><path style="opacity:1" fill="#3b3b3b" d="M 492.5,79.5 C 493.973,82.0169 494.64,84.8502 494.5,88C 495.012,91.263 494.012,93.763 491.5,95.5C 473.992,95.83 456.659,95.4967 439.5,94.5C 456.837,94.6666 474.17,94.4999 491.5,94C 493.392,89.2692 493.725,84.4359 492.5,79.5 Z"/></g>
<g><path style="opacity:1" fill="#757575" d="M 437.5,93.5 C 438.167,93.8333 438.833,94.1667 439.5,94.5C 456.659,95.4967 473.992,95.83 491.5,95.5C 474.005,96.6619 456.338,96.8286 438.5,96C 437.748,95.3292 437.414,94.4959 437.5,93.5 Z"/></g>
<g><path style="opacity:1" fill="#255984" d="M 278.5,108.5 C 277.5,108.5 276.5,108.5 275.5,108.5C 273.393,109.468 271.059,109.802 268.5,109.5C 268.261,107.533 268.594,105.699 269.5,104C 271.81,103.503 274.143,103.337 276.5,103.5C 276.5,102.5 276.5,101.5 276.5,100.5C 263.989,100.829 251.655,100.495 239.5,99.5C 237.84,112.635 236.84,125.969 236.5,139.5C 236.5,113.5 236.5,87.5 236.5,61.5C 250.412,61.1767 264.246,61.5101 278,62.5C 278.5,77.8297 278.667,93.163 278.5,108.5 Z"/></g>
<g><path style="opacity:1" fill="#99d1f3" d="M 239.5,99.5 C 239.5,88.1667 239.5,76.8333 239.5,65.5C 251.5,65.5 263.5,65.5 275.5,65.5C 275.811,76.5516 275.478,87.5516 274.5,98.5C 262.852,99.4989 251.186,99.8322 239.5,99.5 Z"/></g>
<g><path style="opacity:1" fill="#d4eff9" d="M 244.5,66.5 C 249.762,66.1953 254.928,66.5286 260,67.5C 264.001,77.0864 267.835,86.7531 271.5,96.5C 266.281,97.8042 261.114,97.8042 256,96.5C 251.083,86.914 247.249,76.914 244.5,66.5 Z"/></g>
<g><path style="opacity:1" fill="#144c7d" d="M 219.5,100.5 C 208.833,100.5 198.167,100.5 187.5,100.5C 187.5,99.1667 187.5,97.8333 187.5,96.5C 198.167,96.5 208.833,96.5 219.5,96.5C 219.5,97.8333 219.5,99.1667 219.5,100.5 Z"/></g>
<g><path style="opacity:1" fill="#134475" d="M 239.5,99.5 C 251.655,100.495 263.989,100.829 276.5,100.5C 276.5,101.5 276.5,102.5 276.5,103.5C 274.143,103.337 271.81,103.503 269.5,104C 268.594,105.699 268.261,107.533 268.5,109.5C 271.059,109.802 273.393,109.468 275.5,108.5C 276.5,108.5 277.5,108.5 278.5,108.5C 278.5,118.833 278.5,129.167 278.5,139.5C 280.167,139.5 281.833,139.5 283.5,139.5C 284.447,129.67 285.114,119.67 285.5,109.5C 288.5,109.5 291.5,109.5 294.5,109.5C 294.784,107.585 294.451,105.919 293.5,104.5C 291.052,103.527 288.385,103.194 285.5,103.5C 285.232,101.901 285.566,100.568 286.5,99.5C 288.948,100.473 291.615,100.806 294.5,100.5C 299.493,100.916 304.493,101.249 309.5,101.5C 311.905,102.768 314.572,103.435 317.5,103.5C 320.166,103.98 322.666,104.98 325,106.5C 325.499,110.821 325.666,115.154 325.5,119.5C 325.67,120.822 325.337,121.989 324.5,123C 318.104,125.365 312.104,128.532 306.5,132.5C 305.877,134.711 304.877,136.711 303.5,138.5C 305.396,139.466 307.396,139.799 309.5,139.5C 309.5,140.167 309.5,140.833 309.5,141.5C 307.143,141.337 304.81,141.503 302.5,142C 302.31,148.853 298.81,151.686 292,150.5C 285.713,150.987 282.713,147.987 283,141.5C 281.644,140.62 280.144,140.286 278.5,140.5C 278.5,143.833 278.5,147.167 278.5,150.5C 264.167,151.833 249.833,151.833 235.5,150.5C 235.5,147.5 235.5,144.5 235.5,141.5C 208.859,140.535 182.192,140.202 155.5,140.5C 155.5,140.167 155.5,139.833 155.5,139.5C 182.5,139.5 209.5,139.5 236.5,139.5C 236.84,125.969 237.84,112.635 239.5,99.5 Z"/></g>
<g><path style="opacity:1" fill="#80a3ad" d="M 293.5,104.5 C 293.5,105.833 293.5,107.167 293.5,108.5C 291.167,108.5 288.833,108.5 286.5,108.5C 286.5,107.167 286.5,105.833 286.5,104.5C 288.833,104.5 291.167,104.5 293.5,104.5 Z"/></g>
<g><path style="opacity:1" fill="#9fb9c0" d="M 275.5,108.5 C 273.023,108.949 271.023,108.283 269.5,106.5C 271.044,104.554 273.044,104.054 275.5,105C 276.684,106.145 276.684,107.312 275.5,108.5 Z"/></g>
<g><path style="opacity:1" fill="#225d8b" d="M 187.5,103.5 C 198.167,103.5 208.833,103.5 219.5,103.5C 219.739,105.467 219.406,107.301 218.5,109C 208.5,109.667 198.5,109.667 188.5,109C 187.594,107.301 187.261,105.467 187.5,103.5 Z"/></g>
<g><path style="opacity:1" fill="#266392" d="M 123.5,126.5 C 120.399,123.165 117.399,119.665 114.5,116C 110.644,115.133 106.977,113.8 103.5,112C 81.1692,111.5 58.8358,111.333 36.5,111.5C 47.9806,110.168 59.8139,109.501 72,109.5C 83.8333,109.667 95.6667,109.833 107.5,110C 107.957,110.414 108.291,110.914 108.5,111.5C 111.027,112.214 113.527,112.88 116,113.5C 117.936,117.104 120.269,120.437 123,123.5C 123.483,124.448 123.649,125.448 123.5,126.5 Z"/></g>
<g><path style="opacity:1" fill="#33698e" d="M 345.5,107.5 C 344.914,109.84 343.914,112.007 342.5,114C 337.91,115.615 335.077,114.115 334,109.5C 333,110.833 332,110.833 331,109.5C 330.36,107.735 330.527,106.068 331.5,104.5C 332.434,103.432 332.768,102.099 332.5,100.5C 332.5,97.5 332.5,94.5 332.5,91.5C 333.822,91.33 334.989,91.6634 336,92.5C 336.173,96.5408 336.673,100.541 337.5,104.5C 339.973,105.996 342.64,106.996 345.5,107.5 Z"/></g>
<g><path style="opacity:1" fill="#134575" d="M 34.5,111.5 C 35.1667,111.5 35.8333,111.5 36.5,111.5C 58.8358,111.333 81.1692,111.5 103.5,112C 106.977,113.8 110.644,115.133 114.5,116C 117.399,119.665 120.399,123.165 123.5,126.5C 124.234,127.708 124.567,129.041 124.5,130.5C 113.828,130.333 103.161,130.5 92.5,131C 87.1759,132.839 82.5093,135.672 78.5,139.5C 65.1667,139.5 51.8333,139.5 38.5,139.5C 38.5,140.5 38.5,141.5 38.5,142.5C 35.7929,138.693 34.4596,134.36 34.5,129.5C 35.7999,124.6 35.7999,119.6 34.5,114.5C 34.5,113.833 34.5,113.167 34.5,112.5C 34.5,112.167 34.5,111.833 34.5,111.5 Z"/></g>
<g><path style="opacity:1" fill="#7b474c" d="M 31.5,115.5 C 32.209,114.596 33.209,114.263 34.5,114.5C 35.7999,119.6 35.7999,124.6 34.5,129.5C 32.8212,129.715 31.8212,129.048 31.5,127.5C 32.5,127.5 33.5,127.5 34.5,127.5C 34.6653,123.818 34.4986,120.152 34,116.5C 33.3292,115.748 32.4959,115.414 31.5,115.5 Z"/></g>
<g><path style="opacity:1" fill="#797f69" d="M 366.5,112.5 C 367.404,113.209 367.737,114.209 367.5,115.5C 367.5,116.167 367.5,116.833 367.5,117.5C 367.5,123.167 367.5,128.833 367.5,134.5C 366.833,131.833 366.167,129.167 365.5,126.5C 365.54,121.807 365.873,117.141 366.5,112.5 Z"/></g>
<g><path style="opacity:1" fill="#dfb45a" d="M 367.5,117.5 C 370.238,118.811 372.405,120.811 374,123.5C 374.499,127.152 374.665,130.818 374.5,134.5C 374.5,134.833 374.5,135.167 374.5,135.5C 374.167,135.5 373.833,135.5 373.5,135.5C 371.265,135.795 369.265,135.461 367.5,134.5C 367.5,128.833 367.5,123.167 367.5,117.5 Z"/></g>
<g><path style="opacity:1" fill="#a24337" d="M 31.5,115.5 C 32.4959,115.414 33.3292,115.748 34,116.5C 34.4986,120.152 34.6653,123.818 34.5,127.5C 33.5,127.5 32.5,127.5 31.5,127.5C 31.5,123.5 31.5,119.5 31.5,115.5 Z"/></g>
<g><path style="opacity:1" fill="#f6e8c5" d="M 367.5,115.5 C 372.019,115.515 374.519,117.848 375,122.5C 375.499,126.486 375.666,130.486 375.5,134.5C 375.167,134.5 374.833,134.5 374.5,134.5C 374.665,130.818 374.499,127.152 374,123.5C 372.405,120.811 370.238,118.811 367.5,117.5C 367.5,116.833 367.5,116.167 367.5,115.5 Z"/></g>
<g><path style="opacity:1" fill="#db9485" d="M 34.5,112.5 C 34.5,113.167 34.5,113.833 34.5,114.5C 33.209,114.263 32.209,114.596 31.5,115.5C 31.5,119.5 31.5,123.5 31.5,127.5C 30.3516,123.019 30.1849,118.352 31,113.5C 32.0113,112.663 33.1779,112.33 34.5,112.5 Z"/></g>
<g><path style="opacity:1" fill="#a3a3a3" d="M 520.5,126.5 C 514.797,126.375 509.13,126.708 503.5,127.5C 506.526,125.981 509.859,125.315 513.5,125.5C 516.025,125.503 518.359,125.837 520.5,126.5 Z"/></g>
<g><path style="opacity:1" fill="#296492" d="M 219.5,133.5 C 219.5,132.5 219.5,131.5 219.5,130.5C 209.5,130.5 199.5,130.5 189.5,130.5C 189.5,131.5 189.5,132.5 189.5,133.5C 199.167,133.5 208.833,133.5 218.5,133.5C 208.675,134.658 198.675,134.825 188.5,134C 186.541,126.832 185.875,119.665 186.5,112.5C 197.5,112.5 208.5,112.5 219.5,112.5C 219.25,117.11 219.583,121.777 220.5,126.5C 211.332,126.03 202.332,126.53 193.5,128C 202.167,128.333 210.833,128.667 219.5,129C 220.801,130.616 220.801,132.116 219.5,133.5 Z"/></g>
<g><path style="opacity:1" fill="#154d7d" d="M 188.5,121.5 C 198.5,121.5 208.5,121.5 218.5,121.5C 218.5,122.5 218.5,123.5 218.5,124.5C 208.5,124.5 198.5,124.5 188.5,124.5C 188.5,123.5 188.5,122.5 188.5,121.5 Z"/></g>
<g><path style="opacity:1" fill="#4b4b4b" d="M 437.5,126.5 C 442.511,126.334 447.511,126.501 452.5,127C 453.973,127.71 454.64,128.876 454.5,130.5C 451.482,130.296 448.482,129.963 445.5,129.5C 445.825,136.687 445.491,143.687 444.5,150.5C 444.5,142.833 444.5,135.167 444.5,127.5C 443.209,127.263 442.209,127.596 441.5,128.5C 438.99,128.054 436.99,128.72 435.5,130.5C 434.542,130.953 433.708,131.619 433,132.5C 432.753,129.241 434.253,127.241 437.5,126.5 Z"/></g>
<g><path style="opacity:1" fill="#2d373b" d="M 365.5,126.5 C 366.167,129.167 366.833,131.833 367.5,134.5C 369.265,135.461 371.265,135.795 373.5,135.5C 373.5,136.5 373.5,137.5 373.5,138.5C 372.5,138.5 371.5,138.5 370.5,138.5C 365.526,136.65 363.526,132.983 364.5,127.5C 364.5,126.833 364.833,126.5 365.5,126.5 Z"/></g>
<g><path style="opacity:1" fill="#747474" d="M 437.5,126.5 C 434.253,127.241 432.753,129.241 433,132.5C 433.708,131.619 434.542,130.953 435.5,130.5C 435.306,132.912 433.973,133.912 431.5,133.5C 430.677,128.661 432.677,126.327 437.5,126.5 Z"/></g>
<g><path style="opacity:1" fill="#bcbcbc" d="M 503.5,127.5 C 501.89,132.04 502.89,133.04 506.5,130.5C 505.979,133.719 504.312,134.719 501.5,133.5C 499.741,130.495 500.408,128.495 503.5,127.5 Z"/></g>
<g><path style="opacity:1" fill="#a8a8a8" d="M 441.5,128.5 C 441.5,128.833 441.5,129.167 441.5,129.5C 441.5,136.833 441.5,144.167 441.5,151.5C 440.509,144.687 440.175,137.687 440.5,130.5C 438.833,130.5 437.167,130.5 435.5,130.5C 436.99,128.72 438.99,128.054 441.5,128.5 Z"/></g>
<g><path style="opacity:1" fill="#505050" d="M 441.5,129.5 C 441.849,136.726 442.849,143.726 444.5,150.5C 443.791,151.404 442.791,151.737 441.5,151.5C 441.5,144.167 441.5,136.833 441.5,129.5 Z"/></g>
<g><path style="opacity:1" fill="#9e9e9e" d="M 491.5,129.5 C 488.482,129.335 485.482,129.502 482.5,130C 481.577,132.041 481.244,134.208 481.5,136.5C 483.735,136.205 485.735,136.539 487.5,137.5C 485.167,137.5 482.833,137.5 480.5,137.5C 479.271,127.71 482.937,125.044 491.5,129.5 Z"/></g>
<g><path style="opacity:1" fill="#434343" d="M 520.5,126.5 C 523.95,125.756 525.616,127.09 525.5,130.5C 522.482,130.296 519.482,129.963 516.5,129.5C 515.833,136.5 515.167,143.5 514.5,150.5C 514.44,151.043 514.107,151.376 513.5,151.5C 512.833,144.011 512.167,136.678 511.5,129.5C 509.585,129.216 507.919,129.549 506.5,130.5C 502.89,133.04 501.89,132.04 503.5,127.5C 509.13,126.708 514.797,126.375 520.5,126.5 Z"/></g>
<g><path style="opacity:1" fill="#050505" d="M 514.5,150.5 C 514.128,142.908 513.128,135.408 511.5,128C 512.833,127.333 514.167,127.333 515.5,128C 514.519,135.413 514.186,142.913 514.5,150.5 Z"/></g>
<g><path style="opacity:1" fill="#294158" d="M 124.5,130.5 C 130.653,131.328 136.987,131.828 143.5,132C 144.942,132.377 145.942,133.21 146.5,134.5C 128.92,132.27 111.253,131.937 93.5,133.5C 87.8611,134.647 83.1945,137.314 79.5,141.5C 79.6716,140.508 79.3382,139.842 78.5,139.5C 82.5093,135.672 87.1759,132.839 92.5,131C 103.161,130.5 113.828,130.333 124.5,130.5 Z"/></g>
<g><path style="opacity:1" fill="#184f81" d="M 219.5,133.5 C 219.167,133.5 218.833,133.5 218.5,133.5C 208.833,133.5 199.167,133.5 189.5,133.5C 189.5,132.5 189.5,131.5 189.5,130.5C 199.5,130.5 209.5,130.5 219.5,130.5C 219.5,131.5 219.5,132.5 219.5,133.5 Z"/></g>
<g><path style="opacity:1" fill="#6a6a6a" d="M 416.5,130.5 C 415.737,131.268 414.737,131.768 413.5,132C 417.375,132.926 418.375,135.092 416.5,138.5C 416.5,137.167 416.5,135.833 416.5,134.5C 414.5,134.5 412.5,134.5 410.5,134.5C 411.031,131.221 413.031,129.887 416.5,130.5 Z"/></g>
<g><path style="opacity:1" fill="#2e3941" d="M 146.5,134.5 C 149.711,135.693 152.711,137.359 155.5,139.5C 155.5,139.833 155.5,140.167 155.5,140.5C 155.5,141.167 155.5,141.833 155.5,142.5C 156.561,146.351 156.561,150.185 155.5,154C 156.056,155.011 156.722,155.844 157.5,156.5C 156.167,156.5 154.833,156.5 153.5,156.5C 155.379,145.826 151.046,138.659 140.5,135C 137.518,134.502 134.518,134.335 131.5,134.5C 122.167,134.5 112.833,134.5 103.5,134.5C 94.8811,133.44 87.7144,136.107 82,142.5C 81.5008,147.155 81.3342,151.821 81.5,156.5C 80.1667,156.5 78.8333,156.5 77.5,156.5C 78.0906,155.849 78.7573,155.182 79.5,154.5C 77.1398,150.252 77.1398,145.919 79.5,141.5C 83.1945,137.314 87.8611,134.647 93.5,133.5C 111.253,131.937 128.92,132.27 146.5,134.5 Z"/></g>
<g><path style="opacity:1" fill="#2f2f2f" d="M 416.5,130.5 C 417.833,130.5 419.167,130.5 420.5,130.5C 420.5,133.167 420.5,135.833 420.5,138.5C 419.532,140.607 419.198,142.941 419.5,145.5C 421.942,145.354 422.609,146.187 421.5,148C 418.112,148.659 414.779,148.492 411.5,147.5C 412.474,145.915 413.974,144.915 416,144.5C 416.495,142.527 416.662,140.527 416.5,138.5C 418.375,135.092 417.375,132.926 413.5,132C 414.737,131.768 415.737,131.268 416.5,130.5 Z"/></g>
<g><path style="opacity:1" fill="#1b1b1b" d="M 444.5,150.5 C 442.849,143.726 441.849,136.726 441.5,129.5C 441.5,129.167 441.5,128.833 441.5,128.5C 442.209,127.596 443.209,127.263 444.5,127.5C 444.5,135.167 444.5,142.833 444.5,150.5 Z"/></g>
<g><path style="opacity:1" fill="#bfbfbf" d="M 491.5,129.5 C 492.586,129.62 493.253,130.287 493.5,131.5C 492.183,133.518 492.183,135.518 493.5,137.5C 492.833,137.167 492.167,136.833 491.5,136.5C 489.485,135.076 487.152,134.41 484.5,134.5C 484.5,133.5 484.5,132.5 484.5,131.5C 487.388,132.01 489.721,131.344 491.5,129.5 Z"/></g>
<g><path style="opacity:1" fill="#909090" d="M 511.5,129.5 C 512.167,136.678 512.833,144.011 513.5,151.5C 514.107,151.376 514.44,151.043 514.5,150.5C 515.167,143.5 515.833,136.5 516.5,129.5C 516.666,136.841 516.5,144.174 516,151.5C 514.644,152.38 513.144,152.714 511.5,152.5C 511.5,144.833 511.5,137.167 511.5,129.5 Z"/></g>
<g><path style="opacity:1" fill="#c8c8c8" d="M 410.5,134.5 C 412.5,134.5 414.5,134.5 416.5,134.5C 416.5,135.833 416.5,137.167 416.5,138.5C 416.662,140.527 416.495,142.527 416,144.5C 413.974,144.915 412.474,145.915 411.5,147.5C 410.596,146.791 410.263,145.791 410.5,144.5C 411.833,144.5 413.167,144.5 414.5,144.5C 414.5,141.833 414.5,139.167 414.5,136.5C 412.517,136.843 411.183,136.176 410.5,134.5 Z"/></g>
<g><path style="opacity:1" fill="#231f1c" d="M 103.5,134.5 C 107.393,137.463 110.893,141.129 114,145.5C 114.694,149.554 114.527,153.554 113.5,157.5C 112.662,157.842 112.328,158.508 112.5,159.5C 110.359,162.472 107.692,164.972 104.5,167C 100.94,168.237 97.2733,168.737 93.5,168.5C 91.4024,167.065 89.0691,165.898 86.5,165C 84.9697,162.648 83.3031,160.481 81.5,158.5C 81.5,157.833 81.5,157.167 81.5,156.5C 81.3342,151.821 81.5008,147.155 82,142.5C 87.7144,136.107 94.8811,133.44 103.5,134.5 Z"/></g>
<g><path style="opacity:1" fill="#505050" d="M 463.5,136.5 C 465.5,136.5 467.5,136.5 469.5,136.5C 469.5,137.5 469.5,138.5 469.5,139.5C 467.5,139.5 465.5,139.5 463.5,139.5C 463.5,138.5 463.5,137.5 463.5,136.5 Z"/></g>
<g><path style="opacity:1" fill="#686465" d="M 96.5,139.5 C 96.5,141.167 96.5,142.833 96.5,144.5C 93.8915,144.6 91.5582,143.933 89.5,142.5C 91.1757,140.166 93.509,139.166 96.5,139.5 Z"/></g>
<g><path style="opacity:1" fill="#2b2b2b" d="M 491.5,129.5 C 489.721,131.344 487.388,132.01 484.5,131.5C 484.5,132.5 484.5,133.5 484.5,134.5C 487.152,134.41 489.485,135.076 491.5,136.5C 492.265,139.096 492.599,141.763 492.5,144.5C 492.672,145.492 492.338,146.158 491.5,146.5C 488.024,149.869 484.358,150.202 480.5,147.5C 479.596,146.791 479.263,145.791 479.5,144.5C 482.001,145.826 484.668,146.326 487.5,146C 489.953,143.251 489.953,140.417 487.5,137.5C 485.735,136.539 483.735,136.205 481.5,136.5C 481.244,134.208 481.577,132.041 482.5,130C 485.482,129.502 488.482,129.335 491.5,129.5 Z"/></g>
<g><path style="opacity:1" fill="#221e1d" d="M 131.5,134.5 C 134.518,134.335 137.518,134.502 140.5,135C 151.046,138.659 155.379,145.826 153.5,156.5C 152.662,156.842 152.328,157.508 152.5,158.5C 151.732,159.263 151.232,160.263 151,161.5C 148.575,163.667 146.075,165.667 143.5,167.5C 138.05,167.635 132.716,166.969 127.5,165.5C 125.825,163.544 126.158,162.211 128.5,161.5C 134.404,165.611 140.07,165.277 145.5,160.5C 147.818,158.815 148.818,156.481 148.5,153.5C 149.613,152.054 149.78,150.387 149,148.5C 148.284,146.121 147.117,144.121 145.5,142.5C 145.167,142.5 144.833,142.5 144.5,142.5C 143.942,141.21 142.942,140.377 141.5,140C 138.167,139.333 134.833,139.333 131.5,140C 129.294,142.037 127.294,144.203 125.5,146.5C 124.27,150.348 124.27,154.348 125.5,158.5C 125.167,159.167 124.833,159.833 124.5,160.5C 123.818,159.757 123.151,159.091 122.5,158.5C 120.722,153.997 120.222,149.331 121,144.5C 122.361,142.972 123.528,141.305 124.5,139.5C 127.42,138.55 129.753,136.884 131.5,134.5 Z"/></g>
<g><path style="opacity:1" fill="#737373" d="M 491.5,136.5 C 492.167,136.833 492.833,137.167 493.5,137.5C 493.802,140.059 493.468,142.393 492.5,144.5C 492.599,141.763 492.265,139.096 491.5,136.5 Z"/></g>
<g><path style="opacity:1" fill="#636063" d="M 99.5,139.5 C 102.089,139.461 104.089,140.461 105.5,142.5C 103.858,144.081 101.858,144.747 99.5,144.5C 99.5,142.833 99.5,141.167 99.5,139.5 Z"/></g>
<g><path style="opacity:1" fill="#273946" d="M 344.5,138.5 C 344.222,140.346 344.889,141.68 346.5,142.5C 347.459,146.796 348.125,151.129 348.5,155.5C 355.167,155.5 361.833,155.5 368.5,155.5C 360.684,156.492 352.684,156.826 344.5,156.5C 346.413,143.582 340.913,136.249 328,134.5C 315.246,136.309 310.079,143.643 312.5,156.5C 309.833,156.5 307.167,156.5 304.5,156.5C 304.5,156.167 304.5,155.833 304.5,155.5C 305.458,155.047 306.292,154.381 307,153.5C 307.943,149.504 308.776,145.504 309.5,141.5C 309.5,140.833 309.5,140.167 309.5,139.5C 313.565,137.605 317.232,135.105 320.5,132C 324.5,131.333 328.5,131.333 332.5,132C 337.032,133.428 341.032,135.595 344.5,138.5 Z"/></g>
<g><path style="opacity:1" fill="#b1afb2" d="M 96.5,139.5 C 97.5,139.5 98.5,139.5 99.5,139.5C 99.5,141.167 99.5,142.833 99.5,144.5C 101.858,144.747 103.858,144.081 105.5,142.5C 105.007,144.806 104.674,147.139 104.5,149.5C 103.596,148.791 103.263,147.791 103.5,146.5C 100.531,145.671 97.5314,145.505 94.5,146C 93.051,147.102 91.7177,148.269 90.5,149.5C 90.3259,147.139 89.9926,144.806 89.5,142.5C 91.5582,143.933 93.8915,144.6 96.5,144.5C 96.5,142.833 96.5,141.167 96.5,139.5 Z"/></g>
<g><path style="opacity:1" fill="#072c4b" d="M 78.5,139.5 C 79.3382,139.842 79.6716,140.508 79.5,141.5C 77.1398,145.919 77.1398,150.252 79.5,154.5C 78.7573,155.182 78.0906,155.849 77.5,156.5C 68.7158,156.916 60.0491,156.249 51.5,154.5C 48.1903,154.539 45.5237,153.206 43.5,150.5C 41.5357,148.018 39.869,145.352 38.5,142.5C 38.5,141.5 38.5,140.5 38.5,139.5C 51.8333,139.5 65.1667,139.5 78.5,139.5 Z"/></g>
<g><path style="opacity:1" fill="#393837" d="M 103.5,134.5 C 112.833,134.5 122.167,134.5 131.5,134.5C 129.753,136.884 127.42,138.55 124.5,139.5C 123.528,141.305 122.361,142.972 121,144.5C 120.222,149.331 120.722,153.997 122.5,158.5C 119.57,157.701 116.57,157.368 113.5,157.5C 114.527,153.554 114.694,149.554 114,145.5C 110.893,141.129 107.393,137.463 103.5,134.5 Z"/></g>
<g><path style="opacity:1" fill="#efefef" d="M 104.5,149.5 C 104.5,151.167 104.5,152.833 104.5,154.5C 101.906,157.717 98.573,158.384 94.5,156.5C 91.9637,155.298 90.6303,153.298 90.5,150.5C 90.5,150.167 90.5,149.833 90.5,149.5C 91.7177,148.269 93.051,147.102 94.5,146C 97.5314,145.505 100.531,145.671 103.5,146.5C 103.263,147.791 103.596,148.791 104.5,149.5 Z"/></g>
<g><path style="opacity:1" fill="#f0f0f0" d="M 141.5,146.5 C 142.299,149.43 142.632,152.43 142.5,155.5C 140.409,155.318 138.409,155.652 136.5,156.5C 135.749,155.624 135.249,154.624 135,153.5C 133.989,154.337 132.822,154.67 131.5,154.5C 131.5,151.833 131.5,149.167 131.5,146.5C 134.852,145.293 138.186,145.293 141.5,146.5 Z"/></g>
<g><path style="opacity:1" fill="#adacac" d="M 144.5,142.5 C 144.833,142.5 145.167,142.5 145.5,142.5C 145.414,143.496 145.748,144.329 146.5,145C 145.429,145.852 144.429,146.685 143.5,147.5C 142.833,147.167 142.167,146.833 141.5,146.5C 138.186,145.293 134.852,145.293 131.5,146.5C 131.5,149.167 131.5,151.833 131.5,154.5C 131.5,155.5 131.5,156.5 131.5,157.5C 132.791,157.263 133.791,157.596 134.5,158.5C 133.07,158.421 131.736,158.754 130.5,159.5C 130.245,157.657 130.078,155.657 130,153.5C 125.333,152.167 125.333,150.833 130,149.5C 130.496,147.965 130.33,146.465 129.5,145C 129.833,144.5 130.167,144 130.5,143.5C 133.473,145.218 135.64,144.551 137,141.5C 138.994,145.12 141.494,145.453 144.5,142.5 Z"/></g>
<g><path style="opacity:1" fill="#696668" d="M 145.5,142.5 C 147.117,144.121 148.284,146.121 149,148.5C 149.78,150.387 149.613,152.054 148.5,153.5C 148.5,152.5 148.5,151.5 148.5,150.5C 145.715,151.084 144.048,150.084 143.5,147.5C 144.429,146.685 145.429,145.852 146.5,145C 145.748,144.329 145.414,143.496 145.5,142.5 Z"/></g>
<g><path style="opacity:1" fill="#042d4e" d="M 364.5,127.5 C 363.526,132.983 365.526,136.65 370.5,138.5C 370.315,140.196 369.481,141.529 368,142.5C 367.506,144.134 367.34,145.801 367.5,147.5C 369.167,147.5 370.833,147.5 372.5,147.5C 373.428,151.483 372.095,154.15 368.5,155.5C 361.833,155.5 355.167,155.5 348.5,155.5C 348.125,151.129 347.459,146.796 346.5,142.5C 344.889,141.68 344.222,140.346 344.5,138.5C 347.628,135.919 350.961,133.419 354.5,131C 357.758,129.533 361.092,128.367 364.5,127.5 Z"/></g>
<g><path style="opacity:1" fill="#666664" d="M 89.5,142.5 C 89.9926,144.806 90.3259,147.139 90.5,149.5C 90.5,149.833 90.5,150.167 90.5,150.5C 89.1667,150.5 87.8333,150.5 86.5,150.5C 86.5,151.5 86.5,152.5 86.5,153.5C 90.5111,153.835 91.5111,155.835 89.5,159.5C 86.124,157.932 84.7907,155.265 85.5,151.5C 84.9651,147.576 86.2985,144.576 89.5,142.5 Z"/></g>
<g><path style="opacity:1" fill="#bcbcbc" d="M 420.5,138.5 C 420.5,140.5 420.5,142.5 420.5,144.5C 421.833,144.5 423.167,144.5 424.5,144.5C 424.5,146.167 424.5,147.833 424.5,149.5C 420.486,149.666 416.486,149.499 412.5,149C 411.944,148.617 411.611,148.117 411.5,147.5C 414.779,148.492 418.112,148.659 421.5,148C 422.609,146.187 421.942,145.354 419.5,145.5C 419.198,142.941 419.532,140.607 420.5,138.5 Z"/></g>
<g><path style="opacity:1" fill="#b5b5b5" d="M 491.5,146.5 C 490.886,149.766 488.886,151.099 485.5,150.5C 484.167,150.333 482.833,150.167 481.5,150C 480.748,149.329 480.414,148.496 480.5,147.5C 484.358,150.202 488.024,149.869 491.5,146.5 Z"/></g>
<g><path style="opacity:1" fill="#032d4f" d="M 155.5,140.5 C 182.192,140.202 208.859,140.535 235.5,141.5C 235.5,144.5 235.5,147.5 235.5,150.5C 249.833,151.833 264.167,151.833 278.5,150.5C 278.5,147.167 278.5,143.833 278.5,140.5C 280.144,140.286 281.644,140.62 283,141.5C 282.713,147.987 285.713,150.987 292,150.5C 298.81,151.686 302.31,148.853 302.5,142C 304.81,141.503 307.143,141.337 309.5,141.5C 308.776,145.504 307.943,149.504 307,153.5C 306.292,154.381 305.458,155.047 304.5,155.5C 256.495,155.833 208.495,155.5 160.5,154.5C 159.915,151.497 159.248,148.497 158.5,145.5C 157.712,144.23 156.712,143.23 155.5,142.5C 155.5,141.833 155.5,141.167 155.5,140.5 Z"/></g>
<g><path style="opacity:1" fill="#737170" d="M 144.5,142.5 C 141.494,145.453 138.994,145.12 137,141.5C 135.64,144.551 133.473,145.218 130.5,143.5C 130.167,144 129.833,144.5 129.5,145C 130.33,146.465 130.496,147.965 130,149.5C 125.333,150.833 125.333,152.167 130,153.5C 130.078,155.657 130.245,157.657 130.5,159.5C 131.736,158.754 133.07,158.421 134.5,158.5C 138.413,158.187 142.079,158.853 145.5,160.5C 140.07,165.277 134.404,165.611 128.5,161.5C 126.397,156.749 125.397,151.749 125.5,146.5C 127.294,144.203 129.294,142.037 131.5,140C 134.833,139.333 138.167,139.333 141.5,140C 142.942,140.377 143.942,141.21 144.5,142.5 Z"/></g>
<g><path style="opacity:1" fill="#183750" d="M 155.5,142.5 C 156.712,143.23 157.712,144.23 158.5,145.5C 159.248,148.497 159.915,151.497 160.5,154.5C 208.495,155.5 256.495,155.833 304.5,155.5C 304.5,155.833 304.5,156.167 304.5,156.5C 255.5,156.5 206.5,156.5 157.5,156.5C 156.722,155.844 156.056,155.011 155.5,154C 156.561,150.185 156.561,146.351 155.5,142.5 Z"/></g>
<g><path style="opacity:1" fill="#607282" d="M 51.5,154.5 C 60.0491,156.249 68.7158,156.916 77.5,156.5C 78.8333,156.5 80.1667,156.5 81.5,156.5C 81.5,157.167 81.5,157.833 81.5,158.5C 73.1401,158.831 64.8068,158.498 56.5,157.5C 54.8554,156.304 53.1887,155.304 51.5,154.5 Z"/></g>
<g><path style="opacity:1" fill="#d0cfce" d="M 141.5,146.5 C 142.167,146.833 142.833,147.167 143.5,147.5C 144.048,150.084 145.715,151.084 148.5,150.5C 148.5,151.5 148.5,152.5 148.5,153.5C 146.833,153.5 145.167,153.5 143.5,153.5C 143.884,155.929 144.551,158.263 145.5,160.5C 142.079,158.853 138.413,158.187 134.5,158.5C 133.791,157.596 132.791,157.263 131.5,157.5C 131.5,156.5 131.5,155.5 131.5,154.5C 132.822,154.67 133.989,154.337 135,153.5C 135.249,154.624 135.749,155.624 136.5,156.5C 138.409,155.652 140.409,155.318 142.5,155.5C 142.632,152.43 142.299,149.43 141.5,146.5 Z"/></g>
<g><path style="opacity:1" fill="#737170" d="M 148.5,153.5 C 148.818,156.481 147.818,158.815 145.5,160.5C 144.551,158.263 143.884,155.929 143.5,153.5C 145.167,153.5 146.833,153.5 148.5,153.5 Z"/></g>
<g><path style="opacity:1" fill="#607586" d="M 153.5,156.5 C 154.833,156.5 156.167,156.5 157.5,156.5C 206.5,156.5 255.5,156.5 304.5,156.5C 307.167,156.5 309.833,156.5 312.5,156.5C 313.11,157.391 313.443,158.391 313.5,159.5C 259.905,158.505 206.238,158.171 152.5,158.5C 152.328,157.508 152.662,156.842 153.5,156.5 Z"/></g>
<g><path style="opacity:1" fill="#46657b" d="M 373.5,135.5 C 373.833,135.5 374.167,135.5 374.5,135.5C 374.666,141.176 374.499,146.843 374,152.5C 373.07,154.552 371.57,156.052 369.5,157C 361.173,157.5 352.84,157.666 344.5,157.5C 344.5,157.167 344.5,156.833 344.5,156.5C 352.684,156.826 360.684,156.492 368.5,155.5C 372.095,154.15 373.428,151.483 372.5,147.5C 370.833,147.5 369.167,147.5 367.5,147.5C 367.34,145.801 367.506,144.134 368,142.5C 369.481,141.529 370.315,140.196 370.5,138.5C 371.5,138.5 372.5,138.5 373.5,138.5C 373.5,137.5 373.5,136.5 373.5,135.5 Z"/></g>
<g><path style="opacity:1" fill="#bcbbba" d="M 90.5,150.5 C 90.6303,153.298 91.9637,155.298 94.5,156.5C 98.573,158.384 101.906,157.717 104.5,154.5C 104.815,156.226 104.981,157.893 105,159.5C 102.959,158.577 100.792,158.244 98.5,158.5C 97.8333,163.833 97.1667,163.833 96.5,158.5C 94.0971,158.448 91.7638,158.781 89.5,159.5C 91.5111,155.835 90.5111,153.835 86.5,153.5C 86.5,152.5 86.5,151.5 86.5,150.5C 87.8333,150.5 89.1667,150.5 90.5,150.5 Z"/></g>
<g><path style="opacity:1" fill="#cecdcb" d="M 113.5,157.5 C 116.57,157.368 119.57,157.701 122.5,158.5C 123.011,161.022 124.011,163.355 125.5,165.5C 124.5,165.5 123.5,165.5 122.5,165.5C 121.335,159.178 118.002,157.845 112.5,161.5C 112.5,160.833 112.5,160.167 112.5,159.5C 112.328,158.508 112.662,157.842 113.5,157.5 Z"/></g>
<g><path style="opacity:1" fill="#d3dbe0" d="M 374.5,134.5 C 374.833,134.5 375.167,134.5 375.5,134.5C 375.813,141.755 375.48,148.921 374.5,156C 372.286,157.273 369.953,158.273 367.5,159C 359.833,159.333 352.167,159.667 344.5,160C 344.019,162.978 342.353,164.811 339.5,165.5C 340.5,164.167 341.5,162.833 342.5,161.5C 342.66,159.847 343.326,158.514 344.5,157.5C 352.84,157.666 361.173,157.5 369.5,157C 371.57,156.052 373.07,154.552 374,152.5C 374.499,146.843 374.666,141.176 374.5,135.5C 374.5,135.167 374.5,134.833 374.5,134.5 Z"/></g>
<g><path style="opacity:1" fill="#484443" d="M 125.5,146.5 C 125.397,151.749 126.397,156.749 128.5,161.5C 126.158,162.211 125.825,163.544 127.5,165.5C 126.833,165.5 126.167,165.5 125.5,165.5C 124.011,163.355 123.011,161.022 122.5,158.5C 123.151,159.091 123.818,159.757 124.5,160.5C 124.833,159.833 125.167,159.167 125.5,158.5C 124.27,154.348 124.27,150.348 125.5,146.5 Z"/></g>
<g><path style="opacity:1" fill="#737170" d="M 105.5,142.5 C 108.552,144.44 109.885,147.273 109.5,151C 108.558,160.956 103.224,165.289 93.5,164C 91.3645,163.124 90.0312,161.624 89.5,159.5C 91.7638,158.781 94.0971,158.448 96.5,158.5C 97.1667,163.833 97.8333,163.833 98.5,158.5C 100.792,158.244 102.959,158.577 105,159.5C 104.981,157.893 104.815,156.226 104.5,154.5C 104.5,152.833 104.5,151.167 104.5,149.5C 104.674,147.139 105.007,144.806 105.5,142.5 Z"/></g>
<g><path style="opacity:1" fill="#848282" d="M 342.5,161.5 C 341.5,162.833 340.5,164.167 339.5,165.5C 338.609,166.11 337.609,166.443 336.5,166.5C 337.911,164.086 339.911,162.419 342.5,161.5 Z"/></g>
<g><path style="opacity:1" fill="#25211f" d="M 344.5,156.5 C 344.5,156.833 344.5,157.167 344.5,157.5C 343.326,158.514 342.66,159.847 342.5,161.5C 339.911,162.419 337.911,164.086 336.5,166.5C 331.153,167.775 325.82,167.775 320.5,166.5C 317.167,165.167 314.833,162.833 313.5,159.5C 313.443,158.391 313.11,157.391 312.5,156.5C 310.079,143.643 315.246,136.309 328,134.5C 340.913,136.249 346.413,143.582 344.5,156.5 Z"/></g>
<g><path style="opacity:1" fill="#d3d3d3" d="M 330.5,145.5 C 331.833,145.5 333.167,145.5 334.5,145.5C 334.232,147.099 334.566,148.432 335.5,149.5C 334.167,153.5 334.167,157.5 335.5,161.5C 330.871,162.481 326.204,162.648 321.5,162C 320.364,160.855 319.364,159.688 318.5,158.5C 319.209,157.596 320.209,157.263 321.5,157.5C 321.5,156.5 321.5,155.5 321.5,154.5C 330.829,160.455 334.829,157.788 333.5,146.5C 332.209,146.737 331.209,146.404 330.5,145.5 Z"/></g>
<g><path style="opacity:1" fill="#6d6b6b" d="M 321.5,153.5 C 321.5,153.833 321.5,154.167 321.5,154.5C 321.5,155.5 321.5,156.5 321.5,157.5C 320.209,157.263 319.209,157.596 318.5,158.5C 317.094,158.027 316.427,157.027 316.5,155.5C 317.779,154.032 319.446,153.365 321.5,153.5 Z"/></g>
<g><path style="opacity:1" fill="#f1f0f0" d="M 330.5,145.5 C 331.209,146.404 332.209,146.737 333.5,146.5C 334.829,157.788 330.829,160.455 321.5,154.5C 321.5,154.167 321.5,153.833 321.5,153.5C 321.527,147.425 324.527,144.758 330.5,145.5 Z"/></g>
<g><path style="opacity:1" fill="#a5a5a7" d="M 335.5,142.5 C 336.167,142.833 336.833,143.167 337.5,143.5C 336.833,145.5 336.167,147.5 335.5,149.5C 334.566,148.432 334.232,147.099 334.5,145.5C 333.167,145.5 331.833,145.5 330.5,145.5C 324.527,144.758 321.527,147.425 321.5,153.5C 319.446,153.365 317.779,154.032 316.5,155.5C 316.5,153.833 316.5,152.167 316.5,150.5C 317.833,150.5 319.167,150.5 320.5,150.5C 320.043,147.691 320.043,145.024 320.5,142.5C 323.869,145.6 325.869,144.933 326.5,140.5C 327.5,140.5 328.5,140.5 329.5,140.5C 329.5,141.833 329.5,143.167 329.5,144.5C 331.718,144.386 333.718,143.72 335.5,142.5 Z"/></g>
<g><path style="opacity:1" fill="#726e6c" d="M 337.5,143.5 C 341.891,149.979 341.225,155.979 335.5,161.5C 334.167,157.5 334.167,153.5 335.5,149.5C 336.167,147.5 336.833,145.5 337.5,143.5 Z"/></g>
<g><path style="opacity:1" fill="#666162" d="M 320.5,142.5 C 320.043,145.024 320.043,147.691 320.5,150.5C 319.167,150.5 317.833,150.5 316.5,150.5C 316.5,152.167 316.5,153.833 316.5,155.5C 315.147,151.444 315.647,147.444 318,143.5C 318.671,142.748 319.504,142.414 320.5,142.5 Z"/></g>
<g><path style="opacity:1" fill="#686766" d="M 335.5,142.5 C 333.718,143.72 331.718,144.386 329.5,144.5C 329.5,143.167 329.5,141.833 329.5,140.5C 328.5,140.5 327.5,140.5 326.5,140.5C 325.869,144.933 323.869,145.6 320.5,142.5C 320.804,141.85 321.137,141.183 321.5,140.5C 325.122,139.341 328.789,139.175 332.5,140C 333.571,140.852 334.571,141.685 335.5,142.5 Z"/></g>
<g><path style="opacity:1" fill="#5f5e5e" d="M 127.5,165.5 C 132.716,166.969 138.05,167.635 143.5,167.5C 139.354,168.647 135.02,168.814 130.5,168C 129.058,167.623 128.058,166.79 127.5,165.5 Z"/></g>
<g><path style="opacity:1" fill="#767575" d="M 320.5,166.5 C 325.82,167.775 331.153,167.775 336.5,166.5C 331.097,170.423 325.764,170.423 320.5,166.5 Z"/></g>
<g><path style="opacity:1" fill="#a6a4a4" d="M 112.5,159.5 C 112.5,160.167 112.5,160.833 112.5,161.5C 107.931,168.561 101.598,170.894 93.5,168.5C 97.2733,168.737 100.94,168.237 104.5,167C 107.692,164.972 110.359,162.472 112.5,159.5 Z"/></g>
</svg>
