<?xml version="1.0" encoding="UTF-8"?>
<!DOCTYPE svg PUBLIC "-//W3C//DTD SVG 1.1//EN" "http://www.w3.org/Graphics/SVG/1.1/DTD/svg11.dtd">
<svg xmlns="http://www.w3.org/2000/svg" version="1.1" width="566px" height="191px" style="shape-rendering:geometricPrecision; text-rendering:geometricPrecision; image-rendering:optimizeQuality; fill-rule:evenodd; clip-rule:evenodd" xmlns:xlink="http://www.w3.org/1999/xlink">
<g><path style="opacity:0.997" fill="#fefefe" d="M -0.5,-0.5 C 188.167,-0.5 376.833,-0.5 565.5,-0.5C 565.5,63.1667 565.5,126.833 565.5,190.5C 376.833,190.5 188.167,190.5 -0.5,190.5C -0.5,126.833 -0.5,63.1667 -0.5,-0.5 Z"/></g>
<g><path style="opacity:1" fill="#d9d9d9" d="M 445.5,30.5 C 445.672,31.4916 445.338,32.1583 444.5,32.5C 442.047,28.0566 438.714,27.3899 434.5,30.5C 430.231,36.3633 430.897,41.3633 436.5,45.5C 435.5,45.5 434.5,45.5 433.5,45.5C 433.843,47.4832 433.176,48.8166 431.5,49.5C 431.982,48.5837 432.315,47.5837 432.5,46.5C 430.012,40.9262 429.846,35.2596 432,29.5C 436.911,25.2952 441.411,25.6285 445.5,30.5 Z"/></g>
<g><path style="opacity:1" fill="#fbece2" d="M 355.5,106.5 C 354.041,106.567 352.708,106.234 351.5,105.5C 350.547,103.39 348.881,102.223 346.5,102C 339.508,101.5 332.508,101.334 325.5,101.5C 322.482,101.296 319.482,100.963 316.5,100.5C 309.539,98.3985 302.373,98.0652 295,99.5C 294.055,99.0946 293.388,98.428 293,97.5C 292.484,92.7569 291.651,88.0903 290.5,83.5C 290.283,77.9016 289.283,72.5683 287.5,67.5C 288.586,67.38 289.253,66.7133 289.5,65.5C 289.253,64.2867 288.586,63.62 287.5,63.5C 287.167,62.5 286.5,61.8333 285.5,61.5C 284.508,61.6716 283.842,61.3382 283.5,60.5C 270.01,59.5043 256.344,59.171 242.5,59.5C 241.5,59.5 240.5,59.5 239.5,59.5C 239.5,55.1667 239.5,50.8333 239.5,46.5C 239.5,46.1667 239.5,45.8333 239.5,45.5C 239.5,45.1667 239.5,44.8333 239.5,44.5C 239.784,42.5853 239.451,40.9187 238.5,39.5C 238.5,38.8333 238.167,38.5 237.5,38.5C 186.264,37.1697 134.931,37.1697 83.5,38.5C 83.4142,37.5041 83.7476,36.6708 84.5,36C 134.695,35.8265 184.862,35.3265 235,34.5C 237.432,34.7628 239.432,35.7628 241,37.5C 241.432,40.9304 242.266,44.2637 243.5,47.5C 242.032,50.3828 241.532,53.3828 242,56.5C 242.333,56.1667 242.667,55.8333 243,55.5C 256.592,57.3074 270.425,58.1407 284.5,58C 285.624,60.4817 287.29,60.9817 289.5,59.5C 290.861,61.0284 292.028,62.6951 293,64.5C 293.984,71.1609 294.817,77.8276 295.5,84.5C 296.5,84.5 297.5,84.5 298.5,84.5C 297,88.3301 296.333,92.3301 296.5,96.5C 309.495,97.0369 322.495,97.5369 335.5,98C 341.13,99.149 346.797,100.482 352.5,102C 353.883,103.271 354.883,104.771 355.5,106.5 Z"/></g>
<g><path style="opacity:1" fill="#9d9d9d" d="M 445.5,30.5 C 445.833,30.5 446.167,30.5 446.5,30.5C 447.16,32.8157 447.827,35.149 448.5,37.5C 448.199,39.4216 447.533,41.0883 446.5,42.5C 446.672,41.5084 446.338,40.8417 445.5,40.5C 445.599,37.7628 445.265,35.0961 444.5,32.5C 445.338,32.1583 445.672,31.4916 445.5,30.5 Z"/></g>
<g><path style="opacity:1" fill="#da8a70" d="M 237.5,38.5 C 186.664,38.1678 135.997,38.5011 85.5,39.5C 84.8333,39.5 84.5,39.8333 84.5,40.5C 83.5655,41.5676 83.2322,42.901 83.5,44.5C 83.1667,44.5 82.8333,44.5 82.5,44.5C 82.3253,42.3792 82.6586,40.3792 83.5,38.5C 134.931,37.1697 186.264,37.1697 237.5,38.5 Z"/></g>
<g><path style="opacity:1" fill="#303030" d="M 444.5,32.5 C 445.265,35.0961 445.599,37.7628 445.5,40.5C 443.762,44.2059 440.762,45.8725 436.5,45.5C 430.897,41.3633 430.231,36.3633 434.5,30.5C 438.714,27.3899 442.047,28.0566 444.5,32.5 Z"/></g>
<g><path style="opacity:1" fill="#e8e8e8" d="M 435.5,33.5 C 442.439,32.5779 444.439,35.0779 441.5,41C 437.529,42.1279 434.863,40.7946 433.5,37C 434.429,35.9231 435.096,34.7564 435.5,33.5 Z"/></g>
<g><path style="opacity:1" fill="#454545" d="M 449.5,30.5 C 448.348,29.375 447.348,29.375 446.5,30.5C 446.167,30.5 445.833,30.5 445.5,30.5C 441.411,25.6285 436.911,25.2952 432,29.5C 429.846,35.2596 430.012,40.9262 432.5,46.5C 432.315,47.5837 431.982,48.5837 431.5,49.5C 428.167,49.5 424.833,49.5 421.5,49.5C 419.74,56.2612 418.74,63.2612 418.5,70.5C 417.518,73.9619 417.185,77.6286 417.5,81.5C 431.833,81.5 446.167,81.5 460.5,81.5C 446.339,82.3312 432.006,82.8312 417.5,83C 431.829,83.4999 446.163,83.6666 460.5,83.5C 446.205,85.4833 431.538,86.1499 416.5,85.5C 416.567,84.0413 416.234,82.7079 415.5,81.5C 416.162,77.5341 416.495,73.5341 416.5,69.5C 416.2,62.1044 416.7,54.771 418,47.5C 420.674,45.1295 423.841,43.9628 427.5,44C 423.654,33.1935 427.321,26.3602 438.5,23.5C 442.134,24.2933 445.468,25.7933 448.5,28C 449.252,28.6708 449.586,29.5041 449.5,30.5 Z"/></g>
<g><path style="opacity:1" fill="#d23a0d" d="M 237.5,38.5 C 238.167,38.5 238.5,38.8333 238.5,39.5C 238.5,40.8333 238.5,42.1667 238.5,43.5C 187.5,43.5 136.5,43.5 85.5,43.5C 85.5,42.1667 85.5,40.8333 85.5,39.5C 135.997,38.5011 186.664,38.1678 237.5,38.5 Z"/></g>
<g><path style="opacity:1" fill="#c54518" d="M 85.5,39.5 C 85.5,40.8333 85.5,42.1667 85.5,43.5C 136.5,43.5 187.5,43.5 238.5,43.5C 238.5,42.1667 238.5,40.8333 238.5,39.5C 239.451,40.9187 239.784,42.5853 239.5,44.5C 187.833,44.5 136.167,44.5 84.5,44.5C 84.5,43.1667 84.5,41.8333 84.5,40.5C 84.5,39.8333 84.8333,39.5 85.5,39.5 Z"/></g>
<g><path style="opacity:1" fill="#dd8a63" d="M 84.5,40.5 C 84.5,41.8333 84.5,43.1667 84.5,44.5C 136.167,44.5 187.833,44.5 239.5,44.5C 239.5,44.8333 239.5,45.1667 239.5,45.5C 187.331,45.8322 135.331,45.4989 83.5,44.5C 83.2322,42.901 83.5655,41.5676 84.5,40.5 Z"/></g>
<g><path style="opacity:1" fill="#f6c9a7" d="M 82.5,44.5 C 82.8333,44.5 83.1667,44.5 83.5,44.5C 135.331,45.4989 187.331,45.8322 239.5,45.5C 239.5,45.8333 239.5,46.1667 239.5,46.5C 187.5,46.5 135.5,46.5 83.5,46.5C 82.6618,46.1583 82.3284,45.4916 82.5,44.5 Z"/></g>
<g><path style="opacity:1" fill="#f9f9f9" d="M 445.5,40.5 C 446.338,40.8417 446.672,41.5084 446.5,42.5C 444.9,44.2978 444.566,46.2978 445.5,48.5C 448.768,49.487 452.102,49.8204 455.5,49.5C 456.145,56.354 457.145,63.0207 458.5,69.5C 459.468,71.6074 459.802,73.9407 459.5,76.5C 459.5,77.8333 459.5,79.1667 459.5,80.5C 445.833,80.5 432.167,80.5 418.5,80.5C 418.5,77.1667 418.5,73.8333 418.5,70.5C 419.777,69.3064 420.444,67.6397 420.5,65.5C 421.195,60.1869 421.529,54.8536 421.5,49.5C 424.833,49.5 428.167,49.5 431.5,49.5C 433.176,48.8166 433.843,47.4832 433.5,45.5C 434.5,45.5 435.5,45.5 436.5,45.5C 440.762,45.8725 443.762,44.2059 445.5,40.5 Z"/></g>
<g><path style="opacity:1" fill="#f7e8c6" d="M 83.5,46.5 C 135.5,46.5 187.5,46.5 239.5,46.5C 239.5,50.8333 239.5,55.1667 239.5,59.5C 240.5,59.5 241.5,59.5 242.5,59.5C 242.167,60.1667 241.833,60.8333 241.5,61.5C 240.549,62.9187 240.216,64.5853 240.5,66.5C 241.209,67.404 242.209,67.7373 243.5,67.5C 243.5,68.1667 243.5,68.8333 243.5,69.5C 243.833,92.5097 243.5,115.51 242.5,138.5C 241.797,125.469 241.131,112.469 240.5,99.5C 240.5,99.1667 240.5,98.8333 240.5,98.5C 241.818,95.4355 241.818,92.2688 240.5,89C 187.998,88.1683 135.665,88.3349 83.5,89.5C 83.1667,89.5 82.8333,89.5 82.5,89.5C 82.5,88.1667 82.5,86.8333 82.5,85.5C 82.8333,85.5 83.1667,85.5 83.5,85.5C 135.664,86.4989 187.997,86.8323 240.5,86.5C 240.5,85.1667 240.5,83.8333 240.5,82.5C 188.511,80.5044 136.177,79.8377 83.5,80.5C 83.5,69.1667 83.5,57.8333 83.5,46.5 Z"/></g>
<g><path style="opacity:1" fill="#6a6a6a" d="M 446.5,42.5 C 446.5,44.5 446.5,46.5 446.5,48.5C 450.042,48.1872 453.375,48.5206 456.5,49.5C 456.167,49.5 455.833,49.5 455.5,49.5C 452.102,49.8204 448.768,49.487 445.5,48.5C 444.566,46.2978 444.9,44.2978 446.5,42.5 Z"/></g>
<g><path style="opacity:1" fill="#2e2e2e" d="M 449.5,30.5 C 451.665,34.6577 451.998,38.9911 450.5,43.5C 453.495,44.1328 456.328,45.1328 459,46.5C 459.909,56.6265 461.075,66.6265 462.5,76.5C 462.333,78.5 462.167,80.5 462,82.5C 461.617,83.056 461.117,83.3893 460.5,83.5C 446.163,83.6666 431.829,83.4999 417.5,83C 432.006,82.8312 446.339,82.3312 460.5,81.5C 460.784,79.5853 460.451,77.9187 459.5,76.5C 459.802,73.9407 459.468,71.6074 458.5,69.5C 458.488,62.7613 457.821,56.0947 456.5,49.5C 453.375,48.5206 450.042,48.1872 446.5,48.5C 446.5,46.5 446.5,44.5 446.5,42.5C 447.533,41.0883 448.199,39.4216 448.5,37.5C 447.827,35.149 447.16,32.8157 446.5,30.5C 447.348,29.375 448.348,29.375 449.5,30.5 Z"/></g>
<g><path style="opacity:1" fill="#de7c63" d="M 242.5,59.5 C 256.344,59.171 270.01,59.5043 283.5,60.5C 269.451,60.2013 255.451,60.5346 241.5,61.5C 241.833,60.8333 242.167,60.1667 242.5,59.5 Z"/></g>
<g><path style="opacity:1" fill="#1f1f1f" d="M 433.5,59.5 C 436.898,59.1796 440.232,59.513 443.5,60.5C 442.311,61.4287 440.978,61.762 439.5,61.5C 439.5,65.1667 439.5,68.8333 439.5,72.5C 438.5,72.5 437.5,72.5 436.5,72.5C 436.5,68.8333 436.5,65.1667 436.5,61.5C 434.821,61.7148 433.821,61.0481 433.5,59.5 Z"/></g>
<g><path style="opacity:1" fill="#d4380a" d="M 283.5,60.5 C 283.842,61.3382 284.508,61.6716 285.5,61.5C 285.539,62.5832 285.873,63.5832 286.5,64.5C 271.515,65.4993 256.515,65.8327 241.5,65.5C 241.5,64.1667 241.5,62.8333 241.5,61.5C 255.451,60.5346 269.451,60.2013 283.5,60.5 Z"/></g>
<g><path style="opacity:1" fill="#b9b9b9" d="M 455.5,49.5 C 455.833,49.5 456.167,49.5 456.5,49.5C 457.821,56.0947 458.488,62.7613 458.5,69.5C 457.145,63.0207 456.145,56.354 455.5,49.5 Z"/></g>
<g><path style="opacity:1" fill="#d9673e" d="M 241.5,61.5 C 241.5,62.8333 241.5,64.1667 241.5,65.5C 256.515,65.8327 271.515,65.4993 286.5,64.5C 285.873,63.5832 285.539,62.5832 285.5,61.5C 286.5,61.8333 287.167,62.5 287.5,63.5C 287.5,64.5 287.5,65.5 287.5,66.5C 271.833,66.5 256.167,66.5 240.5,66.5C 240.216,64.5853 240.549,62.9187 241.5,61.5 Z"/></g>
<g><path style="opacity:1" fill="#f7b190" d="M 287.5,63.5 C 288.586,63.62 289.253,64.2867 289.5,65.5C 289.253,66.7133 288.586,67.38 287.5,67.5C 272.833,67.5 258.167,67.5 243.5,67.5C 242.209,67.7373 241.209,67.404 240.5,66.5C 256.167,66.5 271.833,66.5 287.5,66.5C 287.5,65.5 287.5,64.5 287.5,63.5 Z"/></g>
<g><path style="opacity:1" fill="#bbbbbb" d="M 421.5,49.5 C 421.529,54.8536 421.195,60.1869 420.5,65.5C 420.444,67.6397 419.777,69.3064 418.5,70.5C 418.74,63.2612 419.74,56.2612 421.5,49.5 Z"/></g>
<g><path style="opacity:1" fill="#f3caaa" d="M 243.5,67.5 C 258.167,67.5 272.833,67.5 287.5,67.5C 289.283,72.5683 290.283,77.9016 290.5,83.5C 289.018,80.3119 288.018,76.9786 287.5,73.5C 287.5,72.1667 287.5,70.8333 287.5,69.5C 273.167,69.5 258.833,69.5 244.5,69.5C 244.167,69.5 243.833,69.5 243.5,69.5C 243.5,68.8333 243.5,68.1667 243.5,67.5 Z"/></g>
<g><path style="opacity:1" fill="#c4b1b5" d="M 286.5,78.5 C 286.5,79.1667 286.5,79.8333 286.5,80.5C 285.79,78.1073 285.123,75.6073 284.5,73C 278.509,72.5005 272.509,72.3338 266.5,72.5C 261.5,72.5 256.5,72.5 251.5,72.5C 250.167,72.5 248.833,72.5 247.5,72.5C 247.5,81.1667 247.5,89.8333 247.5,98.5C 255.167,98.5 262.833,98.5 270.5,98.5C 275.167,98.5 279.833,98.5 284.5,98.5C 285.833,98.5 287.167,98.5 288.5,98.5C 288.5,97.1667 288.5,95.8333 288.5,94.5C 290.256,95.5521 290.923,97.2188 290.5,99.5C 276.167,99.5 261.833,99.5 247.5,99.5C 246.833,99.5 246.5,99.1667 246.5,98.5C 246.5,89.5 246.5,80.5 246.5,71.5C 259.504,71.3334 272.504,71.5001 285.5,72C 286.423,74.0408 286.756,76.2075 286.5,78.5 Z"/></g>
<g><path style="opacity:1" fill="#5a5a5a" d="M 416.5,69.5 C 416.495,73.5341 416.162,77.5341 415.5,81.5C 414.318,77.4227 414.651,73.4227 416.5,69.5 Z"/></g>
<g><path style="opacity:1" fill="#bb634f" d="M 244.5,69.5 C 258.833,69.5 273.167,69.5 287.5,69.5C 287.5,70.8333 287.5,72.1667 287.5,73.5C 287.784,75.4147 287.451,77.0813 286.5,78.5C 286.756,76.2075 286.423,74.0408 285.5,72C 272.504,71.5001 259.504,71.3334 246.5,71.5C 246.5,80.5 246.5,89.5 246.5,98.5C 245.833,98.5 245.167,98.5 244.5,98.5C 244.5,88.8333 244.5,79.1667 244.5,69.5 Z"/></g>
<g><path style="opacity:1" fill="#f2be99" d="M 83.5,80.5 C 136.177,79.8377 188.511,80.5044 240.5,82.5C 240.167,82.5 239.833,82.5 239.5,82.5C 187.669,81.5011 135.669,81.1678 83.5,81.5C 83.5,82.8333 83.5,84.1667 83.5,85.5C 83.1667,85.5 82.8333,85.5 82.5,85.5C 82.2155,83.5853 82.5489,81.9187 83.5,80.5 Z"/></g>
<g><path style="opacity:1" fill="#bababa" d="M 418.5,70.5 C 418.5,73.8333 418.5,77.1667 418.5,80.5C 432.167,80.5 445.833,80.5 459.5,80.5C 459.5,79.1667 459.5,77.8333 459.5,76.5C 460.451,77.9187 460.784,79.5853 460.5,81.5C 446.167,81.5 431.833,81.5 417.5,81.5C 417.185,77.6286 417.518,73.9619 418.5,70.5 Z"/></g>
<g><path style="opacity:1" fill="#a1d6f4" d="M 251.5,72.5 C 257.477,81.4415 263.81,90.1081 270.5,98.5C 262.833,98.5 255.167,98.5 247.5,98.5C 247.5,89.8333 247.5,81.1667 247.5,72.5C 248.833,72.5 250.167,72.5 251.5,72.5 Z"/></g>
<g><path style="opacity:1" fill="#dbf0f9" d="M 251.5,72.5 C 256.5,72.5 261.5,72.5 266.5,72.5C 272.512,81.2006 278.512,89.8672 284.5,98.5C 279.833,98.5 275.167,98.5 270.5,98.5C 263.81,90.1081 257.477,81.4415 251.5,72.5 Z"/></g>
<g><path style="opacity:1" fill="#d67c52" d="M 239.5,82.5 C 239.833,82.5 240.167,82.5 240.5,82.5C 240.5,83.8333 240.5,85.1667 240.5,86.5C 187.997,86.8323 135.664,86.4989 83.5,85.5C 83.5,84.1667 83.5,82.8333 83.5,81.5C 135.669,81.1678 187.669,81.5011 239.5,82.5 Z"/></g>
<g><path style="opacity:1" fill="#ca481a" d="M 239.5,82.5 C 239.5,83.5 239.5,84.5 239.5,85.5C 187.833,85.5 136.167,85.5 84.5,85.5C 84.5,84.5 84.5,83.5 84.5,82.5C 136.167,82.5 187.833,82.5 239.5,82.5 Z"/></g>
<g><path style="opacity:1" fill="#a0d5f5" d="M 266.5,72.5 C 272.509,72.3338 278.509,72.5005 284.5,73C 285.123,75.6073 285.79,78.1073 286.5,80.5C 288.113,85.0068 288.779,89.6734 288.5,94.5C 288.5,95.8333 288.5,97.1667 288.5,98.5C 287.167,98.5 285.833,98.5 284.5,98.5C 278.512,89.8672 272.512,81.2006 266.5,72.5 Z"/></g>
<g><path style="opacity:1" fill="#f8caa6" d="M 83.5,89.5 C 135.665,88.3349 187.998,88.1683 240.5,89C 241.818,92.2688 241.818,95.4355 240.5,98.5C 240.806,95.6146 240.473,92.9479 239.5,90.5C 187.669,89.5011 135.669,89.1678 83.5,89.5 Z"/></g>
<g><path style="opacity:1" fill="#cb8f6e" d="M 287.5,73.5 C 288.018,76.9786 289.018,80.3119 290.5,83.5C 291.651,88.0903 292.484,92.7569 293,97.5C 293.388,98.428 294.055,99.0946 295,99.5C 302.373,98.0652 309.539,98.3985 316.5,100.5C 310.162,100.233 303.829,99.8995 297.5,99.5C 297.15,102.453 298.15,104.787 300.5,106.5C 298.629,106.141 297.129,105.141 296,103.5C 295.617,104.056 295.117,104.389 294.5,104.5C 294.159,116.037 293.159,127.37 291.5,138.5C 291.5,138.167 291.5,137.833 291.5,137.5C 292.659,126.341 292.826,115.008 292,103.5C 291.184,102.177 290.017,101.511 288.5,101.5C 274.833,100.833 261.167,100.167 247.5,99.5C 261.833,99.5 276.167,99.5 290.5,99.5C 290.923,97.2188 290.256,95.5521 288.5,94.5C 288.779,89.6734 288.113,85.0068 286.5,80.5C 286.5,79.8333 286.5,79.1667 286.5,78.5C 287.451,77.0813 287.784,75.4147 287.5,73.5 Z"/></g>
<g><path style="opacity:1" fill="#f9c9a4" d="M 243.5,69.5 C 243.833,69.5 244.167,69.5 244.5,69.5C 244.5,79.1667 244.5,88.8333 244.5,98.5C 244.5,111.833 244.5,125.167 244.5,138.5C 260.167,138.5 275.833,138.5 291.5,138.5C 293.159,127.37 294.159,116.037 294.5,104.5C 294.172,115.014 294.506,125.347 295.5,135.5C 295.5,136.167 295.5,136.833 295.5,137.5C 295.672,138.492 295.338,139.158 294.5,139.5C 276.5,139.5 258.5,139.5 240.5,139.5C 240.5,127.167 240.5,114.833 240.5,102.5C 188.167,102.5 135.833,102.5 83.5,102.5C 83.7163,104.681 82.883,106.347 81,107.5C 80.8333,110.167 80.6667,112.833 80.5,115.5C 80.5217,118.59 81.1883,121.257 82.5,123.5C 83.2653,126.096 83.5987,128.763 83.5,131.5C 83.1667,131.5 82.8333,131.5 82.5,131.5C 78.5562,121.34 78.5562,111.173 82.5,101C 81.3171,97.0087 81.3171,93.1754 82.5,89.5C 82.1936,92.3854 82.5269,95.0521 83.5,97.5C 83.5,97.8333 83.5,98.1667 83.5,98.5C 135.664,99.4989 187.997,99.8323 240.5,99.5C 241.131,112.469 241.797,125.469 242.5,138.5C 243.5,115.51 243.833,92.5097 243.5,69.5 Z"/></g>
<g><path style="opacity:1" fill="#e69468" d="M 239.5,90.5 C 240.473,92.9479 240.806,95.6146 240.5,98.5C 240.5,98.8333 240.5,99.1667 240.5,99.5C 187.997,99.8323 135.664,99.4989 83.5,98.5C 135.5,98.5 187.5,98.5 239.5,98.5C 239.5,95.8333 239.5,93.1667 239.5,90.5 Z"/></g>
<g><path style="opacity:1" fill="#d75527" d="M 239.5,90.5 C 239.5,93.1667 239.5,95.8333 239.5,98.5C 187.5,98.5 135.5,98.5 83.5,98.5C 83.5,98.1667 83.5,97.8333 83.5,97.5C 83.2053,95.2646 83.5386,93.2646 84.5,91.5C 135.997,90.5011 187.664,90.1678 239.5,90.5 Z"/></g>
<g><path style="opacity:1" fill="#d83305" d="M 84.5,91.5 C 135.833,91.5 187.167,91.5 238.5,91.5C 238.5,93.5 238.5,95.5 238.5,97.5C 187.167,97.5 135.833,97.5 84.5,97.5C 84.5,95.5 84.5,93.5 84.5,91.5 Z"/></g>
<g><path style="opacity:1" fill="#e78c66" d="M 82.5,89.5 C 82.8333,89.5 83.1667,89.5 83.5,89.5C 135.669,89.1678 187.669,89.5011 239.5,90.5C 187.664,90.1678 135.997,90.5011 84.5,91.5C 83.5386,93.2646 83.2053,95.2646 83.5,97.5C 82.5269,95.0521 82.1936,92.3854 82.5,89.5 Z"/></g>
<g><path style="opacity:1" fill="#ce4620" d="M 288.5,101.5 C 290.017,101.511 291.184,102.177 292,103.5C 292.826,115.008 292.659,126.341 291.5,137.5C 291.5,126.5 291.5,115.5 291.5,104.5C 280.307,102.473 268.974,101.973 257.5,103C 258.833,104.667 258.833,106.333 257.5,108C 254.633,108.801 251.966,108.634 249.5,107.5C 251.833,107.5 254.167,107.5 256.5,107.5C 256.5,106.167 256.5,104.833 256.5,103.5C 253.833,103.5 251.167,103.5 248.5,103.5C 248.5,104.5 248.5,105.5 248.5,106.5C 247.5,106.5 246.5,106.5 245.5,106.5C 245.338,104.473 245.505,102.473 246,100.5C 260.088,101.49 274.255,101.824 288.5,101.5 Z"/></g>
<g><path style="opacity:1" fill="#dd6a41" d="M 240.5,139.5 C 240.167,139.5 239.833,139.5 239.5,139.5C 239.5,127.5 239.5,115.5 239.5,103.5C 187.833,103.5 136.167,103.5 84.5,103.5C 84.7163,105.681 83.883,107.347 82,108.5C 81.1864,113.02 81.353,117.354 82.5,121.5C 82.5,122.167 82.5,122.833 82.5,123.5C 81.1883,121.257 80.5217,118.59 80.5,115.5C 80.6667,112.833 80.8333,110.167 81,107.5C 82.883,106.347 83.7163,104.681 83.5,102.5C 135.833,102.5 188.167,102.5 240.5,102.5C 240.5,114.833 240.5,127.167 240.5,139.5 Z"/></g>
<g><path style="opacity:1" fill="#db3303" d="M 291.5,137.5 C 276.496,137.667 261.496,137.5 246.5,137C 245.514,126.916 245.181,116.749 245.5,106.5C 246.5,106.5 247.5,106.5 248.5,106.5C 248.5,107.167 248.833,107.5 249.5,107.5C 251.966,108.634 254.633,108.801 257.5,108C 258.833,106.333 258.833,104.667 257.5,103C 268.974,101.973 280.307,102.473 291.5,104.5C 291.5,115.5 291.5,126.5 291.5,137.5 Z"/></g>
<g><path style="opacity:1" fill="#d73705" d="M 239.5,139.5 C 239.443,140.609 239.11,141.609 238.5,142.5C 237.71,143.401 236.71,144.068 235.5,144.5C 216.167,144.5 196.833,144.5 177.5,144.5C 177.731,140.007 177.064,135.674 175.5,131.5C 176.79,132.058 177.623,133.058 178,134.5C 178.27,137.224 178.77,139.891 179.5,142.5C 198.845,143.77 218.178,143.77 237.5,142.5C 237.719,141.325 237.386,140.325 236.5,139.5C 235.532,140.489 234.365,141.156 233,141.5C 220.188,140.713 207.355,140.213 194.5,140C 208.081,138.962 221.748,137.962 235.5,137C 236.376,135.414 237.376,133.914 238.5,132.5C 237.528,123.554 237.194,114.554 237.5,105.5C 228.054,106.998 218.554,107.998 209,108.5C 208.667,107.833 208.333,107.167 208,106.5C 207.481,107.516 206.647,108.182 205.5,108.5C 194.618,107.197 183.784,107.197 173,108.5C 172.667,107.833 172.333,107.167 172,106.5C 160.243,107.654 148.409,107.821 136.5,107C 135.391,106.362 134.225,105.862 133,105.5C 117.832,105.319 102.332,105.653 86.5,106.5C 84.9755,111.517 83.6422,116.517 82.5,121.5C 81.353,117.354 81.1864,113.02 82,108.5C 83.883,107.347 84.7163,105.681 84.5,103.5C 136.167,103.5 187.833,103.5 239.5,103.5C 239.5,115.5 239.5,127.5 239.5,139.5 Z"/></g>
<g><path style="opacity:1" fill="#dc3302" d="M 175.5,131.5 C 174.167,129.833 172.833,128.167 171.5,126.5C 169.615,124.947 168.615,122.947 168.5,120.5C 163.395,120.57 158.395,119.904 153.5,118.5C 150.692,118.078 148.692,119.078 147.5,121.5C 147.5,122.167 147.167,122.5 146.5,122.5C 143.228,123.758 139.894,124.925 136.5,126C 135.205,129.107 134.205,132.274 133.5,135.5C 132.883,135.611 132.383,135.944 132,136.5C 131.503,139.146 131.336,141.813 131.5,144.5C 116.83,144.667 102.163,144.5 87.5,144C 87.0426,143.586 86.7093,143.086 86.5,142.5C 87.2427,141.818 87.9094,141.151 88.5,140.5C 90.3878,138.012 91.0545,135.012 90.5,131.5C 88.1667,131.5 85.8333,131.5 83.5,131.5C 83.5987,128.763 83.2653,126.096 82.5,123.5C 82.5,122.833 82.5,122.167 82.5,121.5C 83.6422,116.517 84.9755,111.517 86.5,106.5C 102.332,105.653 117.832,105.319 133,105.5C 134.225,105.862 135.391,106.362 136.5,107C 148.409,107.821 160.243,107.654 172,106.5C 172.333,107.167 172.667,107.833 173,108.5C 183.784,107.197 194.618,107.197 205.5,108.5C 206.647,108.182 207.481,107.516 208,106.5C 208.333,107.167 208.667,107.833 209,108.5C 218.554,107.998 228.054,106.998 237.5,105.5C 237.194,114.554 237.528,123.554 238.5,132.5C 237.376,133.914 236.376,135.414 235.5,137C 221.748,137.962 208.081,138.962 194.5,140C 207.355,140.213 220.188,140.713 233,141.5C 234.365,141.156 235.532,140.489 236.5,139.5C 237.386,140.325 237.719,141.325 237.5,142.5C 218.178,143.77 198.845,143.77 179.5,142.5C 178.77,139.891 178.27,137.224 178,134.5C 177.623,133.058 176.79,132.058 175.5,131.5 Z"/></g>
<g><path style="opacity:1" fill="#cc4319" d="M 316.5,100.5 C 319.482,100.963 322.482,101.296 325.5,101.5C 325.5,101.833 325.5,102.167 325.5,102.5C 317.152,102.457 308.819,102.124 300.5,101.5C 300.33,102.822 300.663,103.989 301.5,105C 315.5,105.667 329.5,105.667 343.5,105C 340.009,104.262 336.675,103.429 333.5,102.5C 339.198,101.832 344.532,102.832 349.5,105.5C 333.18,106.499 316.847,106.833 300.5,106.5C 298.15,104.787 297.15,102.453 297.5,99.5C 303.829,99.8995 310.162,100.233 316.5,100.5 Z"/></g>
<g><path style="opacity:1" fill="#d83307" d="M 325.5,102.5 C 328.167,102.5 330.833,102.5 333.5,102.5C 336.675,103.429 340.009,104.262 343.5,105C 329.5,105.667 315.5,105.667 301.5,105C 300.663,103.989 300.33,102.822 300.5,101.5C 308.819,102.124 317.152,102.457 325.5,102.5 Z"/></g>
<g><path style="opacity:1" fill="#edab92" d="M 249.5,107.5 C 248.833,107.5 248.5,107.167 248.5,106.5C 248.5,105.5 248.5,104.5 248.5,103.5C 251.167,103.5 253.833,103.5 256.5,103.5C 256.5,104.833 256.5,106.167 256.5,107.5C 254.167,107.5 251.833,107.5 249.5,107.5 Z"/></g>
<g><path style="opacity:1" fill="#d97751" d="M 325.5,102.5 C 325.5,102.167 325.5,101.833 325.5,101.5C 332.508,101.334 339.508,101.5 346.5,102C 348.881,102.223 350.547,103.39 351.5,105.5C 351.389,106.117 351.056,106.617 350.5,107C 334.837,107.5 319.17,107.667 303.5,107.5C 302.209,107.737 301.209,107.404 300.5,106.5C 316.847,106.833 333.18,106.499 349.5,105.5C 344.532,102.832 339.198,101.832 333.5,102.5C 330.833,102.5 328.167,102.5 325.5,102.5 Z"/></g>
<g><path style="opacity:1" fill="#e9a781" d="M 351.5,105.5 C 352.708,106.234 354.041,106.567 355.5,106.5C 355.5,107.5 355.5,108.5 355.5,109.5C 354.883,109.389 354.383,109.056 354,108.5C 353.833,111 353.667,113.5 353.5,116C 353.525,118.929 354.191,121.429 355.5,123.5C 355.294,125.549 354.461,125.883 353,124.5C 352.501,119.177 352.334,113.844 352.5,108.5C 335.991,108.83 319.658,108.496 303.5,107.5C 319.17,107.667 334.837,107.5 350.5,107C 351.056,106.617 351.389,106.117 351.5,105.5 Z"/></g>
<g><path style="opacity:1" fill="#818181" d="M 410.5,109.5 C 414.298,108.517 418.298,108.183 422.5,108.5C 423.5,109.167 424.5,109.833 425.5,110.5C 420.537,109.746 415.537,109.413 410.5,109.5 Z"/></g>
<g><path style="opacity:1" fill="#989898" d="M 485.5,110.5 C 479.167,109.167 472.833,109.167 466.5,110.5C 466.611,109.883 466.944,109.383 467.5,109C 473.167,108.333 478.833,108.333 484.5,109C 485.056,109.383 485.389,109.883 485.5,110.5 Z"/></g>
<g><path style="opacity:1" fill="#4a4a4a" d="M 410.5,109.5 C 415.537,109.413 420.537,109.746 425.5,110.5C 425.53,111.497 425.03,112.164 424,112.5C 422.234,111.767 420.401,111.433 418.5,111.5C 418.5,117.833 418.5,124.167 418.5,130.5C 418.167,130.5 417.833,130.5 417.5,130.5C 417.83,123.8 417.497,117.134 416.5,110.5C 415.893,110.624 415.56,110.957 415.5,111.5C 412.348,110.959 409.848,111.959 408,114.5C 407.51,113.207 407.343,111.873 407.5,110.5C 408.209,109.596 409.209,109.263 410.5,109.5 Z"/></g>
<g><path style="opacity:1" fill="#f5e8c7" d="M 300.5,106.5 C 301.209,107.404 302.209,107.737 303.5,107.5C 319.658,108.496 335.991,108.83 352.5,108.5C 352.334,113.844 352.501,119.177 353,124.5C 354.461,125.883 355.294,125.549 355.5,123.5C 355.5,122.833 355.5,122.167 355.5,121.5C 357.785,118.134 358.119,114.468 356.5,110.5C 357.15,110.804 357.817,111.137 358.5,111.5C 360.046,116.722 359.713,121.722 357.5,126.5C 355.955,127.452 354.288,127.785 352.5,127.5C 352.5,129.167 352.5,130.833 352.5,132.5C 349.833,132.5 347.167,132.5 344.5,132.5C 344.5,134.833 344.5,137.167 344.5,139.5C 342.833,139.5 341.167,139.5 339.5,139.5C 339.233,133.9 336.566,129.9 331.5,127.5C 329.2,124.676 326.2,122.843 322.5,122C 316.986,121.07 311.652,121.57 306.5,123.5C 301.444,126.223 297.777,130.223 295.5,135.5C 294.506,125.347 294.172,115.014 294.5,104.5C 295.117,104.389 295.617,104.056 296,103.5C 297.129,105.141 298.629,106.141 300.5,106.5 Z"/></g>
<g><path style="opacity:1" fill="#363636" d="M 485.5,110.5 C 485.5,111.167 485.5,111.833 485.5,112.5C 482.833,112.167 480.167,111.833 477.5,111.5C 477.5,117.833 477.5,124.167 477.5,130.5C 476.5,130.5 475.5,130.5 474.5,130.5C 474.5,124.167 474.5,117.833 474.5,111.5C 472.585,111.216 470.919,111.549 469.5,112.5C 467.334,115.04 466.334,114.373 466.5,110.5C 472.833,109.167 479.167,109.167 485.5,110.5 Z"/></g>
<g><path style="opacity:1" fill="#a7a7a7" d="M 469.5,112.5 C 470.919,111.549 472.585,111.216 474.5,111.5C 474.5,117.833 474.5,124.167 474.5,130.5C 473.51,124.69 473.177,118.69 473.5,112.5C 472.167,112.5 470.833,112.5 469.5,112.5 Z"/></g>
<g><path style="opacity:1" fill="#999999" d="M 407.5,110.5 C 407.343,111.873 407.51,113.207 408,114.5C 409.848,111.959 412.348,110.959 415.5,111.5C 415.5,117.833 415.5,124.167 415.5,130.5C 414.51,124.69 414.177,118.69 414.5,112.5C 411.833,113.5 409.167,114.5 406.5,115.5C 406.216,113.585 406.549,111.919 407.5,110.5 Z"/></g>
<g><path style="opacity:1" fill="#dedede" d="M 422.5,108.5 C 426.5,107.833 428.167,109.5 427.5,113.5C 425.167,113.5 422.833,113.5 420.5,113.5C 420.666,118.511 420.499,123.511 420,128.5C 419.722,129.416 419.222,130.082 418.5,130.5C 418.5,124.167 418.5,117.833 418.5,111.5C 420.401,111.433 422.234,111.767 424,112.5C 425.03,112.164 425.53,111.497 425.5,110.5C 424.5,109.833 423.5,109.167 422.5,108.5 Z"/></g>
<g><path style="opacity:1" fill="#c8c8c8" d="M 485.5,112.5 C 483.393,113.468 481.059,113.802 478.5,113.5C 478.822,119.358 478.489,125.025 477.5,130.5C 477.5,124.167 477.5,117.833 477.5,111.5C 480.167,111.833 482.833,112.167 485.5,112.5 Z"/></g>
<g><path style="opacity:1" fill="#f4b265" d="M 355.5,110.5 C 355.833,110.5 356.167,110.5 356.5,110.5C 358.119,114.468 357.785,118.134 355.5,121.5C 355.5,117.833 355.5,114.167 355.5,110.5 Z"/></g>
<g><path style="opacity:1" fill="#d25531" d="M 244.5,98.5 C 245.167,98.5 245.833,98.5 246.5,98.5C 246.5,99.1667 246.833,99.5 247.5,99.5C 261.167,100.167 274.833,100.833 288.5,101.5C 274.255,101.824 260.088,101.49 246,100.5C 245.505,102.473 245.338,104.473 245.5,106.5C 245.181,116.749 245.514,126.916 246.5,137C 261.496,137.5 276.496,137.667 291.5,137.5C 291.5,137.833 291.5,138.167 291.5,138.5C 275.833,138.5 260.167,138.5 244.5,138.5C 244.5,125.167 244.5,111.833 244.5,98.5 Z"/></g>
<g><path style="opacity:1" fill="#a1a1a1" d="M 449.5,111.5 C 448.781,113.764 448.448,116.097 448.5,118.5C 447.853,117.726 447.52,116.726 447.5,115.5C 447.34,113.645 448.007,112.312 449.5,111.5 Z"/></g>
<g><path style="opacity:1" fill="#cc4a1a" d="M 355.5,109.5 C 355.5,109.833 355.5,110.167 355.5,110.5C 355.5,114.167 355.5,117.833 355.5,121.5C 355.5,122.167 355.5,122.833 355.5,123.5C 354.191,121.429 353.525,118.929 353.5,116C 353.667,113.5 353.833,111 354,108.5C 354.383,109.056 354.883,109.389 355.5,109.5 Z"/></g>
<g><path style="opacity:1" fill="#626262" d="M 433.5,117.5 C 435.5,117.5 437.5,117.5 439.5,117.5C 439.5,118.5 439.5,119.5 439.5,120.5C 437.5,120.5 435.5,120.5 433.5,120.5C 433.5,119.5 433.5,118.5 433.5,117.5 Z"/></g>
<g><path style="opacity:1" fill="#c8370c" d="M 171.5,126.5 C 169.167,125.167 166.833,123.833 164.5,122.5C 158.87,121.708 153.203,121.375 147.5,121.5C 148.692,119.078 150.692,118.078 153.5,118.5C 158.395,119.904 163.395,120.57 168.5,120.5C 168.615,122.947 169.615,124.947 171.5,126.5 Z"/></g>
<g><path style="opacity:1" fill="#4b4b4b" d="M 390.5,112.5 C 393.167,112.5 395.833,112.5 398.5,112.5C 399.3,117.126 397.966,120.96 394.5,124C 396.256,124.202 397.922,124.702 399.5,125.5C 399.333,125.833 399.167,126.167 399,126.5C 395.606,127.456 392.106,127.789 388.5,127.5C 388.351,126.448 388.517,125.448 389,124.5C 393.144,122.866 394.977,119.866 394.5,115.5C 392.712,115.785 391.045,115.452 389.5,114.5C 389.863,113.817 390.196,113.15 390.5,112.5 Z"/></g>
<g><path style="opacity:1" fill="#353535" d="M 449.5,111.5 C 452.397,111.125 455.063,111.625 457.5,113C 450.214,113.483 449.881,114.817 456.5,117C 458.991,119.968 459.157,123.135 457,126.5C 454.421,128.347 451.588,128.847 448.5,128C 447.663,126.989 447.33,125.822 447.5,124.5C 449.819,125.167 452.153,125.334 454.5,125C 456.662,119.322 454.662,117.156 448.5,118.5C 448.448,116.097 448.781,113.764 449.5,111.5 Z"/></g>
<g><path style="opacity:1" fill="#5d311c" d="M 147.5,121.5 C 153.203,121.375 158.87,121.708 164.5,122.5C 165.5,123.833 166.5,125.167 167.5,126.5C 160.498,123.32 153.165,122.653 145.5,124.5C 145.833,123.833 146.167,123.167 146.5,122.5C 147.167,122.5 147.5,122.167 147.5,121.5 Z"/></g>
<g><path style="opacity:1" fill="#4d4839" d="M 331.5,127.5 C 324.909,123.975 317.909,122.809 310.5,124C 306.072,126.591 302.072,129.758 298.5,133.5C 300.763,129.897 303.43,126.564 306.5,123.5C 311.652,121.57 316.986,121.07 322.5,122C 326.2,122.843 329.2,124.676 331.5,127.5 Z"/></g>
<g><path style="opacity:1" fill="#b2381b" d="M 146.5,122.5 C 146.167,123.167 145.833,123.833 145.5,124.5C 143.597,124.796 141.93,125.463 140.5,126.5C 139.504,126.414 138.671,126.748 138,127.5C 136.603,130.354 135.103,133.02 133.5,135.5C 134.205,132.274 135.205,129.107 136.5,126C 139.894,124.925 143.228,123.758 146.5,122.5 Z"/></g>
<g><path style="opacity:1" fill="#aa4e31" d="M 164.5,122.5 C 166.833,123.833 169.167,125.167 171.5,126.5C 172.833,128.167 174.167,129.833 175.5,131.5C 177.064,135.674 177.731,140.007 177.5,144.5C 196.833,144.5 216.167,144.5 235.5,144.5C 216.341,145.497 197.007,145.83 177.5,145.5C 176.833,145.5 176.167,145.5 175.5,145.5C 176.061,144.092 176.395,142.592 176.5,141C 175.296,138.003 174.463,134.836 174,131.5C 171.929,129.563 169.762,127.896 167.5,126.5C 166.5,125.167 165.5,123.833 164.5,122.5 Z"/></g>
<g><path style="opacity:1" fill="#88806d" d="M 306.5,123.5 C 303.43,126.564 300.763,129.897 298.5,133.5C 297.4,134.605 296.733,135.938 296.5,137.5C 296.167,137.5 295.833,137.5 295.5,137.5C 295.5,136.833 295.5,136.167 295.5,135.5C 297.777,130.223 301.444,126.223 306.5,123.5 Z"/></g>
<g><path style="opacity:1" fill="#1a1a1a" d="M 417.5,130.5 C 416.833,130.5 416.167,130.5 415.5,130.5C 415.5,124.167 415.5,117.833 415.5,111.5C 415.56,110.957 415.893,110.624 416.5,110.5C 417.497,117.134 417.83,123.8 417.5,130.5 Z"/></g>
<g><path style="opacity:1" fill="#211b19" d="M 331.5,127.5 C 332.373,129.886 333.873,131.886 336,133.5C 337.457,136.366 337.79,139.366 337,142.5C 335.989,143.337 334.822,143.67 333.5,143.5C 333.771,141.62 333.104,140.287 331.5,139.5C 327.686,130.976 321.352,127.976 312.5,130.5C 312.167,130.5 311.833,130.5 311.5,130.5C 304.246,133.703 301.246,139.37 302.5,147.5C 302.698,149.575 302.865,151.575 303,153.5C 302.586,153.957 302.086,154.291 301.5,154.5C 300.818,153.757 300.151,153.091 299.5,152.5C 298.599,151.71 297.932,150.71 297.5,149.5C 297.5,148.167 297.5,146.833 297.5,145.5C 297.425,142.794 297.092,140.127 296.5,137.5C 296.733,135.938 297.4,134.605 298.5,133.5C 302.072,129.758 306.072,126.591 310.5,124C 317.909,122.809 324.909,123.975 331.5,127.5 Z"/></g>
<g><path style="opacity:1" fill="#6c3323" d="M 82.5,131.5 C 82.8333,131.5 83.1667,131.5 83.5,131.5C 85.8333,131.5 88.1667,131.5 90.5,131.5C 91.0545,135.012 90.3878,138.012 88.5,140.5C 88.5,137.833 88.5,135.167 88.5,132.5C 86.2646,132.795 84.2646,132.461 82.5,131.5 Z"/></g>
<g><path style="opacity:1" fill="#763621" d="M 140.5,126.5 C 136.709,132.272 133.709,138.272 131.5,144.5C 131.336,141.813 131.503,139.146 132,136.5C 132.383,135.944 132.883,135.611 133.5,135.5C 135.103,133.02 136.603,130.354 138,127.5C 138.671,126.748 139.504,126.414 140.5,126.5 Z"/></g>
<g><path style="opacity:1" fill="#6e6a5f" d="M 352.5,132.5 C 354.483,132.157 355.817,132.824 356.5,134.5C 352.833,134.5 349.167,134.5 345.5,134.5C 345.795,136.735 345.461,138.735 344.5,140.5C 344.5,140.167 344.5,139.833 344.5,139.5C 344.5,137.167 344.5,134.833 344.5,132.5C 347.167,132.5 349.833,132.5 352.5,132.5 Z"/></g>
<g><path style="opacity:1" fill="#797979" d="M 79.5,131.5 C 76.8333,134.5 76.8333,137.5 79.5,140.5C 75.8539,139.538 74.6872,137.205 76,133.5C 76.8159,132.177 77.9826,131.511 79.5,131.5 Z"/></g>
<g><path style="opacity:1" fill="#403a37" d="M 79.5,131.5 C 80.5,131.5 81.5,131.5 82.5,131.5C 84.2646,132.461 86.2646,132.795 88.5,132.5C 88.5,135.167 88.5,137.833 88.5,140.5C 87.0413,140.433 85.7079,140.766 84.5,141.5C 84.1667,141.5 83.8333,141.5 83.5,141.5C 82.4324,140.566 81.099,140.232 79.5,140.5C 76.8333,137.5 76.8333,134.5 79.5,131.5 Z"/></g>
<g><path style="opacity:1" fill="#dedbda" d="M 311.5,130.5 C 311.833,130.5 312.167,130.5 312.5,130.5C 313.873,130.343 315.207,130.51 316.5,131C 315.663,132.011 315.33,133.178 315.5,134.5C 317.451,134.773 318.951,134.107 320,132.5C 320.112,135.447 321.612,136.78 324.5,136.5C 325.725,141.509 325.725,146.509 324.5,151.5C 323.5,151.5 322.5,151.5 321.5,151.5C 321.5,152.5 321.5,153.5 321.5,154.5C 323.179,154.285 324.179,154.952 324.5,156.5C 324.167,156.5 323.833,156.5 323.5,156.5C 316.491,155.481 311.491,151.814 308.5,145.5C 308.5,144.5 308.5,143.5 308.5,142.5C 307.167,142.5 305.833,142.5 304.5,142.5C 304.34,140.801 304.506,139.134 305,137.5C 305.674,138.578 306.674,139.245 308,139.5C 310.137,138.422 311.97,136.922 313.5,135C 312.586,133.594 311.92,132.094 311.5,130.5 Z"/></g>
<g><path style="opacity:1" fill="#403d3b" d="M 356.5,134.5 C 358.441,136.011 358.941,138.011 358,140.5C 356.89,142.037 355.39,142.703 353.5,142.5C 350.39,141.912 347.39,141.245 344.5,140.5C 345.461,138.735 345.795,136.735 345.5,134.5C 349.167,134.5 352.833,134.5 356.5,134.5 Z"/></g>
<g><path style="opacity:1" fill="#ca5b2e" d="M 239.5,139.5 C 239.833,139.5 240.167,139.5 240.5,139.5C 258.5,139.5 276.5,139.5 294.5,139.5C 293.699,141.042 293.366,142.708 293.5,144.5C 293.167,144.5 292.833,144.5 292.5,144.5C 292.5,143.5 292.5,142.5 292.5,141.5C 275.799,140.848 259.466,141.515 243.5,143.5C 242.833,143.5 242.167,143.5 241.5,143.5C 240.791,142.596 239.791,142.263 238.5,142.5C 239.11,141.609 239.443,140.609 239.5,139.5 Z"/></g>
<g><path style="opacity:1" fill="#d2370e" d="M 292.5,144.5 C 275.991,144.83 259.658,144.496 243.5,143.5C 259.466,141.515 275.799,140.848 292.5,141.5C 292.5,142.5 292.5,143.5 292.5,144.5 Z"/></g>
<g><path style="opacity:1" fill="#797876" d="M 313.5,140.5 C 315.928,141.39 318.262,141.723 320.5,141.5C 319.573,143.491 319.406,145.491 320,147.5C 317.88,146.395 315.713,146.395 313.5,147.5C 314.833,145.167 314.833,142.833 313.5,140.5 Z"/></g>
<g><path style="opacity:1" fill="#aa5035" d="M 339.5,139.5 C 341.167,139.5 342.833,139.5 344.5,139.5C 344.5,139.833 344.5,140.167 344.5,140.5C 347.39,141.245 350.39,141.912 353.5,142.5C 353.5,143.5 353.5,144.5 353.5,145.5C 348.5,145.5 343.5,145.5 338.5,145.5C 339.341,143.621 339.675,141.621 339.5,139.5 Z"/></g>
<g><path style="opacity:1" fill="#251f1d" d="M 167.5,126.5 C 169.762,127.896 171.929,129.563 174,131.5C 174.463,134.836 175.296,138.003 176.5,141C 176.395,142.592 176.061,144.092 175.5,145.5C 174.322,152.516 170.655,157.85 164.5,161.5C 157.268,164.47 150.268,164.137 143.5,160.5C 141.376,159.969 139.876,158.635 139,156.5C 136.901,152.983 135.401,149.316 134.5,145.5C 133.5,145.5 132.5,145.5 131.5,145.5C 131.5,145.167 131.5,144.833 131.5,144.5C 133.709,138.272 136.709,132.272 140.5,126.5C 141.93,125.463 143.597,124.796 145.5,124.5C 153.165,122.653 160.498,123.32 167.5,126.5 Z"/></g>
<g><path style="opacity:1" fill="#bfbbb9" d="M 149.5,129.5 C 158.264,127.802 164.764,130.802 169,138.5C 170.338,153.494 163.504,159.994 148.5,158C 140.079,151.798 138.245,143.965 143,134.5C 145.326,132.934 147.492,131.268 149.5,129.5 Z"/></g>
<g><path style="opacity:1" fill="#f0ecec" d="M 150.5,135.5 C 158.624,134.612 163.29,138.279 164.5,146.5C 159.024,154.055 153.191,154.388 147,147.5C 146.721,143.83 146.888,140.163 147.5,136.5C 148.791,136.737 149.791,136.404 150.5,135.5 Z"/></g>
<g><path style="opacity:1" fill="#c4bebe" d="M 158.5,140.5 C 156.482,141.623 154.482,141.623 152.5,140.5C 151.167,142.833 151.167,145.167 152.5,147.5C 154.482,146.377 156.482,146.377 158.5,147.5C 156.052,148.473 153.385,148.806 150.5,148.5C 150.5,145.5 150.5,142.5 150.5,139.5C 153.385,139.194 156.052,139.527 158.5,140.5 Z"/></g>
<g><path style="opacity:1" fill="#523625" d="M 295.5,137.5 C 295.833,137.5 296.167,137.5 296.5,137.5C 297.092,140.127 297.425,142.794 297.5,145.5C 296.167,145.5 294.833,145.5 293.5,145.5C 293.5,145.167 293.5,144.833 293.5,144.5C 293.366,142.708 293.699,141.042 294.5,139.5C 295.338,139.158 295.672,138.492 295.5,137.5 Z"/></g>
<g><path style="opacity:1" fill="#a29e9c" d="M 311.5,130.5 C 311.92,132.094 312.586,133.594 313.5,135C 311.97,136.922 310.137,138.422 308,139.5C 306.674,139.245 305.674,138.578 305,137.5C 304.506,139.134 304.34,140.801 304.5,142.5C 305.833,142.5 307.167,142.5 308.5,142.5C 308.5,143.5 308.5,144.5 308.5,145.5C 307.167,145.5 305.833,145.5 304.5,145.5C 304.5,147.167 304.5,148.833 304.5,150.5C 303.833,149.5 303.167,148.5 302.5,147.5C 301.246,139.37 304.246,133.703 311.5,130.5 Z"/></g>
<g><path style="opacity:1" fill="#b1afae" d="M 313.5,140.5 C 315.948,139.527 318.615,139.194 321.5,139.5C 321.5,142.5 321.5,145.5 321.5,148.5C 318.615,148.806 315.948,148.473 313.5,147.5C 315.713,146.395 317.88,146.395 320,147.5C 319.406,145.491 319.573,143.491 320.5,141.5C 318.262,141.723 315.928,141.39 313.5,140.5 Z"/></g>
<g><path style="opacity:1" fill="#dd765a" d="M 88.5,140.5 C 87.9094,141.151 87.2427,141.818 86.5,142.5C 86.7093,143.086 87.0426,143.586 87.5,144C 102.163,144.5 116.83,144.667 131.5,144.5C 131.5,144.833 131.5,145.167 131.5,145.5C 116.496,145.667 101.496,145.5 86.5,145C 85.1772,144.184 84.5106,143.017 84.5,141.5C 85.7079,140.766 87.0413,140.433 88.5,140.5 Z"/></g>
<g><path style="opacity:1" fill="#e07861" d="M 241.5,144.5 C 241.5,144.167 241.5,143.833 241.5,143.5C 242.167,143.5 242.833,143.5 243.5,143.5C 259.658,144.496 275.991,144.83 292.5,144.5C 292.833,144.5 293.167,144.5 293.5,144.5C 293.5,144.833 293.5,145.167 293.5,145.5C 276.5,145.5 259.5,145.5 242.5,145.5C 242.5,144.833 242.167,144.5 241.5,144.5 Z"/></g>
<g><path style="opacity:1" fill="#f5d1c5" d="M 83.5,141.5 C 83.8333,141.5 84.1667,141.5 84.5,141.5C 84.5106,143.017 85.1772,144.184 86.5,145C 101.496,145.5 116.496,145.667 131.5,145.5C 116.339,146.661 101.006,146.828 85.5,146C 83.8934,144.951 83.2267,143.451 83.5,141.5 Z"/></g>
<g><path style="opacity:1" fill="#f3cbbb" d="M 238.5,142.5 C 239.791,142.263 240.791,142.596 241.5,143.5C 241.5,143.833 241.5,144.167 241.5,144.5C 239.571,144.231 237.905,144.731 236.5,146C 216.836,146.5 197.169,146.667 177.5,146.5C 177.5,146.167 177.5,145.833 177.5,145.5C 197.007,145.83 216.341,145.497 235.5,144.5C 236.71,144.068 237.71,143.401 238.5,142.5 Z"/></g>
<g><path style="opacity:1" fill="#edccc2" d="M 242.5,145.5 C 259.5,145.5 276.5,145.5 293.5,145.5C 294.833,145.5 296.167,145.5 297.5,145.5C 297.5,146.833 297.5,148.167 297.5,149.5C 296.733,148.828 296.066,147.995 295.5,147C 277.662,146.832 259.995,146.332 242.5,145.5 Z"/></g>
<g><path style="opacity:1" fill="#918b8c" d="M 158.5,140.5 C 157.314,142.874 157.314,145.208 158.5,147.5C 156.482,146.377 154.482,146.377 152.5,147.5C 151.167,145.167 151.167,142.833 152.5,140.5C 154.482,141.623 156.482,141.623 158.5,140.5 Z"/></g>
<g><path style="opacity:1" fill="#3d3737" d="M 153.5,142.5 C 154.5,142.5 155.5,142.5 156.5,142.5C 156.5,143.5 156.5,144.5 156.5,145.5C 155.5,145.5 154.5,145.5 153.5,145.5C 153.5,144.5 153.5,143.5 153.5,142.5 Z"/></g>
<g><path style="opacity:1" fill="#b8b4b2" d="M 312.5,130.5 C 321.352,127.976 327.686,130.976 331.5,139.5C 332.717,146.722 330.383,152.388 324.5,156.5C 324.179,154.952 323.179,154.285 321.5,154.5C 321.5,153.5 321.5,152.5 321.5,151.5C 322.5,151.5 323.5,151.5 324.5,151.5C 325.725,146.509 325.725,141.509 324.5,136.5C 321.612,136.78 320.112,135.447 320,132.5C 318.951,134.107 317.451,134.773 315.5,134.5C 315.33,133.178 315.663,132.011 316.5,131C 315.207,130.51 313.873,130.343 312.5,130.5 Z"/></g>
<g><path style="opacity:1" fill="#a09d9b" d="M 338.5,145.5 C 338.55,150.045 336.883,153.711 333.5,156.5C 335.37,152.874 337.037,149.208 338.5,145.5 Z"/></g>
<g><path style="opacity:1" fill="#c5c1bf" d="M 308.5,145.5 C 311.491,151.814 316.491,155.481 323.5,156.5C 315.25,160.639 308.917,158.639 304.5,150.5C 304.5,148.833 304.5,147.167 304.5,145.5C 305.833,145.5 307.167,145.5 308.5,145.5 Z"/></g>
<g><path style="opacity:1" fill="#dcdbd9" d="M 175.5,145.5 C 176.167,145.5 176.833,145.5 177.5,145.5C 177.5,145.833 177.5,146.167 177.5,146.5C 176.193,148.223 176.193,150.057 177.5,152C 176.12,153.324 175.786,154.657 176.5,156C 172.146,157.526 168.479,160.026 165.5,163.5C 163.929,164.309 162.262,164.643 160.5,164.5C 161.833,163.5 163.167,162.5 164.5,161.5C 170.655,157.85 174.322,152.516 175.5,145.5 Z"/></g>
<g><path style="opacity:1" fill="#2c2824" d="M 331.5,127.5 C 336.566,129.9 339.233,133.9 339.5,139.5C 339.675,141.621 339.341,143.621 338.5,145.5C 337.037,149.208 335.37,152.874 333.5,156.5C 329.973,159.423 326.306,162.09 322.5,164.5C 313.002,166.261 305.502,163.261 300,155.5C 299.517,154.552 299.351,153.552 299.5,152.5C 300.151,153.091 300.818,153.757 301.5,154.5C 302.086,154.291 302.586,153.957 303,153.5C 302.865,151.575 302.698,149.575 302.5,147.5C 303.167,148.5 303.833,149.5 304.5,150.5C 308.917,158.639 315.25,160.639 323.5,156.5C 323.833,156.5 324.167,156.5 324.5,156.5C 330.383,152.388 332.717,146.722 331.5,139.5C 333.104,140.287 333.771,141.62 333.5,143.5C 334.822,143.67 335.989,143.337 337,142.5C 337.79,139.366 337.457,136.366 336,133.5C 333.873,131.886 332.373,129.886 331.5,127.5 Z"/></g>
<g><path style="opacity:1" fill="#524f4e" d="M 143.5,160.5 C 150.268,164.137 157.268,164.47 164.5,161.5C 163.167,162.5 161.833,163.5 160.5,164.5C 156.154,164.666 151.821,164.499 147.5,164C 145.676,163.34 144.343,162.173 143.5,160.5 Z"/></g>
<g><path style="opacity:1" fill="#bfbebc" d="M 333.5,156.5 C 332.266,159.407 330.266,161.741 327.5,163.5C 325.929,164.309 324.262,164.643 322.5,164.5C 326.306,162.09 329.973,159.423 333.5,156.5 Z"/></g>
</svg>
