<?xml version="1.0" encoding="UTF-8"?>
<!DOCTYPE svg PUBLIC "-//W3C//DTD SVG 1.1//EN" "http://www.w3.org/Graphics/SVG/1.1/DTD/svg11.dtd">
<svg xmlns="http://www.w3.org/2000/svg" version="1.1" width="512px" height="512px" style="shape-rendering:geometricPrecision; text-rendering:geometricPrecision; image-rendering:optimizeQuality; fill-rule:evenodd; clip-rule:evenodd" xmlns:xlink="http://www.w3.org/1999/xlink">
<g><path style="opacity:0.942" fill="#000000" d="M 22.5,-0.5 C 177.833,-0.5 333.167,-0.5 488.5,-0.5C 499.34,1.06707 507.006,6.73374 511.5,16.5C 511.5,167.833 511.5,319.167 511.5,470.5C 506.925,479.978 499.258,485.312 488.5,486.5C 488.666,491.844 488.499,497.177 488,502.5C 487.127,506.525 484.961,509.525 481.5,511.5C 330.833,511.5 180.167,511.5 29.5,511.5C 26.0393,509.525 23.8727,506.525 23,502.5C 22.5006,497.177 22.334,491.844 22.5,486.5C 11.7416,485.312 4.07491,479.978 -0.5,470.5C -0.5,319.167 -0.5,167.833 -0.5,16.5C 3.99372,6.73374 11.6604,1.06707 22.5,-0.5 Z M 28.5,13.5 C 179.834,13.3333 331.167,13.5 482.5,14C 487.621,14.4804 492.121,16.3138 496,19.5C 496.667,168.833 496.667,318.167 496,467.5C 493.228,469.761 490.062,471.261 486.5,472C 332.5,472.667 178.5,472.667 24.5,472C 20.9382,471.261 17.7716,469.761 15,467.5C 14.3333,318.167 14.3333,168.833 15,19.5C 15.8333,18.6667 16.6667,17.8333 17.5,17C 21.2541,15.6912 24.9207,14.5246 28.5,13.5 Z M 37.5,36.5 C 103.833,36.5 170.167,36.5 236.5,36.5C 236.5,102.833 236.5,169.167 236.5,235.5C 170.167,235.5 103.833,235.5 37.5,235.5C 37.5,169.167 37.5,102.833 37.5,36.5 Z M 274.5,36.5 C 340.833,36.5 407.167,36.5 473.5,36.5C 473.5,102.833 473.5,169.167 473.5,235.5C 407.167,235.5 340.833,235.5 274.5,235.5C 274.5,169.167 274.5,102.833 274.5,36.5 Z M 95.5,77.5 C 123.169,77.3334 150.835,77.5 178.5,78C 179.333,78.8333 180.167,79.6667 181,80.5C 181.667,83.8333 181.667,87.1667 181,90.5C 180.167,91.3333 179.333,92.1667 178.5,93C 150.833,93.6667 123.167,93.6667 95.5,93C 93.051,91.1367 92.051,88.6367 92.5,85.5C 92.0775,82.2185 93.0775,79.5518 95.5,77.5 Z M 332.5,77.5 C 360.169,77.3334 387.835,77.5 415.5,78C 416.333,78.8333 417.167,79.6667 418,80.5C 418.667,83.8333 418.667,87.1667 418,90.5C 417.167,91.3333 416.333,92.1667 415.5,93C 387.833,93.6667 360.167,93.6667 332.5,93C 330.051,91.1367 329.051,88.6367 329.5,85.5C 329.078,82.2185 330.078,79.5518 332.5,77.5 Z M 37.5,250.5 C 103.833,250.5 170.167,250.5 236.5,250.5C 236.5,316.833 236.5,383.167 236.5,449.5C 170.167,449.5 103.833,449.5 37.5,449.5C 37.5,383.167 37.5,316.833 37.5,250.5 Z M 274.5,250.5 C 340.833,250.5 407.167,250.5 473.5,250.5C 473.5,316.833 473.5,383.167 473.5,449.5C 407.167,449.5 340.833,449.5 274.5,449.5C 274.5,383.167 274.5,316.833 274.5,250.5 Z M 96.5,290.5 C 123.502,290.333 150.502,290.5 177.5,291C 179.333,291.5 180.5,292.667 181,294.5C 181.667,297.833 181.667,301.167 181,304.5C 180.097,305.701 178.931,306.535 177.5,307C 150.5,307.667 123.5,307.667 96.5,307C 93.0987,305.68 91.7653,303.18 92.5,299.5C 91.985,295.54 93.3183,292.54 96.5,290.5 Z M 333.5,290.5 C 360.502,290.333 387.502,290.5 414.5,291C 416.333,291.5 417.5,292.667 418,294.5C 418.667,297.833 418.667,301.167 418,304.5C 417.097,305.701 415.931,306.535 414.5,307C 387.5,307.667 360.5,307.667 333.5,307C 330.099,305.68 328.765,303.18 329.5,299.5C 328.985,295.54 330.318,292.54 333.5,290.5 Z M 37.5,487.5 C 182.833,487.5 328.167,487.5 473.5,487.5C 473.5,490.833 473.5,494.167 473.5,497.5C 328.167,497.5 182.833,497.5 37.5,497.5C 37.5,494.167 37.5,490.833 37.5,487.5 Z"/></g>
<g><path style="opacity:0.926" fill="#000000" d="M 26.5,22.5 C 100.167,22.3333 173.834,22.5 247.5,23C 248.333,23.8333 249.167,24.6667 250,25.5C 251.663,169.753 251.997,314.086 251,458.5C 250.727,460.329 249.893,461.829 248.5,463C 174.915,464.66 101.248,464.994 27.5,464C 26.0692,463.535 24.9025,462.701 24,461.5C 22.3381,316.889 22.0048,172.222 23,27.5C 23.9973,25.6769 25.1639,24.0103 26.5,22.5 Z M 37.5,36.5 C 37.5,102.833 37.5,169.167 37.5,235.5C 103.833,235.5 170.167,235.5 236.5,235.5C 236.5,169.167 236.5,102.833 236.5,36.5C 170.167,36.5 103.833,36.5 37.5,36.5 Z M 95.5,77.5 C 93.0775,79.5518 92.0775,82.2185 92.5,85.5C 92.051,88.6367 93.051,91.1367 95.5,93C 123.167,93.6667 150.833,93.6667 178.5,93C 179.333,92.1667 180.167,91.3333 181,90.5C 181.667,87.1667 181.667,83.8333 181,80.5C 180.167,79.6667 179.333,78.8333 178.5,78C 150.835,77.5 123.169,77.3334 95.5,77.5 Z M 37.5,250.5 C 37.5,316.833 37.5,383.167 37.5,449.5C 103.833,449.5 170.167,449.5 236.5,449.5C 236.5,383.167 236.5,316.833 236.5,250.5C 170.167,250.5 103.833,250.5 37.5,250.5 Z M 96.5,290.5 C 93.3183,292.54 91.985,295.54 92.5,299.5C 91.7653,303.18 93.0987,305.68 96.5,307C 123.5,307.667 150.5,307.667 177.5,307C 178.931,306.535 180.097,305.701 181,304.5C 181.667,301.167 181.667,297.833 181,294.5C 180.5,292.667 179.333,291.5 177.5,291C 150.502,290.5 123.502,290.333 96.5,290.5 Z"/></g>
<g><path style="opacity:0.926" fill="#000000" d="M 263.5,22.5 C 337.167,22.3333 410.834,22.5 484.5,23C 485.333,23.8333 486.167,24.6667 487,25.5C 488.663,169.753 488.997,314.086 488,458.5C 487.727,460.329 486.893,461.829 485.5,463C 411.915,464.66 338.248,464.994 264.5,464C 263.069,463.535 261.903,462.701 261,461.5C 259.338,316.889 259.005,172.222 260,27.5C 260.997,25.6769 262.164,24.0103 263.5,22.5 Z M 274.5,36.5 C 274.5,102.833 274.5,169.167 274.5,235.5C 340.833,235.5 407.167,235.5 473.5,235.5C 473.5,169.167 473.5,102.833 473.5,36.5C 407.167,36.5 340.833,36.5 274.5,36.5 Z M 332.5,77.5 C 330.078,79.5518 329.078,82.2185 329.5,85.5C 329.051,88.6367 330.051,91.1367 332.5,93C 360.167,93.6667 387.833,93.6667 415.5,93C 416.333,92.1667 417.167,91.3333 418,90.5C 418.667,87.1667 418.667,83.8333 418,80.5C 417.167,79.6667 416.333,78.8333 415.5,78C 387.835,77.5 360.169,77.3334 332.5,77.5 Z M 274.5,250.5 C 274.5,316.833 274.5,383.167 274.5,449.5C 340.833,449.5 407.167,449.5 473.5,449.5C 473.5,383.167 473.5,316.833 473.5,250.5C 407.167,250.5 340.833,250.5 274.5,250.5 Z M 333.5,290.5 C 330.318,292.54 328.985,295.54 329.5,299.5C 328.765,303.18 330.099,305.68 333.5,307C 360.5,307.667 387.5,307.667 414.5,307C 415.931,306.535 417.097,305.701 418,304.5C 418.667,301.167 418.667,297.833 418,294.5C 417.5,292.667 416.333,291.5 414.5,291C 387.502,290.5 360.502,290.333 333.5,290.5 Z"/></g>
<g><path style="opacity:0.914" fill="#000000" d="M 93.5,62.5 C 123.883,62.0311 154.217,62.5311 184.5,64C 190.837,66.8361 194.67,71.6695 196,78.5C 197.537,86.7361 196.204,94.4027 192,101.5C 188.896,104.933 185.063,107.1 180.5,108C 151.5,108.667 122.5,108.667 93.5,108C 82.2869,104.613 76.9535,96.946 77.5,85C 77.3732,73.3633 82.7066,65.8633 93.5,62.5 Z M 95.5,77.5 C 93.0775,79.5518 92.0775,82.2185 92.5,85.5C 92.051,88.6367 93.051,91.1367 95.5,93C 123.167,93.6667 150.833,93.6667 178.5,93C 179.333,92.1667 180.167,91.3333 181,90.5C 181.667,87.1667 181.667,83.8333 181,80.5C 180.167,79.6667 179.333,78.8333 178.5,78C 150.835,77.5 123.169,77.3334 95.5,77.5 Z"/></g>
<g><path style="opacity:0.915" fill="#000000" d="M 330.5,62.5 C 359.502,62.3334 388.502,62.5 417.5,63C 428.561,66.2497 433.894,73.7497 433.5,85.5C 433.699,97.1089 428.365,104.609 417.5,108C 388.5,108.667 359.5,108.667 330.5,108C 319.421,104.699 314.087,97.1992 314.5,85.5C 314.208,73.7045 319.542,66.0378 330.5,62.5 Z M 332.5,77.5 C 330.078,79.5518 329.078,82.2185 329.5,85.5C 329.051,88.6367 330.051,91.1367 332.5,93C 360.167,93.6667 387.833,93.6667 415.5,93C 416.333,92.1667 417.167,91.3333 418,90.5C 418.667,87.1667 418.667,83.8333 418,80.5C 417.167,79.6667 416.333,78.8333 415.5,78C 387.835,77.5 360.169,77.3334 332.5,77.5 Z"/></g>
<g><path style="opacity:0.934" fill="#000000" d="M 91.5,276.5 C 121.835,276.333 152.168,276.5 182.5,277C 192.461,280.913 197.127,288.247 196.5,299C 196.7,312.129 190.367,319.795 177.5,322C 148.793,322.958 120.126,322.625 91.5,321C 81.554,317.123 76.8874,309.79 77.5,299C 76.9953,288.158 81.662,280.658 91.5,276.5 Z M 96.5,290.5 C 93.3183,292.54 91.985,295.54 92.5,299.5C 91.7653,303.18 93.0987,305.68 96.5,307C 123.5,307.667 150.5,307.667 177.5,307C 178.931,306.535 180.097,305.701 181,304.5C 181.667,301.167 181.667,297.833 181,294.5C 180.5,292.667 179.333,291.5 177.5,291C 150.502,290.5 123.502,290.333 96.5,290.5 Z"/></g>
<g><path style="opacity:0.934" fill="#000000" d="M 328.5,276.5 C 358.835,276.333 389.168,276.5 419.5,277C 429.461,280.913 434.127,288.247 433.5,299C 433.7,312.129 427.367,319.795 414.5,322C 385.465,322.95 356.465,322.617 327.5,321C 316.217,314.78 312.05,305.28 315,292.5C 316.821,284.85 321.321,279.517 328.5,276.5 Z M 333.5,290.5 C 330.318,292.54 328.985,295.54 329.5,299.5C 328.765,303.18 330.099,305.68 333.5,307C 360.5,307.667 387.5,307.667 414.5,307C 415.931,306.535 417.097,305.701 418,304.5C 418.667,301.167 418.667,297.833 418,294.5C 417.5,292.667 416.333,291.5 414.5,291C 387.502,290.5 360.502,290.333 333.5,290.5 Z"/></g>
</svg>
