<?xml version="1.0" encoding="UTF-8"?>
<!DOCTYPE svg PUBLIC "-//W3C//DTD SVG 1.1//EN" "http://www.w3.org/Graphics/SVG/1.1/DTD/svg11.dtd">
<svg xmlns="http://www.w3.org/2000/svg" version="1.1" width="512px" height="512px" style="shape-rendering:geometricPrecision; text-rendering:geometricPrecision; image-rendering:optimizeQuality; fill-rule:evenodd; clip-rule:evenodd" xmlns:xlink="http://www.w3.org/1999/xlink">
<g><path style="opacity:0.997" fill="#000000" d="M 59.5,31.5 C 131.501,31.3333 203.501,31.5 275.5,32C 285.333,35.1667 291.833,41.6667 295,51.5C 295.667,91.5 295.667,131.5 295,171.5C 291.833,181.333 285.333,187.833 275.5,191C 253.836,191.5 232.169,191.667 210.5,191.5C 211.446,196.783 212.779,201.95 214.5,207C 262.832,207.5 311.166,207.667 359.5,207.5C 359.333,171.498 359.5,135.498 360,99.5C 360.5,97.6667 361.667,96.5 363.5,96C 398.167,95.3333 432.833,95.3333 467.5,96C 468.91,96.3678 469.91,97.2011 470.5,98.5C 471.493,134.79 471.827,171.124 471.5,207.5C 480.839,207.334 490.173,207.5 499.5,208C 501.333,208.5 502.5,209.667 503,211.5C 503.667,299.5 503.667,387.5 503,475.5C 502.5,477.333 501.333,478.5 499.5,479C 488.069,479.955 476.736,479.622 465.5,478C 464.874,477.25 464.374,476.416 464,475.5C 463.5,466.173 463.334,456.839 463.5,447.5C 420.833,447.5 378.167,447.5 335.5,447.5C 335.666,456.839 335.5,466.173 335,475.5C 334.626,476.416 334.126,477.25 333.5,478C 322.264,479.622 310.931,479.955 299.5,479C 297.667,478.5 296.5,477.333 296,475.5C 295.5,423.501 295.333,371.501 295.5,319.5C 212.833,319.5 130.167,319.5 47.5,319.5C 47.6667,371.501 47.5,423.501 47,475.5C 46.5,477.333 45.3333,478.5 43.5,479C 32.8333,479.667 22.1667,479.667 11.5,479C 9.66667,478.5 8.5,477.333 8,475.5C 7.00536,386.752 7.33869,298.085 9,209.5C 9.75044,208.874 10.5838,208.374 11.5,208C 47.8333,207.667 84.1667,207.333 120.5,207C 122.221,201.95 123.554,196.783 124.5,191.5C 102.831,191.667 81.1641,191.5 59.5,191C 50.8215,188.322 44.6549,182.822 41,174.5C 39.3505,133.559 39.0172,92.5594 40,51.5C 43.3514,41.6498 49.8514,34.9831 59.5,31.5 Z M 67.5,47.5 C 135.545,47.0135 203.545,47.5135 271.5,49C 275.944,51.1107 278.444,54.6107 279,59.5C 279.5,90.1649 279.667,120.832 279.5,151.5C 204.833,151.5 130.167,151.5 55.5,151.5C 55.3334,120.832 55.5,90.1649 56,59.5C 57.348,52.9875 61.1813,48.9875 67.5,47.5 Z M 375.5,111.5 C 386.167,111.5 396.833,111.5 407.5,111.5C 407.5,143.5 407.5,175.5 407.5,207.5C 396.833,207.5 386.167,207.5 375.5,207.5C 375.5,175.5 375.5,143.5 375.5,111.5 Z M 423.5,111.5 C 434.167,111.5 444.833,111.5 455.5,111.5C 455.5,143.5 455.5,175.5 455.5,207.5C 444.833,207.5 434.167,207.5 423.5,207.5C 423.5,175.5 423.5,143.5 423.5,111.5 Z M 57.5,167.5 C 130.836,167.167 204.17,167.5 277.5,168.5C 275.32,172.424 271.986,174.591 267.5,175C 200.833,175.667 134.167,175.667 67.5,175C 62.5482,174.536 59.2148,172.036 57.5,167.5 Z M 142.5,191.5 C 159.17,191.333 175.837,191.5 192.5,192C 194.221,197.05 195.554,202.217 196.5,207.5C 177.167,207.5 157.833,207.5 138.5,207.5C 139.525,202.067 140.858,196.733 142.5,191.5 Z M 23.5,223.5 C 178.167,223.5 332.833,223.5 487.5,223.5C 487.5,228.833 487.5,234.167 487.5,239.5C 332.833,239.5 178.167,239.5 23.5,239.5C 23.5,234.167 23.5,228.833 23.5,223.5 Z M 23.5,255.5 C 26.1667,255.5 28.8333,255.5 31.5,255.5C 31.5,324.833 31.5,394.167 31.5,463.5C 28.8333,463.5 26.1667,463.5 23.5,463.5C 23.5,394.167 23.5,324.833 23.5,255.5 Z M 47.5,255.5 C 130.167,255.5 212.833,255.5 295.5,255.5C 295.5,271.5 295.5,287.5 295.5,303.5C 212.833,303.5 130.167,303.5 47.5,303.5C 47.5,287.5 47.5,271.5 47.5,255.5 Z M 311.5,255.5 C 314.167,255.5 316.833,255.5 319.5,255.5C 319.5,324.833 319.5,394.167 319.5,463.5C 316.833,463.5 314.167,463.5 311.5,463.5C 311.5,394.167 311.5,324.833 311.5,255.5 Z M 335.5,255.5 C 378.167,255.5 420.833,255.5 463.5,255.5C 463.5,271.5 463.5,287.5 463.5,303.5C 420.833,303.5 378.167,303.5 335.5,303.5C 335.5,287.5 335.5,271.5 335.5,255.5 Z M 479.5,255.5 C 482.167,255.5 484.833,255.5 487.5,255.5C 487.5,324.833 487.5,394.167 487.5,463.5C 484.833,463.5 482.167,463.5 479.5,463.5C 479.5,394.167 479.5,324.833 479.5,255.5 Z M 335.5,319.5 C 378.167,319.5 420.833,319.5 463.5,319.5C 463.5,335.5 463.5,351.5 463.5,367.5C 420.833,367.5 378.167,367.5 335.5,367.5C 335.5,351.5 335.5,335.5 335.5,319.5 Z M 335.5,383.5 C 378.167,383.5 420.833,383.5 463.5,383.5C 463.5,399.5 463.5,415.5 463.5,431.5C 420.833,431.5 378.167,431.5 335.5,431.5C 335.5,415.5 335.5,399.5 335.5,383.5 Z"/></g>
<g><path style="opacity:0.976" fill="#000000" d="M 139.5,271.5 C 158.17,271.333 176.836,271.5 195.5,272C 197.333,272.5 198.5,273.667 199,275.5C 199.667,278.167 199.667,280.833 199,283.5C 198.5,285.333 197.333,286.5 195.5,287C 176.833,287.667 158.167,287.667 139.5,287C 136.484,285.471 135.151,282.971 135.5,279.5C 135.282,275.934 136.616,273.268 139.5,271.5 Z"/></g>
<g><path style="opacity:0.976" fill="#000000" d="M 371.5,271.5 C 390.17,271.333 408.836,271.5 427.5,272C 429.333,272.5 430.5,273.667 431,275.5C 431.667,278.167 431.667,280.833 431,283.5C 430.5,285.333 429.333,286.5 427.5,287C 408.833,287.667 390.167,287.667 371.5,287C 368.484,285.471 367.151,282.971 367.5,279.5C 367.282,275.934 368.616,273.268 371.5,271.5 Z"/></g>
<g><path style="opacity:0.976" fill="#000000" d="M 371.5,335.5 C 390.17,335.333 408.836,335.5 427.5,336C 429.333,336.5 430.5,337.667 431,339.5C 431.667,342.167 431.667,344.833 431,347.5C 430.5,349.333 429.333,350.5 427.5,351C 408.833,351.667 390.167,351.667 371.5,351C 368.484,349.471 367.151,346.971 367.5,343.5C 367.282,339.934 368.616,337.268 371.5,335.5 Z"/></g>
<g><path style="opacity:0.976" fill="#000000" d="M 371.5,399.5 C 390.17,399.333 408.836,399.5 427.5,400C 429.333,400.5 430.5,401.667 431,403.5C 431.667,406.167 431.667,408.833 431,411.5C 430.5,413.333 429.333,414.5 427.5,415C 408.833,415.667 390.167,415.667 371.5,415C 368.484,413.471 367.151,410.971 367.5,407.5C 367.282,403.934 368.616,401.268 371.5,399.5 Z"/></g>
</svg>
