<?xml version="1.0" encoding="UTF-8"?>
<!DOCTYPE svg PUBLIC "-//W3C//DTD SVG 1.1//EN" "http://www.w3.org/Graphics/SVG/1.1/DTD/svg11.dtd">
<svg xmlns="http://www.w3.org/2000/svg" version="1.1" width="136px" height="158px" style="shape-rendering:geometricPrecision; text-rendering:geometricPrecision; image-rendering:optimizeQuality; fill-rule:evenodd; clip-rule:evenodd" xmlns:xlink="http://www.w3.org/1999/xlink">
<g><path style="opacity:1" fill="#fefefe" d="M -0.5,-0.5 C 44.8333,-0.5 90.1667,-0.5 135.5,-0.5C 135.5,52.1667 135.5,104.833 135.5,157.5C 90.1667,157.5 44.8333,157.5 -0.5,157.5C -0.5,104.833 -0.5,52.1667 -0.5,-0.5 Z"/></g>
<g><path style="opacity:1" fill="#1f1f1f" d="M 29.5,25.5 C 57.7406,25.1715 85.9073,25.5049 114,26.5C 114.829,62.738 114.663,98.9047 113.5,135C 85.2613,135.828 57.0947,135.661 29,134.5C 28.1738,98.0954 28.3405,61.762 29.5,25.5 Z"/></g>
<g><path style="opacity:1" fill="#b4b4b4" d="M 109.5,60.5 C 109.5,50.5 109.5,40.5 109.5,30.5C 84.1667,30.5 58.8333,30.5 33.5,30.5C 33.5,40.5 33.5,50.5 33.5,60.5C 32.5058,50.3468 32.1724,40.0135 32.5,29.5C 58.5,29.5 84.5,29.5 110.5,29.5C 110.828,40.0135 110.494,50.3468 109.5,60.5 Z"/></g>
<g><path style="opacity:1" fill="#fafafa" d="M 109.5,60.5 C 84.1667,60.5 58.8333,60.5 33.5,60.5C 33.5,50.5 33.5,40.5 33.5,30.5C 58.8333,30.5 84.1667,30.5 109.5,30.5C 109.5,40.5 109.5,50.5 109.5,60.5 Z"/></g>
<g><path style="opacity:1" fill="#111111" d="M 53.5,39.5 C 55.8863,40.3733 57.8863,41.8733 59.5,44C 67.5208,44.8316 75.5208,44.6649 83.5,43.5C 85.1667,42.1667 86.8333,40.8333 88.5,39.5C 89.5,39.8333 90.1667,40.5 90.5,41.5C 89.018,43.4829 87.3513,45.3163 85.5,47C 76.1667,47.6667 66.8333,47.6667 57.5,47C 56,45.5 54.5,44 53,42.5C 52.5304,41.4232 52.6971,40.4232 53.5,39.5 Z"/></g>
<g><path style="opacity:1" fill="#9c9c9c" d="M 32.5,64.5 C 58.5,64.5 84.5,64.5 110.5,64.5C 110.5,75.1667 110.5,85.8333 110.5,96.5C 84.5,96.5 58.5,96.5 32.5,96.5C 32.5,85.8333 32.5,75.1667 32.5,64.5 Z"/></g>
<g><path style="opacity:1" fill="#fdfdfd" d="M 33.5,65.5 C 58.8333,65.5 84.1667,65.5 109.5,65.5C 109.5,75.5 109.5,85.5 109.5,95.5C 84.1667,95.5 58.8333,95.5 33.5,95.5C 33.5,85.5 33.5,75.5 33.5,65.5 Z"/></g>
<g><path style="opacity:1" fill="#161616" d="M 53.5,74.5 C 55.9324,75.7502 58.2657,77.2502 60.5,79C 68.1667,79.6667 75.8333,79.6667 83.5,79C 85.0175,77.3149 86.6841,75.8149 88.5,74.5C 89.5,74.8333 90.1667,75.5 90.5,76.5C 88.684,78.8169 86.684,80.9835 84.5,83C 75.8333,83.6667 67.1667,83.6667 58.5,83C 56.6667,81.1667 54.8333,79.3333 53,77.5C 52.5304,76.4232 52.6971,75.4232 53.5,74.5 Z"/></g>
<g><path style="opacity:1" fill="#b4b4b4" d="M 33.5,100.5 C 33.5,110.5 33.5,120.5 33.5,130.5C 58.8333,130.5 84.1667,130.5 109.5,130.5C 109.5,120.5 109.5,110.5 109.5,100.5C 110.494,110.653 110.828,120.986 110.5,131.5C 84.5,131.5 58.5,131.5 32.5,131.5C 32.1724,120.986 32.5058,110.653 33.5,100.5 Z"/></g>
<g><path style="opacity:1" fill="#fcfcfc" d="M 33.5,100.5 C 58.8333,100.5 84.1667,100.5 109.5,100.5C 109.5,110.5 109.5,120.5 109.5,130.5C 84.1667,130.5 58.8333,130.5 33.5,130.5C 33.5,120.5 33.5,110.5 33.5,100.5 Z"/></g>
<g><path style="opacity:1" fill="#1a1a1a" d="M 53.5,109.5 C 55.8863,110.373 57.8863,111.873 59.5,114C 67.5,114.667 75.5,114.667 83.5,114C 85.0175,112.315 86.6841,110.815 88.5,109.5C 89.5,109.833 90.1667,110.5 90.5,111.5C 88.684,113.817 86.684,115.984 84.5,118C 75.8333,118.667 67.1667,118.667 58.5,118C 56.6667,116.167 54.8333,114.333 53,112.5C 52.5304,111.423 52.6971,110.423 53.5,109.5 Z"/></g>
</svg>
