<?xml version="1.0" encoding="UTF-8"?>
<!DOCTYPE svg PUBLIC "-//W3C//DTD SVG 1.1//EN" "http://www.w3.org/Graphics/SVG/1.1/DTD/svg11.dtd">
<svg xmlns="http://www.w3.org/2000/svg" version="1.1" width="512px" height="512px" style="shape-rendering:geometricPrecision; text-rendering:geometricPrecision; image-rendering:optimizeQuality; fill-rule:evenodd; clip-rule:evenodd" xmlns:xlink="http://www.w3.org/1999/xlink">
<g><path style="opacity:0.953" fill="#000000" d="M 47.5,43.5 C 186.167,43.3333 324.834,43.5 463.5,44C 476.122,46.6211 484.289,54.1211 488,66.5C 488.667,156.833 488.667,247.167 488,337.5C 484.418,349.415 476.585,356.915 464.5,360C 414.501,360.5 364.501,360.667 314.5,360.5C 314.5,373.833 314.5,387.167 314.5,400.5C 336.503,400.333 358.503,400.5 380.5,401C 394.568,404.735 403.735,413.568 408,427.5C 409.05,433.947 409.55,440.447 409.5,447C 409.62,452.607 409.12,458.107 408,463.5C 406.786,465.049 405.286,466.215 403.5,467C 304.833,467.667 206.167,467.667 107.5,467C 105.714,466.215 104.214,465.049 103,463.5C 101.88,458.107 101.38,452.607 101.5,447C 99.3539,430.875 104.354,417.541 116.5,407C 120.682,403.91 125.349,401.91 130.5,401C 152.497,400.5 174.497,400.333 196.5,400.5C 196.5,387.167 196.5,373.833 196.5,360.5C 146.499,360.667 96.4989,360.5 46.5,360C 34.415,356.915 26.5817,349.415 23,337.5C 22.3333,247.167 22.3333,156.833 23,66.5C 26.8871,54.1084 35.0538,46.4417 47.5,43.5 Z M 49.5,60.5 C 186.834,60.3333 324.167,60.5 461.5,61C 467.66,63.4867 471.16,67.9867 472,74.5C 472.5,147.499 472.667,220.499 472.5,293.5C 327.833,293.5 183.167,293.5 38.5,293.5C 38.3333,220.499 38.5,147.499 39,74.5C 40.0414,67.9624 43.5414,63.2957 49.5,60.5 Z M 38.5,310.5 C 183.167,310.5 327.833,310.5 472.5,310.5C 472.821,318.561 472.321,326.561 471,334.5C 469.373,339.062 466.206,341.895 461.5,343C 324.167,343.667 186.833,343.667 49.5,343C 44.7938,341.895 41.6271,339.062 40,334.5C 38.6785,326.561 38.1785,318.561 38.5,310.5 Z M 212.5,360.5 C 241.167,360.5 269.833,360.5 298.5,360.5C 298.5,373.833 298.5,387.167 298.5,400.5C 269.833,400.5 241.167,400.5 212.5,400.5C 212.5,387.167 212.5,373.833 212.5,360.5 Z M 132.5,417.5 C 214.501,417.333 296.501,417.5 378.5,418C 386.315,420.813 390.815,426.313 392,434.5C 392.499,439.823 392.666,445.156 392.5,450.5C 301.167,450.5 209.833,450.5 118.5,450.5C 117.968,442.663 118.801,434.997 121,427.5C 123.794,422.866 127.627,419.533 132.5,417.5 Z"/></g>
</svg>
