<?xml version="1.0" encoding="UTF-8"?>
<!DOCTYPE svg PUBLIC "-//W3C//DTD SVG 1.1//EN" "http://www.w3.org/Graphics/SVG/1.1/DTD/svg11.dtd">
<svg xmlns="http://www.w3.org/2000/svg" version="1.1" width="347px" height="305px" style="shape-rendering:geometricPrecision; text-rendering:geometricPrecision; image-rendering:optimizeQuality; fill-rule:evenodd; clip-rule:evenodd" xmlns:xlink="http://www.w3.org/1999/xlink">
<g><path style="opacity:1" fill="#f7f9fa" d="M -0.5,-0.5 C 115.167,-0.5 230.833,-0.5 346.5,-0.5C 346.5,101.167 346.5,202.833 346.5,304.5C 230.833,304.5 115.167,304.5 -0.5,304.5C -0.5,202.833 -0.5,101.167 -0.5,-0.5 Z"/></g>
<g><path style="opacity:1" fill="#0b0b0b" d="M 235.5,37.5 C 255.503,37.3334 275.503,37.5 295.5,38C 298.333,39.5 300.5,41.6667 302,44.5C 302.667,88.8333 302.667,133.167 302,177.5C 300.923,180.913 298.756,183.413 295.5,185C 275.5,185.667 255.5,185.667 235.5,185C 233.376,183.878 231.543,182.378 230,180.5C 228.349,135.226 228.015,89.8923 229,44.5C 230.694,41.6424 232.861,39.309 235.5,37.5 Z"/></g>
<g><path style="opacity:1" fill="#f7f9fa" d="M 294.5,46.5 C 294.5,50.8333 294.5,55.1667 294.5,59.5C 275.167,59.5 255.833,59.5 236.5,59.5C 236.5,55.1667 236.5,50.8333 236.5,46.5C 255.833,45.1667 275.167,45.1667 294.5,46.5 Z"/></g>
<g><path style="opacity:1" fill="#0f0f0f" d="M 57.5,46.5 C 105.501,46.3333 153.501,46.5 201.5,47C 206.188,47.9195 209.688,50.4195 212,54.5C 213.153,70.9114 213.653,87.4114 213.5,104C 213.333,119.833 213.167,135.667 213,151.5C 211.526,156.974 208.026,160.474 202.5,162C 179.502,162.5 156.502,162.667 133.5,162.5C 133.5,167.5 133.5,172.5 133.5,177.5C 144.838,177.333 156.172,177.5 167.5,178C 170.167,180.333 170.167,182.667 167.5,185C 142.5,185.667 117.5,185.667 92.5,185C 89.8333,182.667 89.8333,180.333 92.5,178C 103.828,177.5 115.162,177.333 126.5,177.5C 126.5,172.5 126.5,167.5 126.5,162.5C 103.498,162.667 80.4976,162.5 57.5,162C 52.3333,160.167 48.8333,156.667 47,151.5C 46.3333,120.167 46.3333,88.8333 47,57.5C 49.3566,52.6455 52.8566,48.9788 57.5,46.5 Z"/></g>
<g><path style="opacity:1" fill="#f7f9fa" d="M 57.5,54.5 C 105.834,54.3333 154.168,54.5 202.5,55C 203.667,56.1667 204.833,57.3333 206,58.5C 206.5,85.4979 206.667,112.498 206.5,139.5C 155.5,139.5 104.5,139.5 53.5,139.5C 53.3334,112.831 53.5,86.1646 54,59.5C 54.9973,57.6769 56.1639,56.0103 57.5,54.5 Z"/></g>
<g><path style="opacity:1" fill="#b8babb" d="M 236.5,46.5 C 236.5,50.8333 236.5,55.1667 236.5,59.5C 255.833,59.5 275.167,59.5 294.5,59.5C 294.5,55.1667 294.5,50.8333 294.5,46.5C 295.486,50.97 295.819,55.6367 295.5,60.5C 275.5,60.5 255.5,60.5 235.5,60.5C 235.181,55.6367 235.514,50.97 236.5,46.5 Z"/></g>
<g><path style="opacity:1" fill="#f2f4f5" d="M 235.5,67.5 C 255.5,67.5 275.5,67.5 295.5,67.5C 295.5,70.5 295.5,73.5 295.5,76.5C 275.5,76.5 255.5,76.5 235.5,76.5C 235.5,73.5 235.5,70.5 235.5,67.5 Z"/></g>
<g><path style="opacity:1" fill="#f7f9fa" d="M 294.5,176.5 C 275.167,177.833 255.833,177.833 236.5,176.5C 236.5,145.833 236.5,115.167 236.5,84.5C 255.833,84.5 275.167,84.5 294.5,84.5C 294.5,115.167 294.5,145.833 294.5,176.5 Z"/></g>
<g><path style="opacity:1" fill="#a6a7a8" d="M 294.5,176.5 C 294.5,145.833 294.5,115.167 294.5,84.5C 275.167,84.5 255.833,84.5 236.5,84.5C 236.5,115.167 236.5,145.833 236.5,176.5C 235.502,145.671 235.169,114.671 235.5,83.5C 255.5,83.5 275.5,83.5 295.5,83.5C 295.831,114.671 295.498,145.671 294.5,176.5 Z"/></g>
<g><path style="opacity:1" fill="#161616" d="M 263.5,128.5 C 269.803,128.924 271.469,131.757 268.5,137C 261.237,137.821 259.571,134.988 263.5,128.5 Z"/></g>
<g><path style="opacity:1" fill="#0b0b0b" d="M 262.5,144.5 C 275.547,145.262 279.381,151.595 274,163.5C 267.372,168.038 261.372,167.371 256,161.5C 252.718,153.651 254.885,147.985 262.5,144.5 Z"/></g>
<g><path style="opacity:1" fill="#5b5c5d" d="M 206.5,147.5 C 155.489,146.838 104.822,147.505 54.5,149.5C 53.596,148.791 53.2627,147.791 53.5,146.5C 104.669,146.168 155.669,146.501 206.5,147.5 Z"/></g>
<g><path style="opacity:1" fill="#eceeef" d="M 206.5,147.5 C 206.531,151.597 204.531,154.097 200.5,155C 153.5,155.667 106.5,155.667 59.5,155C 56.921,153.924 55.2543,152.091 54.5,149.5C 104.822,147.505 155.489,146.838 206.5,147.5 Z"/></g>
<g><path style="opacity:1" fill="#eaecec" d="M 262.5,152.5 C 269.19,151.331 270.857,153.497 267.5,159C 262.279,159.61 260.612,157.443 262.5,152.5 Z"/></g>
<g><path style="opacity:1" fill="#101010" d="M 78.5,201.5 C 116.501,201.333 154.501,201.5 192.5,202C 195,203.167 196.833,205 198,207.5C 198.667,220.5 198.667,233.5 198,246.5C 196.5,249.333 194.333,251.5 191.5,253C 154.5,253.667 117.5,253.667 80.5,253C 77.4173,252.214 75.2506,250.381 74,247.5C 73.3333,233.833 73.3333,220.167 74,206.5C 75.7073,204.963 77.2073,203.296 78.5,201.5 Z"/></g>
<g><path style="opacity:1" fill="#090909" d="M 239.5,202.5 C 250.224,201.106 257.391,205.44 261,215.5C 261.91,224.244 261.576,232.911 260,241.5C 253.802,251.452 245.302,253.952 234.5,249C 231.131,246.635 228.964,243.468 228,239.5C 227.333,230.833 227.333,222.167 228,213.5C 230.412,208.252 234.246,204.586 239.5,202.5 Z"/></g>
<g><path style="opacity:1" fill="#eef0f1" d="M 81.5,208.5 C 117.833,208.5 154.167,208.5 190.5,208.5C 190.5,220.833 190.5,233.167 190.5,245.5C 153.833,245.5 117.167,245.5 80.5,245.5C 80.1874,233.087 80.5208,220.753 81.5,208.5 Z"/></g>
<g><path style="opacity:1" fill="#eceeef" d="M 241.5,209.5 C 247.843,208.755 252.01,211.422 254,217.5C 254.89,224.914 254.557,232.247 253,239.5C 246.508,246.425 240.508,246.092 235,238.5C 234.333,230.833 234.333,223.167 235,215.5C 236.494,212.686 238.66,210.686 241.5,209.5 Z"/></g>
<g><path style="opacity:1" fill="#121212" d="M 89.5,211.5 C 92.5184,211.335 95.5184,211.502 98.5,212C 100.62,213.523 100.953,215.356 99.5,217.5C 95.878,218.659 92.2113,218.825 88.5,218C 87.0909,215.536 87.4243,213.369 89.5,211.5 Z"/></g>
<g><path style="opacity:1" fill="#121212" d="M 110.5,211.5 C 113.518,211.335 116.518,211.502 119.5,212C 121.325,213.466 121.825,215.299 121,217.5C 117.256,218.626 113.423,218.793 109.5,218C 108.144,215.586 108.478,213.419 110.5,211.5 Z"/></g>
<g><path style="opacity:1" fill="#101111" d="M 131.5,211.5 C 134.518,211.335 137.518,211.502 140.5,212C 142.325,213.466 142.825,215.299 142,217.5C 138.256,218.626 134.423,218.793 130.5,218C 129.144,215.586 129.478,213.419 131.5,211.5 Z"/></g>
<g><path style="opacity:1" fill="#0f0f10" d="M 152.5,211.5 C 155.518,211.335 158.518,211.502 161.5,212C 163.325,213.466 163.825,215.299 163,217.5C 159.256,218.626 155.423,218.793 151.5,218C 150.144,215.586 150.478,213.419 152.5,211.5 Z"/></g>
<g><path style="opacity:1" fill="#0f0f0f" d="M 173.5,211.5 C 176.518,211.335 179.518,211.502 182.5,212C 184.325,213.466 184.825,215.299 184,217.5C 180.256,218.626 176.423,218.793 172.5,218C 171.144,215.586 171.478,213.419 173.5,211.5 Z"/></g>
<g><path style="opacity:1" fill="#0d0d0d" d="M 241.5,213.5 C 243.467,213.261 245.301,213.594 247,214.5C 247.769,217.099 247.602,219.599 246.5,222C 244.741,222.798 243.074,222.631 241.5,221.5C 240.176,218.802 240.176,216.136 241.5,213.5 Z"/></g>
<g><path style="opacity:1" fill="#0d0d0d" d="M 88.5,223.5 C 91.8499,223.335 95.1832,223.502 98.5,224C 101.167,226 101.167,228 98.5,230C 95.1667,230.667 91.8333,230.667 88.5,230C 87.232,227.837 87.232,225.67 88.5,223.5 Z"/></g>
<g><path style="opacity:1" fill="#0d0d0d" d="M 109.5,223.5 C 112.85,223.335 116.183,223.502 119.5,224C 122.167,226 122.167,228 119.5,230C 116.167,230.667 112.833,230.667 109.5,230C 108.232,227.837 108.232,225.67 109.5,223.5 Z"/></g>
<g><path style="opacity:1" fill="#0d0d0d" d="M 131.5,223.5 C 134.518,223.335 137.518,223.502 140.5,224C 142.62,225.523 142.953,227.356 141.5,229.5C 137.878,230.659 134.211,230.825 130.5,230C 129.091,227.536 129.424,225.369 131.5,223.5 Z"/></g>
<g><path style="opacity:1" fill="#080809" d="M 152.5,223.5 C 155.518,223.335 158.518,223.502 161.5,224C 164.167,226 164.167,228 161.5,230C 158.167,230.667 154.833,230.667 151.5,230C 150.144,227.586 150.478,225.419 152.5,223.5 Z"/></g>
<g><path style="opacity:1" fill="#0a0a0a" d="M 173.5,223.5 C 176.518,223.335 179.518,223.502 182.5,224C 184.62,225.523 184.953,227.356 183.5,229.5C 179.878,230.659 176.211,230.825 172.5,230C 171.144,227.586 171.478,225.419 173.5,223.5 Z"/></g>
<g><path style="opacity:1" fill="#0a0a0a" d="M 88.5,235.5 C 91.8499,235.335 95.1832,235.502 98.5,236C 101.167,238 101.167,240 98.5,242C 95.1667,242.667 91.8333,242.667 88.5,242C 87.232,239.837 87.232,237.67 88.5,235.5 Z"/></g>
<g><path style="opacity:1" fill="#010101" d="M 109.5,235.5 C 126.837,235.333 144.17,235.5 161.5,236C 164.167,238 164.167,240 161.5,242C 144.167,242.667 126.833,242.667 109.5,242C 108.232,239.837 108.232,237.67 109.5,235.5 Z"/></g>
<g><path style="opacity:1" fill="#060606" d="M 173.5,235.5 C 176.518,235.335 179.518,235.502 182.5,236C 185.167,238 185.167,240 182.5,242C 179.167,242.667 175.833,242.667 172.5,242C 171.144,239.586 171.478,237.419 173.5,235.5 Z"/></g>
</svg>
