<?xml version="1.0" encoding="UTF-8"?>
<!DOCTYPE svg PUBLIC "-//W3C//DTD SVG 1.1//EN" "http://www.w3.org/Graphics/SVG/1.1/DTD/svg11.dtd">
<svg xmlns="http://www.w3.org/2000/svg" version="1.1" width="512px" height="512px" style="shape-rendering:geometricPrecision; text-rendering:geometricPrecision; image-rendering:optimizeQuality; fill-rule:evenodd; clip-rule:evenodd" xmlns:xlink="http://www.w3.org/1999/xlink">
<g><path style="opacity:0.931" fill="#000000" d="M 190.5,12.5 C 233.835,12.3333 277.168,12.5 320.5,13C 335.838,15.3397 346.005,23.8397 351,38.5C 360.946,111.121 370.612,183.787 380,256.5C 381.815,277.05 372.982,290.55 353.5,297C 329.169,297.5 304.836,297.667 280.5,297.5C 280.5,302.5 280.5,307.5 280.5,312.5C 312.541,312.037 344.541,312.537 376.5,314C 386.359,318.209 390.692,325.709 389.5,336.5C 396.589,336.884 403.589,336.384 410.5,335C 416.164,332.668 419.664,328.501 421,322.5C 421.833,301.492 421.666,280.492 420.5,259.5C 402.476,254.264 396.976,242.931 404,225.5C 407.178,220.491 411.678,217.324 417.5,216C 428.5,215.333 439.5,215.333 450.5,216C 461.27,218.778 466.937,225.778 467.5,237C 466.532,248.968 460.198,256.302 448.5,259C 444.514,259.499 440.514,259.666 436.5,259.5C 436.667,280.836 436.5,302.169 436,323.5C 432.837,339.83 423.004,348.997 406.5,351C 400.843,351.499 395.176,351.666 389.5,351.5C 390.354,362.97 385.354,370.47 374.5,374C 341.835,374.5 309.168,374.667 276.5,374.5C 276.5,388.167 276.5,401.833 276.5,415.5C 297.759,417.469 316.759,424.969 333.5,438C 337.981,442.635 341.981,447.635 345.5,453C 358.638,455.138 365.972,462.805 367.5,476C 366,489.5 358.5,497 345,498.5C 327.623,495.743 320.623,485.743 324,468.5C 325.547,464.564 327.713,461.064 330.5,458C 321.022,445.751 308.689,437.751 293.5,434C 283.371,431.053 273.038,429.553 262.5,429.5C 262.5,438.167 262.5,446.833 262.5,455.5C 274.303,460.093 279.136,468.76 277,481.5C 270.429,497.139 259.263,501.639 243.5,495C 232.886,486.303 230.719,475.803 237,463.5C 239.934,459.377 243.768,456.71 248.5,455.5C 248.5,446.833 248.5,438.167 248.5,429.5C 229.207,429.656 211.207,434.489 194.5,444C 189.154,448.012 184.488,452.679 180.5,458C 191.43,470.337 191.097,482.337 179.5,494C 167.837,500.668 157.337,499.168 148,489.5C 141.332,477.837 142.832,467.337 152.5,458C 156.563,455.59 160.896,453.923 165.5,453C 175.923,437.268 190.257,426.601 208.5,421C 217,418.333 225.667,416.5 234.5,415.5C 234.5,401.833 234.5,388.167 234.5,374.5C 201.832,374.667 169.165,374.5 136.5,374C 125.646,370.47 120.646,362.97 121.5,351.5C 109.938,352.679 98.9381,350.846 88.5,346C 80.807,340.452 76.307,332.952 75,323.5C 74.5,302.169 74.3334,280.836 74.5,259.5C 63.423,261.116 54.2564,257.782 47,249.5C 40.6648,236.848 43.1648,226.348 54.5,218C 56.3921,217.027 58.3921,216.36 60.5,216C 71.5,215.333 82.5,215.333 93.5,216C 108.451,221.74 113.284,232.24 108,247.5C 103.952,254.107 98.1187,258.107 90.5,259.5C 89.3336,280.492 89.1669,301.492 90,322.5C 91.3356,328.501 94.8356,332.668 100.5,335C 107.411,336.384 114.411,336.884 121.5,336.5C 120.308,325.709 124.641,318.209 134.5,314C 166.459,312.537 198.459,312.037 230.5,312.5C 230.5,307.5 230.5,302.5 230.5,297.5C 206.164,297.667 181.831,297.5 157.5,297C 138.018,290.55 129.185,277.05 131,256.5C 140.333,185.167 149.667,113.833 159,42.5C 163.222,25.7754 173.722,15.7754 190.5,12.5 Z M 190.5,27.5 C 233.835,27.3333 277.168,27.5 320.5,28C 331.716,31.2461 337.549,38.7461 338,50.5C 347.29,120.984 356.456,191.484 365.5,262C 364.779,274.056 358.445,281.056 346.5,283C 285.833,283.667 225.167,283.667 164.5,283C 150.636,280.111 144.469,271.611 146,257.5C 155.333,186.167 164.667,114.833 174,43.5C 176.778,35.2202 182.278,29.8869 190.5,27.5 Z M 62.5,230.5 C 72.1724,230.334 81.8391,230.5 91.5,231C 97.0359,235.838 96.7026,240.171 90.5,244C 81.5,244.667 72.5,244.667 63.5,244C 57.3167,239.921 56.9834,235.421 62.5,230.5 Z M 419.5,230.5 C 429.172,230.334 438.839,230.5 448.5,231C 453.951,235.754 453.617,240.087 447.5,244C 438.5,244.667 429.5,244.667 420.5,244C 414.216,240.007 413.883,235.507 419.5,230.5 Z M 245.5,297.5 C 252.167,297.5 258.833,297.5 265.5,297.5C 265.5,302.5 265.5,307.5 265.5,312.5C 258.833,312.5 252.167,312.5 245.5,312.5C 245.5,307.5 245.5,302.5 245.5,297.5 Z M 140.5,327.5 C 217.167,327.333 293.834,327.5 370.5,328C 371.931,328.465 373.097,329.299 374,330.5C 374.667,339.167 374.667,347.833 374,356.5C 373.5,357.667 372.667,358.5 371.5,359C 294.167,359.667 216.833,359.667 139.5,359C 138.333,358.5 137.5,357.667 137,356.5C 136.333,347.833 136.333,339.167 137,330.5C 138.145,329.364 139.312,328.364 140.5,327.5 Z M 249.5,374.5 C 253.5,374.5 257.5,374.5 261.5,374.5C 261.5,387.833 261.5,401.167 261.5,414.5C 257.5,414.5 253.5,414.5 249.5,414.5C 249.5,401.167 249.5,387.833 249.5,374.5 Z M 164.5,468.5 C 172.06,469.631 174.393,473.631 171.5,480.5C 165.354,484.775 161.02,483.275 158.5,476C 159.274,472.405 161.274,469.905 164.5,468.5 Z M 253.5,468.5 C 260.632,468.802 263.465,472.469 262,479.5C 255.9,485.349 251.4,484.349 248.5,476.5C 248.672,472.807 250.339,470.141 253.5,468.5 Z M 343.5,468.5 C 351.06,469.631 353.393,473.631 350.5,480.5C 344.354,484.775 340.02,483.275 337.5,476C 338.274,472.405 340.274,469.905 343.5,468.5 Z"/></g>
</svg>
