<?xml version="1.0" standalone="no"?>
<!DOCTYPE svg PUBLIC "-//W3C//DTD SVG 20010904//EN"
 "http://www.w3.org/TR/2001/REC-SVG-20010904/DTD/svg10.dtd">
<svg version="1.0" xmlns="http://www.w3.org/2000/svg"
 width="566.000000pt" height="191.000000pt" viewBox="0 0 566.000000 191.000000"
 preserveAspectRatio="xMidYMid meet">

<g transform="translate(0.000000,191.000000) scale(0.100000,-0.100000)"
fill="#000000" stroke="none">
<path d="M420 1700 c-32 -32 -23 -51 34 -75 26 -11 36 -21 34 -33 -4 -21 -44
-28 -64 -11 -19 16 -30 4 -14 -16 16 -19 74 -20 90 -1 21 27 8 60 -32 79 -39
18 -50 43 -23 53 8 4 22 1 30 -6 9 -7 19 -10 23 -6 8 9 -26 36 -45 36 -7 0
-22 -9 -33 -20z"/>
<path d="M3080 1640 c0 -63 3 -82 15 -87 9 -3 19 -2 23 2 4 4 1 10 -5 12 -9 3
-13 27 -13 73 0 38 -4 72 -10 75 -6 4 -10 -23 -10 -75z"/>
<path d="M3396 1711 c-4 -7 -5 -15 -2 -18 9 -9 19 4 14 18 -4 11 -6 11 -12 0z"/>
<path d="M4410 1687 c0 -32 -2 -33 -30 -29 -39 6 -60 -13 -60 -53 0 -42 17
-55 69 -53 l41 1 0 84 c0 49 -4 83 -10 83 -5 0 -10 -15 -10 -33z m-9 -63 c17
-21 0 -49 -32 -49 -24 0 -36 23 -25 51 7 19 40 18 57 -2z"/>
<path d="M3150 1700 c-8 -5 -12 -11 -9 -14 7 -8 49 5 49 15 0 12 -21 11 -40
-1z"/>
<path d="M4103 1703 c-14 -5 -18 -23 -5 -23 5 0 17 7 28 15 14 11 15 14 4 14
-8 0 -21 -3 -27 -6z"/>
<path d="M4780 1630 c0 -47 4 -80 10 -80 6 0 10 14 10 30 0 27 3 30 33 30 39
0 52 8 61 37 13 41 -9 63 -64 63 l-50 0 0 -80z m94 44 c9 -24 -12 -44 -45 -44
-26 0 -29 4 -29 30 0 27 3 30 34 30 22 0 36 -6 40 -16z"/>
<path d="M2710 1681 c0 -11 -6 -22 -12 -25 -10 -5 -10 -7 0 -12 6 -3 12 -18
12 -34 0 -16 3 -35 6 -44 7 -17 44 -22 44 -6 0 6 -7 10 -15 10 -10 0 -15 11
-15 35 0 24 5 35 15 35 8 0 15 5 15 10 0 6 -7 10 -15 10 -8 0 -15 9 -15 20 0
11 -4 20 -10 20 -5 0 -10 -9 -10 -19z"/>
<path d="M3450 1681 c0 -11 -6 -22 -12 -25 -10 -5 -10 -7 0 -12 6 -3 12 -18
12 -34 0 -41 10 -60 31 -60 23 0 25 15 4 24 -9 3 -15 18 -15 36 0 23 4 30 20
30 11 0 20 5 20 10 0 6 -7 10 -16 10 -9 0 -18 9 -21 20 -7 25 -23 26 -23 1z"/>
<path d="M3970 1681 c0 -11 -6 -22 -12 -24 -10 -4 -10 -8 -1 -14 6 -4 13 -26
15 -48 2 -33 7 -41 26 -43 12 -2 22 1 22 7 0 6 -7 11 -15 11 -10 0 -15 11 -15
35 0 24 5 35 15 35 8 0 15 5 15 10 0 6 -7 10 -15 10 -8 0 -15 9 -15 20 0 11
-4 20 -10 20 -5 0 -10 -9 -10 -19z"/>
<path d="M540 1616 c0 -52 14 -66 63 -64 l37 1 0 54 c0 63 -18 72 -22 11 -3
-39 -6 -43 -30 -46 -27 -3 -28 -2 -28 42 0 25 -4 46 -10 46 -5 0 -10 -20 -10
-44z"/>
<path d="M736 1645 c-38 -38 -7 -98 47 -93 46 5 45 26 0 24 -36 -1 -38 1 -38
29 0 28 2 30 38 29 24 -1 36 3 34 10 -6 18 -63 19 -81 1z"/>
<path d="M856 1644 c-9 -8 -16 -26 -16 -39 0 -36 26 -55 71 -53 l39 1 0 52 0
52 -39 1 c-25 1 -46 -4 -55 -14z m69 -39 c0 -25 -4 -31 -26 -33 -29 -3 -44 18
-33 50 4 14 13 18 32 16 23 -2 27 -8 27 -33z"/>
<path d="M980 1603 c0 -29 5 -53 10 -53 6 0 10 17 10 38 0 41 14 63 35 56 7
-3 16 -1 20 5 4 7 -8 10 -34 9 l-41 -1 0 -54z"/>
<path d="M1082 1648 c-17 -17 -15 -64 5 -83 11 -11 26 -15 45 -11 31 6 37 -4
13 -24 -8 -7 -25 -10 -40 -6 -27 7 -35 -8 -9 -18 54 -21 84 13 84 95 l0 56
-43 1 c-24 1 -48 -3 -55 -10z m69 -24 c17 -21 0 -49 -32 -49 -24 0 -36 23 -25
51 7 19 40 18 57 -2z"/>
<path d="M1217 1642 c-39 -43 -10 -93 54 -90 l39 1 0 51 0 51 -38 3 c-27 1
-44 -3 -55 -16z m68 -37 c0 -25 -4 -31 -26 -33 -29 -3 -44 18 -33 50 4 14 13
18 32 16 23 -2 27 -8 27 -33z"/>
<path d="M1410 1645 c-15 -19 3 -45 31 -45 10 0 21 -5 25 -11 10 -17 -16 -28
-44 -18 -18 7 -23 6 -20 -3 6 -19 62 -22 77 -5 16 21 5 41 -30 54 -37 14 -30
38 8 28 16 -4 22 -2 18 5 -9 15 -51 12 -65 -5z"/>
<path d="M1510 1624 c0 -59 14 -74 65 -72 l45 2 0 53 c0 60 -17 73 -22 17 -6
-71 -68 -74 -68 -4 0 22 -4 40 -10 40 -5 0 -10 -16 -10 -36z"/>
<path d="M1640 1585 c0 -41 5 -77 10 -80 6 -4 10 6 10 24 0 28 2 29 34 24 29
-4 37 -1 52 22 16 25 16 30 3 54 -12 22 -22 26 -62 27 l-47 2 0 -73z m89 41
c9 -11 10 -20 1 -35 -13 -25 -45 -27 -59 -4 -21 38 31 72 58 39z"/>
<path d="M1792 1648 c-15 -15 -16 -53 -2 -79 12 -21 74 -27 85 -9 4 6 -5 10
-22 8 -16 -1 -34 1 -41 6 -24 14 -12 26 27 26 45 0 57 11 41 40 -12 23 -68 28
-88 8z m73 -29 c-8 -12 -65 -12 -65 1 0 5 8 13 17 19 20 11 57 -4 48 -20z"/>
<path d="M1910 1605 c0 -30 5 -55 10 -55 6 0 10 17 10 38 0 41 15 63 36 55 8
-3 14 0 14 6 0 6 -16 11 -35 11 l-35 0 0 -55z"/>
<path d="M2003 1634 c-15 -24 -15 -29 -2 -53 13 -22 22 -26 62 -27 l47 -1 0
52 0 52 -45 1 c-38 2 -47 -2 -62 -24z m78 -10 c17 -21 0 -49 -31 -49 -31 0
-48 28 -31 49 8 9 21 16 31 16 10 0 23 -7 31 -16z"/>
<path d="M2200 1603 c0 -63 18 -72 22 -10 3 37 6 42 28 42 22 0 25 -5 28 -42
4 -56 22 -55 22 1 0 52 -14 66 -63 64 l-37 -1 0 -54z"/>
<path d="M2330 1616 c0 -52 14 -66 63 -64 l37 1 0 54 c0 63 -18 72 -22 11 -3
-38 -6 -43 -28 -43 -22 0 -25 5 -28 43 -4 55 -22 54 -22 -2z"/>
<path d="M2472 1648 c-7 -7 -12 -26 -12 -43 0 -17 5 -36 12 -43 15 -15 74 -16
83 -2 4 6 -5 10 -22 8 -16 -1 -34 1 -41 6 -24 14 -12 26 27 26 45 0 57 11 41
40 -12 23 -68 28 -88 8z m73 -29 c-8 -12 -65 -12 -65 1 0 5 8 13 17 19 20 11
57 -4 48 -20z"/>
<path d="M2594 1645 c-7 -18 12 -45 32 -45 18 0 28 -20 16 -32 -7 -7 -17 -6
-32 2 -18 10 -21 9 -18 -2 3 -7 19 -13 39 -13 28 0 35 4 37 23 3 18 -3 26 -27
35 -37 14 -35 33 3 29 18 -2 25 1 21 7 -10 17 -65 13 -71 -4z"/>
<path d="M2790 1605 c0 -30 5 -55 10 -55 6 0 10 20 10 45 0 44 5 50 38 46 6
-1 12 3 12 9 0 5 -16 10 -35 10 l-35 0 0 -55z"/>
<path d="M2892 1648 c-7 -7 -12 -26 -12 -43 0 -39 16 -55 55 -55 37 0 55 16
55 48 0 41 -18 62 -53 62 -18 0 -38 -5 -45 -12z m73 -43 c0 -27 -3 -30 -30
-30 -21 0 -31 5 -33 18 -6 33 6 49 35 45 24 -3 28 -8 28 -33z"/>
<path d="M3140 1605 c0 -30 5 -55 10 -55 6 0 10 25 10 55 0 30 -4 55 -10 55
-5 0 -10 -25 -10 -55z"/>
<path d="M3190 1603 c0 -29 5 -53 10 -53 6 0 10 13 10 29 0 42 9 61 30 61 21
0 30 -19 30 -61 0 -45 18 -34 22 14 2 34 7 42 23 42 16 0 21 -8 23 -42 2 -24
8 -43 13 -43 6 0 9 20 7 46 -4 55 -26 77 -58 57 -12 -8 -21 -9 -25 -3 -3 5
-24 9 -46 8 l-39 -1 0 -54z"/>
<path d="M3390 1605 c0 -30 5 -55 10 -55 6 0 10 25 10 55 0 30 -4 55 -10 55
-5 0 -10 -25 -10 -55z"/>
<path d="M3540 1645 c-7 -8 -12 -26 -12 -40 0 -14 5 -32 12 -40 14 -17 75 -20
85 -5 4 6 -5 10 -22 8 -16 -1 -34 1 -41 6 -24 14 -12 26 27 26 42 0 54 13 39
43 -11 21 -70 23 -88 2z m75 -26 c-8 -12 -65 -12 -65 1 0 5 8 13 17 19 20 11
57 -4 48 -20z"/>
<path d="M3732 1648 c-7 -7 -12 -26 -12 -43 0 -17 5 -36 12 -43 15 -15 74 -16
83 -2 4 6 -5 10 -22 8 -16 -1 -34 1 -41 6 -24 14 -12 26 27 26 45 0 57 11 41
40 -12 23 -68 28 -88 8z m73 -29 c-8 -12 -65 -12 -65 1 0 5 8 13 17 19 20 11
57 -4 48 -20z"/>
<path d="M3854 1645 c-7 -18 12 -45 32 -45 18 0 28 -20 16 -32 -7 -7 -17 -6
-32 2 -18 10 -21 9 -18 -2 3 -7 19 -13 39 -13 28 0 35 4 37 23 3 18 -3 26 -27
35 -37 14 -35 33 3 29 18 -2 25 1 21 7 -10 17 -65 13 -71 -4z"/>
<path d="M4056 1641 c-20 -22 -20 -40 -1 -69 13 -17 24 -21 60 -20 l45 2 0 51
0 51 -44 2 c-31 1 -48 -4 -60 -17z m73 -18 c13 -25 -5 -53 -34 -53 -15 0 -26
7 -30 20 -13 41 43 70 64 33z"/>
<path d="M4190 1603 c0 -63 18 -71 22 -10 3 37 6 42 28 42 22 0 25 -5 28 -42
4 -52 22 -58 22 -7 0 57 -15 75 -60 72 l-40 -3 0 -52z"/>
<path d="M4466 1644 c-9 -8 -16 -26 -16 -39 0 -36 26 -55 71 -53 l39 1 0 52 0
52 -39 1 c-25 1 -46 -4 -55 -14z m69 -39 c0 -25 -4 -31 -26 -33 -29 -3 -44 18
-33 50 4 14 13 18 32 16 23 -2 27 -8 27 -33z"/>
<path d="M4590 1603 c0 -29 5 -53 10 -53 6 0 10 17 10 38 0 41 14 63 35 56 7
-3 16 -1 20 5 4 7 -8 10 -34 9 l-41 -1 0 -54z"/>
<path d="M4932 1648 c-15 -15 -16 -53 -2 -79 9 -15 20 -19 55 -17 l45 1 0 52
0 52 -43 1 c-24 1 -48 -3 -55 -10z m73 -19 c4 -5 4 -21 1 -35 -5 -20 -12 -25
-34 -22 -27 3 -39 25 -28 54 6 16 52 19 61 3z"/>
<path d="M5060 1605 c0 -30 5 -55 10 -55 6 0 10 17 10 38 0 41 15 63 36 55 8
-3 14 0 14 6 0 6 -16 11 -35 11 l-35 0 0 -55z"/>
<path d="M5156 1641 c-20 -22 -20 -40 -1 -69 13 -17 24 -21 60 -20 l45 2 0 51
0 51 -44 2 c-31 1 -48 -4 -60 -17z m73 -20 c13 -24 -8 -55 -34 -50 -28 6 -42
34 -26 53 18 22 48 20 60 -3z"/>
<path d="M4665 1560 c3 -5 10 -10 16 -10 5 0 9 5 9 10 0 6 -7 10 -16 10 -8 0
-12 -4 -9 -10z"/>
<path d="M790 1337 l0 -84 39 -1 c25 -1 46 4 55 14 37 36 2 101 -49 92 -22 -5
-25 -2 -25 23 0 15 -4 31 -10 34 -6 4 -10 -24 -10 -78z m81 -13 c17 -21 0 -49
-32 -49 -24 0 -36 23 -25 51 7 19 40 18 57 -2z"/>
<path d="M2606 1411 c-4 -5 -2 -12 3 -15 5 -4 12 -2 15 3 4 5 2 12 -3 15 -5 4
-12 2 -15 -3z"/>
<path d="M4080 1336 c0 -79 2 -86 20 -86 11 0 20 5 20 10 0 6 -4 10 -10 10 -6
0 -10 30 -10 69 0 39 -4 73 -10 76 -6 4 -10 -25 -10 -79z"/>
<path d="M4146 1411 c-4 -5 -2 -12 3 -15 5 -4 12 -2 15 3 4 5 2 12 -3 15 -5 4
-12 2 -15 -3z"/>
<path d="M4557 1413 c-4 -3 -7 -18 -7 -33 0 -24 -3 -26 -32 -22 -35 5 -58 -16
-58 -54 0 -35 26 -54 71 -52 l39 1 0 84 c0 83 -1 89 -13 76z m-12 -108 c0 -25
-4 -31 -27 -33 -22 -3 -29 2 -34 22 -8 34 3 48 34 44 23 -2 27 -8 27 -33z"/>
<path d="M4842 1338 c3 -80 4 -83 28 -86 23 -2 24 -1 8 11 -14 11 -18 30 -18
86 0 42 -4 71 -10 71 -7 0 -10 -30 -8 -82z"/>
<path d="M930 1381 c0 -11 -6 -22 -12 -25 -10 -5 -10 -7 0 -12 6 -3 12 -18 12
-34 0 -41 10 -60 31 -60 23 0 25 15 4 24 -9 3 -15 18 -15 36 0 23 4 30 20 30
11 0 20 5 20 10 0 6 -9 10 -20 10 -13 0 -20 7 -20 20 0 11 -4 20 -10 20 -5 0
-10 -9 -10 -19z"/>
<path d="M2930 1381 c0 -11 -6 -22 -12 -24 -10 -4 -10 -8 -1 -14 6 -4 13 -26
15 -48 2 -33 7 -41 26 -43 12 -2 22 1 22 7 0 6 -7 11 -15 11 -10 0 -15 11 -15
35 0 24 5 35 15 35 8 0 15 5 15 10 0 6 -7 10 -15 10 -8 0 -15 9 -15 20 0 11
-4 20 -10 20 -5 0 -10 -9 -10 -19z"/>
<path d="M662 1348 c-16 -16 -16 -70 0 -86 7 -7 26 -12 43 -12 17 0 36 5 43
12 7 7 12 26 12 43 0 17 -5 36 -12 43 -7 7 -26 12 -43 12 -17 0 -36 -5 -43
-12z m73 -43 c0 -27 -3 -30 -30 -30 -21 0 -31 5 -33 18 -6 33 6 49 35 45 24
-3 28 -8 28 -33z"/>
<path d="M1013 1334 c-15 -24 -15 -29 -2 -53 16 -28 72 -42 93 -21 8 8 3 10
-19 8 -17 -1 -36 1 -43 6 -24 14 -11 26 28 26 36 0 40 3 40 24 0 44 -70 51
-97 10z m77 -10 c0 -9 -11 -14 -30 -14 -33 0 -39 14 -13 28 21 12 43 5 43 -14z"/>
<path d="M1140 1303 c0 -63 18 -72 22 -10 3 37 6 42 28 42 22 0 25 -5 28 -42
4 -56 22 -55 22 1 0 52 -14 66 -63 64 l-37 -1 0 -54z"/>
<path d="M1282 1348 c-15 -15 -16 -53 -2 -79 12 -21 74 -27 85 -9 4 6 -5 10
-22 8 -16 -1 -34 1 -41 6 -24 14 -12 26 27 26 45 0 57 11 41 40 -12 23 -68 28
-88 8z m73 -29 c-8 -12 -65 -12 -65 1 0 5 8 13 17 19 20 11 57 -4 48 -20z"/>
<path d="M1400 1305 c0 -30 5 -55 10 -55 6 0 10 17 10 38 0 41 15 63 36 55 8
-3 14 0 14 6 0 6 -16 11 -35 11 l-35 0 0 -55z"/>
<path d="M1566 1341 c-20 -22 -20 -40 -1 -69 13 -17 24 -21 60 -20 l45 2 0 51
0 51 -44 2 c-31 1 -48 -4 -60 -17z m73 -18 c13 -25 -5 -53 -34 -53 -15 0 -26
7 -30 20 -13 41 43 70 64 33z"/>
<path d="M1702 1348 c-15 -15 3 -48 28 -48 23 0 37 -20 21 -30 -7 -4 -24 -5
-38 -2 -18 3 -24 1 -19 -7 9 -14 73 -15 81 -1 12 19 -5 46 -36 57 -36 14 -30
38 7 29 14 -4 24 -2 24 4 0 14 -53 13 -68 -2z"/>
<path d="M1816 1344 c-9 -8 -16 -26 -16 -39 0 -33 26 -55 66 -55 46 0 44 18
-3 22 -56 5 -55 28 1 28 38 0 46 3 46 18 0 41 -63 58 -94 26z m62 -6 c20 -20
14 -28 -23 -28 -38 0 -46 13 -17 29 22 13 26 13 40 -1z"/>
<path d="M1942 1348 c-15 -15 3 -48 28 -48 10 0 22 -5 26 -11 10 -17 -16 -28
-44 -18 -18 7 -23 6 -20 -3 5 -16 67 -23 80 -10 17 17 0 47 -33 59 -36 14 -30
38 8 28 16 -4 22 -2 18 5 -8 14 -48 13 -63 -2z"/>
<path d="M2050 1341 c-24 -47 0 -91 49 -91 34 0 54 21 54 55 0 36 -21 55 -59
55 -23 0 -37 -6 -44 -19z m79 -20 c14 -26 -8 -54 -39 -49 -25 3 -36 27 -26 54
8 20 53 17 65 -5z"/>
<path d="M2180 1303 c0 -29 5 -53 10 -53 6 0 10 20 10 45 0 44 5 50 38 46 6
-1 12 3 12 8 0 6 -16 10 -35 9 l-35 -1 0 -54z"/>
<path d="M2277 1342 c-40 -44 -9 -94 54 -90 l39 3 0 50 0 50 -38 3 c-27 1 -44
-3 -55 -16z m68 -37 c0 -25 -4 -31 -26 -33 -29 -3 -44 18 -33 50 4 14 13 18
32 16 23 -2 27 -8 27 -33z"/>
<path d="M2400 1303 c0 -29 5 -53 10 -53 6 0 10 15 10 33 0 41 12 60 36 55 14
-2 20 -13 22 -46 4 -54 20 -54 24 1 2 34 7 42 23 42 16 0 21 -8 23 -42 2 -24
7 -43 13 -43 10 0 12 69 3 94 -7 18 -49 22 -59 6 -5 -8 -11 -8 -19 -1 -7 6
-29 10 -49 9 l-37 -1 0 -54z"/>
<path d="M2600 1305 c0 -30 5 -55 10 -55 6 0 10 25 10 55 0 30 -4 55 -10 55
-5 0 -10 -25 -10 -55z"/>
<path d="M2666 1344 c-9 -8 -16 -26 -16 -39 0 -33 26 -55 66 -55 46 0 44 18
-3 22 -56 5 -55 28 1 28 38 0 46 3 46 18 0 41 -63 58 -94 26z m62 -6 c20 -20
14 -28 -23 -28 -38 0 -46 13 -17 29 22 13 26 13 40 -1z"/>
<path d="M2790 1303 c0 -63 18 -72 22 -10 3 37 6 42 28 42 22 0 25 -5 28 -42
4 -56 22 -55 22 1 0 52 -14 66 -63 64 l-37 -1 0 -54z"/>
<path d="M3017 1342 c-22 -25 -21 -55 2 -76 27 -25 72 -17 90 15 13 24 13 29
-2 53 -21 31 -66 35 -90 8z m74 -18 c17 -21 0 -48 -33 -52 -28 -3 -42 18 -33
49 8 23 48 25 66 3z"/>
<path d="M3200 1278 c0 -45 4 -78 10 -78 6 0 10 13 10 28 0 26 3 28 30 24 39
-6 60 13 60 53 0 42 -17 55 -69 53 l-41 -1 0 -79z m85 27 c0 -25 -4 -30 -24
-30 -32 0 -49 28 -31 50 7 9 23 15 34 13 16 -2 21 -10 21 -33z"/>
<path d="M3343 1334 c-15 -24 -15 -29 -2 -53 16 -28 72 -42 93 -21 8 8 3 10
-19 8 -17 -1 -36 1 -43 6 -24 14 -11 26 28 26 36 0 40 3 40 24 0 44 -70 51
-97 10z m77 -10 c0 -9 -11 -14 -30 -14 -33 0 -39 14 -13 28 21 12 43 5 43 -14z"/>
<path d="M3470 1303 c0 -29 5 -53 10 -53 6 0 10 17 10 38 0 41 15 63 36 55 8
-3 14 0 14 6 0 6 -16 10 -35 9 l-35 -1 0 -54z"/>
<path d="M3564 1345 c-7 -18 12 -45 32 -45 18 0 28 -20 16 -32 -7 -7 -17 -6
-32 2 -18 10 -21 9 -18 -2 3 -7 19 -13 39 -13 28 0 35 4 37 23 3 18 -3 26 -27
35 -37 14 -35 33 3 29 18 -2 25 1 21 7 -10 17 -65 13 -71 -4z"/>
<path d="M3673 1334 c-15 -24 -15 -29 -2 -53 29 -51 109 -33 109 24 0 56 -76
76 -107 29z m82 -5 c4 -5 4 -21 1 -35 -5 -17 -13 -24 -31 -24 -29 0 -47 27
-34 52 11 20 54 24 64 7z"/>
<path d="M3810 1303 c0 -63 18 -71 22 -10 3 37 6 42 28 42 22 0 25 -5 28 -42
4 -52 22 -58 22 -7 0 57 -15 75 -60 72 l-40 -3 0 -52z"/>
<path d="M3943 1334 c-15 -24 -15 -29 -2 -53 13 -22 22 -26 62 -27 l47 -1 0
52 0 52 -45 1 c-38 2 -47 -2 -62 -24z m76 -13 c13 -24 -8 -55 -34 -50 -28 6
-42 34 -26 53 18 22 48 20 60 -3z"/>
<path d="M4150 1305 c0 -30 5 -55 10 -55 6 0 10 25 10 55 0 30 -4 55 -10 55
-5 0 -10 -25 -10 -55z"/>
<path d="M4200 1350 c0 -5 14 -10 32 -10 l32 0 -37 -38 c-20 -21 -37 -41 -37
-45 0 -4 25 -7 55 -7 30 0 55 5 55 10 0 6 -16 10 -36 10 l-36 0 36 40 c20 22
36 42 36 45 0 3 -22 5 -50 5 -27 0 -50 -4 -50 -10z"/>
<path d="M4336 1344 c-9 -8 -16 -26 -16 -39 0 -36 26 -55 71 -53 l39 1 0 52 0
52 -39 1 c-25 1 -46 -4 -55 -14z m69 -39 c0 -27 -3 -30 -30 -30 -21 0 -31 5
-33 18 -6 33 6 49 35 45 24 -3 28 -8 28 -33z"/>
<path d="M4612 1348 c-7 -7 -12 -26 -12 -43 0 -38 16 -55 51 -55 49 0 73 45
49 91 -12 22 -68 27 -88 7z m73 -43 c0 -24 -5 -31 -24 -33 -32 -5 -54 23 -40
50 7 13 19 18 37 16 23 -2 27 -8 27 -33z"/>
<path d="M4913 1334 c-15 -24 -15 -29 -2 -53 16 -28 72 -42 93 -21 8 8 3 10
-19 8 -17 -1 -36 1 -43 6 -24 14 -11 26 28 26 32 0 40 4 40 18 0 47 -69 59
-97 16z m77 -10 c0 -9 -11 -14 -30 -14 -33 0 -39 14 -13 28 21 12 43 5 43 -14z"/>
<path d="M4730 1249 c0 -11 5 -17 10 -14 6 3 10 13 10 21 0 8 -4 14 -10 14 -5
0 -10 -9 -10 -21z"/>
<path d="M1180 1085 c0 -33 -1 -34 -30 -28 -22 4 -36 0 -50 -12 -24 -22 -25
-43 -4 -73 12 -18 24 -22 55 -20 l39 3 0 83 c0 45 -2 82 -5 82 -3 0 -5 -16 -5
-35z m-15 -80 c0 -25 -4 -30 -24 -30 -32 0 -49 28 -31 50 7 9 23 15 34 13 16
-2 21 -10 21 -33z"/>
<path d="M4080 1081 c0 -11 -6 -22 -12 -24 -10 -4 -10 -8 -1 -14 6 -4 13 -26
15 -48 2 -33 7 -41 26 -43 12 -2 22 1 22 7 0 6 -7 11 -15 11 -10 0 -15 11 -15
35 0 24 5 35 15 35 8 0 15 5 15 10 0 6 -7 10 -15 10 -8 0 -15 9 -15 20 0 11
-4 20 -10 20 -5 0 -10 -9 -10 -19z"/>
<path d="M4430 1085 c0 -7 -8 -18 -17 -24 -17 -9 -17 -10 0 -16 12 -5 17 -18
17 -51 0 -41 2 -44 28 -44 24 1 25 2 10 14 -23 17 -25 76 -3 76 8 0 15 5 15
10 0 6 -7 10 -15 10 -8 0 -15 9 -15 20 0 11 -4 20 -10 20 -5 0 -10 -7 -10 -15z"/>
<path d="M150 1005 c0 -30 5 -55 10 -55 6 0 10 20 10 45 0 44 5 50 38 46 6 -1
12 3 12 9 0 5 -16 10 -35 10 l-35 0 0 -55z"/>
<path d="M247 1042 c-21 -23 -21 -41 -1 -70 16 -23 77 -32 89 -12 3 5 -9 9
-30 8 -22 -1 -40 4 -46 13 -7 11 1 15 36 17 35 2 45 7 45 21 0 41 -63 57 -93
23z m73 -18 c0 -9 -11 -14 -30 -14 -33 0 -43 26 -12 32 24 6 42 -2 42 -18z"/>
<path d="M377 1042 c-21 -23 -21 -41 -1 -70 12 -17 24 -22 47 -20 17 2 32 9
35 15 2 9 -5 11 -25 7 -20 -4 -33 -1 -43 11 -21 25 0 50 39 48 41 -1 36 21 -5
25 -20 2 -36 -4 -47 -16z"/>
<path d="M493 1034 c-15 -24 -15 -29 -2 -53 28 -50 109 -34 109 23 0 55 -76
76 -107 30z m84 -10 c9 -24 -10 -49 -37 -49 -31 0 -48 28 -31 49 17 21 60 21
68 0z"/>
<path d="M620 1003 c0 -29 5 -53 10 -53 6 0 10 15 10 33 0 41 12 60 36 55 14
-2 20 -13 22 -46 4 -54 20 -54 24 1 2 34 7 42 23 42 16 0 21 -8 23 -42 2 -24
7 -43 13 -43 10 0 12 69 3 94 -7 18 -49 22 -59 6 -5 -8 -11 -8 -19 -1 -7 6
-29 10 -49 9 l-37 -1 0 -54z"/>
<path d="M832 1048 c-16 -16 -16 -70 0 -86 15 -15 74 -16 83 -2 4 6 -5 10 -22
8 -16 -1 -34 1 -41 6 -24 14 -12 26 27 26 45 0 57 11 41 40 -12 23 -68 28 -88
8z m73 -29 c-8 -12 -65 -12 -65 1 0 5 8 13 17 19 20 11 57 -4 48 -20z"/>
<path d="M950 1003 c0 -63 18 -72 22 -10 3 36 7 43 27 45 29 4 41 -12 41 -55
0 -18 5 -33 10 -33 13 0 13 51 0 84 -8 23 -15 26 -55 24 l-45 -1 0 -54z"/>
<path d="M1232 1048 c-15 -15 -16 -53 -2 -79 9 -15 20 -19 55 -17 l45 1 0 52
0 52 -43 1 c-24 1 -48 -3 -55 -10z m75 -24 c9 -24 -10 -49 -38 -49 -24 0 -36
23 -25 51 7 19 55 18 63 -2z"/>
<path d="M1360 1003 c0 -63 18 -72 22 -10 2 35 7 43 26 45 20 3 22 -1 22 -42
0 -25 5 -46 10 -46 6 0 10 15 10 33 0 41 12 60 36 55 14 -2 20 -13 22 -46 2
-23 7 -42 13 -42 12 0 12 66 -1 91 -12 21 -50 25 -68 7 -9 -9 -12 -9 -12 0 0
7 -15 11 -40 10 l-40 -1 0 -54z"/>
<path d="M1567 1042 c-21 -23 -21 -41 -1 -70 29 -42 104 -18 104 35 0 47 -71
71 -103 35z m74 -18 c17 -21 0 -49 -31 -49 -31 0 -48 28 -31 49 8 9 21 16 31
16 10 0 23 -7 31 -16z"/>
<path d="M1694 1045 c-8 -20 10 -41 41 -49 14 -4 25 -10 25 -15 0 -15 -31 -21
-52 -10 -16 9 -19 8 -16 -3 7 -20 62 -22 79 -2 12 14 10 19 -10 35 -13 11 -30
19 -38 19 -8 0 -13 6 -10 13 2 6 16 11 31 9 18 -2 25 1 21 7 -10 17 -65 13
-71 -4z"/>
<path d="M1872 1048 c-16 -16 -15 -60 1 -82 10 -14 23 -17 45 -14 30 4 32 2
32 -24 0 -15 5 -28 10 -28 6 0 10 33 10 78 l0 79 -43 1 c-24 1 -48 -3 -55 -10z
m75 -24 c9 -24 -10 -49 -38 -49 -24 0 -36 23 -25 51 7 19 55 18 63 -2z"/>
<path d="M2000 1016 c0 -52 14 -66 63 -64 l37 1 0 54 c0 63 -18 72 -22 11 -3
-38 -6 -43 -28 -43 -22 0 -25 5 -28 43 -4 55 -22 54 -22 -2z"/>
<path d="M2140 1045 c-7 -8 -12 -26 -12 -40 0 -14 5 -32 12 -40 14 -17 75 -20
85 -5 4 6 -5 10 -22 8 -16 -1 -34 1 -41 6 -24 14 -12 26 27 26 42 0 54 13 39
43 -11 21 -70 23 -88 2z m75 -26 c-8 -12 -65 -12 -65 1 0 5 8 13 17 19 20 11
57 -4 48 -20z"/>
<path d="M2324 1045 c-7 -18 12 -45 32 -45 18 0 28 -20 16 -32 -7 -7 -17 -6
-32 2 -18 10 -21 9 -18 -2 3 -7 19 -13 39 -13 28 0 35 4 37 23 3 18 -3 26 -27
35 -37 14 -35 33 3 29 18 -2 25 1 21 7 -10 17 -65 13 -71 -4z"/>
<path d="M2442 1048 c-7 -7 -12 -26 -12 -43 0 -17 5 -36 12 -43 15 -15 74 -16
83 -2 4 6 -5 10 -22 8 -16 -1 -34 1 -41 6 -24 14 -12 26 27 26 45 0 57 11 41
40 -12 23 -68 28 -88 8z m73 -29 c-8 -12 -65 -12 -65 1 0 5 8 13 17 19 20 11
57 -4 48 -20z"/>
<path d="M2620 978 c0 -45 4 -78 10 -78 6 0 10 13 10 28 0 26 3 28 30 24 39
-6 60 13 60 53 0 42 -17 55 -69 53 l-41 -1 0 -79z m85 27 c0 -23 -5 -31 -21
-33 -27 -4 -47 21 -39 48 5 16 14 20 33 18 23 -2 27 -8 27 -33z"/>
<path d="M2763 1034 c-15 -24 -15 -29 -2 -53 28 -50 109 -34 109 23 0 55 -76
76 -107 30z m84 -10 c9 -24 -10 -49 -37 -49 -31 0 -48 28 -31 49 17 21 60 21
68 0z"/>
<path d="M2890 1003 c0 -29 5 -53 10 -53 6 0 10 15 10 33 0 43 12 59 41 55 20
-2 24 -9 27 -45 4 -52 22 -58 22 -7 0 59 -14 74 -65 72 l-45 -1 0 -54z"/>
<path d="M3036 1042 c-20 -23 -20 -41 0 -71 13 -17 24 -22 46 -19 22 4 28 1
26 -11 -3 -11 -14 -16 -36 -14 -39 1 -39 -20 0 -25 42 -5 58 21 58 92 l0 63
-39 1 c-26 1 -43 -4 -55 -16z m69 -31 c0 -34 -30 -51 -51 -29 -25 24 -10 60
24 56 21 -2 27 -8 27 -27z"/>
<path d="M3163 1034 c-15 -24 -15 -29 -2 -53 12 -22 22 -26 62 -27 l47 -2 0
52 0 53 -45 1 c-38 2 -47 -2 -62 -24z m80 -16 c8 -12 7 -21 -2 -32 -19 -22
-48 -20 -61 5 -23 41 38 68 63 27z"/>
<path d="M3367 1042 c-21 -23 -21 -41 -1 -70 16 -23 77 -32 89 -12 3 5 -9 9
-30 8 -22 -1 -40 4 -46 13 -7 11 1 15 36 17 35 2 45 7 45 21 0 41 -63 57 -93
23z m73 -18 c0 -9 -11 -14 -30 -14 -33 0 -39 14 -13 28 21 12 43 5 43 -14z"/>
<path d="M3490 1003 c0 -63 18 -72 22 -10 3 37 6 42 28 42 22 0 25 -5 28 -42
4 -56 22 -55 22 1 0 52 -14 66 -63 64 l-37 -1 0 -54z"/>
<path d="M3687 1042 c-22 -25 -22 -55 2 -76 21 -19 72 -18 79 1 2 9 -5 11 -25
7 -20 -4 -33 -1 -43 11 -21 25 0 50 39 48 41 -1 36 21 -5 25 -20 2 -36 -4 -47
-16z"/>
<path d="M3807 1042 c-21 -23 -21 -41 -1 -70 29 -42 104 -18 104 35 0 47 -71
71 -103 35z m74 -18 c17 -21 0 -49 -31 -49 -31 0 -48 28 -31 49 8 9 21 16 31
16 10 0 23 -7 31 -16z"/>
<path d="M3930 1003 c0 -29 5 -53 10 -53 6 0 10 13 10 29 0 44 10 61 35 61 25
0 35 -17 35 -61 0 -16 5 -29 10 -29 13 0 13 66 0 91 -9 15 -20 19 -55 17 l-45
-1 0 -54z"/>
<path d="M4158 1035 c-8 -18 -9 -34 -2 -53 8 -24 15 -27 57 -28 l47 -2 0 52 0
53 -45 1 c-40 2 -47 -1 -57 -23z m77 -30 c0 -27 -3 -30 -30 -30 -21 0 -31 5
-33 18 -6 33 6 49 35 45 24 -3 28 -8 28 -33z"/>
<path d="M4302 1048 c-17 -17 -15 -73 2 -87 18 -15 78 -11 83 5 2 7 -10 11
-34 10 -36 -1 -38 1 -38 29 0 28 2 30 38 29 24 -1 36 3 34 10 -5 16 -70 19
-85 4z"/>
<path d="M4512 1048 c-7 -7 -12 -26 -12 -43 0 -38 16 -55 51 -55 49 0 73 45
49 91 -12 22 -68 27 -88 7z m73 -43 c0 -24 -5 -31 -24 -33 -32 -5 -54 23 -40
50 7 13 19 18 37 16 23 -2 27 -8 27 -33z"/>
<path d="M4702 1048 c-7 -7 -12 -26 -12 -43 0 -48 34 -68 84 -49 28 11 17 21
-21 20 -36 -1 -38 1 -38 29 0 28 2 30 38 29 30 -1 35 1 26 12 -14 17 -61 18
-77 2z"/>
<path d="M4822 1048 c-7 -7 -12 -26 -12 -43 0 -39 16 -55 55 -55 39 0 55 16
55 55 0 17 -5 36 -12 43 -16 16 -70 16 -86 0z m73 -43 c0 -27 -3 -30 -30 -30
-21 0 -31 5 -33 18 -6 33 6 49 35 45 24 -3 28 -8 28 -33z"/>
<path d="M4950 1003 c0 -63 18 -72 22 -10 3 37 6 42 28 42 22 0 25 -5 28 -42
4 -56 22 -55 22 1 0 52 -14 66 -63 64 l-37 -1 0 -54z"/>
<path d="M5140 1016 c0 -52 14 -66 63 -64 l37 1 0 54 c0 63 -18 72 -22 11 -3
-38 -6 -43 -28 -43 -22 0 -25 5 -28 43 -4 55 -22 54 -22 -2z"/>
<path d="M5270 1003 c0 -29 5 -53 10 -53 6 0 10 13 10 29 0 44 10 61 35 61 25
0 35 -17 35 -61 0 -16 5 -29 10 -29 13 0 13 66 0 91 -9 15 -20 19 -55 17 l-45
-1 0 -54z"/>
<path d="M5416 1044 c-9 -8 -16 -26 -16 -39 0 -36 26 -55 71 -53 l39 1 0 52 0
52 -39 1 c-25 1 -46 -4 -55 -14z m69 -39 c0 -25 -4 -31 -27 -33 -22 -3 -29 2
-34 22 -8 34 3 48 34 44 23 -2 27 -8 27 -33z"/>
<path d="M1377 813 c-4 -3 -7 -18 -7 -33 0 -23 -3 -26 -28 -22 -34 5 -62 -19
-62 -53 0 -36 26 -55 71 -53 l39 1 0 84 c0 83 -1 89 -13 76z m-12 -108 c0 -25
-4 -31 -26 -33 -29 -3 -44 18 -33 50 4 14 13 18 32 16 23 -2 27 -8 27 -33z"/>
<path d="M2037 813 c-4 -3 -7 -18 -7 -33 0 -23 -3 -26 -28 -22 -34 5 -62 -19
-62 -53 0 -36 26 -55 71 -53 l39 1 0 84 c0 83 -1 89 -13 76z m-12 -108 c0 -25
-4 -31 -26 -33 -29 -3 -44 18 -33 50 4 14 13 18 32 16 23 -2 27 -8 27 -33z"/>
<path d="M3450 805 c0 -8 5 -15 10 -15 6 0 10 7 10 15 0 8 -4 15 -10 15 -5 0
-10 -7 -10 -15z"/>
<path d="M3620 805 c0 -8 5 -15 10 -15 6 0 10 7 10 15 0 8 -4 15 -10 15 -5 0
-10 -7 -10 -15z"/>
<path d="M4070 785 c0 -33 -1 -34 -30 -28 -22 4 -36 0 -50 -12 -24 -22 -25
-43 -4 -73 12 -18 24 -22 55 -20 l39 3 0 83 c0 45 -2 82 -5 82 -3 0 -5 -16 -5
-35z m-15 -80 c0 -25 -4 -30 -24 -30 -32 0 -49 28 -31 50 7 9 23 15 34 13 16
-2 21 -10 21 -33z"/>
<path d="M4766 811 c-4 -7 -5 -15 -2 -18 9 -9 19 4 14 18 -4 11 -6 11 -12 0z"/>
<path d="M4818 814 c-9 -9 -11 -126 -2 -148 3 -9 15 -16 25 -16 22 0 25 15 4
23 -10 4 -15 26 -17 77 -2 40 -6 68 -10 64z"/>
<path d="M4886 811 c-4 -7 -5 -15 -2 -18 9 -9 19 4 14 18 -4 11 -6 11 -12 0z"/>
<path d="M5030 787 c0 -35 -1 -36 -30 -30 -22 4 -36 0 -50 -12 -24 -22 -25
-43 -4 -73 13 -19 23 -22 57 -19 l42 4 3 73 c2 42 -2 78 -8 84 -7 7 -10 -1
-10 -27z m-15 -82 c0 -25 -4 -30 -24 -30 -32 0 -49 28 -31 50 7 9 23 15 34 13
16 -2 21 -10 21 -33z"/>
<path d="M5300 787 c0 -32 -2 -33 -30 -29 -37 5 -60 -12 -60 -45 0 -47 17 -63
65 -61 l45 1 0 84 c0 49 -4 83 -10 83 -5 0 -10 -15 -10 -33z m-5 -67 c8 -27
-12 -52 -39 -48 -21 3 -32 28 -22 54 8 22 54 18 61 -6z"/>
<path d="M293 734 c-15 -24 -15 -29 -2 -53 16 -28 72 -42 93 -21 8 8 3 10 -19
8 -17 -1 -36 1 -43 6 -24 14 -11 26 28 26 36 0 40 3 40 24 0 44 -70 51 -97 10z
m77 -10 c0 -9 -11 -14 -30 -14 -33 0 -39 14 -13 28 21 12 43 5 43 -14z"/>
<path d="M420 703 c0 -63 18 -72 22 -10 2 35 7 43 26 45 20 3 22 -1 22 -42 0
-25 5 -46 10 -46 6 0 10 13 10 29 0 42 9 61 30 61 21 0 30 -19 30 -61 0 -16 5
-29 10 -29 13 0 13 66 0 91 -12 21 -50 25 -68 7 -9 -9 -12 -9 -12 0 0 7 -15
11 -40 10 l-40 -1 0 -54z"/>
<path d="M620 678 c0 -45 4 -78 10 -78 6 0 10 13 10 29 0 25 3 28 25 23 31 -6
65 22 65 53 0 33 -30 55 -73 53 l-37 -1 0 -79z m85 42 c8 -27 -12 -52 -39 -48
-21 3 -32 28 -22 54 8 22 54 18 61 -6z"/>
<path d="M760 705 c0 -30 5 -55 10 -55 6 0 10 20 10 45 0 44 5 50 38 46 6 -1
12 3 12 9 0 5 -16 10 -35 10 l-35 0 0 -55z"/>
<path d="M856 744 c-20 -20 -20 -58 0 -78 17 -17 84 -22 84 -7 0 6 -17 11 -37
13 -56 5 -55 28 1 28 38 0 46 3 46 18 0 41 -63 58 -94 26z m62 -6 c20 -20 14
-28 -23 -28 -38 0 -46 13 -17 29 22 13 26 13 40 -1z"/>
<path d="M982 748 c-15 -15 3 -48 28 -48 10 0 22 -5 26 -11 10 -17 -16 -28
-44 -18 -18 7 -23 6 -20 -3 5 -16 67 -23 80 -10 17 17 0 47 -33 59 -36 14 -30
38 7 29 14 -4 24 -2 24 4 0 14 -53 13 -68 -2z"/>
<path d="M1096 744 c-9 -8 -16 -26 -16 -39 0 -36 26 -55 71 -53 l39 1 0 52 0
52 -39 1 c-25 1 -46 -4 -55 -14z m69 -39 c0 -27 -3 -30 -30 -30 -21 0 -31 5
-33 18 -6 33 6 49 35 45 24 -3 28 -8 28 -33z"/>
<path d="M1436 744 c-18 -18 -20 -47 -6 -75 8 -14 21 -19 50 -19 50 0 53 18 3
22 -56 5 -55 28 1 28 38 0 46 3 46 18 0 41 -63 58 -94 26z m62 -6 c20 -20 14
-28 -23 -28 -38 0 -46 13 -17 29 22 13 26 13 40 -1z"/>
<path d="M1620 703 c0 -63 18 -71 22 -10 2 34 7 42 23 42 16 0 21 -8 23 -42 2
-24 7 -43 12 -43 5 0 10 19 12 43 2 35 7 43 26 45 20 3 22 -1 22 -42 0 -25 5
-46 10 -46 11 0 14 69 4 94 -7 18 -49 22 -59 6 -5 -8 -11 -8 -20 0 -7 6 -27 9
-44 8 -30 -2 -31 -3 -31 -55z"/>
<path d="M1810 724 c0 -57 14 -74 60 -72 l40 1 0 54 c0 63 -18 72 -22 11 -3
-38 -6 -43 -28 -43 -22 0 -25 5 -28 43 -4 51 -22 57 -22 6z"/>
<path d="M2092 748 c-16 -16 -15 -73 2 -87 7 -6 32 -10 55 -9 l41 1 0 52 0 52
-43 1 c-24 1 -48 -3 -55 -10z m69 -24 c9 -11 10 -20 2 -32 -15 -24 -44 -27
-59 -7 -28 38 27 75 57 39z"/>
<path d="M2220 703 c0 -63 18 -72 22 -10 3 37 6 42 28 42 22 0 25 -5 28 -42 4
-56 22 -55 22 1 0 52 -14 66 -63 64 l-37 -1 0 -54z"/>
<path d="M2350 751 c0 -6 14 -11 32 -13 l32 -3 -32 -36 c-18 -20 -32 -39 -32
-43 0 -3 23 -6 50 -6 28 0 50 5 50 10 0 6 -13 10 -30 10 -16 0 -30 4 -30 8 0
5 14 21 30 37 17 16 30 32 30 37 0 4 -22 8 -50 8 -27 0 -50 -4 -50 -9z"/>
<path d="M2483 734 c-15 -24 -15 -29 -2 -53 12 -22 22 -26 62 -27 l47 -2 0 52
0 53 -45 1 c-38 2 -47 -2 -62 -24z m80 -16 c8 -12 7 -21 -2 -32 -19 -22 -48
-20 -61 5 -23 41 38 68 63 27z"/>
<path d="M2627 753 c-17 -16 -5 -42 23 -52 17 -5 30 -14 30 -20 0 -17 -19 -22
-40 -11 -16 9 -20 8 -20 -5 0 -13 9 -16 38 -13 30 2 38 7 40 26 3 18 -3 26
-27 35 -37 14 -35 33 3 29 18 -2 25 1 21 7 -7 12 -58 15 -68 4z"/>
<path d="M2797 742 c-22 -25 -21 -55 2 -76 27 -25 72 -17 90 15 13 24 13 29
-2 53 -21 31 -66 35 -90 8z m74 -18 c17 -21 0 -48 -33 -52 -28 -3 -42 18 -33
49 8 23 48 25 66 3z"/>
<path d="M2984 745 c-8 -20 11 -41 43 -50 24 -6 25 -8 11 -22 -13 -12 -20 -13
-38 -3 -18 10 -21 9 -18 -2 7 -20 62 -22 79 -2 12 14 10 19 -10 35 -13 11 -30
19 -38 19 -8 0 -13 6 -10 13 2 6 16 11 31 9 18 -2 25 1 21 7 -10 17 -65 13
-71 -4z"/>
<path d="M3102 748 c-7 -7 -12 -26 -12 -43 0 -17 5 -36 12 -43 15 -15 74 -16
83 -2 4 6 -5 10 -22 8 -16 -1 -34 1 -41 6 -24 14 -12 26 27 26 45 0 57 11 41
40 -12 23 -68 28 -88 8z m73 -29 c-8 -12 -65 -12 -65 1 0 5 8 13 17 19 20 11
57 -4 48 -20z"/>
<path d="M3220 705 c0 -30 5 -55 10 -55 6 0 10 17 10 38 0 41 15 63 36 55 8
-3 14 0 14 6 0 6 -16 11 -35 11 l-35 0 0 -55z"/>
<path d="M3333 708 c13 -28 27 -53 33 -55 9 -3 54 77 54 97 0 24 -18 6 -34
-32 l-18 -43 -18 43 c-11 23 -24 42 -29 42 -6 0 0 -23 12 -52z"/>
<path d="M3450 705 c0 -30 5 -55 10 -55 6 0 10 25 10 55 0 30 -4 55 -10 55 -5
0 -10 -25 -10 -55z"/>
<path d="M3507 742 c-37 -40 -9 -95 46 -90 17 2 32 9 35 15 2 9 -5 11 -25 7
-20 -4 -33 -1 -43 11 -21 25 0 50 39 48 41 -1 36 21 -5 25 -20 2 -36 -4 -47
-16z"/>
<path d="M3620 705 c0 -30 5 -55 10 -55 6 0 10 25 10 55 0 30 -4 55 -10 55 -5
0 -10 -25 -10 -55z"/>
<path d="M3673 734 c-15 -24 -15 -29 -2 -53 29 -51 109 -33 109 24 0 56 -76
76 -107 29z m84 -10 c9 -24 -10 -49 -37 -49 -31 0 -48 28 -31 49 17 21 60 21
68 0z"/>
<path d="M3806 744 c-7 -18 10 -44 28 -44 6 0 18 -5 26 -10 23 -16 -7 -31 -38
-19 -18 7 -23 6 -20 -3 6 -19 62 -22 77 -5 16 21 5 41 -30 54 -37 14 -30 36 8
27 18 -5 24 -3 19 5 -11 17 -63 14 -70 -5z"/>
<path d="M4126 744 c-9 -8 -16 -26 -16 -39 0 -33 26 -55 66 -55 46 0 44 18 -3
22 -56 5 -55 28 1 28 38 0 46 3 46 18 0 41 -63 58 -94 26z m62 -6 c20 -20 14
-28 -23 -28 -38 0 -46 13 -17 29 22 13 26 13 40 -1z"/>
<path d="M4310 703 c0 -63 18 -72 22 -10 2 34 7 42 23 42 16 0 21 -8 23 -42 2
-24 7 -43 12 -43 5 0 10 19 12 43 2 35 7 43 26 45 20 3 22 -1 22 -42 0 -26 5
-46 11 -46 6 0 9 21 7 53 -3 46 -6 52 -26 55 -13 2 -29 -2 -37 -8 -9 -7 -15
-8 -20 -1 -3 6 -21 10 -40 9 l-35 -1 0 -54z"/>
<path d="M4510 741 c-24 -46 0 -91 49 -91 35 0 51 17 51 55 0 40 -16 55 -57
55 -22 0 -36 -6 -43 -19z m75 -36 c0 -27 -3 -30 -30 -30 -21 0 -31 5 -33 18
-6 33 6 49 35 45 24 -3 28 -8 28 -33z"/>
<path d="M4645 708 c14 -29 30 -53 37 -53 6 0 22 24 35 53 12 28 18 52 12 52
-5 0 -19 -19 -29 -42 l-19 -43 -18 42 c-10 24 -23 43 -30 43 -8 0 -4 -18 12
-52z"/>
<path d="M4760 705 c0 -30 5 -55 10 -55 6 0 10 25 10 55 0 30 -4 55 -10 55 -5
0 -10 -25 -10 -55z"/>
<path d="M4880 705 c0 -30 5 -55 10 -55 6 0 10 25 10 55 0 30 -4 55 -10 55 -5
0 -10 -25 -10 -55z"/>
<path d="M5082 748 c-15 -15 -16 -53 -2 -79 9 -15 20 -19 55 -17 l45 1 0 52 0
52 -43 1 c-24 1 -48 -3 -55 -10z m73 -19 c4 -5 4 -21 1 -35 -5 -20 -12 -25
-34 -22 -27 3 -39 25 -28 54 6 16 52 19 61 3z"/>
<path d="M5350 660 c0 -5 5 -10 10 -10 6 0 10 5 10 10 0 6 -4 10 -10 10 -5 0
-10 -4 -10 -10z"/>
<path d="M2808 553 c-8 -10 -61 -101 -118 -202 -79 -142 -101 -188 -93 -200 9
-14 41 -16 233 -16 193 0 224 2 233 16 8 12 -13 57 -93 200 -100 179 -126 219
-140 219 -4 0 -14 -8 -22 -17z m125 -198 c53 -97 97 -180 97 -185 0 -6 -79
-10 -205 -10 l-206 0 38 68 c21 37 67 120 103 185 36 64 67 117 70 117 3 0 49
-79 103 -175z"/>
<path d="M2804 408 c3 -13 6 -47 6 -75 0 -46 3 -53 20 -53 17 0 20 7 20 53 0
28 3 62 6 75 6 19 3 22 -26 22 -29 0 -32 -3 -26 -22z"/>
<path d="M2804 246 c-10 -26 4 -48 28 -44 17 2 23 10 23 28 0 18 -6 26 -23 28
-13 2 -25 -3 -28 -12z"/>
</g>
</svg>
