<?xml version="1.0" encoding="UTF-8"?>
<!DOCTYPE svg PUBLIC "-//W3C//DTD SVG 1.1//EN" "http://www.w3.org/Graphics/SVG/1.1/DTD/svg11.dtd">
<svg xmlns="http://www.w3.org/2000/svg" version="1.1" width="240px" height="215px" style="shape-rendering:geometricPrecision; text-rendering:geometricPrecision; image-rendering:optimizeQuality; fill-rule:evenodd; clip-rule:evenodd" xmlns:xlink="http://www.w3.org/1999/xlink">
<g><path style="opacity:0.994" fill="#fdfdfd" d="M -0.5,-0.5 C 79.5,-0.5 159.5,-0.5 239.5,-0.5C 239.5,71.1667 239.5,142.833 239.5,214.5C 159.5,214.5 79.5,214.5 -0.5,214.5C -0.5,142.833 -0.5,71.1667 -0.5,-0.5 Z"/></g>
<g><path style="opacity:1" fill="#9b9b9b" d="M 110.5,39.5 C 116.48,37.8028 122.147,38.4694 127.5,41.5C 121.919,40.2438 116.252,39.5771 110.5,39.5 Z"/></g>
<g><path style="opacity:1" fill="#131313" d="M 110.5,39.5 C 116.252,39.5771 121.919,40.2438 127.5,41.5C 129.5,42.1667 131.5,42.8333 133.5,43.5C 140.642,45.9233 147.975,47.9233 155.5,49.5C 160.967,51.594 166.633,52.9273 172.5,53.5C 178.409,56.5657 184.742,58.5657 191.5,59.5C 196.766,60.0728 200.766,62.7394 203.5,67.5C 203.738,69.4044 204.738,70.7377 206.5,71.5C 207.833,72.1667 208.833,73.1667 209.5,74.5C 210.09,75.766 210.59,77.0993 211,78.5C 213.174,80.8656 215.34,83.1989 217.5,85.5C 220.639,89.4849 219.972,92.4849 215.5,94.5C 212.189,94.3072 209.522,95.3072 207.5,97.5C 207.167,97.5 206.833,97.5 206.5,97.5C 204.738,97.3573 203.071,97.6906 201.5,98.5C 200.501,114.486 200.167,130.486 200.5,146.5C 197.564,148.308 194.564,150.141 191.5,152C 187.93,152.736 184.596,153.903 181.5,155.5C 177.687,155.938 174.354,157.271 171.5,159.5C 170.5,160.167 169.5,160.833 168.5,161.5C 160.068,163.664 152.068,166.664 144.5,170.5C 144.5,170.833 144.5,171.167 144.5,171.5C 139.382,171.513 135.049,173.18 131.5,176.5C 131.167,176.5 130.833,176.5 130.5,176.5C 125.379,178.781 120.046,180.448 114.5,181.5C 113.508,181.672 112.842,181.338 112.5,180.5C 106.537,178.19 100.537,175.856 94.5,173.5C 94.1667,173.5 93.8333,173.5 93.5,173.5C 91.3603,170.387 88.3603,169.054 84.5,169.5C 84.1583,168.662 83.4916,168.328 82.5,168.5C 78.7379,166.462 74.7379,164.796 70.5,163.5C 65.8333,161.5 61.1667,159.5 56.5,157.5C 54.351,156.264 52.0177,155.264 49.5,154.5C 46.1735,153.292 42.8401,151.958 39.5,150.5C 37.8133,149.082 35.98,147.749 34,146.5C 33.8314,130.328 33.3314,114.328 32.5,98.5C 26.4985,96.8367 20.8318,94.8367 15.5,92.5C 15.1961,91.8501 14.8627,91.1835 14.5,90.5C 16.7334,87.7847 18.4001,84.7847 19.5,81.5C 22.5558,79.0515 24.8892,76.0515 26.5,72.5C 28.2624,71.7377 29.2624,70.4044 29.5,68.5C 32.462,64.0758 36.462,61.0758 41.5,59.5C 43.4352,58.8505 45.4352,58.5172 47.5,58.5C 50.0098,58.0733 52.3432,57.4067 54.5,56.5C 54.5,56.1667 54.5,55.8333 54.5,55.5C 55.8333,55.5 57.1667,55.5 58.5,55.5C 61.0098,55.0733 63.3432,54.4067 65.5,53.5C 70.6893,51.5886 76.0226,49.9219 81.5,48.5C 87.2309,46.2605 93.2309,44.7605 99.5,44C 100.056,43.6174 100.389,43.1174 100.5,42.5C 104.078,42.4512 107.411,41.7846 110.5,40.5C 110.5,40.1667 110.5,39.8333 110.5,39.5 Z"/></g>
<g><path style="opacity:1" fill="#adadad" d="M 110.5,40.5 C 107.411,41.7846 104.078,42.4512 100.5,42.5C 103.544,40.9886 106.878,40.322 110.5,40.5 Z"/></g>
<g><path style="opacity:1" fill="#b9b9b9" d="M 100.5,42.5 C 100.389,43.1174 100.056,43.6174 99.5,44C 93.2309,44.7605 87.2309,46.2605 81.5,48.5C 87.1206,44.8338 93.454,42.8338 100.5,42.5 Z"/></g>
<g><path style="opacity:1" fill="#b8b8b8" d="M 133.5,43.5 C 137.375,43.3564 141.208,43.6898 145,44.5C 148.684,46.0993 152.184,47.7659 155.5,49.5C 147.975,47.9233 140.642,45.9233 133.5,43.5 Z"/></g>
<g><path style="opacity:1" fill="#cecece" d="M 81.5,48.5 C 76.0226,49.9219 70.6893,51.5886 65.5,53.5C 63.4727,53.3379 61.4727,53.5045 59.5,54C 58.944,54.3826 58.6107,54.8826 58.5,55.5C 57.1667,55.5 55.8333,55.5 54.5,55.5C 56.958,53.2872 59.958,52.1205 63.5,52C 65,50.5 66.5,49 68,47.5C 68.8388,48.6241 70.0055,49.2908 71.5,49.5C 74.7992,48.7904 78.1326,48.4571 81.5,48.5 Z"/></g>
<g><path style="opacity:1" fill="#f9f9f9" d="M 149.5,54.5 C 151.242,55.9573 153.242,57.124 155.5,58C 162.487,59.6405 169.487,61.1405 176.5,62.5C 179.216,62.3862 181.216,63.3862 182.5,65.5C 181.391,65.5569 180.391,65.8902 179.5,66.5C 176.772,66.1706 174.438,66.8372 172.5,68.5C 170.901,68.2322 169.568,68.5655 168.5,69.5C 162.972,70.8695 157.305,72.0362 151.5,73C 150.142,73.9344 148.808,74.7677 147.5,75.5C 143.006,76.1299 138.673,77.1299 134.5,78.5C 131.782,79.0427 129.115,79.7094 126.5,80.5C 121.501,81.0845 116.501,81.2511 111.5,81C 110.833,80.3333 110.167,79.6667 109.5,79C 106.518,78.502 103.518,78.3354 100.5,78.5C 96.2542,76.9364 91.9209,75.6031 87.5,74.5C 85.4352,74.4828 83.4352,74.1495 81.5,73.5C 79.3432,72.5933 77.0098,71.9267 74.5,71.5C 68.7659,71.0287 63.4325,69.6953 58.5,67.5C 57.5707,66.6851 56.5707,65.8518 55.5,65C 60.8733,62.4295 66.54,60.4295 72.5,59C 73.056,58.6174 73.3893,58.1174 73.5,57.5C 79.7875,55.6258 86.1209,53.9591 92.5,52.5C 100.815,51.2706 108.982,49.6039 117,47.5C 126.649,47.7908 135.482,50.4574 143.5,55.5C 145.409,54.6518 147.409,54.3184 149.5,54.5 Z"/></g>
<g><path style="opacity:1" fill="#bababa" d="M 149.5,54.5 C 147.409,54.3184 145.409,54.6518 143.5,55.5C 135.482,50.4574 126.649,47.7908 117,47.5C 108.982,49.6039 100.815,51.2706 92.5,52.5C 92.6107,51.8826 92.944,51.3826 93.5,51C 100.961,49.0408 108.461,47.2075 116,45.5C 121.784,46.7359 127.617,47.9026 133.5,49C 138.831,51.0358 144.164,52.8691 149.5,54.5 Z"/></g>
<g><path style="opacity:1" fill="#686868" d="M 65.5,53.5 C 63.3432,54.4067 61.0098,55.0733 58.5,55.5C 58.6107,54.8826 58.944,54.3826 59.5,54C 61.4727,53.5045 63.4727,53.3379 65.5,53.5 Z"/></g>
<g><path style="opacity:1" fill="#b7b7b7" d="M 172.5,53.5 C 176.948,54.0287 181.281,55.0287 185.5,56.5C 187.821,57.0605 189.821,58.0605 191.5,59.5C 184.742,58.5657 178.409,56.5657 172.5,53.5 Z"/></g>
<g><path style="opacity:1" fill="#6a6a6a" d="M 54.5,56.5 C 52.3432,57.4067 50.0098,58.0733 47.5,58.5C 47.6107,57.8826 47.944,57.3826 48.5,57C 50.4727,56.5045 52.4727,56.3379 54.5,56.5 Z"/></g>
<g><path style="opacity:1" fill="#bbbbbb" d="M 149.5,54.5 C 158.519,56.7433 167.519,59.0767 176.5,61.5C 176.5,61.8333 176.5,62.1667 176.5,62.5C 169.487,61.1405 162.487,59.6405 155.5,58C 153.242,57.124 151.242,55.9573 149.5,54.5 Z"/></g>
<g><path style="opacity:1" fill="#4e4e4e" d="M 176.5,62.5 C 176.5,62.1667 176.5,61.8333 176.5,61.5C 179.686,61.3368 182.353,62.3368 184.5,64.5C 184.043,65.2975 183.376,65.6309 182.5,65.5C 181.216,63.3862 179.216,62.3862 176.5,62.5 Z"/></g>
<g><path style="opacity:1" fill="#b9b9b9" d="M 73.5,57.5 C 73.3893,58.1174 73.056,58.6174 72.5,59C 66.54,60.4295 60.8733,62.4295 55.5,65C 56.5707,65.8518 57.5707,66.6851 58.5,67.5C 55.2935,67.8764 52.6268,66.8764 50.5,64.5C 57.9306,61.3923 65.5972,59.059 73.5,57.5 Z"/></g>
<g><path style="opacity:1" fill="#8d8e8e" d="M 41.5,59.5 C 36.462,61.0758 32.462,64.0758 29.5,68.5C 30.9331,61.8827 34.9331,58.8827 41.5,59.5 Z"/></g>
<g><path style="opacity:1" fill="#787878" d="M 179.5,66.5 C 177.401,67.6118 175.067,68.2785 172.5,68.5C 174.438,66.8372 176.772,66.1706 179.5,66.5 Z"/></g>
<g><path style="opacity:1" fill="#676767" d="M 203.5,67.5 C 205.262,68.2623 206.262,69.5956 206.5,71.5C 204.738,70.7377 203.738,69.4044 203.5,67.5 Z"/></g>
<g><path style="opacity:1" fill="#676767" d="M 29.5,68.5 C 29.2624,70.4044 28.2624,71.7377 26.5,72.5C 26.7376,70.5956 27.7376,69.2623 29.5,68.5 Z"/></g>
<g><path style="opacity:1" fill="#f8f8f8" d="M 41.5,69.5 C 42.9187,70.4511 44.5853,70.7845 46.5,70.5C 46.9528,71.4584 47.6195,72.2917 48.5,73C 51.8168,73.4983 55.1501,73.665 58.5,73.5C 58.5,73.8333 58.5,74.1667 58.5,74.5C 61.003,75.3705 63.6697,76.0372 66.5,76.5C 77.1234,79.1329 87.7901,81.7996 98.5,84.5C 101.063,86.3237 104.063,87.6571 107.5,88.5C 108.386,89.325 108.719,90.325 108.5,91.5C 106.75,92.6594 105.75,94.326 105.5,96.5C 100.766,99.9029 97.0995,104.236 94.5,109.5C 93.4062,110.582 92.0729,111.248 90.5,111.5C 88.0983,109.951 85.4317,109.284 82.5,109.5C 78.2946,106.653 73.6279,104.986 68.5,104.5C 65.7491,102.025 62.4158,101.025 58.5,101.5C 55.46,99.6541 52.1267,98.3208 48.5,97.5C 46.901,97.7678 45.5676,97.4345 44.5,96.5C 40.0809,93.4712 35.0809,91.8046 29.5,91.5C 27.7857,90.2616 25.7857,89.595 23.5,89.5C 23.4326,88.0413 23.7659,86.7079 24.5,85.5C 27.3231,84.0077 28.9898,81.6743 29.5,78.5C 31.5869,77.4154 32.9202,75.7488 33.5,73.5C 34.8118,72.8549 35.8118,71.8549 36.5,70.5C 38.0453,69.5481 39.712,69.2148 41.5,69.5 Z"/></g>
<g><path style="opacity:1" fill="#646464" d="M 191.5,69.5 C 189.343,70.4067 187.01,71.0733 184.5,71.5C 184.611,70.8826 184.944,70.3826 185.5,70C 187.473,69.5045 189.473,69.3379 191.5,69.5 Z"/></g>
<g><path style="opacity:1" fill="#f8f8f8" d="M 200.5,74.5 C 201.623,76.5184 201.623,78.5184 200.5,80.5C 204.082,82.1198 207.082,84.4531 209.5,87.5C 207.099,88.3576 205.099,89.691 203.5,91.5C 197.735,94.0883 191.735,96.0883 185.5,97.5C 181.036,98.3594 177.036,100.026 173.5,102.5C 167.252,103.645 161.252,105.312 155.5,107.5C 150.384,108.516 145.384,109.85 140.5,111.5C 135.59,104.416 130.09,97.749 124,91.5C 123.51,90.2068 123.343,88.8734 123.5,87.5C 124.833,87.5 126.167,87.5 127.5,87.5C 135.028,86.7414 142.028,84.7414 148.5,81.5C 148.833,81.5 149.167,81.5 149.5,81.5C 153.394,80.4829 157.227,80.4829 161,81.5C 163.17,79.1769 165.67,77.5103 168.5,76.5C 172.214,76.4098 175.548,75.4098 178.5,73.5C 180.297,72.2702 182.297,71.6036 184.5,71.5C 187.01,71.0733 189.343,70.4067 191.5,69.5C 193.265,68.5386 195.265,68.2053 197.5,68.5C 197.683,70.9878 198.683,72.9878 200.5,74.5 Z"/></g>
<g><path style="opacity:1" fill="#898989" d="M 41.5,69.5 C 39.712,69.2148 38.0453,69.5481 36.5,70.5C 35.8118,71.8549 34.8118,72.8549 33.5,73.5C 34.7435,69.0943 37.4102,67.7609 41.5,69.5 Z"/></g>
<g><path style="opacity:1" fill="#494949" d="M 168.5,69.5 C 161.758,72.2399 154.758,74.2399 147.5,75.5C 148.808,74.7677 150.142,73.9344 151.5,73C 157.305,72.0362 162.972,70.8695 168.5,69.5 Z"/></g>
<g><path style="opacity:1" fill="#ababab" d="M 46.5,70.5 C 50.6145,71.5099 54.6145,72.5099 58.5,73.5C 55.1501,73.665 51.8168,73.4983 48.5,73C 47.6195,72.2917 46.9528,71.4584 46.5,70.5 Z"/></g>
<g><path style="opacity:1" fill="#858585" d="M 74.5,71.5 C 77.0098,71.9267 79.3432,72.5933 81.5,73.5C 79.4727,73.6621 77.4727,73.4955 75.5,73C 74.944,72.6174 74.6107,72.1174 74.5,71.5 Z"/></g>
<g><path style="opacity:1" fill="#646464" d="M 81.5,73.5 C 83.4352,74.1495 85.4352,74.4828 87.5,74.5C 87.8333,75.1667 88.1667,75.8333 88.5,76.5C 85.7282,76.2413 83.3949,75.2413 81.5,73.5 Z"/></g>
<g><path style="opacity:1" fill="#b3b3b3" d="M 178.5,73.5 C 175.548,75.4098 172.214,76.4098 168.5,76.5C 168.97,75.3065 169.97,74.6399 171.5,74.5C 173.818,74.0029 176.152,73.6695 178.5,73.5 Z"/></g>
<g><path style="opacity:1" fill="#707070" d="M 58.5,74.5 C 60.8568,74.3367 63.1902,74.5034 65.5,75C 66.056,75.3826 66.3893,75.8826 66.5,76.5C 63.6697,76.0372 61.003,75.3705 58.5,74.5 Z"/></g>
<g><path style="opacity:1" fill="#787878" d="M 26.5,72.5 C 24.8892,76.0515 22.5558,79.0515 19.5,81.5C 21.1108,77.9485 23.4442,74.9485 26.5,72.5 Z"/></g>
<g><path style="opacity:1" fill="#747474" d="M 33.5,73.5 C 32.9202,75.7488 31.5869,77.4154 29.5,78.5C 30.0798,76.2512 31.4131,74.5846 33.5,73.5 Z"/></g>
<g><path style="opacity:1" fill="#909090" d="M 87.5,74.5 C 91.9209,75.6031 96.2542,76.9364 100.5,78.5C 103.078,78.9805 105.412,79.9805 107.5,81.5C 101.203,79.7071 94.8697,78.0404 88.5,76.5C 88.1667,75.8333 87.8333,75.1667 87.5,74.5 Z"/></g>
<g><path style="opacity:1" fill="#cbcbcb" d="M 200.5,74.5 C 203.649,78.095 206.816,81.7616 210,85.5C 210.49,86.7932 210.657,88.1266 210.5,89.5C 208.263,90.449 205.929,91.1156 203.5,91.5C 205.099,89.691 207.099,88.3576 209.5,87.5C 207.082,84.4531 204.082,82.1198 200.5,80.5C 201.623,78.5184 201.623,76.5184 200.5,74.5 Z"/></g>
<g><path style="opacity:1" fill="#cbcbcb" d="M 168.5,76.5 C 165.67,77.5103 163.17,79.1769 161,81.5C 157.227,80.4829 153.394,80.4829 149.5,81.5C 155.569,79.2136 161.902,77.5469 168.5,76.5 Z"/></g>
<g><path style="opacity:1" fill="#646464" d="M 134.5,78.5 C 134.389,79.1174 134.056,79.6174 133.5,80C 131.134,80.4396 128.801,80.9396 126.5,81.5C 126.5,81.1667 126.5,80.8333 126.5,80.5C 129.115,79.7094 131.782,79.0427 134.5,78.5 Z"/></g>
<g><path style="opacity:1" fill="#c2c2c2" d="M 209.5,74.5 C 211.737,76.7373 214.071,79.0706 216.5,81.5C 217.246,82.7362 217.579,84.0695 217.5,85.5C 215.34,83.1989 213.174,80.8656 211,78.5C 210.59,77.0993 210.09,75.766 209.5,74.5 Z"/></g>
<g><path style="opacity:1" fill="#bdbdbd" d="M 100.5,78.5 C 103.518,78.3354 106.518,78.502 109.5,79C 110.167,79.6667 110.833,80.3333 111.5,81C 116.501,81.2511 121.501,81.0845 126.5,80.5C 126.5,80.8333 126.5,81.1667 126.5,81.5C 123.248,82.3766 119.915,83.0433 116.5,83.5C 113.378,83.149 110.378,82.4824 107.5,81.5C 105.412,79.9805 103.078,78.9805 100.5,78.5 Z"/></g>
<g><path style="opacity:1" fill="#797979" d="M 29.5,78.5 C 28.9898,81.6743 27.3231,84.0077 24.5,85.5C 25.7859,82.883 27.4525,80.5496 29.5,78.5 Z"/></g>
<g><path style="opacity:1" fill="#a4a4a4" d="M 148.5,81.5 C 142.028,84.7414 135.028,86.7414 127.5,87.5C 127.611,86.8826 127.944,86.3826 128.5,86C 134.963,83.7256 141.629,82.2256 148.5,81.5 Z"/></g>
<g><path style="opacity:1" fill="#414141" d="M 19.5,81.5 C 18.4001,84.7847 16.7334,87.7847 14.5,90.5C 14.8627,91.1835 15.1961,91.8501 15.5,92.5C 13.6558,91.7961 13.1558,90.4628 14,88.5C 15.5722,85.8926 17.4055,83.5593 19.5,81.5 Z"/></g>
<g><path style="opacity:1" fill="#5f5f5f" d="M 24.5,85.5 C 23.7659,86.7079 23.4326,88.0413 23.5,89.5C 25.7857,89.595 27.7857,90.2616 29.5,91.5C 27.139,91.3259 24.8056,90.9926 22.5,90.5C 22.0773,88.2188 22.744,86.5521 24.5,85.5 Z"/></g>
<g><path style="opacity:1" fill="#9a9a9a" d="M 98.5,84.5 C 102.578,85.2482 106.578,86.2482 110.5,87.5C 110.843,89.4832 110.176,90.8166 108.5,91.5C 108.719,90.325 108.386,89.325 107.5,88.5C 104.063,87.6571 101.063,86.3237 98.5,84.5 Z"/></g>
<g><path style="opacity:1" fill="#838383" d="M 29.5,91.5 C 35.0809,91.8046 40.0809,93.4712 44.5,96.5C 39.8816,95.2913 35.215,94.1247 30.5,93C 29.944,92.6174 29.6107,92.1174 29.5,91.5 Z"/></g>
<g><path style="opacity:1" fill="#878787" d="M 215.5,94.5 C 213.098,95.9925 210.431,96.9925 207.5,97.5C 209.522,95.3072 212.189,94.3072 215.5,94.5 Z"/></g>
<g><path style="opacity:1" fill="#777777" d="M 123.5,100.5 C 122.85,100.196 122.183,99.8627 121.5,99.5C 120.171,123.997 120.171,148.33 121.5,172.5C 122.833,172.167 124.167,171.833 125.5,171.5C 124.01,173.28 122.01,173.946 119.5,173.5C 119.167,148.158 119.5,122.825 120.5,97.5C 122.213,97.8793 123.213,98.8793 123.5,100.5 Z"/></g>
<g><path style="opacity:1" fill="#5a5a5a" d="M 185.5,97.5 C 181.964,99.9739 177.964,101.641 173.5,102.5C 177.036,100.026 181.036,98.3594 185.5,97.5 Z"/></g>
<g><path style="opacity:1" fill="#6e6e6e" d="M 32.5,98.5 C 33.3314,114.328 33.8314,130.328 34,146.5C 35.98,147.749 37.8133,149.082 39.5,150.5C 37.8828,149.962 36.2161,149.629 34.5,149.5C 34.2172,148.711 33.7172,148.044 33,147.5C 32.5001,131.17 32.3334,114.837 32.5,98.5 Z"/></g>
<g><path style="opacity:1" fill="#9f9f9f" d="M 206.5,97.5 C 205.486,98.6737 204.153,99.3404 202.5,99.5C 201.833,115.167 201.167,130.833 200.5,146.5C 200.167,130.486 200.501,114.486 201.5,98.5C 203.071,97.6906 204.738,97.3573 206.5,97.5 Z"/></g>
<g><path style="opacity:1" fill="#dcdcdc" d="M 202.5,99.5 C 202.5,115.833 202.5,132.167 202.5,148.5C 195.312,151.895 187.979,154.895 180.5,157.5C 180.833,156.833 181.167,156.167 181.5,155.5C 184.596,153.903 187.93,152.736 191.5,152C 194.564,150.141 197.564,148.308 200.5,146.5C 201.167,130.833 201.833,115.167 202.5,99.5 Z"/></g>
<g><path style="opacity:1" fill="#3b3b3b" d="M 48.5,97.5 C 52.1267,98.3208 55.46,99.6541 58.5,101.5C 58.5,101.833 58.5,102.167 58.5,102.5C 57.1266,102.657 55.7932,102.49 54.5,102C 52.6084,100.235 50.6084,98.7352 48.5,97.5 Z"/></g>
<g><path style="opacity:1" fill="#8c8c8c" d="M 58.5,102.5 C 58.5,102.167 58.5,101.833 58.5,101.5C 62.4158,101.025 65.7491,102.025 68.5,104.5C 65.0272,104.424 61.6939,103.758 58.5,102.5 Z"/></g>
<g><path style="opacity:1" fill="#747474" d="M 110.5,100.5 C 110.167,101.167 109.833,101.833 109.5,102.5C 108.167,103.5 106.833,104.5 105.5,105.5C 106.167,102.833 107.833,101.167 110.5,100.5 Z"/></g>
<g><path style="opacity:1" fill="#565656" d="M 194.5,102.5 C 192.097,102.448 189.764,102.781 187.5,103.5C 188.312,102.007 189.645,101.34 191.5,101.5C 192.726,101.52 193.726,101.853 194.5,102.5 Z"/></g>
<g><path style="opacity:1" fill="#4d4d4d" d="M 49.5,104.5 C 47.3792,104.675 45.3792,104.341 43.5,103.5C 42.4324,102.566 41.099,102.232 39.5,102.5C 39.5,116.167 39.5,129.833 39.5,143.5C 38.5042,129.677 38.1709,115.677 38.5,101.5C 42.6961,101.129 46.3627,102.129 49.5,104.5 Z"/></g>
<g><path style="opacity:1" fill="#fbfbfb" d="M 108.5,171.5 C 104.463,170.935 100.797,169.601 97.5,167.5C 95.2446,165.62 92.5779,164.62 89.5,164.5C 87.2446,162.62 84.5779,161.62 81.5,161.5C 79.6287,160.203 77.6287,159.203 75.5,158.5C 73.9674,156.755 71.9674,155.755 69.5,155.5C 65.467,154.975 61.8004,153.642 58.5,151.5C 54.1451,148.932 49.4785,146.932 44.5,145.5C 43.713,143.896 42.3797,143.229 40.5,143.5C 40.5,130.167 40.5,116.833 40.5,103.5C 41.5,103.5 42.5,103.5 43.5,103.5C 45.3792,104.341 47.3792,104.675 49.5,104.5C 50.209,105.404 51.209,105.737 52.5,105.5C 55.3218,108.778 58.9885,110.111 63.5,109.5C 70.2411,112.198 77.2411,114.531 84.5,116.5C 85.7133,116.747 86.38,117.414 86.5,118.5C 89.6979,121.795 93.3646,122.295 97.5,120C 98.5237,117.452 99.6904,114.952 101,112.5C 104.067,109.275 106.9,105.941 109.5,102.5C 109.833,101.833 110.167,101.167 110.5,100.5C 111.117,100.389 111.617,100.056 112,99.5C 112.5,123.498 112.667,147.498 112.5,171.5C 111.167,171.5 109.833,171.5 108.5,171.5 Z"/></g>
<g><path style="opacity:1" fill="#d8d8d8" d="M 123.5,100.5 C 128.614,105.273 132.948,110.606 136.5,116.5C 134.363,115.058 132.03,113.891 129.5,113C 129.931,108.864 127.931,106.031 123.5,104.5C 122.914,104.709 122.414,105.043 122,105.5C 121.5,127.831 121.333,150.164 121.5,172.5C 120.171,148.33 120.171,123.997 121.5,99.5C 122.183,99.8627 122.85,100.196 123.5,100.5 Z"/></g>
<g><path style="opacity:1" fill="#fbfbfb" d="M 193.5,143.5 C 190.609,144.541 187.942,145.874 185.5,147.5C 179.851,149.495 174.184,151.495 168.5,153.5C 163.475,154.198 159.142,156.198 155.5,159.5C 153.03,159.654 151.03,160.654 149.5,162.5C 146.645,163.117 143.978,164.117 141.5,165.5C 138.895,165.621 136.895,166.621 135.5,168.5C 134.833,168.5 134.167,168.5 133.5,168.5C 130.895,168.621 128.895,169.621 127.5,171.5C 126.833,171.5 126.167,171.5 125.5,171.5C 124.167,171.833 122.833,172.167 121.5,172.5C 121.333,150.164 121.5,127.831 122,105.5C 122.414,105.043 122.914,104.709 123.5,104.5C 127.931,106.031 129.931,108.864 129.5,113C 132.03,113.891 134.363,115.058 136.5,116.5C 139.906,118.793 143.573,119.126 147.5,117.5C 152.537,117.092 157.537,116.426 162.5,115.5C 162.5,114.5 162.5,113.5 162.5,112.5C 165.228,112.829 167.562,112.163 169.5,110.5C 172.682,109.406 175.682,108.072 178.5,106.5C 179.167,106.5 179.833,106.5 180.5,106.5C 184.79,106.69 188.79,105.69 192.5,103.5C 193.499,116.817 193.833,130.15 193.5,143.5 Z"/></g>
<g><path style="opacity:1" fill="#a4a4a4" d="M 68.5,104.5 C 73.6279,104.986 78.2946,106.653 82.5,109.5C 77.5891,108.199 72.9225,106.532 68.5,104.5 Z"/></g>
<g><path style="opacity:1" fill="#575757" d="M 187.5,103.5 C 185.221,104.651 182.888,105.651 180.5,106.5C 179.833,106.5 179.167,106.5 178.5,106.5C 181.008,104.446 184.008,103.446 187.5,103.5 Z"/></g>
<g><path style="opacity:1" fill="#606060" d="M 105.5,96.5 C 102.179,101.152 98.5126,105.485 94.5,109.5C 97.0995,104.236 100.766,99.9029 105.5,96.5 Z"/></g>
<g><path style="opacity:1" fill="#a2a2a2" d="M 52.5,105.5 C 56.347,106.602 60.0137,107.935 63.5,109.5C 58.9885,110.111 55.3218,108.778 52.5,105.5 Z"/></g>
<g><path style="opacity:1" fill="#d4d4d4" d="M 108.5,171.5 C 109.833,171.5 111.167,171.5 112.5,171.5C 112.667,147.498 112.5,123.498 112,99.5C 111.617,100.056 111.117,100.389 110.5,100.5C 110.75,99.0779 111.583,98.0779 113,97.5C 113.5,122.831 113.667,148.164 113.5,173.5C 111.219,173.923 109.552,173.256 108.5,171.5 Z"/></g>
<g><path style="opacity:1" fill="#adadad" d="M 155.5,107.5 C 151.57,109.472 147.404,111.139 143,112.5C 141.93,112.472 141.097,112.139 140.5,111.5C 145.384,109.85 150.384,108.516 155.5,107.5 Z"/></g>
<g><path style="opacity:1" fill="#797979" d="M 82.5,109.5 C 85.4317,109.284 88.0983,109.951 90.5,111.5C 92.0729,111.248 93.4062,110.582 94.5,109.5C 94.3152,111.89 92.9818,112.89 90.5,112.5C 87.7769,111.492 85.1103,110.492 82.5,109.5 Z"/></g>
<g><path style="opacity:1" fill="#c4c4c4" d="M 194.5,102.5 C 194.5,116.167 194.5,129.833 194.5,143.5C 194.167,143.5 193.833,143.5 193.5,143.5C 193.833,130.15 193.499,116.817 192.5,103.5C 188.79,105.69 184.79,106.69 180.5,106.5C 182.888,105.651 185.221,104.651 187.5,103.5C 189.764,102.781 192.097,102.448 194.5,102.5 Z"/></g>
<g><path style="opacity:1" fill="#c8c8c8" d="M 43.5,103.5 C 42.5,103.5 41.5,103.5 40.5,103.5C 40.5,116.833 40.5,130.167 40.5,143.5C 42.3797,143.229 43.713,143.896 44.5,145.5C 43.8333,145.5 43.1667,145.5 42.5,145.5C 41.5,144.833 40.5,144.167 39.5,143.5C 39.5,129.833 39.5,116.167 39.5,102.5C 41.099,102.232 42.4324,102.566 43.5,103.5 Z"/></g>
<g><path style="opacity:1" fill="#c8c8c8" d="M 169.5,110.5 C 167.562,112.163 165.228,112.829 162.5,112.5C 162.5,113.5 162.5,114.5 162.5,115.5C 157.537,116.426 152.537,117.092 147.5,117.5C 154.398,114.065 161.732,111.731 169.5,110.5 Z"/></g>
<g><path style="opacity:1" fill="#c8c8c8" d="M 109.5,102.5 C 106.9,105.941 104.067,109.275 101,112.5C 99.6904,114.952 98.5237,117.452 97.5,120C 93.3646,122.295 89.6979,121.795 86.5,118.5C 89.5719,118.817 92.5719,118.484 95.5,117.5C 98.5095,113.164 101.843,109.164 105.5,105.5C 106.833,104.5 108.167,103.5 109.5,102.5 Z"/></g>
<g><path style="opacity:1" fill="#636363" d="M 193.5,143.5 C 193.833,143.5 194.167,143.5 194.5,143.5C 192.066,145.874 189.066,147.208 185.5,147.5C 187.942,145.874 190.609,144.541 193.5,143.5 Z"/></g>
<g><path style="opacity:1" fill="#737373" d="M 42.5,145.5 C 43.1667,145.5 43.8333,145.5 44.5,145.5C 49.4785,146.932 54.1451,148.932 58.5,151.5C 52.8678,150.1 47.5345,148.1 42.5,145.5 Z"/></g>
<g><path style="opacity:1" fill="#bdbdbd" d="M 34.5,149.5 C 36.2161,149.629 37.8828,149.962 39.5,150.5C 42.8401,151.958 46.1735,153.292 49.5,154.5C 43.9871,154.089 38.9871,152.423 34.5,149.5 Z"/></g>
<g><path style="opacity:1" fill="#919191" d="M 49.5,154.5 C 52.0177,155.264 54.351,156.264 56.5,157.5C 53.509,157.834 51.1757,156.834 49.5,154.5 Z"/></g>
<g><path style="opacity:1" fill="#999999" d="M 69.5,155.5 C 71.9674,155.755 73.9674,156.755 75.5,158.5C 73.0326,158.245 71.0326,157.245 69.5,155.5 Z"/></g>
<g><path style="opacity:1" fill="#b4b4b4" d="M 168.5,153.5 C 164.626,156.267 160.293,158.267 155.5,159.5C 159.142,156.198 163.475,154.198 168.5,153.5 Z"/></g>
<g><path style="opacity:1" fill="#717171" d="M 181.5,155.5 C 181.167,156.167 180.833,156.833 180.5,157.5C 177.5,158.167 174.5,158.833 171.5,159.5C 174.354,157.271 177.687,155.938 181.5,155.5 Z"/></g>
<g><path style="opacity:1" fill="#6b6b6b" d="M 155.5,159.5 C 153.97,161.346 151.97,162.346 149.5,162.5C 151.03,160.654 153.03,159.654 155.5,159.5 Z"/></g>
<g><path style="opacity:1" fill="#626262" d="M 81.5,161.5 C 84.5779,161.62 87.2446,162.62 89.5,164.5C 86.4221,164.38 83.7554,163.38 81.5,161.5 Z"/></g>
<g><path style="opacity:1" fill="#9a9a9a" d="M 70.5,163.5 C 74.7379,164.796 78.7379,166.462 82.5,168.5C 77.9124,167.978 73.9124,166.312 70.5,163.5 Z"/></g>
<g><path style="opacity:1" fill="#7b7b7b" d="M 89.5,164.5 C 92.5779,164.62 95.2446,165.62 97.5,167.5C 94.4221,167.38 91.7554,166.38 89.5,164.5 Z"/></g>
<g><path style="opacity:1" fill="#6b6b6b" d="M 141.5,165.5 C 139.887,167.088 137.887,168.088 135.5,168.5C 136.895,166.621 138.895,165.621 141.5,165.5 Z"/></g>
<g><path style="opacity:1" fill="#a3a3a3" d="M 168.5,161.5 C 163.528,163.847 158.528,166.347 153.5,169C 150.607,170.149 147.607,170.649 144.5,170.5C 152.068,166.664 160.068,163.664 168.5,161.5 Z"/></g>
<g><path style="opacity:1" fill="#6f6f6f" d="M 133.5,168.5 C 131.887,170.088 129.887,171.088 127.5,171.5C 128.895,169.621 130.895,168.621 133.5,168.5 Z"/></g>
<g><path style="opacity:1" fill="#8b8b8b" d="M 84.5,169.5 C 88.3603,169.054 91.3603,170.387 93.5,173.5C 90.4497,172.074 87.4497,170.741 84.5,169.5 Z"/></g>
<g><path style="opacity:1" fill="#6e6e6e" d="M 144.5,171.5 C 140.159,173.008 135.826,174.675 131.5,176.5C 135.049,173.18 139.382,171.513 144.5,171.5 Z"/></g>
<g><path style="opacity:1" fill="#c5c5c5" d="M 94.5,173.5 C 100.537,175.856 106.537,178.19 112.5,180.5C 105.26,180.864 99.2603,178.531 94.5,173.5 Z"/></g>
<g><path style="opacity:1" fill="#c1c1c1" d="M 130.5,176.5 C 128.388,179.063 125.721,180.896 122.5,182C 120.5,182.5 118.5,183 116.5,183.5C 115.287,183.253 114.62,182.586 114.5,181.5C 120.046,180.448 125.379,178.781 130.5,176.5 Z"/></g>
</svg>
