<?xml version="1.0" encoding="UTF-8"?>
<!DOCTYPE svg PUBLIC "-//W3C//DTD SVG 1.1//EN" "http://www.w3.org/Graphics/SVG/1.1/DTD/svg11.dtd">
<svg xmlns="http://www.w3.org/2000/svg" version="1.1" width="198px" height="180px" style="shape-rendering:geometricPrecision; text-rendering:geometricPrecision; image-rendering:optimizeQuality; fill-rule:evenodd; clip-rule:evenodd" xmlns:xlink="http://www.w3.org/1999/xlink">
<g><path style="opacity:1" fill="#fefefe" d="M -0.5,-0.5 C 65.5,-0.5 131.5,-0.5 197.5,-0.5C 197.5,21.5 197.5,43.5 197.5,65.5C 196.027,64.928 194.693,64.0946 193.5,63C 180.833,62.6667 168.167,62.3333 155.5,62C 138.333,44.8333 121.167,27.6667 104,10.5C 103.163,4.99457 99.9965,2.82791 94.5,4C 92.114,5.88732 90.9473,8.38732 91,11.5C 73.6088,27.8891 56.4421,44.7224 39.5,62C 27.8333,62.3333 16.1667,62.6667 4.5,63C 3.33333,64.1667 2.16667,65.3333 1,66.5C 0.832352,96.3362 0.332352,126.003 -0.5,155.5C -0.5,103.5 -0.5,51.5 -0.5,-0.5 Z"/></g>
<g><path style="opacity:1" fill="#060606" d="M 197.5,65.5 C 197.5,101.167 197.5,136.833 197.5,172.5C 131.5,172.5 65.5,172.5 -0.5,172.5C -0.5,166.833 -0.5,161.167 -0.5,155.5C 0.332352,126.003 0.832352,96.3362 1,66.5C 2.16667,65.3333 3.33333,64.1667 4.5,63C 16.1667,62.6667 27.8333,62.3333 39.5,62C 56.4421,44.7224 73.6088,27.8891 91,11.5C 90.9473,8.38732 92.114,5.88732 94.5,4C 99.9965,2.82791 103.163,4.99457 104,10.5C 121.167,27.6667 138.333,44.8333 155.5,62C 168.167,62.3333 180.833,62.6667 193.5,63C 194.693,64.0946 196.027,64.928 197.5,65.5 Z"/></g>
<g><path style="opacity:1" fill="#fcfcfc" d="M 150.5,61.5 C 115.337,62.4984 80.0039,62.8317 44.5,62.5C 59.6606,46.5062 75.3272,31.0062 91.5,16C 93.476,15.8122 95.476,15.9788 97.5,16.5C 99.4809,16.5629 101.148,15.8962 102.5,14.5C 118.521,30.1879 134.521,45.8546 150.5,61.5 Z"/></g>
<g><path style="opacity:1" fill="#535353" d="M 150.5,61.5 C 151.043,61.56 151.376,61.8933 151.5,62.5C 115.669,63.8303 80.0023,63.8303 44.5,62.5C 80.0039,62.8317 115.337,62.4984 150.5,61.5 Z"/></g>
<g><path style="opacity:1" fill="#fdfdfd" d="M 190.5,154.5 C 129.833,154.5 69.1667,154.5 8.5,154.5C 8.5,127.833 8.5,101.167 8.5,74.5C 8.91563,72.2475 10.249,70.7475 12.5,70C 70.1667,69.3333 127.833,69.3333 185.5,70C 187.286,70.7845 188.786,71.9512 190,73.5C 190.5,100.498 190.667,127.498 190.5,154.5 Z"/></g>
<g><path style="opacity:1" fill="#a9a9a9" d="M 8.5,74.5 C 8.5,101.167 8.5,127.833 8.5,154.5C 69.1667,154.5 129.833,154.5 190.5,154.5C 129.669,155.499 68.6689,155.832 7.5,155.5C 7.16878,128.328 7.50212,101.328 8.5,74.5 Z"/></g>
<g><path style="opacity:1" fill="#f8f8f8" d="M -0.5,172.5 C 65.5,172.5 131.5,172.5 197.5,172.5C 197.5,174.833 197.5,177.167 197.5,179.5C 131.5,179.5 65.5,179.5 -0.5,179.5C -0.5,177.167 -0.5,174.833 -0.5,172.5 Z"/></g>
</svg>
