<?xml version="1.0" encoding="UTF-8"?>
<!DOCTYPE svg PUBLIC "-//W3C//DTD SVG 1.1//EN" "http://www.w3.org/Graphics/SVG/1.1/DTD/svg11.dtd">
<svg xmlns="http://www.w3.org/2000/svg" version="1.1" width="278px" height="124px" style="shape-rendering:geometricPrecision; text-rendering:geometricPrecision; image-rendering:optimizeQuality; fill-rule:evenodd; clip-rule:evenodd" xmlns:xlink="http://www.w3.org/1999/xlink">
<g><path style="opacity:1" fill="#050505" d="M -0.5,11.5 C 89.8333,11.5 180.167,11.5 270.5,11.5C 270.5,40.1667 270.5,68.8333 270.5,97.5C 180.167,97.5 89.8333,97.5 -0.5,97.5C -0.5,68.8333 -0.5,40.1667 -0.5,11.5 Z"/></g>
<g><path style="opacity:1" fill="#a7a7a7" d="M 40.5,88.5 C 59.1667,88.5 77.8333,88.5 96.5,88.5C 96.5,66.5 96.5,44.5 96.5,22.5C 78.1667,22.5 59.8333,22.5 41.5,22.5C 41.1315,25.5331 41.7982,28.1998 43.5,30.5C 42.5,30.5 41.5,30.5 40.5,30.5C 40.5,27.5 40.5,24.5 40.5,21.5C 59.5,21.5 78.5,21.5 97.5,21.5C 97.5,44.1667 97.5,66.8333 97.5,89.5C 78.326,89.8303 59.326,89.497 40.5,88.5 Z"/></g>
<g><path style="opacity:1" fill="#d8d8d8" d="M 165.5,22.5 C 183.993,21.5031 202.659,21.1698 221.5,21.5C 221.5,25.1667 221.5,28.8333 221.5,32.5C 220.5,32.5 219.5,32.5 218.5,32.5C 218.5,34.5 218.5,36.5 218.5,38.5C 217.532,36.3926 217.198,34.0593 217.5,31.5C 218.5,31.5 219.5,31.5 220.5,31.5C 220.5,28.5 220.5,25.5 220.5,22.5C 202.167,22.5 183.833,22.5 165.5,22.5 Z"/></g>
<g><path style="opacity:1" fill="#fdfdfd" d="M 40.5,88.5 C 40.5,84.8333 40.5,81.1667 40.5,77.5C 41.5,77.5 42.5,77.5 43.5,77.5C 43.7947,75.2646 43.4614,73.2646 42.5,71.5C 41.1709,66.0403 40.5042,60.207 40.5,54C 40.5042,47.793 41.1709,41.9597 42.5,36.5C 43.4614,34.7354 43.7947,32.7354 43.5,30.5C 41.7982,28.1998 41.1315,25.5331 41.5,22.5C 59.8333,22.5 78.1667,22.5 96.5,22.5C 96.5,44.5 96.5,66.5 96.5,88.5C 77.8333,88.5 59.1667,88.5 40.5,88.5 Z"/></g>
<g><path style="opacity:1" fill="#fdfdfd" d="M 165.5,22.5 C 183.833,22.5 202.167,22.5 220.5,22.5C 220.5,25.5 220.5,28.5 220.5,31.5C 219.5,31.5 218.5,31.5 217.5,31.5C 217.198,34.0593 217.532,36.3926 218.5,38.5C 218.783,39.2891 219.283,39.9558 220,40.5C 220.167,45.5 220.333,50.5 220.5,55.5C 220.449,61.0785 219.782,66.4118 218.5,71.5C 218.5,73.5 218.5,75.5 218.5,77.5C 219.5,77.5 220.5,77.5 221.5,77.5C 221.5,81.1667 221.5,84.8333 221.5,88.5C 202.833,88.5 184.167,88.5 165.5,88.5C 165.5,66.5 165.5,44.5 165.5,22.5 Z"/></g>
<g><path style="opacity:1" fill="#4f4f4f" d="M 40.5,30.5 C 41.5,30.5 42.5,30.5 43.5,30.5C 43.7947,32.7354 43.4614,34.7354 42.5,36.5C 42.7413,34.1137 42.0746,32.1137 40.5,30.5 Z"/></g>
<g><path style="opacity:1" fill="#cfcfcf" d="M 218.5,38.5 C 219.5,38.5 220.5,38.5 221.5,38.5C 221.5,49.5 221.5,60.5 221.5,71.5C 220.5,71.5 219.5,71.5 218.5,71.5C 219.782,66.4118 220.449,61.0785 220.5,55.5C 220.333,50.5 220.167,45.5 220,40.5C 219.283,39.9558 218.783,39.2891 218.5,38.5 Z"/></g>
<g><path style="opacity:1" fill="#767676" d="M 221.5,21.5 C 202.659,21.1698 183.993,21.5031 165.5,22.5C 165.5,44.5 165.5,66.5 165.5,88.5C 164.503,66.0061 164.169,43.3395 164.5,20.5C 183.674,20.1697 202.674,20.503 221.5,21.5 Z"/></g>
<g><path style="opacity:1" fill="#b1b1b1" d="M 103.5,21.5 C 103.5,31.5 103.5,41.5 103.5,51.5C 121.833,51.5 140.167,51.5 158.5,51.5C 158.5,41.5 158.5,31.5 158.5,21.5C 159.494,31.6532 159.828,41.9865 159.5,52.5C 140.5,52.5 121.5,52.5 102.5,52.5C 102.172,41.9865 102.506,31.6532 103.5,21.5 Z"/></g>
<g><path style="opacity:1" fill="#fcfcfc" d="M 103.5,21.5 C 121.833,21.5 140.167,21.5 158.5,21.5C 158.5,31.5 158.5,41.5 158.5,51.5C 140.167,51.5 121.833,51.5 103.5,51.5C 103.5,41.5 103.5,31.5 103.5,21.5 Z"/></g>
<g><path style="opacity:1" fill="#202020" d="M 127.5,26.5 C 130.85,26.335 134.183,26.5017 137.5,27C 138.554,28.3876 138.72,29.8876 138,31.5C 134.591,32.6219 131.091,32.7886 127.5,32C 126.248,30.1722 126.248,28.3388 127.5,26.5 Z"/></g>
<g><path style="opacity:1" fill="#b4b4b4" d="M 88.5,52.5 C 88.5,55.8333 88.5,59.1667 88.5,62.5C 90.1667,62.5 91.8333,62.5 93.5,62.5C 91.7354,63.4614 89.7354,63.7947 87.5,63.5C 87.185,59.6286 87.5184,55.9619 88.5,52.5 Z"/></g>
<g><path style="opacity:1" fill="#161616" d="M 93.5,62.5 C 91.8333,62.5 90.1667,62.5 88.5,62.5C 88.5,59.1667 88.5,55.8333 88.5,52.5C 90.2232,51.193 92.0565,51.193 94,52.5C 94.8075,56.0267 94.6408,59.3601 93.5,62.5 Z"/></g>
<g><path style="opacity:1" fill="#1d1d1d" d="M 168.5,51.5 C 170.5,51.5 172.5,51.5 174.5,51.5C 174.5,55.1667 174.5,58.8333 174.5,62.5C 172.5,62.5 170.5,62.5 168.5,62.5C 168.5,58.8333 168.5,55.1667 168.5,51.5 Z"/></g>
<g><path style="opacity:1" fill="#fbfbfb" d="M 103.5,58.5 C 121.833,58.5 140.167,58.5 158.5,58.5C 158.5,68.5 158.5,78.5 158.5,88.5C 139.833,88.5 121.167,88.5 102.5,88.5C 102.173,78.3194 102.506,68.3194 103.5,58.5 Z"/></g>
<g><path style="opacity:1" fill="#0e0e0e" d="M 137.5,64.5 C 137.586,65.4959 137.252,66.3292 136.5,67C 133.518,67.498 130.518,67.6646 127.5,67.5C 127.5,66.5 127.5,65.5 127.5,64.5C 130.833,63.1667 134.167,63.1667 137.5,64.5 Z"/></g>
<g><path style="opacity:1" fill="#323232" d="M 127.5,64.5 C 127.5,65.5 127.5,66.5 127.5,67.5C 130.518,67.6646 133.518,67.498 136.5,67C 137.252,66.3292 137.586,65.4959 137.5,64.5C 139.184,68.8249 137.518,70.4916 132.5,69.5C 127.482,70.4916 125.816,68.8249 127.5,64.5 Z"/></g>
<g><path style="opacity:1" fill="#999999" d="M 103.5,58.5 C 121.993,57.5031 140.659,57.1698 159.5,57.5C 159.828,68.0135 159.494,78.3468 158.5,88.5C 158.5,78.5 158.5,68.5 158.5,58.5C 140.167,58.5 121.833,58.5 103.5,58.5 Z"/></g>
<g><path style="opacity:1" fill="#515151" d="M 42.5,71.5 C 43.4614,73.2646 43.7947,75.2646 43.5,77.5C 42.5,77.5 41.5,77.5 40.5,77.5C 42.0746,75.8863 42.7413,73.8863 42.5,71.5 Z"/></g>
<g><path style="opacity:1" fill="#2e2e2e" d="M 270.5,11.5 C 271.498,40.3285 271.831,69.3285 271.5,98.5C 180.833,98.5 90.1667,98.5 -0.5,98.5C -0.5,98.1667 -0.5,97.8333 -0.5,97.5C 89.8333,97.5 180.167,97.5 270.5,97.5C 270.5,68.8333 270.5,40.1667 270.5,11.5 Z"/></g>
<g><path style="opacity:1" fill="#dedede" d="M 275.5,102.5 C 183.5,102.5 91.5,102.5 -0.5,102.5C -0.5,102.167 -0.5,101.833 -0.5,101.5C 73.9315,101.262 148.432,100.929 223,100.5C 240.598,101.16 258.098,101.827 275.5,102.5 Z"/></g>
<g><path style="opacity:1" fill="#161616" d="M -0.5,102.5 C 91.5,102.5 183.5,102.5 275.5,102.5C 275.5,102.833 275.5,103.167 275.5,103.5C 183.607,104.432 91.607,104.765 -0.5,104.5C -0.5,103.833 -0.5,103.167 -0.5,102.5 Z"/></g>
<g><path style="opacity:1" fill="#070707" d="M 275.5,103.5 C 276.461,105.265 276.795,107.265 276.5,109.5C 184.167,109.5 91.8333,109.5 -0.5,109.5C -0.5,107.833 -0.5,106.167 -0.5,104.5C 91.607,104.765 183.607,104.432 275.5,103.5 Z"/></g>
<g><path style="opacity:1" fill="#f6f6f6" d="M -0.5,-0.5 C 92.1667,-0.5 184.833,-0.5 277.5,-0.5C 277.5,40.8333 277.5,82.1667 277.5,123.5C 184.833,123.5 92.1667,123.5 -0.5,123.5C -0.5,118.833 -0.5,114.167 -0.5,109.5C 91.8333,109.5 184.167,109.5 276.5,109.5C 276.795,107.265 276.461,105.265 275.5,103.5C 275.5,103.167 275.5,102.833 275.5,102.5C 258.098,101.827 240.598,101.16 223,100.5C 148.432,100.929 73.9315,101.262 -0.5,101.5C -0.5,100.5 -0.5,99.5 -0.5,98.5C 90.1667,98.5 180.833,98.5 271.5,98.5C 271.831,69.3285 271.498,40.3285 270.5,11.5C 180.167,11.5 89.8333,11.5 -0.5,11.5C -0.5,7.5 -0.5,3.5 -0.5,-0.5 Z"/></g>
</svg>
