<?xml version="1.0" encoding="UTF-8"?>
<!DOCTYPE svg PUBLIC "-//W3C//DTD SVG 1.1//EN" "http://www.w3.org/Graphics/SVG/1.1/DTD/svg11.dtd">
<svg xmlns="http://www.w3.org/2000/svg" version="1.1" width="228px" height="236px" style="shape-rendering:geometricPrecision; text-rendering:geometricPrecision; image-rendering:optimizeQuality; fill-rule:evenodd; clip-rule:evenodd" xmlns:xlink="http://www.w3.org/1999/xlink">
<g><path style="opacity:0.988" fill="#fdfdfd" d="M 24.5,-0.5 C 83.8333,-0.5 143.167,-0.5 202.5,-0.5C 202.5,78.1667 202.5,156.833 202.5,235.5C 143.167,235.5 83.8333,235.5 24.5,235.5C 24.5,156.833 24.5,78.1667 24.5,-0.5 Z"/></g>
<g><path style="opacity:1" fill="#5b5b5b" d="M 58.5,9.5 C 58.5,78.5 58.5,147.5 58.5,216.5C 60.5,216.5 62.5,216.5 64.5,216.5C 64.1778,210.642 64.5111,204.975 65.5,199.5C 65.5,205.5 65.5,211.5 65.5,217.5C 62.8333,217.5 60.1667,217.5 57.5,217.5C 57.1675,147.998 57.5008,78.6647 58.5,9.5 Z"/></g>
<g><path style="opacity:1" fill="#1c1c1c" d="M 58.5,9.5 C 95.8333,9.5 133.167,9.5 170.5,9.5C 170.5,78.5 170.5,147.5 170.5,216.5C 168.5,216.5 166.5,216.5 164.5,216.5C 164.822,210.642 164.489,204.975 163.5,199.5C 148.5,199.5 133.5,199.5 118.5,199.5C 117.511,204.975 117.178,210.642 117.5,216.5C 115.5,216.5 113.5,216.5 111.5,216.5C 111.822,210.642 111.489,204.975 110.5,199.5C 95.5,199.5 80.5,199.5 65.5,199.5C 64.5111,204.975 64.1778,210.642 64.5,216.5C 62.5,216.5 60.5,216.5 58.5,216.5C 58.5,147.5 58.5,78.5 58.5,9.5 Z"/></g>
<g><path style="opacity:1" fill="#f3f3f3" d="M 65.5,17.5 C 80.5,17.5 95.5,17.5 110.5,17.5C 110.5,30.1667 110.5,42.8333 110.5,55.5C 95.5,55.5 80.5,55.5 65.5,55.5C 65.5,42.8333 65.5,30.1667 65.5,17.5 Z"/></g>
<g><path style="opacity:1" fill="#f5f5f5" d="M 118.5,17.5 C 133.5,17.5 148.5,17.5 163.5,17.5C 163.5,30.1667 163.5,42.8333 163.5,55.5C 148.5,55.5 133.5,55.5 118.5,55.5C 118.5,42.8333 118.5,30.1667 118.5,17.5 Z"/></g>
<g><path style="opacity:1" fill="#808080" d="M 146.5,19.5 C 146.5,19.8333 146.5,20.1667 146.5,20.5C 145.167,20.5 143.833,20.5 142.5,20.5C 142.5,31.1667 142.5,41.8333 142.5,52.5C 143.833,52.5 145.167,52.5 146.5,52.5C 145.081,53.4511 143.415,53.7845 141.5,53.5C 141.5,42.1667 141.5,30.8333 141.5,19.5C 143.167,19.5 144.833,19.5 146.5,19.5 Z"/></g>
<g><path style="opacity:1" fill="#b7b7b7" d="M 146.5,19.5 C 147.167,19.5 147.833,19.5 148.5,19.5C 148.5,19.8333 148.5,20.1667 148.5,20.5C 148.5,31.1667 148.5,41.8333 148.5,52.5C 147.833,52.5 147.167,52.5 146.5,52.5C 146.5,41.8333 146.5,31.1667 146.5,20.5C 146.5,20.1667 146.5,19.8333 146.5,19.5 Z"/></g>
<g><path style="opacity:1" fill="#171717" d="M 148.5,20.5 C 149.833,20.5 151.167,20.5 152.5,20.5C 152.5,31.1667 152.5,41.8333 152.5,52.5C 151.167,52.5 149.833,52.5 148.5,52.5C 148.5,41.8333 148.5,31.1667 148.5,20.5 Z"/></g>
<g><path style="opacity:1" fill="#7f7f7f" d="M 71.5,20.5 C 71.5,31.1667 71.5,41.8333 71.5,52.5C 73.5,52.5 75.5,52.5 77.5,52.5C 75.3926,53.4682 73.0593,53.8016 70.5,53.5C 70.1721,42.3206 70.5054,31.3206 71.5,20.5 Z"/></g>
<g><path style="opacity:1" fill="#151515" d="M 71.5,20.5 C 73.5,20.5 75.5,20.5 77.5,20.5C 77.5,31.1667 77.5,41.8333 77.5,52.5C 75.5,52.5 73.5,52.5 71.5,52.5C 71.5,41.8333 71.5,31.1667 71.5,20.5 Z"/></g>
<g><path style="opacity:1" fill="#181818" d="M 87.5,20.5 C 87.5,31.1667 87.5,41.8333 87.5,52.5C 85.5,52.5 83.5,52.5 81.5,52.5C 81.5,41.8333 81.5,31.1667 81.5,20.5C 83.5,20.5 85.5,20.5 87.5,20.5 Z"/></g>
<g><path style="opacity:1" fill="#7d7d7d" d="M 87.5,20.5 C 88.4946,31.3206 88.8279,42.3206 88.5,53.5C 85.9407,53.8016 83.6074,53.4682 81.5,52.5C 83.5,52.5 85.5,52.5 87.5,52.5C 87.5,41.8333 87.5,31.1667 87.5,20.5 Z"/></g>
<g><path style="opacity:1" fill="#151515" d="M 146.5,20.5 C 146.5,31.1667 146.5,41.8333 146.5,52.5C 145.167,52.5 143.833,52.5 142.5,52.5C 142.5,41.8333 142.5,31.1667 142.5,20.5C 143.833,20.5 145.167,20.5 146.5,20.5 Z"/></g>
<g><path style="opacity:1" fill="#949494" d="M 124.5,20.5 C 124.5,31.1667 124.5,41.8333 124.5,52.5C 126.5,52.5 128.5,52.5 130.5,52.5C 130.5,41.8333 130.5,31.1667 130.5,20.5C 131.495,31.3206 131.828,42.3206 131.5,53.5C 128.833,53.5 126.167,53.5 123.5,53.5C 123.172,42.3206 123.505,31.3206 124.5,20.5 Z"/></g>
<g><path style="opacity:1" fill="#161616" d="M 124.5,20.5 C 126.5,20.5 128.5,20.5 130.5,20.5C 130.5,31.1667 130.5,41.8333 130.5,52.5C 128.5,52.5 126.5,52.5 124.5,52.5C 124.5,41.8333 124.5,31.1667 124.5,20.5 Z"/></g>
<g><path style="opacity:1" fill="#707070" d="M 148.5,20.5 C 148.5,20.1667 148.5,19.8333 148.5,19.5C 150.167,19.5 151.833,19.5 153.5,19.5C 153.5,30.8333 153.5,42.1667 153.5,53.5C 151.585,53.7845 149.919,53.4511 148.5,52.5C 149.833,52.5 151.167,52.5 152.5,52.5C 152.5,41.8333 152.5,31.1667 152.5,20.5C 151.167,20.5 149.833,20.5 148.5,20.5 Z"/></g>
<g><path style="opacity:1" fill="#565656" d="M 98.5,25.5 C 98.5,25.8333 98.5,26.1667 98.5,26.5C 96.5,26.5 94.5,26.5 92.5,26.5C 92.5,35.1667 92.5,43.8333 92.5,52.5C 92.1667,52.5 91.8333,52.5 91.5,52.5C 91.5,43.5 91.5,34.5 91.5,25.5C 93.8333,25.5 96.1667,25.5 98.5,25.5 Z"/></g>
<g><path style="opacity:1" fill="#c8c8c8" d="M 98.5,25.5 C 99.4936,34.6517 99.8269,43.985 99.5,53.5C 96.6146,53.8064 93.9479,53.4731 91.5,52.5C 91.8333,52.5 92.1667,52.5 92.5,52.5C 94.5,52.5 96.5,52.5 98.5,52.5C 98.5,43.8333 98.5,35.1667 98.5,26.5C 98.5,26.1667 98.5,25.8333 98.5,25.5 Z"/></g>
<g><path style="opacity:1" fill="#171717" d="M 98.5,26.5 C 98.5,35.1667 98.5,43.8333 98.5,52.5C 96.5,52.5 94.5,52.5 92.5,52.5C 92.5,43.8333 92.5,35.1667 92.5,26.5C 94.5,26.5 96.5,26.5 98.5,26.5 Z"/></g>
<g><path style="opacity:1" fill="#a3a3a3" d="M 133.5,27.5 C 133.5,35.8333 133.5,44.1667 133.5,52.5C 135.5,52.5 137.5,52.5 139.5,52.5C 139.5,44.1667 139.5,35.8333 139.5,27.5C 140.493,35.9839 140.826,44.6506 140.5,53.5C 137.833,53.5 135.167,53.5 132.5,53.5C 132.174,44.6506 132.507,35.9839 133.5,27.5 Z"/></g>
<g><path style="opacity:1" fill="#151515" d="M 133.5,27.5 C 135.5,27.5 137.5,27.5 139.5,27.5C 139.5,35.8333 139.5,44.1667 139.5,52.5C 137.5,52.5 135.5,52.5 133.5,52.5C 133.5,44.1667 133.5,35.8333 133.5,27.5 Z"/></g>
<g><path style="opacity:1" fill="#f7f7f7" d="M 65.5,62.5 C 80.5,62.5 95.5,62.5 110.5,62.5C 110.5,75.1667 110.5,87.8333 110.5,100.5C 95.5,100.5 80.5,100.5 65.5,100.5C 65.5,87.8333 65.5,75.1667 65.5,62.5 Z"/></g>
<g><path style="opacity:1" fill="#151515" d="M 68.5,66.5 C 70.5,66.5 72.5,66.5 74.5,66.5C 74.5,77.1667 74.5,87.8333 74.5,98.5C 72.5,98.5 70.5,98.5 68.5,98.5C 68.5,87.8333 68.5,77.1667 68.5,66.5 Z"/></g>
<g><path style="opacity:1" fill="#202020" d="M 76.5,70.5 C 76.5,69.1667 76.5,67.8333 76.5,66.5C 78.4352,65.8505 80.4352,65.5172 82.5,65.5C 84.6251,76.1267 86.6251,86.7934 88.5,97.5C 86.1933,97.9863 84.0266,97.9863 82,97.5C 80.4734,88.425 78.6401,79.425 76.5,70.5 Z"/></g>
<g><path style="opacity:1" fill="#6f6f6f" d="M 68.5,66.5 C 71.0613,65.2329 73.728,65.2329 76.5,66.5C 76.5,67.8333 76.5,69.1667 76.5,70.5C 75.8333,79.8333 75.1667,89.1667 74.5,98.5C 74.5,87.8333 74.5,77.1667 74.5,66.5C 72.5,66.5 70.5,66.5 68.5,66.5 Z"/></g>
<g><path style="opacity:1" fill="#e2e2e2" d="M 118.5,62.5 C 133.5,62.5 148.5,62.5 163.5,62.5C 163.5,75.1667 163.5,87.8333 163.5,100.5C 148.5,100.5 133.5,100.5 118.5,100.5C 118.5,87.8333 118.5,75.1667 118.5,62.5 Z"/></g>
<g><path style="opacity:1" fill="#fbfbfb" d="M 151.5,98.5 C 151.5,96.1667 151.5,93.8333 151.5,91.5C 142.318,91.1734 133.318,91.5067 124.5,92.5C 124.5,94.5 124.5,96.5 124.5,98.5C 123.081,99.4511 121.415,99.7845 119.5,99.5C 119.5,87.5 119.5,75.5 119.5,63.5C 133.833,63.5 148.167,63.5 162.5,63.5C 162.5,75.5 162.5,87.5 162.5,99.5C 158.629,99.815 154.962,99.4816 151.5,98.5 Z"/></g>
<g><path style="opacity:1" fill="#191919" d="M 124.5,92.5 C 133.167,92.5 141.833,92.5 150.5,92.5C 150.5,94.5 150.5,96.5 150.5,98.5C 141.833,98.5 133.167,98.5 124.5,98.5C 124.5,96.5 124.5,94.5 124.5,92.5 Z"/></g>
<g><path style="opacity:1" fill="#757575" d="M 124.5,92.5 C 133.318,91.5067 142.318,91.1734 151.5,91.5C 151.5,93.8333 151.5,96.1667 151.5,98.5C 151.167,98.5 150.833,98.5 150.5,98.5C 150.5,96.5 150.5,94.5 150.5,92.5C 141.833,92.5 133.167,92.5 124.5,92.5 Z"/></g>
<g><path style="opacity:1" fill="#a3a3a3" d="M 122.5,83.5 C 122.5,85.5 122.5,87.5 122.5,89.5C 133.167,89.5 143.833,89.5 154.5,89.5C 143.679,90.4946 132.679,90.8279 121.5,90.5C 121.198,87.9407 121.532,85.6074 122.5,83.5 Z"/></g>
<g><path style="opacity:1" fill="#171717" d="M 122.5,83.5 C 133.167,83.5 143.833,83.5 154.5,83.5C 154.5,85.5 154.5,87.5 154.5,89.5C 143.833,89.5 133.167,89.5 122.5,89.5C 122.5,87.5 122.5,85.5 122.5,83.5 Z"/></g>
<g><path style="opacity:1" fill="#f8f8f8" d="M 110.5,108.5 C 110.5,120.833 110.5,133.167 110.5,145.5C 95.5,145.5 80.5,145.5 65.5,145.5C 65.5,133.167 65.5,120.833 65.5,108.5C 80.5,108.5 95.5,108.5 110.5,108.5 Z"/></g>
<g><path style="opacity:1" fill="#f4f4f4" d="M 118.5,108.5 C 133.5,108.5 148.5,108.5 163.5,108.5C 163.5,121.167 163.5,133.833 163.5,146.5C 148.5,146.5 133.5,146.5 118.5,146.5C 118.5,133.833 118.5,121.167 118.5,108.5 Z"/></g>
<g><path style="opacity:1" fill="#9e9e9e" d="M 125.5,111.5 C 125.5,122.167 125.5,132.833 125.5,143.5C 127.5,143.5 129.5,143.5 131.5,143.5C 131.5,132.833 131.5,122.167 131.5,111.5C 132.495,122.321 132.828,133.321 132.5,144.5C 129.833,144.5 127.167,144.5 124.5,144.5C 124.172,133.321 124.505,122.321 125.5,111.5 Z"/></g>
<g><path style="opacity:1" fill="#161616" d="M 125.5,111.5 C 127.5,111.5 129.5,111.5 131.5,111.5C 131.5,122.167 131.5,132.833 131.5,143.5C 129.5,143.5 127.5,143.5 125.5,143.5C 125.5,132.833 125.5,122.167 125.5,111.5 Z"/></g>
<g><path style="opacity:1" fill="#181818" d="M 141.5,111.5 C 141.5,122.167 141.5,132.833 141.5,143.5C 139.5,143.5 137.5,143.5 135.5,143.5C 135.5,132.833 135.5,122.167 135.5,111.5C 137.5,111.5 139.5,111.5 141.5,111.5 Z"/></g>
<g><path style="opacity:1" fill="#565656" d="M 141.5,111.5 C 142.495,122.321 142.828,133.321 142.5,144.5C 139.941,144.802 137.607,144.468 135.5,143.5C 137.5,143.5 139.5,143.5 141.5,143.5C 141.5,132.833 141.5,122.167 141.5,111.5 Z"/></g>
<g><path style="opacity:1" fill="#171717" d="M 152.5,117.5 C 152.5,126.167 152.5,134.833 152.5,143.5C 150.5,143.5 148.5,143.5 146.5,143.5C 146.5,134.833 146.5,126.167 146.5,117.5C 148.5,117.5 150.5,117.5 152.5,117.5 Z"/></g>
<g><path style="opacity:1" fill="#202020" d="M 81.5,121.5 C 81.5,120.833 81.5,120.167 81.5,119.5C 83.2972,118.27 85.2972,117.604 87.5,117.5C 89.5939,125.033 91.9272,132.533 94.5,140C 93.0919,142.958 90.9253,143.792 88,142.5C 85.928,135.452 83.7613,128.452 81.5,121.5 Z"/></g>
<g><path style="opacity:1" fill="#626262" d="M 152.5,117.5 C 150.5,117.5 148.5,117.5 146.5,117.5C 146.5,126.167 146.5,134.833 146.5,143.5C 148.5,143.5 150.5,143.5 152.5,143.5C 150.393,144.468 148.059,144.802 145.5,144.5C 145.5,135.167 145.5,125.833 145.5,116.5C 148.059,116.198 150.393,116.532 152.5,117.5 Z"/></g>
<g><path style="opacity:1" fill="#484848" d="M 74.5,111.5 C 74.5,122.167 74.5,132.833 74.5,143.5C 76.1667,143.5 77.8333,143.5 79.5,143.5C 79.5,132.833 79.5,122.167 79.5,111.5C 80.1667,114.167 80.8333,116.833 81.5,119.5C 81.5,120.167 81.5,120.833 81.5,121.5C 80.508,128.982 80.1746,136.648 80.5,144.5C 78.1667,144.5 75.8333,144.5 73.5,144.5C 73.1721,133.321 73.5054,122.321 74.5,111.5 Z"/></g>
<g><path style="opacity:1" fill="#161616" d="M 74.5,111.5 C 76.1667,111.5 77.8333,111.5 79.5,111.5C 79.5,122.167 79.5,132.833 79.5,143.5C 77.8333,143.5 76.1667,143.5 74.5,143.5C 74.5,132.833 74.5,122.167 74.5,111.5 Z"/></g>
<g><path style="opacity:1" fill="#545454" d="M 102.5,123.5 C 101.167,123.5 99.8333,123.5 98.5,123.5C 98.5,130.167 98.5,136.833 98.5,143.5C 99.8333,143.5 101.167,143.5 102.5,143.5C 101.081,144.451 99.4147,144.784 97.5,144.5C 97.5,137.167 97.5,129.833 97.5,122.5C 99.4147,122.216 101.081,122.549 102.5,123.5 Z"/></g>
<g><path style="opacity:1" fill="#1b1b1b" d="M 102.5,123.5 C 102.5,130.167 102.5,136.833 102.5,143.5C 101.167,143.5 99.8333,143.5 98.5,143.5C 98.5,136.833 98.5,130.167 98.5,123.5C 99.8333,123.5 101.167,123.5 102.5,123.5 Z"/></g>
<g><path style="opacity:1" fill="#838282" d="M 110.5,108.5 C 111.495,120.989 111.829,133.656 111.5,146.5C 95.9909,146.83 80.6576,146.496 65.5,145.5C 80.5,145.5 95.5,145.5 110.5,145.5C 110.5,133.167 110.5,120.833 110.5,108.5 Z"/></g>
<g><path style="opacity:1" fill="#f6f6f6" d="M 110.5,190.5 C 107.615,190.806 104.948,190.473 102.5,189.5C 102.5,178.833 102.5,168.167 102.5,157.5C 101.081,156.549 99.4147,156.216 97.5,156.5C 97.1667,156.5 96.8333,156.5 96.5,156.5C 94.8333,156.5 93.1667,156.5 91.5,156.5C 90.8333,158.833 90.1667,161.167 89.5,163.5C 87.1667,163.5 84.8333,163.5 82.5,163.5C 82.5,172.167 82.5,180.833 82.5,189.5C 81.8333,189.5 81.1667,189.5 80.5,189.5C 80.5,178.5 80.5,167.5 80.5,156.5C 78.1667,156.5 75.8333,156.5 73.5,156.5C 73.5,167.5 73.5,178.5 73.5,189.5C 71.0521,190.473 68.3854,190.806 65.5,190.5C 65.5,178.167 65.5,165.833 65.5,153.5C 80.5,153.5 95.5,153.5 110.5,153.5C 110.5,165.833 110.5,178.167 110.5,190.5 Z"/></g>
<g><path style="opacity:1" fill="#4c4c4c" d="M 80.5,189.5 C 80.1667,189.5 79.8333,189.5 79.5,189.5C 79.5,178.833 79.5,168.167 79.5,157.5C 77.8333,157.5 76.1667,157.5 74.5,157.5C 74.5,168.167 74.5,178.833 74.5,189.5C 74.1667,189.5 73.8333,189.5 73.5,189.5C 73.5,178.5 73.5,167.5 73.5,156.5C 75.8333,156.5 78.1667,156.5 80.5,156.5C 80.5,167.5 80.5,178.5 80.5,189.5 Z"/></g>
<g><path style="opacity:1" fill="#424242" d="M 97.5,156.5 C 99.4147,156.216 101.081,156.549 102.5,157.5C 101.167,157.5 99.8333,157.5 98.5,157.5C 98.5,168.167 98.5,178.833 98.5,189.5C 97.5054,178.679 97.1721,167.679 97.5,156.5 Z"/></g>
<g><path style="opacity:1" fill="#1a1a1a" d="M 102.5,157.5 C 102.5,168.167 102.5,178.833 102.5,189.5C 101.167,189.5 99.8333,189.5 98.5,189.5C 98.5,178.833 98.5,168.167 98.5,157.5C 99.8333,157.5 101.167,157.5 102.5,157.5 Z"/></g>
<g><path style="opacity:1" fill="#151515" d="M 79.5,189.5 C 77.8333,189.5 76.1667,189.5 74.5,189.5C 74.5,178.833 74.5,168.167 74.5,157.5C 76.1667,157.5 77.8333,157.5 79.5,157.5C 79.5,168.167 79.5,178.833 79.5,189.5 Z"/></g>
<g><path style="opacity:1" fill="#3a3a3a" d="M 89.5,163.5 C 89.8264,172.349 89.493,181.016 88.5,189.5C 88.5,181.167 88.5,172.833 88.5,164.5C 86.8333,164.5 85.1667,164.5 83.5,164.5C 83.5,172.833 83.5,181.167 83.5,189.5C 83.1667,189.5 82.8333,189.5 82.5,189.5C 82.5,180.833 82.5,172.167 82.5,163.5C 84.8333,163.5 87.1667,163.5 89.5,163.5 Z"/></g>
<g><path style="opacity:1" fill="#161616" d="M 88.5,189.5 C 86.8333,189.5 85.1667,189.5 83.5,189.5C 83.5,181.167 83.5,172.833 83.5,164.5C 85.1667,164.5 86.8333,164.5 88.5,164.5C 88.5,172.833 88.5,181.167 88.5,189.5 Z"/></g>
<g><path style="opacity:1" fill="#e1e1e1" d="M 91.5,156.5 C 91.5,167.5 91.5,178.5 91.5,189.5C 93.1667,189.5 94.8333,189.5 96.5,189.5C 96.5,178.5 96.5,167.5 96.5,156.5C 96.8333,156.5 97.1667,156.5 97.5,156.5C 97.1721,167.679 97.5054,178.679 98.5,189.5C 99.8333,189.5 101.167,189.5 102.5,189.5C 104.948,190.473 107.615,190.806 110.5,190.5C 95.5,191.833 80.5,191.833 65.5,190.5C 68.3854,190.806 71.0521,190.473 73.5,189.5C 73.8333,189.5 74.1667,189.5 74.5,189.5C 76.1667,189.5 77.8333,189.5 79.5,189.5C 79.8333,189.5 80.1667,189.5 80.5,189.5C 81.1667,189.5 81.8333,189.5 82.5,189.5C 82.8333,189.5 83.1667,189.5 83.5,189.5C 85.1667,189.5 86.8333,189.5 88.5,189.5C 89.493,181.016 89.8264,172.349 89.5,163.5C 90.1667,161.167 90.8333,158.833 91.5,156.5 Z"/></g>
<g><path style="opacity:1" fill="#2a2a2a" d="M 91.5,156.5 C 93.1667,156.5 94.8333,156.5 96.5,156.5C 96.5,167.5 96.5,178.5 96.5,189.5C 94.8333,189.5 93.1667,189.5 91.5,189.5C 91.5,178.5 91.5,167.5 91.5,156.5 Z"/></g>
<g><path style="opacity:1" fill="#dcdcdc" d="M 118.5,153.5 C 133.5,153.5 148.5,153.5 163.5,153.5C 163.5,166.167 163.5,178.833 163.5,191.5C 148.5,191.5 133.5,191.5 118.5,191.5C 118.5,178.833 118.5,166.167 118.5,153.5 Z"/></g>
<g><path style="opacity:1" fill="#fcfcfc" d="M 142.5,162.5 C 140.167,162.5 137.833,162.5 135.5,162.5C 135.5,171.5 135.5,180.5 135.5,189.5C 134.5,190.833 133.5,190.833 132.5,189.5C 132.5,178.5 132.5,167.5 132.5,156.5C 130.167,156.5 127.833,156.5 125.5,156.5C 124.505,167.654 124.172,178.988 124.5,190.5C 122.833,190.5 121.167,190.5 119.5,190.5C 119.5,178.5 119.5,166.5 119.5,154.5C 133.833,154.5 148.167,154.5 162.5,154.5C 162.5,166.5 162.5,178.5 162.5,190.5C 156.167,190.5 149.833,190.5 143.5,190.5C 143.827,180.985 143.494,171.652 142.5,162.5 Z"/></g>
<g><path style="opacity:1" fill="#1f1f1f" d="M 142.5,162.5 C 142.5,171.5 142.5,180.5 142.5,189.5C 140.167,189.5 137.833,189.5 135.5,189.5C 135.5,180.5 135.5,171.5 135.5,162.5C 137.833,162.5 140.167,162.5 142.5,162.5 Z"/></g>
<g><path style="opacity:1" fill="#181818" d="M 125.5,157.5 C 127.5,157.5 129.5,157.5 131.5,157.5C 131.5,168.167 131.5,178.833 131.5,189.5C 129.5,189.5 127.5,189.5 125.5,189.5C 125.5,178.833 125.5,168.167 125.5,157.5 Z"/></g>
<g><path style="opacity:1" fill="#646464" d="M 125.5,157.5 C 125.5,157.167 125.5,156.833 125.5,156.5C 127.833,156.5 130.167,156.5 132.5,156.5C 132.5,167.5 132.5,178.5 132.5,189.5C 132.167,189.5 131.833,189.5 131.5,189.5C 131.5,178.833 131.5,168.167 131.5,157.5C 129.5,157.5 127.5,157.5 125.5,157.5 Z"/></g>
<g><path style="opacity:1" fill="#676767" d="M 110.5,199.5 C 111.489,204.975 111.822,210.642 111.5,216.5C 113.5,216.5 115.5,216.5 117.5,216.5C 117.178,210.642 117.511,204.975 118.5,199.5C 118.5,205.5 118.5,211.5 118.5,217.5C 115.833,217.5 113.167,217.5 110.5,217.5C 110.5,211.5 110.5,205.5 110.5,199.5 Z"/></g>
<g><path style="opacity:1" fill="#7b7b7b" d="M 170.5,9.5 C 171.499,78.6647 171.833,147.998 171.5,217.5C 168.833,217.5 166.167,217.5 163.5,217.5C 163.5,211.5 163.5,205.5 163.5,199.5C 164.489,204.975 164.822,210.642 164.5,216.5C 166.5,216.5 168.5,216.5 170.5,216.5C 170.5,147.5 170.5,78.5 170.5,9.5 Z"/></g>
</svg>
