<?xml version="1.0" encoding="UTF-8"?>
<!DOCTYPE svg PUBLIC "-//W3C//DTD SVG 1.1//EN" "http://www.w3.org/Graphics/SVG/1.1/DTD/svg11.dtd">
<svg xmlns="http://www.w3.org/2000/svg" version="1.1" width="212px" height="206px" style="shape-rendering:geometricPrecision; text-rendering:geometricPrecision; image-rendering:optimizeQuality; fill-rule:evenodd; clip-rule:evenodd" xmlns:xlink="http://www.w3.org/1999/xlink">
<g><path style="opacity:1" fill="#fdfdfd" d="M -0.5,-0.5 C 70.1667,-0.5 140.833,-0.5 211.5,-0.5C 211.5,68.1667 211.5,136.833 211.5,205.5C 140.833,205.5 70.1667,205.5 -0.5,205.5C -0.5,136.833 -0.5,68.1667 -0.5,-0.5 Z"/></g>
<g><path style="opacity:1" fill="#636363" d="M 132.5,15.5 C 127.77,15.2834 123.103,15.6167 118.5,16.5C 119.058,15.2101 120.058,14.3768 121.5,14C 123.333,13.8333 125.167,13.6667 127,13.5C 129.295,13.5465 131.129,14.2132 132.5,15.5 Z"/></g>
<g><path style="opacity:1" fill="#0a0a0a" d="M 132.5,15.5 C 137.557,16.6789 140.89,19.6789 142.5,24.5C 143.136,26.7946 144.469,28.4613 146.5,29.5C 147.11,30.391 147.443,31.391 147.5,32.5C 142.786,34.6257 137.786,36.6257 132.5,38.5C 128.748,41.0413 125.415,44.0413 122.5,47.5C 121.264,48.2458 119.93,48.5792 118.5,48.5C 116.172,43.8362 113.838,39.1695 111.5,34.5C 111.5,31.5 111.5,28.5 111.5,25.5C 111.964,21.0372 114.297,18.0372 118.5,16.5C 123.103,15.6167 127.77,15.2834 132.5,15.5 Z"/></g>
<g><path style="opacity:1" fill="#828282" d="M 142.5,24.5 C 144.543,25.5794 145.876,27.246 146.5,29.5C 144.469,28.4613 143.136,26.7946 142.5,24.5 Z"/></g>
<g><path style="opacity:1" fill="#bdbdbd" d="M 111.5,25.5 C 111.5,28.5 111.5,31.5 111.5,34.5C 110.235,33.4855 109.569,31.9855 109.5,30C 109.569,28.0145 110.235,26.5145 111.5,25.5 Z"/></g>
<g><path style="opacity:1" fill="#080808" d="M 148.5,35.5 C 154.419,35.6122 160.085,36.7788 165.5,39C 172.353,42.0214 177.353,46.8548 180.5,53.5C 176.493,55.2929 172.493,57.2929 168.5,59.5C 168.167,59.5 167.833,59.5 167.5,59.5C 164.702,60.1 162.035,61.1 159.5,62.5C 158.571,63.6888 158.238,65.0222 158.5,66.5C 156.833,68.5 155.167,70.5 153.5,72.5C 149.446,74.4268 145.279,74.7602 141,73.5C 139.699,73.6387 138.866,74.3054 138.5,75.5C 136.927,77.2062 134.927,78.3728 132.5,79C 130.667,82.1667 128.167,84.6667 125,86.5C 124.59,87.9007 124.09,89.234 123.5,90.5C 123.167,90.5 122.833,90.5 122.5,90.5C 118.92,85.4279 116.92,79.7612 116.5,73.5C 116.467,69.1311 116.8,64.7978 117.5,60.5C 117.707,57.7594 118.707,55.4261 120.5,53.5C 126.77,43.0153 136.103,37.0153 148.5,35.5 Z"/></g>
<g><path style="opacity:1" fill="#a4a4a4" d="M 103.5,40.5 C 105.628,39.3709 107.961,39.2042 110.5,40C 111.252,40.6708 111.586,41.5041 111.5,42.5C 109.18,40.7739 106.513,40.1072 103.5,40.5 Z"/></g>
<g><path style="opacity:1" fill="#070707" d="M 103.5,40.5 C 106.513,40.1072 109.18,40.7739 111.5,42.5C 111.822,44.7224 111.155,46.5557 109.5,48C 105.604,50.7753 101.604,53.2753 97.5,55.5C 95.847,55.6596 94.5137,56.3263 93.5,57.5C 90.8206,58.2261 88.154,59.0594 85.5,60C 78.9164,64.6252 71.9164,68.1252 64.5,70.5C 64.0485,66.896 65.0485,63.896 67.5,61.5C 69.9892,61.7022 72.3225,61.2022 74.5,60C 77.3294,57.1727 80.6628,55.1727 84.5,54C 86.9831,51.9174 89.3164,49.7508 91.5,47.5C 92.1667,47.1667 92.8333,46.8333 93.5,46.5C 97.8054,46.0181 101.139,44.0181 103.5,40.5 Z"/></g>
<g><path style="opacity:1" fill="#404040" d="M 103.5,40.5 C 101.139,44.0181 97.8054,46.0181 93.5,46.5C 96.6931,44.3184 100.026,42.3184 103.5,40.5 Z"/></g>
<g><path style="opacity:1" fill="#838383" d="M 147.5,32.5 C 148.404,33.209 148.737,34.209 148.5,35.5C 136.103,37.0153 126.77,43.0153 120.5,53.5C 120.608,51.4862 119.942,49.8195 118.5,48.5C 119.93,48.5792 121.264,48.2458 122.5,47.5C 125.415,44.0413 128.748,41.0413 132.5,38.5C 137.786,36.6257 142.786,34.6257 147.5,32.5 Z"/></g>
<g><path style="opacity:1" fill="#313131" d="M 91.5,47.5 C 89.3164,49.7508 86.9831,51.9174 84.5,54C 80.6628,55.1727 77.3294,57.1727 74.5,60C 72.3225,61.2022 69.9892,61.7022 67.5,61.5C 75.4598,56.8503 83.4598,52.1836 91.5,47.5 Z"/></g>
<g><path style="opacity:1" fill="#a9a9a9" d="M 97.5,55.5 C 96.9653,57.4456 95.632,58.4456 93.5,58.5C 93.5,58.1667 93.5,57.8333 93.5,57.5C 94.5137,56.3263 95.847,55.6596 97.5,55.5 Z"/></g>
<g><path style="opacity:1" fill="#6f6f6f" d="M 180.5,53.5 C 181.167,53.5 181.5,53.8333 181.5,54.5C 180.198,56.0276 178.531,57.0276 176.5,57.5C 173.779,57.9628 171.112,58.6295 168.5,59.5C 172.493,57.2929 176.493,55.2929 180.5,53.5 Z"/></g>
<g><path style="opacity:1" fill="#f7f7f7" d="M 176.5,57.5 C 178.167,57.5 179.833,57.5 181.5,57.5C 180.53,60.6611 178.863,63.4944 176.5,66C 169.946,71.4362 162.946,76.1028 155.5,80C 154.29,81.0391 153.29,82.2058 152.5,83.5C 147.087,84.8055 141.92,86.8055 137,89.5C 132.513,91.2281 128.013,91.5614 123.5,90.5C 124.09,89.234 124.59,87.9007 125,86.5C 128.167,84.6667 130.667,82.1667 132.5,79C 134.927,78.3728 136.927,77.2062 138.5,75.5C 142.514,75.6655 146.514,75.4988 150.5,75C 151.942,74.6232 152.942,73.7899 153.5,72.5C 155.167,70.5 156.833,68.5 158.5,66.5C 159.404,65.791 159.737,64.791 159.5,63.5C 162.754,63.2064 165.421,61.873 167.5,59.5C 167.833,59.5 168.167,59.5 168.5,59.5C 171.112,58.6295 173.779,57.9628 176.5,57.5 Z"/></g>
<g><path style="opacity:1" fill="#b7b7b7" d="M 167.5,59.5 C 165.421,61.873 162.754,63.2064 159.5,63.5C 159.737,64.791 159.404,65.791 158.5,66.5C 158.238,65.0222 158.571,63.6888 159.5,62.5C 162.035,61.1 164.702,60.1 167.5,59.5 Z"/></g>
<g><path style="opacity:1" fill="#939393" d="M 117.5,60.5 C 116.8,64.7978 116.467,69.1311 116.5,73.5C 115.84,72.036 115.507,70.3693 115.5,68.5C 115.382,65.5143 116.048,62.8476 117.5,60.5 Z"/></g>
<g><path style="opacity:1" fill="#202020" d="M 93.5,57.5 C 93.5,57.8333 93.5,58.1667 93.5,58.5C 84.4837,63.1947 75.4837,67.8614 66.5,72.5C 63.1092,72.6044 61.7759,70.9378 62.5,67.5C 61.9853,63.6814 63.652,61.6814 67.5,61.5C 65.0485,63.896 64.0485,66.896 64.5,70.5C 71.9164,68.1252 78.9164,64.6252 85.5,60C 88.154,59.0594 90.8206,58.2261 93.5,57.5 Z"/></g>
<g><path style="opacity:1" fill="#a1a1a1" d="M 181.5,54.5 C 183.924,56.9203 184.091,59.587 182,62.5C 173.381,71.2973 163.548,78.2973 152.5,83.5C 153.29,82.2058 154.29,81.0391 155.5,80C 162.946,76.1028 169.946,71.4362 176.5,66C 178.863,63.4944 180.53,60.6611 181.5,57.5C 179.833,57.5 178.167,57.5 176.5,57.5C 178.531,57.0276 180.198,56.0276 181.5,54.5 Z"/></g>
<g><path style="opacity:1" fill="#9a9a9a" d="M 59.5,71.5 C 56.1328,70.2525 52.7995,70.2525 49.5,71.5C 50.5145,70.2353 52.0145,69.5687 54,69.5C 55.5,69.6667 57,69.8333 58.5,70C 59.056,70.3826 59.3893,70.8826 59.5,71.5 Z"/></g>
<g><path style="opacity:1" fill="#191919" d="M 59.5,71.5 C 59.5,72.1667 59.8333,72.5 60.5,72.5C 60.7989,74.604 60.4656,76.604 59.5,78.5C 58.8243,77.3984 58.1577,76.3984 57.5,75.5C 55.9119,73.3843 53.9119,73.051 51.5,74.5C 50.181,76.5316 50.181,78.5316 51.5,80.5C 53.5598,81.8112 55.7265,81.8112 58,80.5C 58.4643,81.0944 58.631,81.7611 58.5,82.5C 54.2077,85.5268 50.3743,84.8602 47,80.5C 46.3333,78.1667 46.3333,75.8333 47,73.5C 47.7083,72.6195 48.5416,71.9528 49.5,71.5C 52.7995,70.2525 56.1328,70.2525 59.5,71.5 Z"/></g>
<g><path style="opacity:1" fill="#bdbdbd" d="M 153.5,72.5 C 152.942,73.7899 151.942,74.6232 150.5,75C 146.514,75.4988 142.514,75.6655 138.5,75.5C 138.866,74.3054 139.699,73.6387 141,73.5C 145.279,74.7602 149.446,74.4268 153.5,72.5 Z"/></g>
<g><path style="opacity:1" fill="#e4e4e4" d="M 57.5,75.5 C 57.938,79.9083 55.938,81.5749 51.5,80.5C 50.181,78.5316 50.181,76.5316 51.5,74.5C 53.9119,73.051 55.9119,73.3843 57.5,75.5 Z"/></g>
<g><path style="opacity:1" fill="#3e3e3e" d="M 60.5,72.5 C 61.8032,75.3553 61.8032,78.3553 60.5,81.5C 59.8165,81.8627 59.1499,82.1961 58.5,82.5C 58.631,81.7611 58.4643,81.0944 58,80.5C 55.7265,81.8112 53.5598,81.8112 51.5,80.5C 55.938,81.5749 57.938,79.9083 57.5,75.5C 58.1577,76.3984 58.8243,77.3984 59.5,78.5C 60.4656,76.604 60.7989,74.604 60.5,72.5 Z"/></g>
<g><path style="opacity:1" fill="#a0a0a0" d="M 152.5,83.5 C 144.009,90.0498 134.342,92.8831 123.5,92C 122.944,91.6174 122.611,91.1174 122.5,90.5C 122.833,90.5 123.167,90.5 123.5,90.5C 128.013,91.5614 132.513,91.2281 137,89.5C 141.92,86.8055 147.087,84.8055 152.5,83.5 Z"/></g>
<g><path style="opacity:1" fill="#797979" d="M 179.5,81.5 C 186.968,85.5168 193.968,90.3502 200.5,96C 199.5,96.6667 198.5,96.6667 197.5,96C 191.177,91.3684 185.177,86.535 179.5,81.5 Z"/></g>
<g><path style="opacity:1" fill="#070707" d="M 58.5,104.5 C 57.8337,113.204 59.5003,121.537 63.5,129.5C 63.3918,130.442 63.0585,131.275 62.5,132C 63.8817,135.021 64.8817,138.187 65.5,141.5C 66.3092,143.731 67.6425,145.398 69.5,146.5C 69.8333,148.5 70.1667,150.5 70.5,152.5C 70.4095,155.152 71.0762,157.485 72.5,159.5C 72.6107,160.117 72.944,160.617 73.5,161C 81.8249,161.532 89.8249,163.032 97.5,165.5C 99.2504,166.87 101.25,167.87 103.5,168.5C 103.5,169.167 103.833,169.5 104.5,169.5C 105.933,171.558 106.6,173.892 106.5,176.5C 105.972,177.721 105.305,178.887 104.5,180C 99.5678,182.472 94.5678,184.639 89.5,186.5C 76.8784,188.629 64.2117,188.962 51.5,187.5C 50.8333,187.5 50.1667,187.5 49.5,187.5C 49.5299,186.503 49.0299,185.836 48,185.5C 42.855,183.423 37.6883,181.423 32.5,179.5C 31.2485,177.999 30.2485,176.332 29.5,174.5C 30.7472,172.677 31.4139,170.677 31.5,168.5C 31.5,168.167 31.5,167.833 31.5,167.5C 36.0671,166.057 40.7338,164.89 45.5,164C 46.056,163.617 46.3893,163.117 46.5,162.5C 49.2062,162.425 51.8728,162.092 54.5,161.5C 56.8333,161.5 59.1667,161.5 61.5,161.5C 61.7845,159.585 61.4511,157.919 60.5,156.5C 60.2041,154.597 59.5375,152.93 58.5,151.5C 57.6872,143.28 56.0205,135.28 53.5,127.5C 53.5905,124.848 52.9238,122.515 51.5,120.5C 50.4361,114.325 49.1028,108.325 47.5,102.5C 47.2529,99.0613 47.5863,95.728 48.5,92.5C 51.2672,91.0677 53.9338,91.401 56.5,93.5C 57.4898,97.1051 58.1564,100.772 58.5,104.5 Z"/></g>
<g><path style="opacity:1" fill="#404040" d="M 48.5,92.5 C 47.5863,95.728 47.2529,99.0613 47.5,102.5C 46.545,100.717 45.8783,98.7165 45.5,96.5C 45.5613,94.3472 46.5613,93.0138 48.5,92.5 Z"/></g>
<g><path style="opacity:1" fill="#7d7d7d" d="M 167.5,98.5 C 170.356,100.953 172.689,103.953 174.5,107.5C 176.912,112.659 179.579,117.659 182.5,122.5C 182.167,122.833 181.833,123.167 181.5,123.5C 176.03,115.554 171.363,107.22 167.5,98.5 Z"/></g>
<g><path style="opacity:1" fill="#bababa" d="M 47.5,102.5 C 49.1028,108.325 50.4361,114.325 51.5,120.5C 48.6159,114.953 47.2826,108.953 47.5,102.5 Z"/></g>
<g><path style="opacity:1" fill="#1f1f1f" d="M 58.5,104.5 C 59.4098,106.019 60.2432,107.685 61,109.5C 62.1074,115.868 63.2741,122.202 64.5,128.5C 64.7571,132.171 65.7571,135.505 67.5,138.5C 68.2549,141.053 68.9216,143.72 69.5,146.5C 67.6425,145.398 66.3092,143.731 65.5,141.5C 64.8817,138.187 63.8817,135.021 62.5,132C 63.0585,131.275 63.3918,130.442 63.5,129.5C 59.5003,121.537 57.8337,113.204 58.5,104.5 Z"/></g>
<g><path style="opacity:1" fill="#8b8b8b" d="M 144.5,103.5 C 145.693,103.97 146.36,104.97 146.5,106.5C 145.305,116.146 144.305,125.813 143.5,135.5C 143.167,133.167 142.833,130.833 142.5,128.5C 143.167,120.161 143.834,111.827 144.5,103.5 Z"/></g>
<g><path style="opacity:1" fill="#717171" d="M 51.5,120.5 C 52.9238,122.515 53.5905,124.848 53.5,127.5C 52.0762,125.485 51.4095,123.152 51.5,120.5 Z"/></g>
<g><path style="opacity:1" fill="#5a5a5a" d="M 64.5,128.5 C 65.1174,128.611 65.6174,128.944 66,129.5C 66.696,132.478 67.196,135.478 67.5,138.5C 65.7571,135.505 64.7571,132.171 64.5,128.5 Z"/></g>
<g><path style="opacity:1" fill="#b7b7b7" d="M 58.5,151.5 C 59.5375,152.93 60.2041,154.597 60.5,156.5C 60.5,157.833 60.5,159.167 60.5,160.5C 58.2646,160.205 56.2646,160.539 54.5,161.5C 51.8728,162.092 49.2062,162.425 46.5,162.5C 50.4742,160.425 54.8075,159.425 59.5,159.5C 59.1667,156.833 58.8333,154.167 58.5,151.5 Z"/></g>
<g><path style="opacity:1" fill="#535353" d="M 70.5,152.5 C 71.9238,154.515 72.5905,156.848 72.5,159.5C 71.0762,157.485 70.4095,155.152 70.5,152.5 Z"/></g>
<g><path style="opacity:1" fill="#646464" d="M 60.5,156.5 C 61.4511,157.919 61.7845,159.585 61.5,161.5C 59.1667,161.5 56.8333,161.5 54.5,161.5C 56.2646,160.539 58.2646,160.205 60.5,160.5C 60.5,159.167 60.5,157.833 60.5,156.5 Z"/></g>
<g><path style="opacity:1" fill="#4c4c4c" d="M 46.5,162.5 C 46.3893,163.117 46.056,163.617 45.5,164C 40.7338,164.89 36.0671,166.057 31.5,167.5C 35.9472,164.466 40.9472,162.799 46.5,162.5 Z"/></g>
<g><path style="opacity:1" fill="#a6a6a6" d="M 97.5,165.5 C 100.393,165.031 102.393,166.031 103.5,168.5C 101.25,167.87 99.2504,166.87 97.5,165.5 Z"/></g>
<g><path style="opacity:1" fill="#7f7f7f" d="M 104.5,169.5 C 107.449,171.265 108.115,173.598 106.5,176.5C 106.6,173.892 105.933,171.558 104.5,169.5 Z"/></g>
<g><path style="opacity:1" fill="#222222" d="M 31.5,168.5 C 31.4139,170.677 30.7472,172.677 29.5,174.5C 30.2485,176.332 31.2485,177.999 32.5,179.5C 37.6883,181.423 42.855,183.423 48,185.5C 49.0299,185.836 49.5299,186.503 49.5,187.5C 41.1213,187.286 33.9546,184.286 28,178.5C 25.5188,173.809 26.6854,170.476 31.5,168.5 Z"/></g>
<g><path style="opacity:1" fill="#b2b2b2" d="M 89.5,186.5 C 87.9812,187.41 86.3146,188.243 84.5,189C 79,189.167 73.5,189.333 68,189.5C 62.1238,189.495 56.6238,188.829 51.5,187.5C 64.2117,188.962 76.8784,188.629 89.5,186.5 Z"/></g>
</svg>
