<?xml version="1.0" encoding="UTF-8"?>
<!DOCTYPE svg PUBLIC "-//W3C//DTD SVG 1.1//EN" "http://www.w3.org/Graphics/SVG/1.1/DTD/svg11.dtd">
<svg xmlns="http://www.w3.org/2000/svg" version="1.1" width="214px" height="230px" style="shape-rendering:geometricPrecision; text-rendering:geometricPrecision; image-rendering:optimizeQuality; fill-rule:evenodd; clip-rule:evenodd" xmlns:xlink="http://www.w3.org/1999/xlink">
<g><path style="opacity:1" fill="#fdfdfd" d="M -0.5,-0.5 C 70.8333,-0.5 142.167,-0.5 213.5,-0.5C 213.5,76.1667 213.5,152.833 213.5,229.5C 142.167,229.5 70.8333,229.5 -0.5,229.5C -0.5,152.833 -0.5,76.1667 -0.5,-0.5 Z"/></g>
<g><path style="opacity:1" fill="#0b0b0d" d="M 198.5,58.5 C 198.5,107.5 198.5,156.5 198.5,205.5C 197.5,205.5 196.5,205.5 195.5,205.5C 195.832,157.664 195.499,109.997 194.5,62.5C 192.74,50.0725 185.74,42.4058 173.5,39.5C 167.021,38.5093 160.354,38.176 153.5,38.5C 153.5,43.5 153.5,48.5 153.5,53.5C 153.196,54.1499 152.863,54.8165 152.5,55.5C 136.844,56.6662 121.177,56.8329 105.5,56C 103.703,54.4059 102.703,52.4059 102.5,50C 107.188,38.2533 113.188,27.2533 120.5,17C 130.6,16.0513 140.6,16.3846 150.5,18C 151,18.5 151.5,19 152,19.5C 152.499,24.1548 152.666,28.8215 152.5,33.5C 169.08,30.5454 182.913,35.212 194,47.5C 196.074,50.975 197.574,54.6417 198.5,58.5 Z"/></g>
<g><path style="opacity:1" fill="#8c8c8e" d="M 173.5,39.5 C 167.167,39.5 160.833,39.5 154.5,39.5C 154.819,44.3633 154.486,49.03 153.5,53.5C 153.5,48.5 153.5,43.5 153.5,38.5C 160.354,38.176 167.021,38.5093 173.5,39.5 Z"/></g>
<g><path style="opacity:1" fill="#5f5f61" d="M 198.5,58.5 C 199.499,107.664 199.832,156.997 199.5,206.5C 197.833,206.5 196.167,206.5 194.5,206.5C 194.5,158.5 194.5,110.5 194.5,62.5C 195.499,109.997 195.832,157.664 195.5,205.5C 196.5,205.5 197.5,205.5 198.5,205.5C 198.5,156.5 198.5,107.5 198.5,58.5 Z"/></g>
<g><path style="opacity:1" fill="#040507" d="M 46.5,104.5 C 75.8352,104.333 105.169,104.5 134.5,105C 138.275,106.442 141.108,108.942 143,112.5C 143.5,123.828 143.667,135.162 143.5,146.5C 135.426,148.07 129.926,152.737 127,160.5C 126.501,165.489 126.334,170.489 126.5,175.5C 102.489,175.7 78.4885,175.366 54.5,174.5C 55.9016,164.004 52.9016,155.171 45.5,148C 43.2537,146.961 41.087,145.794 39,144.5C 38.3333,133.833 38.3333,123.167 39,112.5C 41.0282,109.308 43.5282,106.641 46.5,104.5 Z"/></g>
<g><path style="opacity:1" fill="#07080a" d="M 27.5,151.5 C 39.1625,149.397 45.9959,154.064 48,165.5C 48.4993,170.489 48.6659,175.489 48.5,180.5C 76.8245,181.345 105.158,181.679 133.5,181.5C 133.334,174.825 133.5,168.158 134,161.5C 139.795,152.219 147.628,150.052 157.5,155C 161.9,159.139 163.567,164.306 162.5,170.5C 162.166,177.512 161.666,184.512 161,191.5C 158.076,198.758 152.909,203.592 145.5,206C 109.167,206.667 72.8333,206.667 36.5,206C 29.5993,203.432 25.0993,198.598 23,191.5C 22.3333,179.833 22.3333,168.167 23,156.5C 24.517,154.76 26.017,153.094 27.5,151.5 Z"/></g>
</svg>
