<?xml version="1.0" encoding="UTF-8"?>
<!DOCTYPE svg PUBLIC "-//W3C//DTD SVG 1.1//EN" "http://www.w3.org/Graphics/SVG/1.1/DTD/svg11.dtd">
<svg xmlns="http://www.w3.org/2000/svg" version="1.1" width="492px" height="280px" style="shape-rendering:geometricPrecision; text-rendering:geometricPrecision; image-rendering:optimizeQuality; fill-rule:evenodd; clip-rule:evenodd" xmlns:xlink="http://www.w3.org/1999/xlink">
<g><path style="opacity:1" fill="#fefefe" d="M -0.5,-0.5 C 163.5,-0.5 327.5,-0.5 491.5,-0.5C 491.5,92.8333 491.5,186.167 491.5,279.5C 327.5,279.5 163.5,279.5 -0.5,279.5C -0.5,186.167 -0.5,92.8333 -0.5,-0.5 Z"/></g>
<g><path style="opacity:1" fill="#1a1a1a" d="M 378.5,105.5 C 377.542,105.953 376.708,106.619 376,107.5C 375.329,106.748 374.496,106.414 373.5,106.5C 373.167,106.5 372.833,106.5 372.5,106.5C 365.656,105.181 358.656,105.181 351.5,106.5C 351.624,107.107 351.957,107.44 352.5,107.5C 351.683,109.308 352.35,110.808 354.5,112C 353.181,112.195 351.847,112.028 350.5,111.5C 346.493,108.997 342.16,107.33 337.5,106.5C 341.205,112.964 343.538,119.964 344.5,127.5C 344.662,129.527 344.495,131.527 344,133.5C 343.503,131.19 343.337,128.857 343.5,126.5C 342.5,126.5 341.5,126.5 340.5,126.5C 339.826,123.474 338.993,120.474 338,117.5C 336.324,113.473 334.158,109.806 331.5,106.5C 328.854,105.836 326.021,105.502 323,105.5C 319.748,105.519 316.915,106.186 314.5,107.5C 316.078,109.375 315.745,110.708 313.5,111.5C 310.784,109.533 307.784,108.033 304.5,107C 270.5,106.333 236.5,106.333 202.5,107C 200.593,108.122 198.593,108.955 196.5,109.5C 195.061,108.491 193.728,108.824 192.5,110.5C 191.913,109.767 191.913,108.767 192.5,107.5C 186.654,106.183 180.654,106.183 174.5,107.5C 173.965,109.261 172.965,110.594 171.5,111.5C 171.626,109.721 171.292,107.721 170.5,105.5C 168.265,105.205 166.265,105.539 164.5,106.5C 161.794,106.575 159.127,106.908 156.5,107.5C 154.044,107.289 151.711,107.289 149.5,107.5C 146.232,106.178 142.565,105.511 138.5,105.5C 134.651,105.501 130.984,105.835 127.5,106.5C 126.5,106.833 125.833,107.5 125.5,108.5C 124.5,108.5 123.5,108.5 122.5,108.5C 122.737,107.209 122.404,106.209 121.5,105.5C 113.852,104.864 110.852,100.864 112.5,93.5C 107.544,92.5059 102.544,92.1725 97.5,92.5C 97.5,83.5 97.5,74.5 97.5,65.5C 201.167,65.5 304.833,65.5 408.5,65.5C 408.5,74.5 408.5,83.5 408.5,92.5C 403.167,92.5 397.833,92.5 392.5,92.5C 393.546,102.68 388.88,107.013 378.5,105.5 Z"/></g>
<g><path style="opacity:1" fill="#cecece" d="M 404.5,87.5 C 303.5,87.5 202.5,87.5 101.5,87.5C 101.5,81.8333 101.5,76.1667 101.5,70.5C 202.5,70.5 303.5,70.5 404.5,70.5C 404.5,76.1667 404.5,81.8333 404.5,87.5 Z"/></g>
<g><path style="opacity:1" fill="#fefefe" d="M 102.5,71.5 C 202.833,71.5 303.167,71.5 403.5,71.5C 403.5,76.5 403.5,81.5 403.5,86.5C 303.167,86.5 202.833,86.5 102.5,86.5C 102.5,81.5 102.5,76.5 102.5,71.5 Z"/></g>
<g><path style="opacity:1" fill="#222222" d="M 101.5,87.5 C 202.5,87.5 303.5,87.5 404.5,87.5C 404.389,88.1174 404.056,88.6174 403.5,89C 353.167,89.1667 302.833,89.3333 252.5,89.5C 201.829,89.4999 151.496,88.8333 101.5,87.5 Z"/></g>
<g><path style="opacity:1" fill="#f3f3f3" d="M 120.5,92.5 C 208.501,92.3333 296.501,92.5 384.5,93C 390.11,96.8665 389.443,99.5332 382.5,101C 294.833,101.667 207.167,101.667 119.5,101C 117.487,100.32 116.154,98.987 115.5,97C 116.761,95.0382 118.428,93.5382 120.5,92.5 Z"/></g>
<g><path style="opacity:1" fill="#646464" d="M 127.5,106.5 C 130.984,105.835 134.651,105.501 138.5,105.5C 142.565,105.511 146.232,106.178 149.5,107.5C 149.167,107.5 148.833,107.5 148.5,107.5C 141.687,106.509 134.687,106.175 127.5,106.5 Z"/></g>
<g><path style="opacity:1" fill="#696969" d="M 331.5,106.5 C 325.974,106.179 320.64,106.512 315.5,107.5C 315.167,107.5 314.833,107.5 314.5,107.5C 316.915,106.186 319.748,105.519 323,105.5C 326.021,105.502 328.854,105.836 331.5,106.5 Z"/></g>
<g><path style="opacity:1" fill="#6b6b6b" d="M 372.5,106.5 C 365.646,106.176 358.979,106.509 352.5,107.5C 351.957,107.44 351.624,107.107 351.5,106.5C 358.656,105.181 365.656,105.181 372.5,106.5 Z"/></g>
<g><path style="opacity:1" fill="#f2f2f2" d="M 192.5,107.5 C 185.228,113.027 180.728,120.36 179,129.5C 178.333,135.833 178.333,142.167 179,148.5C 183.661,161.47 185.328,174.803 184,188.5C 181.725,194.219 178.558,199.385 174.5,204C 170.851,206.91 167.185,207.076 163.5,204.5C 165.783,201.697 168.45,199.364 171.5,197.5C 173.48,196.152 174.647,194.152 175,191.5C 175.818,185.651 175.652,179.985 174.5,174.5C 173.08,164.236 170.58,154.236 167,144.5C 166.333,138.5 166.333,132.5 167,126.5C 168.515,121.479 170.015,116.479 171.5,111.5C 172.965,110.594 173.965,109.261 174.5,107.5C 180.654,106.183 186.654,106.183 192.5,107.5 Z"/></g>
<g><path style="opacity:1" fill="#f4f4f4" d="M 315.5,107.5 C 320.64,106.512 325.974,106.179 331.5,106.5C 334.158,109.806 336.324,113.473 338,117.5C 338.993,120.474 339.826,123.474 340.5,126.5C 341.559,131.448 341.726,136.448 341,141.5C 338.236,149.689 336.069,158.023 334.5,166.5C 331.787,173.349 331.12,180.349 332.5,187.5C 333.218,194.56 336.718,199.56 343,202.5C 343.684,203.784 343.517,204.951 342.5,206C 339.697,206.755 337.03,206.422 334.5,205C 330.131,201.739 327.131,197.573 325.5,192.5C 324.306,182.179 324.306,171.845 325.5,161.5C 332.035,143.844 330.202,127.178 320,111.5C 318.629,109.959 317.129,108.625 315.5,107.5 Z"/></g>
<g><path style="opacity:1" fill="#f3f3f3" d="M 352.5,107.5 C 358.979,106.509 365.646,106.176 372.5,106.5C 372.833,106.5 373.167,106.5 373.5,106.5C 383.141,120.735 386.641,136.401 384,153.5C 378.76,168.794 375.26,184.46 373.5,200.5C 373.884,205.703 375.051,210.703 377,215.5C 380.466,219.456 383.966,223.289 387.5,227C 381.739,230.797 376.572,229.964 372,224.5C 363.982,213.762 360.982,201.762 363,188.5C 364.207,178.672 366.207,169.005 369,159.5C 371.471,144.639 369.138,130.639 362,117.5C 359.332,113.666 356.165,110.333 352.5,107.5 Z"/></g>
<g><path style="opacity:1" fill="#1d1d1d" d="M 378.5,105.5 C 380.783,110.398 382.783,115.398 384.5,120.5C 385.591,123.349 385.591,126.182 384.5,129C 384.944,130.762 385.444,130.595 386,128.5C 387.356,136.095 387.856,143.762 387.5,151.5C 385.905,161.702 383.405,171.702 380,181.5C 376.851,191.547 376.851,201.547 380,211.5C 381,213.167 382,214.833 383,216.5C 390.336,219.656 392.502,224.823 389.5,232C 381.402,236.319 374.569,234.819 369,227.5C 359.438,213.132 356.438,197.466 360,180.5C 361.667,173.167 363.333,165.833 365,158.5C 366.889,145.95 365.222,133.95 360,122.5C 357.686,118.025 354.52,114.358 350.5,111.5C 351.847,112.028 353.181,112.195 354.5,112C 352.35,110.808 351.683,109.308 352.5,107.5C 356.165,110.333 359.332,113.666 362,117.5C 369.138,130.639 371.471,144.639 369,159.5C 366.207,169.005 364.207,178.672 363,188.5C 360.982,201.762 363.982,213.762 372,224.5C 376.572,229.964 381.739,230.797 387.5,227C 383.966,223.289 380.466,219.456 377,215.5C 375.051,210.703 373.884,205.703 373.5,200.5C 375.26,184.46 378.76,168.794 384,153.5C 386.641,136.401 383.141,120.735 373.5,106.5C 374.496,106.414 375.329,106.748 376,107.5C 376.708,106.619 377.542,105.953 378.5,105.5 Z"/></g>
<g><path style="opacity:1" fill="#585858" d="M 384.5,120.5 C 386.095,123.557 387.262,126.89 388,130.5C 388.821,137.679 388.655,144.679 387.5,151.5C 387.856,143.762 387.356,136.095 386,128.5C 385.444,130.595 384.944,130.762 384.5,129C 385.591,126.182 385.591,123.349 384.5,120.5 Z"/></g>
<g><path style="opacity:1" fill="#1b1b1b" d="M 164.5,106.5 C 166.265,105.539 168.265,105.205 170.5,105.5C 171.292,107.721 171.626,109.721 171.5,111.5C 170.015,116.479 168.515,121.479 167,126.5C 166.333,132.5 166.333,138.5 167,144.5C 170.58,154.236 173.08,164.236 174.5,174.5C 175.195,182.451 174.195,190.118 171.5,197.5C 168.45,199.364 165.783,201.697 163.5,204.5C 167.185,207.076 170.851,206.91 174.5,204C 178.558,199.385 181.725,194.219 184,188.5C 185.328,174.803 183.661,161.47 179,148.5C 178.333,142.167 178.333,135.833 179,129.5C 180.728,120.36 185.228,113.027 192.5,107.5C 191.913,108.767 191.913,109.767 192.5,110.5C 193.728,108.824 195.061,108.491 196.5,109.5C 188.976,114.882 184.476,122.215 183,131.5C 182.333,137.167 182.333,142.833 183,148.5C 184.487,153.779 185.653,159.112 186.5,164.5C 187.302,171.804 187.635,179.138 187.5,186.5C 186.242,195.422 182.242,202.922 175.5,209C 169.865,212.668 164.699,212.168 160,207.5C 159.333,205.5 159.333,203.5 160,201.5C 162.023,198.48 164.69,196.146 168,194.5C 172.448,184.535 172.615,174.535 168.5,164.5C 167.61,158.834 165.943,153.5 163.5,148.5C 160.623,134.055 162.623,120.389 169.5,107.5C 167.955,106.548 166.288,106.215 164.5,106.5 Z"/></g>
<g><path style="opacity:1" fill="#acacac" d="M 163.5,148.5 C 165.943,153.5 167.61,158.834 168.5,164.5C 166.057,159.5 164.39,154.166 163.5,148.5 Z"/></g>
<g><path style="opacity:1" fill="#9e9e9e" d="M 340.5,159.5 C 340.59,162.152 339.924,164.485 338.5,166.5C 338.41,163.848 339.076,161.515 340.5,159.5 Z"/></g>
<g><path style="opacity:1" fill="#8b8b8b" d="M 117.5,171.5 C 118.924,173.515 119.59,175.848 119.5,178.5C 117.837,176.562 117.171,174.228 117.5,171.5 Z"/></g>
<g><path style="opacity:1" fill="#7b7b7b" d="M 186.5,164.5 C 188.017,168.56 188.684,172.893 188.5,177.5C 188.498,180.686 188.165,183.686 187.5,186.5C 187.635,179.138 187.302,171.804 186.5,164.5 Z"/></g>
<g><path style="opacity:1" fill="#9e9e9e" d="M 174.5,174.5 C 175.652,179.985 175.818,185.651 175,191.5C 174.647,194.152 173.48,196.152 171.5,197.5C 174.195,190.118 175.195,182.451 174.5,174.5 Z"/></g>
<g><path style="opacity:1" fill="#1d1d1d" d="M 314.5,107.5 C 314.833,107.5 315.167,107.5 315.5,107.5C 317.129,108.625 318.629,109.959 320,111.5C 330.202,127.178 332.035,143.844 325.5,161.5C 323.772,167.243 322.772,173.243 322.5,179.5C 322.427,184.199 323.427,188.533 325.5,192.5C 327.131,197.573 330.131,201.739 334.5,205C 337.03,206.422 339.697,206.755 342.5,206C 343.517,204.951 343.684,203.784 343,202.5C 336.718,199.56 333.218,194.56 332.5,187.5C 332.621,180.443 333.288,173.443 334.5,166.5C 336.069,158.023 338.236,149.689 341,141.5C 341.726,136.448 341.559,131.448 340.5,126.5C 341.5,126.5 342.5,126.5 343.5,126.5C 343.337,128.857 343.503,131.19 344,133.5C 344.495,131.527 344.662,129.527 344.5,127.5C 345.65,132.316 345.816,137.316 345,142.5C 343.185,148.106 341.685,153.773 340.5,159.5C 339.076,161.515 338.41,163.848 338.5,166.5C 336.495,174.631 336.161,182.964 337.5,191.5C 339.522,195.688 342.689,198.688 347,200.5C 349.48,207.884 346.646,211.551 338.5,211.5C 330.271,209.106 324.771,203.773 322,195.5C 318.056,179.241 319.056,163.241 325,147.5C 326.832,133.501 322.999,121.501 313.5,111.5C 315.745,110.708 316.078,109.375 314.5,107.5 Z"/></g>
<g><path style="opacity:1" fill="#939393" d="M 334.5,166.5 C 333.288,173.443 332.621,180.443 332.5,187.5C 331.12,180.349 331.787,173.349 334.5,166.5 Z"/></g>
<g><path style="opacity:1" fill="#c3c3c3" d="M 325.5,161.5 C 324.306,171.845 324.306,182.179 325.5,192.5C 323.427,188.533 322.427,184.199 322.5,179.5C 322.772,173.243 323.772,167.243 325.5,161.5 Z"/></g>
<g><path style="opacity:1" fill="#1f1f1f" d="M 121.5,105.5 C 122.404,106.209 122.737,107.209 122.5,108.5C 123.5,108.5 124.5,108.5 125.5,108.5C 117.103,122.425 114.27,137.425 117,153.5C 120.49,165.128 123.49,176.795 126,188.5C 127.185,198.534 125.852,208.201 122,217.5C 118.505,220.162 115.338,223.162 112.5,226.5C 113.55,228.873 115.383,229.873 118,229.5C 123.959,228.879 128.292,225.879 131,220.5C 138.291,204.532 139.457,188.199 134.5,171.5C 134.59,168.848 133.924,166.515 132.5,164.5C 128.834,148.159 130.668,132.492 138,117.5C 140.711,113.288 144.211,109.954 148.5,107.5C 148.833,107.5 149.167,107.5 149.5,107.5C 151.711,107.289 154.044,107.289 156.5,107.5C 143.639,114.218 136.473,124.885 135,139.5C 134.333,145.5 134.333,151.5 135,157.5C 140.378,173.43 142.378,189.764 141,206.5C 138.72,215.895 134.22,224.061 127.5,231C 123.315,234.109 118.648,235.109 113.5,234C 109.139,231.774 107.639,228.274 109,223.5C 112.624,219.842 116.291,216.175 120,212.5C 122.295,206.003 122.961,199.336 122,192.5C 121.163,187.82 120.329,183.154 119.5,178.5C 119.59,175.848 118.924,173.515 117.5,171.5C 115.829,164.482 113.995,157.482 112,150.5C 111.205,134.679 114.371,119.679 121.5,105.5 Z"/></g>
<g><path style="opacity:1" fill="#8b8b8b" d="M 132.5,164.5 C 133.924,166.515 134.59,168.848 134.5,171.5C 133.076,169.485 132.41,167.152 132.5,164.5 Z"/></g>
<g><path style="opacity:1" fill="#f3f3f3" d="M 127.5,106.5 C 134.687,106.175 141.687,106.509 148.5,107.5C 144.211,109.954 140.711,113.288 138,117.5C 130.668,132.492 128.834,148.159 132.5,164.5C 132.41,167.152 133.076,169.485 134.5,171.5C 139.457,188.199 138.291,204.532 131,220.5C 128.292,225.879 123.959,228.879 118,229.5C 115.383,229.873 113.55,228.873 112.5,226.5C 115.338,223.162 118.505,220.162 122,217.5C 125.852,208.201 127.185,198.534 126,188.5C 123.49,176.795 120.49,165.128 117,153.5C 114.27,137.425 117.103,122.425 125.5,108.5C 125.833,107.5 126.5,106.833 127.5,106.5 Z"/></g>
</svg>
