<?xml version="1.0" encoding="UTF-8"?>
<!DOCTYPE svg PUBLIC "-//W3C//DTD SVG 1.1//EN" "http://www.w3.org/Graphics/SVG/1.1/DTD/svg11.dtd">
<svg xmlns="http://www.w3.org/2000/svg" version="1.1" width="250px" height="192px" style="shape-rendering:geometricPrecision; text-rendering:geometricPrecision; image-rendering:optimizeQuality; fill-rule:evenodd; clip-rule:evenodd" xmlns:xlink="http://www.w3.org/1999/xlink">
<g><path style="opacity:1" fill="#fefefe" d="M -0.5,-0.5 C 82.8333,-0.5 166.167,-0.5 249.5,-0.5C 249.5,63.5 249.5,127.5 249.5,191.5C 166.167,191.5 82.8333,191.5 -0.5,191.5C -0.5,127.5 -0.5,63.5 -0.5,-0.5 Z"/></g>
<g><path style="opacity:1" fill="#121212" d="M 78.5,3.5 C 108.502,3.33335 138.502,3.50002 168.5,4C 171.196,4.68979 173.363,6.18979 175,8.5C 176.147,20.0741 176.647,31.7408 176.5,43.5C 176.333,54.5 176.167,65.5 176,76.5C 175.214,79.5827 173.381,81.7494 170.5,83C 159.172,83.4999 147.838,83.6665 136.5,83.5C 136.5,85.5 136.5,87.5 136.5,89.5C 160.502,89.3334 184.502,89.5 208.5,90C 211.625,90.9794 214.125,92.8127 216,95.5C 216.667,114.167 216.667,132.833 216,151.5C 214.333,153.167 212.667,154.833 211,156.5C 210.667,162.167 210.333,167.833 210,173.5C 209.5,174 209,174.5 208.5,175C 203.113,175.784 197.78,175.618 192.5,174.5C 191.505,168.872 191.171,163.206 191.5,157.5C 146.5,157.5 101.5,157.5 56.5,157.5C 56.8082,163.425 56.4749,169.259 55.5,175C 50.1667,175.667 44.8333,175.667 39.5,175C 39,174.5 38.5,174 38,173.5C 37.6667,167.833 37.3333,162.167 37,156.5C 34.5971,154.695 32.9305,152.362 32,149.5C 31.0269,131.076 31.3602,112.743 33,94.5C 34.5,93 36,91.5 37.5,90C 62.1644,89.5 86.8311,89.3334 111.5,89.5C 111.5,87.5 111.5,85.5 111.5,83.5C 100.162,83.6665 88.8284,83.4999 77.5,83C 74.6193,81.7494 72.786,79.5827 72,76.5C 71.3333,54.1667 71.3333,31.8333 72,9.5C 74.0627,7.26589 76.2294,5.26589 78.5,3.5 Z"/></g>
<g><path style="opacity:1" fill="#eaeaea" d="M 79.5,9.5 C 109.169,9.33335 138.835,9.50002 168.5,10C 169,10.5 169.5,11 170,11.5C 170.667,32.8333 170.667,54.1667 170,75.5C 169.5,76 169,76.5 168.5,77C 138.833,77.6667 109.167,77.6667 79.5,77C 79,76.5 78.5,76 78,75.5C 77.3333,54.1667 77.3333,32.8333 78,11.5C 78.7172,10.9558 79.2172,10.2891 79.5,9.5 Z"/></g>
<g><path style="opacity:1" fill="#111111" d="M 85.5,16.5 C 111.5,16.5 137.5,16.5 163.5,16.5C 163.667,34.5031 163.5,52.5031 163,70.5C 150.073,71.1622 137.073,71.4955 124,71.5C 110.927,71.4955 97.9267,71.1622 85,70.5C 84.1812,52.4264 84.3479,34.4264 85.5,16.5 Z"/></g>
<g><path style="opacity:1" fill="#8a8a8a" d="M 90.5,22.5 C 90.5,36.5 90.5,50.5 90.5,64.5C 112.833,64.5 135.167,64.5 157.5,64.5C 157.5,50.5 157.5,36.5 157.5,22.5C 158.496,36.6569 158.829,50.9903 158.5,65.5C 135.5,65.5 112.5,65.5 89.5,65.5C 89.1707,50.9903 89.5041,36.6569 90.5,22.5 Z"/></g>
<g><path style="opacity:1" fill="#fefefe" d="M 90.5,22.5 C 112.833,22.5 135.167,22.5 157.5,22.5C 157.5,36.5 157.5,50.5 157.5,64.5C 135.167,64.5 112.833,64.5 90.5,64.5C 90.5,50.5 90.5,36.5 90.5,22.5 Z"/></g>
<g><path style="opacity:1" fill="#141414" d="M 96.5,28.5 C 98.5,28.5 100.5,28.5 102.5,28.5C 102.5,30.5 102.5,32.5 102.5,34.5C 100.5,34.5 98.5,34.5 96.5,34.5C 96.5,32.5 96.5,30.5 96.5,28.5 Z"/></g>
<g><path style="opacity:1" fill="#f0f0f0" d="M 117.5,83.5 C 121.833,83.5 126.167,83.5 130.5,83.5C 130.5,85.5 130.5,87.5 130.5,89.5C 126.167,89.5 121.833,89.5 117.5,89.5C 117.5,87.5 117.5,85.5 117.5,83.5 Z"/></g>
<g><path style="opacity:1" fill="#fefefe" d="M 39.5,96.5 C 66.5,96.5 93.5,96.5 120.5,96.5C 120.5,100.167 120.5,103.833 120.5,107.5C 93.1667,107.5 65.8333,107.5 38.5,107.5C 38.5,104.167 38.5,100.833 38.5,97.5C 38.5,96.8333 38.8333,96.5 39.5,96.5 Z"/></g>
<g><path style="opacity:1" fill="#fefefe" d="M 208.5,96.5 C 209.167,96.5 209.5,96.8333 209.5,97.5C 209.5,100.833 209.5,104.167 209.5,107.5C 182.167,107.5 154.833,107.5 127.5,107.5C 127.5,103.833 127.5,100.167 127.5,96.5C 154.5,96.5 181.5,96.5 208.5,96.5 Z"/></g>
<g><path style="opacity:1" fill="#999999" d="M 39.5,96.5 C 66.6616,95.5021 93.9949,95.1688 121.5,95.5C 121.5,99.8333 121.5,104.167 121.5,108.5C 93.5,108.5 65.5,108.5 37.5,108.5C 37.185,104.629 37.5184,100.962 38.5,97.5C 38.5,100.833 38.5,104.167 38.5,107.5C 65.8333,107.5 93.1667,107.5 120.5,107.5C 120.5,103.833 120.5,100.167 120.5,96.5C 93.5,96.5 66.5,96.5 39.5,96.5 Z"/></g>
<g><path style="opacity:1" fill="#989898" d="M 208.5,96.5 C 181.5,96.5 154.5,96.5 127.5,96.5C 127.5,100.167 127.5,103.833 127.5,107.5C 154.833,107.5 182.167,107.5 209.5,107.5C 209.5,104.167 209.5,100.833 209.5,97.5C 210.482,100.962 210.815,104.629 210.5,108.5C 182.5,108.5 154.5,108.5 126.5,108.5C 126.5,104.167 126.5,99.8333 126.5,95.5C 154.005,95.1688 181.338,95.5021 208.5,96.5 Z"/></g>
<g><path style="opacity:1" fill="#808080" d="M 121.5,114.5 C 121.167,114.5 120.833,114.5 120.5,114.5C 93.1667,114.5 65.8333,114.5 38.5,114.5C 38.5,126.167 38.5,137.833 38.5,149.5C 37.5049,137.678 37.1716,125.678 37.5,113.5C 65.6716,113.169 93.6716,113.502 121.5,114.5 Z"/></g>
<g><path style="opacity:1" fill="#fdfdfd" d="M 120.5,114.5 C 120.5,126.5 120.5,138.5 120.5,150.5C 93.5,150.5 66.5,150.5 39.5,150.5C 38.8333,150.5 38.5,150.167 38.5,149.5C 38.5,137.833 38.5,126.167 38.5,114.5C 65.8333,114.5 93.1667,114.5 120.5,114.5 Z"/></g>
<g><path style="opacity:1" fill="#fdfdfd" d="M 127.5,114.5 C 154.833,114.5 182.167,114.5 209.5,114.5C 209.5,126.167 209.5,137.833 209.5,149.5C 209.5,150.167 209.167,150.5 208.5,150.5C 181.5,150.5 154.5,150.5 127.5,150.5C 127.5,138.5 127.5,126.5 127.5,114.5 Z"/></g>
<g><path style="opacity:1" fill="#999999" d="M 127.5,114.5 C 154.995,113.502 182.662,113.169 210.5,113.5C 210.828,125.678 210.495,137.678 209.5,149.5C 209.5,137.833 209.5,126.167 209.5,114.5C 182.167,114.5 154.833,114.5 127.5,114.5 Z"/></g>
<g><path style="opacity:1" fill="#626262" d="M 114.5,130.5 C 112.833,130.5 111.167,130.5 109.5,130.5C 109.5,132.167 109.5,133.833 109.5,135.5C 108.539,133.735 108.205,131.735 108.5,129.5C 110.735,129.205 112.735,129.539 114.5,130.5 Z"/></g>
<g><path style="opacity:1" fill="#111111" d="M 114.5,130.5 C 114.5,132.167 114.5,133.833 114.5,135.5C 112.833,135.5 111.167,135.5 109.5,135.5C 109.5,133.833 109.5,132.167 109.5,130.5C 111.167,130.5 112.833,130.5 114.5,130.5 Z"/></g>
<g><path style="opacity:1" fill="#1b1b1b" d="M 96.5,129.5 C 98.5,129.5 100.5,129.5 102.5,129.5C 102.5,131.5 102.5,133.5 102.5,135.5C 100.5,135.5 98.5,135.5 96.5,135.5C 96.5,133.5 96.5,131.5 96.5,129.5 Z"/></g>
<g><path style="opacity:1" fill="#3a3a3a" d="M 133.5,129.5 C 135.5,129.5 137.5,129.5 139.5,129.5C 139.5,131.5 139.5,133.5 139.5,135.5C 137.5,135.5 135.5,135.5 133.5,135.5C 133.5,133.5 133.5,131.5 133.5,129.5 Z"/></g>
<g><path style="opacity:1" fill="#050505" d="M 134.5,130.5 C 135.833,130.5 137.167,130.5 138.5,130.5C 138.5,131.833 138.5,133.167 138.5,134.5C 137.167,134.5 135.833,134.5 134.5,134.5C 134.5,133.167 134.5,131.833 134.5,130.5 Z"/></g>
<g><path style="opacity:1" fill="#282828" d="M 145.5,129.5 C 147.5,129.5 149.5,129.5 151.5,129.5C 151.5,131.5 151.5,133.5 151.5,135.5C 149.5,135.5 147.5,135.5 145.5,135.5C 145.5,133.5 145.5,131.5 145.5,129.5 Z"/></g>
<g><path style="opacity:1" fill="#a5a5a5" d="M 120.5,114.5 C 120.833,114.5 121.167,114.5 121.5,114.5C 121.5,126.833 121.5,139.167 121.5,151.5C 93.9949,151.831 66.6616,151.498 39.5,150.5C 66.5,150.5 93.5,150.5 120.5,150.5C 120.5,138.5 120.5,126.5 120.5,114.5 Z"/></g>
<g><path style="opacity:1" fill="#989898" d="M 127.5,114.5 C 127.5,126.5 127.5,138.5 127.5,150.5C 154.5,150.5 181.5,150.5 208.5,150.5C 181.338,151.498 154.005,151.831 126.5,151.5C 126.171,138.989 126.505,126.655 127.5,114.5 Z"/></g>
<g><path style="opacity:1" fill="#f4f4f4" d="M 44.5,157.5 C 46.5,157.5 48.5,157.5 50.5,157.5C 50.5,161.5 50.5,165.5 50.5,169.5C 48.5,169.5 46.5,169.5 44.5,169.5C 44.5,165.5 44.5,161.5 44.5,157.5 Z"/></g>
<g><path style="opacity:1" fill="#8b8b8b" d="M 203.5,169.5 C 203.5,165.5 203.5,161.5 203.5,157.5C 201.833,157.5 200.167,157.5 198.5,157.5C 198.5,161.5 198.5,165.5 198.5,169.5C 197.515,165.366 197.182,161.032 197.5,156.5C 199.833,156.5 202.167,156.5 204.5,156.5C 204.818,161.032 204.485,165.366 203.5,169.5 Z"/></g>
<g><path style="opacity:1" fill="#fcfcfc" d="M 203.5,169.5 C 201.833,169.5 200.167,169.5 198.5,169.5C 198.5,165.5 198.5,161.5 198.5,157.5C 200.167,157.5 201.833,157.5 203.5,157.5C 203.5,161.5 203.5,165.5 203.5,169.5 Z"/></g>
</svg>
