<?xml version="1.0" encoding="UTF-8"?>
<!DOCTYPE svg PUBLIC "-//W3C//DTD SVG 1.1//EN" "http://www.w3.org/Graphics/SVG/1.1/DTD/svg11.dtd">
<svg xmlns="http://www.w3.org/2000/svg" version="1.1" width="174px" height="198px" style="shape-rendering:geometricPrecision; text-rendering:geometricPrecision; image-rendering:optimizeQuality; fill-rule:evenodd; clip-rule:evenodd" xmlns:xlink="http://www.w3.org/1999/xlink">
<g><path style="opacity:1" fill="#fefefe" d="M -0.5,-0.5 C 57.5,-0.5 115.5,-0.5 173.5,-0.5C 173.5,65.5 173.5,131.5 173.5,197.5C 115.5,197.5 57.5,197.5 -0.5,197.5C -0.5,131.5 -0.5,65.5 -0.5,-0.5 Z"/></g>
<g><path style="opacity:1" fill="#0e0e0e" d="M 89.5,34.5 C 87.5238,44.7809 86.8572,55.4476 87.5,66.5C 89.8568,66.6633 92.1902,66.4966 94.5,66C 96.3197,65.7996 97.653,64.9663 98.5,63.5C 103.823,60.0155 108.489,55.8488 112.5,51C 114.167,50.3333 115.833,50.3333 117.5,51C 118.026,56.2409 116.026,60.5743 111.5,64C 107.168,67.5228 102.501,70.3561 97.5,72.5C 94.9327,72.7215 92.5994,73.3882 90.5,74.5C 89.1729,78.951 88.5063,83.7843 88.5,89C 88.8333,93.8333 89.1667,98.6667 89.5,103.5C 99.3937,101.259 107.06,95.9253 112.5,87.5C 118.259,86.8332 119.926,89.1665 117.5,94.5C 112.673,100.591 106.673,105.258 99.5,108.5C 95.9852,109.919 92.3186,110.586 88.5,110.5C 88.1691,134.006 88.5025,157.339 89.5,180.5C 97.84,180.334 106.173,180.5 114.5,181C 116.458,183.003 116.791,185.169 115.5,187.5C 94.821,188.822 74.1543,188.822 53.5,187.5C 52.1667,185.833 52.1667,184.167 53.5,182.5C 62.63,181.886 71.63,181.219 80.5,180.5C 80.5,151.167 80.5,121.833 80.5,92.5C 78.8333,92.5 77.1667,92.5 75.5,92.5C 71.0931,91.1304 66.7598,89.2971 62.5,87C 58.6667,83.1667 54.8333,79.3333 51,75.5C 49.2715,68.891 51.4382,67.0576 57.5,70C 62.5004,78.8449 70.1671,83.6783 80.5,84.5C 80.6665,75.1607 80.4998,65.8274 80,56.5C 77.0614,55.8719 74.2281,55.2052 71.5,54.5C 71.0269,53.0937 70.0269,52.427 68.5,52.5C 61.6492,49.1538 55.8158,44.4871 51,38.5C 49.0868,32.9057 50.9202,30.739 56.5,32C 61.2774,39.6114 67.944,44.7781 76.5,47.5C 77.5676,48.4345 78.901,48.7678 80.5,48.5C 80.8182,43.9677 80.4849,39.6344 79.5,35.5C 68.0792,26.6636 67.7458,17.497 78.5,8C 94.7515,6.90572 100.585,14.0724 96,29.5C 94.0349,31.5503 91.8682,33.217 89.5,34.5 Z"/></g>
<g><path style="opacity:1" fill="#ebebeb" d="M 81.5,15.5 C 89.8038,15.2779 92.1372,18.7779 88.5,26C 78.226,27.5743 75.8927,24.0743 81.5,15.5 Z"/></g>
<g><path style="opacity:1" fill="#393939" d="M 89.5,34.5 C 88.525,44.7513 88.1917,55.0846 88.5,65.5C 91.9686,65.4535 95.302,64.7868 98.5,63.5C 97.653,64.9663 96.3197,65.7996 94.5,66C 92.1902,66.4966 89.8568,66.6633 87.5,66.5C 86.8572,55.4476 87.5238,44.7809 89.5,34.5 Z"/></g>
<g><path style="opacity:1" fill="#a0a0a0" d="M 79.5,35.5 C 80.4849,39.6344 80.8182,43.9677 80.5,48.5C 78.901,48.7678 77.5676,48.4345 76.5,47.5C 77.5,47.5 78.5,47.5 79.5,47.5C 79.5,43.5 79.5,39.5 79.5,35.5 Z"/></g>
<g><path style="opacity:1" fill="#7f7f7f" d="M 68.5,52.5 C 70.0269,52.427 71.0269,53.0937 71.5,54.5C 69.9731,54.573 68.9731,53.9063 68.5,52.5 Z"/></g>
<g><path style="opacity:1" fill="#838383" d="M 97.5,72.5 C 95.5615,74.1628 93.2282,74.8294 90.5,74.5C 92.5994,73.3882 94.9327,72.7215 97.5,72.5 Z"/></g>
<g><path style="opacity:1" fill="#aeaeae" d="M 112.5,87.5 C 114.56,86.1888 116.726,86.1888 119,87.5C 119.167,88.6667 119.333,89.8333 119.5,91C 119.392,92.6811 118.725,93.8478 117.5,94.5C 119.926,89.1665 118.259,86.8332 112.5,87.5 Z"/></g>
<g><path style="opacity:1" fill="#b0b0b0" d="M 75.5,92.5 C 77.1667,92.5 78.8333,92.5 80.5,92.5C 80.5,121.833 80.5,151.167 80.5,180.5C 80.1667,180.5 79.8333,180.5 79.5,180.5C 79.5,151.5 79.5,122.5 79.5,93.5C 77.901,93.7678 76.5676,93.4345 75.5,92.5 Z"/></g>
<g><path style="opacity:1" fill="#bdbdbd" d="M 99.5,108.5 C 96.772,110.631 93.6054,111.964 90,112.5C 89.5,135.164 89.3334,157.831 89.5,180.5C 88.5025,157.339 88.1691,134.006 88.5,110.5C 92.3186,110.586 95.9852,109.919 99.5,108.5 Z"/></g>
<g><path style="opacity:1" fill="#535353" d="M 79.5,180.5 C 79.8333,180.5 80.1667,180.5 80.5,180.5C 71.63,181.219 62.63,181.886 53.5,182.5C 53.6107,181.883 53.944,181.383 54.5,181C 62.8267,180.5 71.16,180.334 79.5,180.5 Z"/></g>
<g><path style="opacity:1" fill="#6e6e6e" d="M 53.5,187.5 C 74.1543,188.822 94.821,188.822 115.5,187.5C 115.082,188.222 114.416,188.722 113.5,189C 93.8333,189.667 74.1667,189.667 54.5,189C 53.944,188.617 53.6107,188.117 53.5,187.5 Z"/></g>
</svg>
