<?xml version="1.0" encoding="UTF-8"?>
<!DOCTYPE svg PUBLIC "-//W3C//DTD SVG 1.1//EN" "http://www.w3.org/Graphics/SVG/1.1/DTD/svg11.dtd">
<svg xmlns="http://www.w3.org/2000/svg" version="1.1" width="212px" height="184px" style="shape-rendering:geometricPrecision; text-rendering:geometricPrecision; image-rendering:optimizeQuality; fill-rule:evenodd; clip-rule:evenodd" xmlns:xlink="http://www.w3.org/1999/xlink">
<g><path style="opacity:1" fill="#fdfdfd" d="M -0.5,-0.5 C 70.1667,-0.5 140.833,-0.5 211.5,-0.5C 211.5,60.8333 211.5,122.167 211.5,183.5C 140.833,183.5 70.1667,183.5 -0.5,183.5C -0.5,122.167 -0.5,60.8333 -0.5,-0.5 Z"/></g>
<g><path style="opacity:1" fill="#151515" d="M 119.5,20.5 C 119.973,21.9063 120.973,22.573 122.5,22.5C 128.27,24.8841 133.936,27.5508 139.5,30.5C 139.973,31.9063 140.973,32.573 142.5,32.5C 148.795,35.4313 155.128,38.4313 161.5,41.5C 164.235,43.7319 166.402,46.3986 168,49.5C 168.5,76.8313 168.667,104.165 168.5,131.5C 162.365,132.9 156.699,135.4 151.5,139C 150.167,139.667 148.833,139.667 147.5,139C 142.071,136.551 136.737,134.051 131.5,131.5C 130.808,130.975 130.308,130.308 130,129.5C 129.667,125.167 129.333,120.833 129,116.5C 125.512,117.911 122.178,119.577 119,121.5C 118.812,132.879 118.312,144.213 117.5,155.5C 111.267,158.784 104.933,161.784 98.5,164.5C 91.7936,162.314 85.4602,159.314 79.5,155.5C 78.8333,144.167 78.1667,132.833 77.5,121.5C 74.2652,120.267 71.2652,118.601 68.5,116.5C 67.7823,121.182 67.1157,125.849 66.5,130.5C 60.8111,133.344 55.1444,136.178 49.5,139C 45.8898,138.964 42.3898,138.131 39,136.5C 36.2363,134.119 33.0696,132.285 29.5,131C 28.3387,103.572 28.172,76.0721 29,48.5C 31.2421,44.0808 34.7421,41.4141 39.5,40.5C 41.8816,39.6493 43.8816,38.316 45.5,36.5C 63.3353,28.1645 81.002,19.4978 98.5,10.5C 105.805,13.475 112.805,16.8083 119.5,20.5 Z"/></g>
<g><path style="opacity:1" fill="#fafafa" d="M 103.5,18.5 C 122.457,27.9785 141.457,37.4785 160.5,47C 161.985,48.7565 161.652,49.9232 159.5,50.5C 140.706,59.4743 122.039,68.641 103.5,78C 102.29,79.0391 101.29,80.2058 100.5,81.5C 99.2101,82.0577 98.3768,83.0577 98,84.5C 97.5004,91.4921 97.3337,98.4921 97.5,105.5C 87.5021,100.504 77.5021,95.5037 67.5,90.5C 65.9674,88.7549 63.9674,87.7549 61.5,87.5C 53.1017,83.4868 44.7683,79.4868 36.5,75.5C 36.2172,74.7109 35.7172,74.0442 35,73.5C 34.2274,65.1185 34.3941,56.7852 35.5,48.5C 47.0323,40.8989 59.3657,34.5655 72.5,29.5C 74.674,29.2503 76.3406,28.2503 77.5,26.5C 82.9079,24.9617 87.9079,22.6284 92.5,19.5C 96.0785,17.6818 99.7452,17.3485 103.5,18.5 Z"/></g>
<g><path style="opacity:1" fill="#8d8d8d" d="M 103.5,18.5 C 99.7452,17.3485 96.0785,17.6818 92.5,19.5C 94.0313,17.3199 96.1979,16.3199 99,16.5C 101.008,16.3068 102.508,16.9735 103.5,18.5 Z"/></g>
<g><path style="opacity:1" fill="#797979" d="M 119.5,20.5 C 121.027,20.427 122.027,21.0937 122.5,22.5C 120.973,22.573 119.973,21.9063 119.5,20.5 Z"/></g>
<g><path style="opacity:1" fill="#777777" d="M 77.5,26.5 C 76.3406,28.2503 74.674,29.2503 72.5,29.5C 73.6594,27.7497 75.326,26.7497 77.5,26.5 Z"/></g>
<g><path style="opacity:1" fill="#7d7d7d" d="M 139.5,30.5 C 141.027,30.427 142.027,31.0937 142.5,32.5C 140.973,32.573 139.973,31.9063 139.5,30.5 Z"/></g>
<g><path style="opacity:1" fill="#979797" d="M 45.5,36.5 C 43.8816,38.316 41.8816,39.6493 39.5,40.5C 40.733,38.2036 42.733,36.8702 45.5,36.5 Z"/></g>
<g><path style="opacity:1" fill="#cacaca" d="M 161.5,51.5 C 162.823,54.9377 163.49,58.771 163.5,63C 163.167,66.8333 162.833,70.6667 162.5,74.5C 161.817,74.8627 161.15,75.1961 160.5,75.5C 162.677,68.3442 163.011,61.0109 161.5,53.5C 160.583,54.1272 159.583,54.4606 158.5,54.5C 159.306,53.2719 160.306,52.2719 161.5,51.5 Z"/></g>
<g><path style="opacity:1" fill="#f9f9f9" d="M 160.5,75.5 C 155.923,78.6205 150.923,80.9538 145.5,82.5C 142.594,83.108 140.26,84.4413 138.5,86.5C 126.614,92.6869 114.614,98.6869 102.5,104.5C 100.544,98.588 99.8771,92.2547 100.5,85.5C 100.733,83.9382 101.4,82.6049 102.5,81.5C 104.167,80.8333 105.833,80.1667 107.5,79.5C 109.967,79.2451 111.967,78.2451 113.5,76.5C 122.725,72.2188 131.725,67.3855 140.5,62C 146.818,60.1601 152.818,57.6601 158.5,54.5C 159.583,54.4606 160.583,54.1272 161.5,53.5C 163.011,61.0109 162.677,68.3442 160.5,75.5 Z"/></g>
<g><path style="opacity:1" fill="#9f9f9f" d="M 35.5,48.5 C 34.3941,56.7852 34.2274,65.1185 35,73.5C 35.7172,74.0442 36.2172,74.7109 36.5,75.5C 35.5041,75.5858 34.6708,75.2524 34,74.5C 33.3333,66.1667 33.3333,57.8333 34,49.5C 34.3826,48.944 34.8826,48.6107 35.5,48.5 Z"/></g>
<g><path style="opacity:1" fill="#2b2b2b" d="M 44.5,54.5 C 51.6382,56.1579 57.9716,59.3245 63.5,64C 72.6955,68.6682 82.0288,72.8348 91.5,76.5C 91.5,77.5 91.5,78.5 91.5,79.5C 87.6818,77.7679 83.6818,76.2679 79.5,75C 69.7315,69.0754 59.5648,63.9087 49,59.5C 47.2648,57.9375 45.7648,56.2708 44.5,54.5 Z"/></g>
<g><path style="opacity:1" fill="#272727" d="M 159.5,50.5 C 159.842,51.3382 160.508,51.6716 161.5,51.5C 160.306,52.2719 159.306,53.2719 158.5,54.5C 152.818,57.6601 146.818,60.1601 140.5,62C 131.725,67.3855 122.725,72.2188 113.5,76.5C 111.033,76.7549 109.033,77.7549 107.5,79.5C 105.833,80.1667 104.167,80.8333 102.5,81.5C 101.833,81.5 101.167,81.5 100.5,81.5C 101.29,80.2058 102.29,79.0391 103.5,78C 122.039,68.641 140.706,59.4743 159.5,50.5 Z"/></g>
<g><path style="opacity:1" fill="#969696" d="M 113.5,76.5 C 111.967,78.2451 109.967,79.2451 107.5,79.5C 109.033,77.7549 111.033,76.7549 113.5,76.5 Z"/></g>
<g><path style="opacity:1" fill="#434343" d="M 35.5,80.5 C 33.5156,95.7977 32.8489,111.464 33.5,127.5C 32.5036,111.675 32.1703,95.6754 32.5,79.5C 33.791,79.2627 34.791,79.596 35.5,80.5 Z"/></g>
<g><path style="opacity:1" fill="#f7f7f7" d="M 35.5,80.5 C 55.8862,90.6354 76.2195,100.969 96.5,111.5C 96.5,126.5 96.5,141.5 96.5,156.5C 93.779,156.037 91.1123,155.371 88.5,154.5C 87.8333,154.167 87.1667,153.833 86.5,153.5C 86.1917,141.863 85.1917,130.53 83.5,119.5C 72.5511,113.691 61.5511,107.857 50.5,102C 48.6131,101.22 46.9464,101.387 45.5,102.5C 44.5062,111.986 44.1729,121.652 44.5,131.5C 43.5,131.5 42.5,131.5 41.5,131.5C 38.8333,130.167 36.1667,128.833 33.5,127.5C 32.8489,111.464 33.5156,95.7977 35.5,80.5 Z"/></g>
<g><path style="opacity:1" fill="#f8f8f8" d="M 161.5,80.5 C 163.484,95.7977 164.151,111.464 163.5,127.5C 159.914,128.626 156.581,130.293 153.5,132.5C 152.822,122.273 152.156,112.106 151.5,102C 148.743,101.416 146.077,101.75 143.5,103C 133.254,108.373 123.087,113.873 113,119.5C 112.5,130.828 112.333,142.162 112.5,153.5C 108.251,154.626 104.251,156.293 100.5,158.5C 100.183,142.422 100.516,126.422 101.5,110.5C 121.238,100.125 141.238,90.1249 161.5,80.5 Z"/></g>
<g><path style="opacity:1" fill="#9c9c9c" d="M 145.5,82.5 C 143.65,84.5716 141.317,85.9049 138.5,86.5C 140.26,84.4413 142.594,83.108 145.5,82.5 Z"/></g>
<g><path style="opacity:1" fill="#9d9d9d" d="M 61.5,87.5 C 63.9674,87.7549 65.9674,88.7549 67.5,90.5C 65.0326,90.2451 63.0326,89.2451 61.5,87.5 Z"/></g>
<g><path style="opacity:1" fill="#979797" d="M 100.5,85.5 C 99.8771,92.2547 100.544,98.588 102.5,104.5C 101.791,105.404 100.791,105.737 99.5,105.5C 99.176,98.6457 99.5093,91.979 100.5,85.5 Z"/></g>
<g><path style="opacity:1" fill="#494949" d="M 161.5,80.5 C 162.209,79.596 163.209,79.2627 164.5,79.5C 164.83,95.6754 164.496,111.675 163.5,127.5C 164.151,111.464 163.484,95.7977 161.5,80.5 Z"/></g>
<g><path style="opacity:1" fill="#b6b6b6" d="M 45.5,102.5 C 45.5,112.5 45.5,122.5 45.5,132.5C 43.901,132.768 42.5676,132.434 41.5,131.5C 42.5,131.5 43.5,131.5 44.5,131.5C 44.1729,121.652 44.5062,111.986 45.5,102.5 Z"/></g>
<g><path style="opacity:1" fill="#f4f4f4" d="M 52.5,108.5 C 54.8141,110.392 57.4807,111.725 60.5,112.5C 61.3924,117.438 61.7257,122.438 61.5,127.5C 59.3621,127.981 57.6955,129.148 56.5,131C 54.5643,131.813 52.5643,132.313 50.5,132.5C 49.8665,124.097 50.5332,116.097 52.5,108.5 Z"/></g>
<g><path style="opacity:1" fill="#f8f8f8" d="M 143.5,131.5 C 140.588,130.571 137.921,129.238 135.5,127.5C 135.274,122.438 135.608,117.438 136.5,112.5C 137.609,112.443 138.609,112.11 139.5,111.5C 141.258,111.123 142.925,110.456 144.5,109.5C 144.833,113.167 145.167,116.833 145.5,120.5C 145.489,124.565 144.822,128.232 143.5,131.5 Z"/></g>
<g><path style="opacity:1" fill="#747474" d="M 145.5,108.5 C 145.56,107.957 145.893,107.624 146.5,107.5C 147.821,115.991 147.821,124.324 146.5,132.5C 146.826,124.316 146.492,116.316 145.5,108.5 Z"/></g>
<g><path style="opacity:1" fill="#bfbfbf" d="M 145.5,108.5 C 146.492,116.316 146.826,124.316 146.5,132.5C 145.209,132.737 144.209,132.404 143.5,131.5C 144.822,128.232 145.489,124.565 145.5,120.5C 145.167,116.833 144.833,113.167 144.5,109.5C 142.925,110.456 141.258,111.123 139.5,111.5C 140.911,109.461 142.911,108.461 145.5,108.5 Z"/></g>
<g><path style="opacity:1" fill="#494949" d="M 52.5,108.5 C 50.5332,116.097 49.8665,124.097 50.5,132.5C 49.5073,124.35 49.1739,116.017 49.5,107.5C 50.791,107.263 51.791,107.596 52.5,108.5 Z"/></g>
<g><path style="opacity:1" fill="#9f9f9f" d="M 60.5,112.5 C 61.1174,112.611 61.6174,112.944 62,113.5C 62.8151,118.352 62.6484,123.019 61.5,127.5C 61.7257,122.438 61.3924,117.438 60.5,112.5 Z"/></g>
<g><path style="opacity:1" fill="#8c8c8c" d="M 136.5,112.5 C 135.608,117.438 135.274,122.438 135.5,127.5C 134.352,123.019 134.185,118.352 135,113.5C 135.383,112.944 135.883,112.611 136.5,112.5 Z"/></g>
<g><path style="opacity:1" fill="#aeaeae" d="M 83.5,119.5 C 85.1917,130.53 86.1917,141.863 86.5,153.5C 85.5041,153.586 84.6708,153.252 84,152.5C 83.5002,141.505 83.3335,130.505 83.5,119.5 Z"/></g>
<g><path style="opacity:1" fill="#cdcdcd" d="M 96.5,111.5 C 97.4963,126.991 97.8296,142.658 97.5,158.5C 94.0567,157.941 91.0567,156.607 88.5,154.5C 91.1123,155.371 93.779,156.037 96.5,156.5C 96.5,141.5 96.5,126.5 96.5,111.5 Z"/></g>
<g><path style="opacity:1" fill="#a0a0a0" d="M 101.5,110.5 C 100.516,126.422 100.183,142.422 100.5,158.5C 99.8336,150.674 99.5003,142.674 99.5,134.5C 99.5022,126.138 100.169,118.138 101.5,110.5 Z"/></g>
</svg>
