<?xml version="1.0" encoding="UTF-8"?>
<!DOCTYPE svg PUBLIC "-//W3C//DTD SVG 1.1//EN" "http://www.w3.org/Graphics/SVG/1.1/DTD/svg11.dtd">
<svg xmlns="http://www.w3.org/2000/svg" version="1.1" width="220px" height="262px" style="shape-rendering:geometricPrecision; text-rendering:geometricPrecision; image-rendering:optimizeQuality; fill-rule:evenodd; clip-rule:evenodd" xmlns:xlink="http://www.w3.org/1999/xlink">
<g><path style="opacity:1" fill="#f9f9f9" d="M -0.5,-0.5 C 72.8333,-0.5 146.167,-0.5 219.5,-0.5C 219.5,86.8333 219.5,174.167 219.5,261.5C 146.167,261.5 72.8333,261.5 -0.5,261.5C -0.5,174.167 -0.5,86.8333 -0.5,-0.5 Z"/></g>
<g><path style="opacity:1" fill="#f7f7f7" d="M 113.5,37.5 C 114.873,37.3433 116.207,37.51 117.5,38C 124.632,44.3985 132.299,50.0652 140.5,55C 143.833,55 147.167,55 150.5,55C 151.912,60.9016 151.578,66.7349 149.5,72.5C 148.076,74.5145 147.41,76.8478 147.5,79.5C 144.658,84.3656 142.991,89.6989 142.5,95.5C 140.937,100.264 139.937,105.264 139.5,110.5C 138.705,114.785 138.372,119.119 138.5,123.5C 135.833,123.5 133.167,123.5 130.5,123.5C 123.052,122.048 115.385,121.381 107.5,121.5C 97.7864,121.603 88.1198,122.269 78.5,123.5C 78.2778,106.492 74.9445,90.1585 68.5,74.5C 68.7406,72.1016 68.0739,70.1016 66.5,68.5C 65.3241,63.9533 65.3241,59.4533 66.5,55C 69.8333,55 73.1667,55 76.5,55C 84.2611,50.3999 91.5944,45.2333 98.5,39.5C 103.341,37.8483 108.341,37.1817 113.5,37.5 Z"/></g>
<g><path style="opacity:1" fill="#8b8b8b" d="M 156.5,68.5 C 156.741,70.8984 156.074,72.8984 154.5,74.5C 154.259,72.1016 154.926,70.1016 156.5,68.5 Z"/></g>
<g><path style="opacity:1" fill="#898888" d="M 66.5,85.5 C 68.2766,88.5046 69.2766,91.8379 69.5,95.5C 67.7234,92.4954 66.7234,89.1621 66.5,85.5 Z"/></g>
<g><path style="opacity:1" fill="#2c2c2c" d="M 156.5,68.5 C 154.926,70.1016 154.259,72.1016 154.5,74.5C 152.962,78.0307 151.962,81.6973 151.5,85.5C 150.883,85.6107 150.383,85.944 150,86.5C 148.631,91.664 147.131,96.664 145.5,101.5C 144.71,102.609 144.21,103.942 144,105.5C 143.722,104.584 143.222,103.918 142.5,103.5C 142.5,100.833 142.5,98.1667 142.5,95.5C 142.991,89.6989 144.658,84.3656 147.5,79.5C 148.924,77.4855 149.59,75.1522 149.5,72.5C 151.578,66.7349 151.912,60.9016 150.5,55C 147.167,55 143.833,55 140.5,55C 132.299,50.0652 124.632,44.3985 117.5,38C 116.207,37.51 114.873,37.3433 113.5,37.5C 109.689,36.3547 105.689,36.1881 101.5,37C 100.058,37.3768 99.0577,38.2101 98.5,39.5C 91.5944,45.2333 84.2611,50.3999 76.5,55C 73.1667,55 69.8333,55 66.5,55C 65.3241,59.4533 65.3241,63.9533 66.5,68.5C 66.2594,70.8984 66.9261,72.8984 68.5,74.5C 74.9445,90.1585 78.2778,106.492 78.5,123.5C 88.1198,122.269 97.7864,121.603 107.5,121.5C 115.385,121.381 123.052,122.048 130.5,123.5C 127.813,123.336 125.146,123.503 122.5,124C 124.833,124.333 127.167,124.667 129.5,125C 128.167,125.667 128.167,126.333 129.5,127C 131.058,127.21 132.391,127.71 133.5,128.5C 129.19,127.92 124.857,127.586 120.5,127.5C 110.342,126.341 100.008,126.175 89.5,127C 86.2026,127.204 83.2026,128.037 80.5,129.5C 77.1262,129.674 73.7928,130.174 70.5,131C 55.5214,137.499 56.188,142.832 72.5,147C 90.0138,150.29 107.68,151.29 125.5,150C 130.434,149.884 135.1,149.051 139.5,147.5C 145.198,146.767 150.531,144.934 155.5,142C 157.037,140.89 157.703,139.39 157.5,137.5C 160.134,140.216 160.134,143.049 157.5,146C 158.056,146.383 158.389,146.883 158.5,147.5C 157.209,147.263 156.209,147.596 155.5,148.5C 124.152,159.133 92.8191,159.133 61.5,148.5C 61.44,147.957 61.1067,147.624 60.5,147.5C 59.1968,150.645 59.1968,153.645 60.5,156.5C 62.569,161.404 65.9023,165.238 70.5,168C 94.8311,168.5 119.164,168.667 143.5,168.5C 119.67,169.332 95.6702,169.832 71.5,170C 71.8333,170.333 72.1667,170.667 72.5,171C 71.2625,171.232 70.2625,171.732 69.5,172.5C 67.5126,191.137 66.846,210.137 67.5,229.5C 66.7611,229.369 66.0944,229.536 65.5,230C 66.967,232.186 68.967,232.852 71.5,232C 70.1667,231.667 68.8333,231.333 67.5,231C 70.9236,230.253 74.2569,230.42 77.5,231.5C 77.5858,232.496 77.2524,233.329 76.5,234C 72.4589,234.827 68.4589,234.66 64.5,233.5C 64.1373,232.817 63.8039,232.15 63.5,231.5C 64.1719,210.431 64.8386,189.264 65.5,168C 64.2506,167.26 63.2506,167.427 62.5,168.5C 61.8333,168.167 61.1667,167.833 60.5,167.5C 58.4952,164.649 56.6618,161.649 55,158.5C 54.3333,150.5 54.3333,142.5 55,134.5C 57.4638,131.353 60.6305,129.353 64.5,128.5C 67.802,127.706 71.1353,127.04 74.5,126.5C 74.8016,123.941 74.4682,121.607 73.5,119.5C 73.2296,114.972 72.5629,110.639 71.5,106.5C 71.5,105.5 71.5,104.5 71.5,103.5C 71.7062,100.505 71.0395,97.8383 69.5,95.5C 69.2766,91.8379 68.2766,88.5046 66.5,85.5C 61.7626,75.4114 59.9293,64.7447 61,53.5C 62.1667,52.3333 63.3333,51.1667 64.5,50C 68.5,49.6667 72.5,49.3333 76.5,49C 82.8333,44 89.1667,39 95.5,34C 105.475,30.1983 115.141,30.865 124.5,36C 129.543,40.7121 134.877,45.0454 140.5,49C 155.568,47.5656 160.902,54.0656 156.5,68.5 Z"/></g>
<g><path style="opacity:1" fill="#717171" d="M 149.5,72.5 C 149.59,75.1522 148.924,77.4855 147.5,79.5C 147.41,76.8478 148.076,74.5145 149.5,72.5 Z"/></g>
<g><path style="opacity:1" fill="#7f7f7f" d="M 66.5,68.5 C 68.0739,70.1016 68.7406,72.1016 68.5,74.5C 66.9261,72.8984 66.2594,70.8984 66.5,68.5 Z"/></g>
<g><path style="opacity:1" fill="#959595" d="M 123.5,63.5 C 124.493,71.9839 124.826,80.6506 124.5,89.5C 122.585,89.7845 120.919,89.4511 119.5,88.5C 120.833,88.5 122.167,88.5 123.5,88.5C 123.5,80.1667 123.5,71.8333 123.5,63.5 Z"/></g>
<g><path style="opacity:1" fill="#2e2e2e" d="M 123.5,63.5 C 123.5,71.8333 123.5,80.1667 123.5,88.5C 122.167,88.5 120.833,88.5 119.5,88.5C 118.343,80.0099 118.176,71.3433 119,62.5C 120.915,61.0844 122.415,61.4178 123.5,63.5 Z"/></g>
<g><path style="opacity:1" fill="#232323" d="M 92.5,61.5 C 93.8221,61.33 94.9887,61.6634 96,62.5C 96.4998,71.1603 96.6664,79.8269 96.5,88.5C 94.8333,88.5 93.1667,88.5 91.5,88.5C 91.1956,79.4161 91.5289,70.4161 92.5,61.5 Z"/></g>
<g><path style="opacity:1" fill="#929292" d="M 113.5,37.5 C 108.341,37.1817 103.341,37.8483 98.5,39.5C 99.0577,38.2101 100.058,37.3768 101.5,37C 105.689,36.1881 109.689,36.3547 113.5,37.5 Z"/></g>
<g><path style="opacity:1" fill="#888888" d="M 69.5,95.5 C 71.0395,97.8383 71.7062,100.505 71.5,103.5C 70.2318,101.095 69.5651,98.4282 69.5,95.5 Z"/></g>
<g><path style="opacity:1" fill="#282828" d="M 145.5,101.5 C 144.669,109.485 144.002,117.485 143.5,125.5C 144.5,125.5 145.5,125.5 146.5,125.5C 151.938,127.81 157.104,130.81 162,134.5C 164.445,144.379 163.778,154.046 160,163.5C 158.907,165.349 157.574,167.016 156,168.5C 155.833,189.841 155.333,211.174 154.5,232.5C 150.093,234.536 145.426,235.036 140.5,234C 139.695,232.887 139.028,231.721 138.5,230.5C 138.5,219.5 138.5,208.5 138.5,197.5C 118.5,197.5 98.5,197.5 78.5,197.5C 78.5,208.833 78.5,220.167 78.5,231.5C 78.1667,231.5 77.8333,231.5 77.5,231.5C 74.2569,230.42 70.9236,230.253 67.5,231C 68.8333,231.333 70.1667,231.667 71.5,232C 68.967,232.852 66.967,232.186 65.5,230C 66.0944,229.536 66.7611,229.369 67.5,229.5C 69.5,229.5 71.5,229.5 73.5,229.5C 74.1665,220.339 74.4998,211.006 74.5,201.5C 74.4984,191.809 73.8317,182.475 72.5,173.5C 71.8333,173.5 71.1667,173.5 70.5,173.5C 70.5,172.833 70.1667,172.5 69.5,172.5C 70.2625,171.732 71.2625,171.232 72.5,171C 72.1667,170.667 71.8333,170.333 71.5,170C 95.6702,169.832 119.67,169.332 143.5,168.5C 150.323,167.01 154.99,163.01 157.5,156.5C 158.477,153.713 158.81,150.713 158.5,147.5C 158.389,146.883 158.056,146.383 157.5,146C 160.134,143.049 160.134,140.216 157.5,137.5C 153.818,134.992 149.818,132.992 145.5,131.5C 143.485,130.076 141.152,129.41 138.5,129.5C 136.585,129.784 134.919,129.451 133.5,128.5C 132.391,127.71 131.058,127.21 129.5,127C 128.167,126.333 128.167,125.667 129.5,125C 127.167,124.667 124.833,124.333 122.5,124C 125.146,123.503 127.813,123.336 130.5,123.5C 133.167,123.5 135.833,123.5 138.5,123.5C 138.372,119.119 138.705,114.785 139.5,110.5C 140.869,108.309 141.869,105.975 142.5,103.5C 143.222,103.918 143.722,104.584 144,105.5C 144.21,103.942 144.71,102.609 145.5,101.5 Z"/></g>
<g><path style="opacity:1" fill="#5c5c5c" d="M 142.5,95.5 C 142.5,98.1667 142.5,100.833 142.5,103.5C 141.869,105.975 140.869,108.309 139.5,110.5C 139.937,105.264 140.937,100.264 142.5,95.5 Z"/></g>
<g><path style="opacity:1" fill="#b0b0b0" d="M 71.5,106.5 C 72.5629,110.639 73.2296,114.972 73.5,119.5C 73.7947,121.735 73.4614,123.735 72.5,125.5C 72.1005,119.171 71.7671,112.838 71.5,106.5 Z"/></g>
<g><path style="opacity:1" fill="#cdcdcd" d="M 151.5,85.5 C 148.001,97.1617 146.001,109.162 145.5,121.5C 145.846,122.849 146.179,124.183 146.5,125.5C 145.5,125.5 144.5,125.5 143.5,125.5C 144.002,117.485 144.669,109.485 145.5,101.5C 147.131,96.664 148.631,91.664 150,86.5C 150.383,85.944 150.883,85.6107 151.5,85.5 Z"/></g>
<g><path style="opacity:1" fill="#595959" d="M 73.5,119.5 C 74.4682,121.607 74.8016,123.941 74.5,126.5C 71.1353,127.04 67.802,127.706 64.5,128.5C 64.6107,127.883 64.944,127.383 65.5,127C 67.8659,126.56 70.1992,126.06 72.5,125.5C 73.4614,123.735 73.7947,121.735 73.5,119.5 Z"/></g>
<g><path style="opacity:1" fill="#7a7a7a" d="M 120.5,127.5 C 107.744,127.074 95.0769,127.741 82.5,129.5C 81.8333,129.5 81.1667,129.5 80.5,129.5C 83.2026,128.037 86.2026,127.204 89.5,127C 100.008,126.175 110.342,126.341 120.5,127.5 Z"/></g>
<g><path style="opacity:1" fill="#f7f7f7" d="M 120.5,127.5 C 124.857,127.586 129.19,127.92 133.5,128.5C 134.919,129.451 136.585,129.784 138.5,129.5C 140.515,130.924 142.848,131.59 145.5,131.5C 149.818,132.992 153.818,134.992 157.5,137.5C 157.703,139.39 157.037,140.89 155.5,142C 150.531,144.934 145.198,146.767 139.5,147.5C 117.712,149.459 96.0457,148.625 74.5,145C 72.7769,144.225 71.7769,142.892 71.5,141C 73.4863,138.574 74.8196,135.741 75.5,132.5C 78.2383,132.113 80.5717,131.113 82.5,129.5C 95.0769,127.741 107.744,127.074 120.5,127.5 Z"/></g>
<g><path style="opacity:1" fill="#818181" d="M 138.5,129.5 C 141.152,129.41 143.485,130.076 145.5,131.5C 142.848,131.59 140.515,130.924 138.5,129.5 Z"/></g>
<g><path style="opacity:1" fill="#e8e8e8" d="M 80.5,129.5 C 81.1667,129.5 81.8333,129.5 82.5,129.5C 80.5717,131.113 78.2383,132.113 75.5,132.5C 74.8196,135.741 73.4863,138.574 71.5,141C 71.7769,142.892 72.7769,144.225 74.5,145C 96.0457,148.625 117.712,149.459 139.5,147.5C 135.1,149.051 130.434,149.884 125.5,150C 107.68,151.29 90.0138,150.29 72.5,147C 56.188,142.832 55.5214,137.499 70.5,131C 73.7928,130.174 77.1262,129.674 80.5,129.5 Z"/></g>
<g><path style="opacity:1" fill="#797979" d="M 155.5,148.5 C 156.209,147.596 157.209,147.263 158.5,147.5C 158.81,150.713 158.477,153.713 157.5,156.5C 158.036,153.302 157.369,150.635 155.5,148.5 Z"/></g>
<g><path style="opacity:1" fill="#f5f5f5" d="M 61.5,148.5 C 92.8191,159.133 124.152,159.133 155.5,148.5C 157.369,150.635 158.036,153.302 157.5,156.5C 154.99,163.01 150.323,167.01 143.5,168.5C 119.164,168.667 94.8311,168.5 70.5,168C 65.9023,165.238 62.569,161.404 60.5,156.5C 60.1936,153.615 60.5269,150.948 61.5,148.5 Z"/></g>
<g><path style="opacity:1" fill="#9c9c9c" d="M 61.5,148.5 C 60.5269,150.948 60.1936,153.615 60.5,156.5C 59.1968,153.645 59.1968,150.645 60.5,147.5C 61.1067,147.624 61.44,147.957 61.5,148.5 Z"/></g>
<g><path style="opacity:1" fill="#252525" d="M 63.5,231.5 C 62.8333,231.5 62.5,231.167 62.5,230.5C 62.5,209.833 62.5,189.167 62.5,168.5C 63.2506,167.427 64.2506,167.26 65.5,168C 64.8386,189.264 64.1719,210.431 63.5,231.5 Z"/></g>
<g><path style="opacity:1" fill="#b3b3b3" d="M 60.5,167.5 C 61.1667,167.833 61.8333,168.167 62.5,168.5C 62.5,189.167 62.5,209.833 62.5,230.5C 61.8116,209.628 61.145,188.628 60.5,167.5 Z"/></g>
<g><path style="opacity:1" fill="#515151" d="M 146.5,173.5 C 147.568,172.566 148.901,172.232 150.5,172.5C 150.83,191.341 150.497,210.007 149.5,228.5C 149.5,210.167 149.5,191.833 149.5,173.5C 148.5,173.5 147.5,173.5 146.5,173.5 Z"/></g>
<g><path style="opacity:1" fill="#949494" d="M 69.5,172.5 C 70.1667,172.5 70.5,172.833 70.5,173.5C 68.5131,191.47 67.8465,209.803 68.5,228.5C 70.1667,228.5 71.8333,228.5 73.5,228.5C 73.5,228.833 73.5,229.167 73.5,229.5C 71.5,229.5 69.5,229.5 67.5,229.5C 66.846,210.137 67.5126,191.137 69.5,172.5 Z"/></g>
<g><path style="opacity:1" fill="#f0f0f0" d="M 70.5,173.5 C 71.1667,173.5 71.8333,173.5 72.5,173.5C 73.4862,191.757 73.8196,210.09 73.5,228.5C 71.8333,228.5 70.1667,228.5 68.5,228.5C 67.8465,209.803 68.5131,191.47 70.5,173.5 Z"/></g>
<g><path style="opacity:1" fill="#cacaca" d="M 79.5,175.5 C 79.5,175.167 79.5,174.833 79.5,174.5C 99.1667,174.5 118.833,174.5 138.5,174.5C 138.5,180.167 138.5,185.833 138.5,191.5C 138.167,191.5 137.833,191.5 137.5,191.5C 137.5,186.167 137.5,180.833 137.5,175.5C 118.167,175.5 98.8333,175.5 79.5,175.5 Z"/></g>
<g><path style="opacity:1" fill="#616161" d="M 72.5,173.5 C 73.8317,182.475 74.4984,191.809 74.5,201.5C 74.4998,211.006 74.1665,220.339 73.5,229.5C 73.5,229.167 73.5,228.833 73.5,228.5C 73.8196,210.09 73.4862,191.757 72.5,173.5 Z"/></g>
<g><path style="opacity:1" fill="#8d8d8d" d="M 144.5,174.5 C 144.5,192.5 144.5,210.5 144.5,228.5C 146.167,228.5 147.833,228.5 149.5,228.5C 147.735,229.461 145.735,229.795 143.5,229.5C 143.17,210.992 143.503,192.659 144.5,174.5 Z"/></g>
<g><path style="opacity:1" fill="#f9f9f9" d="M 79.5,175.5 C 98.8333,175.5 118.167,175.5 137.5,175.5C 137.5,180.833 137.5,186.167 137.5,191.5C 118.167,191.5 98.8333,191.5 79.5,191.5C 79.5,186.167 79.5,180.833 79.5,175.5 Z"/></g>
<g><path style="opacity:1" fill="#a2a2a2" d="M 79.5,174.5 C 79.5,174.833 79.5,175.167 79.5,175.5C 79.5,180.833 79.5,186.167 79.5,191.5C 98.8333,191.5 118.167,191.5 137.5,191.5C 137.833,191.5 138.167,191.5 138.5,191.5C 118.674,192.497 98.6736,192.83 78.5,192.5C 78.1771,186.31 78.5104,180.31 79.5,174.5 Z"/></g>
<g><path style="opacity:1" fill="#c7c7c7" d="M 138.5,230.5 C 137.506,220.013 137.172,209.346 137.5,198.5C 118.167,198.5 98.8333,198.5 79.5,198.5C 79.8279,209.679 79.4946,220.679 78.5,231.5C 78.5,220.167 78.5,208.833 78.5,197.5C 98.5,197.5 118.5,197.5 138.5,197.5C 138.5,208.5 138.5,219.5 138.5,230.5 Z"/></g>
<g><path style="opacity:1" fill="#f2f2f2" d="M 146.5,173.5 C 147.5,173.5 148.5,173.5 149.5,173.5C 149.5,191.833 149.5,210.167 149.5,228.5C 147.833,228.5 146.167,228.5 144.5,228.5C 144.5,210.5 144.5,192.5 144.5,174.5C 144.842,173.662 145.508,173.328 146.5,173.5 Z"/></g>
</svg>
