<?xml version="1.0" encoding="UTF-8"?>
<!DOCTYPE svg PUBLIC "-//W3C//DTD SVG 1.1//EN" "http://www.w3.org/Graphics/SVG/1.1/DTD/svg11.dtd">
<svg xmlns="http://www.w3.org/2000/svg" version="1.1" width="182px" height="114px" style="shape-rendering:geometricPrecision; text-rendering:geometricPrecision; image-rendering:optimizeQuality; fill-rule:evenodd; clip-rule:evenodd" xmlns:xlink="http://www.w3.org/1999/xlink">
<g><path style="opacity:0.982" fill="#fcfcfc" d="M -0.5,-0.5 C 19.1667,-0.5 38.8333,-0.5 58.5,-0.5C 44.5222,2.01363 34.1889,9.68029 27.5,22.5C 24.4816,22.3354 21.4816,22.502 18.5,23C 17.944,23.3826 17.6107,23.8826 17.5,24.5C 15.5487,25.2823 14.0487,26.6156 13,28.5C 12.3333,47.8333 12.3333,67.1667 13,86.5C 14.332,88.66 15.832,90.66 17.5,92.5C 19.2646,93.4614 21.2646,93.7947 23.5,93.5C 23.1872,97.0419 23.5206,100.375 24.5,103.5C 26.2898,108.464 29.7898,110.798 35,110.5C 37.9254,110.477 40.7587,109.977 43.5,109C 45.1412,107.871 46.1412,106.371 46.5,104.5C 47.4816,101.038 47.815,97.3714 47.5,93.5C 76.5,93.5 105.5,93.5 134.5,93.5C 132.93,108.433 139.263,113.6 153.5,109C 154.333,108.167 155.167,107.333 156,106.5C 157.379,101.964 157.879,97.2973 157.5,92.5C 162.543,93.5692 166.377,91.9026 169,87.5C 169.667,67.8333 169.667,48.1667 169,28.5C 165.145,24.3305 160.311,22.3305 154.5,22.5C 147.629,9.41084 136.962,1.74417 122.5,-0.5C 142.167,-0.5 161.833,-0.5 181.5,-0.5C 181.5,37.5 181.5,75.5 181.5,113.5C 120.833,113.5 60.1667,113.5 -0.5,113.5C -0.5,75.5 -0.5,37.5 -0.5,-0.5 Z"/></g>
<g><path style="opacity:1" fill="#181818" d="M 58.5,-0.5 C 79.8333,-0.5 101.167,-0.5 122.5,-0.5C 136.962,1.74417 147.629,9.41084 154.5,22.5C 160.311,22.3305 165.145,24.3305 169,28.5C 169.667,48.1667 169.667,67.8333 169,87.5C 166.377,91.9026 162.543,93.5692 157.5,92.5C 157.879,97.2973 157.379,101.964 156,106.5C 155.167,107.333 154.333,108.167 153.5,109C 139.263,113.6 132.93,108.433 134.5,93.5C 105.338,92.5019 76.0047,92.1686 46.5,92.5C 46.5,96.5 46.5,100.5 46.5,104.5C 46.1412,106.371 45.1412,107.871 43.5,109C 40.7587,109.977 37.9254,110.477 35,110.5C 29.7898,110.798 26.2898,108.464 24.5,103.5C 24.5,99.8333 24.5,96.1667 24.5,92.5C 22.1667,92.5 19.8333,92.5 17.5,92.5C 15.832,90.66 14.332,88.66 13,86.5C 12.3333,67.1667 12.3333,47.8333 13,28.5C 14.0487,26.6156 15.5487,25.2823 17.5,24.5C 20.9828,23.9899 24.3162,23.3232 27.5,22.5C 34.1889,9.68029 44.5222,2.01363 58.5,-0.5 Z"/></g>
<g><path style="opacity:1" fill="#fcfcfc" d="M 146.5,20.5 C 145.9,21.8999 144.9,22.8999 143.5,23.5C 140.909,24.2543 139.076,25.921 138,28.5C 137.822,40.076 137.322,51.576 136.5,63C 106.167,63.6667 75.8333,63.6667 45.5,63C 44.6778,51.576 44.1778,40.076 44,28.5C 41.3572,25.0926 37.8572,23.0926 33.5,22.5C 38.3196,14.1756 45.3196,8.67562 54.5,6C 78.5,5.33333 102.5,5.33333 126.5,6C 130.953,7.72634 135.286,9.72634 139.5,12C 142.447,14.4356 144.78,17.2689 146.5,20.5 Z"/></g>
<g><path style="opacity:1" fill="#a1a1a1" d="M 27.5,22.5 C 24.3162,23.3232 20.9828,23.9899 17.5,24.5C 17.6107,23.8826 17.944,23.3826 18.5,23C 21.4816,22.502 24.4816,22.3354 27.5,22.5 Z"/></g>
<g><path style="opacity:1" fill="#abaaaa" d="M 146.5,20.5 C 147.478,20.811 148.145,21.4777 148.5,22.5C 146.955,23.4519 145.288,23.7852 143.5,23.5C 144.9,22.8999 145.9,21.8999 146.5,20.5 Z"/></g>
<g><path style="opacity:1" fill="#f8f8f8" d="M 161.5,86.5 C 114.499,86.6667 67.4988,86.5 20.5,86C 19.5073,67.243 19.174,48.4097 19.5,29.5C 25.3188,28.3475 31.3188,28.1808 37.5,29C 38,29.5 38.5,30 39,30.5C 39.3333,42.1667 39.6667,53.8333 40,65.5C 41.1667,66.6667 42.3333,67.8333 43.5,69C 59.1667,69.1667 74.8333,69.3333 90.5,69.5C 106.922,69.6529 123.255,69.1529 139.5,68C 140.701,67.0975 141.535,65.9308 142,64.5C 142.333,53.1667 142.667,41.8333 143,30.5C 143.5,30 144,29.5 144.5,29C 150.167,28.3333 155.833,28.3333 161.5,29C 162.82,38.4377 163.487,48.1044 163.5,58C 163.498,67.8576 162.832,77.3576 161.5,86.5 Z"/></g>
<g><path style="opacity:1" fill="#bababa" d="M 19.5,29.5 C 19.174,48.4097 19.5073,67.243 20.5,86C 67.4988,86.5 114.499,86.6667 161.5,86.5C 114.335,87.6649 67.0018,87.8316 19.5,87C 18.1691,67.7356 18.1691,48.5689 19.5,29.5 Z"/></g>
<g><path style="opacity:1" fill="#6f6f6f" d="M 134.5,93.5 C 105.5,93.5 76.5,93.5 47.5,93.5C 47.815,97.3714 47.4816,101.038 46.5,104.5C 46.5,100.5 46.5,96.5 46.5,92.5C 76.0047,92.1686 105.338,92.5019 134.5,93.5 Z"/></g>
<g><path style="opacity:1" fill="#727272" d="M 151.5,103.5 C 151.5,100.167 151.5,96.8333 151.5,93.5C 147.833,93.5 144.167,93.5 140.5,93.5C 140.5,96.8333 140.5,100.167 140.5,103.5C 139.518,100.038 139.185,96.3714 139.5,92.5C 143.833,92.5 148.167,92.5 152.5,92.5C 152.815,96.3714 152.482,100.038 151.5,103.5 Z"/></g>
<g><path style="opacity:1" fill="#b7b7b7" d="M 17.5,92.5 C 19.8333,92.5 22.1667,92.5 24.5,92.5C 24.5,96.1667 24.5,99.8333 24.5,103.5C 23.5206,100.375 23.1872,97.0419 23.5,93.5C 21.2646,93.7947 19.2646,93.4614 17.5,92.5 Z"/></g>
<g><path style="opacity:1" fill="#6e6e6e" d="M 41.5,103.5 C 41.5,100.167 41.5,96.8333 41.5,93.5C 37.8333,93.5 34.1667,93.5 30.5,93.5C 30.5,96.8333 30.5,100.167 30.5,103.5C 29.5184,100.038 29.185,96.3714 29.5,92.5C 33.8333,92.5 38.1667,92.5 42.5,92.5C 42.815,96.3714 42.4816,100.038 41.5,103.5 Z"/></g>
<g><path style="opacity:1" fill="#f8f8f8" d="M 41.5,103.5 C 37.7316,104.787 34.0649,104.787 30.5,103.5C 30.5,100.167 30.5,96.8333 30.5,93.5C 34.1667,93.5 37.8333,93.5 41.5,93.5C 41.5,96.8333 41.5,100.167 41.5,103.5 Z"/></g>
<g><path style="opacity:1" fill="#f8f8f8" d="M 151.5,103.5 C 147.833,104.833 144.167,104.833 140.5,103.5C 140.5,100.167 140.5,96.8333 140.5,93.5C 144.167,93.5 147.833,93.5 151.5,93.5C 151.5,96.8333 151.5,100.167 151.5,103.5 Z"/></g>
</svg>
