<?xml version="1.0" encoding="UTF-8"?>
<!DOCTYPE svg PUBLIC "-//W3C//DTD SVG 1.1//EN" "http://www.w3.org/Graphics/SVG/1.1/DTD/svg11.dtd">
<svg xmlns="http://www.w3.org/2000/svg" version="1.1" width="318px" height="168px" style="shape-rendering:geometricPrecision; text-rendering:geometricPrecision; image-rendering:optimizeQuality; fill-rule:evenodd; clip-rule:evenodd" xmlns:xlink="http://www.w3.org/1999/xlink">
<g><path style="opacity:1" fill="#fefefe" d="M -0.5,-0.5 C 105.5,-0.5 211.5,-0.5 317.5,-0.5C 317.5,55.5 317.5,111.5 317.5,167.5C 211.5,167.5 105.5,167.5 -0.5,167.5C -0.5,111.5 -0.5,55.5 -0.5,-0.5 Z"/></g>
<g><path style="opacity:1" fill="#434646" d="M 112.5,42.5 C 112.53,43.4972 112.03,44.1639 111,44.5C 106.554,43.5879 102.054,43.2546 97.5,43.5C 102.284,41.4896 107.284,41.1562 112.5,42.5 Z"/></g>
<g><path style="opacity:1" fill="#081513" d="M 214.5,49.5 C 215.038,51.1172 215.371,52.7839 215.5,54.5C 213.194,54.0074 210.861,53.6741 208.5,53.5C 207.432,52.5655 206.099,52.2322 204.5,52.5C 204.546,60.2776 203.88,67.9442 202.5,75.5C 201.5,75.8333 200.833,76.5 200.5,77.5C 199.596,78.209 199.263,79.209 199.5,80.5C 200.609,81.29 201.942,81.79 203.5,82C 199.421,84.0115 195.588,83.8448 192,81.5C 188.361,84.5545 184.528,84.8878 180.5,82.5C 179.833,82.8333 179.167,83.1667 178.5,83.5C 174.324,81.1104 169.991,79.1104 165.5,77.5C 153.5,76.1667 141.5,76.1667 129.5,77.5C 129.709,78.086 130.043,78.586 130.5,79C 128.618,79.1981 126.952,79.6981 125.5,80.5C 123.302,80.1201 121.635,80.7868 120.5,82.5C 119.662,82.8417 119.328,83.5084 119.5,84.5C 116.794,84.4249 114.127,84.0916 111.5,83.5C 111.389,82.8826 111.056,82.3826 110.5,82C 106.909,81.2114 103.409,81.3781 100,82.5C 99.7645,80.8807 98.9311,79.8807 97.5,79.5C 96.8333,78.1667 95.8333,77.1667 94.5,76.5C 90.1638,70.6559 85.9971,64.6559 82,58.5C 80.2467,57.373 78.4134,56.373 76.5,55.5C 71.0187,60.0023 64.6854,62.0023 57.5,61.5C 57.3379,63.5273 57.5045,65.5273 58,67.5C 59.6965,68.3636 60.8632,69.6969 61.5,71.5C 66.6412,73.7049 71.4745,76.3715 76,79.5C 76.498,82.4816 76.6646,85.4816 76.5,88.5C 76.5,93.8333 76.5,99.1667 76.5,104.5C 76.5,105.167 76.5,105.833 76.5,106.5C 76.5,109.167 76.5,111.833 76.5,114.5C 79.7131,114.81 82.7131,114.477 85.5,113.5C 89.5,113.5 93.5,113.5 97.5,113.5C 102.356,113.531 107.189,113.198 112,112.5C 115.568,112.348 118.734,113.348 121.5,115.5C 124.399,114.358 127.399,113.692 130.5,113.5C 130.5,114.5 130.5,115.5 130.5,116.5C 128.533,116.739 126.699,116.406 125,115.5C 124.517,116.448 124.351,117.448 124.5,118.5C 122.336,118.721 120.67,119.721 119.5,121.5C 119.167,121.5 118.833,121.5 118.5,121.5C 114.651,121.597 110.817,121.931 107,122.5C 105.014,122.569 103.514,123.235 102.5,124.5C 97.482,124.613 92.482,124.947 87.5,125.5C 82.2688,125.444 77.2688,126.111 72.5,127.5C 70.8766,131.327 69.8766,135.327 69.5,139.5C 67.9519,139.821 67.2852,140.821 67.5,142.5C 66.1667,142.5 64.8333,142.5 63.5,142.5C 64.1083,137.056 63.4417,132.056 61.5,127.5C 61.5,126.833 61.1667,126.5 60.5,126.5C 60.6107,125.883 60.944,125.383 61.5,125C 56.9173,122.754 53.2507,119.421 50.5,115C 48.7795,114.261 47.1128,113.427 45.5,112.5C 45.1203,110.979 44.9536,109.313 45,107.5C 44.6924,108.308 44.1924,108.975 43.5,109.5C 41.5658,109.099 40.0658,108.099 39,106.5C 38.7811,107.938 38.2811,109.271 37.5,110.5C 36.3337,91.8423 36.167,73.1756 37,54.5C 37.7172,53.9558 38.2172,53.2891 38.5,52.5C 43.1667,52.5 47.8333,52.5 52.5,52.5C 53.21,50.1073 53.8767,47.6073 54.5,45C 66.6737,44.8307 78.6737,44.3307 90.5,43.5C 92.8333,43.5 95.1667,43.5 97.5,43.5C 102.054,43.2546 106.554,43.5879 111,44.5C 112.03,44.1639 112.53,43.4972 112.5,42.5C 144.076,42.3249 175.743,41.6583 207.5,40.5C 209.429,40.5396 211.262,40.8729 213,41.5C 213.272,44.2538 213.772,46.9205 214.5,49.5 Z"/></g>
<g><path style="opacity:1" fill="#727574" d="M 90.5,43.5 C 78.6737,44.3307 66.6737,44.8307 54.5,45C 53.8767,47.6073 53.21,50.1073 52.5,52.5C 51.9935,48.9929 52.6602,45.8263 54.5,43C 66.4862,43.1657 78.4862,43.3324 90.5,43.5 Z"/></g>
<g><path style="opacity:1" fill="#7d8181" d="M 214.5,49.5 C 216.104,50.287 216.771,51.6203 216.5,53.5C 216.179,55.0481 215.179,55.7148 213.5,55.5C 211.447,55.5979 209.78,54.9313 208.5,53.5C 210.861,53.6741 213.194,54.0074 215.5,54.5C 215.371,52.7839 215.038,51.1172 214.5,49.5 Z"/></g>
<g><path style="opacity:1" fill="#fafcfd" d="M 208.5,53.5 C 209.78,54.9313 211.447,55.5979 213.5,55.5C 220.313,56.4912 227.313,56.8245 234.5,56.5C 234.326,58.861 233.993,61.1944 233.5,63.5C 232.85,65.4352 232.517,67.4352 232.5,69.5C 231.632,72.3273 231.632,75.3273 232.5,78.5C 230.167,78.5 227.833,78.5 225.5,78.5C 216.983,78.8261 208.65,78.4927 200.5,77.5C 200.833,76.5 201.5,75.8333 202.5,75.5C 203.75,75.4226 204.583,74.756 205,73.5C 205.5,66.8417 205.666,60.175 205.5,53.5C 206.5,53.5 207.5,53.5 208.5,53.5 Z"/></g>
<g><path style="opacity:1" fill="#dddee0" d="M 216.5,53.5 C 222.829,53.8995 229.162,54.2329 235.5,54.5C 235.5,57.1667 235.5,59.8333 235.5,62.5C 236.791,62.2627 237.791,62.596 238.5,63.5C 236.833,63.5 235.167,63.5 233.5,63.5C 233.993,61.1944 234.326,58.861 234.5,56.5C 227.313,56.8245 220.313,56.4912 213.5,55.5C 215.179,55.7148 216.179,55.0481 216.5,53.5 Z"/></g>
<g><path style="opacity:1" fill="#f4f5f6" d="M 94.5,76.5 C 94.9182,79.0896 95.9182,81.4229 97.5,83.5C 92.0452,86.2727 86.3785,88.606 80.5,90.5C 78.9271,90.2483 77.5938,89.5817 76.5,88.5C 76.6646,85.4816 76.498,82.4816 76,79.5C 71.4745,76.3715 66.6412,73.7049 61.5,71.5C 60.8632,69.6969 59.6965,68.3636 58,67.5C 57.5045,65.5273 57.3379,63.5273 57.5,61.5C 64.6854,62.0023 71.0187,60.0023 76.5,55.5C 78.4134,56.373 80.2467,57.373 82,58.5C 85.9971,64.6559 90.1638,70.6559 94.5,76.5 Z"/></g>
<g><path style="opacity:1" fill="#828384" d="M 242.5,64.5 C 246.182,64.3347 249.848,64.5014 253.5,65C 254.737,65.2321 255.737,65.7321 256.5,66.5C 251.609,66.4681 246.943,65.8015 242.5,64.5 Z"/></g>
<g><path style="opacity:1" fill="#bac1c0" d="M 208.5,53.5 C 207.5,53.5 206.5,53.5 205.5,53.5C 205.666,60.175 205.5,66.8417 205,73.5C 204.583,74.756 203.75,75.4226 202.5,75.5C 203.88,67.9442 204.546,60.2776 204.5,52.5C 206.099,52.2322 207.432,52.5655 208.5,53.5 Z"/></g>
<g><path style="opacity:1" fill="#abb3b2" d="M 232.5,69.5 C 233.04,72.8647 233.706,76.198 234.5,79.5C 231.287,79.81 228.287,79.4767 225.5,78.5C 227.833,78.5 230.167,78.5 232.5,78.5C 231.632,75.3273 231.632,72.3273 232.5,69.5 Z"/></g>
<g><path style="opacity:1" fill="#737878" d="M 140.5,80.5 C 144.151,79.8345 147.985,79.5012 152,79.5C 157.752,79.3112 163.252,79.9779 168.5,81.5C 159.191,80.683 149.857,80.3496 140.5,80.5 Z"/></g>
<g><path style="opacity:1" fill="#484e4e" d="M 125.5,80.5 C 130.5,80.5 135.5,80.5 140.5,80.5C 133.998,81.3826 127.332,82.0493 120.5,82.5C 121.635,80.7868 123.302,80.1201 125.5,80.5 Z"/></g>
<g><path style="opacity:1" fill="#394040" d="M 97.5,79.5 C 98.9311,79.8807 99.7645,80.8807 100,82.5C 103.409,81.3781 106.909,81.2114 110.5,82C 111.056,82.3826 111.389,82.8826 111.5,83.5C 107.833,83.5 104.167,83.5 100.5,83.5C 98.5544,82.9653 97.5544,81.632 97.5,79.5 Z"/></g>
<g><path style="opacity:1" fill="#f3f5f6" d="M 140.5,80.5 C 149.857,80.3496 159.191,80.683 168.5,81.5C 175.354,85.5912 182.688,88.5912 190.5,90.5C 190.804,91.1499 191.137,91.8165 191.5,92.5C 174.499,94.3942 157.499,95.8942 140.5,97C 135.666,93.7484 130.666,90.7484 125.5,88C 123.576,86.2502 121.909,84.4169 120.5,82.5C 127.332,82.0493 133.998,81.3826 140.5,80.5 Z"/></g>
<g><path style="opacity:1" fill="#b5b9ba" d="M 258.5,68.5 C 259.483,72.2984 259.817,76.2984 259.5,80.5C 264.761,80.8511 269.761,81.8511 274.5,83.5C 269.203,82.7255 263.87,82.3921 258.5,82.5C 258.5,77.8333 258.5,73.1667 258.5,68.5 Z"/></g>
<g><path style="opacity:1" fill="#f9f9fa" d="M 100.5,83.5 C 104.167,83.5 107.833,83.5 111.5,83.5C 114.127,84.0916 116.794,84.4249 119.5,84.5C 119.369,85.3764 119.702,86.0431 120.5,86.5C 126.364,90.5954 132.364,94.4287 138.5,98C 135.607,99.1488 132.607,99.6488 129.5,99.5C 121.18,100.307 112.847,101.14 104.5,102C 103.944,102.383 103.611,102.883 103.5,103.5C 94.8215,103.584 86.1549,103.917 77.5,104.5C 77.5,100.5 77.5,96.5 77.5,92.5C 84.1752,90.996 90.8419,89.1626 97.5,87C 98.7101,85.9609 99.7101,84.7942 100.5,83.5 Z"/></g>
<g><path style="opacity:1" fill="#d1d2d3" d="M 94.5,76.5 C 95.8333,77.1667 96.8333,78.1667 97.5,79.5C 97.5544,81.632 98.5544,82.9653 100.5,83.5C 99.7101,84.7942 98.7101,85.9609 97.5,87C 90.8419,89.1626 84.1752,90.996 77.5,92.5C 77.5,96.5 77.5,100.5 77.5,104.5C 77.1667,104.5 76.8333,104.5 76.5,104.5C 76.5,99.1667 76.5,93.8333 76.5,88.5C 77.5938,89.5817 78.9271,90.2483 80.5,90.5C 86.3785,88.606 92.0452,86.2727 97.5,83.5C 95.9182,81.4229 94.9182,79.0896 94.5,76.5 Z"/></g>
<g><path style="opacity:1" fill="#f8fafa" d="M 287.5,102.5 C 280.104,103.784 272.771,104.784 265.5,105.5C 260.234,105.189 255.234,105.855 250.5,107.5C 245.167,107.5 239.833,107.5 234.5,107.5C 234.5,104.833 234.5,102.167 234.5,99.5C 241.5,98.8333 248.5,98.1667 255.5,97.5C 260.391,96.9901 265.058,95.9901 269.5,94.5C 272.833,94.1667 276.167,93.8333 279.5,93.5C 284.181,93.3314 288.848,92.9981 293.5,92.5C 293.492,95.5448 293.159,98.5448 292.5,101.5C 290.585,101.216 288.919,101.549 287.5,102.5 Z"/></g>
<g><path style="opacity:1" fill="#a0a8a7" d="M 269.5,94.5 C 265.058,95.9901 260.391,96.9901 255.5,97.5C 255.97,96.3065 256.97,95.6399 258.5,95.5C 262.132,94.7543 265.798,94.421 269.5,94.5 Z"/></g>
<g><path style="opacity:1" fill="#c1c4c5" d="M 195.5,94.5 C 196.833,96.8333 196.833,99.1667 195.5,101.5C 195.66,99.8008 195.494,98.1341 195,96.5C 194.107,95.9186 193.107,95.5852 192,95.5C 183.52,96.4098 175.02,97.0765 166.5,97.5C 175.918,95.5408 185.585,94.5408 195.5,94.5 Z"/></g>
<g><path style="opacity:1" fill="#f3f4f5" d="M 195.5,101.5 C 186.72,103.213 177.72,104.213 168.5,104.5C 163.29,104.608 158.29,105.275 153.5,106.5C 150.167,106.5 146.833,106.5 143.5,106.5C 143.5,104.167 143.5,101.833 143.5,99.5C 151.159,98.751 158.826,98.0843 166.5,97.5C 175.02,97.0765 183.52,96.4098 192,95.5C 193.107,95.5852 194.107,95.9186 195,96.5C 195.494,98.1341 195.66,99.8008 195.5,101.5 Z"/></g>
<g><path style="opacity:1" fill="#e9eded" d="M 211.5,95.5 C 211.611,96.1174 211.944,96.6174 212.5,97C 216.803,98.0503 221.137,98.8836 225.5,99.5C 227.5,99.5 229.5,99.5 231.5,99.5C 232.414,102.728 232.747,106.061 232.5,109.5C 229.219,109.58 226.219,108.913 223.5,107.5C 219.954,106.385 216.288,105.385 212.5,104.5C 207.81,103.862 203.144,103.029 198.5,102C 197.217,99.2053 197.217,96.3719 198.5,93.5C 202.713,94.9114 207.046,95.5781 211.5,95.5 Z"/></g>
<g><path style="opacity:1" fill="#7c7c7e" d="M 129.5,99.5 C 129.842,100.338 130.508,100.672 131.5,100.5C 131.082,101.222 130.416,101.722 129.5,102C 121.14,102.834 112.806,103.668 104.5,104.5C 104.5,103.833 104.167,103.5 103.5,103.5C 103.611,102.883 103.944,102.383 104.5,102C 112.847,101.14 121.18,100.307 129.5,99.5 Z"/></g>
<g><path style="opacity:1" fill="#f1f1f2" d="M 131.5,100.5 C 134.5,100.5 137.5,100.5 140.5,100.5C 140.5,102.833 140.5,105.167 140.5,107.5C 126.145,109.253 111.812,111.253 97.5,113.5C 93.5,113.5 89.5,113.5 85.5,113.5C 83.1432,113.663 80.8098,113.497 78.5,113C 77.4238,111.274 77.2571,109.441 78,107.5C 83.2666,106.855 88.4333,106.188 93.5,105.5C 96.9619,104.518 100.629,104.185 104.5,104.5C 112.806,103.668 121.14,102.834 129.5,102C 130.416,101.722 131.082,101.222 131.5,100.5 Z"/></g>
<g><path style="opacity:1" fill="#58595b" d="M 120.5,82.5 C 121.909,84.4169 123.576,86.2502 125.5,88C 130.666,90.7484 135.666,93.7484 140.5,97C 157.499,95.8942 174.499,94.3942 191.5,92.5C 191.137,91.8165 190.804,91.1499 190.5,90.5C 192.161,91.7971 193.828,93.1304 195.5,94.5C 185.585,94.5408 175.918,95.5408 166.5,97.5C 158.826,98.0843 151.159,98.751 143.5,99.5C 142.527,101.948 142.194,104.615 142.5,107.5C 141.833,107.5 141.167,107.5 140.5,107.5C 140.5,105.167 140.5,102.833 140.5,100.5C 137.5,100.5 134.5,100.5 131.5,100.5C 130.508,100.672 129.842,100.338 129.5,99.5C 132.607,99.6488 135.607,99.1488 138.5,98C 132.364,94.4287 126.364,90.5954 120.5,86.5C 119.702,86.0431 119.369,85.3764 119.5,84.5C 119.328,83.5084 119.662,82.8417 120.5,82.5 Z"/></g>
<g><path style="opacity:1" fill="#c9cbcc" d="M 292.5,88.5 C 293.75,88.5774 294.583,89.244 295,90.5C 295.441,98.2154 294.941,105.882 293.5,113.5C 292.914,113.709 292.414,114.043 292,114.5C 291.501,118.821 291.334,123.154 291.5,127.5C 289.833,127.5 288.167,127.5 286.5,127.5C 286.296,125.315 285.63,123.315 284.5,121.5C 285.167,121.833 285.833,122.167 286.5,122.5C 287.11,123.391 287.443,124.391 287.5,125.5C 288.209,126.404 289.209,126.737 290.5,126.5C 290.5,122.167 290.5,117.833 290.5,113.5C 291.209,112.596 292.209,112.263 293.5,112.5C 293.664,109.813 293.497,107.146 293,104.5C 292.617,103.944 292.117,103.611 291.5,103.5C 290.432,102.566 289.099,102.232 287.5,102.5C 288.919,101.549 290.585,101.216 292.5,101.5C 293.159,98.5448 293.492,95.5448 293.5,92.5C 288.848,92.9981 284.181,93.3314 279.5,93.5C 284.206,92.591 288.539,90.9243 292.5,88.5 Z"/></g>
<g><path style="opacity:1" fill="#3a3a3c" d="M 103.5,103.5 C 104.167,103.5 104.5,103.833 104.5,104.5C 100.629,104.185 96.9619,104.518 93.5,105.5C 87.7414,105.214 82.0748,105.548 76.5,106.5C 76.5,105.833 76.5,105.167 76.5,104.5C 76.8333,104.5 77.1667,104.5 77.5,104.5C 86.1549,103.917 94.8215,103.584 103.5,103.5 Z"/></g>
<g><path style="opacity:1" fill="#292d2d" d="M 287.5,102.5 C 289.099,102.232 290.432,102.566 291.5,103.5C 288.482,103.335 285.482,103.502 282.5,104C 284.167,104.333 285.833,104.667 287.5,105C 280.383,107.467 273.049,107.967 265.5,106.5C 265.5,106.167 265.5,105.833 265.5,105.5C 272.771,104.784 280.104,103.784 287.5,102.5 Z"/></g>
<g><path style="opacity:1" fill="#5d5e60" d="M 168.5,104.5 C 168.082,105.222 167.416,105.722 166.5,106C 162.179,106.499 157.846,106.666 153.5,106.5C 158.29,105.275 163.29,104.608 168.5,104.5 Z"/></g>
<g><path style="opacity:1" fill="#909293" d="M 143.5,99.5 C 143.5,101.833 143.5,104.167 143.5,106.5C 146.833,106.5 150.167,106.5 153.5,106.5C 150.038,107.482 146.371,107.815 142.5,107.5C 142.194,104.615 142.527,101.948 143.5,99.5 Z"/></g>
<g><path style="opacity:1" fill="#696d6e" d="M 231.5,99.5 C 232.5,99.5 233.5,99.5 234.5,99.5C 234.5,102.167 234.5,104.833 234.5,107.5C 234.5,108.167 234.5,108.833 234.5,109.5C 233.833,109.5 233.167,109.5 232.5,109.5C 232.747,106.061 232.414,102.728 231.5,99.5 Z"/></g>
<g><path style="opacity:1" fill="#b2b6b6" d="M 93.5,105.5 C 88.4333,106.188 83.2666,106.855 78,107.5C 77.2571,109.441 77.4238,111.274 78.5,113C 80.8098,113.497 83.1432,113.663 85.5,113.5C 82.7131,114.477 79.7131,114.81 76.5,114.5C 76.5,111.833 76.5,109.167 76.5,106.5C 82.0748,105.548 87.7414,105.214 93.5,105.5 Z"/></g>
<g><path style="opacity:1" fill="#0d1615" d="M 233.5,63.5 C 235.167,63.5 236.833,63.5 238.5,63.5C 239.959,63.4326 241.292,63.7659 242.5,64.5C 246.943,65.8015 251.609,66.4681 256.5,66.5C 257.167,67.1667 257.833,67.8333 258.5,68.5C 258.5,73.1667 258.5,77.8333 258.5,82.5C 263.87,82.3921 269.203,82.7255 274.5,83.5C 280.898,84.1708 286.898,85.8375 292.5,88.5C 288.539,90.9243 284.206,92.591 279.5,93.5C 276.167,93.8333 272.833,94.1667 269.5,94.5C 265.798,94.421 262.132,94.7543 258.5,95.5C 256.97,95.6399 255.97,96.3065 255.5,97.5C 248.5,98.1667 241.5,98.8333 234.5,99.5C 233.5,99.5 232.5,99.5 231.5,99.5C 229.5,99.5 227.5,99.5 225.5,99.5C 224.653,98.0337 223.32,97.2004 221.5,97C 218.12,96.6614 214.787,96.1614 211.5,95.5C 207.046,95.5781 202.713,94.9114 198.5,93.5C 197.217,96.3719 197.217,99.2053 198.5,102C 203.144,103.029 207.81,103.862 212.5,104.5C 212.62,105.586 213.287,106.253 214.5,106.5C 217.449,107.302 220.449,107.636 223.5,107.5C 226.219,108.913 229.219,109.58 232.5,109.5C 233.167,109.5 233.833,109.5 234.5,109.5C 240.021,109.218 245.354,108.551 250.5,107.5C 255.527,107.497 260.527,107.164 265.5,106.5C 273.049,107.967 280.383,107.467 287.5,105C 285.833,104.667 284.167,104.333 282.5,104C 285.482,103.502 288.482,103.335 291.5,103.5C 292.117,103.611 292.617,103.944 293,104.5C 293.497,107.146 293.664,109.813 293.5,112.5C 292.209,112.263 291.209,112.596 290.5,113.5C 290.131,117.768 289.131,121.768 287.5,125.5C 287.443,124.391 287.11,123.391 286.5,122.5C 286.245,120.033 285.245,118.033 283.5,116.5C 283.038,115.12 282.038,114.453 280.5,114.5C 277.326,114.991 274.326,115.657 271.5,116.5C 266.9,116.28 262.567,116.946 258.5,118.5C 250.545,119.661 242.545,120.328 234.5,120.5C 233.883,125.585 232.883,130.585 231.5,135.5C 230.167,135.5 228.833,135.5 227.5,135.5C 227.5,130.5 227.5,125.5 227.5,120.5C 218.764,118.482 210.098,116.149 201.5,113.5C 199.359,112.837 197.025,112.503 194.5,112.5C 190.859,112.315 187.526,112.981 184.5,114.5C 176.273,114.783 168.273,115.783 160.5,117.5C 154.611,117.45 148.944,118.116 143.5,119.5C 135.5,120.167 127.5,120.833 119.5,121.5C 120.67,119.721 122.336,118.721 124.5,118.5C 124.351,117.448 124.517,116.448 125,115.5C 126.699,116.406 128.533,116.739 130.5,116.5C 130.5,115.5 130.5,114.5 130.5,113.5C 127.399,113.692 124.399,114.358 121.5,115.5C 118.734,113.348 115.568,112.348 112,112.5C 107.189,113.198 102.356,113.531 97.5,113.5C 111.812,111.253 126.145,109.253 140.5,107.5C 141.167,107.5 141.833,107.5 142.5,107.5C 146.371,107.815 150.038,107.482 153.5,106.5C 157.846,106.666 162.179,106.499 166.5,106C 167.416,105.722 168.082,105.222 168.5,104.5C 177.72,104.213 186.72,103.213 195.5,101.5C 196.833,99.1667 196.833,96.8333 195.5,94.5C 193.828,93.1304 192.161,91.7971 190.5,90.5C 182.688,88.5912 175.354,85.5912 168.5,81.5C 163.252,79.9779 157.752,79.3112 152,79.5C 147.985,79.5012 144.151,79.8345 140.5,80.5C 135.5,80.5 130.5,80.5 125.5,80.5C 126.952,79.6981 128.618,79.1981 130.5,79C 130.043,78.586 129.709,78.086 129.5,77.5C 141.5,76.1667 153.5,76.1667 165.5,77.5C 169.991,79.1104 174.324,81.1104 178.5,83.5C 179.167,83.1667 179.833,82.8333 180.5,82.5C 184.528,84.8878 188.361,84.5545 192,81.5C 195.588,83.8448 199.421,84.0115 203.5,82C 201.942,81.79 200.609,81.29 199.5,80.5C 211.345,80.8283 223.012,80.4949 234.5,79.5C 233.706,76.198 233.04,72.8647 232.5,69.5C 232.517,67.4352 232.85,65.4352 233.5,63.5 Z"/></g>
<g><path style="opacity:1" fill="#b1b7b7" d="M 234.5,107.5 C 239.833,107.5 245.167,107.5 250.5,107.5C 245.354,108.551 240.021,109.218 234.5,109.5C 234.5,108.833 234.5,108.167 234.5,107.5 Z"/></g>
<g><path style="opacity:1" fill="#5b6161" d="M 265.5,105.5 C 265.5,105.833 265.5,106.167 265.5,106.5C 260.527,107.164 255.527,107.497 250.5,107.5C 255.234,105.855 260.234,105.189 265.5,105.5 Z"/></g>
<g><path style="opacity:1" fill="#464b4b" d="M 212.5,104.5 C 216.288,105.385 219.954,106.385 223.5,107.5C 220.449,107.636 217.449,107.302 214.5,106.5C 213.287,106.253 212.62,105.586 212.5,104.5 Z"/></g>
<g><path style="opacity:1" fill="#3e4645" d="M 211.5,95.5 C 214.787,96.1614 218.12,96.6614 221.5,97C 223.32,97.2004 224.653,98.0337 225.5,99.5C 221.137,98.8836 216.803,98.0503 212.5,97C 211.944,96.6174 211.611,96.1174 211.5,95.5 Z"/></g>
<g><path style="opacity:1" fill="#2c3433" d="M 200.5,77.5 C 208.65,78.4927 216.983,78.8261 225.5,78.5C 228.287,79.4767 231.287,79.81 234.5,79.5C 223.012,80.4949 211.345,80.8283 199.5,80.5C 199.263,79.209 199.596,78.209 200.5,77.5 Z"/></g>
<g><path style="opacity:1" fill="#1f2424" d="M 38.5,52.5 C 38.2172,53.2891 37.7172,53.9558 37,54.5C 36.167,73.1756 36.3337,91.8423 37.5,110.5C 38.2811,109.271 38.7811,107.938 39,106.5C 40.0658,108.099 41.5658,109.099 43.5,109.5C 44.1924,108.975 44.6924,108.308 45,107.5C 44.9536,109.313 45.1203,110.979 45.5,112.5C 47.1128,113.427 48.7795,114.261 50.5,115C 53.2507,119.421 56.9173,122.754 61.5,125C 60.944,125.383 60.6107,125.883 60.5,126.5C 58.2895,125.877 56.2895,124.877 54.5,123.5C 54.0269,122.094 53.0269,121.427 51.5,121.5C 49.6316,120.737 47.9649,119.737 46.5,118.5C 45.9976,116.915 44.9976,116.415 43.5,117C 42.536,118.725 41.8693,120.559 41.5,122.5C 41.6716,123.492 41.3382,124.158 40.5,124.5C 38.8746,121.109 37.8746,117.442 37.5,113.5C 35.8899,110.811 35.0566,107.811 35,104.5C 34.3338,87.4829 34.6671,70.4829 36,53.5C 36.6708,52.7476 37.5041,52.4142 38.5,52.5 Z"/></g>
<g><path style="opacity:1" fill="#576261" d="M 201.5,113.5 C 195.797,113.375 190.13,113.708 184.5,114.5C 187.526,112.981 190.859,112.315 194.5,112.5C 197.025,112.503 199.359,112.837 201.5,113.5 Z"/></g>
<g><path style="opacity:1" fill="#ccd0d0" d="M 184.5,114.5 C 182.123,115.887 179.457,116.721 176.5,117C 171.177,117.499 165.844,117.666 160.5,117.5C 168.273,115.783 176.273,114.783 184.5,114.5 Z"/></g>
<g><path style="opacity:1" fill="#5e6262" d="M 290.5,113.5 C 290.5,117.833 290.5,122.167 290.5,126.5C 289.209,126.737 288.209,126.404 287.5,125.5C 289.131,121.768 290.131,117.768 290.5,113.5 Z"/></g>
<g><path style="opacity:1" fill="#b1b5b5" d="M 271.5,116.5 C 267.455,118.177 263.122,118.844 258.5,118.5C 262.567,116.946 266.9,116.28 271.5,116.5 Z"/></g>
<g><path style="opacity:1" fill="#a9abac" d="M 160.5,117.5 C 155.056,118.884 149.389,119.55 143.5,119.5C 148.944,118.116 154.611,117.45 160.5,117.5 Z"/></g>
<g><path style="opacity:1" fill="#6f7473" d="M 46.5,118.5 C 45.5,118.5 44.5,118.5 43.5,118.5C 43.7709,120.38 43.1042,121.713 41.5,122.5C 41.8693,120.559 42.536,118.725 43.5,117C 44.9976,116.415 45.9976,116.915 46.5,118.5 Z"/></g>
<g><path style="opacity:1" fill="#7b7d7e" d="M 283.5,116.5 C 285.245,118.033 286.245,120.033 286.5,122.5C 285.833,122.167 285.167,121.833 284.5,121.5C 284.371,119.784 284.038,118.117 283.5,116.5 Z"/></g>
<g><path style="opacity:1" fill="#8c8e8e" d="M 37.5,113.5 C 37.8746,117.442 38.8746,121.109 40.5,124.5C 39.791,125.404 38.791,125.737 37.5,125.5C 37.5,121.5 37.5,117.5 37.5,113.5 Z"/></g>
<g><path style="opacity:1" fill="#808687" d="M 51.5,121.5 C 53.0269,121.427 54.0269,122.094 54.5,123.5C 52.9731,123.573 51.9731,122.906 51.5,121.5 Z"/></g>
<g><path style="opacity:1" fill="#7b8181" d="M 118.5,121.5 C 113.394,123.044 108.061,124.044 102.5,124.5C 103.514,123.235 105.014,122.569 107,122.5C 110.817,121.931 114.651,121.597 118.5,121.5 Z"/></g>
<g><path style="opacity:1" fill="#9ba4a3" d="M 87.5,125.5 C 82.7312,126.889 77.7312,127.556 72.5,127.5C 77.2688,126.111 82.2688,125.444 87.5,125.5 Z"/></g>
<g><path style="opacity:1" fill="#ced0d1" d="M 61.5,127.5 C 63.4417,132.056 64.1083,137.056 63.5,142.5C 64.8333,142.5 66.1667,142.5 67.5,142.5C 67.2852,140.821 67.9519,139.821 69.5,139.5C 69.1463,143.846 66.813,145.513 62.5,144.5C 62.7857,138.741 62.4524,133.075 61.5,127.5 Z"/></g>
</svg>
