<?xml version="1.0" encoding="UTF-8"?>
<!DOCTYPE svg PUBLIC "-//W3C//DTD SVG 1.1//EN" "http://www.w3.org/Graphics/SVG/1.1/DTD/svg11.dtd">
<svg xmlns="http://www.w3.org/2000/svg" version="1.1" width="296px" height="208px" style="shape-rendering:geometricPrecision; text-rendering:geometricPrecision; image-rendering:optimizeQuality; fill-rule:evenodd; clip-rule:evenodd" xmlns:xlink="http://www.w3.org/1999/xlink">
<g><path style="opacity:0.997" fill="#fdfdfd" d="M -0.5,-0.5 C 98.1667,-0.5 196.833,-0.5 295.5,-0.5C 295.5,68.8333 295.5,138.167 295.5,207.5C 196.833,207.5 98.1667,207.5 -0.5,207.5C -0.5,138.167 -0.5,68.8333 -0.5,-0.5 Z"/></g>
<g><path style="opacity:1" fill="#242424" d="M 88.5,55.5 C 125.664,54.3356 162.998,54.1689 200.5,55C 202.706,55.9768 204.706,57.1435 206.5,58.5C 203.986,58.2461 201.652,57.4127 199.5,56C 162.502,55.5 125.502,55.3333 88.5,55.5 Z"/></g>
<g><path style="opacity:1" fill="#141414" d="M 88.5,55.5 C 125.502,55.3333 162.502,55.5 199.5,56C 201.652,57.4127 203.986,58.2461 206.5,58.5C 212.997,61.34 216.33,66.34 216.5,73.5C 215.866,81.9032 216.533,89.9032 218.5,97.5C 230.911,102.312 233.578,110.312 226.5,121.5C 225.542,121.953 224.708,122.619 224,123.5C 223.774,131.88 223.274,140.214 222.5,148.5C 221.027,149.74 219.36,150.74 217.5,151.5C 217.025,154.926 216.025,158.092 214.5,161C 209.167,161.667 203.833,161.667 198.5,161C 197.956,160.283 197.289,159.783 196.5,159.5C 196.5,157.5 196.5,155.5 196.5,153.5C 161.671,152.502 126.671,152.168 91.5,152.5C 91.6323,155.57 91.299,158.57 90.5,161.5C 84.2079,162.053 78.2079,161.386 72.5,159.5C 72.6641,156.813 72.4974,154.146 72,151.5C 71.3292,150.748 70.4959,150.414 69.5,150.5C 68.1154,149.426 66.9487,148.093 66,146.5C 65.8315,138.812 65.3315,131.145 64.5,123.5C 61.9272,121.358 60.0938,118.692 59,115.5C 58.5045,113.527 58.3379,111.527 58.5,109.5C 60.1689,106.966 61.8356,104.299 63.5,101.5C 65.5792,99.127 68.2459,97.7936 71.5,97.5C 71.3336,89.16 71.5003,80.8267 72,72.5C 73.2271,67.799 75.3938,63.6323 78.5,60C 81.7581,58.2018 85.0914,56.7018 88.5,55.5 Z"/></g>
<g><path style="opacity:1" fill="#acacac" d="M 201.5,61.5 C 164.196,60.3521 126.863,60.1854 89.5,61C 88.0993,61.4101 86.766,61.9101 85.5,62.5C 85.8807,61.0689 86.8807,60.2355 88.5,60C 125.5,59.3333 162.5,59.3333 199.5,60C 200.416,60.2784 201.082,60.7784 201.5,61.5 Z"/></g>
<g><path style="opacity:1" fill="#fafafa" d="M 201.5,61.5 C 204.447,62.7805 206.781,64.7805 208.5,67.5C 210.725,77.7796 211.058,88.1129 209.5,98.5C 206.573,99.7573 204.239,101.757 202.5,104.5C 201.778,104.918 201.278,105.584 201,106.5C 200.502,109.482 200.335,112.482 200.5,115.5C 163.167,115.5 125.833,115.5 88.5,115.5C 88.81,112.287 88.4767,109.287 87.5,106.5C 85.8811,104.042 84.0478,101.709 82,99.5C 81.3292,98.7476 80.4959,98.4142 79.5,98.5C 78.5301,89.9177 78.1968,81.2511 78.5,72.5C 78.5122,67.4953 80.8455,64.162 85.5,62.5C 86.766,61.9101 88.0993,61.4101 89.5,61C 126.863,60.1854 164.196,60.3521 201.5,61.5 Z"/></g>
<g><path style="opacity:1" fill="#a8a8a8" d="M 216.5,73.5 C 217.195,81.4006 217.862,89.4006 218.5,97.5C 216.533,89.9032 215.866,81.9032 216.5,73.5 Z"/></g>
<g><path style="opacity:1" fill="#b7b7b7" d="M 78.5,72.5 C 78.1968,81.2511 78.5301,89.9177 79.5,98.5C 78.1745,94.5549 77.5079,90.2216 77.5,85.5C 77.5009,80.9866 77.8343,76.6533 78.5,72.5 Z"/></g>
<g><path style="opacity:1" fill="#252525" d="M 100.5,74.5 C 104.161,74.3501 105.161,75.8501 103.5,79C 98.8792,79.4099 97.8792,77.9099 100.5,74.5 Z"/></g>
<g><path style="opacity:1" fill="#303030" d="M 128.5,74.5 C 131.91,74.3838 133.244,76.0504 132.5,79.5C 128.065,80.0776 126.732,78.4109 128.5,74.5 Z"/></g>
<g><path style="opacity:1" fill="#232323" d="M 157.5,74.5 C 158.5,74.5 159.5,74.5 160.5,74.5C 160.5,76.1667 160.5,77.8333 160.5,79.5C 159.167,79.5 157.833,79.5 156.5,79.5C 156.366,77.7085 156.699,76.0418 157.5,74.5 Z"/></g>
<g><path style="opacity:1" fill="#272727" d="M 185.5,74.5 C 189.161,74.3501 190.161,75.8501 188.5,79C 184.707,79.4866 183.707,77.9866 185.5,74.5 Z"/></g>
<g><path style="opacity:1" fill="#ababab" d="M 208.5,67.5 C 209.966,68.347 210.8,69.6803 211,71.5C 211.167,76 211.333,80.5 211.5,85C 211.493,89.8861 210.826,94.3861 209.5,98.5C 211.058,88.1129 210.725,77.7796 208.5,67.5 Z"/></g>
<g><path style="opacity:1" fill="#1d1d1d" d="M 156.5,97.5 C 157.833,97.5 159.167,97.5 160.5,97.5C 160.5,98.8333 160.5,100.167 160.5,101.5C 159.167,101.5 157.833,101.5 156.5,101.5C 156.5,100.167 156.5,98.8333 156.5,97.5 Z"/></g>
<g><path style="opacity:1" fill="#393939" d="M 184.5,97.5 C 186.167,97.5 187.833,97.5 189.5,97.5C 189.5,98.8333 189.5,100.167 189.5,101.5C 187.833,101.5 186.167,101.5 184.5,101.5C 184.5,100.167 184.5,98.8333 184.5,97.5 Z"/></g>
<g><path style="opacity:1" fill="#272727" d="M 127.5,97.5 C 129.167,97.5 130.833,97.5 132.5,97.5C 132.5,98.8333 132.5,100.167 132.5,101.5C 130.833,101.5 129.167,101.5 127.5,101.5C 127.5,100.167 127.5,98.8333 127.5,97.5 Z"/></g>
<g><path style="opacity:1" fill="#343434" d="M 100.5,97.5 C 101.833,97.5 103.167,97.5 104.5,97.5C 104.5,98.8333 104.5,100.167 104.5,101.5C 102.833,101.5 101.167,101.5 99.5,101.5C 99.4326,100.041 99.7659,98.7079 100.5,97.5 Z"/></g>
<g><path style="opacity:1" fill="#b0b0b0" d="M 211.5,103.5 C 213.628,102.371 215.961,102.204 218.5,103C 220.32,103.2 221.653,104.034 222.5,105.5C 218.888,104.578 215.221,103.911 211.5,103.5 Z"/></g>
<g><path style="opacity:1" fill="#f6f6f6" d="M 71.5,145.5 C 72.135,136.766 71.4684,128.433 69.5,120.5C 67.0178,119.337 65.6845,117.337 65.5,114.5C 65.0653,111.162 65.7319,108.162 67.5,105.5C 68.4251,103.116 70.2585,102.116 73,102.5C 76.8925,102.612 79.8925,104.278 82,107.5C 82.4999,120.496 82.6666,133.496 82.5,146.5C 78.6286,146.815 74.9619,146.482 71.5,145.5 Z"/></g>
<g><path style="opacity:1" fill="#f2f2f2" d="M 211.5,103.5 C 215.221,103.911 218.888,104.578 222.5,105.5C 225.74,111.707 224.573,117.041 219,121.5C 218.829,129.677 218.329,137.677 217.5,145.5C 213.936,146.423 210.269,146.756 206.5,146.5C 206.333,133.163 206.5,119.829 207,106.5C 208.129,104.859 209.629,103.859 211.5,103.5 Z"/></g>
<g><path style="opacity:1" fill="#5d5d5d" d="M 63.5,101.5 C 61.8356,104.299 60.1689,106.966 58.5,109.5C 58.7256,105.9 60.3923,103.234 63.5,101.5 Z"/></g>
<g><path style="opacity:1" fill="#5f5f5f" d="M 202.5,104.5 C 202.149,108.684 201.482,112.684 200.5,116.5C 200.5,116.167 200.5,115.833 200.5,115.5C 200.335,112.482 200.502,109.482 201,106.5C 201.278,105.584 201.778,104.918 202.5,104.5 Z"/></g>
<g><path style="opacity:1" fill="#a1a1a1" d="M 67.5,105.5 C 65.7319,108.162 65.0653,111.162 65.5,114.5C 64.3065,114.03 63.6399,113.03 63.5,111.5C 63.38,108.378 64.7133,106.378 67.5,105.5 Z"/></g>
<g><path style="opacity:1" fill="#a1a1a1" d="M 87.5,106.5 C 88.4767,109.287 88.81,112.287 88.5,115.5C 125.833,115.5 163.167,115.5 200.5,115.5C 200.5,115.833 200.5,116.167 200.5,116.5C 163.336,117.664 126.002,117.831 88.5,117C 87.5442,113.606 87.2108,110.106 87.5,106.5 Z"/></g>
<g><path style="opacity:1" fill="#797979" d="M 200.5,136.5 C 200.5,131.833 200.5,127.167 200.5,122.5C 163.167,122.5 125.833,122.5 88.5,122.5C 88.5,127.167 88.5,131.833 88.5,136.5C 87.5128,131.695 87.1795,126.695 87.5,121.5C 125.5,121.5 163.5,121.5 201.5,121.5C 201.821,126.695 201.487,131.695 200.5,136.5 Z"/></g>
<g><path style="opacity:1" fill="#b3b3b3" d="M 69.5,120.5 C 71.4684,128.433 72.135,136.766 71.5,145.5C 70.806,137.266 70.1393,128.933 69.5,120.5 Z"/></g>
<g><path style="opacity:1" fill="#b7b7b7" d="M 226.5,121.5 C 226.539,122.756 226.039,123.756 225,124.5C 225.14,132.896 224.307,140.896 222.5,148.5C 223.274,140.214 223.774,131.88 224,123.5C 224.708,122.619 225.542,121.953 226.5,121.5 Z"/></g>
<g><path style="opacity:1" fill="#bfbfbf" d="M 200.5,136.5 C 163.167,137.833 125.833,137.833 88.5,136.5C 88.5,131.833 88.5,127.167 88.5,122.5C 125.833,122.5 163.167,122.5 200.5,122.5C 200.5,127.167 200.5,131.833 200.5,136.5 Z"/></g>
<g><path style="opacity:1" fill="#fdfdfd" d="M 89.5,123.5 C 126.167,123.5 162.833,123.5 199.5,123.5C 199.5,127.5 199.5,131.5 199.5,135.5C 162.833,135.5 126.167,135.5 89.5,135.5C 89.5,131.5 89.5,127.5 89.5,123.5 Z"/></g>
<g><path style="opacity:1" fill="#a7a7a7" d="M 200.5,142.5 C 200.768,144.099 200.434,145.432 199.5,146.5C 199.5,145.5 199.5,144.5 199.5,143.5C 162.5,143.5 125.5,143.5 88.5,143.5C 88.5,144.5 88.5,145.5 88.5,146.5C 87.1991,145.116 87.1991,143.616 88.5,142C 126.002,141.169 163.336,141.336 200.5,142.5 Z"/></g>
<g><path style="opacity:1" fill="#f6f6f6" d="M 199.5,146.5 C 162.5,146.5 125.5,146.5 88.5,146.5C 88.5,145.5 88.5,144.5 88.5,143.5C 125.5,143.5 162.5,143.5 199.5,143.5C 199.5,144.5 199.5,145.5 199.5,146.5 Z"/></g>
<g><path style="opacity:1" fill="#7c7c7c" d="M 200.5,142.5 C 201.451,143.919 201.784,145.585 201.5,147.5C 163.663,147.832 125.996,147.498 88.5,146.5C 125.5,146.5 162.5,146.5 199.5,146.5C 200.434,145.432 200.768,144.099 200.5,142.5 Z"/></g>
<g><path style="opacity:1" fill="#6e6e6e" d="M 217.5,145.5 C 216.129,146.787 214.295,147.453 212,147.5C 209.967,147.494 208.134,147.161 206.5,146.5C 210.269,146.756 213.936,146.423 217.5,145.5 Z"/></g>
<g><path style="opacity:1" fill="#c2c2c2" d="M 196.5,153.5 C 161.833,153.5 127.167,153.5 92.5,153.5C 92.6633,155.857 92.4966,158.19 92,160.5C 91.6174,161.056 91.1174,161.389 90.5,161.5C 91.299,158.57 91.6323,155.57 91.5,152.5C 126.671,152.168 161.671,152.502 196.5,153.5 Z"/></g>
<g><path style="opacity:1" fill="#cecece" d="M 222.5,148.5 C 219.938,152.009 218.438,156.009 218,160.5C 217.25,161.126 216.416,161.626 215.5,162C 209.5,162.667 203.5,162.667 197.5,162C 196.748,161.329 196.414,160.496 196.5,159.5C 197.289,159.783 197.956,160.283 198.5,161C 203.833,161.667 209.167,161.667 214.5,161C 216.025,158.092 217.025,154.926 217.5,151.5C 219.36,150.74 221.027,149.74 222.5,148.5 Z"/></g>
<g><path style="opacity:1" fill="#797979" d="M 69.5,150.5 C 70.4959,150.414 71.3292,150.748 72,151.5C 72.4974,154.146 72.6641,156.813 72.5,159.5C 71.9534,156.394 70.9534,153.394 69.5,150.5 Z"/></g>
<g><path style="opacity:1" fill="#bababa" d="M 77.5,152.5 C 80.5,152.5 83.5,152.5 86.5,152.5C 86.5,153.833 86.5,155.167 86.5,156.5C 83.5,156.5 80.5,156.5 77.5,156.5C 77.5,155.167 77.5,153.833 77.5,152.5 Z"/></g>
<g><path style="opacity:1" fill="#bdbdbd" d="M 202.5,152.5 C 205.5,152.5 208.5,152.5 211.5,152.5C 211.5,153.833 211.5,155.167 211.5,156.5C 208.5,156.5 205.5,156.5 202.5,156.5C 202.5,155.167 202.5,153.833 202.5,152.5 Z"/></g>
</svg>
