<?xml version="1.0" encoding="UTF-8"?>
<!DOCTYPE svg PUBLIC "-//W3C//DTD SVG 1.1//EN" "http://www.w3.org/Graphics/SVG/1.1/DTD/svg11.dtd">
<svg xmlns="http://www.w3.org/2000/svg" version="1.1" width="226px" height="200px" style="shape-rendering:geometricPrecision; text-rendering:geometricPrecision; image-rendering:optimizeQuality; fill-rule:evenodd; clip-rule:evenodd" xmlns:xlink="http://www.w3.org/1999/xlink">
<g><path style="opacity:1" fill="#fdfdfd" d="M -0.5,-0.5 C 74.8333,-0.5 150.167,-0.5 225.5,-0.5C 225.5,66.1667 225.5,132.833 225.5,199.5C 150.167,199.5 74.8333,199.5 -0.5,199.5C -0.5,132.833 -0.5,66.1667 -0.5,-0.5 Z"/></g>
<g><path style="opacity:1" fill="#b8b8b8" d="M 119.5,25.5 C 122.518,25.3354 125.518,25.502 128.5,26C 129.416,26.2784 130.082,26.7784 130.5,27.5C 126.613,27.3541 122.946,26.6874 119.5,25.5 Z"/></g>
<g><path style="opacity:1" fill="#232021" d="M 119.5,25.5 C 122.946,26.6874 126.613,27.3541 130.5,27.5C 137.352,28.0854 143.519,30.4187 149,34.5C 149.667,42.1667 149.667,49.8333 149,57.5C 146.374,60.2308 143.207,62.0642 139.5,63C 121.993,66.3482 104.326,67.3482 86.5,66C 78.3971,65.3577 71.2304,62.5244 65,57.5C 64.3333,49.8333 64.3333,42.1667 65,34.5C 66.7309,32.3834 68.8976,30.8834 71.5,30C 75.0094,29.5781 78.3428,28.5781 81.5,27C 94.1366,25.7727 106.803,25.2727 119.5,25.5 Z"/></g>
<g><path style="opacity:1" fill="#232021" d="M 111.5,174.5 C 108.5,178.5 105.5,178.5 102.5,174.5C 102.5,141.167 102.5,107.833 102.5,74.5C 105.5,74.5 108.5,74.5 111.5,74.5C 111.5,107.833 111.5,141.167 111.5,174.5 Z"/></g>
<g><path style="opacity:1" fill="#383536" d="M 111.5,174.5 C 111.5,141.167 111.5,107.833 111.5,74.5C 108.5,74.5 105.5,74.5 102.5,74.5C 102.5,107.833 102.5,141.167 102.5,174.5C 101.502,141.004 101.168,107.337 101.5,73.5C 105.167,73.5 108.833,73.5 112.5,73.5C 112.832,107.337 112.498,141.004 111.5,174.5 Z"/></g>
<g><path style="opacity:1" fill="#252324" d="M 94.5,132.5 C 94.5,134.5 94.5,136.5 94.5,138.5C 91.8333,138.5 89.1667,138.5 86.5,138.5C 82.5317,137.525 78.5317,136.525 74.5,135.5C 73.8333,135.833 73.1667,136.167 72.5,136.5C 70.4903,143.536 68.3237,150.536 66,157.5C 63.7235,164.085 60.0568,165.085 55,160.5C 54.8333,159.333 54.6667,158.167 54.5,157C 63.3869,128.966 72.0535,100.8 80.5,72.5C 84.6804,72.1885 88.6804,72.8552 92.5,74.5C 88.26,87.7198 83.9266,100.887 79.5,114C 84.447,113.512 89.447,113.012 94.5,112.5C 94.5,114.833 94.5,117.167 94.5,119.5C 88.655,119.151 82.9883,119.984 77.5,122C 73.9804,127.101 75.3137,130.101 81.5,131C 85.7514,132.195 90.0848,132.695 94.5,132.5 Z"/></g>
<g><path style="opacity:1" fill="#272425" d="M 121.5,72.5 C 125.5,72.5 129.5,72.5 133.5,72.5C 142.017,100.907 150.684,129.241 159.5,157.5C 157.64,164.107 154.14,165.107 149,160.5C 145.986,152.293 143.486,143.96 141.5,135.5C 134.356,137.767 127.023,138.767 119.5,138.5C 119.5,136.5 119.5,134.5 119.5,132.5C 123.534,132.328 127.534,131.828 131.5,131C 138.564,130.119 139.898,127.119 135.5,122C 130.37,119.92 125.037,119.087 119.5,119.5C 119.5,117.167 119.5,114.833 119.5,112.5C 123.923,112.626 128.256,113.293 132.5,114.5C 132.833,113.667 133.167,112.833 133.5,112C 129.189,98.9035 125.189,85.7368 121.5,72.5 Z"/></g>
<g><path style="opacity:1" fill="#a29e9f" d="M 94.5,132.5 C 95.4682,134.607 95.8016,136.941 95.5,139.5C 92.2869,139.81 89.2869,139.477 86.5,138.5C 89.1667,138.5 91.8333,138.5 94.5,138.5C 94.5,136.5 94.5,134.5 94.5,132.5 Z"/></g>
</svg>
