<?xml version="1.0" encoding="UTF-8"?>
<!DOCTYPE svg PUBLIC "-//W3C//DTD SVG 1.1//EN" "http://www.w3.org/Graphics/SVG/1.1/DTD/svg11.dtd">
<svg xmlns="http://www.w3.org/2000/svg" version="1.1" width="340px" height="210px" style="shape-rendering:geometricPrecision; text-rendering:geometricPrecision; image-rendering:optimizeQuality; fill-rule:evenodd; clip-rule:evenodd" xmlns:xlink="http://www.w3.org/1999/xlink">
<g><path style="opacity:1" fill="#fdfdfd" d="M -0.5,-0.5 C 112.833,-0.5 226.167,-0.5 339.5,-0.5C 339.5,69.5 339.5,139.5 339.5,209.5C 226.167,209.5 112.833,209.5 -0.5,209.5C -0.5,139.5 -0.5,69.5 -0.5,-0.5 Z"/></g>
<g><path style="opacity:1" fill="#7c7c7c" d="M 34.5,19.5 C 40.9969,18.6812 47.6636,18.6812 54.5,19.5C 54.5,19.8333 54.5,20.1667 54.5,20.5C 47.8259,20.2871 41.1593,19.9538 34.5,19.5 Z"/></g>
<g><path style="opacity:1" fill="#c2c2c2" d="M 54.5,20.5 C 54.5,20.1667 54.5,19.8333 54.5,19.5C 73.039,19.6079 91.3723,20.6079 109.5,22.5C 102.167,22.1667 94.8333,21.8333 87.5,21.5C 76.5041,21.0558 65.5041,20.7225 54.5,20.5 Z"/></g>
<g><path style="opacity:1" fill="#3b3b3b" d="M 34.5,19.5 C 41.1593,19.9538 47.8259,20.2871 54.5,20.5C 65.5041,20.7225 76.5041,21.0558 87.5,21.5C 85.0122,23.3878 82.0122,24.0545 78.5,23.5C 64.8361,23.0759 51.1694,22.7426 37.5,22.5C 36.5012,70.3304 36.1678,118.33 36.5,166.5C 38.5,166.5 40.5,166.5 42.5,166.5C 46.0419,166.187 49.3752,166.521 52.5,167.5C 46.5907,168.455 40.5907,168.789 34.5,168.5C 34.5,118.833 34.5,69.1667 34.5,19.5 Z"/></g>
<g><path style="opacity:1" fill="#383838" d="M 249.5,21.5 C 251.833,21.5 254.167,21.5 256.5,21.5C 262.69,21.1771 268.69,21.5104 274.5,22.5C 268.021,23.4907 261.354,23.824 254.5,23.5C 247.492,23.6663 240.492,23.4996 233.5,23C 239.016,22.8267 244.349,22.3267 249.5,21.5 Z"/></g>
<g><path style="opacity:1" fill="#b4b4b4" d="M 37.5,22.5 C 37.5,70.1667 37.5,117.833 37.5,165.5C 39.1667,165.5 40.8333,165.5 42.5,165.5C 42.5,165.833 42.5,166.167 42.5,166.5C 40.5,166.5 38.5,166.5 36.5,166.5C 36.1678,118.33 36.5012,70.3304 37.5,22.5 Z"/></g>
<g><path style="opacity:1" fill="#f5f5f5" d="M 37.5,22.5 C 51.1694,22.7426 64.8361,23.0759 78.5,23.5C 94.6544,24.7039 110.988,25.3705 127.5,25.5C 155.342,26.7575 183.342,26.7575 211.5,25.5C 226.023,25.5792 240.356,24.9125 254.5,23.5C 261.354,23.824 268.021,23.4907 274.5,22.5C 283.167,22.5 291.833,22.5 300.5,22.5C 300.667,70.1678 300.5,117.834 300,165.5C 298.6,166.116 297.1,166.449 295.5,166.5C 288.334,165.986 281.334,165.319 274.5,164.5C 262.375,162.732 250.042,161.732 237.5,161.5C 222.832,160.86 208.165,160.193 193.5,159.5C 177.167,159.5 160.833,159.5 144.5,159.5C 130.812,159.817 117.145,160.484 103.5,161.5C 83.296,162.035 63.296,163.368 43.5,165.5C 43.1667,165.5 42.8333,165.5 42.5,165.5C 40.8333,165.5 39.1667,165.5 37.5,165.5C 37.5,117.833 37.5,70.1667 37.5,22.5 Z"/></g>
<g><path style="opacity:1" fill="#555555" d="M 87.5,21.5 C 94.8333,21.8333 102.167,22.1667 109.5,22.5C 114.363,22.1805 119.03,22.5139 123.5,23.5C 118.156,23.334 112.823,23.5006 107.5,24C 114.346,24.1717 121.013,24.6717 127.5,25.5C 110.988,25.3705 94.6544,24.7039 78.5,23.5C 82.0122,24.0545 85.0122,23.3878 87.5,21.5 Z"/></g>
<g><path style="opacity:1" fill="#696969" d="M 249.5,21.5 C 244.349,22.3267 239.016,22.8267 233.5,23C 240.492,23.4996 247.492,23.6663 254.5,23.5C 240.356,24.9125 226.023,25.5792 211.5,25.5C 217.987,24.6717 224.654,24.1717 231.5,24C 219.838,23.5001 208.171,23.3335 196.5,23.5C 213.993,22.4334 231.66,21.7667 249.5,21.5 Z"/></g>
<g><path style="opacity:1" fill="#525252" d="M 123.5,23.5 C 147.833,23.5 172.167,23.5 196.5,23.5C 208.171,23.3335 219.838,23.5001 231.5,24C 224.654,24.1717 217.987,24.6717 211.5,25.5C 183.342,26.7575 155.342,26.7575 127.5,25.5C 121.013,24.6717 114.346,24.1717 107.5,24C 112.823,23.5006 118.156,23.334 123.5,23.5 Z"/></g>
<g><path style="opacity:1" fill="#9d9d9d" d="M 276.5,27.5 C 279.482,26.8351 282.648,26.5018 286,26.5C 289.576,26.5152 292.742,27.1818 295.5,28.5C 289.256,27.5422 282.923,27.2088 276.5,27.5 Z"/></g>
<g><path style="opacity:1" fill="#909090" d="M 41.5,27.5 C 43.3035,26.838 45.3035,26.5046 47.5,26.5C 65.6797,27.0721 83.6797,28.0721 101.5,29.5C 90.4935,29.3417 79.4935,29.0084 68.5,28.5C 59.4875,28.4404 50.4875,28.1071 41.5,27.5 Z"/></g>
<g><path style="opacity:1" fill="#cbcbcb" d="M 274.5,27.5 C 246.345,29.0643 218.012,30.0643 189.5,30.5C 169.66,30.8304 149.993,30.4971 130.5,29.5C 178.509,29.4331 226.509,28.7664 274.5,27.5 Z"/></g>
<g><path style="opacity:1" fill="#fefefe" d="M 44.5,30.5 C 56.8216,31.1795 69.1549,31.5128 81.5,31.5C 89.0356,32.2288 96.7022,32.8955 104.5,33.5C 148.19,36.3989 191.857,36.0656 235.5,32.5C 254.471,31.1009 273.471,30.4343 292.5,30.5C 292.5,71.1667 292.5,111.833 292.5,152.5C 282.5,152.167 272.5,151.833 262.5,151.5C 239.413,148.6 216.08,147.267 192.5,147.5C 191.167,147.5 189.833,147.5 188.5,147.5C 159.326,146.358 129.993,146.524 100.5,148C 88.5762,148.068 76.9095,149.235 65.5,151.5C 58.4903,151.668 51.4903,152.001 44.5,152.5C 44.5,111.833 44.5,71.1667 44.5,30.5 Z"/></g>
<g><path style="opacity:1" fill="#8c8c8c" d="M 81.5,31.5 C 95.3577,31.4172 109.024,32.0839 122.5,33.5C 116.5,33.5 110.5,33.5 104.5,33.5C 96.7022,32.8955 89.0356,32.2288 81.5,31.5 Z"/></g>
<g><path style="opacity:1" fill="#515151" d="M 274.5,27.5 C 275.167,27.5 275.833,27.5 276.5,27.5C 282.923,27.2088 289.256,27.5422 295.5,28.5C 295.5,70.8333 295.5,113.167 295.5,155.5C 279.509,154.667 263.509,154 247.5,153.5C 245.585,153.784 243.919,153.451 242.5,152.5C 249.022,152.823 255.355,152.49 261.5,151.5C 261.833,151.5 262.167,151.5 262.5,151.5C 272.5,151.833 282.5,152.167 292.5,152.5C 292.5,111.833 292.5,71.1667 292.5,30.5C 273.471,30.4343 254.471,31.1009 235.5,32.5C 197.84,33.3566 160.174,33.6899 122.5,33.5C 109.024,32.0839 95.3577,31.4172 81.5,31.5C 69.1549,31.5128 56.8216,31.1795 44.5,30.5C 52.5,29.8333 60.5,29.1667 68.5,28.5C 79.4935,29.0084 90.4935,29.3417 101.5,29.5C 104.167,29.5 106.833,29.5 109.5,29.5C 112.977,30.3227 116.644,30.8227 120.5,31C 143.67,31.8297 166.67,31.663 189.5,30.5C 218.012,30.0643 246.345,29.0643 274.5,27.5 Z"/></g>
<g><path style="opacity:1" fill="#6c6c6c" d="M 109.5,29.5 C 116.5,29.5 123.5,29.5 130.5,29.5C 149.993,30.4971 169.66,30.8304 189.5,30.5C 166.67,31.663 143.67,31.8297 120.5,31C 116.644,30.8227 112.977,30.3227 109.5,29.5 Z"/></g>
<g><path style="opacity:1" fill="#dfdfdf" d="M 235.5,32.5 C 191.857,36.0656 148.19,36.3989 104.5,33.5C 110.5,33.5 116.5,33.5 122.5,33.5C 160.174,33.6899 197.84,33.3566 235.5,32.5 Z"/></g>
<g><path style="opacity:1" fill="#2c2c2c" d="M 41.5,27.5 C 50.4875,28.1071 59.4875,28.4404 68.5,28.5C 60.5,29.1667 52.5,29.8333 44.5,30.5C 43.6674,71.3313 43.1674,112.331 43,153.5C 42.8326,112.331 42.3326,71.3313 41.5,30.5C 41.5,29.5 41.5,28.5 41.5,27.5 Z"/></g>
<g><path style="opacity:1" fill="#8f8f8f" d="M 302.5,168.5 C 302.5,118.833 302.5,69.1667 302.5,19.5C 293.485,19.5009 284.485,19.8342 275.5,20.5C 276.952,19.6981 278.618,19.1981 280.5,19C 288.159,18.5003 295.826,18.3336 303.5,18.5C 303.832,68.6694 303.499,118.669 302.5,168.5 Z"/></g>
<g><path style="opacity:1" fill="#c9c9c9" d="M 188.5,147.5 C 152.968,147.097 117.635,148.097 82.5,150.5C 76.8387,150.907 71.172,151.24 65.5,151.5C 76.9095,149.235 88.5762,148.068 100.5,148C 129.993,146.524 159.326,146.358 188.5,147.5 Z"/></g>
<g><path style="opacity:1" fill="#585858" d="M 188.5,147.5 C 189.833,147.5 191.167,147.5 192.5,147.5C 192.5,147.833 192.5,148.167 192.5,148.5C 173.497,148.333 154.497,148.5 135.5,149C 152.338,149.168 169.005,149.668 185.5,150.5C 160.158,150.345 134.824,150.678 109.5,151.5C 100.682,150.507 91.6822,150.173 82.5,150.5C 117.635,148.097 152.968,147.097 188.5,147.5 Z"/></g>
<g><path style="opacity:1" fill="#3c3d3d" d="M 192.5,148.5 C 197.5,148.5 202.5,148.5 207.5,148.5C 209.969,149.317 212.635,149.817 215.5,150C 211.179,150.499 206.846,150.666 202.5,150.5C 196.833,150.5 191.167,150.5 185.5,150.5C 169.005,149.668 152.338,149.168 135.5,149C 154.497,148.5 173.497,148.333 192.5,148.5 Z"/></g>
<g><path style="opacity:1" fill="#c5c5c5" d="M 192.5,148.5 C 192.5,148.167 192.5,147.833 192.5,147.5C 216.08,147.267 239.413,148.6 262.5,151.5C 262.167,151.5 261.833,151.5 261.5,151.5C 254.142,151.582 246.809,151.248 239.5,150.5C 229.014,149.385 218.347,148.719 207.5,148.5C 202.5,148.5 197.5,148.5 192.5,148.5 Z"/></g>
<g><path style="opacity:1" fill="#656565" d="M 207.5,148.5 C 218.347,148.719 229.014,149.385 239.5,150.5C 234.156,150.334 228.823,150.501 223.5,151C 228.351,151.174 233.018,151.674 237.5,152.5C 225.631,152.714 213.964,152.047 202.5,150.5C 206.846,150.666 211.179,150.499 215.5,150C 212.635,149.817 209.969,149.317 207.5,148.5 Z"/></g>
<g><path style="opacity:1" fill="#505050" d="M 41.5,30.5 C 42.3326,71.3313 42.8326,112.331 43,153.5C 43.1674,112.331 43.6674,71.3313 44.5,30.5C 44.5,71.1667 44.5,111.833 44.5,152.5C 51.4903,152.001 58.4903,151.668 65.5,151.5C 71.172,151.24 76.8387,150.907 82.5,150.5C 91.6822,150.173 100.682,150.507 109.5,151.5C 98.5313,152.54 87.5313,153.206 76.5,153.5C 64.8306,154.13 53.164,154.796 41.5,155.5C 41.5,113.833 41.5,72.1667 41.5,30.5 Z"/></g>
<g><path style="opacity:1" fill="#2f2f2f" d="M 239.5,150.5 C 246.809,151.248 254.142,151.582 261.5,151.5C 255.355,152.49 249.022,152.823 242.5,152.5C 240.833,152.5 239.167,152.5 237.5,152.5C 233.018,151.674 228.351,151.174 223.5,151C 228.823,150.501 234.156,150.334 239.5,150.5 Z"/></g>
<g><path style="opacity:1" fill="#bcbcbc" d="M 247.5,153.5 C 263.509,154 279.509,154.667 295.5,155.5C 293.527,156.163 291.361,156.496 289,156.5C 274.979,155.965 261.145,154.965 247.5,153.5 Z"/></g>
<g><path style="opacity:1" fill="#b9b9b9" d="M 76.5,153.5 C 64.9061,155.979 53.2395,156.646 41.5,155.5C 53.164,154.796 64.8306,154.13 76.5,153.5 Z"/></g>
<g><path style="opacity:1" fill="#2b2b2b" d="M 144.5,159.5 C 160.833,159.5 177.167,159.5 193.5,159.5C 195.969,160.317 198.635,160.817 201.5,161C 196.511,161.499 191.511,161.666 186.5,161.5C 173.167,161.5 159.833,161.5 146.5,161.5C 142.818,161.665 139.152,161.499 135.5,161C 138.695,160.819 141.695,160.319 144.5,159.5 Z"/></g>
<g><path style="opacity:1" fill="#c0c0c0" d="M 146.5,161.5 C 159.833,161.5 173.167,161.5 186.5,161.5C 186.5,161.833 186.5,162.167 186.5,162.5C 168.826,162.539 151.16,162.873 133.5,163.5C 137.833,162.833 142.167,162.167 146.5,161.5 Z"/></g>
<g><path style="opacity:1" fill="#999999" d="M 103.5,161.5 C 83.7116,163.753 63.7116,165.086 43.5,165.5C 63.296,163.368 83.296,162.035 103.5,161.5 Z"/></g>
<g><path style="opacity:1" fill="#515151" d="M 144.5,159.5 C 141.695,160.319 138.695,160.819 135.5,161C 139.152,161.499 142.818,161.665 146.5,161.5C 142.167,162.167 137.833,162.833 133.5,163.5C 119.498,163.773 105.498,164.106 91.5,164.5C 87.3798,172.729 82.7131,180.729 77.5,188.5C 69.2062,190.37 66.0396,187.037 68,178.5C 69.5403,174.581 71.7069,171.081 74.5,168C 67.1742,167.5 59.8409,167.334 52.5,167.5C 49.3752,166.521 46.0419,166.187 42.5,166.5C 42.5,166.167 42.5,165.833 42.5,165.5C 42.8333,165.5 43.1667,165.5 43.5,165.5C 63.7116,165.086 83.7116,163.753 103.5,161.5C 117.145,160.484 130.812,159.817 144.5,159.5 Z"/></g>
<g><path style="opacity:1" fill="#f2f2f2" d="M 78.5,166.5 C 81.5184,166.335 84.5184,166.502 87.5,167C 84.0424,173.418 80.209,179.585 76,185.5C 71.0809,187.372 69.0809,185.705 70,180.5C 73.0957,175.972 75.9291,171.305 78.5,166.5 Z"/></g>
<g><path style="opacity:1" fill="#515151" d="M 302.5,168.5 C 289.482,167.865 276.482,167.865 263.5,168.5C 266.387,172.94 268.72,177.607 270.5,182.5C 270.024,186.641 267.691,188.641 263.5,188.5C 260.675,188.881 258.509,187.881 257,185.5C 253.193,178.379 249.027,171.546 244.5,165C 225.177,163.866 205.844,163.032 186.5,162.5C 186.5,162.167 186.5,161.833 186.5,161.5C 191.511,161.666 196.511,161.499 201.5,161C 198.635,160.817 195.969,160.317 193.5,159.5C 208.165,160.193 222.832,160.86 237.5,161.5C 249.58,163.763 261.914,164.763 274.5,164.5C 281.334,165.319 288.334,165.986 295.5,166.5C 297.1,166.449 298.6,166.116 300,165.5C 300.5,117.834 300.667,70.1678 300.5,22.5C 291.833,22.5 283.167,22.5 274.5,22.5C 268.69,21.5104 262.69,21.1771 256.5,21.5C 262.645,20.5098 268.978,20.1765 275.5,20.5C 284.485,19.8342 293.485,19.5009 302.5,19.5C 302.5,69.1667 302.5,118.833 302.5,168.5 Z"/></g>
<g><path style="opacity:1" fill="#f3f3f3" d="M 259.5,168.5 C 261.713,172.571 264.213,176.571 267,180.5C 267.919,185.705 265.919,187.372 261,185.5C 257.475,179.769 253.975,174.103 250.5,168.5C 253.309,165.975 256.309,165.975 259.5,168.5 Z"/></g>
<g><path style="opacity:1" fill="#9a9a9a" d="M 259.5,168.5 C 256.309,165.975 253.309,165.975 250.5,168.5C 249.596,167.791 249.263,166.791 249.5,165.5C 252.518,165.335 255.518,165.502 258.5,166C 259.252,166.671 259.586,167.504 259.5,168.5 Z"/></g>
<g><path style="opacity:1" fill="#959595" d="M 237.5,161.5 C 250.042,161.732 262.375,162.732 274.5,164.5C 261.914,164.763 249.58,163.763 237.5,161.5 Z"/></g>
</svg>
