<?xml version="1.0" encoding="UTF-8"?>
<!DOCTYPE svg PUBLIC "-//W3C//DTD SVG 1.1//EN" "http://www.w3.org/Graphics/SVG/1.1/DTD/svg11.dtd">
<svg xmlns="http://www.w3.org/2000/svg" version="1.1" width="172px" height="204px" style="shape-rendering:geometricPrecision; text-rendering:geometricPrecision; image-rendering:optimizeQuality; fill-rule:evenodd; clip-rule:evenodd" xmlns:xlink="http://www.w3.org/1999/xlink">
<g><path style="opacity:0.985" fill="#fdfdfd" d="M 5.5,-0.5 C 58.8333,-0.5 112.167,-0.5 165.5,-0.5C 165.5,67.5 165.5,135.5 165.5,203.5C 112.167,203.5 58.8333,203.5 5.5,203.5C 5.5,135.5 5.5,67.5 5.5,-0.5 Z"/></g>
<g><path style="opacity:1" fill="#050505" d="M 55.5,82.5 C 53.8333,83.5 52.5,84.8333 51.5,86.5C 49.2699,88.5351 48.9365,90.8684 50.5,93.5C 80.6621,94.4981 110.995,94.8315 141.5,94.5C 141.5,97.1667 141.5,99.8333 141.5,102.5C 139.073,117.086 131.406,127.92 118.5,135C 117.426,135.739 116.759,136.739 116.5,138C 123.644,158.285 131.644,178.118 140.5,197.5C 137.287,197.81 134.287,197.477 131.5,196.5C 129.553,186.291 126.22,176.624 121.5,167.5C 121.737,166.209 121.404,165.209 120.5,164.5C 117.687,156.057 114.687,147.724 111.5,139.5C 105.557,140.601 99.5574,141.268 93.5,141.5C 88.0776,141.302 82.7443,140.802 77.5,140C 74.5205,147.773 71.8539,155.606 69.5,163.5C 68.6618,163.842 68.3284,164.508 68.5,165.5C 67.6618,165.842 67.3284,166.508 67.5,167.5C 64.8234,175.193 61.9901,182.86 59,190.5C 58.5702,193.192 58.7369,195.859 59.5,198.5C 56.5,198.5 53.5,198.5 50.5,198.5C 58.0498,178.025 65.7165,157.525 73.5,137C 58.8205,128.65 49.9871,116.15 47,99.5C 46.3333,98.1667 45.3333,97.1667 44,96.5C 43.6667,94.5 43.3333,92.5 43,90.5C 26.9291,76.1606 23.7624,59.4939 33.5,40.5C 34.4013,39.7095 35.0679,38.7095 35.5,37.5C 39.3701,30.6226 44.0368,24.2893 49.5,18.5C 49.5,17.8333 49.8333,17.5 50.5,17.5C 69.185,2.7464 87.8517,2.91307 106.5,18C 89.1302,39.2575 72.1302,60.7575 55.5,82.5 Z"/></g>
<g><path style="opacity:1" fill="#181818" d="M 50.5,17.5 C 49.8333,17.5 49.5,17.8333 49.5,18.5C 46.8229,17.3855 44.1562,17.3855 41.5,18.5C 39.2069,22.7576 36.2069,26.4242 32.5,29.5C 31.2253,32.9604 32.2253,35.6271 35.5,37.5C 35.0679,38.7095 34.4013,39.7095 33.5,40.5C 32.3599,38.2198 31.1932,35.8864 30,33.5C 29.1834,30.0357 29.5167,26.7024 31,23.5C 33.2848,21.0934 35.4514,18.5934 37.5,16C 42.1355,15.0613 46.4689,15.5613 50.5,17.5 Z"/></g>
<g><path style="opacity:1" fill="#eaeaea" d="M 49.5,18.5 C 44.0368,24.2893 39.3701,30.6226 35.5,37.5C 32.2253,35.6271 31.2253,32.9604 32.5,29.5C 36.2069,26.4242 39.2069,22.7576 41.5,18.5C 44.1562,17.3855 46.8229,17.3855 49.5,18.5 Z"/></g>
<g><path style="opacity:1" fill="#101010" d="M 139.5,88.5 C 139.5,89.5 139.5,90.5 139.5,91.5C 110.662,91.8313 81.9951,91.498 53.5,90.5C 52.6799,86.7779 54.0132,84.4446 57.5,83.5C 59.0528,86.254 61.3861,87.0874 64.5,86C 64.6238,80.81 66.4571,76.31 70,72.5C 68.756,77.2527 69.9227,81.4194 73.5,85C 75.1667,85.6667 76.8333,85.6667 78.5,85C 78.6328,78.9293 78.7995,72.7626 79,66.5C 81.513,62.4359 80.3463,59.9359 75.5,59C 78.5424,56.9223 81.209,57.4223 83.5,60.5C 92.6962,55.9334 93.5296,56.9334 86,63.5C 80.6311,71.4536 81.7978,78.287 89.5,84C 92.146,84.4974 94.8127,84.6641 97.5,84.5C 98.4644,78.2615 96.1311,73.7615 90.5,71C 96.0223,70.515 100.189,72.6817 103,77.5C 103.241,80.2889 103.908,82.9556 105,85.5C 107.167,87 108.667,86.5 109.5,84C 108.235,79.7396 108.568,75.573 110.5,71.5C 109.293,69.5514 107.627,68.0514 105.5,67C 108.516,66.336 111.349,66.836 114,68.5C 122.628,63.0776 124.961,65.0776 121,74.5C 116.567,78.2278 116.4,82.0611 120.5,86C 124.436,87.4612 126.936,86.2946 128,82.5C 129.351,80.981 130.851,79.6477 132.5,78.5C 134.85,81.8453 137.183,85.1787 139.5,88.5 Z"/></g>
<g><path style="opacity:1" fill="#717171" d="M 55.5,82.5 C 56.4916,82.3284 57.1583,82.6618 57.5,83.5C 54.0132,84.4446 52.6799,86.7779 53.5,90.5C 52.8333,89.1667 52.1667,87.8333 51.5,86.5C 52.5,84.8333 53.8333,83.5 55.5,82.5 Z"/></g>
<g><path style="opacity:1" fill="#e7e7e7" d="M 51.5,86.5 C 52.1667,87.8333 52.8333,89.1667 53.5,90.5C 81.9951,91.498 110.662,91.8313 139.5,91.5C 139.5,90.5 139.5,89.5 139.5,88.5C 140.233,90.2944 141.233,91.9611 142.5,93.5C 111.833,93.5 81.1667,93.5 50.5,93.5C 48.9365,90.8684 49.2699,88.5351 51.5,86.5 Z"/></g>
<g><path style="opacity:1" fill="#232323" d="M 50.5,93.5 C 81.1667,93.5 111.833,93.5 142.5,93.5C 142.81,96.7131 142.477,99.7131 141.5,102.5C 141.5,99.8333 141.5,97.1667 141.5,94.5C 110.995,94.8315 80.6621,94.4981 50.5,93.5 Z"/></g>
<g><path style="opacity:1" fill="#fbfbfb" d="M 120.5,164.5 C 120.5,164.833 120.5,165.167 120.5,165.5C 103.134,166.152 86.1338,165.486 69.5,163.5C 71.8539,155.606 74.5205,147.773 77.5,140C 82.7443,140.802 88.0776,141.302 93.5,141.5C 99.5574,141.268 105.557,140.601 111.5,139.5C 114.687,147.724 117.687,156.057 120.5,164.5 Z"/></g>
<g><path style="opacity:1" fill="#dddddd" d="M 69.5,163.5 C 86.1338,165.486 103.134,166.152 120.5,165.5C 103.167,166.833 85.8333,166.833 68.5,165.5C 68.3284,164.508 68.6618,163.842 69.5,163.5 Z"/></g>
<g><path style="opacity:1" fill="#555555" d="M 120.5,164.5 C 121.404,165.209 121.737,166.209 121.5,167.5C 103.5,167.5 85.5,167.5 67.5,167.5C 67.3284,166.508 67.6618,165.842 68.5,165.5C 85.8333,166.833 103.167,166.833 120.5,165.5C 120.5,165.167 120.5,164.833 120.5,164.5 Z"/></g>
<g><path style="opacity:1" fill="#787878" d="M 131.5,196.5 C 134.287,197.477 137.287,197.81 140.5,197.5C 137.313,198.806 133.98,198.806 130.5,197.5C 130.624,196.893 130.957,196.56 131.5,196.5 Z"/></g>
</svg>
