<?xml version="1.0" encoding="UTF-8"?>
<!DOCTYPE svg PUBLIC "-//W3C//DTD SVG 1.1//EN" "http://www.w3.org/Graphics/SVG/1.1/DTD/svg11.dtd">
<svg xmlns="http://www.w3.org/2000/svg" version="1.1" width="266px" height="218px" style="shape-rendering:geometricPrecision; text-rendering:geometricPrecision; image-rendering:optimizeQuality; fill-rule:evenodd; clip-rule:evenodd" xmlns:xlink="http://www.w3.org/1999/xlink">
<g><path style="opacity:1" fill="#fcfcfc" d="M -0.5,-0.5 C 88.1667,-0.5 176.833,-0.5 265.5,-0.5C 265.5,72.1667 265.5,144.833 265.5,217.5C 176.833,217.5 88.1667,217.5 -0.5,217.5C -0.5,144.833 -0.5,72.1667 -0.5,-0.5 Z"/></g>
<g><path style="opacity:1" fill="#0f0f0f" d="M 186.5,69.5 C 181.985,68.1876 177.318,68.1876 172.5,69.5C 172.624,70.1067 172.957,70.44 173.5,70.5C 176.163,81.1624 178.83,91.8291 181.5,102.5C 196.598,100.152 209.432,104.485 220,115.5C 231.303,132.088 231.303,148.755 220,165.5C 202.094,182.743 183.261,183.909 163.5,169C 149.452,152.596 147.952,135.096 159,116.5C 163.998,111.169 169.831,107.003 176.5,104C 175.58,101.159 174.58,98.326 173.5,95.5C 160.876,106.955 148.376,118.622 136,130.5C 139.123,138.646 137.623,145.813 131.5,152C 121.216,156.52 113.883,153.687 109.5,143.5C 108.081,142.549 106.415,142.216 104.5,142.5C 104.5,143.833 104.5,145.167 104.5,146.5C 104.435,149.428 103.768,152.095 102.5,154.5C 100.341,157.484 98.6745,160.817 97.5,164.5C 81.4298,181.139 63.4298,183.639 43.5,172C 35.2628,164.946 30.2628,156.113 28.5,145.5C 28.3347,141.818 28.5014,138.152 29,134.5C 30.1434,131.223 30.9767,127.89 31.5,124.5C 38.1829,110.556 49.3496,102.889 65,101.5C 72.6436,102.762 80.1436,104.262 87.5,106C 92.4066,100.602 97.0732,95.1024 101.5,89.5C 102.695,89.1344 103.361,88.301 103.5,87C 102.866,83.9221 101.866,81.0888 100.5,78.5C 99.0721,75.6967 98.4054,72.6967 98.5,69.5C 94.4862,69.6655 90.4862,69.4988 86.5,69C 84.4732,67.6043 84.1398,65.9376 85.5,64C 97.5,63.3333 109.5,63.3333 121.5,64C 124.133,65.6889 124.133,67.1889 121.5,68.5C 115.5,68.5 109.5,68.5 103.5,68.5C 103.41,71.1522 104.076,73.4855 105.5,75.5C 107.101,78.5502 108.101,81.8835 108.5,85.5C 129.337,86.8282 150.337,86.8282 171.5,85.5C 171.006,83.9745 170.339,82.6412 169.5,81.5C 168.987,77.447 168.154,73.447 167,69.5C 163.924,68.7117 160.758,68.2117 157.5,68C 156.14,66.0624 156.473,64.3957 158.5,63C 168.167,62.3333 177.833,62.3333 187.5,63C 196.101,66.3687 199.268,72.5354 197,81.5C 193.591,87.4553 188.424,90.122 181.5,89.5C 181.215,87.712 181.548,86.0453 182.5,84.5C 189.839,83.6646 192.672,79.6646 191,72.5C 189.729,71.1175 188.229,70.1175 186.5,69.5 Z"/></g>
<g><path style="opacity:1" fill="#424242" d="M 121.5,68.5 C 115.986,69.1665 110.319,69.8332 104.5,70.5C 105.309,72.0709 105.643,73.7376 105.5,75.5C 104.076,73.4855 103.41,71.1522 103.5,68.5C 109.5,68.5 115.5,68.5 121.5,68.5 Z"/></g>
<g><path style="opacity:1" fill="#aeaeae" d="M 186.5,69.5 C 181.968,69.1818 177.634,69.5151 173.5,70.5C 172.957,70.44 172.624,70.1067 172.5,69.5C 177.318,68.1876 181.985,68.1876 186.5,69.5 Z"/></g>
<g><path style="opacity:1" fill="#969696" d="M 100.5,78.5 C 101.866,81.0888 102.866,83.9221 103.5,87C 103.361,88.301 102.695,89.1344 101.5,89.5C 101.276,85.8212 100.942,82.1545 100.5,78.5 Z"/></g>
<g><path style="opacity:1" fill="#cacaca" d="M 169.5,81.5 C 170.339,82.6412 171.006,83.9745 171.5,85.5C 150.337,86.8282 129.337,86.8282 108.5,85.5C 128.833,85.5 149.167,85.5 169.5,85.5C 169.5,84.1667 169.5,82.8333 169.5,81.5 Z"/></g>
<g><path style="opacity:1" fill="#2d2d2d" d="M 159.5,100.5 C 161.167,98.5 162.833,96.5 164.5,94.5C 165.289,94.2172 165.956,93.7172 166.5,93C 147.995,92.1712 129.662,92.3379 111.5,93.5C 111.5,93.8333 111.5,94.1667 111.5,94.5C 110.596,93.791 110.263,92.791 110.5,91.5C 129.5,91.5 148.5,91.5 167.5,91.5C 166.269,95.7338 163.602,98.7338 159.5,100.5 Z"/></g>
<g><path style="opacity:1" fill="#cbcbcb" d="M 111.5,93.5 C 129.662,92.3379 147.995,92.1712 166.5,93C 165.956,93.7172 165.289,94.2172 164.5,94.5C 147.008,93.5033 129.341,93.1699 111.5,93.5 Z"/></g>
<g><path style="opacity:1" fill="#f9f9f9" d="M 111.5,93.5 C 129.341,93.1699 147.008,93.5033 164.5,94.5C 162.833,96.5 161.167,98.5 159.5,100.5C 149.734,108.763 140.4,117.597 131.5,127C 129.803,127.384 128.137,127.218 126.5,126.5C 124.026,125.895 121.693,124.895 119.5,123.5C 116.685,113.909 114.018,104.242 111.5,94.5C 111.5,94.1667 111.5,93.8333 111.5,93.5 Z"/></g>
<g><path style="opacity:1" fill="#efefef" d="M 104.5,94.5 C 108.665,105.307 111.998,116.473 114.5,128C 112.226,130.382 110.893,133.215 110.5,136.5C 108.5,136.5 106.5,136.5 104.5,136.5C 105.034,131.099 103.867,126.099 101,121.5C 98.0202,117.686 94.8535,114.019 91.5,110.5C 95.8567,105.148 100.19,99.8143 104.5,94.5 Z"/></g>
<g><path style="opacity:1" fill="#f8f8f8" d="M 54.5,136.5 C 53.3709,138.628 53.2042,140.961 54,143.5C 54.3768,144.942 55.2101,145.942 56.5,146.5C 63.1748,152.234 69.1748,151.567 74.5,144.5C 82.4144,143.533 90.4144,143.199 98.5,143.5C 94.7807,165.379 81.7807,175.212 59.5,173C 48.5122,169.824 40.8456,162.991 36.5,152.5C 36.2041,150.597 35.5375,148.93 34.5,147.5C 34.3599,141.464 34.6932,135.464 35.5,129.5C 45.631,108.567 61.2977,102.901 82.5,112.5C 77.3294,117.509 72.6628,123.009 68.5,129C 61.5964,127.731 56.9297,130.231 54.5,136.5 Z"/></g>
<g><path style="opacity:1" fill="#f9f9f9" d="M 184.5,131.5 C 184.288,135.345 185.288,138.679 187.5,141.5C 188.585,143.582 190.085,143.916 192,142.5C 192.758,138.638 192.258,134.972 190.5,131.5C 190.277,127.838 189.277,124.505 187.5,121.5C 187.768,119.901 187.434,118.568 186.5,117.5C 186.3,114.37 185.634,111.37 184.5,108.5C 207.373,106.461 220.04,116.961 222.5,140C 221.112,160.555 210.112,171.722 189.5,173.5C 183.052,173.184 177.052,171.351 171.5,168C 157.942,156.943 154.109,143.11 160,126.5C 163.579,118.083 169.745,112.749 178.5,110.5C 180.364,117.637 182.364,124.637 184.5,131.5 Z"/></g>
<g><path style="opacity:1" fill="#8f8f8f" d="M 184.5,108.5 C 185.634,111.37 186.3,114.37 186.5,117.5C 185.209,115.051 184.209,112.384 183.5,109.5C 183.624,108.893 183.957,108.56 184.5,108.5 Z"/></g>
<g><path style="opacity:1" fill="#f3f3f3" d="M 97.5,129.5 C 97.5,131.5 97.5,133.5 97.5,135.5C 90.1667,135.5 82.8333,135.5 75.5,135.5C 73.7274,134.686 73.2274,133.352 74,131.5C 78.2624,125.981 82.7624,120.648 87.5,115.5C 92.0153,119.345 95.3487,124.011 97.5,129.5 Z"/></g>
<g><path style="opacity:1" fill="#676767" d="M 187.5,121.5 C 189.277,124.505 190.277,127.838 190.5,131.5C 188.723,128.495 187.723,125.162 187.5,121.5 Z"/></g>
<g><path style="opacity:1" fill="#818181" d="M 119.5,123.5 C 121.693,124.895 124.026,125.895 126.5,126.5C 124.167,126.5 121.833,126.5 119.5,126.5C 119.5,125.5 119.5,124.5 119.5,123.5 Z"/></g>
<g><path style="opacity:1" fill="#afafaf" d="M 97.5,129.5 C 98.9238,131.515 99.5905,133.848 99.5,136.5C 91.3159,136.826 83.3159,136.492 75.5,135.5C 82.8333,135.5 90.1667,135.5 97.5,135.5C 97.5,133.5 97.5,131.5 97.5,129.5 Z"/></g>
<g><path style="opacity:1" fill="#8a8a8a" d="M 184.5,131.5 C 185.79,134.642 186.79,137.975 187.5,141.5C 185.288,138.679 184.288,135.345 184.5,131.5 Z"/></g>
<g><path style="opacity:1" fill="#868686" d="M 35.5,129.5 C 34.6932,135.464 34.3599,141.464 34.5,147.5C 33.8362,145.19 33.5029,142.69 33.5,140C 33.3037,136.195 33.9704,132.695 35.5,129.5 Z"/></g>
<g><path style="opacity:1" fill="#4f4f4f" d="M 31.5,124.5 C 30.9767,127.89 30.1434,131.223 29,134.5C 28.5014,138.152 28.3347,141.818 28.5,145.5C 26.6989,138.139 27.6989,131.139 31.5,124.5 Z"/></g>
<g><path style="opacity:1" fill="#b7b7b7" d="M 98.5,143.5 C 90.4144,143.199 82.4144,143.533 74.5,144.5C 78.107,143.176 82.107,142.509 86.5,142.5C 90.6812,142.501 94.6812,142.834 98.5,143.5 Z"/></g>
<g><path style="opacity:1" fill="#8a8a8a" d="M 54.5,136.5 C 54.31,140.032 54.9767,143.365 56.5,146.5C 55.2101,145.942 54.3768,144.942 54,143.5C 53.2042,140.961 53.3709,138.628 54.5,136.5 Z"/></g>
<g><path style="opacity:1" fill="#838383" d="M 109.5,143.5 C 108.167,143.5 106.833,143.5 105.5,143.5C 105.737,144.791 105.404,145.791 104.5,146.5C 104.5,145.167 104.5,143.833 104.5,142.5C 106.415,142.216 108.081,142.549 109.5,143.5 Z"/></g>
<g><path style="opacity:1" fill="#777777" d="M 34.5,147.5 C 35.5375,148.93 36.2041,150.597 36.5,152.5C 34.7868,151.365 34.1201,149.698 34.5,147.5 Z"/></g>
<g><path style="opacity:1" fill="#bcbcbc" d="M 102.5,154.5 C 102.657,155.873 102.49,157.207 102,158.5C 101.114,161.093 99.6139,163.093 97.5,164.5C 98.6745,160.817 100.341,157.484 102.5,154.5 Z"/></g>
</svg>
