<?xml version="1.0" encoding="UTF-8"?>
<!DOCTYPE svg PUBLIC "-//W3C//DTD SVG 1.1//EN" "http://www.w3.org/Graphics/SVG/1.1/DTD/svg11.dtd">
<svg xmlns="http://www.w3.org/2000/svg" version="1.1" width="212px" height="174px" style="shape-rendering:geometricPrecision; text-rendering:geometricPrecision; image-rendering:optimizeQuality; fill-rule:evenodd; clip-rule:evenodd" xmlns:xlink="http://www.w3.org/1999/xlink">
<g><path style="opacity:0.976" fill="#fdfdfd" d="M 6.5,-0.5 C 72.5,-0.5 138.5,-0.5 204.5,-0.5C 204.5,57.5 204.5,115.5 204.5,173.5C 138.5,173.5 72.5,173.5 6.5,173.5C 6.5,115.5 6.5,57.5 6.5,-0.5 Z"/></g>
<g><path style="opacity:1" fill="#f1f1f1" d="M 186.5,70.5 C 186.707,73.1268 185.54,74.7935 183,75.5C 180.23,74.2012 177.73,72.5345 175.5,70.5C 152.464,51.3029 128.964,32.6362 105,14.5C 79.2449,34.3004 53.7449,54.4671 28.5,75C 24.2915,75.289 22.9581,73.4557 24.5,69.5C 51.201,48.2952 78.0343,27.2952 105,6.5C 132.318,27.6525 159.485,48.9858 186.5,70.5 Z"/></g>
<g><path style="opacity:1" fill="#fdfdfd" d="M 173.5,72.5 C 174.491,101.093 174.825,129.76 174.5,158.5C 162.167,158.5 149.833,158.5 137.5,158.5C 136.687,144.285 133.52,130.619 128,117.5C 120.485,106.212 109.985,101.712 96.5,104C 87.3916,109.033 81.2249,116.533 78,126.5C 76.6368,132.15 75.4701,137.817 74.5,143.5C 61.5,143.5 48.5,143.5 35.5,143.5C 35.1669,119.824 35.5003,96.1573 36.5,72.5C 59.477,54.6905 82.3103,36.6905 105,18.5C 127.709,36.7143 150.542,54.7143 173.5,72.5 Z"/></g>
<g><path style="opacity:1" fill="#1b1b1b" d="M 188.5,68.5 C 187.5,68.8333 186.833,69.5 186.5,70.5C 159.485,48.9858 132.318,27.6525 105,6.5C 78.0343,27.2952 51.201,48.2952 24.5,69.5C 22.9581,73.4557 24.2915,75.289 28.5,75C 53.7449,54.4671 79.2449,34.3004 105,14.5C 128.964,32.6362 152.464,51.3029 175.5,70.5C 174.5,70.8333 173.833,71.5 173.5,72.5C 150.542,54.7143 127.709,36.7143 105,18.5C 82.3103,36.6905 59.477,54.6905 36.5,72.5C 35.5003,96.1573 35.1669,119.824 35.5,143.5C 34.8334,134.658 34.1667,125.658 33.5,116.5C 32.8333,125.658 32.1666,134.658 31.5,143.5C 31.5,131.833 31.5,120.167 31.5,108.5C 32.8235,97.9927 32.8235,87.3261 31.5,76.5C 30.4777,76.8555 29.811,77.5222 29.5,78.5C 22.9204,79.0869 19.7538,76.0869 20,69.5C 47.7607,46.5634 75.9274,24.2301 104.5,2.5C 133.254,23.5433 161.254,45.5433 188.5,68.5 Z"/></g>
<g><path style="opacity:1" fill="#232323" d="M 86.5,58.5 C 92.3254,57.7449 96.3254,60.0782 98.5,65.5C 102.5,66.8333 106.5,66.8333 110.5,65.5C 115.409,57.0439 121.242,56.3772 128,63.5C 129.151,67.8288 128.318,71.6621 125.5,75C 130.788,79.8722 130.788,84.7055 125.5,89.5C 119.065,92.9542 114.399,91.2875 111.5,84.5C 107.217,83.5078 102.884,83.1744 98.5,83.5C 94.6259,92.774 89.1259,93.774 82,86.5C 79.6567,82.233 80.1567,78.3996 83.5,75C 78.7147,68.3034 79.7147,62.8034 86.5,58.5 Z"/></g>
<g><path style="opacity:1" fill="#f9f9f9" d="M 86.5,62.5 C 88.5273,62.3379 90.5273,62.5045 92.5,63C 94.5269,65.0939 96.1935,67.4272 97.5,70C 102.5,70.6667 107.5,70.6667 112.5,70C 113.65,67.5378 114.983,65.2045 116.5,63C 121.501,61.3297 124.501,62.9963 125.5,68C 124.5,70.3333 123.5,72.6667 122.5,75C 122.468,76.9711 123.302,78.4711 125,79.5C 126.5,86 124,88.5 117.5,87C 115.833,84.6667 114.167,82.3333 112.5,80C 107.5,79.3333 102.5,79.3333 97.5,80C 96.0755,82.1005 94.7422,84.2672 93.5,86.5C 88.3416,88.67 85.3416,87.0033 84.5,81.5C 85.0369,78.9647 86.0369,76.6314 87.5,74.5C 86.0369,72.3686 85.0369,70.0353 84.5,67.5C 84.4365,65.4861 85.1032,63.8194 86.5,62.5 Z"/></g>
<g><path style="opacity:1" fill="#181818" d="M 188.5,68.5 C 190.189,73.707 188.356,77.3737 183,79.5C 181.594,78.5862 180.094,77.9195 178.5,77.5C 177.501,104.092 177.167,131.426 177.5,159.5C 184.167,159.5 190.833,159.5 197.5,159.5C 199.618,162.055 199.951,164.888 198.5,168C 136.167,168.667 73.8333,168.667 11.5,168C 10.3247,165.162 10.4914,162.329 12,159.5C 15.1292,158.87 18.2959,158.204 21.5,157.5C 23.4125,153.34 25.5791,149.34 28,145.5C 28.8159,144.177 29.9826,143.511 31.5,143.5C 32.1666,134.658 32.8333,125.658 33.5,116.5C 34.1667,125.658 34.8334,134.658 35.5,143.5C 48.5,143.5 61.5,143.5 74.5,143.5C 75.4701,137.817 76.6368,132.15 78,126.5C 81.2249,116.533 87.3916,109.033 96.5,104C 109.985,101.712 120.485,106.212 128,117.5C 133.52,130.619 136.687,144.285 137.5,158.5C 149.833,158.5 162.167,158.5 174.5,158.5C 174.825,129.76 174.491,101.093 173.5,72.5C 173.833,71.5 174.5,70.8333 175.5,70.5C 177.73,72.5345 180.23,74.2012 183,75.5C 185.54,74.7935 186.707,73.1268 186.5,70.5C 186.833,69.5 187.5,68.8333 188.5,68.5 Z"/></g>
<g><path style="opacity:1" fill="#b8b8b8" d="M 31.5,108.5 C 32.141,98.1107 31.4743,88.1107 29.5,78.5C 29.811,77.5222 30.4777,76.8555 31.5,76.5C 32.8235,87.3261 32.8235,97.9927 31.5,108.5 Z"/></g>
<g><path style="opacity:1" fill="#fcfcfc" d="M 133.5,153.5 C 133.5,155.167 133.5,156.833 133.5,158.5C 117.833,158.5 102.167,158.5 86.5,158.5C 83.9291,153.695 81.0957,149.028 78,144.5C 78.668,134.175 81.668,124.509 87,115.5C 97.5815,104.179 108.915,103.512 121,113.5C 128.865,125.613 133.032,138.946 133.5,153.5 Z"/></g>
<g><path style="opacity:1" fill="#9c9c9c" d="M 178.5,77.5 C 178.5,104.5 178.5,131.5 178.5,158.5C 185.022,158.177 191.355,158.51 197.5,159.5C 190.833,159.5 184.167,159.5 177.5,159.5C 177.167,131.426 177.501,104.092 178.5,77.5 Z"/></g>
<g><path style="opacity:1" fill="#fcfcfc" d="M 82.5,158.5 C 73.1726,159.166 63.6726,159.5 54,159.5C 44.1424,159.498 34.6424,158.832 25.5,157.5C 27.0138,154.308 28.6804,151.141 30.5,148C 45.8333,147.333 61.1667,147.333 76.5,148C 78.7277,151.388 80.7277,154.888 82.5,158.5 Z"/></g>
<g><path style="opacity:1" fill="#5c5c5c" d="M 133.5,153.5 C 134.461,155.265 134.795,157.265 134.5,159.5C 118.325,159.83 102.325,159.496 86.5,158.5C 102.167,158.5 117.833,158.5 133.5,158.5C 133.5,156.833 133.5,155.167 133.5,153.5 Z"/></g>
<g><path style="opacity:1" fill="#d9d9d9" d="M 25.5,157.5 C 34.6424,158.832 44.1424,159.498 54,159.5C 63.6726,159.5 73.1726,159.166 82.5,158.5C 83.0431,158.56 83.3764,158.893 83.5,159.5C 63.5,160.833 43.5,160.833 23.5,159.5C 23.8555,158.478 24.5222,157.811 25.5,157.5 Z"/></g>
<g><path style="opacity:1" fill="#a6a6a6" d="M 87.5,163.5 C 123.329,164.498 159.329,164.832 195.5,164.5C 135.336,165.499 75.0023,165.832 14.5,165.5C 14.5,164.5 14.5,163.5 14.5,162.5C 38.8144,163.44 63.1477,163.773 87.5,163.5 Z"/></g>
<g><path style="opacity:1" fill="#f9f9f9" d="M 195.5,164.5 C 159.329,164.832 123.329,164.498 87.5,163.5C 105.33,162.833 123.33,162.5 141.5,162.5C 159.846,162.5 177.846,163.167 195.5,164.5 Z"/></g>
</svg>
