<?xml version="1.0" encoding="UTF-8"?>
<!DOCTYPE svg PUBLIC "-//W3C//DTD SVG 1.1//EN" "http://www.w3.org/Graphics/SVG/1.1/DTD/svg11.dtd">
<svg xmlns="http://www.w3.org/2000/svg" version="1.1" width="197px" height="212px" style="shape-rendering:geometricPrecision; text-rendering:geometricPrecision; image-rendering:optimizeQuality; fill-rule:evenodd; clip-rule:evenodd" xmlns:xlink="http://www.w3.org/1999/xlink">
<g><path style="opacity:0.991" fill="#fdfdfd" d="M -0.5,0.5 C 65.1667,0.5 130.833,0.5 196.5,0.5C 196.5,70.8333 196.5,141.167 196.5,211.5C 130.833,211.5 65.1667,211.5 -0.5,211.5C -0.5,141.167 -0.5,70.8333 -0.5,0.5 Z"/></g>
<g><path style="opacity:1" fill="#070707" d="M 117.5,21.5 C 117.47,22.4972 117.97,23.1639 119,23.5C 122.451,24.7372 125.951,25.7372 129.5,26.5C 136.85,29.1691 144.183,31.8357 151.5,34.5C 155.099,36.9277 159.099,38.5944 163.5,39.5C 168.771,41.4602 174.104,43.4602 179.5,45.5C 183.099,47.9277 187.099,49.5944 191.5,50.5C 193.484,50.484 194.484,51.484 194.5,53.5C 194.058,54.7387 193.391,55.7387 192.5,56.5C 162.833,56.5 133.167,56.5 103.5,56.5C 103.5,81.1667 103.5,105.833 103.5,130.5C 118.167,130.5 132.833,130.5 147.5,130.5C 148.752,132.339 148.752,134.172 147.5,136C 133.171,136.5 118.837,136.667 104.5,136.5C 103.822,157.069 103.156,177.735 102.5,198.5C 100.901,198.768 99.5676,198.434 98.5,197.5C 98.5,177.167 98.5,156.833 98.5,136.5C 84.1667,136.5 69.8333,136.5 55.5,136.5C 54.6993,134.958 54.366,133.292 54.5,131.5C 69.0097,131.829 83.3431,131.496 97.5,130.5C 98.4977,106.006 98.831,81.339 98.5,56.5C 68.1228,56.8179 37.7895,56.4845 7.5,55.5C 7.23798,54.0222 7.57131,52.6888 8.5,51.5C 11.6293,49.6001 14.9627,48.2667 18.5,47.5C 22.836,47.1631 26.5026,45.4965 29.5,42.5C 33.0366,41.4603 36.37,40.1269 39.5,38.5C 42.491,38.8337 44.8243,37.8337 46.5,35.5C 54.1062,32.5239 61.7728,29.8572 69.5,27.5C 73.9069,27.1249 77.5735,25.4583 80.5,22.5C 87.3056,20.511 93.8056,17.8444 100,14.5C 105.94,16.6164 111.773,18.9497 117.5,21.5 Z"/></g>
<g><path style="opacity:1" fill="#363636" d="M 117.5,21.5 C 121.046,22.9593 124.712,24.126 128.5,25C 129.056,25.3826 129.389,25.8826 129.5,26.5C 125.951,25.7372 122.451,24.7372 119,23.5C 117.97,23.1639 117.47,22.4972 117.5,21.5 Z"/></g>
<g><path style="opacity:1" fill="#373737" d="M 80.5,22.5 C 77.5735,25.4583 73.9069,27.1249 69.5,27.5C 72.7403,25.049 76.4069,23.3824 80.5,22.5 Z"/></g>
<g><path style="opacity:1" fill="#757575" d="M 46.5,35.5 C 44.8243,37.8337 42.491,38.8337 39.5,38.5C 41.5093,36.9348 43.8427,35.9348 46.5,35.5 Z"/></g>
<g><path style="opacity:1" fill="#9f9f9f" d="M 151.5,34.5 C 156.032,35.1052 160.032,36.7719 163.5,39.5C 159.099,38.5944 155.099,36.9277 151.5,34.5 Z"/></g>
<g><path style="opacity:1" fill="#a1a1a1" d="M 179.5,45.5 C 184.032,46.1052 188.032,47.7719 191.5,50.5C 187.099,49.5944 183.099,47.9277 179.5,45.5 Z"/></g>
<g><path style="opacity:1" fill="#383838" d="M 29.5,42.5 C 26.5026,45.4965 22.836,47.1631 18.5,47.5C 21.7403,45.049 25.4069,43.3824 29.5,42.5 Z"/></g>
<g><path style="opacity:1" fill="#9d9d9d" d="M 7.5,55.5 C 37.7895,56.4845 68.1228,56.8179 98.5,56.5C 98.831,81.339 98.4977,106.006 97.5,130.5C 97.831,105.994 97.4976,81.6609 96.5,57.5C 67.1648,57.6666 37.8314,57.5 8.5,57C 7.94404,56.6174 7.61071,56.1174 7.5,55.5 Z"/></g>
<g><path style="opacity:1" fill="#b3b3b3" d="M 192.5,56.5 C 163.338,57.4981 134.005,57.8314 104.5,57.5C 104.5,81.5 104.5,105.5 104.5,129.5C 119.01,129.171 133.343,129.504 147.5,130.5C 132.833,130.5 118.167,130.5 103.5,130.5C 103.5,105.833 103.5,81.1667 103.5,56.5C 133.167,56.5 162.833,56.5 192.5,56.5 Z"/></g>
<g><path style="opacity:1" fill="#d2d2d1" d="M 96.5,57.5 C 97.4976,81.6609 97.831,105.994 97.5,130.5C 83.1667,130.5 68.8333,130.5 54.5,130.5C 68.3234,129.504 82.3234,129.171 96.5,129.5C 96.5,105.5 96.5,81.5 96.5,57.5 Z"/></g>
<g><path style="opacity:1" fill="#989898" d="M 180.5,107.5 C 179.871,110.397 178.871,113.064 177.5,115.5C 177.345,112.284 178.345,109.617 180.5,107.5 Z"/></g>
<g><path style="opacity:1" fill="#161616" d="M 180.5,107.5 C 183.261,106.915 184.927,107.915 185.5,110.5C 183.164,121.838 180.831,133.172 178.5,144.5C 174.844,153.377 174.511,162.377 177.5,171.5C 178.565,180.035 179.398,188.702 180,197.5C 178.333,198.833 176.667,198.833 175,197.5C 174.305,191.467 173.471,185.467 172.5,179.5C 172.489,172.758 171.822,166.092 170.5,159.5C 160.167,159.5 149.833,159.5 139.5,159.5C 139.5,160.833 139.5,162.167 139.5,163.5C 136.886,174.403 134.719,185.403 133,196.5C 131.688,198.658 130.022,198.991 128,197.5C 128.916,185.756 130.583,174.089 133,162.5C 133.505,159.135 134.672,156.135 136.5,153.5C 147.853,153.832 159.186,153.499 170.5,152.5C 171.393,149.916 171.726,147.249 171.5,144.5C 173.26,140.453 174.26,136.12 174.5,131.5C 175.586,131.38 176.253,130.713 176.5,129.5C 177.327,126.217 177.66,122.884 177.5,119.5C 177.5,118.167 177.5,116.833 177.5,115.5C 178.871,113.064 179.871,110.397 180.5,107.5 Z"/></g>
<g><path style="opacity:1" fill="#161616" d="M 28.5,137.5 C 28.9564,142.865 29.623,148.199 30.5,153.5C 42.5803,153.188 54.5803,153.521 66.5,154.5C 68.1088,161.754 69.4421,169.087 70.5,176.5C 70.5651,179.428 71.2318,182.095 72.5,184.5C 74.2168,188.575 74.7168,192.908 74,197.5C 72.6124,198.554 71.1124,198.72 69.5,198C 68.8906,196.052 68.224,194.218 67.5,192.5C 67.7204,187.9 67.0538,183.567 65.5,179.5C 64.6199,173.272 63.2866,167.272 61.5,161.5C 61.5,161.167 61.5,160.833 61.5,160.5C 51.3468,159.506 41.0135,159.172 30.5,159.5C 30.5,162.5 30.5,165.5 30.5,168.5C 28.8652,175.276 27.8652,182.276 27.5,189.5C 27.7214,192.279 27.388,194.946 26.5,197.5C 25.1667,197.5 23.8333,197.5 22.5,197.5C 22.5,193.167 22.5,188.833 22.5,184.5C 22.5,184.167 22.5,183.833 22.5,183.5C 23.8955,179.409 24.5621,175.076 24.5,170.5C 26.1425,161.616 25.8091,152.949 23.5,144.5C 23.7062,141.505 23.0395,138.838 21.5,136.5C 19.7979,127.815 18.1313,118.982 16.5,110C 16.7336,108.268 17.7336,107.434 19.5,107.5C 21.4251,107.59 22.5917,108.59 23,110.5C 24.5129,119.607 26.3462,128.607 28.5,137.5 Z"/></g>
<g><path style="opacity:1" fill="#3f3f3f" d="M 177.5,119.5 C 177.66,122.884 177.327,126.217 176.5,129.5C 176.253,130.713 175.586,131.38 174.5,131.5C 174.898,127.239 175.898,123.239 177.5,119.5 Z"/></g>
<g><path style="opacity:1" fill="#434343" d="M 54.5,130.5 C 68.8333,130.5 83.1667,130.5 97.5,130.5C 83.3431,131.496 69.0097,131.829 54.5,131.5C 54.366,133.292 54.6993,134.958 55.5,136.5C 55.1667,136.5 54.8333,136.5 54.5,136.5C 51.8333,134.5 51.8333,132.5 54.5,130.5 Z"/></g>
<g><path style="opacity:1" fill="#bcbcbc" d="M 54.5,136.5 C 54.8333,136.5 55.1667,136.5 55.5,136.5C 69.8333,136.5 84.1667,136.5 98.5,136.5C 98.5,156.833 98.5,177.167 98.5,197.5C 96.512,177.861 95.8453,157.861 96.5,137.5C 82.3234,137.829 68.3234,137.496 54.5,136.5 Z"/></g>
<g><path style="opacity:1" fill="#afafaf" d="M 104.5,136.5 C 105.155,157.527 104.488,178.194 102.5,198.5C 103.156,177.735 103.822,157.069 104.5,136.5 Z"/></g>
<g><path style="opacity:1" fill="#838383" d="M 21.5,136.5 C 23.0395,138.838 23.7062,141.505 23.5,144.5C 21.9605,142.162 21.2938,139.495 21.5,136.5 Z"/></g>
<g><path style="opacity:1" fill="#bdbdbd" d="M 28.5,137.5 C 30.6645,142.126 31.6645,147.126 31.5,152.5C 43.5479,151.855 55.2146,152.522 66.5,154.5C 54.5803,153.521 42.5803,153.188 30.5,153.5C 29.623,148.199 28.9564,142.865 28.5,137.5 Z"/></g>
<g><path style="opacity:1" fill="#c0c0c0" d="M 171.5,144.5 C 171.726,147.249 171.393,149.916 170.5,152.5C 159.186,153.499 147.853,153.832 136.5,153.5C 147.321,152.505 158.321,152.172 169.5,152.5C 169.565,149.572 170.232,146.905 171.5,144.5 Z"/></g>
<g><path style="opacity:1" fill="#afafaf" d="M 178.5,144.5 C 177.653,153.472 177.32,162.472 177.5,171.5C 174.511,162.377 174.844,153.377 178.5,144.5 Z"/></g>
<g><path style="opacity:1" fill="#b0b0b0" d="M 61.5,160.5 C 51.8333,160.5 42.1667,160.5 32.5,160.5C 32.1977,163.373 31.531,166.039 30.5,168.5C 30.5,165.5 30.5,162.5 30.5,159.5C 41.0135,159.172 51.3468,159.506 61.5,160.5 Z"/></g>
<g><path style="opacity:1" fill="#a6a6a6" d="M 172.5,179.5 C 171.423,173.311 170.423,166.977 169.5,160.5C 159.833,160.5 150.167,160.5 140.5,160.5C 140.737,161.791 140.404,162.791 139.5,163.5C 139.5,162.167 139.5,160.833 139.5,159.5C 149.833,159.5 160.167,159.5 170.5,159.5C 171.822,166.092 172.489,172.758 172.5,179.5 Z"/></g>
<g><path style="opacity:1" fill="#a4a4a4" d="M 24.5,170.5 C 24.5621,175.076 23.8955,179.409 22.5,183.5C 22.3345,179.486 22.5012,175.486 23,171.5C 23.3826,170.944 23.8826,170.611 24.5,170.5 Z"/></g>
<g><path style="opacity:1" fill="#858585" d="M 30.5,168.5 C 30.3216,175.749 29.3216,182.749 27.5,189.5C 27.8652,182.276 28.8652,175.276 30.5,168.5 Z"/></g>
<g><path style="opacity:1" fill="#8e8e8e" d="M 61.5,161.5 C 63.2866,167.272 64.6199,173.272 65.5,179.5C 63.1592,173.844 61.8258,167.844 61.5,161.5 Z"/></g>
<g><path style="opacity:1" fill="#8c8c8c" d="M 70.5,176.5 C 72.0395,178.838 72.7062,181.505 72.5,184.5C 71.2318,182.095 70.5651,179.428 70.5,176.5 Z"/></g>
<g><path style="opacity:1" fill="#a1a1a1" d="M 65.5,179.5 C 67.0538,183.567 67.7204,187.9 67.5,192.5C 65.9462,188.433 65.2796,184.1 65.5,179.5 Z"/></g>
<g><path style="opacity:1" fill="#5f5f5f" d="M 22.5,184.5 C 22.5,188.833 22.5,193.167 22.5,197.5C 23.8333,197.5 25.1667,197.5 26.5,197.5C 24.7768,198.807 22.9435,198.807 21,197.5C 20.4412,192.931 20.9412,188.598 22.5,184.5 Z"/></g>
</svg>
