<?xml version="1.0" encoding="UTF-8"?>
<!DOCTYPE svg PUBLIC "-//W3C//DTD SVG 1.1//EN" "http://www.w3.org/Graphics/SVG/1.1/DTD/svg11.dtd">
<svg xmlns="http://www.w3.org/2000/svg" version="1.1" width="243px" height="184px" style="shape-rendering:geometricPrecision; text-rendering:geometricPrecision; image-rendering:optimizeQuality; fill-rule:evenodd; clip-rule:evenodd" xmlns:xlink="http://www.w3.org/1999/xlink">
<g><path style="opacity:0.981" fill="#fdfdfd" d="M 56.5,-0.5 C 99.1667,-0.5 141.833,-0.5 184.5,-0.5C 184.5,60.8333 184.5,122.167 184.5,183.5C 141.833,183.5 99.1667,183.5 56.5,183.5C 56.5,122.167 56.5,60.8333 56.5,-0.5 Z"/></g>
<g><path style="opacity:1" fill="#0b0b0b" d="M 122.5,92.5 C 122.783,93.2891 123.283,93.9558 124,94.5C 124.499,89.8452 124.666,85.1785 124.5,80.5C 124.666,75.8215 124.499,71.1548 124,66.5C 112.144,56.4841 109.144,44.1508 115,29.5C 117.909,22.6757 121.576,16.3424 126,10.5C 134.249,20.1669 139.082,31.3336 140.5,44C 140.457,53.2559 136.624,60.4226 129,65.5C 128.333,75.1667 128.333,84.8333 129,94.5C 130.421,91.9906 132.088,89.6572 134,87.5C 131.796,71.4219 138.296,60.2552 153.5,54C 160.161,50.8344 167.161,49.0011 174.5,48.5C 173.61,59.7286 170.11,70.062 164,79.5C 156.823,87.9301 147.657,91.4301 136.5,90C 132.649,94.5338 129.983,99.7005 128.5,105.5C 140.486,106.333 152.486,106.833 164.5,107C 165.629,111.079 165.796,115.245 165,119.5C 139.239,120.661 113.406,120.828 87.5,120C 86.1667,115.667 86.1667,111.333 87.5,107C 99.4954,106.5 111.495,106.333 123.5,106.5C 122.858,100.334 120.525,94.8339 116.5,90C 101.783,92.2278 91.2835,86.7278 85,73.5C 81.0917,65.196 78.7584,56.5294 78,47.5C 90.2139,50.0122 101.381,54.8456 111.5,62C 117.891,69.1652 120.391,77.6652 119,87.5C 120.176,89.1957 121.343,90.8624 122.5,92.5 Z"/></g>
<g><path style="opacity:1" fill="#949494" d="M 124.5,80.5 C 124.666,85.1785 124.499,89.8452 124,94.5C 123.283,93.9558 122.783,93.2891 122.5,92.5C 123.167,88.5 123.833,84.5 124.5,80.5 Z"/></g>
<g><path style="opacity:1" fill="#020202" d="M 91.5,124.5 C 114.51,124.167 137.51,124.5 160.5,125.5C 156.569,142.798 152.735,160.131 149,177.5C 133.908,178.657 118.741,178.824 103.5,178C 99.4258,160.201 95.4258,142.368 91.5,124.5 Z"/></g>
</svg>
