<?xml version="1.0" encoding="UTF-8"?>
<!DOCTYPE svg PUBLIC "-//W3C//DTD SVG 1.1//EN" "http://www.w3.org/Graphics/SVG/1.1/DTD/svg11.dtd">
<svg xmlns="http://www.w3.org/2000/svg" version="1.1" width="152px" height="194px" style="shape-rendering:geometricPrecision; text-rendering:geometricPrecision; image-rendering:optimizeQuality; fill-rule:evenodd; clip-rule:evenodd" xmlns:xlink="http://www.w3.org/1999/xlink">
<g><path style="opacity:0.987" fill="#fdfdfd" d="M 5.5,-0.5 C 52.1667,-0.5 98.8333,-0.5 145.5,-0.5C 145.5,64.1667 145.5,128.833 145.5,193.5C 98.8333,193.5 52.1667,193.5 5.5,193.5C 5.5,128.833 5.5,64.1667 5.5,-0.5 Z"/></g>
<g><path style="opacity:1" fill="#333333" d="M 110.5,177.5 C 88.1667,177.5 65.8333,177.5 43.5,177.5C 42.5655,176.432 42.2322,175.099 42.5,173.5C 34.8373,174.924 30.0039,171.924 28,164.5C 27.3333,126.833 27.3333,89.1667 28,51.5C 29.8333,48.3333 32.3333,45.8333 35.5,44C 40.8229,43.5006 46.1563,43.334 51.5,43.5C 53.1552,34.646 53.9885,25.646 54,16.5C 59.513,8.43274 67.1796,5.43274 77,7.5C 81.1667,7.66667 85.3333,7.83333 89.5,8C 95.588,9.09007 99.4213,12.5901 101,18.5C 101.259,26.8666 101.759,35.1999 102.5,43.5C 109.909,42.6209 116.909,43.7875 123.5,47C 124.211,48.2547 125.044,49.4214 126,50.5C 126.667,89.1667 126.667,127.833 126,166.5C 123.239,172.131 118.739,174.464 112.5,173.5C 112.771,175.38 112.104,176.713 110.5,177.5 Z"/></g>
<g><path style="opacity:1" fill="#fbfbfb" d="M 64.5,12.5 C 72.84,12.3336 81.1733,12.5003 89.5,13C 95.9203,16.7839 98.2536,22.4505 96.5,30C 96.3002,34.6314 95.6336,39.1314 94.5,43.5C 82.8333,43.5 71.1667,43.5 59.5,43.5C 58.4263,35.2018 58.2596,26.8684 59,18.5C 60.3597,15.9774 62.193,13.9774 64.5,12.5 Z"/></g>
<g><path style="opacity:1" fill="#e9e9e9" d="M 45.5,58.5 C 47.3904,58.2965 48.8904,58.9632 50,60.5C 50.6667,92.8333 50.6667,125.167 50,157.5C 48,158.833 46,158.833 44,157.5C 43.3333,125.167 43.3333,92.8333 44,60.5C 44.7172,59.9558 45.2172,59.2891 45.5,58.5 Z"/></g>
<g><path style="opacity:1" fill="#e9e9e9" d="M 65.5,58.5 C 67.3904,58.2965 68.8904,58.9632 70,60.5C 70.6667,92.8333 70.6667,125.167 70,157.5C 68,158.833 66,158.833 64,157.5C 63.3333,125.167 63.3333,92.8333 64,60.5C 64.7172,59.9558 65.2172,59.2891 65.5,58.5 Z"/></g>
<g><path style="opacity:1" fill="#f8f8f8" d="M 85.5,58.5 C 86.9305,58.4208 88.2638,58.7542 89.5,59.5C 90.6666,92.1616 90.8332,124.828 90,157.5C 88.3005,158.406 86.4672,158.739 84.5,158.5C 84.1741,125.094 84.5075,91.7602 85.5,58.5 Z"/></g>
<g><path style="opacity:1" fill="#f8f8f8" d="M 105.5,58.5 C 107.144,58.2865 108.644,58.6198 110,59.5C 110.667,92.1667 110.667,124.833 110,157.5C 108.333,158.833 106.667,158.833 105,157.5C 104.175,124.428 104.341,91.4285 105.5,58.5 Z"/></g>
<g><path style="opacity:1" fill="#b8b8b8" d="M 43.5,177.5 C 65.8333,177.5 88.1667,177.5 110.5,177.5C 107.833,178.167 105.167,178.833 102.5,179.5C 101.5,179.5 100.5,179.5 99.5,179.5C 84.5,178.167 69.5,178.167 54.5,179.5C 53.5,179.5 52.5,179.5 51.5,179.5C 48.8333,178.833 46.1667,178.167 43.5,177.5 Z"/></g>
<g><path style="opacity:1" fill="#383838" d="M 99.5,179.5 C 100.5,179.5 101.5,179.5 102.5,179.5C 105.286,179.956 106.619,181.623 106.5,184.5C 106.425,188.074 104.592,189.741 101,189.5C 95.6622,188.483 94.3289,185.483 97,180.5C 97.6708,179.748 98.5041,179.414 99.5,179.5 Z"/></g>
<g><path style="opacity:1" fill="#353535" d="M 51.5,179.5 C 52.5,179.5 53.5,179.5 54.5,179.5C 58.254,180.828 59.4207,183.494 58,187.5C 53.2349,190.792 49.7349,189.792 47.5,184.5C 48.0953,182.239 49.4286,180.572 51.5,179.5 Z"/></g>
</svg>
