<?xml version="1.0" encoding="UTF-8"?>
<!DOCTYPE svg PUBLIC "-//W3C//DTD SVG 1.1//EN" "http://www.w3.org/Graphics/SVG/1.1/DTD/svg11.dtd">
<svg xmlns="http://www.w3.org/2000/svg" version="1.1" width="296px" height="215px" style="shape-rendering:geometricPrecision; text-rendering:geometricPrecision; image-rendering:optimizeQuality; fill-rule:evenodd; clip-rule:evenodd" xmlns:xlink="http://www.w3.org/1999/xlink">
<g><path style="opacity:0.987" fill="#fdfdfd" d="M 275.5,214.5 C 190.167,214.5 104.833,214.5 19.5,214.5C 19.5,143.167 19.5,71.8333 19.5,0.5C 104.833,0.5 190.167,0.5 275.5,0.5C 275.5,71.8333 275.5,143.167 275.5,214.5 Z"/></g>
<g><path style="opacity:1" fill="#121212" d="M 154.5,52.5 C 157.658,54.501 160.658,56.8343 163.5,59.5C 169.689,62.2947 176.023,64.628 182.5,66.5C 191.543,71.3532 200.876,75.6865 210.5,79.5C 210.973,80.9063 211.973,81.573 213.5,81.5C 220.215,85.1959 227.215,88.5292 234.5,91.5C 235.209,92.404 236.209,92.7373 237.5,92.5C 237.5,98.5 237.5,104.5 237.5,110.5C 239.5,110.5 241.5,110.5 243.5,110.5C 243.667,138.835 243.5,167.169 243,195.5C 238.797,200.412 234.297,200.745 229.5,196.5C 228.523,176.213 228.19,155.879 228.5,135.5C 177.003,134.501 125.336,134.168 73.5,134.5C 73.5,154.5 73.5,174.5 73.5,194.5C 71.3838,199.261 67.7171,200.761 62.5,199C 61.2986,198.097 60.4652,196.931 60,195.5C 59.5,167.169 59.3334,138.835 59.5,110.5C 61.1667,110.5 62.8333,110.5 64.5,110.5C 65.4896,104.69 65.8229,98.69 65.5,92.5C 68.0593,92.8016 70.3926,92.4682 72.5,91.5C 76.4886,86.2436 79.1553,80.2436 80.5,73.5C 80.5,73.1667 80.5,72.8333 80.5,72.5C 85.2206,68.3853 87.5539,63.0519 87.5,56.5C 87.5,55.8333 87.8333,55.5 88.5,55.5C 90.0739,53.8984 90.7406,51.8984 90.5,49.5C 90.9483,46.3181 92.2816,43.6514 94.5,41.5C 96.0739,39.8984 96.7406,37.8984 96.5,35.5C 97.9418,34.1805 98.6085,32.5138 98.5,30.5C 91.2356,28.1077 84.2356,24.9411 77.5,21C 76.5357,18.7314 77.2024,16.8981 79.5,15.5C 104.525,28.047 129.525,40.3804 154.5,52.5 Z"/></g>
<g><path style="opacity:1" fill="#fcfcfc" d="M 176.5,69.5 C 176.973,70.9063 177.973,71.573 179.5,71.5C 191.435,77.4673 203.435,83.4673 215.5,89.5C 171.003,90.4987 126.336,90.8321 81.5,90.5C 81.5,89.1667 81.5,87.8333 81.5,86.5C 82.7151,81.1883 84.7151,76.1883 87.5,71.5C 89.8337,69.8243 90.8337,67.491 90.5,64.5C 92.8337,62.8243 93.8337,60.491 93.5,57.5C 96.1648,55.1645 97.4982,52.1645 97.5,48.5C 99.0627,43.4724 101.229,38.8057 104,34.5C 128.363,46.1003 152.529,57.767 176.5,69.5 Z"/></g>
<g><path style="opacity:1" fill="#545454" d="M 96.5,35.5 C 96.7406,37.8984 96.0739,39.8984 94.5,41.5C 94.2594,39.1016 94.9261,37.1016 96.5,35.5 Z"/></g>
<g><path style="opacity:1" fill="#505050" d="M 90.5,49.5 C 90.7406,51.8984 90.0739,53.8984 88.5,55.5C 88.2594,53.1016 88.9261,51.1016 90.5,49.5 Z"/></g>
<g><path style="opacity:1" fill="#acacac" d="M 97.5,48.5 C 97.4982,52.1645 96.1648,55.1645 93.5,57.5C 94.0749,54.0884 95.4082,51.0884 97.5,48.5 Z"/></g>
<g><path style="opacity:1" fill="#a5a5a5" d="M 93.5,57.5 C 93.8337,60.491 92.8337,62.8243 90.5,64.5C 90.9348,61.8427 91.9348,59.5093 93.5,57.5 Z"/></g>
<g><path style="opacity:1" fill="#292929" d="M 154.5,52.5 C 163.635,57.7341 172.968,62.4007 182.5,66.5C 176.023,64.628 169.689,62.2947 163.5,59.5C 160.658,56.8343 157.658,54.501 154.5,52.5 Z"/></g>
<g><path style="opacity:1" fill="#363636" d="M 87.5,56.5 C 87.5539,63.0519 85.2206,68.3853 80.5,72.5C 82.8605,67.1187 85.1938,61.7854 87.5,56.5 Z"/></g>
<g><path style="opacity:1" fill="#a2a2a2" d="M 90.5,64.5 C 90.8337,67.491 89.8337,69.8243 87.5,71.5C 87.9348,68.8427 88.9348,66.5093 90.5,64.5 Z"/></g>
<g><path style="opacity:1" fill="#7b7b7b" d="M 176.5,69.5 C 178.027,69.427 179.027,70.0937 179.5,71.5C 177.973,71.573 176.973,70.9063 176.5,69.5 Z"/></g>
<g><path style="opacity:1" fill="#848484" d="M 210.5,79.5 C 212.027,79.427 213.027,80.0937 213.5,81.5C 211.973,81.573 210.973,80.9063 210.5,79.5 Z"/></g>
<g><path style="opacity:1" fill="#434343" d="M 80.5,73.5 C 79.1553,80.2436 76.4886,86.2436 72.5,91.5C 74.6557,85.1957 77.3224,79.1957 80.5,73.5 Z"/></g>
<g><path style="opacity:1" fill="#e5e5e5" d="M 81.5,86.5 C 81.5,87.8333 81.5,89.1667 81.5,90.5C 126.336,90.8321 171.003,90.4987 215.5,89.5C 216.609,89.5569 217.609,89.8902 218.5,90.5C 195.502,91.1666 172.336,91.5 149,91.5C 125.49,91.4998 102.324,90.8331 79.5,89.5C 79.9321,88.2905 80.5987,87.2905 81.5,86.5 Z"/></g>
<g><path style="opacity:1" fill="#7e7e7e" d="M 79.5,89.5 C 102.324,90.8331 125.49,91.4998 149,91.5C 172.336,91.5 195.502,91.1666 218.5,90.5C 219.376,90.3691 220.043,90.7025 220.5,91.5C 173.171,92.4999 125.838,92.8333 78.5,92.5C 78.2627,91.209 78.596,90.209 79.5,89.5 Z"/></g>
<g><path style="opacity:1" fill="#a7a7a7" d="M 72.5,91.5 C 70.3926,92.4682 68.0593,92.8016 65.5,92.5C 65.8229,98.69 65.4896,104.69 64.5,110.5C 64.5,104.167 64.5,97.8333 64.5,91.5C 67.1667,91.5 69.8333,91.5 72.5,91.5 Z"/></g>
<g><path style="opacity:1" fill="#c9c9c9" d="M 234.5,91.5 C 235.833,91.5 237.167,91.5 238.5,91.5C 238.5,97.5 238.5,103.5 238.5,109.5C 240.415,109.216 242.081,109.549 243.5,110.5C 241.5,110.5 239.5,110.5 237.5,110.5C 237.5,104.5 237.5,98.5 237.5,92.5C 236.209,92.7373 235.209,92.404 234.5,91.5 Z"/></g>
<g><path style="opacity:1" fill="#777777" d="M 231.5,98.5 C 231.167,98.5 230.833,98.5 230.5,98.5C 177.5,98.5 124.5,98.5 71.5,98.5C 71.5,102.167 71.5,105.833 71.5,109.5C 71.5,109.833 71.5,110.167 71.5,110.5C 70.5151,106.366 70.1818,102.032 70.5,97.5C 124.336,97.1677 178.003,97.501 231.5,98.5 Z"/></g>
<g><path style="opacity:1" fill="#fdfdfd" d="M 230.5,98.5 C 230.5,102.167 230.5,105.833 230.5,109.5C 177.5,109.5 124.5,109.5 71.5,109.5C 71.5,105.833 71.5,102.167 71.5,98.5C 124.5,98.5 177.5,98.5 230.5,98.5 Z"/></g>
<g><path style="opacity:1" fill="#d7d7d7" d="M 230.5,98.5 C 230.833,98.5 231.167,98.5 231.5,98.5C 231.5,102.5 231.5,106.5 231.5,110.5C 178.167,110.5 124.833,110.5 71.5,110.5C 71.5,110.167 71.5,109.833 71.5,109.5C 124.5,109.5 177.5,109.5 230.5,109.5C 230.5,105.833 230.5,102.167 230.5,98.5 Z"/></g>
<g><path style="opacity:1" fill="#979797" d="M 65.5,116.5 C 65.5,116.833 65.5,117.167 65.5,117.5C 65.5,121.167 65.5,124.833 65.5,128.5C 122.833,128.5 180.167,128.5 237.5,128.5C 237.5,124.5 237.5,120.5 237.5,116.5C 238.485,120.634 238.818,124.968 238.5,129.5C 180.5,129.5 122.5,129.5 64.5,129.5C 64.1818,124.968 64.5151,120.634 65.5,116.5 Z"/></g>
<g><path style="opacity:1" fill="#cccbcb" d="M 65.5,117.5 C 65.5,117.167 65.5,116.833 65.5,116.5C 69.5,116.5 73.5,116.5 77.5,116.5C 77.5,119.5 77.5,122.5 77.5,125.5C 82.5,125.5 87.5,125.5 92.5,125.5C 87.3595,126.488 82.0262,126.821 76.5,126.5C 76.5,123.5 76.5,120.5 76.5,117.5C 72.8333,117.5 69.1667,117.5 65.5,117.5 Z"/></g>
<g><path style="opacity:1" fill="#e1e1e1" d="M 83.5,116.5 C 84.5,116.5 85.5,116.5 86.5,116.5C 86.5,117.5 86.5,118.5 86.5,119.5C 85.5,119.5 84.5,119.5 83.5,119.5C 83.5,118.5 83.5,117.5 83.5,116.5 Z"/></g>
<g><path style="opacity:1" fill="#f5f5f5" d="M 95.5,116.5 C 95.5,119.833 95.5,123.167 95.5,126.5C 100.833,126.5 106.167,126.5 111.5,126.5C 111.5,123.167 111.5,119.833 111.5,116.5C 112.5,116.5 113.5,116.5 114.5,116.5C 114.5,119.5 114.5,122.5 114.5,125.5C 119.5,125.5 124.5,125.5 129.5,125.5C 130.166,122.972 130.832,120.306 131.5,117.5C 132.484,120.428 132.817,123.428 132.5,126.5C 138.026,126.821 143.36,126.488 148.5,125.5C 148.5,122.5 148.5,119.5 148.5,116.5C 150.5,116.5 152.5,116.5 154.5,116.5C 154.5,119.5 154.5,122.5 154.5,125.5C 159.5,125.5 164.5,125.5 169.5,125.5C 170.166,122.972 170.832,120.306 171.5,117.5C 172.484,120.428 172.817,123.428 172.5,126.5C 177.833,126.5 183.167,126.5 188.5,126.5C 188.183,123.428 188.516,120.428 189.5,117.5C 190.168,120.306 190.834,122.972 191.5,125.5C 196.5,125.5 201.5,125.5 206.5,125.5C 207.166,122.972 207.832,120.306 208.5,117.5C 209.168,120.306 209.834,122.972 210.5,125.5C 215.5,125.5 220.5,125.5 225.5,125.5C 225.5,122.5 225.5,119.5 225.5,116.5C 229.5,116.5 233.5,116.5 237.5,116.5C 237.5,120.5 237.5,124.5 237.5,128.5C 180.167,128.5 122.833,128.5 65.5,128.5C 65.5,124.833 65.5,121.167 65.5,117.5C 69.1667,117.5 72.8333,117.5 76.5,117.5C 76.5,120.5 76.5,123.5 76.5,126.5C 82.0262,126.821 87.3595,126.488 92.5,125.5C 92.5,122.5 92.5,119.5 92.5,116.5C 93.5,116.5 94.5,116.5 95.5,116.5 Z"/></g>
<g><path style="opacity:1" fill="#b0b0b0" d="M 191.5,125.5 C 190.834,122.972 190.168,120.306 189.5,117.5C 188.516,120.428 188.183,123.428 188.5,126.5C 183.167,126.5 177.833,126.5 172.5,126.5C 172.817,123.428 172.484,120.428 171.5,117.5C 170.832,120.306 170.166,122.972 169.5,125.5C 169.5,122.5 169.5,119.5 169.5,116.5C 170.833,116.5 172.167,116.5 173.5,116.5C 173.5,119.5 173.5,122.5 173.5,125.5C 178.167,125.5 182.833,125.5 187.5,125.5C 187.5,122.5 187.5,119.5 187.5,116.5C 188.833,116.5 190.167,116.5 191.5,116.5C 191.5,119.5 191.5,122.5 191.5,125.5 Z"/></g>
<g><path style="opacity:1" fill="#b3b2b2" d="M 148.5,125.5 C 143.36,126.488 138.026,126.821 132.5,126.5C 132.817,123.428 132.484,120.428 131.5,117.5C 130.832,120.306 130.166,122.972 129.5,125.5C 129.5,122.5 129.5,119.5 129.5,116.5C 130.833,116.5 132.167,116.5 133.5,116.5C 133.5,119.5 133.5,122.5 133.5,125.5C 138.5,125.5 143.5,125.5 148.5,125.5 Z"/></g>
<g><path style="opacity:1" fill="#a0a0a0" d="M 95.5,116.5 C 96.4767,119.287 96.81,122.287 96.5,125.5C 101.167,125.5 105.833,125.5 110.5,125.5C 110.19,122.287 110.523,119.287 111.5,116.5C 111.5,119.833 111.5,123.167 111.5,126.5C 106.167,126.5 100.833,126.5 95.5,126.5C 95.5,123.167 95.5,119.833 95.5,116.5 Z"/></g>
<g><path style="opacity:1" fill="#6f6f6f" d="M 179.5,116.5 C 180.167,120.5 180.833,120.5 181.5,116.5C 182.434,117.568 182.768,118.901 182.5,120.5C 181.167,120.5 179.833,120.5 178.5,120.5C 178.232,118.901 178.566,117.568 179.5,116.5 Z"/></g>
<g><path style="opacity:1" fill="#6c6c6c" d="M 102.5,116.5 C 103.167,120.5 103.833,120.5 104.5,116.5C 105.434,117.568 105.768,118.901 105.5,120.5C 104.167,120.5 102.833,120.5 101.5,120.5C 101.232,118.901 101.566,117.568 102.5,116.5 Z"/></g>
<g><path style="opacity:1" fill="#a4a4a4" d="M 215.5,116.5 C 216.833,116.5 218.167,116.5 219.5,116.5C 219.5,117.833 219.5,119.167 219.5,120.5C 216.5,120.833 215.167,119.5 215.5,116.5 Z"/></g>
<g><path style="opacity:1" fill="#8f8f8f" d="M 210.5,125.5 C 209.834,122.972 209.168,120.306 208.5,117.5C 207.832,120.306 207.166,122.972 206.5,125.5C 206.5,122.5 206.5,119.5 206.5,116.5C 207.833,116.5 209.167,116.5 210.5,116.5C 210.5,119.5 210.5,122.5 210.5,125.5 Z"/></g>
<g><path style="opacity:1" fill="#d9d9d9" d="M 197.5,116.5 C 198.5,116.5 199.5,116.5 200.5,116.5C 200.5,117.5 200.5,118.5 200.5,119.5C 199.5,119.5 198.5,119.5 197.5,119.5C 197.5,118.5 197.5,117.5 197.5,116.5 Z"/></g>
<g><path style="opacity:1" fill="#ebebeb" d="M 179.5,116.5 C 180.167,116.5 180.833,116.5 181.5,116.5C 180.833,120.5 180.167,120.5 179.5,116.5 Z"/></g>
<g><path style="opacity:1" fill="#e8e8e8" d="M 160.5,116.5 C 161.5,116.5 162.5,116.5 163.5,116.5C 163.5,117.5 163.5,118.5 163.5,119.5C 162.5,119.5 161.5,119.5 160.5,119.5C 160.5,118.5 160.5,117.5 160.5,116.5 Z"/></g>
<g><path style="opacity:1" fill="#ababab" d="M 138.5,116.5 C 139.833,116.5 141.167,116.5 142.5,116.5C 142.5,117.833 142.5,119.167 142.5,120.5C 141.167,120.5 139.833,120.5 138.5,120.5C 138.5,119.167 138.5,117.833 138.5,116.5 Z"/></g>
<g><path style="opacity:1" fill="#cecece" d="M 120.5,116.5 C 121.5,116.5 122.5,116.5 123.5,116.5C 123.5,117.5 123.5,118.5 123.5,119.5C 122.5,119.5 121.5,119.5 120.5,119.5C 120.5,118.5 120.5,117.5 120.5,116.5 Z"/></g>
<g><path style="opacity:1" fill="#e8e8e8" d="M 102.5,116.5 C 103.167,116.5 103.833,116.5 104.5,116.5C 103.833,120.5 103.167,120.5 102.5,116.5 Z"/></g>
<g><path style="opacity:1" fill="#7e7e7e" d="M 228.5,135.5 C 228.167,135.5 227.833,135.5 227.5,135.5C 176.5,135.5 125.5,135.5 74.5,135.5C 74.8304,155.34 74.4971,175.007 73.5,194.5C 73.5,174.5 73.5,154.5 73.5,134.5C 125.336,134.168 177.003,134.501 228.5,135.5 Z"/></g>
<g><path style="opacity:1" fill="#606060" d="M 234.5,135.5 C 235.568,134.566 236.901,134.232 238.5,134.5C 238.83,154.34 238.497,174.007 237.5,193.5C 237.5,193.167 237.5,192.833 237.5,192.5C 238.154,173.137 237.487,154.137 235.5,135.5C 235.167,135.5 234.833,135.5 234.5,135.5 Z"/></g>
<g><path style="opacity:1" fill="#a2a2a2" d="M 67.5,193.5 C 66.8333,116.167 66.1667,116.167 65.5,193.5C 64.5029,174.007 64.1696,154.34 64.5,134.5C 65.8333,134.5 67.1667,134.5 68.5,134.5C 68.8304,154.34 68.4971,174.007 67.5,193.5 Z"/></g>
<g><path style="opacity:1" fill="#fbfbfb" d="M 67.5,193.5 C 66.8333,193.5 66.1667,193.5 65.5,193.5C 66.1667,116.167 66.8333,116.167 67.5,193.5 Z"/></g>
<g><path style="opacity:1" fill="#d1d1d1" d="M 227.5,135.5 C 227.833,135.5 228.167,135.5 228.5,135.5C 228.19,155.879 228.523,176.213 229.5,196.5C 228.883,196.389 228.383,196.056 228,195.5C 227.5,175.503 227.333,155.503 227.5,135.5 Z"/></g>
<g><path style="opacity:1" fill="#d5d5d5" d="M 234.5,135.5 C 234.833,135.5 235.167,135.5 235.5,135.5C 234.846,154.863 235.513,173.863 237.5,192.5C 237.5,192.833 237.5,193.167 237.5,193.5C 236.5,193.5 235.5,193.5 234.5,193.5C 234.5,174.167 234.5,154.833 234.5,135.5 Z"/></g>
<g><path style="opacity:1" fill="#f7f7f7" d="M 235.5,135.5 C 237.487,154.137 238.154,173.137 237.5,192.5C 235.513,173.863 234.846,154.863 235.5,135.5 Z"/></g>
<g><path style="opacity:1" fill="#353535" d="M 215.5,150.5 C 215.5,158.5 215.5,166.5 215.5,174.5C 212.833,174.5 210.167,174.5 207.5,174.5C 209.607,173.532 211.941,173.198 214.5,173.5C 214.5,166.167 214.5,158.833 214.5,151.5C 170.167,151.5 125.833,151.5 81.5,151.5C 81.5,159.167 81.5,166.833 81.5,174.5C 84.3854,174.194 87.0521,174.527 89.5,175.5C 86.5,175.5 83.5,175.5 80.5,175.5C 80.5,167.167 80.5,158.833 80.5,150.5C 125.5,150.5 170.5,150.5 215.5,150.5 Z"/></g>
<g><path style="opacity:1" fill="#141414" d="M 207.5,174.5 C 206.509,180.979 206.176,187.646 206.5,194.5C 203.349,199.65 199.016,200.817 193.5,198C 192.418,196.67 191.751,195.17 191.5,193.5C 191.5,187.5 191.5,181.5 191.5,175.5C 162.671,174.502 133.671,174.169 104.5,174.5C 104.5,181.167 104.5,187.833 104.5,194.5C 102.275,199.109 98.6088,200.609 93.5,199C 92.6667,198.167 91.8333,197.333 91,196.5C 89.5753,189.615 89.0753,182.615 89.5,175.5C 87.0521,174.527 84.3854,174.194 81.5,174.5C 81.5,166.833 81.5,159.167 81.5,151.5C 125.833,151.5 170.167,151.5 214.5,151.5C 214.5,158.833 214.5,166.167 214.5,173.5C 211.941,173.198 209.607,173.532 207.5,174.5 Z"/></g>
<g><path style="opacity:1" fill="#858585" d="M 215.5,150.5 C 216.493,158.65 216.826,166.983 216.5,175.5C 213.5,175.5 210.5,175.5 207.5,175.5C 207.823,182.022 207.49,188.355 206.5,194.5C 206.176,187.646 206.509,180.979 207.5,174.5C 210.167,174.5 212.833,174.5 215.5,174.5C 215.5,166.5 215.5,158.5 215.5,150.5 Z"/></g>
<g><path style="opacity:1" fill="#c3c3c3" d="M 86.5,156.5 C 127.5,156.5 168.5,156.5 209.5,156.5C 209.5,156.833 209.5,157.167 209.5,157.5C 168.833,157.5 128.167,157.5 87.5,157.5C 87.5,161.167 87.5,164.833 87.5,168.5C 87.1667,168.5 86.8333,168.5 86.5,168.5C 86.5,164.5 86.5,160.5 86.5,156.5 Z"/></g>
<g><path style="opacity:1" fill="#fdfdfd" d="M 209.5,157.5 C 209.5,161.167 209.5,164.833 209.5,168.5C 168.833,168.5 128.167,168.5 87.5,168.5C 87.5,164.833 87.5,161.167 87.5,157.5C 128.167,157.5 168.833,157.5 209.5,157.5 Z"/></g>
<g><path style="opacity:1" fill="#8a8a8a" d="M 209.5,156.5 C 210.833,160.833 210.833,165.167 209.5,169.5C 168.33,169.832 127.33,169.499 86.5,168.5C 86.8333,168.5 87.1667,168.5 87.5,168.5C 128.167,168.5 168.833,168.5 209.5,168.5C 209.5,164.833 209.5,161.167 209.5,157.5C 209.5,157.167 209.5,156.833 209.5,156.5 Z"/></g>
<g><path style="opacity:1" fill="#262626" d="M 86.5,156.5 C 86.5,160.5 86.5,164.5 86.5,168.5C 127.33,169.499 168.33,169.832 209.5,169.5C 168.337,170.499 127.003,170.832 85.5,170.5C 85.1805,165.637 85.5139,160.97 86.5,156.5 Z"/></g>
<g><path style="opacity:1" fill="#6e6e6e" d="M 191.5,175.5 C 162.833,175.5 134.167,175.5 105.5,175.5C 105.5,181.833 105.5,188.167 105.5,194.5C 105.167,194.5 104.833,194.5 104.5,194.5C 104.5,187.833 104.5,181.167 104.5,174.5C 133.671,174.169 162.671,174.502 191.5,175.5 Z"/></g>
<g><path style="opacity:1" fill="#e0e0e0" d="M 191.5,175.5 C 191.5,181.5 191.5,187.5 191.5,193.5C 190.511,188.025 190.178,182.358 190.5,176.5C 162.5,176.5 134.5,176.5 106.5,176.5C 106.823,182.69 106.49,188.69 105.5,194.5C 105.5,188.167 105.5,181.833 105.5,175.5C 134.167,175.5 162.833,175.5 191.5,175.5 Z"/></g>
<g><path style="opacity:1" fill="#838383" d="M 98.5,193.5 C 97.8333,169.5 97.1667,169.5 96.5,193.5C 95.5098,187.355 95.1765,181.022 95.5,174.5C 96.8333,174.5 98.1667,174.5 99.5,174.5C 99.8235,181.022 99.4902,187.355 98.5,193.5 Z"/></g>
<g><path style="opacity:1" fill="#efefef" d="M 98.5,193.5 C 97.8333,193.5 97.1667,193.5 96.5,193.5C 97.1667,169.5 97.8333,169.5 98.5,193.5 Z"/></g>
<g><path style="opacity:1" fill="#dadada" d="M 197.5,174.5 C 198.5,174.5 199.5,174.5 200.5,174.5C 200.5,180.833 200.5,187.167 200.5,193.5C 199.5,193.5 198.5,193.5 197.5,193.5C 197.5,187.167 197.5,180.833 197.5,174.5 Z"/></g>
</svg>
