<?xml version="1.0" encoding="UTF-8"?>
<!DOCTYPE svg PUBLIC "-//W3C//DTD SVG 1.1//EN" "http://www.w3.org/Graphics/SVG/1.1/DTD/svg11.dtd">
<svg xmlns="http://www.w3.org/2000/svg" version="1.1" width="207px" height="190px" style="shape-rendering:geometricPrecision; text-rendering:geometricPrecision; image-rendering:optimizeQuality; fill-rule:evenodd; clip-rule:evenodd" xmlns:xlink="http://www.w3.org/1999/xlink">
<g><path style="opacity:0.989" fill="#fbfbfb" d="M 186.5,189.5 C 130.5,189.5 74.5,189.5 18.5,189.5C 18.5,126.5 18.5,63.5 18.5,0.5C 74.5,0.5 130.5,0.5 186.5,0.5C 186.5,63.5 186.5,126.5 186.5,189.5 Z"/></g>
<g><path style="opacity:1" fill="#100f0e" d="M 89.5,14.5 C 104.65,12.1985 118.65,15.0319 131.5,23C 138.77,28.9354 143.603,36.4354 146,45.5C 146.5,66.4974 146.667,87.4974 146.5,108.5C 117.167,108.5 87.8333,108.5 58.5,108.5C 58.0437,86.4469 58.5437,64.4469 60,42.5C 65.5151,28.4817 75.3485,19.1484 89.5,14.5 Z"/></g>
<g><path style="opacity:1" fill="#151413" d="M 50.5,87.5 C 50.168,98.1874 50.5013,108.854 51.5,119.5C 52.1067,119.376 52.44,119.043 52.5,118.5C 85.8333,117.167 119.167,117.167 152.5,118.5C 152.56,119.043 152.893,119.376 153.5,119.5C 154.499,108.52 154.832,97.5202 154.5,86.5C 157.709,78.1851 163.709,75.3517 172.5,78C 180.491,81.6221 183.491,87.6221 181.5,96C 173.841,96.4997 166.174,96.6664 158.5,96.5C 158.667,108.838 158.5,121.171 158,133.5C 156.833,137.333 154.333,139.833 150.5,141C 135.856,142.331 121.189,143.331 106.5,144C 105.28,145.525 104.613,147.359 104.5,149.5C 104.54,151.429 104.873,153.262 105.5,155C 121.473,156.51 137.473,157.843 153.5,159C 155.074,160.826 155.907,162.993 156,165.5C 163.701,170.435 164.535,176.435 158.5,183.5C 152.712,186.889 147.879,185.889 144,180.5C 141.103,173.199 143.269,167.866 150.5,164.5C 138.259,162.373 125.926,161.039 113.5,160.5C 110.713,159.523 107.713,159.19 104.5,159.5C 104.205,161.735 104.539,163.735 105.5,165.5C 111.855,167.699 114.022,172.033 112,178.5C 105.667,187.833 99.3333,187.833 93,178.5C 91.8411,172.495 94.0078,168.162 99.5,165.5C 100.461,163.735 100.795,161.735 100.5,159.5C 97.2869,159.19 94.2869,159.523 91.5,160.5C 79.0642,160.956 66.7309,162.289 54.5,164.5C 56.5378,166.276 58.7045,167.943 61,169.5C 64.129,176.411 62.2957,181.578 55.5,185C 48.0088,185.848 43.6755,182.515 42.5,175C 42.7043,170.292 45.0377,167.125 49.5,165.5C 50.2208,163.314 50.8875,161.147 51.5,159C 67.4611,157.171 83.4611,155.838 99.5,155C 100.456,151.606 100.789,148.106 100.5,144.5C 85.1622,143.461 69.8289,142.295 54.5,141C 50.6667,139.833 48.1667,137.333 47,133.5C 46.5001,121.171 46.3335,108.838 46.5,96.5C 38.8333,96.5 31.1667,96.5 23.5,96.5C 22.272,83.2285 28.272,77.0618 41.5,78C 46.7649,79.0965 49.7649,82.2631 50.5,87.5 Z"/></g>
<g><path style="opacity:1" fill="#b4b3b3" d="M 154.5,86.5 C 154.832,97.5202 154.499,108.52 153.5,119.5C 152.893,119.376 152.56,119.043 152.5,118.5C 153.167,107.833 153.833,97.1667 154.5,86.5 Z"/></g>
<g><path style="opacity:1" fill="#949293" d="M 50.5,87.5 C 51.1667,97.8333 51.8333,108.167 52.5,118.5C 52.44,119.043 52.1067,119.376 51.5,119.5C 50.5013,108.854 50.168,98.1874 50.5,87.5 Z"/></g>
<g><path style="opacity:1" fill="#bcbcbc" d="M 91.5,160.5 C 94.2869,159.523 97.2869,159.19 100.5,159.5C 100.795,161.735 100.461,163.735 99.5,165.5C 99.5,163.833 99.5,162.167 99.5,160.5C 96.8333,160.5 94.1667,160.5 91.5,160.5 Z"/></g>
<g><path style="opacity:1" fill="#a9a7a8" d="M 113.5,160.5 C 110.833,160.5 108.167,160.5 105.5,160.5C 105.5,162.167 105.5,163.833 105.5,165.5C 104.539,163.735 104.205,161.735 104.5,159.5C 107.713,159.19 110.713,159.523 113.5,160.5 Z"/></g>
</svg>
