<?xml version="1.0" encoding="UTF-8"?>
<!DOCTYPE svg PUBLIC "-//W3C//DTD SVG 1.1//EN" "http://www.w3.org/Graphics/SVG/1.1/DTD/svg11.dtd">
<svg xmlns="http://www.w3.org/2000/svg" version="1.1" width="226px" height="150px" style="shape-rendering:geometricPrecision; text-rendering:geometricPrecision; image-rendering:optimizeQuality; fill-rule:evenodd; clip-rule:evenodd" xmlns:xlink="http://www.w3.org/1999/xlink">
<g><path style="opacity:0.992" fill="#5d6e77" d="M 89.5,-0.5 C 90.1667,-0.5 90.8333,-0.5 91.5,-0.5C 131.861,13.7349 172.194,28.4016 212.5,43.5C 213.5,65.4899 213.833,87.4899 213.5,109.5C 211.958,108.699 210.292,108.366 208.5,108.5C 208.918,107.778 209.584,107.278 210.5,107C 208.671,106.727 207.171,105.893 206,104.5C 205.83,93.6588 205.33,82.9921 204.5,72.5C 201.199,71.7158 197.866,70.7158 194.5,69.5C 194.821,63.9738 194.488,58.6405 193.5,53.5C 188.8,51.7738 183.967,50.1072 179,48.5C 174.085,49.527 169.252,50.8603 164.5,52.5C 163.505,58.1278 163.171,63.7945 163.5,69.5C 162.5,69.5 161.5,69.5 160.5,69.5C 160.666,65.1539 160.499,60.8206 160,56.5C 153.493,52.9982 146.66,50.3316 139.5,48.5C 137.962,48.4534 136.962,49.1201 136.5,50.5C 135.514,54.97 135.181,59.6367 135.5,64.5C 133.716,64.8925 132.05,65.5592 130.5,66.5C 131.29,53.5509 133.623,40.8842 137.5,28.5C 137.002,26.252 136.002,24.252 134.5,22.5C 132.931,23.714 132.098,25.3807 132,27.5C 131.533,39.63 129.366,51.2967 125.5,62.5C 125.768,60.901 125.434,59.5676 124.5,58.5C 120.67,56.9577 116.67,55.6244 112.5,54.5C 112.815,50.6286 112.482,46.9619 111.5,43.5C 110.791,42.596 109.791,42.2627 108.5,42.5C 108.5,37.1667 108.5,31.8333 108.5,26.5C 104.035,25.6332 99.7021,24.2999 95.5,22.5C 93.4878,22.8396 91.4878,23.1729 89.5,23.5C 89.5,15.5 89.5,7.5 89.5,-0.5 Z"/></g>
<g><path style="opacity:0.876" fill="#424e5b" d="M 87.5,-0.5 C 88.1667,-0.5 88.8333,-0.5 89.5,-0.5C 89.5,7.5 89.5,15.5 89.5,23.5C 87.6796,25.4484 85.3462,26.4484 82.5,26.5C 82.8275,31.544 82.4941,36.544 81.5,41.5C 80.2519,42.0402 79.0852,42.7069 78,43.5C 77.8283,48.2018 77.3283,52.8685 76.5,57.5C 74.9246,58.4565 73.258,59.1231 71.5,59.5C 71.7359,56.3915 71.4025,53.3915 70.5,50.5C 70.8271,40.6522 70.4938,30.9856 69.5,21.5C 64.5765,19.1314 59.4098,17.1314 54,15.5C 43.6919,18.2522 33.8586,21.9188 24.5,26.5C 23.5028,46.9933 23.1695,67.6599 23.5,88.5C 20.59,89.6472 17.59,90.6472 14.5,91.5C 12.8958,92.287 12.2291,93.6203 12.5,95.5C 11.1714,72.6632 11.1714,49.6632 12.5,26.5C 37.549,17.2646 62.549,8.26461 87.5,-0.5 Z"/></g>
<g><path style="opacity:1" fill="#3e7fb8" d="M 69.5,21.5 C 59.8887,25.542 50.222,29.2086 40.5,32.5C 35.4251,29.969 30.0918,27.969 24.5,26.5C 33.8586,21.9188 43.6919,18.2522 54,15.5C 59.4098,17.1314 64.5765,19.1314 69.5,21.5 Z"/></g>
<g><path style="opacity:1" fill="#4395c2" d="M 24.5,26.5 C 30.0918,27.969 35.4251,29.969 40.5,32.5C 40.5,53.5 40.5,74.5 40.5,95.5C 34.5131,94.0085 28.8464,91.6752 23.5,88.5C 23.1695,67.6599 23.5028,46.9933 24.5,26.5 Z"/></g>
<g><path style="opacity:1" fill="#71c0ea" d="M 69.5,21.5 C 70.4938,30.9856 70.8271,40.6522 70.5,50.5C 59.084,46.0186 53.9173,49.6852 55,61.5C 57.0693,62.2638 59.236,62.7638 61.5,63C 58.4392,64.5304 55.4392,66.0304 52.5,67.5C 48.1536,67.8537 46.4869,70.187 47.5,74.5C 47.5,80.8333 47.5,87.1667 47.5,93.5C 45.079,93.8782 42.7457,94.5448 40.5,95.5C 40.5,74.5 40.5,53.5 40.5,32.5C 50.222,29.2086 59.8887,25.542 69.5,21.5 Z"/></g>
<g><path style="opacity:1" fill="#e0c68b" d="M 111.5,43.5 C 105.807,45.4312 100.307,47.7646 95,50.5C 94.5034,52.8098 94.3367,55.1432 94.5,57.5C 94.5,61.8333 94.5,66.1667 94.5,70.5C 91.3429,70.9215 89.0095,69.7548 87.5,67C 85.8659,66.5065 84.1992,66.3398 82.5,66.5C 82.6657,62.1539 82.499,57.8206 82,53.5C 81.6924,52.6919 81.1924,52.0253 80.5,51.5C 79.6725,55.7956 79.1725,60.1289 79,64.5C 77.9817,66.9282 76.1483,68.2615 73.5,68.5C 71.9891,67.4975 70.3224,66.8308 68.5,66.5C 68.5,65.1667 68.5,63.8333 68.5,62.5C 69.5,62.5 70.5,62.5 71.5,62.5C 71.5,61.5 71.5,60.5 71.5,59.5C 73.258,59.1231 74.9246,58.4565 76.5,57.5C 77.3283,52.8685 77.8283,48.2018 78,43.5C 79.0852,42.7069 80.2519,42.0402 81.5,41.5C 82.4941,36.544 82.8275,31.544 82.5,26.5C 85.3462,26.4484 87.6796,25.4484 89.5,23.5C 91.4878,23.1729 93.4878,22.8396 95.5,22.5C 99.7021,24.2999 104.035,25.6332 108.5,26.5C 108.5,31.8333 108.5,37.1667 108.5,42.5C 109.791,42.2627 110.791,42.596 111.5,43.5 Z"/></g>
<g><path style="opacity:1" fill="#f6e8c6" d="M 104.5,27.5 C 105.5,27.5 106.5,27.5 107.5,27.5C 107.5,32.5 107.5,37.5 107.5,42.5C 103.563,43.0351 99.8961,44.3685 96.5,46.5C 95.1667,41.1667 95.1667,35.8333 96.5,30.5C 99.3844,29.7908 102.051,28.7908 104.5,27.5 Z"/></g>
<g><path style="opacity:1" fill="#ede2c3" d="M 111.5,43.5 C 112.482,46.9619 112.815,50.6286 112.5,54.5C 108.518,55.6628 104.518,56.8295 100.5,58C 99.2264,58.9772 99.2264,59.8106 100.5,60.5C 100.5,61.5 100.5,62.5 100.5,63.5C 99.8501,63.1961 99.1835,62.8627 98.5,62.5C 97.513,65.7683 97.1796,69.1016 97.5,72.5C 97.1413,67.2514 96.1413,62.2514 94.5,57.5C 94.3367,55.1432 94.5034,52.8098 95,50.5C 100.307,47.7646 105.807,45.4312 111.5,43.5 Z"/></g>
<g><path style="opacity:1" fill="#f2bfb4" d="M 136.5,50.5 C 142.029,52.7365 147.695,54.9032 153.5,57C 154.833,61.6667 154.833,66.3333 153.5,71C 151.577,71.8078 149.577,72.3078 147.5,72.5C 144.198,71.6203 140.865,70.9537 137.5,70.5C 137.946,67.9899 137.28,65.9899 135.5,64.5C 135.181,59.6367 135.514,54.97 136.5,50.5 Z"/></g>
<g><path style="opacity:1" fill="#b8c591" d="M 70.5,50.5 C 71.4025,53.3915 71.7359,56.3915 71.5,59.5C 71.5,60.5 71.5,61.5 71.5,62.5C 70.5,62.5 69.5,62.5 68.5,62.5C 68.5,63.8333 68.5,65.1667 68.5,66.5C 70.3224,66.8308 71.9891,67.4975 73.5,68.5C 72.063,69.7255 70.3964,70.7255 68.5,71.5C 67.6725,67.2044 67.1725,62.8711 67,58.5C 66.586,58.0426 66.086,57.7093 65.5,57.5C 65.4202,62.6192 65.0869,67.6192 64.5,72.5C 60.6063,70.9982 56.6063,69.3316 52.5,67.5C 55.4392,66.0304 58.4392,64.5304 61.5,63C 59.236,62.7638 57.0693,62.2638 55,61.5C 53.9173,49.6852 59.084,46.0186 70.5,50.5 Z"/></g>
<g><path style="opacity:1" fill="#e1c98e" d="M 193.5,53.5 C 189.311,55.2292 184.978,56.5625 180.5,57.5C 179.504,63.7985 179.17,70.1318 179.5,76.5C 184.5,75.1667 189.5,73.8333 194.5,72.5C 194.5,71.5 194.5,70.5 194.5,69.5C 197.866,70.7158 201.199,71.7158 204.5,72.5C 204.5,72.8333 204.5,73.1667 204.5,73.5C 196.56,76.0906 188.56,78.5906 180.5,81C 179.058,81.3768 178.058,82.2101 177.5,83.5C 172.184,81.8396 166.851,80.173 161.5,78.5C 157.191,81.1436 153.524,84.4769 150.5,88.5C 150.334,83.4889 150.501,78.4889 151,73.5C 154.193,71.9796 157.36,70.6462 160.5,69.5C 161.5,69.5 162.5,69.5 163.5,69.5C 163.171,63.7945 163.505,58.1278 164.5,52.5C 169.252,50.8603 174.085,49.527 179,48.5C 183.967,50.1072 188.8,51.7738 193.5,53.5 Z"/></g>
<g><path style="opacity:1" fill="#f6e8c7" d="M 193.5,53.5 C 194.488,58.6405 194.821,63.9738 194.5,69.5C 194.5,70.5 194.5,71.5 194.5,72.5C 189.5,73.8333 184.5,75.1667 179.5,76.5C 179.17,70.1318 179.504,63.7985 180.5,57.5C 184.978,56.5625 189.311,55.2292 193.5,53.5 Z"/></g>
<g><path style="opacity:1" fill="#85b2ba" d="M 130.5,66.5 C 129.167,66.8333 127.833,67.1667 126.5,67.5C 125.549,66.0813 125.216,64.4147 125.5,62.5C 129.366,51.2967 131.533,39.63 132,27.5C 132.098,25.3807 132.931,23.714 134.5,22.5C 136.002,24.252 137.002,26.252 137.5,28.5C 133.623,40.8842 131.29,53.5509 130.5,66.5 Z"/></g>
<g><path style="opacity:1" fill="#e3ca8f" d="M 112.5,54.5 C 116.67,55.6244 120.67,56.9577 124.5,58.5C 120.836,59.5541 117.169,60.7208 113.5,62C 112.594,63.6995 112.261,65.5328 112.5,67.5C 109.406,66.7866 106.406,65.7866 103.5,64.5C 103.912,62.0274 102.912,60.6941 100.5,60.5C 99.2264,59.8106 99.2264,58.9772 100.5,58C 104.518,56.8295 108.518,55.6628 112.5,54.5 Z"/></g>
<g><path style="opacity:1" fill="#e7dfc2" d="M 124.5,58.5 C 125.434,59.5676 125.768,60.901 125.5,62.5C 125.216,64.4147 125.549,66.0813 126.5,67.5C 124.626,68.2852 122.626,68.9518 120.5,69.5C 118.744,70.5521 118.077,72.2188 118.5,74.5C 117.834,71.9723 117.168,69.3056 116.5,66.5C 116.167,67 115.833,67.5 115.5,68C 116.762,71.9785 116.762,75.8118 115.5,79.5C 115.665,76.4816 115.498,73.4816 115,70.5C 114.302,69.3094 113.469,68.3094 112.5,67.5C 112.261,65.5328 112.594,63.6995 113.5,62C 117.169,60.7208 120.836,59.5541 124.5,58.5 Z"/></g>
<g><path style="opacity:1" fill="#5aa4cc" d="M 94.5,57.5 C 96.1413,62.2514 97.1413,67.2514 97.5,72.5C 97.719,73.675 97.3857,74.675 96.5,75.5C 93.9124,76.1936 91.579,77.3602 89.5,79C 99.293,78.0549 102.96,72.8883 100.5,63.5C 100.5,62.5 100.5,61.5 100.5,60.5C 102.912,60.6941 103.912,62.0274 103.5,64.5C 103.177,68.226 103.511,71.8927 104.5,75.5C 107.906,77.5997 111.572,78.933 115.5,79.5C 116.762,75.8118 116.762,71.9785 115.5,68C 115.833,67.5 116.167,67 116.5,66.5C 117.168,69.3056 117.834,71.9723 118.5,74.5C 118.543,77.5865 118.71,80.5865 119,83.5C 112.329,86.5859 105.495,89.2526 98.5,91.5C 99.3482,93.4086 99.6816,95.4086 99.5,97.5C 100.12,103.926 99.4533,109.926 97.5,115.5C 92.4211,114.377 87.9211,112.043 84,108.5C 83.5005,102.175 83.3338,95.8421 83.5,89.5C 83.5,88.5 83.5,87.5 83.5,86.5C 87.5148,86.7241 88.1815,85.5575 85.5,83C 86.452,81.6996 86.452,80.533 85.5,79.5C 82.6163,80.8156 79.6163,81.8156 76.5,82.5C 78.1733,84.5225 78.8399,86.8559 78.5,89.5C 78.5,95.5 78.5,101.5 78.5,107.5C 73.0356,106.435 68.0356,104.268 63.5,101C 62.8572,96.2162 62.1906,91.3829 61.5,86.5C 60.2613,86.9424 59.2613,87.6091 58.5,88.5C 56.5,89.1667 54.5,89.8333 52.5,90.5C 52.5,86.1667 52.5,81.8333 52.5,77.5C 55.6862,77.8954 58.6862,78.8954 61.5,80.5C 62.3857,79.675 62.719,78.675 62.5,77.5C 63.675,77.719 64.675,77.3857 65.5,76.5C 64.7542,75.2638 64.4208,73.9305 64.5,72.5C 65.0869,67.6192 65.4202,62.6192 65.5,57.5C 66.086,57.7093 66.586,58.0426 67,58.5C 67.1725,62.8711 67.6725,67.2044 68.5,71.5C 70.3964,70.7255 72.063,69.7255 73.5,68.5C 76.1483,68.2615 77.9817,66.9282 79,64.5C 79.1725,60.1289 79.6725,55.7956 80.5,51.5C 81.1924,52.0253 81.6924,52.6919 82,53.5C 82.499,57.8206 82.6657,62.1539 82.5,66.5C 84.1992,66.3398 85.8659,66.5065 87.5,67C 89.0095,69.7548 91.3429,70.9215 94.5,70.5C 94.5,66.1667 94.5,61.8333 94.5,57.5 Z"/></g>
<g><path style="opacity:1" fill="#e7c588" d="M 100.5,63.5 C 102.96,72.8883 99.293,78.0549 89.5,79C 91.579,77.3602 93.9124,76.1936 96.5,75.5C 97.3857,74.675 97.719,73.675 97.5,72.5C 97.1796,69.1016 97.513,65.7683 98.5,62.5C 99.1835,62.8627 99.8501,63.1961 100.5,63.5 Z"/></g>
<g><path style="opacity:1" fill="#f5c77e" d="M 103.5,64.5 C 106.406,65.7866 109.406,66.7866 112.5,67.5C 113.469,68.3094 114.302,69.3094 115,70.5C 115.498,73.4816 115.665,76.4816 115.5,79.5C 111.572,78.933 107.906,77.5997 104.5,75.5C 103.511,71.8927 103.177,68.226 103.5,64.5 Z"/></g>
<g><path style="opacity:1" fill="#e7b475" d="M 52.5,67.5 C 56.6063,69.3316 60.6063,70.9982 64.5,72.5C 64.4208,73.9305 64.7542,75.2638 65.5,76.5C 64.675,77.3857 63.675,77.719 62.5,77.5C 62.719,78.675 62.3857,79.675 61.5,80.5C 58.6862,78.8954 55.6862,77.8954 52.5,77.5C 52.5,81.8333 52.5,86.1667 52.5,90.5C 52.5,94.1667 52.5,97.8333 52.5,101.5C 51.1667,101.5 49.8333,101.5 48.5,101.5C 48.8266,92.3178 48.4933,83.3178 47.5,74.5C 46.4869,70.187 48.1536,67.8537 52.5,67.5 Z"/></g>
<g><path style="opacity:1" fill="#f0bc79" d="M 120.5,69.5 C 120.953,70.4584 121.619,71.2917 122.5,72C 127.071,74.0699 131.738,75.9032 136.5,77.5C 136.5,77.8333 136.5,78.1667 136.5,78.5C 125.93,82.4517 115.596,86.9517 105.5,92C 102.983,94.0896 102.983,95.9229 105.5,97.5C 105.5,103.167 105.5,108.833 105.5,114.5C 104.521,117.625 104.187,120.958 104.5,124.5C 103.5,124.5 102.5,124.5 101.5,124.5C 101.108,115.33 100.442,106.33 99.5,97.5C 99.6816,95.4086 99.3482,93.4086 98.5,91.5C 105.495,89.2526 112.329,86.5859 119,83.5C 118.71,80.5865 118.543,77.5865 118.5,74.5C 118.077,72.2188 118.744,70.5521 120.5,69.5 Z"/></g>
<g><path style="opacity:1" fill="#f5e8c8" d="M 204.5,73.5 C 204.667,84.1719 204.5,94.8385 204,105.5C 195.111,109.361 186.278,113.361 177.5,117.5C 177.5,109.833 177.5,102.167 177.5,94.5C 178.398,92.0948 179.898,90.0948 182,88.5C 182.49,87.2068 182.657,85.8734 182.5,84.5C 180.708,84.634 179.042,84.3007 177.5,83.5C 178.058,82.2101 179.058,81.3768 180.5,81C 188.56,78.5906 196.56,76.0906 204.5,73.5 Z"/></g>
<g><path style="opacity:1" fill="#dc504c" d="M 136.5,83.5 C 136.5,81.8333 136.5,80.1667 136.5,78.5C 136.5,78.1667 136.5,77.8333 136.5,77.5C 140.748,75.8755 145.081,74.5421 149.5,73.5C 149.5,75.8333 149.5,78.1667 149.5,80.5C 145.752,81.2074 142.086,82.2074 138.5,83.5C 137.833,98.1667 137.167,98.1667 136.5,83.5 Z"/></g>
<g><path style="opacity:1" fill="#e37469" d="M 160.5,69.5 C 157.36,70.6462 154.193,71.9796 151,73.5C 150.501,78.4889 150.334,83.4889 150.5,88.5C 149.5,90.1667 148.167,91.5 146.5,92.5C 143.079,94.3757 139.412,95.3757 135.5,95.5C 135.183,91.2984 135.517,87.2984 136.5,83.5C 137.167,98.1667 137.833,98.1667 138.5,83.5C 142.086,82.2074 145.752,81.2074 149.5,80.5C 149.5,78.1667 149.5,75.8333 149.5,73.5C 145.081,74.5421 140.748,75.8755 136.5,77.5C 131.738,75.9032 127.071,74.0699 122.5,72C 121.619,71.2917 120.953,70.4584 120.5,69.5C 122.626,68.9518 124.626,68.2852 126.5,67.5C 127.833,67.1667 129.167,66.8333 130.5,66.5C 132.05,65.5592 133.716,64.8925 135.5,64.5C 137.28,65.9899 137.946,67.9899 137.5,70.5C 140.865,70.9537 144.198,71.6203 147.5,72.5C 149.577,72.3078 151.577,71.8078 153.5,71C 154.833,66.3333 154.833,61.6667 153.5,57C 147.695,54.9032 142.029,52.7365 136.5,50.5C 136.962,49.1201 137.962,48.4534 139.5,48.5C 146.66,50.3316 153.493,52.9982 160,56.5C 160.499,60.8206 160.666,65.1539 160.5,69.5 Z"/></g>
<g><path style="opacity:1" fill="#93a6ac" d="M 204.5,72.5 C 205.33,82.9921 205.83,93.6588 206,104.5C 207.171,105.893 208.671,106.727 210.5,107C 209.584,107.278 208.918,107.778 208.5,108.5C 183.152,120.841 157.819,133.174 132.5,145.5C 98.1413,130.319 63.8079,115.152 29.5,100C 24.0177,97.6042 19.0177,94.7708 14.5,91.5C 17.59,90.6472 20.59,89.6472 23.5,88.5C 28.8464,91.6752 34.5131,94.0085 40.5,95.5C 42.7457,94.5448 45.079,93.8782 47.5,93.5C 47.5,87.1667 47.5,80.8333 47.5,74.5C 48.4933,83.3178 48.8266,92.3178 48.5,101.5C 49.8333,101.5 51.1667,101.5 52.5,101.5C 52.5,97.8333 52.5,94.1667 52.5,90.5C 54.5,89.8333 56.5,89.1667 58.5,88.5C 58.1718,93.8746 58.5052,99.2079 59.5,104.5C 64.0641,107.187 68.8975,109.187 74,110.5C 76.8224,109.725 79.6557,109.058 82.5,108.5C 82.238,109.978 82.5713,111.311 83.5,112.5C 88.0479,115.74 93.0479,117.24 98.5,117C 97.944,116.617 97.6107,116.117 97.5,115.5C 99.4533,109.926 100.12,103.926 99.5,97.5C 100.442,106.33 101.108,115.33 101.5,124.5C 102.5,124.5 103.5,124.5 104.5,124.5C 104.187,120.958 104.521,117.625 105.5,114.5C 107.459,113.129 109.625,112.129 112,111.5C 112.499,105.843 112.666,100.176 112.5,94.5C 114.849,92.659 117.515,91.3257 120.5,90.5C 124.235,91.3012 127.901,92.3012 131.5,93.5C 131.5,98.1667 131.5,102.833 131.5,107.5C 127.863,107.87 124.53,108.87 121.5,110.5C 117.274,112.355 112.94,114.021 108.5,115.5C 107.339,119.795 107.172,124.129 108,128.5C 114.758,131.795 121.591,134.962 128.5,138C 132.5,138.667 136.5,138.667 140.5,138C 141.305,136.887 141.972,135.721 142.5,134.5C 144.713,133.227 147.046,132.227 149.5,131.5C 153.498,134.609 155.831,133.609 156.5,128.5C 157.483,124.702 157.817,120.702 157.5,116.5C 159.543,115.421 160.876,113.754 161.5,111.5C 161.833,111.5 162.167,111.5 162.5,111.5C 167.06,114.559 172.06,116.559 177.5,117.5C 186.278,113.361 195.111,109.361 204,105.5C 204.5,94.8385 204.667,84.1719 204.5,73.5C 204.5,73.1667 204.5,72.8333 204.5,72.5 Z"/></g>
<g><path style="opacity:1" fill="#ceb889" d="M 89.5,86.5 C 91.9363,86.7489 93.9363,87.7489 95.5,89.5C 92.4739,90.6537 90.4739,89.6537 89.5,86.5 Z"/></g>
<g><path style="opacity:1" fill="#ebba79" d="M 83.5,89.5 C 81.8333,89.5 80.1667,89.5 78.5,89.5C 78.8399,86.8559 78.1733,84.5225 76.5,82.5C 79.6163,81.8156 82.6163,80.8156 85.5,79.5C 86.452,80.533 86.452,81.6996 85.5,83C 88.1815,85.5575 87.5148,86.7241 83.5,86.5C 83.5,87.5 83.5,88.5 83.5,89.5 Z"/></g>
<g><path style="opacity:1" fill="#e4a568" d="M 136.5,78.5 C 136.5,80.1667 136.5,81.8333 136.5,83.5C 135.517,87.2984 135.183,91.2984 135.5,95.5C 135.5,98.8333 135.5,102.167 135.5,105.5C 134.713,107.104 133.38,107.771 131.5,107.5C 131.5,102.833 131.5,98.1667 131.5,93.5C 131.813,90.7531 131.48,88.0865 130.5,85.5C 127.075,87.2126 123.741,88.8793 120.5,90.5C 117.515,91.3257 114.849,92.659 112.5,94.5C 110.046,95.2271 107.713,96.2271 105.5,97.5C 102.983,95.9229 102.983,94.0896 105.5,92C 115.596,86.9517 125.93,82.4517 136.5,78.5 Z"/></g>
<g><path style="opacity:1" fill="#ecbdad" d="M 131.5,93.5 C 127.901,92.3012 124.235,91.3012 120.5,90.5C 123.741,88.8793 127.075,87.2126 130.5,85.5C 131.48,88.0865 131.813,90.7531 131.5,93.5 Z"/></g>
<g><path style="opacity:1" fill="#e1bd82" d="M 68.5,77.5 C 70.7567,77.9617 72.7567,78.9617 74.5,80.5C 74.1667,80.8333 73.8333,81.1667 73.5,81.5C 71.1419,80.8461 69.4752,79.5128 68.5,77.5 Z"/></g>
<g><path style="opacity:1" fill="#92a6a9" d="M 150.5,91.5 C 150.5,96.8333 150.5,102.167 150.5,107.5C 153.803,108.439 157.136,109.439 160.5,110.5C 160.5,110.833 160.5,111.167 160.5,111.5C 158.863,113.116 157.029,114.45 155,115.5C 151.221,114.094 147.388,112.761 143.5,111.5C 143.5,111.167 143.5,110.833 143.5,110.5C 141.55,108.974 139.217,107.974 136.5,107.5C 140.846,101.825 145.512,96.4921 150.5,91.5 Z"/></g>
<g><path style="opacity:1" fill="#98a1a3" d="M 146.5,92.5 C 143.179,97.1518 139.513,101.485 135.5,105.5C 135.5,102.167 135.5,98.8333 135.5,95.5C 139.412,95.3757 143.079,94.3757 146.5,92.5 Z"/></g>
<g><path style="opacity:1" fill="#f0e2c4" d="M 112.5,94.5 C 112.666,100.176 112.499,105.843 112,111.5C 109.625,112.129 107.459,113.129 105.5,114.5C 105.5,108.833 105.5,103.167 105.5,97.5C 107.713,96.2271 110.046,95.2271 112.5,94.5 Z"/></g>
<g><path style="opacity:1" fill="#e2cf95" d="M 177.5,94.5 C 177.5,102.167 177.5,109.833 177.5,117.5C 172.06,116.559 167.06,114.559 162.5,111.5C 167.157,105.511 172.157,99.8443 177.5,94.5 Z"/></g>
<g><path style="opacity:1" fill="#6f9163" d="M 177.5,83.5 C 179.042,84.3007 180.708,84.634 182.5,84.5C 182.657,85.8734 182.49,87.2068 182,88.5C 179.898,90.0948 178.398,92.0948 177.5,94.5C 172.157,99.8443 167.157,105.511 162.5,111.5C 162.167,111.5 161.833,111.5 161.5,111.5C 161.167,111.5 160.833,111.5 160.5,111.5C 160.5,111.167 160.5,110.833 160.5,110.5C 166.763,103.063 173.263,95.7301 180,88.5C 180.667,87.8333 180.667,87.1667 180,86.5C 173.442,83.4218 166.609,81.5884 159.5,81C 156.664,84.6668 153.664,88.1668 150.5,91.5C 145.512,96.4921 140.846,101.825 136.5,107.5C 139.217,107.974 141.55,108.974 143.5,110.5C 136.167,110.5 128.833,110.5 121.5,110.5C 124.53,108.87 127.863,107.87 131.5,107.5C 133.38,107.771 134.713,107.104 135.5,105.5C 139.513,101.485 143.179,97.1518 146.5,92.5C 148.167,91.5 149.5,90.1667 150.5,88.5C 153.524,84.4769 157.191,81.1436 161.5,78.5C 166.851,80.173 172.184,81.8396 177.5,83.5 Z"/></g>
<g><path style="opacity:1" fill="#e3cf93" d="M 160.5,110.5 C 157.136,109.439 153.803,108.439 150.5,107.5C 150.5,102.167 150.5,96.8333 150.5,91.5C 153.664,88.1668 156.664,84.6668 159.5,81C 166.609,81.5884 173.442,83.4218 180,86.5C 180.667,87.1667 180.667,87.8333 180,88.5C 173.263,95.7301 166.763,103.063 160.5,110.5 Z"/></g>
<g><path style="opacity:0.692" fill="#51616d" d="M 14.5,91.5 C 19.0177,94.7708 24.0177,97.6042 29.5,100C 63.8079,115.152 98.1413,130.319 132.5,145.5C 157.819,133.174 183.152,120.841 208.5,108.5C 210.292,108.366 211.958,108.699 213.5,109.5C 187.813,123.344 161.813,136.677 135.5,149.5C 133.833,149.5 132.167,149.5 130.5,149.5C 91.0937,131.696 51.7604,113.696 12.5,95.5C 12.2291,93.6203 12.8958,92.287 14.5,91.5 Z"/></g>
<g><path style="opacity:1" fill="#dcd0a4" d="M 78.5,89.5 C 80.1667,89.5 81.8333,89.5 83.5,89.5C 83.3338,95.8421 83.5005,102.175 84,108.5C 87.9211,112.043 92.4211,114.377 97.5,115.5C 97.6107,116.117 97.944,116.617 98.5,117C 93.0479,117.24 88.0479,115.74 83.5,112.5C 82.5713,111.311 82.238,109.978 82.5,108.5C 79.6557,109.058 76.8224,109.725 74,110.5C 68.8975,109.187 64.0641,107.187 59.5,104.5C 58.5052,99.2079 58.1718,93.8746 58.5,88.5C 59.2613,87.6091 60.2613,86.9424 61.5,86.5C 62.1906,91.3829 62.8572,96.2162 63.5,101C 68.0356,104.268 73.0356,106.435 78.5,107.5C 78.5,101.5 78.5,95.5 78.5,89.5 Z"/></g>
<g><path style="opacity:1" fill="#407547" d="M 143.5,111.5 C 147.388,112.761 151.221,114.094 155,115.5C 157.029,114.45 158.863,113.116 160.5,111.5C 160.833,111.5 161.167,111.5 161.5,111.5C 160.876,113.754 159.543,115.421 157.5,116.5C 149.303,118.6 141.303,121.266 133.5,124.5C 125.14,122.102 116.806,119.602 108.5,117C 112.461,115.402 116.461,113.902 120.5,112.5C 121.23,114.341 121.897,116.175 122.5,118C 129.297,118.936 135.964,118.436 142.5,116.5C 143.452,114.955 143.785,113.288 143.5,111.5 Z"/></g>
<g><path style="opacity:1" fill="#65a467" d="M 157.5,116.5 C 157.817,120.702 157.483,124.702 156.5,128.5C 156.505,125 154.838,123.5 151.5,124C 149.887,126.228 149.22,128.728 149.5,131.5C 147.046,132.227 144.713,133.227 142.5,134.5C 142.527,128.984 140.36,127.651 136,130.5C 135.503,132.81 135.337,135.143 135.5,137.5C 134.5,137.5 133.5,137.5 132.5,137.5C 132.231,133.069 132.564,128.735 133.5,124.5C 141.303,121.266 149.303,118.6 157.5,116.5 Z"/></g>
<g><path style="opacity:1" fill="#578f5b" d="M 121.5,110.5 C 128.833,110.5 136.167,110.5 143.5,110.5C 143.5,110.833 143.5,111.167 143.5,111.5C 143.785,113.288 143.452,114.955 142.5,116.5C 135.964,118.436 129.297,118.936 122.5,118C 121.897,116.175 121.23,114.341 120.5,112.5C 116.461,113.902 112.461,115.402 108.5,117C 116.806,119.602 125.14,122.102 133.5,124.5C 132.564,128.735 132.231,133.069 132.5,137.5C 133.5,137.5 134.5,137.5 135.5,137.5C 135.337,135.143 135.503,132.81 136,130.5C 140.36,127.651 142.527,128.984 142.5,134.5C 141.972,135.721 141.305,136.887 140.5,138C 136.5,138.667 132.5,138.667 128.5,138C 121.591,134.962 114.758,131.795 108,128.5C 107.172,124.129 107.339,119.795 108.5,115.5C 112.94,114.021 117.274,112.355 121.5,110.5 Z"/></g>
<g><path style="opacity:1" fill="#417749" d="M 156.5,128.5 C 155.831,133.609 153.498,134.609 149.5,131.5C 149.22,128.728 149.887,126.228 151.5,124C 154.838,123.5 156.505,125 156.5,128.5 Z"/></g>
</svg>
