<?xml version="1.0" encoding="UTF-8"?>
<!DOCTYPE svg PUBLIC "-//W3C//DTD SVG 1.1//EN" "http://www.w3.org/Graphics/SVG/1.1/DTD/svg11.dtd">
<svg xmlns="http://www.w3.org/2000/svg" version="1.1" width="260px" height="168px" style="shape-rendering:geometricPrecision; text-rendering:geometricPrecision; image-rendering:optimizeQuality; fill-rule:evenodd; clip-rule:evenodd" xmlns:xlink="http://www.w3.org/1999/xlink">
<g><path style="opacity:1" fill="#fdfdfd" d="M -0.5,-0.5 C 86.1667,-0.5 172.833,-0.5 259.5,-0.5C 259.5,55.5 259.5,111.5 259.5,167.5C 172.833,167.5 86.1667,167.5 -0.5,167.5C -0.5,111.5 -0.5,55.5 -0.5,-0.5 Z"/></g>
<g><path style="opacity:1" fill="#262626" d="M 62.5,52.5 C 82.1695,52.6666 101.836,52.5 121.5,52C 120.255,51.2086 118.922,50.7086 117.5,50.5C 106.23,45.552 100.563,36.8854 100.5,24.5C 121.167,24.5 141.833,24.5 162.5,24.5C 162.437,36.8854 156.77,45.552 145.5,50.5C 144.078,50.7086 142.745,51.2086 141.5,52C 161.164,52.5 180.831,52.6666 200.5,52.5C 200.5,54.8333 200.5,57.1667 200.5,59.5C 195.833,59.5 191.167,59.5 186.5,59.5C 186.5,70.1667 186.5,80.8333 186.5,91.5C 192.167,91.5 197.833,91.5 203.5,91.5C 204.469,68.1759 205.136,44.8426 205.5,21.5C 206.461,19.7354 206.795,17.7354 206.5,15.5C 208.833,15.5 211.167,15.5 213.5,15.5C 213.5,16.5 213.5,17.5 213.5,18.5C 212.294,42.1538 211.294,65.8205 210.5,89.5C 211.664,111.146 213.998,132.646 217.5,154C 217.588,156.744 216.255,157.91 213.5,157.5C 212.006,157.291 210.839,156.624 210,155.5C 207.667,136.506 205.5,117.506 203.5,98.5C 197.833,98.5 192.167,98.5 186.5,98.5C 185.503,117.659 185.17,136.993 185.5,156.5C 183.5,156.5 181.5,156.5 179.5,156.5C 179.5,137.167 179.5,117.833 179.5,98.5C 176.612,97.9898 174.279,98.6565 172.5,100.5C 169.178,119.433 166.178,138.433 163.5,157.5C 161.473,157.662 159.473,157.495 157.5,157C 156.903,155.938 156.57,154.772 156.5,153.5C 159.997,132.853 163.331,112.186 166.5,91.5C 170.5,91.5 174.5,91.5 178.5,91.5C 179.49,85.69 179.823,79.69 179.5,73.5C 147.5,73.5 115.5,73.5 83.5,73.5C 83.1771,79.69 83.5104,85.69 84.5,91.5C 88.1667,91.5 91.8333,91.5 95.5,91.5C 98.7664,112.334 102.1,133.167 105.5,154C 104.263,157.043 101.93,158.21 98.5,157.5C 95.3674,137.84 92.3674,118.173 89.5,98.5C 87.8333,98.5 86.1667,98.5 84.5,98.5C 83.503,117.659 83.1697,136.993 83.5,156.5C 81.5,156.5 79.5,156.5 77.5,156.5C 77.8303,136.993 77.497,117.659 76.5,98.5C 70.5,98.5 64.5,98.5 58.5,98.5C 57.7564,102.119 57.423,105.785 57.5,109.5C 56.1937,114.616 55.527,119.949 55.5,125.5C 54.2766,136.182 52.9433,146.848 51.5,157.5C 50.5,157.5 49.5,157.5 48.5,157.5C 47.791,156.596 46.791,156.263 45.5,156.5C 45.5,154.833 45.5,153.167 45.5,151.5C 48.1431,130.932 50.1431,110.266 51.5,89.5C 50.2502,64.8398 49.2502,40.1731 48.5,15.5C 50.8333,15.5 53.1667,15.5 55.5,15.5C 56.8168,40.8203 57.8168,66.1537 58.5,91.5C 64.5,91.5 70.5,91.5 76.5,91.5C 76.5,80.8333 76.5,70.1667 76.5,59.5C 71.8333,59.5 67.1667,59.5 62.5,59.5C 62.5,57.1667 62.5,54.8333 62.5,52.5 Z"/></g>
<g><path style="opacity:1" fill="#b8b8b8" d="M 213.5,18.5 C 213.5,17.5 213.5,16.5 213.5,15.5C 211.167,15.5 208.833,15.5 206.5,15.5C 206.795,17.7354 206.461,19.7354 205.5,21.5C 205.5,19.1667 205.5,16.8333 205.5,14.5C 208.5,14.5 211.5,14.5 214.5,14.5C 214.768,16.099 214.434,17.4324 213.5,18.5 Z"/></g>
<g><path style="opacity:1" fill="#f8f8f8" d="M 108.5,31.5 C 123.848,31.1673 139.181,31.5006 154.5,32.5C 149.579,41.8812 141.746,46.2145 131,45.5C 123.119,45.8933 116.452,43.2267 111,37.5C 109.878,35.5932 109.045,33.5932 108.5,31.5 Z"/></g>
<g><path style="opacity:1" fill="#a9a9a9" d="M 117.5,50.5 C 118.922,50.7086 120.255,51.2086 121.5,52C 101.836,52.5 82.1695,52.6666 62.5,52.5C 80.8333,51.8333 99.1667,51.1667 117.5,50.5 Z"/></g>
<g><path style="opacity:1" fill="#a9a9a9" d="M 145.5,50.5 C 163.833,51.1667 182.167,51.8333 200.5,52.5C 180.831,52.6666 161.164,52.5 141.5,52C 142.745,51.2086 144.078,50.7086 145.5,50.5 Z"/></g>
<g><path style="opacity:1" fill="#fdfdfd" d="M 178.5,59.5 C 178.5,61.5 178.5,63.5 178.5,65.5C 147.167,65.5 115.833,65.5 84.5,65.5C 84.5,63.5 84.5,61.5 84.5,59.5C 115.833,59.5 147.167,59.5 178.5,59.5 Z"/></g>
<g><path style="opacity:1" fill="#dbdbdb" d="M 178.5,59.5 C 179.468,61.6074 179.802,63.9407 179.5,66.5C 147.662,66.8315 115.996,66.4982 84.5,65.5C 115.833,65.5 147.167,65.5 178.5,65.5C 178.5,63.5 178.5,61.5 178.5,59.5 Z"/></g>
<g><path style="opacity:1" fill="#bbbbbb" d="M 178.5,91.5 C 178.5,85.8333 178.5,80.1667 178.5,74.5C 147.167,74.5 115.833,74.5 84.5,74.5C 84.5,80.1667 84.5,85.8333 84.5,91.5C 83.5104,85.69 83.1771,79.69 83.5,73.5C 115.5,73.5 147.5,73.5 179.5,73.5C 179.823,79.69 179.49,85.69 178.5,91.5 Z"/></g>
<g><path style="opacity:1" fill="#606060" d="M 76.5,98.5 C 77.497,117.659 77.8303,136.993 77.5,156.5C 79.5,156.5 81.5,156.5 83.5,156.5C 83.1697,136.993 83.503,117.659 84.5,98.5C 84.5,118.167 84.5,137.833 84.5,157.5C 81.8333,157.5 79.1667,157.5 76.5,157.5C 76.5,137.833 76.5,118.167 76.5,98.5 Z"/></g>
<g><path style="opacity:1" fill="#9c9c9c" d="M 179.5,156.5 C 179.5,156.833 179.5,157.167 179.5,157.5C 178.503,138.341 178.17,119.007 178.5,99.5C 176.379,99.3253 174.379,99.6586 172.5,100.5C 174.279,98.6565 176.612,97.9898 179.5,98.5C 179.5,117.833 179.5,137.167 179.5,156.5 Z"/></g>
<g><path style="opacity:1" fill="#4d4d4d" d="M 186.5,98.5 C 186.5,118.167 186.5,137.833 186.5,157.5C 184.167,157.5 181.833,157.5 179.5,157.5C 179.5,157.167 179.5,156.833 179.5,156.5C 181.5,156.5 183.5,156.5 185.5,156.5C 185.17,136.993 185.503,117.659 186.5,98.5 Z"/></g>
<g><path style="opacity:1" fill="#adadad" d="M 57.5,109.5 C 57.624,115.069 56.9573,120.402 55.5,125.5C 55.527,119.949 56.1937,114.616 57.5,109.5 Z"/></g>
<g><path style="opacity:1" fill="#707070" d="M 45.5,151.5 C 45.5,153.167 45.5,154.833 45.5,156.5C 46.791,156.263 47.791,156.596 48.5,157.5C 47.1667,157.5 45.8333,157.5 44.5,157.5C 44.2053,155.265 44.5386,153.265 45.5,151.5 Z"/></g>
</svg>
