<?xml version="1.0" encoding="UTF-8"?>
<!DOCTYPE svg PUBLIC "-//W3C//DTD SVG 1.1//EN" "http://www.w3.org/Graphics/SVG/1.1/DTD/svg11.dtd">
<svg xmlns="http://www.w3.org/2000/svg" version="1.1" width="242px" height="148px" style="shape-rendering:geometricPrecision; text-rendering:geometricPrecision; image-rendering:optimizeQuality; fill-rule:evenodd; clip-rule:evenodd" xmlns:xlink="http://www.w3.org/1999/xlink">
<g><path style="opacity:1" fill="#fdfdfd" d="M -0.5,-0.5 C 80.1667,-0.5 160.833,-0.5 241.5,-0.5C 241.5,48.8333 241.5,98.1667 241.5,147.5C 160.833,147.5 80.1667,147.5 -0.5,147.5C -0.5,98.1667 -0.5,48.8333 -0.5,-0.5 Z"/></g>
<g><path style="opacity:1" fill="#1e1e1e" d="M 215.5,15.5 C 152.458,15.174 89.4585,15.5074 26.5,16.5C 26.6107,15.8826 26.944,15.3826 27.5,15C 90.3347,14.168 153.001,14.3347 215.5,15.5 Z"/></g>
<g><path style="opacity:1" fill="#171717" d="M 215.5,15.5 C 217.752,15.9156 219.252,17.249 220,19.5C 220.667,54.1667 220.667,88.8333 220,123.5C 219.052,125.57 217.552,127.07 215.5,128C 212.183,128.498 208.85,128.665 205.5,128.5C 205.98,131.685 205.314,134.519 203.5,137C 193.5,137.667 183.5,137.667 173.5,137C 171.686,134.519 171.02,131.685 171.5,128.5C 138.833,128.5 106.167,128.5 73.5,128.5C 73.9804,131.685 73.3137,134.519 71.5,137C 61.5,137.667 51.5,137.667 41.5,137C 39.6863,134.519 39.0196,131.685 39.5,128.5C 35.4862,128.666 31.4862,128.499 27.5,128C 25.9512,126.786 24.7845,125.286 24,123.5C 23.3333,88.8333 23.3333,54.1667 24,19.5C 24.3768,18.0577 25.2101,17.0577 26.5,16.5C 89.4585,15.5074 152.458,15.174 215.5,15.5 Z"/></g>
<g><path style="opacity:1" fill="#f6f6f6" d="M 29.5,17.5 C 91.1676,17.3333 152.834,17.5 214.5,18C 215,18.5 215.5,19 216,19.5C 216.667,54.1667 216.667,88.8333 216,123.5C 215.5,124 215,124.5 214.5,125C 152.833,125.667 91.1667,125.667 29.5,125C 28.6667,124.167 27.8333,123.333 27,122.5C 26.3333,88.5 26.3333,54.5 27,20.5C 27.6979,19.3094 28.5313,18.3094 29.5,17.5 Z"/></g>
<g><path style="opacity:1" fill="#222222" d="M 40.5,26.5 C 77.2528,26.0128 113.92,26.5128 150.5,28C 151.667,29.1667 152.833,30.3333 154,31.5C 154.982,58.5868 154.649,85.5868 153,112.5C 151.681,114.487 149.848,115.654 147.5,116C 111.082,116.987 74.7486,116.653 38.5,115C 36.9512,113.786 35.7845,112.286 35,110.5C 34.3333,84.1667 34.3333,57.8333 35,31.5C 36.7297,29.5981 38.563,27.9314 40.5,26.5 Z"/></g>
<g><path style="opacity:1" fill="#fcfcfc" d="M 40.5,30.5 C 76.8349,30.3333 113.168,30.5 149.5,31C 150.126,31.7504 150.626,32.5838 151,33.5C 151.824,59.2092 151.657,84.8759 150.5,110.5C 149.975,111.192 149.308,111.692 148.5,112C 112.5,112.667 76.5,112.667 40.5,112C 39.6667,111.167 38.8333,110.333 38,109.5C 37.3333,84.1667 37.3333,58.8333 38,33.5C 39.045,32.6266 39.8783,31.6266 40.5,30.5 Z"/></g>
<g><path style="opacity:1" fill="#262626" d="M 172.5,28.5 C 183.838,28.3335 195.172,28.5001 206.5,29C 210.292,31.0527 211.458,34.2194 210,38.5C 209.097,39.7014 207.931,40.5348 206.5,41C 195.5,41.6667 184.5,41.6667 173.5,41C 169.708,38.9473 168.542,35.7806 170,31.5C 171.045,30.6266 171.878,29.6266 172.5,28.5 Z"/></g>
<g><path style="opacity:1" fill="#f3f3f3" d="M 173.5,30.5 C 184.505,30.3335 195.505,30.5002 206.5,31C 209.07,33.6153 209.07,36.282 206.5,39C 195.5,39.6667 184.5,39.6667 173.5,39C 170.899,36.1705 170.899,33.3371 173.5,30.5 Z"/></g>
<g><path style="opacity:1" fill="#141414" d="M 76.5,49.5 C 78.8896,49.6848 79.8896,51.0182 79.5,53.5C 78.357,56.0055 77.6903,58.6722 77.5,61.5C 78.3155,64.9671 78.9822,68.4671 79.5,72C 79.1307,75.4008 78.464,78.7341 77.5,82C 78.0189,84.8701 78.6856,87.7034 79.5,90.5C 79.6578,92.3186 78.9911,93.6519 77.5,94.5C 76.028,92.384 74.8614,90.0507 74,87.5C 73.1248,82.1219 73.6248,76.9553 75.5,72C 72.6665,64.3425 72.9999,56.8425 76.5,49.5 Z"/></g>
<g><path style="opacity:1" fill="#1a1a1a" d="M 94.5,49.5 C 96.9477,49.0847 98.2811,50.0847 98.5,52.5C 97.0631,55.5376 96.0631,58.7042 95.5,62C 96.6131,65.0774 97.6131,68.2441 98.5,71.5C 97.5,74.8333 96.5,78.1667 95.5,81.5C 96.4891,84.8182 97.4891,88.1516 98.5,91.5C 97.9763,94.3962 96.4763,95.0628 94,93.5C 93.0066,89.6874 92.1733,85.8541 91.5,82C 91.8693,78.5992 92.536,75.2659 93.5,72C 90.7033,64.3453 91.0367,56.8453 94.5,49.5 Z"/></g>
<g><path style="opacity:1" fill="#0f0f0f" d="M 113.5,49.5 C 114.5,49.5 115.5,49.5 116.5,49.5C 116.151,53.3821 115.485,57.2155 114.5,61C 115.464,64.2659 116.131,67.5992 116.5,71C 116.131,74.4008 115.464,77.7341 114.5,81C 115.956,85.0202 116.622,89.1869 116.5,93.5C 115.178,93.67 114.011,93.3366 113,92.5C 109.982,85.5311 109.815,78.5311 112.5,71.5C 109.651,64.0009 109.984,56.6676 113.5,49.5 Z"/></g>
<g><path style="opacity:1" fill="#363636" d="M 169.5,46.5 C 183.167,46.5 196.833,46.5 210.5,46.5C 210.5,56.5 210.5,66.5 210.5,76.5C 196.833,76.5 183.167,76.5 169.5,76.5C 169.5,66.5 169.5,56.5 169.5,46.5 Z"/></g>
<g><path style="opacity:1" fill="#f0f0f0" d="M 170.5,48.5 C 183.5,48.5 196.5,48.5 209.5,48.5C 209.5,57.1667 209.5,65.8333 209.5,74.5C 196.5,74.5 183.5,74.5 170.5,74.5C 170.5,65.8333 170.5,57.1667 170.5,48.5 Z"/></g>
<g><path style="opacity:1" fill="#6e6e6e" d="M 186.5,63.5 C 186.5,66.1667 186.5,68.8333 186.5,71.5C 188.833,71.5 191.167,71.5 193.5,71.5C 193.5,68.8333 193.5,66.1667 193.5,63.5C 194.477,66.2869 194.81,69.2869 194.5,72.5C 191.5,72.5 188.5,72.5 185.5,72.5C 185.19,69.2869 185.523,66.2869 186.5,63.5 Z"/></g>
<g><path style="opacity:1" fill="#878787" d="M 181.5,63.5 C 182.477,66.2869 182.81,69.2869 182.5,72.5C 179.287,72.81 176.287,72.4767 173.5,71.5C 176.167,71.5 178.833,71.5 181.5,71.5C 181.5,68.8333 181.5,66.1667 181.5,63.5 Z"/></g>
<g><path style="opacity:1" fill="#020202" d="M 205.5,64.5 C 205.5,66.8333 205.5,69.1667 205.5,71.5C 203.167,71.5 200.833,71.5 198.5,71.5C 198.5,69.1667 198.5,66.8333 198.5,64.5C 200.833,64.5 203.167,64.5 205.5,64.5 Z"/></g>
<g><path style="opacity:1" fill="#060606" d="M 186.5,63.5 C 188.833,63.5 191.167,63.5 193.5,63.5C 193.5,66.1667 193.5,68.8333 193.5,71.5C 191.167,71.5 188.833,71.5 186.5,71.5C 186.5,68.8333 186.5,66.1667 186.5,63.5 Z"/></g>
<g><path style="opacity:1" fill="#0e0e0e" d="M 181.5,63.5 C 181.5,66.1667 181.5,68.8333 181.5,71.5C 178.833,71.5 176.167,71.5 173.5,71.5C 173.5,68.8333 173.5,66.1667 173.5,63.5C 176.167,63.5 178.833,63.5 181.5,63.5 Z"/></g>
<g><path style="opacity:1" fill="#414141" d="M 205.5,64.5 C 203.167,64.5 200.833,64.5 198.5,64.5C 198.5,66.8333 198.5,69.1667 198.5,71.5C 200.833,71.5 203.167,71.5 205.5,71.5C 203.052,72.4731 200.385,72.8064 197.5,72.5C 197.5,69.5 197.5,66.5 197.5,63.5C 200.385,63.1936 203.052,63.5269 205.5,64.5 Z"/></g>
<g><path style="opacity:1" fill="#969696" d="M 205.5,51.5 C 206.477,54.2869 206.81,57.2869 206.5,60.5C 203.287,60.81 200.287,60.4767 197.5,59.5C 200.167,59.5 202.833,59.5 205.5,59.5C 205.5,56.8333 205.5,54.1667 205.5,51.5 Z"/></g>
<g><path style="opacity:1" fill="#767676" d="M 186.5,51.5 C 186.5,54.1667 186.5,56.8333 186.5,59.5C 188.833,59.5 191.167,59.5 193.5,59.5C 193.5,56.8333 193.5,54.1667 193.5,51.5C 194.477,54.2869 194.81,57.2869 194.5,60.5C 191.5,60.5 188.5,60.5 185.5,60.5C 185.19,57.2869 185.523,54.2869 186.5,51.5 Z"/></g>
<g><path style="opacity:1" fill="#909090" d="M 181.5,51.5 C 182.477,54.2869 182.81,57.2869 182.5,60.5C 179.287,60.81 176.287,60.4767 173.5,59.5C 176.167,59.5 178.833,59.5 181.5,59.5C 181.5,56.8333 181.5,54.1667 181.5,51.5 Z"/></g>
<g><path style="opacity:1" fill="#0d0d0d" d="M 205.5,51.5 C 205.5,54.1667 205.5,56.8333 205.5,59.5C 202.833,59.5 200.167,59.5 197.5,59.5C 197.5,56.8333 197.5,54.1667 197.5,51.5C 200.167,51.5 202.833,51.5 205.5,51.5 Z"/></g>
<g><path style="opacity:1" fill="#080808" d="M 186.5,51.5 C 188.833,51.5 191.167,51.5 193.5,51.5C 193.5,54.1667 193.5,56.8333 193.5,59.5C 191.167,59.5 188.833,59.5 186.5,59.5C 186.5,56.8333 186.5,54.1667 186.5,51.5 Z"/></g>
<g><path style="opacity:1" fill="#0f0f0f" d="M 181.5,51.5 C 181.5,54.1667 181.5,56.8333 181.5,59.5C 178.833,59.5 176.167,59.5 173.5,59.5C 173.5,56.8333 173.5,54.1667 173.5,51.5C 176.167,51.5 178.833,51.5 181.5,51.5 Z"/></g>
<g><path style="opacity:1" fill="#252525" d="M 188.5,79.5 C 189.5,79.5 190.5,79.5 191.5,79.5C 191.5,80.5 191.5,81.5 191.5,82.5C 190.5,82.5 189.5,82.5 188.5,82.5C 188.5,81.5 188.5,80.5 188.5,79.5 Z"/></g>
<g><path style="opacity:1" fill="#2c2c2c" d="M 177.5,84.5 C 180.861,85.2032 181.194,86.5365 178.5,88.5C 177.571,87.3112 177.238,85.9778 177.5,84.5 Z"/></g>
<g><path style="opacity:1" fill="#383838" d="M 200.5,84.5 C 203.861,85.2032 204.194,86.5365 201.5,88.5C 199.358,87.5629 199.024,86.2296 200.5,84.5 Z"/></g>
<g><path style="opacity:1" fill="#2e2e2e" d="M 172.5,95.5 C 173.833,95.5 175.167,95.5 176.5,95.5C 176.5,96.5 176.5,97.5 176.5,98.5C 174.027,98.9118 172.694,97.9118 172.5,95.5 Z"/></g>
<g><path style="opacity:1" fill="#373737" d="M 203.5,95.5 C 204.833,95.5 206.167,95.5 207.5,95.5C 207.5,96.5 207.5,97.5 207.5,98.5C 206.167,98.5 204.833,98.5 203.5,98.5C 203.5,97.5 203.5,96.5 203.5,95.5 Z"/></g>
<g><path style="opacity:1" fill="#474747" d="M 180.5,90.5 C 181.359,87.5479 183.359,85.7146 186.5,85C 199.947,84.769 204.447,90.9356 200,103.5C 194.209,109.312 187.876,109.979 181,105.5C 180.517,106.448 180.351,107.448 180.5,108.5C 175.66,107.812 175.327,106.145 179.5,103.5C 176.516,98.7389 176.849,94.4055 180.5,90.5 Z"/></g>
<g><path style="opacity:1" fill="#f5f5f5" d="M 180.5,90.5 C 184.426,86.7744 189.093,85.6077 194.5,87C 202.767,94.1204 202.434,100.787 193.5,107C 181.992,107.314 177.659,101.814 180.5,90.5 Z"/></g>
<g><path style="opacity:1" fill="#1e1e1e" d="M 183.5,90.5 C 184.552,90.3505 185.552,90.5172 186.5,91C 189.667,94.1667 192.833,97.3333 196,100.5C 196.5,102.667 195.667,103.5 193.5,103C 190.333,99.8333 187.167,96.6667 184,93.5C 183.517,92.552 183.351,91.552 183.5,90.5 Z"/></g>
<g><path style="opacity:1" fill="#262626" d="M 199.5,106.5 C 200.5,106.5 201.5,106.5 202.5,106.5C 202.5,107.5 202.5,108.5 202.5,109.5C 201.5,109.5 200.5,109.5 199.5,109.5C 199.5,108.5 199.5,107.5 199.5,106.5 Z"/></g>
<g><path style="opacity:1" fill="#1b1b1b" d="M 188.5,110.5 C 189.5,110.5 190.5,110.5 191.5,110.5C 191.5,111.5 191.5,112.5 191.5,113.5C 190.5,113.5 189.5,113.5 188.5,113.5C 188.5,112.5 188.5,111.5 188.5,110.5 Z"/></g>
<g><path style="opacity:1" fill="#f7f7f7" d="M 43.5,129.5 C 52.5,129.5 61.5,129.5 70.5,129.5C 70.5,131.167 70.5,132.833 70.5,134.5C 61.5,134.5 52.5,134.5 43.5,134.5C 43.5,132.833 43.5,131.167 43.5,129.5 Z"/></g>
<g><path style="opacity:1" fill="#fafafa" d="M 175.5,129.5 C 184.167,129.5 192.833,129.5 201.5,129.5C 201.5,131.167 201.5,132.833 201.5,134.5C 192.833,134.5 184.167,134.5 175.5,134.5C 175.5,132.833 175.5,131.167 175.5,129.5 Z"/></g>
</svg>
