<?xml version="1.0" encoding="UTF-8"?>
<!DOCTYPE svg PUBLIC "-//W3C//DTD SVG 1.1//EN" "http://www.w3.org/Graphics/SVG/1.1/DTD/svg11.dtd">
<svg xmlns="http://www.w3.org/2000/svg" version="1.1" width="222px" height="216px" style="shape-rendering:geometricPrecision; text-rendering:geometricPrecision; image-rendering:optimizeQuality; fill-rule:evenodd; clip-rule:evenodd" xmlns:xlink="http://www.w3.org/1999/xlink">
<g><path style="opacity:0.985" fill="#fefefe" d="M 15.5,-0.5 C 78.8333,-0.5 142.167,-0.5 205.5,-0.5C 205.5,71.5 205.5,143.5 205.5,215.5C 142.167,215.5 78.8333,215.5 15.5,215.5C 15.5,143.5 15.5,71.5 15.5,-0.5 Z"/></g>
<g><path style="opacity:1" fill="#0e0e0e" d="M 182.5,43.5 C 181.501,94.3306 181.168,145.331 181.5,196.5C 133.833,196.5 86.1667,196.5 38.5,196.5C 38.5,145.833 38.5,95.1667 38.5,44.5C 42.1716,43.9553 41.8383,43.6219 37.5,43.5C 37.5,43.1667 37.5,42.8333 37.5,42.5C 38.8333,42.5 40.1667,42.5 41.5,42.5C 42.3512,36.6603 43.0179,30.6603 43.5,24.5C 45.2148,19.9639 48.5482,17.4639 53.5,17C 90.8333,16.3333 128.167,16.3333 165.5,17C 170.84,18.4101 174.673,21.5768 177,26.5C 177.499,31.8229 177.666,37.1563 177.5,42.5C 179.415,42.2155 181.081,42.5489 182.5,43.5 Z"/></g>
<g><path style="opacity:1" fill="#eeeeee" d="M 171.5,27.5 C 171.5,32.1667 171.5,36.8333 171.5,41.5C 130.167,41.5 88.8333,41.5 47.5,41.5C 47.5,37.1667 47.5,32.8333 47.5,28.5C 48.1912,25.6352 49.8579,23.4685 52.5,22C 90.5,21.3333 128.5,21.3333 166.5,22C 169.079,23.0757 170.746,24.909 171.5,27.5 Z"/></g>
<g><path style="opacity:1" fill="#0d0d0d" d="M 83.5,24.5 C 100.503,24.3334 117.503,24.5001 134.5,25C 137.833,25.6667 141.167,26.3333 144.5,27C 148.795,28.8451 149.462,31.5118 146.5,35C 142.203,36.1577 137.869,37.1577 133.5,38C 117.5,38.6667 101.5,38.6667 85.5,38C 81.853,37.2255 78.1864,36.5588 74.5,36C 71.0221,33.2935 70.6888,30.2935 73.5,27C 77.1325,26.8511 80.4659,26.0177 83.5,24.5 Z"/></g>
<g><path style="opacity:1" fill="#595959" d="M 43.5,24.5 C 43.0179,30.6603 42.3512,36.6603 41.5,42.5C 41.3341,37.4889 41.5007,32.4889 42,27.5C 42.2321,26.2625 42.7321,25.2625 43.5,24.5 Z"/></g>
<g><path style="opacity:1" fill="#a3a3a3" d="M 171.5,27.5 C 172.487,32.3054 172.821,37.3054 172.5,42.5C 130.5,42.5 88.5,42.5 46.5,42.5C 46.1805,37.6367 46.5139,32.97 47.5,28.5C 47.5,32.8333 47.5,37.1667 47.5,41.5C 88.8333,41.5 130.167,41.5 171.5,41.5C 171.5,36.8333 171.5,32.1667 171.5,27.5 Z"/></g>
<g><path style="opacity:1" fill="#141414" d="M 37.5,43.5 C 41.8383,43.6219 42.1716,43.9553 38.5,44.5C 38.5,95.1667 38.5,145.833 38.5,196.5C 86.1667,196.5 133.833,196.5 181.5,196.5C 181.168,145.331 181.501,94.3306 182.5,43.5C 182.5,94.8333 182.5,146.167 182.5,197.5C 134.167,197.5 85.8333,197.5 37.5,197.5C 37.5,146.167 37.5,94.8333 37.5,43.5 Z"/></g>
<g><path style="opacity:1" fill="#e3e3e3" d="M 55.5,107.5 C 92.3296,106.502 129.33,106.168 166.5,106.5C 166.5,129.167 166.5,151.833 166.5,174.5C 129.33,174.832 92.3296,174.498 55.5,173.5C 92.1667,173.5 128.833,173.5 165.5,173.5C 165.5,151.5 165.5,129.5 165.5,107.5C 128.833,107.5 92.1667,107.5 55.5,107.5 Z"/></g>
<g><path style="opacity:1" fill="#fefefe" d="M 55.5,107.5 C 92.1667,107.5 128.833,107.5 165.5,107.5C 165.5,129.5 165.5,151.5 165.5,173.5C 128.833,173.5 92.1667,173.5 55.5,173.5C 55.5,151.5 55.5,129.5 55.5,107.5 Z"/></g>
<g><path style="opacity:1" fill="#9f9f9f" d="M 171.5,72.5 C 172.498,104.662 172.832,136.996 172.5,169.5C 173.833,169.5 175.167,169.5 176.5,169.5C 176.833,169.5 177.167,169.5 177.5,169.5C 175.735,170.461 173.735,170.795 171.5,170.5C 171.5,138.167 171.5,105.833 171.5,73.5C 171.5,73.1667 171.5,72.8333 171.5,72.5 Z"/></g>
<g><path style="opacity:1" fill="#727272" d="M 42.5,47.5 C 42.1681,88.3368 42.5014,129.003 43.5,169.5C 45.5,169.5 47.5,169.5 49.5,169.5C 49.5,137.167 49.5,104.833 49.5,72.5C 90.1667,72.5 130.833,72.5 171.5,72.5C 171.5,72.8333 171.5,73.1667 171.5,73.5C 131.167,73.5 90.8333,73.5 50.5,73.5C 50.5,105.833 50.5,138.167 50.5,170.5C 47.5,170.5 44.5,170.5 41.5,170.5C 41.168,129.33 41.5014,88.3299 42.5,47.5 Z"/></g>
<g><path style="opacity:1" fill="#d5d5d5" d="M 42.5,47.5 C 87.5,47.5 132.5,47.5 177.5,47.5C 177.5,88.1667 177.5,128.833 177.5,169.5C 177.167,169.5 176.833,169.5 176.5,169.5C 176.5,129.167 176.5,88.8333 176.5,48.5C 132.167,48.5 87.8333,48.5 43.5,48.5C 43.5,88.8333 43.5,129.167 43.5,169.5C 42.5014,129.003 42.1681,88.3368 42.5,47.5 Z"/></g>
<g><path style="opacity:1" fill="#f9f9f9" d="M 176.5,169.5 C 175.167,169.5 173.833,169.5 172.5,169.5C 172.832,136.996 172.498,104.662 171.5,72.5C 130.833,72.5 90.1667,72.5 49.5,72.5C 49.5,104.833 49.5,137.167 49.5,169.5C 47.5,169.5 45.5,169.5 43.5,169.5C 43.5,129.167 43.5,88.8333 43.5,48.5C 87.8333,48.5 132.167,48.5 176.5,48.5C 176.5,88.8333 176.5,129.167 176.5,169.5 Z"/></g>
<g><path style="opacity:1" fill="#f1f1f1" d="M 166.5,78.5 C 166.5,85.8333 166.5,93.1667 166.5,100.5C 129.5,100.5 92.5,100.5 55.5,100.5C 55.5,93.1667 55.5,85.8333 55.5,78.5C 92.5,78.5 129.5,78.5 166.5,78.5 Z"/></g>
<g><path style="opacity:1" fill="#252525" d="M 71.5,94.5 C 91.1323,95.9364 110.799,96.6031 130.5,96.5C 110.752,98.2282 91.085,97.5616 71.5,94.5 Z"/></g>
<g><path style="opacity:1" fill="#b3b3b3" d="M 146.5,84.5 C 147.919,83.5489 149.585,83.2155 151.5,83.5C 151.5,87.5 151.5,91.5 151.5,95.5C 150.167,95.5 148.833,95.5 147.5,95.5C 148.209,94.596 149.209,94.2627 150.5,94.5C 150.5,91.1667 150.5,87.8333 150.5,84.5C 149.167,84.5 147.833,84.5 146.5,84.5 Z"/></g>
<g><path style="opacity:1" fill="#060606" d="M 73.5,84.5 C 97.852,88.4825 122.185,88.4825 146.5,84.5C 147.833,84.5 149.167,84.5 150.5,84.5C 150.5,87.8333 150.5,91.1667 150.5,94.5C 149.209,94.2627 148.209,94.596 147.5,95.5C 141.819,95.6349 136.152,95.9682 130.5,96.5C 110.799,96.6031 91.1323,95.9364 71.5,94.5C 70.931,90.6707 71.5977,87.3373 73.5,84.5 Z"/></g>
<g><path style="opacity:1" fill="#686868" d="M 73.5,84.5 C 71.5977,87.3373 70.931,90.6707 71.5,94.5C 70.5184,91.0381 70.185,87.3714 70.5,83.5C 71.791,83.2627 72.791,83.596 73.5,84.5 Z"/></g>
<g><path style="opacity:1" fill="#767676" d="M 166.5,78.5 C 129.5,78.5 92.5,78.5 55.5,78.5C 55.5,85.8333 55.5,93.1667 55.5,100.5C 54.508,93.0182 54.1746,85.3516 54.5,77.5C 92.0037,77.1682 129.337,77.5015 166.5,78.5 Z"/></g>
<g><path style="opacity:1" fill="#181818" d="M 157.5,50.5 C 162.334,49.5902 166.334,50.9235 169.5,54.5C 171.866,63.9645 168.199,68.4645 158.5,68C 150.853,62.5791 150.519,56.7458 157.5,50.5 Z"/></g>
<g><path style="opacity:1" fill="#dddddd" d="M 159.5,55.5 C 165.488,55.664 166.821,58.164 163.5,63C 157.403,63.1475 156.07,60.6475 159.5,55.5 Z"/></g>
<g><path style="opacity:1" fill="#171717" d="M 128.5,50.5 C 138.378,49.8633 142.211,54.1966 140,63.5C 134.11,70.3812 128.776,70.0479 124,62.5C 122.474,57.2389 123.974,53.2389 128.5,50.5 Z"/></g>
<g><path style="opacity:1" fill="#e2e2e2" d="M 129.5,55.5 C 135.245,54.8255 136.911,57.1588 134.5,62.5C 128.811,63.4515 127.144,61.1181 129.5,55.5 Z"/></g>
<g><path style="opacity:1" fill="#171717" d="M 84.5,50.5 C 89.3336,49.5902 93.3336,50.9235 96.5,54.5C 98.8457,63.9828 95.1791,68.4828 85.5,68C 77.8659,62.6659 77.5325,56.8325 84.5,50.5 Z"/></g>
<g><path style="opacity:1" fill="#dbdbdb" d="M 86.5,55.5 C 92.704,55.3137 94.0374,57.8137 90.5,63C 84.4034,63.1475 83.0701,60.6475 86.5,55.5 Z"/></g>
<g><path style="opacity:1" fill="#161616" d="M 55.5,50.5 C 65.2117,49.7091 69.0451,54.0424 67,63.5C 61.5862,70.0767 56.2528,70.0767 51,63.5C 49.243,57.8252 50.743,53.4918 55.5,50.5 Z"/></g>
<g><path style="opacity:1" fill="#e2e2e2" d="M 56.5,55.5 C 62.3133,55.062 63.98,57.562 61.5,63C 55.7853,63.401 54.1187,60.901 56.5,55.5 Z"/></g>
<g><path style="opacity:1" fill="#858585" d="M 37.5,42.5 C 37.5,42.8333 37.5,43.1667 37.5,43.5C 37.5,94.8333 37.5,146.167 37.5,197.5C 85.8333,197.5 134.167,197.5 182.5,197.5C 134.003,198.499 85.3362,198.832 36.5,198.5C 36.1678,146.331 36.5011,94.3307 37.5,42.5 Z"/></g>
</svg>
