<?xml version="1.0" encoding="UTF-8"?>
<!DOCTYPE svg PUBLIC "-//W3C//DTD SVG 1.1//EN" "http://www.w3.org/Graphics/SVG/1.1/DTD/svg11.dtd">
<svg xmlns="http://www.w3.org/2000/svg" version="1.1" width="226px" height="230px" style="shape-rendering:geometricPrecision; text-rendering:geometricPrecision; image-rendering:optimizeQuality; fill-rule:evenodd; clip-rule:evenodd" xmlns:xlink="http://www.w3.org/1999/xlink">
<g><path style="opacity:1" fill="#fdfdfd" d="M -0.5,-0.5 C 74.8333,-0.5 150.167,-0.5 225.5,-0.5C 225.5,76.1667 225.5,152.833 225.5,229.5C 150.167,229.5 74.8333,229.5 -0.5,229.5C -0.5,152.833 -0.5,76.1667 -0.5,-0.5 Z"/></g>
<g><path style="opacity:1" fill="#0b0b0b" d="M 63.5,24.5 C 97.1683,24.3333 130.835,24.5 164.5,25C 165.056,25.3826 165.389,25.8826 165.5,26.5C 165.667,86.5009 165.5,146.501 165,206.5C 164.283,207.044 163.783,207.711 163.5,208.5C 130.5,208.5 97.5,208.5 64.5,208.5C 64.2172,207.711 63.7172,207.044 63,206.5C 62.1744,145.793 62.3411,85.126 63.5,24.5 Z"/></g>
<g><path style="opacity:1" fill="#606060" d="M 63.5,24.5 C 62.3411,85.126 62.1744,145.793 63,206.5C 63.7172,207.044 64.2172,207.711 64.5,208.5C 63.5041,208.586 62.6708,208.252 62,207.5C 61.3333,146.833 61.3333,86.1667 62,25.5C 62.3826,24.944 62.8826,24.6107 63.5,24.5 Z"/></g>
<g><path style="opacity:1" fill="#5c5c5c" d="M 69.5,32.5 C 84.1629,31.8334 98.9962,31.5001 114,31.5C 129.182,31.5006 144.015,32.1673 158.5,33.5C 158.167,33.5 157.833,33.5 157.5,33.5C 128.338,32.5019 99.0047,32.1686 69.5,32.5 Z"/></g>
<g><path style="opacity:1" fill="#bbbbbb" d="M 69.5,32.5 C 99.0047,32.1686 128.338,32.5019 157.5,33.5C 128.5,33.5 99.5,33.5 70.5,33.5C 70.5,48.5 70.5,63.5 70.5,78.5C 70.1667,78.5 69.8333,78.5 69.5,78.5C 69.5,63.1667 69.5,47.8333 69.5,32.5 Z"/></g>
<g><path style="opacity:1" fill="#fbfbfb" d="M 157.5,33.5 C 157.5,48.5 157.5,63.5 157.5,78.5C 128.5,78.5 99.5,78.5 70.5,78.5C 70.5,63.5 70.5,48.5 70.5,33.5C 99.5,33.5 128.5,33.5 157.5,33.5 Z"/></g>
<g><path style="opacity:1" fill="#111111" d="M 141.5,67.5 C 141.198,59.0817 141.531,50.7483 142.5,42.5C 144.489,41.1134 146.322,41.4468 148,43.5C 148.832,51.8533 148.665,60.1866 147.5,68.5C 144.952,70.1852 142.952,69.8519 141.5,67.5 Z"/></g>
<g><path style="opacity:1" fill="#7c7c7c" d="M 142.5,42.5 C 141.531,50.7483 141.198,59.0817 141.5,67.5C 140.834,63.5139 140.501,59.3472 140.5,55C 140.509,50.4428 141.175,46.2762 142.5,42.5 Z"/></g>
<g><path style="opacity:1" fill="#939393" d="M 157.5,33.5 C 157.833,33.5 158.167,33.5 158.5,33.5C 158.5,48.8333 158.5,64.1667 158.5,79.5C 128.662,79.8314 98.9953,79.4981 69.5,78.5C 69.8333,78.5 70.1667,78.5 70.5,78.5C 99.5,78.5 128.5,78.5 157.5,78.5C 157.5,63.5 157.5,48.5 157.5,33.5 Z"/></g>
<g><path style="opacity:1" fill="#a5a5a5" d="M 165.5,26.5 C 166.117,26.6107 166.617,26.944 167,27.5C 167.169,86.7371 167.669,145.904 168.5,205C 167.781,207.556 166.114,208.723 163.5,208.5C 163.783,207.711 164.283,207.044 165,206.5C 165.5,146.501 165.667,86.5009 165.5,26.5 Z"/></g>
<g><path style="opacity:1" fill="#bebebe" d="M 69.5,87.5 C 99.1667,87.5 128.833,87.5 158.5,87.5C 158.5,124.833 158.5,162.167 158.5,199.5C 129.005,200.498 99.338,200.831 69.5,200.5C 69.5,162.833 69.5,125.167 69.5,87.5 Z"/></g>
<g><path style="opacity:1" fill="#fcfcfc" d="M 71.5,88.5 C 100.167,88.5 128.833,88.5 157.5,88.5C 157.5,125.5 157.5,162.5 157.5,199.5C 128.5,199.5 99.5,199.5 70.5,199.5C 70.1734,162.427 70.5067,125.427 71.5,88.5 Z"/></g>
<g><path style="opacity:1" fill="#0f0f0f" d="M 142.5,118.5 C 144.262,118.357 145.929,118.691 147.5,119.5C 148.666,135.156 148.833,150.823 148,166.5C 146.211,168.229 144.044,168.896 141.5,168.5C 141.182,151.756 141.515,135.089 142.5,118.5 Z"/></g>
<g><path style="opacity:1" fill="#414141" d="M 158.5,199.5 C 158.5,162.167 158.5,124.833 158.5,87.5C 128.833,87.5 99.1667,87.5 69.5,87.5C 83.9846,86.1673 98.818,85.5006 114,85.5C 129.073,85.5038 144.073,85.8372 159,86.5C 159.831,124.336 159.664,162.002 158.5,199.5 Z"/></g>
</svg>
