<?xml version="1.0" encoding="UTF-8"?>
<!DOCTYPE svg PUBLIC "-//W3C//DTD SVG 1.1//EN" "http://www.w3.org/Graphics/SVG/1.1/DTD/svg11.dtd">
<svg xmlns="http://www.w3.org/2000/svg" version="1.1" width="146px" height="218px" style="shape-rendering:geometricPrecision; text-rendering:geometricPrecision; image-rendering:optimizeQuality; fill-rule:evenodd; clip-rule:evenodd" xmlns:xlink="http://www.w3.org/1999/xlink">
<g><path style="opacity:1" fill="#fcfcfc" d="M -0.5,-0.5 C 48.1667,-0.5 96.8333,-0.5 145.5,-0.5C 145.5,72.1667 145.5,144.833 145.5,217.5C 96.8333,217.5 48.1667,217.5 -0.5,217.5C -0.5,144.833 -0.5,72.1667 -0.5,-0.5 Z"/></g>
<g><path style="opacity:1" fill="#141414" d="M 13.5,16.5 C 53.8333,16.5 94.1667,16.5 134.5,16.5C 134.5,77.5 134.5,138.5 134.5,199.5C 93.8333,199.5 53.1667,199.5 12.5,199.5C 12.3197,138.728 12.653,77.7281 13.5,16.5 Z"/></g>
<g><path style="opacity:1" fill="#fefffe" d="M 60.5,20.5 C 61.8332,49.3256 62.4998,78.4923 62.5,108C 62.4998,137.508 61.8332,166.674 60.5,195.5C 60.5,137.167 60.5,78.8333 60.5,20.5 Z"/></g>
<g><path style="opacity:1" fill="#e4e4e4" d="M 60.5,20.5 C 61.209,19.596 62.209,19.2627 63.5,19.5C 63.5,78.5 63.5,137.5 63.5,196.5C 62.209,196.737 61.209,196.404 60.5,195.5C 61.8332,166.674 62.4998,137.508 62.5,108C 62.4998,78.4923 61.8332,49.3256 60.5,20.5 Z"/></g>
<g><path style="opacity:1" fill="#fefffe" d="M 105.5,21.5 C 105.5,22.5 105.5,23.5 105.5,24.5C 98.8333,24.5 92.1667,24.5 85.5,24.5C 85.5,23.5 85.5,22.5 85.5,21.5C 92.1667,21.5 98.8333,21.5 105.5,21.5 Z"/></g>
<g><path style="opacity:1" fill="#9e9e9e" d="M 105.5,21.5 C 98.8333,21.5 92.1667,21.5 85.5,21.5C 85.5,22.5 85.5,23.5 85.5,24.5C 92.1667,24.5 98.8333,24.5 105.5,24.5C 98.6866,25.4912 91.6866,25.8245 84.5,25.5C 84.5,23.8333 84.5,22.1667 84.5,20.5C 91.6866,20.1755 98.6866,20.5088 105.5,21.5 Z"/></g>
<g><path style="opacity:1" fill="#272727" d="M 13.5,16.5 C 12.653,77.7281 12.3197,138.728 12.5,199.5C 11.8334,169.169 11.5,138.669 11.5,108C 11.5001,77.1593 12.1668,46.6593 13.5,16.5 Z"/></g>
<g><path style="opacity:1" fill="#3e3e3e" d="M 18.5,77.5 C 26.1667,76.1667 33.8333,76.1667 41.5,77.5C 35.5,77.5 29.5,77.5 23.5,77.5C 23.5,85.8333 23.5,94.1667 23.5,102.5C 23.5,102.833 23.5,103.167 23.5,103.5C 23.0679,104.71 22.4013,105.71 21.5,106.5C 21.6716,105.508 21.3382,104.842 20.5,104.5C 21.4711,95.5839 21.8044,86.5839 21.5,77.5C 20.5,77.5 19.5,77.5 18.5,77.5 Z"/></g>
<g><path style="opacity:1" fill="#f9f9f9" d="M 41.5,77.5 C 41.5,85.8333 41.5,94.1667 41.5,102.5C 35.5,102.5 29.5,102.5 23.5,102.5C 23.5,94.1667 23.5,85.8333 23.5,77.5C 29.5,77.5 35.5,77.5 41.5,77.5 Z"/></g>
<g><path style="opacity:1" fill="#bababa" d="M 45.5,77.5 C 46.658,86.9911 46.8246,96.6578 46,106.5C 45.2828,105.956 44.7828,105.289 44.5,104.5C 45.4933,95.6822 45.8266,86.6822 45.5,77.5 Z"/></g>
<g><path style="opacity:1" fill="#d3d3d3" d="M 52.5,76.5 C 53.4959,76.4142 54.3292,76.7476 55,77.5C 55.9866,98.3155 55.6533,118.982 54,139.5C 52.5122,118.651 52.0122,97.6512 52.5,76.5 Z"/></g>
<g><path style="opacity:1" fill="#efefef" d="M 18.5,77.5 C 19.5,77.5 20.5,77.5 21.5,77.5C 21.8044,86.5839 21.4711,95.5839 20.5,104.5C 20.2172,105.289 19.7172,105.956 19,106.5C 18.5002,96.8391 18.3335,87.1724 18.5,77.5 Z"/></g>
<g><path style="opacity:1" fill="#fefefe" d="M 43.5,77.5 C 44.1667,77.5 44.8333,77.5 45.5,77.5C 45.8266,86.6822 45.4933,95.6822 44.5,104.5C 44.5,103.833 44.1667,103.5 43.5,103.5C 43.5,94.8333 43.5,86.1667 43.5,77.5 Z"/></g>
<g><path style="opacity:1" fill="#434343" d="M 41.5,77.5 C 42.1667,77.5 42.8333,77.5 43.5,77.5C 43.5,86.1667 43.5,94.8333 43.5,103.5C 42.8333,103.167 42.1667,102.833 41.5,102.5C 41.5,94.1667 41.5,85.8333 41.5,77.5 Z"/></g>
<g><path style="opacity:1" fill="#cacaca" d="M 68.5,76.5 C 69.5,76.5 70.5,76.5 71.5,76.5C 71.9878,97.6512 71.4878,118.651 70,139.5C 68.5122,118.651 68.0122,97.6512 68.5,76.5 Z"/></g>
<g><path style="opacity:1" fill="#1f1f1f" d="M 31.5,79.5 C 32.821,82.5982 33.4877,86.0982 33.5,90C 33.1667,93.5 32.8333,97 32.5,100.5C 31.503,93.5316 31.1697,86.5316 31.5,79.5 Z"/></g>
<g><path style="opacity:1" fill="#ededed" d="M 23.5,103.5 C 29.5368,103.171 35.5368,103.504 41.5,104.5C 42.1925,105.518 42.8592,106.518 43.5,107.5C 36.1667,108.833 28.8333,108.833 21.5,107.5C 21.5,107.167 21.5,106.833 21.5,106.5C 22.4013,105.71 23.0679,104.71 23.5,103.5 Z"/></g>
<g><path style="opacity:1" fill="#696969" d="M 21.5,107.5 C 28.8333,108.833 36.1667,108.833 43.5,107.5C 44.0431,107.56 44.3764,107.893 44.5,108.5C 36.5,109.833 28.5,109.833 20.5,108.5C 20.6236,107.893 20.9569,107.56 21.5,107.5 Z"/></g>
<g><path style="opacity:1" fill="#111111" d="M 14.5,201.5 C 53.5057,201.167 92.5057,201.5 131.5,202.5C 112,202.833 92.5,203.167 73,203.5C 53.155,203.5 33.655,202.833 14.5,201.5 Z"/></g>
</svg>
