<?xml version="1.0" encoding="UTF-8"?>
<!DOCTYPE svg PUBLIC "-//W3C//DTD SVG 1.1//EN" "http://www.w3.org/Graphics/SVG/1.1/DTD/svg11.dtd">
<svg xmlns="http://www.w3.org/2000/svg" version="1.1" width="258px" height="222px" style="shape-rendering:geometricPrecision; text-rendering:geometricPrecision; image-rendering:optimizeQuality; fill-rule:evenodd; clip-rule:evenodd" xmlns:xlink="http://www.w3.org/1999/xlink">
<g><path style="opacity:0.982" fill="#fdfdfd" d="M 15.5,-0.5 C 90.8333,-0.5 166.167,-0.5 241.5,-0.5C 241.5,73.5 241.5,147.5 241.5,221.5C 166.167,221.5 90.8333,221.5 15.5,221.5C 15.5,147.5 15.5,73.5 15.5,-0.5 Z"/></g>
<g><path style="opacity:1" fill="#2c2c2c" d="M 52.5,16.5 C 101.834,16.3333 151.168,16.5 200.5,17C 201.333,17.8333 202.167,18.6667 203,19.5C 203.667,78.8333 203.667,138.167 203,197.5C 202.626,198.416 202.126,199.25 201.5,200C 176.585,201.158 151.585,201.658 126.5,201.5C 102.167,201.333 77.8333,201.167 53.5,201C 52.5838,200.626 51.7504,200.126 51,199.5C 49.3413,139.916 49.008,80.2491 50,20.5C 50.6622,19.0161 51.4955,17.6828 52.5,16.5 Z"/></g>
<g><path style="opacity:1" fill="#f9f9f9" d="M 55.5,21.5 C 102.833,21.5 150.167,21.5 197.5,21.5C 197.5,31.1667 197.5,40.8333 197.5,50.5C 150.167,50.5 102.833,50.5 55.5,50.5C 55.5,40.8333 55.5,31.1667 55.5,21.5 Z"/></g>
<g><path style="opacity:1" fill="#303030" d="M 178.5,28.5 C 186.201,28.3622 189.367,32.0289 188,39.5C 184.455,45.2087 180.121,45.8754 175,41.5C 172.325,36.011 173.492,31.6776 178.5,28.5 Z"/></g>
<g><path style="opacity:1" fill="#eeeeee" d="M 178.5,32.5 C 185.004,32.1377 186.671,34.6377 183.5,40C 177.593,40.7465 175.927,38.2465 178.5,32.5 Z"/></g>
<g><path style="opacity:1" fill="#2a2a2a" d="M 64.5,30.5 C 81.8365,30.3334 99.1699,30.5001 116.5,31C 117.626,34.7436 117.793,38.577 117,42.5C 116.5,43 116,43.5 115.5,44C 98.5,44.6667 81.5,44.6667 64.5,44C 61.8569,39.4352 61.8569,34.9352 64.5,30.5 Z"/></g>
<g><path style="opacity:1" fill="#f1f1f1" d="M 65.5,33.5 C 81.8333,33.5 98.1667,33.5 114.5,33.5C 114.5,36.1667 114.5,38.8333 114.5,41.5C 98.4965,41.6666 82.4965,41.4999 66.5,41C 65.565,38.6194 65.2317,36.1194 65.5,33.5 Z"/></g>
<g><path style="opacity:1" fill="#fdfdfd" d="M 55.5,55.5 C 102.833,55.5 150.167,55.5 197.5,55.5C 197.5,102.5 197.5,149.5 197.5,196.5C 150.167,196.5 102.833,196.5 55.5,196.5C 55.5,149.5 55.5,102.5 55.5,55.5 Z"/></g>
<g><path style="opacity:1" fill="#2d2d2d" d="M 120.5,81.5 C 144.67,80.85 160.837,91.85 169,114.5C 172.292,142.516 160.459,160.35 133.5,168C 109.609,170.108 93.4425,159.941 85,137.5C 80.0209,108.01 91.8542,89.343 120.5,81.5 Z"/></g>
<g><path style="opacity:1" fill="#ebebeb" d="M 117.5,85.5 C 142.317,83.1625 158.483,93.8292 166,117.5C 168.065,141.542 157.565,157.042 134.5,164C 110.187,166.419 94.3536,155.919 87,132.5C 85.1124,108.928 95.2791,93.2618 117.5,85.5 Z"/></g>
<g><path style="opacity:1" fill="#323232" d="M 117.5,90.5 C 137.466,87.8934 151.633,95.56 160,113.5C 164.687,135.296 156.854,150.463 136.5,159C 113.341,163.175 98.5074,154.009 92,131.5C 89.9144,110.965 98.4144,97.2986 117.5,90.5 Z"/></g>
<g><path style="opacity:1" fill="#fafafa" d="M 114.5,124.5 C 118.514,124.334 122.514,124.501 126.5,125C 134.323,130.574 142.99,132.574 152.5,131C 154.167,130.167 155.833,129.333 157.5,128.5C 156.491,141.935 149.491,151.102 136.5,156C 120.85,160.007 108.35,155.507 99,142.5C 97.2997,139.533 96.133,136.367 95.5,133C 95.8198,131.347 96.8198,130.347 98.5,130C 104.051,128.456 109.384,126.622 114.5,124.5 Z"/></g>
<g><path style="opacity:1" fill="#f9f9f9" d="M 126.5,122.5 C 124.866,121.839 123.033,121.506 121,121.5C 117.85,121.36 115.017,122.027 112.5,123.5C 106.378,124.764 100.378,126.43 94.5,128.5C 94.1189,110.047 102.786,98.2135 120.5,93C 138.477,91.4039 150.977,98.9039 158,115.5C 160.671,123.098 158.171,127.598 150.5,129C 146.833,129.667 143.167,129.667 139.5,129C 135.109,126.804 130.776,124.638 126.5,122.5 Z"/></g>
<g><path style="opacity:1" fill="#b5b5b5" d="M 126.5,122.5 C 121.797,122.437 117.13,122.771 112.5,123.5C 115.017,122.027 117.85,121.36 121,121.5C 123.033,121.506 124.866,121.839 126.5,122.5 Z"/></g>
<g><path style="opacity:1" fill="#505050" d="M 111.5,100.5 C 115.7,100.914 116.533,102.914 114,106.5C 111.726,110.152 108.559,111.985 104.5,112C 103.328,110.132 103.495,108.298 105,106.5C 107.063,104.266 109.229,102.266 111.5,100.5 Z"/></g>
<g><path style="opacity:1" fill="#e3e3e3" d="M 110.5,102.5 C 111.5,102.5 112.5,102.5 113.5,102.5C 112.671,106.171 110.504,108.838 107,110.5C 106.5,110.167 106,109.833 105.5,109.5C 106.804,106.87 108.47,104.537 110.5,102.5 Z"/></g>
</svg>
