<?xml version="1.0" encoding="UTF-8"?>
<!DOCTYPE svg PUBLIC "-//W3C//DTD SVG 1.1//EN" "http://www.w3.org/Graphics/SVG/1.1/DTD/svg11.dtd">
<svg xmlns="http://www.w3.org/2000/svg" version="1.1" width="204px" height="231px" style="shape-rendering:geometricPrecision; text-rendering:geometricPrecision; image-rendering:optimizeQuality; fill-rule:evenodd; clip-rule:evenodd" xmlns:xlink="http://www.w3.org/1999/xlink">
<g><path style="opacity:0.996" fill="#fdfdfd" d="M -0.5,-0.5 C 67.5,-0.5 135.5,-0.5 203.5,-0.5C 203.5,76.5 203.5,153.5 203.5,230.5C 135.5,230.5 67.5,230.5 -0.5,230.5C -0.5,153.5 -0.5,76.5 -0.5,-0.5 Z"/></g>
<g><path style="opacity:1" fill="#080808" d="M 121.5,32.5 C 124.43,40.0487 124.097,47.382 120.5,54.5C 118.741,56.6045 116.741,58.2712 114.5,59.5C 113.778,60.5511 112.778,61.2178 111.5,61.5C 109.517,61.1568 108.183,61.8235 107.5,63.5C 107.5,65.5 107.5,67.5 107.5,69.5C 106.167,69.5 104.833,69.5 103.5,69.5C 103.5,64.8333 103.5,60.1667 103.5,55.5C 107.226,55.8226 110.893,55.4892 114.5,54.5C 116.173,52.4775 116.84,50.1441 116.5,47.5C 118.006,44.2222 117.673,41.2222 115.5,38.5C 115.273,36.0025 113.94,34.3359 111.5,33.5C 106.833,32.1667 102.167,32.1667 97.5,33.5C 94.1893,36.3885 92.856,40.0552 93.5,44.5C 91.1799,46.2261 88.5133,46.8928 85.5,46.5C 85.5,43.1667 85.5,39.8333 85.5,36.5C 87.1765,35.8166 87.8432,34.4832 87.5,32.5C 90.5205,29.8279 93.8539,27.4946 97.5,25.5C 102.167,24.1667 106.833,24.1667 111.5,25.5C 115.146,27.4946 118.479,29.8279 121.5,32.5 Z"/></g>
<g><path style="opacity:1" fill="#717171" d="M 87.5,32.5 C 87.8432,34.4832 87.1765,35.8166 85.5,36.5C 85.1568,34.5168 85.8235,33.1834 87.5,32.5 Z"/></g>
<g><path style="opacity:1" fill="#737373" d="M 121.5,32.5 C 122.151,33.0906 122.818,33.7573 123.5,34.5C 124.663,39.8023 124.829,45.1357 124,50.5C 122.571,55.4317 119.404,58.4317 114.5,59.5C 116.741,58.2712 118.741,56.6045 120.5,54.5C 124.097,47.382 124.43,40.0487 121.5,32.5 Z"/></g>
<g><path style="opacity:1" fill="#5c5c5c" d="M 85.5,36.5 C 85.5,39.8333 85.5,43.1667 85.5,46.5C 83.6921,45.0821 83.0254,43.0821 83.5,40.5C 84.1667,39.1667 84.8333,37.8333 85.5,36.5 Z"/></g>
<g><path style="opacity:1" fill="#9a9a9a" d="M 115.5,38.5 C 117.673,41.2222 118.006,44.2222 116.5,47.5C 116.167,47.5 115.833,47.5 115.5,47.5C 115.5,44.5 115.5,41.5 115.5,38.5 Z"/></g>
<g><path style="opacity:1" fill="#a8a8a8" d="M 83.5,40.5 C 83.0254,43.0821 83.6921,45.0821 85.5,46.5C 88.5133,46.8928 91.1799,46.2261 93.5,44.5C 93.5,45.5 93.5,46.5 93.5,47.5C 89.8333,47.5 86.1667,47.5 82.5,47.5C 82.1984,44.9407 82.5318,42.6074 83.5,40.5 Z"/></g>
<g><path style="opacity:1" fill="#717171" d="M 115.5,47.5 C 115.833,47.5 116.167,47.5 116.5,47.5C 116.84,50.1441 116.173,52.4775 114.5,54.5C 110.893,55.4892 107.226,55.8226 103.5,55.5C 103.5,60.1667 103.5,64.8333 103.5,69.5C 101.558,64.9443 100.892,59.9443 101.5,54.5C 105.582,54.6564 109.582,54.1564 113.5,53C 115.155,51.5557 115.822,49.7224 115.5,47.5 Z"/></g>
<g><path style="opacity:1" fill="#8c8c8c" d="M 111.5,61.5 C 110.817,63.1765 109.483,63.8432 107.5,63.5C 108.183,61.8235 109.517,61.1568 111.5,61.5 Z"/></g>
<g><path style="opacity:1" fill="#101010" d="M 107.5,77.5 C 107.5,79.5 107.5,81.5 107.5,83.5C 107.5,83.8333 107.5,84.1667 107.5,84.5C 105.5,85.8333 103.5,85.8333 101.5,84.5C 101.5,84.1667 101.5,83.8333 101.5,83.5C 101.5,81.5 101.5,79.5 101.5,77.5C 102.735,77.2786 103.735,76.6119 104.5,75.5C 105.265,76.6119 106.265,77.2786 107.5,77.5 Z"/></g>
<g><path style="opacity:1" fill="#898989" d="M 101.5,77.5 C 101.5,79.5 101.5,81.5 101.5,83.5C 100.307,83.0296 99.6399,82.0296 99.5,80.5C 99.6399,78.9704 100.307,77.9704 101.5,77.5 Z"/></g>
<g><path style="opacity:1" fill="#636363" d="M 107.5,77.5 C 108.693,77.9704 109.36,78.9704 109.5,80.5C 109.36,82.0296 108.693,83.0296 107.5,83.5C 107.5,81.5 107.5,79.5 107.5,77.5 Z"/></g>
<g><path style="opacity:1" fill="#9d9d9d" d="M 101.5,84.5 C 103.5,85.8333 105.5,85.8333 107.5,84.5C 107.03,85.6935 106.03,86.3601 104.5,86.5C 102.97,86.3601 101.97,85.6935 101.5,84.5 Z"/></g>
<g><path style="opacity:1" fill="#4a4a4a" d="M 107.5,98.5 C 104.833,98.5 102.167,98.5 99.5,98.5C 100.334,97.2521 101.667,96.5854 103.5,96.5C 105.333,96.5854 106.666,97.2521 107.5,98.5 Z"/></g>
<g><path style="opacity:1" fill="#161616" d="M 93.5,98.5 C 95.5,98.5 97.5,98.5 99.5,98.5C 102.167,98.5 104.833,98.5 107.5,98.5C 108.833,98.5 110.167,98.5 111.5,98.5C 112.183,100.176 113.517,100.843 115.5,100.5C 119.048,101.702 122.715,102.369 126.5,102.5C 127.183,104.176 128.517,104.843 130.5,104.5C 131.167,104.5 131.833,104.5 132.5,104.5C 133.183,106.176 134.517,106.843 136.5,106.5C 137.833,106.5 139.167,106.5 140.5,106.5C 141.183,108.176 142.517,108.843 144.5,108.5C 147.734,109.576 151.068,110.243 154.5,110.5C 155.552,112.256 157.219,112.923 159.5,112.5C 160.167,112.5 160.833,112.5 161.5,112.5C 161.953,113.458 162.619,114.292 163.5,115C 166.207,115.395 168.873,115.895 171.5,116.5C 176.819,123.789 182.153,131.123 187.5,138.5C 184.68,141.243 181.347,142.91 177.5,143.5C 175.517,143.157 174.183,143.824 173.5,145.5C 171.519,158.124 170.852,171.124 171.5,184.5C 169.196,186.657 166.529,188.324 163.5,189.5C 158.688,190.427 154.355,192.094 150.5,194.5C 147.351,194.415 144.684,195.415 142.5,197.5C 138.723,197.934 135.39,199.267 132.5,201.5C 126.176,203.039 120.509,205.705 115.5,209.5C 111.142,210.618 106.808,211.952 102.5,213.5C 89.1116,208.133 75.7783,202.8 62.5,197.5C 61.0772,195.455 59.0772,194.455 56.5,194.5C 48.7783,192.471 41.7783,189.137 35.5,184.5C 36.1476,171.124 35.4809,158.124 33.5,145.5C 28.8333,144.167 24.1667,142.833 19.5,141.5C 19.2011,139.396 19.5344,137.396 20.5,135.5C 24.8762,130.12 28.8762,124.453 32.5,118.5C 33.2652,117.388 34.2652,116.721 35.5,116.5C 38.1267,115.895 40.7934,115.395 43.5,115C 46.6864,113.643 49.6864,112.143 52.5,110.5C 55.1667,109.833 57.8333,109.167 60.5,108.5C 62.4832,108.843 63.8166,108.176 64.5,106.5C 67.9322,106.243 71.2655,105.576 74.5,104.5C 76.4832,104.843 77.8166,104.176 78.5,102.5C 82.2122,102.039 85.8789,101.373 89.5,100.5C 91.4832,100.843 92.8166,100.176 93.5,98.5 Z"/></g>
<g><path style="opacity:1" fill="#969696" d="M 93.5,98.5 C 92.8166,100.176 91.4832,100.843 89.5,100.5C 90.1834,98.8235 91.5168,98.1568 93.5,98.5 Z"/></g>
<g><path style="opacity:1" fill="#858585" d="M 111.5,98.5 C 113.483,98.1568 114.817,98.8235 115.5,100.5C 113.517,100.843 112.183,100.176 111.5,98.5 Z"/></g>
<g><path style="opacity:1" fill="#9f9f9f" d="M 78.5,102.5 C 77.8166,104.176 76.4832,104.843 74.5,104.5C 75.1834,102.824 76.5168,102.157 78.5,102.5 Z"/></g>
<g><path style="opacity:1" fill="#f7f7f7" d="M 107.5,102.5 C 108.183,104.176 109.517,104.843 111.5,104.5C 119.712,106.97 128.045,108.97 136.5,110.5C 137.183,112.176 138.517,112.843 140.5,112.5C 143.167,113.167 145.833,113.833 148.5,114.5C 150.102,116.074 152.102,116.741 154.5,116.5C 154.611,117.117 154.944,117.617 155.5,118C 153.256,118.05 151.589,118.883 150.5,120.5C 145.747,121.667 141.081,122.667 136.5,123.5C 129.597,124.135 123.264,126.135 117.5,129.5C 114.068,129.757 110.734,130.424 107.5,131.5C 104.833,131.5 102.167,131.5 99.5,131.5C 90.9342,130.385 82.6008,128.385 74.5,125.5C 71.5545,123.521 68.2211,122.521 64.5,122.5C 61.5718,122.435 58.9052,121.768 56.5,120.5C 55.0512,118.836 53.0512,118.002 50.5,118C 51.056,117.617 51.3893,117.117 51.5,116.5C 51.8333,116.5 52.1667,116.5 52.5,116.5C 66.2338,113.313 79.9005,110.313 93.5,107.5C 93.5,106.5 93.5,105.5 93.5,104.5C 98.0275,103.063 102.694,102.396 107.5,102.5 Z"/></g>
<g><path style="opacity:1" fill="#626262" d="M 107.5,102.5 C 109.483,102.157 110.817,102.824 111.5,104.5C 109.517,104.843 108.183,104.176 107.5,102.5 Z"/></g>
<g><path style="opacity:1" fill="#919191" d="M 126.5,102.5 C 128.483,102.157 129.817,102.824 130.5,104.5C 128.517,104.843 127.183,104.176 126.5,102.5 Z"/></g>
<g><path style="opacity:1" fill="#606060" d="M 132.5,104.5 C 134.483,104.157 135.817,104.824 136.5,106.5C 134.517,106.843 133.183,106.176 132.5,104.5 Z"/></g>
<g><path style="opacity:1" fill="#979797" d="M 64.5,106.5 C 63.8166,108.176 62.4832,108.843 60.5,108.5C 61.1834,106.824 62.5168,106.157 64.5,106.5 Z"/></g>
<g><path style="opacity:1" fill="#848484" d="M 140.5,106.5 C 142.483,106.157 143.817,106.824 144.5,108.5C 142.517,108.843 141.183,108.176 140.5,106.5 Z"/></g>
<g><path style="opacity:1" fill="#696969" d="M 136.5,110.5 C 138.483,110.157 139.817,110.824 140.5,112.5C 138.517,112.843 137.183,112.176 136.5,110.5 Z"/></g>
<g><path style="opacity:1" fill="#7c7c7c" d="M 154.5,110.5 C 156.781,110.077 158.448,110.744 159.5,112.5C 157.219,112.923 155.552,112.256 154.5,110.5 Z"/></g>
<g><path style="opacity:1" fill="#494949" d="M 52.5,110.5 C 49.6864,112.143 46.6864,113.643 43.5,115C 40.7934,115.395 38.1267,115.895 35.5,116.5C 39.0925,115.081 42.7591,113.415 46.5,111.5C 48.396,110.534 50.396,110.201 52.5,110.5 Z"/></g>
<g><path style="opacity:1" fill="#bfbfbf" d="M 93.5,104.5 C 93.5,105.5 93.5,106.5 93.5,107.5C 79.9005,110.313 66.2338,113.313 52.5,116.5C 65.8456,111.743 79.5122,107.743 93.5,104.5 Z"/></g>
<g><path style="opacity:1" fill="#777777" d="M 148.5,114.5 C 150.898,114.259 152.898,114.926 154.5,116.5C 152.102,116.741 150.102,116.074 148.5,114.5 Z"/></g>
<g><path style="opacity:1" fill="#636363" d="M 161.5,112.5 C 165.203,113.41 168.536,114.744 171.5,116.5C 168.873,115.895 166.207,115.395 163.5,115C 162.619,114.292 161.953,113.458 161.5,112.5 Z"/></g>
<g><path style="opacity:1" fill="#787878" d="M 51.5,116.5 C 51.3893,117.117 51.056,117.617 50.5,118C 53.0512,118.002 55.0512,118.836 56.5,120.5C 53.797,120.048 51.1303,119.381 48.5,118.5C 49.0047,117.081 50.0047,116.415 51.5,116.5 Z"/></g>
<g><path style="opacity:1" fill="#7d7d7d" d="M 154.5,116.5 C 156.355,116.272 157.188,116.939 157,118.5C 154.846,119.23 152.679,119.897 150.5,120.5C 151.589,118.883 153.256,118.05 155.5,118C 154.944,117.617 154.611,117.117 154.5,116.5 Z"/></g>
<g><path style="opacity:1" fill="#f6f6f6" d="M 45.5,122.5 C 47.9557,124.868 50.9557,125.868 54.5,125.5C 55.1667,125.5 55.8333,125.5 56.5,125.5C 58.6353,127.369 61.3019,128.036 64.5,127.5C 65.9179,129.308 67.9179,129.975 70.5,129.5C 73.1667,130.167 75.8333,130.833 78.5,131.5C 79.5521,133.256 81.2188,133.923 83.5,133.5C 86.7345,134.576 90.0678,135.243 93.5,135.5C 94.1834,137.176 95.5168,137.843 97.5,137.5C 94.8333,141.5 92.1667,145.5 89.5,149.5C 87.5696,150.763 85.9029,152.43 84.5,154.5C 82.604,155.466 80.604,155.799 78.5,155.5C 68.6406,151.769 58.6406,148.436 48.5,145.5C 47.4479,143.744 45.7812,143.077 43.5,143.5C 38.6527,142.439 33.986,140.772 29.5,138.5C 28.5853,137.672 27.9186,136.672 27.5,135.5C 30.2484,131.007 33.2484,126.674 36.5,122.5C 39.4509,121.643 42.4509,121.643 45.5,122.5 Z"/></g>
<g><path style="opacity:1" fill="#919191" d="M 45.5,122.5 C 49.0443,122.132 52.0443,123.132 54.5,125.5C 50.9557,125.868 47.9557,124.868 45.5,122.5 Z"/></g>
<g><path style="opacity:1" fill="#f5f5f5" d="M 169.5,121.5 C 169.5,122.833 169.5,124.167 169.5,125.5C 170.833,125.5 172.167,125.5 173.5,125.5C 173.238,126.978 173.571,128.311 174.5,129.5C 176.412,131.657 178.079,133.991 179.5,136.5C 178.012,138.577 176.012,139.577 173.5,139.5C 171.517,139.157 170.183,139.824 169.5,141.5C 166.833,142.167 164.167,142.833 161.5,143.5C 159.517,143.157 158.183,143.824 157.5,145.5C 147.737,148.548 138.07,151.881 128.5,155.5C 125.789,155.815 123.456,155.148 121.5,153.5C 117.559,148.884 113.559,144.217 109.5,139.5C 109.5,138.833 109.5,138.167 109.5,137.5C 111.831,135.915 114.497,134.749 117.5,134C 121.794,132.857 126.127,132.023 130.5,131.5C 133.082,131.975 135.082,131.308 136.5,129.5C 138.483,129.843 139.817,129.176 140.5,127.5C 150.435,126.39 160.101,124.39 169.5,121.5 Z"/></g>
<g><path style="opacity:1" fill="#686868" d="M 64.5,122.5 C 68.2211,122.521 71.5545,123.521 74.5,125.5C 70.7789,125.479 67.4455,124.479 64.5,122.5 Z"/></g>
<g><path style="opacity:1" fill="#7b7b7b" d="M 56.5,125.5 C 59.4282,125.565 62.0948,126.232 64.5,127.5C 61.3019,128.036 58.6353,127.369 56.5,125.5 Z"/></g>
<g><path style="opacity:1" fill="#757575" d="M 169.5,121.5 C 160.101,124.39 150.435,126.39 140.5,127.5C 147.485,125.5 154.485,123.333 161.5,121C 164.367,120.199 167.034,120.366 169.5,121.5 Z"/></g>
<g><path style="opacity:1" fill="#676767" d="M 64.5,127.5 C 66.6976,127.875 68.6976,128.542 70.5,129.5C 67.9179,129.975 65.9179,129.308 64.5,127.5 Z"/></g>
<g><path style="opacity:1" fill="#8a8a8a" d="M 136.5,123.5 C 134.975,125.036 132.975,126.036 130.5,126.5C 126.172,127.666 121.839,128.666 117.5,129.5C 123.264,126.135 129.597,124.135 136.5,123.5 Z"/></g>
<g><path style="opacity:1" fill="#9b9b9b" d="M 136.5,129.5 C 135.082,131.308 133.082,131.975 130.5,131.5C 131.918,129.692 133.918,129.025 136.5,129.5 Z"/></g>
<g><path style="opacity:1" fill="#696969" d="M 78.5,131.5 C 80.5529,131.402 82.2196,132.069 83.5,133.5C 81.2188,133.923 79.5521,133.256 78.5,131.5 Z"/></g>
<g><path style="opacity:1" fill="#a3a3a3" d="M 99.5,131.5 C 102.167,131.5 104.833,131.5 107.5,131.5C 106.666,132.748 105.333,133.415 103.5,133.5C 101.667,133.415 100.334,132.748 99.5,131.5 Z"/></g>
<g><path style="opacity:1" fill="#717171" d="M 93.5,135.5 C 95.4832,135.157 96.8166,135.824 97.5,137.5C 95.5168,137.843 94.1834,137.176 93.5,135.5 Z"/></g>
<g><path style="opacity:1" fill="#7a7a7a" d="M 109.5,137.5 C 109.5,138.167 109.5,138.833 109.5,139.5C 106.833,138.833 106.833,138.167 109.5,137.5 Z"/></g>
<g><path style="opacity:1" fill="#797979" d="M 173.5,139.5 C 172.817,141.176 171.483,141.843 169.5,141.5C 170.183,139.824 171.517,139.157 173.5,139.5 Z"/></g>
<g><path style="opacity:1" fill="#8c8c8c" d="M 43.5,143.5 C 45.7812,143.077 47.4479,143.744 48.5,145.5C 46.2188,145.923 44.5521,145.256 43.5,143.5 Z"/></g>
<g><path style="opacity:1" fill="#858585" d="M 161.5,143.5 C 160.817,145.176 159.483,145.843 157.5,145.5C 158.183,143.824 159.517,143.157 161.5,143.5 Z"/></g>
<g><path style="opacity:1" fill="#707070" d="M 177.5,143.5 C 176.817,145.176 175.483,145.843 173.5,145.5C 174.183,143.824 175.517,143.157 177.5,143.5 Z"/></g>
<g><path style="opacity:1" fill="#f9f9f9" d="M 99.5,145.5 C 100.155,165.861 99.488,185.861 97.5,205.5C 86.2587,201.737 75.2587,197.403 64.5,192.5C 63.0821,190.692 61.0821,190.025 58.5,190.5C 56.1571,188.811 53.4904,187.477 50.5,186.5C 49.4479,184.744 47.7812,184.077 45.5,184.5C 43.9891,183.498 42.3224,182.831 40.5,182.5C 40.5,171.5 40.5,160.5 40.5,149.5C 41.5,149.5 42.5,149.5 43.5,149.5C 51.1105,151.986 58.7772,154.32 66.5,156.5C 68.6535,158.339 71.3201,159.339 74.5,159.5C 75.5676,160.434 76.901,160.768 78.5,160.5C 79.1522,161.725 80.3189,162.392 82,162.5C 83.1667,162.333 84.3333,162.167 85.5,162C 88.0681,160.269 90.0681,158.102 91.5,155.5C 92.7474,150.992 95.4141,147.659 99.5,145.5 Z"/></g>
<g><path style="opacity:1" fill="#fafafa" d="M 109.5,148.5 C 113.596,152.478 117.262,156.811 120.5,161.5C 121.622,162.156 122.955,162.489 124.5,162.5C 126.333,162.415 127.666,161.748 128.5,160.5C 129.568,159.566 130.901,159.232 132.5,159.5C 139.796,157.965 146.796,155.798 153.5,153C 155.473,152.505 157.473,152.338 159.5,152.5C 159.5,151.5 159.5,150.5 159.5,149.5C 160.833,149.5 162.167,149.5 163.5,149.5C 165.477,160.116 166.144,171.116 165.5,182.5C 164.833,182.5 164.167,182.5 163.5,182.5C 160.828,182.948 158.828,184.281 157.5,186.5C 157.167,186.5 156.833,186.5 156.5,186.5C 152.007,187.213 148.007,188.88 144.5,191.5C 142.302,191.875 140.302,192.542 138.5,193.5C 133.533,194.988 128.866,196.988 124.5,199.5C 120.225,201.477 115.891,203.144 111.5,204.5C 109.833,204.5 108.167,204.5 106.5,204.5C 106.333,186.164 106.5,167.83 107,149.5C 107.671,148.748 108.504,148.414 109.5,148.5 Z"/></g>
<g><path style="opacity:1" fill="#dcdcdc" d="M 173.5,145.5 C 174.148,158.876 173.481,171.876 171.5,184.5C 170.852,171.124 171.519,158.124 173.5,145.5 Z"/></g>
<g><path style="opacity:1" fill="#7c7c7c" d="M 33.5,145.5 C 35.4809,158.124 36.1476,171.124 35.5,184.5C 33.5191,171.876 32.8524,158.876 33.5,145.5 Z"/></g>
<g><path style="opacity:1" fill="#b2b2b2" d="M 43.5,149.5 C 42.5,149.5 41.5,149.5 40.5,149.5C 40.5,160.5 40.5,171.5 40.5,182.5C 39.5051,171.012 39.1717,159.345 39.5,147.5C 41.4832,147.157 42.8166,147.824 43.5,149.5 Z"/></g>
<g><path style="opacity:1" fill="#808080" d="M 97.5,205.5 C 99.488,185.861 100.155,165.861 99.5,145.5C 99.3691,144.624 99.7025,143.957 100.5,143.5C 101.5,164.823 101.833,186.156 101.5,207.5C 99.5168,207.843 98.1834,207.176 97.5,205.5 Z"/></g>
<g><path style="opacity:1" fill="#cccccc" d="M 109.5,148.5 C 108.504,148.414 107.671,148.748 107,149.5C 106.5,167.83 106.333,186.164 106.5,204.5C 108.167,204.5 109.833,204.5 111.5,204.5C 111.158,205.338 110.492,205.672 109.5,205.5C 108.167,205.5 106.833,205.5 105.5,205.5C 105.167,184.823 105.5,164.156 106.5,143.5C 108.321,144.728 109.321,146.394 109.5,148.5 Z"/></g>
<g><path style="opacity:1" fill="#4e4e4e" d="M 89.5,149.5 C 87.8337,155.479 84.167,157.479 78.5,155.5C 80.604,155.799 82.604,155.466 84.5,154.5C 85.9029,152.43 87.5696,150.763 89.5,149.5 Z"/></g>
<g><path style="opacity:1" fill="#7e7e7e" d="M 121.5,153.5 C 123.456,155.148 125.789,155.815 128.5,155.5C 126.393,156.468 124.059,156.802 121.5,156.5C 121.5,155.5 121.5,154.5 121.5,153.5 Z"/></g>
<g><path style="opacity:1" fill="#797979" d="M 165.5,182.5 C 166.144,171.116 165.477,160.116 163.5,149.5C 164.183,147.824 165.517,147.157 167.5,147.5C 168.145,159.548 167.478,171.215 165.5,182.5 Z"/></g>
<g><path style="opacity:1" fill="#626262" d="M 66.5,156.5 C 69.6799,156.661 72.3465,157.661 74.5,159.5C 71.3201,159.339 68.6535,158.339 66.5,156.5 Z"/></g>
<g><path style="opacity:1" fill="#959595" d="M 159.5,149.5 C 159.5,150.5 159.5,151.5 159.5,152.5C 157.473,152.338 155.473,152.505 153.5,153C 146.796,155.798 139.796,157.965 132.5,159.5C 141.379,156.344 150.379,153.01 159.5,149.5 Z"/></g>
<g><path style="opacity:1" fill="#7c7c7c" d="M 91.5,155.5 C 90.0681,158.102 88.0681,160.269 85.5,162C 84.3333,162.167 83.1667,162.333 82,162.5C 80.3189,162.392 79.1522,161.725 78.5,160.5C 80.4546,161.323 82.4546,161.49 84.5,161C 86.4412,158.546 88.7746,156.713 91.5,155.5 Z"/></g>
<g><path style="opacity:1" fill="#8a8a8a" d="M 128.5,160.5 C 127.666,161.748 126.333,162.415 124.5,162.5C 122.955,162.489 121.622,162.156 120.5,161.5C 123.237,161.599 125.904,161.265 128.5,160.5 Z"/></g>
<g><path style="opacity:1" fill="#969696" d="M 45.5,184.5 C 47.7812,184.077 49.4479,184.744 50.5,186.5C 48.4471,186.598 46.7804,185.931 45.5,184.5 Z"/></g>
<g><path style="opacity:1" fill="#797979" d="M 163.5,182.5 C 162.267,184.796 160.267,186.13 157.5,186.5C 158.828,184.281 160.828,182.948 163.5,182.5 Z"/></g>
<g><path style="opacity:1" fill="#4f4f4f" d="M 156.5,186.5 C 156.047,187.458 155.381,188.292 154.5,189C 151.11,189.744 147.777,190.577 144.5,191.5C 148.007,188.88 152.007,187.213 156.5,186.5 Z"/></g>
<g><path style="opacity:1" fill="#858585" d="M 58.5,190.5 C 61.0821,190.025 63.0821,190.692 64.5,192.5C 62.3024,192.125 60.3024,191.458 58.5,190.5 Z"/></g>
<g><path style="opacity:1" fill="#aaaaaa" d="M 163.5,189.5 C 160.001,192.736 155.667,194.403 150.5,194.5C 154.355,192.094 158.688,190.427 163.5,189.5 Z"/></g>
<g><path style="opacity:1" fill="#848585" d="M 56.5,194.5 C 59.0772,194.455 61.0772,195.455 62.5,197.5C 59.9228,197.545 57.9228,196.545 56.5,194.5 Z"/></g>
<g><path style="opacity:1" fill="#5a5a5a" d="M 138.5,193.5 C 134.648,197.085 129.981,199.085 124.5,199.5C 128.866,196.988 133.533,194.988 138.5,193.5 Z"/></g>
<g><path style="opacity:1" fill="#989898" d="M 150.5,194.5 C 148.443,196.856 145.776,197.856 142.5,197.5C 144.684,195.415 147.351,194.415 150.5,194.5 Z"/></g>
<g><path style="opacity:1" fill="#969696" d="M 142.5,197.5 C 139.939,200.363 136.606,201.696 132.5,201.5C 135.39,199.267 138.723,197.934 142.5,197.5 Z"/></g>
<g><path style="opacity:1" fill="#999999" d="M 132.5,201.5 C 128.851,204.118 124.851,206.452 120.5,208.5C 118.955,209.452 117.288,209.785 115.5,209.5C 120.509,205.705 126.176,203.039 132.5,201.5 Z"/></g>
<g><path style="opacity:1" fill="#6e6e6e" d="M 105.5,205.5 C 106.833,205.5 108.167,205.5 109.5,205.5C 109.38,206.586 108.713,207.253 107.5,207.5C 106.287,207.253 105.62,206.586 105.5,205.5 Z"/></g>
</svg>
