<?xml version="1.0" encoding="UTF-8"?>
<!DOCTYPE svg PUBLIC "-//W3C//DTD SVG 1.1//EN" "http://www.w3.org/Graphics/SVG/1.1/DTD/svg11.dtd">
<svg xmlns="http://www.w3.org/2000/svg" version="1.1" width="512px" height="512px" style="shape-rendering:geometricPrecision; text-rendering:geometricPrecision; image-rendering:optimizeQuality; fill-rule:evenodd; clip-rule:evenodd" xmlns:xlink="http://www.w3.org/1999/xlink">
<g><path style="opacity:0.945" fill="#000000" d="M 511.5,273.5 C 511.5,278.5 511.5,283.5 511.5,288.5C 508.682,297.483 502.682,303.317 493.5,306C 483.278,333.331 473.444,360.831 464,388.5C 456.16,409.331 443.993,427.164 427.5,442C 434.088,450.339 439.254,459.506 443,469.5C 444.085,477.741 443.252,485.741 440.5,493.5C 447.508,493.334 454.508,493.5 461.5,494C 469.381,496.941 471.215,502.108 467,509.5C 466.005,510.066 465.172,510.733 464.5,511.5C 325.167,511.5 185.833,511.5 46.5,511.5C 40.8401,507.023 40.1734,501.857 44.5,496C 46.087,495.138 47.7536,494.471 49.5,494C 56.4921,493.5 63.4921,493.334 70.5,493.5C 65.8257,481.114 66.6591,469.114 73,457.5C 76.6947,452.638 80.1947,447.638 83.5,442.5C 70.3471,430.545 59.8471,416.545 52,400.5C 40.2729,369.319 28.9395,337.986 18,306.5C 9.07627,303.74 2.90961,298.073 -0.5,289.5C -0.5,284.167 -0.5,278.833 -0.5,273.5C 1.84282,265.69 6.84282,260.19 14.5,257C 26.4242,255.562 38.4242,255.062 50.5,255.5C 50.3334,229.498 50.5,203.498 51,177.5C 60.3951,141.127 83.8951,124.627 121.5,128C 146.48,133.648 162.314,148.814 169,173.5C 170.519,182.781 170.853,192.114 170,201.5C 164.917,217.301 154.084,223.801 137.5,221C 127.566,218.067 121.4,211.567 119,201.5C 118.917,195.058 118.251,188.725 117,182.5C 111.559,178.074 106.892,178.741 103,184.5C 102.5,208.164 102.333,231.831 102.5,255.5C 136.5,255.5 170.5,255.5 204.5,255.5C 202.097,225.796 215.763,211.63 245.5,213C 248,213.375 250.333,214.208 252.5,215.5C 268.174,195.165 287.841,190.332 311.5,201C 317.643,204.643 322.643,209.476 326.5,215.5C 347.185,208.446 362.685,214.446 373,233.5C 375.52,240.712 376.02,248.045 374.5,255.5C 414.168,255.333 453.835,255.5 493.5,256C 502.682,258.683 508.682,264.517 511.5,273.5 Z M 101.5,145.5 C 128.099,143.288 144.932,154.955 152,180.5C 152.667,186.5 152.667,192.5 152,198.5C 148.108,204.259 143.441,204.926 138,200.5C 136.749,194.275 136.083,187.942 136,181.5C 130.905,165.694 120.072,159.194 103.5,162C 93.5574,164.942 87.3908,171.442 85,181.5C 84.5,206.164 84.3334,230.831 84.5,255.5C 79.1667,255.5 73.8333,255.5 68.5,255.5C 68.0356,228.782 68.5356,202.116 70,175.5C 75.5369,160.126 86.0369,150.126 101.5,145.5 Z M 284.5,213.5 C 302.14,212.469 312.14,220.636 314.5,238C 314.372,244.219 312.372,249.719 308.5,254.5C 296.18,255.666 283.847,255.833 271.5,255C 261.813,242.478 262.479,230.478 273.5,219C 276.99,216.588 280.657,214.755 284.5,213.5 Z M 234.5,230.5 C 238.546,230.15 242.38,230.817 246,232.5C 245.976,240.046 247.143,247.379 249.5,254.5C 240.941,255.815 232.441,255.815 224,254.5C 220.098,243.301 223.598,235.301 234.5,230.5 Z M 336.5,230.5 C 348.508,229.818 355.508,235.318 357.5,247C 357.343,249.637 356.677,252.137 355.5,254.5C 346.853,255.665 338.186,255.832 329.5,255C 330.714,252.649 331.548,250.149 332,247.5C 332.171,242.467 332.671,237.467 333.5,232.5C 334.739,232.058 335.739,231.391 336.5,230.5 Z M 21.5,273.5 C 177.5,273.333 333.5,273.5 489.5,274C 493.753,277.42 494.587,281.587 492,286.5C 490.581,287.46 489.081,288.293 487.5,289C 332.833,289.667 178.167,289.667 23.5,289C 18.0758,286.983 16.2425,283.15 18,277.5C 19.3756,276.295 20.5423,274.962 21.5,273.5 Z M 38.5,307.5 C 183.167,307.5 327.833,307.5 472.5,307.5C 462.957,337.961 452.124,367.961 440,397.5C 421.19,430.509 393.024,450.676 355.5,458C 322.195,459.142 288.862,459.642 255.5,459.5C 222.138,459.642 188.805,459.142 155.5,458C 117.976,450.676 89.8098,430.509 71,397.5C 58.8759,367.961 48.0426,337.961 38.5,307.5 Z M 97.5,453.5 C 106.751,459.96 116.751,465.127 127.5,469C 123.21,475.08 119.043,481.247 115,487.5C 105.67,495.722 96.6697,495.389 88,486.5C 85.7298,482.07 85.0631,477.403 86,472.5C 89.8558,466.111 93.6891,459.778 97.5,453.5 Z M 412.5,453.5 C 417.14,459.426 421.307,465.759 425,472.5C 426.146,487.354 419.313,494.187 404.5,493C 401.274,491.802 398.441,489.969 396,487.5C 391.957,481.247 387.79,475.08 383.5,469C 394.119,465.361 403.786,460.194 412.5,453.5 Z M 145.5,474.5 C 150.444,475.546 155.444,476.38 160.5,477C 223.833,477.667 287.167,477.667 350.5,477C 355.072,476.537 359.572,475.704 364,474.5C 369.201,479.869 373.701,485.869 377.5,492.5C 296.167,493.833 214.833,493.833 133.5,492.5C 137.51,486.471 141.51,480.471 145.5,474.5 Z"/></g>
<g><path style="opacity:0.912" fill="#000000" d="M 242.5,127.5 C 247.535,126.502 251.702,127.835 255,131.5C 255.667,137.167 255.667,142.833 255,148.5C 252.459,153.069 248.625,154.569 243.5,153C 241.714,152.215 240.214,151.049 239,149.5C 236.172,141.362 237.338,134.028 242.5,127.5 Z"/></g>
<g><path style="opacity:0.935" fill="#000000" d="M 332.5,127.5 C 361.118,125.621 375.285,138.954 375,167.5C 370.732,185.433 359.399,195.1 341,196.5C 315.914,193.078 304.581,178.744 307,153.5C 311.026,140.309 319.526,131.642 332.5,127.5 Z M 335.5,145.5 C 349.778,143.951 356.945,150.284 357,164.5C 352.651,176.592 344.484,180.425 332.5,176C 324.679,170.529 322.513,163.362 326,154.5C 328.406,150.592 331.572,147.592 335.5,145.5 Z"/></g>
<g><path style="opacity:0.901" fill="#000000" d="M 218.5,152.5 C 224.762,151.872 230.762,152.705 236.5,155C 238.942,159.052 239.109,163.219 237,167.5C 236.097,168.701 234.931,169.535 233.5,170C 227.388,170.909 221.388,170.576 215.5,169C 210.764,162.359 211.764,156.859 218.5,152.5 Z"/></g>
<g><path style="opacity:0.903" fill="#000000" d="M 261.5,152.5 C 266.959,152.103 272.292,152.603 277.5,154C 283.093,159.81 282.76,165.144 276.5,170C 270.388,170.909 264.388,170.576 258.5,169C 255.682,165.662 254.849,161.829 256,157.5C 257.107,154.887 258.94,153.22 261.5,152.5 Z"/></g>
<g><path style="opacity:0.899" fill="#000000" d="M 244.5,169.5 C 249.023,169.18 252.523,170.846 255,174.5C 255.667,180.167 255.667,185.833 255,191.5C 251.04,196.957 246.207,197.791 240.5,194C 237.175,187.754 236.675,181.254 239,174.5C 240.107,171.887 241.94,170.22 244.5,169.5 Z"/></g>
<g><path style="opacity:0.936" fill="#000000" d="M 402.5,178.5 C 421.774,176.782 432.774,185.449 435.5,204.5C 433.762,220.405 424.929,229.072 409,230.5C 389.826,227.849 381.493,216.849 384,197.5C 386.991,188.01 393.158,181.676 402.5,178.5 Z M 406.5,196.5 C 414.803,196.623 417.97,200.623 416,208.5C 410.889,213.885 406.223,213.552 402,207.5C 400.393,202.438 401.893,198.772 406.5,196.5 Z"/></g>
<g><path style="opacity:0.924" fill="#000000" d="M 29.5,511.5 C 20.8333,511.5 12.1667,511.5 3.5,511.5C 2.5,509.833 1.16667,508.5 -0.5,507.5C -0.5,504.5 -0.5,501.5 -0.5,498.5C 1.55577,495.951 4.22244,494.451 7.5,494C 14.8992,493.152 22.2325,493.485 29.5,495C 32.4073,496.799 34.0739,499.466 34.5,503C 33.8502,506.472 32.1835,509.305 29.5,511.5 Z"/></g>
<g><path style="opacity:0.924" fill="#000000" d="M 511.5,498.5 C 511.5,501.5 511.5,504.5 511.5,507.5C 509.833,508.5 508.5,509.833 507.5,511.5C 498.833,511.5 490.167,511.5 481.5,511.5C 476.346,507.208 475.512,502.208 479,496.5C 479.75,495.874 480.584,495.374 481.5,495C 490.167,493 498.833,493 507.5,495C 508.705,496.376 510.038,497.542 511.5,498.5 Z"/></g>
</svg>
