<?xml version="1.0" encoding="UTF-8"?>
<!DOCTYPE svg PUBLIC "-//W3C//DTD SVG 1.1//EN" "http://www.w3.org/Graphics/SVG/1.1/DTD/svg11.dtd">
<svg xmlns="http://www.w3.org/2000/svg" version="1.1" width="512px" height="512px" style="shape-rendering:geometricPrecision; text-rendering:geometricPrecision; image-rendering:optimizeQuality; fill-rule:evenodd; clip-rule:evenodd" xmlns:xlink="http://www.w3.org/1999/xlink">
<g><path style="opacity:0.971" fill="#000000" d="M 55.5,-0.5 C 188.833,-0.5 322.167,-0.5 455.5,-0.5C 465.247,2.75018 471.413,9.41684 474,19.5C 474.667,55.5 474.667,91.5 474,127.5C 470.987,132.535 466.82,133.702 461.5,131C 460.299,130.097 459.465,128.931 459,127.5C 458.667,92.5 458.333,57.5 458,22.5C 457.214,19.4173 455.381,17.2506 452.5,16C 322.543,14.3404 192.543,14.007 62.5,15C 57.5623,15.2723 54.3956,17.7723 53,22.5C 52.3333,102.167 52.3333,181.833 53,261.5C 53.786,264.583 55.6193,266.749 58.5,268C 124.131,269.158 189.798,269.658 255.5,269.5C 321.202,269.658 386.869,269.158 452.5,268C 455.381,266.749 457.214,264.583 458,261.5C 458.333,226.5 458.667,191.5 459,156.5C 462.892,150.741 467.559,150.074 473,154.5C 474.654,191.082 474.987,227.749 474,264.5C 471.6,274.567 465.434,281.067 455.5,284C 322.167,284.667 188.833,284.667 55.5,284C 45.5664,281.067 39.3998,274.567 37,264.5C 36.3333,182.833 36.3333,101.167 37,19.5C 39.5868,9.41684 45.7534,2.75018 55.5,-0.5 Z"/></g>
<g><path style="opacity:0.937" fill="#000000" d="M 74.5,30.5 C 195.914,30.0038 317.248,30.5038 438.5,32C 440.81,33.6374 442.31,35.804 443,38.5C 443.99,108.557 443.657,178.557 442,248.5C 440.457,250.378 438.624,251.878 436.5,253C 315.086,253.996 193.753,253.663 72.5,252C 70.3834,250.269 68.8834,248.102 68,245.5C 67.3333,176.5 67.3333,107.5 68,38.5C 69.2767,35.0618 71.4433,32.3951 74.5,30.5 Z M 83.5,46.5 C 198.167,46.5 312.833,46.5 427.5,46.5C 427.5,110.167 427.5,173.833 427.5,237.5C 312.833,237.5 198.167,237.5 83.5,237.5C 83.5,173.833 83.5,110.167 83.5,46.5 Z"/></g>
<g><path style="opacity:0.912" fill="#000000" d="M 313.5,60.5 C 317.719,59.979 321.386,61.1457 324.5,64C 351.5,87 378.5,110 405.5,133C 411.025,138.775 410.358,143.775 403.5,148C 401.029,148.706 398.695,148.373 396.5,147C 368.352,122.763 340.019,98.7626 311.5,75C 307.062,69.3731 307.729,64.5398 313.5,60.5 Z"/></g>
<g><path style="opacity:0.906" fill="#000000" d="M 362.5,60.5 C 366.219,60.0025 369.553,60.8358 372.5,63C 383.206,72.7086 394.206,82.0419 405.5,91C 411.006,96.8169 410.339,101.817 403.5,106C 401.029,106.706 398.695,106.373 396.5,105C 383.705,94.5401 371.205,83.7068 359,72.5C 357.227,67.6502 358.394,63.6502 362.5,60.5 Z"/></g>
<g><path style="opacity:0.964" fill="#000000" d="M 462.5,511.5 C 397.833,511.5 333.167,511.5 268.5,511.5C 264.537,506.666 264.537,501.832 268.5,497C 331.167,496.667 393.833,496.333 456.5,496C 457.799,491.754 458.466,487.254 458.5,482.5C 458.167,478.167 457.833,473.833 457.5,469.5C 390.207,468.835 322.873,468.502 255.5,468.5C 188.127,468.502 120.793,468.835 53.5,469.5C 53.1667,473.833 52.8333,478.167 52.5,482.5C 52.5339,487.254 53.2006,491.754 54.5,496C 117.167,496.333 179.833,496.667 242.5,497C 246.463,501.832 246.463,506.666 242.5,511.5C 177.833,511.5 113.167,511.5 48.5,511.5C 42.4503,509.275 38.6169,504.942 37,498.5C 36.0648,486.762 36.3982,475.095 38,463.5C 39.9268,458.572 43.4268,455.406 48.5,454C 56.8267,453.5 65.16,453.334 73.5,453.5C 72.3602,427.197 72.1935,400.863 73,374.5C 76.1041,365.859 82.2708,362.192 91.5,363.5C 91.6621,361.473 91.4955,359.473 91,357.5C 88.3333,353.5 85.6667,349.5 83,345.5C 82.3333,331.167 82.3333,316.833 83,302.5C 84.5293,299.066 87.196,297.4 91,297.5C 97.9711,299.151 105.138,299.984 112.5,300C 116.251,301.415 119.084,303.915 121,307.5C 121.667,317.833 121.667,328.167 121,338.5C 117.288,345.438 111.455,348.272 103.5,347C 107.12,351.854 108.453,357.354 107.5,363.5C 114.5,363.5 121.5,363.5 128.5,363.5C 128.333,345.83 128.5,328.164 129,310.5C 130.002,306.32 132.502,303.486 136.5,302C 145.833,301.333 155.167,301.333 164.5,302C 166.624,303.122 168.457,304.622 170,306.5C 171.143,325.419 171.976,344.419 172.5,363.5C 177.468,365.302 180.968,368.635 183,373.5C 183.824,399.876 183.657,426.209 182.5,452.5C 188.128,453.495 193.794,453.829 199.5,453.5C 198.851,433.53 198.518,413.53 198.5,393.5C 198.357,373.118 198.857,352.784 200,332.5C 202.607,328.114 206.44,325.614 211.5,325C 228.545,324.073 245.545,324.407 262.5,326C 266.49,327.99 268.99,331.157 270,335.5C 270.827,374.541 270.66,413.541 269.5,452.5C 333.831,453.333 398.164,453.833 462.5,454C 467.573,455.406 471.073,458.572 473,463.5C 474.103,469.756 474.603,476.089 474.5,482.5C 474.603,488.911 474.103,495.244 473,501.5C 470.894,506.443 467.394,509.776 462.5,511.5 Z M 98.5,315.5 C 100.833,315.5 103.167,315.5 105.5,315.5C 105.5,320.5 105.5,325.5 105.5,330.5C 103.167,330.5 100.833,330.5 98.5,330.5C 98.5,325.5 98.5,320.5 98.5,315.5 Z M 144.5,316.5 C 148.167,316.5 151.833,316.5 155.5,316.5C 155.5,332.167 155.5,347.833 155.5,363.5C 151.833,363.5 148.167,363.5 144.5,363.5C 144.5,347.833 144.5,332.167 144.5,316.5 Z M 214.5,340.5 C 227.833,340.5 241.167,340.5 254.5,340.5C 254.5,347.167 254.5,353.833 254.5,360.5C 241.167,360.5 227.833,360.5 214.5,360.5C 214.5,353.833 214.5,347.167 214.5,340.5 Z M 214.5,376.5 C 227.833,376.5 241.167,376.5 254.5,376.5C 254.667,400.502 254.5,424.502 254,448.5C 253.065,451.102 251.232,452.602 248.5,453C 238.093,453.926 227.759,453.592 217.5,452C 216.299,451.097 215.465,449.931 215,448.5C 214.5,424.502 214.333,400.502 214.5,376.5 Z M 88.5,379.5 C 114.833,379.5 141.167,379.5 167.5,379.5C 167.98,403.257 167.48,426.924 166,450.5C 164.829,451.893 163.329,452.727 161.5,453C 139.167,453.667 116.833,453.667 94.5,453C 92.6711,452.727 91.1711,451.893 90,450.5C 88.5202,426.924 88.0202,403.257 88.5,379.5 Z"/></g>
</svg>
