<?xml version="1.0" encoding="UTF-8"?>
<!DOCTYPE svg PUBLIC "-//W3C//DTD SVG 1.1//EN" "http://www.w3.org/Graphics/SVG/1.1/DTD/svg11.dtd">
<svg xmlns="http://www.w3.org/2000/svg" version="1.1" width="512px" height="512px" style="shape-rendering:geometricPrecision; text-rendering:geometricPrecision; image-rendering:optimizeQuality; fill-rule:evenodd; clip-rule:evenodd" xmlns:xlink="http://www.w3.org/1999/xlink">
<g><path style="opacity:0.981" fill="#000000" d="M 84.5,-0.5 C 198.5,-0.5 312.5,-0.5 426.5,-0.5C 428.134,0.971672 429.634,2.63834 431,4.5C 431.667,171.833 431.667,339.167 431,506.5C 429.634,508.362 428.134,510.028 426.5,511.5C 312.5,511.5 198.5,511.5 84.5,511.5C 82.8657,510.028 81.3657,508.362 80,506.5C 79.3333,339.167 79.3333,171.833 80,4.5C 81.3657,2.63834 82.8657,0.971672 84.5,-0.5 Z M 99.5,19.5 C 203.5,19.5 307.5,19.5 411.5,19.5C 411.5,23.5 411.5,27.5 411.5,31.5C 307.5,31.5 203.5,31.5 99.5,31.5C 99.5,27.5 99.5,23.5 99.5,19.5 Z M 99.5,51.5 C 203.5,51.5 307.5,51.5 411.5,51.5C 411.666,57.5092 411.499,63.5092 411,69.5C 406.84,67.163 402.34,65.9964 397.5,66C 349.167,65.3333 300.833,65.3333 252.5,66C 231.897,69.1844 220.563,81.1844 218.5,102C 219.069,111.71 222.736,120.044 229.5,127C 218.83,139.409 216.497,153.076 222.5,168C 219.183,168.498 215.85,168.665 212.5,168.5C 212.667,155.496 212.5,142.496 212,129.5C 210.52,126.337 208.02,124.504 204.5,124C 188.17,123.5 171.837,123.333 155.5,123.5C 156.994,108.656 151.994,96.4892 140.5,87C 136.626,84.0627 132.293,82.2294 127.5,81.5C 127.5,79.1667 127.5,76.8333 127.5,74.5C 138.8,73.9021 142.633,68.2355 139,57.5C 137.786,55.9512 136.286,54.7845 134.5,54C 113.297,51.0367 104.297,60.2034 107.5,81.5C 104.833,82.1667 102.167,82.8333 99.5,83.5C 99.5,72.8333 99.5,62.1667 99.5,51.5 Z M 253.5,86.5 C 301.501,86.3333 349.501,86.5 397.5,87C 410.074,90.6544 413.574,98.4877 408,110.5C 406.062,113.106 403.562,114.939 400.5,116C 350.5,116.667 300.5,116.667 250.5,116C 241.807,112.279 238.641,105.779 241,96.5C 243.795,91.3641 247.962,88.0308 253.5,86.5 Z M 114.5,100.5 C 123.618,100.306 130.118,104.306 134,112.5C 135.419,131.125 135.919,149.792 135.5,168.5C 123.5,168.5 111.5,168.5 99.5,168.5C 99.0807,149.792 99.5807,131.125 101,112.5C 103.833,106.493 108.333,102.493 114.5,100.5 Z M 254.5,137.5 C 301.835,137.333 349.168,137.5 396.5,138C 409.118,140.733 413.285,148.233 409,160.5C 405.858,165.437 401.358,167.937 395.5,168C 348.833,168.667 302.167,168.667 255.5,168C 243.452,165.989 238.619,159.155 241,147.5C 244.008,141.972 248.508,138.639 254.5,137.5 Z M 155.5,144.5 C 167.5,144.5 179.5,144.5 191.5,144.5C 191.5,152.5 191.5,160.5 191.5,168.5C 179.5,168.5 167.5,168.5 155.5,168.5C 155.5,160.5 155.5,152.5 155.5,144.5 Z M 99.5,188.5 C 203.5,188.5 307.5,188.5 411.5,188.5C 411.5,201.833 411.5,215.167 411.5,228.5C 384.498,228.333 357.498,228.5 330.5,229C 325.847,232.788 324.347,237.622 326,243.5C 333.346,269.218 340.846,294.884 348.5,320.5C 324.84,321.666 301.174,321.833 277.5,321C 288.048,288.645 298.215,256.145 308,223.5C 309.772,217.533 308.272,212.699 303.5,209C 235.501,208.5 167.501,208.333 99.5,208.5C 99.5,201.833 99.5,195.167 99.5,188.5 Z M 99.5,228.5 C 161.168,228.333 222.834,228.5 284.5,229C 274.988,259.714 265.321,290.38 255.5,321C 203.501,321.5 151.501,321.667 99.5,321.5C 99.5,302.833 99.5,284.167 99.5,265.5C 133.502,265.667 167.502,265.5 201.5,265C 206.275,261.345 207.775,256.512 206,250.5C 204.833,248.667 203.333,247.167 201.5,246C 167.502,245.5 133.502,245.333 99.5,245.5C 99.5,239.833 99.5,234.167 99.5,228.5 Z M 349.5,248.5 C 370.167,248.5 390.833,248.5 411.5,248.5C 411.5,272.833 411.5,297.167 411.5,321.5C 397.817,321.833 384.15,321.499 370.5,320.5C 363.187,296.578 356.187,272.578 349.5,248.5 Z M 99.5,342.5 C 144.505,342.167 189.505,342.5 234.5,343.5C 227.933,354.279 225.766,365.945 228,378.5C 228.822,381.117 229.322,383.784 229.5,386.5C 209.043,390.788 196.21,403.121 191,423.5C 188.69,436.416 191.19,448.249 198.5,459C 165.502,459.5 132.502,459.667 99.5,459.5C 99.5,420.5 99.5,381.5 99.5,342.5 Z M 271.5,342.5 C 288.796,342.801 298.462,351.467 300.5,368.5C 299.35,384.651 290.684,393.651 274.5,395.5C 255.429,392.697 246.929,381.697 249,362.5C 252.668,351.323 260.168,344.656 271.5,342.5 Z M 344.5,342.5 C 361.617,342.95 371.617,351.617 374.5,368.5C 369.695,392.235 356.029,399.735 333.5,391C 317.607,376.318 317.607,361.651 333.5,347C 337.157,345.178 340.824,343.678 344.5,342.5 Z M 387.5,343.5 C 395.316,342.508 403.316,342.174 411.5,342.5C 411.667,359.503 411.5,376.503 411,393.5C 405.419,389.626 399.252,387.293 392.5,386.5C 397.28,371.31 395.613,356.976 387.5,343.5 Z M 232.5,406.5 C 253.814,406.645 263.981,417.312 263,438.5C 256.355,456.57 243.855,462.403 225.5,456C 210.852,446.047 207.685,433.214 216,417.5C 220.344,411.924 225.844,408.257 232.5,406.5 Z M 306.5,406.5 C 324.841,406 335.174,414.833 337.5,433C 334.563,451.934 323.563,460.267 304.5,458C 292.465,453.786 285.798,445.286 284.5,432.5C 286.506,419.172 293.839,410.506 306.5,406.5 Z M 379.5,406.5 C 394.948,405.297 405.115,411.964 410,426.5C 412.432,442.144 406.266,452.644 391.5,458C 374.815,460.409 363.982,453.576 359,437.5C 357.853,421.774 364.686,411.441 379.5,406.5 Z M 99.5,479.5 C 203.5,479.5 307.5,479.5 411.5,479.5C 411.5,483.5 411.5,487.5 411.5,491.5C 307.5,491.5 203.5,491.5 99.5,491.5C 99.5,487.5 99.5,483.5 99.5,479.5 Z"/></g>
<g><path style="opacity:0.903" fill="#000000" d="M 221.5,245.5 C 231.069,244.012 235.902,248.012 236,257.5C 233.724,264.751 228.89,267.251 221.5,265C 215.975,262.081 214.142,257.581 216,251.5C 217.36,248.977 219.193,246.977 221.5,245.5 Z"/></g>
<g><path style="opacity:0.893" fill="#000000" d="M 270.5,358.5 C 281.458,357.768 285.958,362.768 284,373.5C 278.719,380.422 272.719,381.088 266,375.5C 262.492,368.523 263.992,362.856 270.5,358.5 Z"/></g>
<g><path style="opacity:0.89" fill="#000000" d="M 344.5,358.5 C 354.145,357.646 358.645,361.979 358,371.5C 356.066,377.702 351.899,380.202 345.5,379C 337.465,375.225 335.632,369.392 340,361.5C 341.652,360.601 343.152,359.601 344.5,358.5 Z"/></g>
<g><path style="opacity:0.895" fill="#000000" d="M 233.5,422.5 C 241.964,421.138 246.964,424.638 248.5,433C 245.665,442.616 239.665,445.283 230.5,441C 225.795,433.814 226.795,427.647 233.5,422.5 Z"/></g>
<g><path style="opacity:0.893" fill="#000000" d="M 306.5,422.5 C 317.382,421.01 322.215,425.677 321,436.5C 316.157,444.377 310.157,445.377 303,439.5C 299.293,432.797 300.459,427.131 306.5,422.5 Z"/></g>
<g><path style="opacity:0.885" fill="#000000" d="M 380.5,422.5 C 388.932,421.099 393.932,424.599 395.5,433C 393.372,441.73 388.039,444.73 379.5,442C 374.78,438.702 373.28,434.202 375,428.5C 376.36,425.977 378.193,423.977 380.5,422.5 Z"/></g>
</svg>
