<?xml version="1.0" encoding="UTF-8"?>
<!DOCTYPE svg PUBLIC "-//W3C//DTD SVG 1.1//EN" "http://www.w3.org/Graphics/SVG/1.1/DTD/svg11.dtd">
<svg xmlns="http://www.w3.org/2000/svg" version="1.1" width="512px" height="512px" style="shape-rendering:geometricPrecision; text-rendering:geometricPrecision; image-rendering:optimizeQuality; fill-rule:evenodd; clip-rule:evenodd" xmlns:xlink="http://www.w3.org/1999/xlink">
<g><path style="opacity:0.947" fill="#000000" d="M 21.5,-0.5 C 83.5,-0.5 145.5,-0.5 207.5,-0.5C 223.504,6.51547 229.004,18.5155 224,35.5C 219.316,45.3355 211.482,50.6688 200.5,51.5C 200.5,113.5 200.5,175.5 200.5,237.5C 296.86,237.017 393.193,237.517 489.5,239C 503.513,244.853 509.347,255.353 507,270.5C 501.266,285.961 490.099,292.627 473.5,290.5C 478.486,329.259 468.32,363.259 443,392.5C 423.978,411.26 401.145,422.427 374.5,426C 346.5,426.333 318.5,426.667 290.5,427C 280.283,428.884 273.45,434.718 270,444.5C 268.734,462.79 268.067,481.123 268,499.5C 266.064,504.932 262.564,508.932 257.5,511.5C 207.833,511.5 158.167,511.5 108.5,511.5C 103.857,509.021 100.357,505.355 98,500.5C 97.5,430.501 97.3333,360.501 97.5,290.5C 66.1706,291.618 44.3373,277.952 32,249.5C 30.3631,244.286 29.3631,238.953 29,233.5C 28.8333,172.831 28.3333,112.164 27.5,51.5C 9.38074,47.8742 1.5474,36.8742 4,18.5C 6.9552,9.38309 12.7885,3.04976 21.5,-0.5 Z M 25.5,17.5 C 84.8343,17.3333 144.168,17.5 203.5,18C 209.933,23.7577 209.267,28.7577 201.5,33C 143.833,33.6667 86.1667,33.6667 28.5,33C 20.3579,29.3238 19.3579,24.1571 25.5,17.5 Z M 46.5,51.5 C 91.8333,51.5 137.167,51.5 182.5,51.5C 182.5,125.167 182.5,198.833 182.5,272.5C 148.469,272.951 114.469,272.451 80.5,271C 60.5765,265.349 49.4099,252.183 47,231.5C 46.5,171.501 46.3333,111.501 46.5,51.5 Z M 200.5,255.5 C 294.167,255.333 387.834,255.5 481.5,256C 488.567,257.634 490.733,261.8 488,268.5C 486.681,270.487 484.848,271.654 482.5,272C 388.501,272.5 294.501,272.667 200.5,272.5C 200.5,266.833 200.5,261.167 200.5,255.5 Z M 115.5,290.5 C 228.833,290.5 342.167,290.5 455.5,290.5C 460.549,326.176 450.882,357.009 426.5,383C 411.186,396.894 393.186,405.227 372.5,408C 344.5,408.333 316.5,408.667 288.5,409C 267.339,412.827 254.839,425.327 251,446.5C 250.5,462.163 250.333,477.83 250.5,493.5C 205.5,493.5 160.5,493.5 115.5,493.5C 115.5,425.833 115.5,358.167 115.5,290.5 Z"/></g>
<g><path style="opacity:0.916" fill="#000000" d="M 68.5,67.5 C 75.2953,66.3031 79.4619,68.9698 81,75.5C 81.6667,81.8333 81.6667,88.1667 81,94.5C 78.6271,101.855 73.7938,104.022 66.5,101C 65.2986,100.097 64.4652,98.9308 64,97.5C 63.3333,88.8333 63.3333,80.1667 64,71.5C 65.3968,69.9297 66.8968,68.5964 68.5,67.5 Z"/></g>
<g><path style="opacity:0.939" fill="#000000" d="M 68.5,118.5 C 75.2439,117.282 79.4106,119.949 81,126.5C 81.6667,155.5 81.6667,184.5 81,213.5C 79.4404,221.03 74.9404,223.53 67.5,221C 66.3333,219.833 65.1667,218.667 64,217.5C 63.3333,186.167 63.3333,154.833 64,123.5C 65.025,121.313 66.525,119.646 68.5,118.5 Z"/></g>
</svg>
