<?xml version="1.0" encoding="UTF-8"?>
<!DOCTYPE svg PUBLIC "-//W3C//DTD SVG 1.1//EN" "http://www.w3.org/Graphics/SVG/1.1/DTD/svg11.dtd">
<svg xmlns="http://www.w3.org/2000/svg" version="1.1" width="512px" height="512px" style="shape-rendering:geometricPrecision; text-rendering:geometricPrecision; image-rendering:optimizeQuality; fill-rule:evenodd; clip-rule:evenodd" xmlns:xlink="http://www.w3.org/1999/xlink">
<g><path style="opacity:0.952" fill="#000000" d="M 248.5,-0.5 C 253.167,-0.5 257.833,-0.5 262.5,-0.5C 270.661,2.76543 275.828,8.76543 278,17.5C 278.5,41.4977 278.667,65.4977 278.5,89.5C 283.167,89.5 287.833,89.5 292.5,89.5C 292.334,81.16 292.5,72.8267 293,64.5C 293.785,62.714 294.951,61.214 296.5,60C 319.167,59.3333 341.833,59.3333 364.5,60C 369.833,64.6667 369.833,69.3333 364.5,74C 355.84,74.4998 347.173,74.6664 338.5,74.5C 338.5,79.5 338.5,84.5 338.5,89.5C 372.835,89.3333 407.168,89.5 441.5,90C 443.333,90.5 444.5,91.6667 445,93.5C 444.76,152.498 418.26,194.998 365.5,221C 350.754,227.183 335.421,231.016 319.5,232.5C 318.667,314.831 318.167,397.165 318,479.5C 314.98,496.016 305.48,506.683 289.5,511.5C 266.833,511.5 244.167,511.5 221.5,511.5C 205.52,506.683 196.02,496.016 193,479.5C 192.833,397.165 192.333,314.831 191.5,232.5C 141.574,227.309 104.408,202.976 80,159.5C 69.3175,138.771 64.6508,116.771 66,93.5C 66.5,91.6667 67.6667,90.5 69.5,90C 103.832,89.5 138.165,89.3333 172.5,89.5C 172.5,84.5 172.5,79.5 172.5,74.5C 163.827,74.6664 155.16,74.4998 146.5,74C 141.167,69.3333 141.167,64.6667 146.5,60C 169.167,59.3333 191.833,59.3333 214.5,60C 216.049,61.214 217.215,62.714 218,64.5C 218.5,72.8267 218.666,81.16 218.5,89.5C 223.167,89.5 227.833,89.5 232.5,89.5C 232.333,65.4977 232.5,41.4977 233,17.5C 235.172,8.76543 240.339,2.76543 248.5,-0.5 Z M 252.5,15.5 C 256.639,14.7042 259.805,16.0375 262,19.5C 262.498,22.8168 262.665,26.1501 262.5,29.5C 257.833,29.5 253.167,29.5 248.5,29.5C 247.489,23.959 248.822,19.2923 252.5,15.5 Z M 248.5,44.5 C 253.167,44.5 257.833,44.5 262.5,44.5C 262.5,59.5 262.5,74.5 262.5,89.5C 257.833,89.5 253.167,89.5 248.5,89.5C 248.5,74.5 248.5,59.5 248.5,44.5 Z M 188.5,74.5 C 193.167,74.5 197.833,74.5 202.5,74.5C 202.5,79.5 202.5,84.5 202.5,89.5C 197.833,89.5 193.167,89.5 188.5,89.5C 188.5,84.5 188.5,79.5 188.5,74.5 Z M 308.5,74.5 C 313.167,74.5 317.833,74.5 322.5,74.5C 322.5,79.5 322.5,84.5 322.5,89.5C 317.833,89.5 313.167,89.5 308.5,89.5C 308.5,84.5 308.5,79.5 308.5,74.5 Z M 81.5,104.5 C 197.5,104.5 313.5,104.5 429.5,104.5C 423.378,158.938 394.378,194.772 342.5,212C 335.286,213.98 327.953,215.313 320.5,216C 289.5,216.333 258.5,216.667 227.5,217C 223.139,219.226 221.639,222.726 223,227.5C 223.833,229.667 225.333,231.167 227.5,232C 252.498,232.5 277.498,232.667 302.5,232.5C 302.667,314.501 302.5,396.501 302,478.5C 299.905,486.927 294.739,492.427 286.5,495C 267.872,496.586 249.205,496.919 230.5,496C 219.186,495.26 212.02,489.427 209,478.5C 208.667,392.833 208.333,307.167 208,221.5C 207.167,219.333 205.667,217.833 203.5,217C 143.532,214.008 104.032,184.174 85,127.5C 83.0403,119.948 81.8736,112.282 81.5,104.5 Z"/></g>
</svg>
