<?xml version="1.0" encoding="UTF-8"?>
<!DOCTYPE svg PUBLIC "-//W3C//DTD SVG 1.1//EN" "http://www.w3.org/Graphics/SVG/1.1/DTD/svg11.dtd">
<svg xmlns="http://www.w3.org/2000/svg" version="1.1" width="512px" height="512px" style="shape-rendering:geometricPrecision; text-rendering:geometricPrecision; image-rendering:optimizeQuality; fill-rule:evenodd; clip-rule:evenodd" xmlns:xlink="http://www.w3.org/1999/xlink">
<g><path style="opacity:0.95" fill="#000000" d="M 17.5,-0.5 C 28.1667,-0.5 38.8333,-0.5 49.5,-0.5C 58.0572,2.22189 63.8905,7.88855 67,16.5C 68.4087,30.4491 68.9087,44.4491 68.5,58.5C 193.167,58.5 317.833,58.5 442.5,58.5C 442.091,44.4491 442.591,30.4491 444,16.5C 447.109,7.88855 452.943,2.22189 461.5,-0.5C 472.167,-0.5 482.833,-0.5 493.5,-0.5C 501.833,3.16667 507.833,9.16667 511.5,17.5C 511.5,176.167 511.5,334.833 511.5,493.5C 507.833,501.833 501.833,507.833 493.5,511.5C 482.833,511.5 472.167,511.5 461.5,511.5C 452.943,508.778 447.109,503.111 444,494.5C 442.591,480.551 442.091,466.551 442.5,452.5C 428.833,452.5 415.167,452.5 401.5,452.5C 402.62,463.645 399.286,473.145 391.5,481C 389.112,482.861 386.446,484.194 383.5,485C 353.713,486.151 323.88,486.651 294,486.5C 264.12,486.651 234.287,486.151 204.5,485C 190.356,478.893 184.356,468.06 186.5,452.5C 147.167,452.5 107.833,452.5 68.5,452.5C 68.9087,466.551 68.4087,480.551 67,494.5C 63.8905,503.111 58.0572,508.778 49.5,511.5C 38.8333,511.5 28.1667,511.5 17.5,511.5C 9.16667,507.833 3.16667,501.833 -0.5,493.5C -0.5,334.833 -0.5,176.167 -0.5,17.5C 3.16667,9.16667 9.16667,3.16667 17.5,-0.5 Z M 21.5,17.5 C 29.5069,17.3336 37.5069,17.5003 45.5,18C 47.8147,19.1094 49.3147,20.9427 50,23.5C 50.6667,178.167 50.6667,332.833 50,487.5C 49.3147,490.057 47.8147,491.891 45.5,493C 37.5,493.667 29.5,493.667 21.5,493C 20.3333,491.833 19.1667,490.667 18,489.5C 17.3333,333.5 17.3333,177.5 18,21.5C 19.3756,20.2949 20.5423,18.9616 21.5,17.5 Z M 465.5,17.5 C 473.507,17.3336 481.507,17.5003 489.5,18C 490.667,19.1667 491.833,20.3333 493,21.5C 493.667,177.5 493.667,333.5 493,489.5C 491.833,490.667 490.667,491.833 489.5,493C 481.5,493.667 473.5,493.667 465.5,493C 463.185,491.891 461.685,490.057 461,487.5C 460.333,332.833 460.333,178.167 461,23.5C 461.804,20.8541 463.304,18.8541 465.5,17.5 Z M 68.5,76.5 C 193.167,76.5 317.833,76.5 442.5,76.5C 442.5,87.5 442.5,98.5 442.5,109.5C 317.833,109.5 193.167,109.5 68.5,109.5C 68.5,98.5 68.5,87.5 68.5,76.5 Z M 68.5,127.5 C 193.167,127.5 317.833,127.5 442.5,127.5C 442.5,152.833 442.5,178.167 442.5,203.5C 425.497,203.667 408.497,203.5 391.5,203C 380.583,186.097 365.249,175.431 345.5,171C 314.029,169.86 282.529,169.36 251,169.5C 219.471,169.36 187.971,169.86 156.5,171C 136.945,175.102 121.945,185.602 111.5,202.5C 97.1821,203.499 82.8488,203.833 68.5,203.5C 68.5,178.167 68.5,152.833 68.5,127.5 Z M 165.5,187.5 C 194.316,187.829 212.483,201.829 220,229.5C 220.5,309.166 220.667,388.833 220.5,468.5C 217.15,468.665 213.817,468.498 210.5,468C 207.572,466.74 205.739,464.573 205,461.5C 204.667,384.5 204.333,307.5 204,230.5C 199.531,215.698 189.698,206.865 174.5,204C 161.167,203.667 147.833,203.333 134.5,203C 143.307,194.597 153.64,189.43 165.5,187.5 Z M 216.5,188.5 C 236.331,187.833 256.331,187.5 276.5,187.5C 298.864,187.372 321.197,187.872 343.5,189C 362.497,193.998 374.997,205.831 381,224.5C 382.061,229.104 382.727,233.771 383,238.5C 383.667,312.167 383.667,385.833 383,459.5C 382.857,463.977 380.691,466.811 376.5,468C 330.501,468.5 284.501,468.667 238.5,468.5C 238.667,387.833 238.5,307.166 238,226.5C 235.159,211.127 227.993,198.461 216.5,188.5 Z M 68.5,221.5 C 104.215,221.026 139.882,221.526 175.5,223C 180.308,225.141 183.808,228.641 186,233.5C 186.5,240.826 186.666,248.159 186.5,255.5C 147.167,255.5 107.833,255.5 68.5,255.5C 68.5,244.167 68.5,232.833 68.5,221.5 Z M 399.5,221.5 C 413.833,221.5 428.167,221.5 442.5,221.5C 442.5,232.833 442.5,244.167 442.5,255.5C 428.833,255.5 415.167,255.5 401.5,255.5C 401.638,244.112 400.971,232.779 399.5,221.5 Z M 68.5,273.5 C 79.5,273.5 90.5,273.5 101.5,273.5C 101.333,295.169 101.5,316.836 102,338.5C 105.273,348.774 112.106,355.274 122.5,358C 143.831,358.5 165.164,358.667 186.5,358.5C 186.5,366.833 186.5,375.167 186.5,383.5C 147.167,383.5 107.833,383.5 68.5,383.5C 68.5,346.833 68.5,310.167 68.5,273.5 Z M 119.5,273.5 C 124.833,273.5 130.167,273.5 135.5,273.5C 135.5,295.833 135.5,318.167 135.5,340.5C 132.15,340.665 128.817,340.498 125.5,340C 123,338.833 121.167,337 120,334.5C 119.5,314.169 119.333,293.836 119.5,273.5 Z M 153.5,273.5 C 164.5,273.5 175.5,273.5 186.5,273.5C 186.5,295.833 186.5,318.167 186.5,340.5C 175.5,340.5 164.5,340.5 153.5,340.5C 153.5,318.167 153.5,295.833 153.5,273.5 Z M 401.5,273.5 C 415.167,273.5 428.833,273.5 442.5,273.5C 442.5,310.167 442.5,346.833 442.5,383.5C 428.833,383.5 415.167,383.5 401.5,383.5C 401.5,346.833 401.5,310.167 401.5,273.5 Z M 68.5,401.5 C 107.833,401.5 147.167,401.5 186.5,401.5C 186.5,412.5 186.5,423.5 186.5,434.5C 147.167,434.5 107.833,434.5 68.5,434.5C 68.5,423.5 68.5,412.5 68.5,401.5 Z M 401.5,401.5 C 415.167,401.5 428.833,401.5 442.5,401.5C 442.5,412.5 442.5,423.5 442.5,434.5C 428.833,434.5 415.167,434.5 401.5,434.5C 401.5,423.5 401.5,412.5 401.5,401.5 Z"/></g>
</svg>
